<?xml version="1.0" standalone="no"?>
<!DOCTYPE svg PUBLIC "-//W3C//DTD SVG 1.1//EN" "http://www.w3.org/Graphics/SVG/1.1/DTD/svg11.dtd" >
<svg xmlns="http://www.w3.org/2000/svg" xmlns:xlink="http://www.w3.org/1999/xlink" version="1.1">
<metadata>
Created by FontForge 20170924 at Wed Aug 10 12:38:51 2016
 By www-data
2016 published by Monotype GmbH
</metadata>
<defs>
<font id="MarkForMCNarrowW00-Bold" horiz-adv-x="2045" >
  <font-face 
    font-family="Mark For MC Narrow W00 Bold"
    font-weight="700"
    font-stretch="semi-condensed"
    units-per-em="2000"
    panose-1="2 11 8 6 2 2 1 1 1 4"
    ascent="1600"
    descent="-400"
    x-height="974"
    cap-height="1400"
    bbox="-1432 -457 2484 2214"
    underline-thickness="100"
    underline-position="-250"
    unicode-range="U+0020-FEFF"
  />
<missing-glyph horiz-adv-x="1057" 
d="M111 1400h835v-1400h-835v1400zM735 211v978h-413v-978h413z" />
    <glyph glyph-name=".notdef" horiz-adv-x="1057" 
d="M111 1400h835v-1400h-835v1400zM735 211v978h-413v-978h413z" />
    <glyph glyph-name="glyph1" horiz-adv-x="0" 
 />
    <glyph glyph-name="glyph1" horiz-adv-x="0" 
 />
    <glyph glyph-name="glyph2" horiz-adv-x="420" 
 />
    <glyph glyph-name="space" unicode=" " horiz-adv-x="420" 
 />
    <glyph glyph-name="exclam" unicode="!" horiz-adv-x="522" 
d="M375 477h-228l-31 923h290zM261 324q35 0 66.5 -14t55 -37.5t37 -55t13.5 -66.5t-13.5 -66.5t-37 -55t-55 -37.5t-66.5 -14t-66.5 14t-55 37.5t-37.5 55t-14 67.5q0 35 14 66t37.5 54.5t55 37.5t66.5 14z" />
    <glyph glyph-name="quotedbl" unicode="&#x22;" horiz-adv-x="994" 
d="M424 1440v-601h-246v601h246zM816 1440v-601h-246v601h246z" />
    <glyph glyph-name="numbersign" unicode="#" horiz-adv-x="1262" 
d="M997 858l-59 -308h172l-41 -218h-172l-64 -332h-227l64 332h-219l-64 -332h-226l64 332h-174l42 218h173l59 308h-174l42 218h174l62 324h226l-62 -324h220l62 324h226l-62 -324h172l-41 -218h-173zM771 858h-220l-59 -308h220z" />
    <glyph glyph-name="dollar" unicode="$" horiz-adv-x="1253" 
d="M753 810q90 -20 161 -52.5t121 -79t76.5 -108t26.5 -138.5q0 -87 -30.5 -156.5t-83 -120.5t-124 -84t-153.5 -46v-194h-211v188q-128 13 -239.5 58.5t-191.5 117.5l151 195q51 -42 122 -77t158 -49v323l-6 1q-187 42 -284.5 139.5t-97.5 254.5q0 80 28.5 147t80 118
t122.5 84t157 46v185h211v-182q114 -12 205 -49t174 -97l-138 -201q-49 35 -109.5 62t-131.5 40v-324zM418 993q0 -45 30.5 -76t87.5 -53v263q-54 -17 -86 -51t-32 -83zM864 410q0 45 -29.5 74.5t-87.5 51.5v-262q54 17 85.5 51t31.5 85z" />
    <glyph glyph-name="percent" unicode="%" horiz-adv-x="1763" 
d="M418 1424q77 0 142.5 -26.5t113.5 -74t75.5 -113.5t27.5 -145q0 -80 -27.5 -146t-75.5 -113.5t-113.5 -74t-142.5 -26.5t-142.5 26.5t-113.5 74t-75 113.5t-27 146q0 79 27 145t75 113.5t113.5 74t142.5 26.5zM579 0h-244l845 1400h245zM418 1229q-32 0 -59.5 -12
t-47.5 -33.5t-31.5 -52t-11.5 -66.5q0 -37 11.5 -67.5t31.5 -52t47.5 -33.5t59.5 -12q33 0 60.5 12t47.5 33.5t31.5 52t11.5 67.5q0 36 -11.5 66.5t-31.5 52t-47.5 33.5t-60.5 12zM1344 696q77 0 143 -26.5t114 -74t75 -113.5t27 -145t-27 -145t-75 -113.5t-114 -74
t-143 -26.5t-142 26.5t-113 74t-75 113.5t-27 145t27 145t75 113.5t113 74t142 26.5zM1344 502q-32 0 -59.5 -12t-47.5 -34t-31.5 -52.5t-11.5 -66.5t11.5 -66.5t31.5 -52t47.5 -33.5t59.5 -12q33 0 60.5 12t48 33.5t31.5 52t11 66.5q0 37 -11 67t-31.5 52t-48 34t-60.5 12z
" />
    <glyph glyph-name="ampersand" unicode="&#x26;" horiz-adv-x="1317" 
d="M977 0l-131 140q-35 -35 -74.5 -64.5t-86 -51.5t-99.5 -34t-114 -12q-95 0 -170 25t-127 71.5t-79.5 112t-27.5 146.5q0 62 19 116.5t50.5 103t73 91t86.5 81.5q-42 47 -72.5 88.5t-51 82t-30.5 83t-10 91.5q0 76 27 141t77.5 111.5t121 73t157.5 26.5q84 0 153.5 -25.5
t119 -70.5t76.5 -107.5t27 -137.5q0 -57 -20 -107.5t-53 -96t-76.5 -86.5t-90.5 -79l185 -200l179 260l192 -123l-208 -314l308 -335h-331zM388 1067q0 -20 5 -39t17.5 -40t33.5 -47t52 -60q31 25 57 49t45 47.5t30 47.5t11 49q0 52 -33.5 85t-90.5 33q-58 0 -92.5 -33
t-34.5 -92zM495 213q56 0 102.5 26t89.5 71l-126 135q-56 60 -103 109q-53 -48 -86 -96.5t-33 -103.5q0 -65 42.5 -103t113.5 -38z" />
    <glyph glyph-name="quotesingle" unicode="'" horiz-adv-x="602" 
d="M424 1440v-601h-246v601h246z" />
    <glyph glyph-name="parenleft" unicode="(" horiz-adv-x="757" 
d="M706 1213q-89 -46 -154.5 -112.5t-108.5 -149.5t-64 -180t-21 -203q0 -107 21 -203.5t64 -179.5t108.5 -149.5t154.5 -112.5l-88 -229q-120 50 -217.5 133.5t-166.5 195.5t-106.5 249.5t-37.5 295.5t37.5 295.5t106.5 249.5t166.5 195.5t217.5 133.5z" />
    <glyph glyph-name="parenright" unicode=")" horiz-adv-x="757" 
d="M51 -76q89 46 154.5 112.5t108.5 149.5t64 179.5t21 203.5q0 106 -21 203t-64 180t-108.5 149.5t-154.5 112.5l88 229q120 -50 217.5 -133.5t166.5 -195.5t106.5 -249.5t37.5 -295.5t-37.5 -295.5t-106.5 -249.5t-166.5 -195.5t-217.5 -133.5z" />
    <glyph glyph-name="asterisk" unicode="*" horiz-adv-x="860" 
d="M579 1039l139 -180l-161 -116l-127 186l-127 -186l-161 116l139 180l-217 63l61 188l212 -76l-6 226h198l-6 -226l212 76l61 -188z" />
    <glyph glyph-name="plus" unicode="+" horiz-adv-x="1104" 
d="M957 422h-295v-302h-221v302h-295v218h295v303h221v-303h295v-218z" />
    <glyph glyph-name="comma" unicode="," horiz-adv-x="503" 
d="M422 310l-133 -583h-212l66 583h279z" />
    <glyph glyph-name="hyphen" unicode="-" horiz-adv-x="710" 
d="M621 418h-532v226h532v-226z" />
    <glyph glyph-name="period" unicode="." horiz-adv-x="522" 
d="M261 331q36 0 68 -14t56 -38t38 -56t14 -68t-14 -68t-38 -56.5t-56 -38.5t-68 -14t-68 14t-56.5 38.5t-38.5 57t-14 68.5t14 67.5t38.5 55.5t56.5 38t68 14z" />
    <glyph glyph-name="slash" unicode="/" horiz-adv-x="959" 
d="M231 -200h-265l765 1740h264z" />
    <glyph glyph-name="zero" unicode="0" horiz-adv-x="1104" 
d="M555 1422q107 0 198.5 -43.5t158 -132.5t104 -225t37.5 -321q0 -188 -37.5 -324.5t-104 -225t-158 -130.5t-198.5 -42q-109 0 -201 42t-159.5 130.5t-105.5 225t-38 324.5t38 324.5t105.5 225t159.5 130.5t201 42zM555 1165q-49 0 -91 -24.5t-73 -80t-49 -144t-18 -216.5
t18 -216.5t49 -144t73 -80t91 -24.5q47 0 88 24.5t71.5 80t48 144t17.5 216.5q0 124 -17.5 212t-48 144.5t-71.5 82.5t-88 26z" />
    <glyph glyph-name="one" unicode="1" horiz-adv-x="1104" 
d="M1019 251v-251h-844v251h299v804l-307 -114v265l570 215v-1170h282z" />
    <glyph glyph-name="two" unicode="2" horiz-adv-x="1104" 
d="M86 1195q30 40 71 80.5t95.5 73t123.5 53t155 20.5q103 0 185.5 -31.5t140 -88.5t88.5 -137t31 -177q0 -62 -12.5 -115.5t-35.5 -103.5t-56.5 -98t-76.5 -97l-282 -325h487v-249h-852v216l450 515q48 56 75 114.5t27 121.5q0 43 -13.5 79t-38.5 62t-60.5 41t-80.5 15
t-82 -12t-68 -32.5t-58 -47.5t-51 -56z" />
    <glyph glyph-name="three" unicode="3" horiz-adv-x="1104" 
d="M770 706q104 -44 163 -125.5t59 -195.5q0 -102 -40 -178.5t-107 -127t-154.5 -76t-181.5 -25.5q-142 0 -253 48t-185 135l155 179q53 -57 122.5 -87.5t147.5 -30.5q46 0 86.5 11.5t70.5 35t47 58t17 81.5q0 43 -19 76t-51 55.5t-76 34.5t-93 12h-150v241h151
q45 0 84.5 11.5t68 33.5t45 55t16.5 75q0 41 -15.5 73.5t-43 55t-65.5 34t-83 11.5q-43 0 -80.5 -10t-69.5 -27.5t-58 -40t-46 -47.5l-152 183q34 40 76 74.5t94 60t114.5 39.5t136.5 14q103 0 188.5 -28.5t147 -80.5t95.5 -125.5t34 -162.5q0 -113 -51.5 -193.5
t-144.5 -125.5z" />
    <glyph glyph-name="four" unicode="4" horiz-adv-x="1104" 
d="M1058 261h-166v-261h-263v261h-570v197l434 942h287l-411 -892h260v349h263v-349h166v-247z" />
    <glyph glyph-name="five" unicode="5" horiz-adv-x="1104" 
d="M933 1154h-502l-8 -285h116q111 0 198 -31.5t146.5 -87.5t90.5 -133.5t31 -170.5q0 -109 -36.5 -195.5t-101 -147t-153 -93t-193.5 -32.5q-143 0 -255.5 49t-189.5 134l136 197q24 -26 57 -50t72.5 -42.5t84 -29.5t90.5 -11q52 0 92.5 15t68 41.5t41.5 64t14 82.5
q0 43 -14 79.5t-45.5 63.5t-81 42.5t-121.5 15.5h-288l18 771h733v-246z" />
    <glyph glyph-name="six" unicode="6" horiz-adv-x="1104" 
d="M589 909q100 0 183 -35t142 -96.5t92 -145.5t33 -181q0 -103 -37 -189.5t-102 -149.5t-155 -98.5t-195 -35.5t-194 35t-154.5 97t-102.5 148t-37 187q0 92 30 181.5t89 186.5l351 587h309l-313 -495q14 2 29 3t32 1zM550 221q48 0 87.5 16.5t68 46.5t44 72t15.5 93
q0 50 -15.5 91.5t-44 71.5t-68 46.5t-87.5 16.5q-47 0 -86.5 -16.5t-67.5 -46.5t-43.5 -71.5t-15.5 -91.5q0 -51 15.5 -93t43.5 -72t67.5 -46.5t86.5 -16.5z" />
    <glyph glyph-name="seven" unicode="7" horiz-adv-x="1104" 
d="M1003 1184l-510 -1184h-306l509 1149h-591v251h898v-216z" />
    <glyph glyph-name="eight" unicode="8" horiz-adv-x="1104" 
d="M829 707q48 -20 89.5 -49.5t72.5 -69.5t49 -92t18 -116q0 -95 -39.5 -170t-108 -126.5t-160 -78.5t-194.5 -27q-104 0 -195 27t-159.5 78.5t-108 126.5t-39.5 170q0 64 18 116t49 92t72.5 69.5t89.5 49.5q-42 21 -78 50.5t-63 68.5t-42 88t-15 109q0 94 37 168t101 125.5
t149.5 78.5t183.5 27q97 0 183 -27t150 -78.5t101 -125.5t37 -168q0 -60 -15 -109t-42 -88t-63 -68.5t-78 -50.5zM556 1180q-41 0 -76.5 -11.5t-62 -34t-41.5 -56t-15 -78.5t15 -79t41 -57.5t62 -35t77 -11.5t76.5 11.5t62 35t41.5 57.5t15 79t-15 78.5t-41.5 56t-62 34
t-76.5 11.5zM556 216q45 0 85 12t70 36t47.5 59.5t17.5 82.5t-17.5 83t-47.5 60t-70 36.5t-85 12.5t-85 -12.5t-70 -36.5t-47.5 -60t-17.5 -83t17.5 -82.5t47.5 -59.5t70 -36t85 -12z" />
    <glyph glyph-name="nine" unicode="9" horiz-adv-x="1104" 
d="M557 1422q105 0 194 -35t154.5 -97.5t102.5 -148t37 -186.5q0 -92 -30 -181.5t-88 -186.5l-352 -587h-309l313 495q-14 -2 -29 -3t-32 -1q-100 0 -183 35t-142 96.5t-92 145.5t-33 181q0 103 37 189.5t102 149.5t155 98.5t195 35.5zM557 725q47 0 86.5 16.5t67.5 46.5
t43.5 71.5t15.5 91.5q0 51 -15.5 93t-43.5 72t-67.5 46.5t-86.5 16.5t-86.5 -16.5t-68 -46.5t-44 -72t-15.5 -93q0 -50 15.5 -91.5t44 -71.5t68 -46.5t86.5 -16.5z" />
    <glyph glyph-name="colon" unicode=":" horiz-adv-x="521" 
d="M261 997q36 0 68 -14t56 -38.5t38 -56.5t14 -68t-14 -68t-38 -56.5t-56 -38.5t-68 -14t-68 14t-56.5 38.5t-38.5 57t-14 68.5t14 68t38.5 56t56.5 38t68 14zM261 332q36 0 68 -14t56 -38.5t38 -56.5t14 -68t-14 -68t-38 -56.5t-56 -38.5t-68 -14t-68 14t-56.5 38.5
t-38.5 57t-14 68.5t14 68t38.5 56t56.5 38t68 14z" />
    <glyph glyph-name="semicolon" unicode=";" horiz-adv-x="521" 
d="M261 997q36 0 68 -14t56 -38.5t38 -56.5t14 -68t-14 -68t-38 -56.5t-56 -38.5t-68 -14t-68 14t-56.5 38.5t-38.5 57t-14 68.5t14 68t38.5 56t56.5 38t68 14zM416 310l-133 -583h-212l66 583h279z" />
    <glyph glyph-name="less" unicode="&#x3c;" horiz-adv-x="1104" 
d="M176 421v222l732 342v-242l-494 -211l494 -213v-242z" />
    <glyph glyph-name="equal" unicode="=" horiz-adv-x="1104" 
d="M957 624h-811v213h811v-213zM957 226h-811v213h811v-213z" />
    <glyph glyph-name="greater" unicode="&#x3e;" horiz-adv-x="1104" 
d="M928 642v-222l-732 -342v242l494 211l-494 213v242z" />
    <glyph glyph-name="question" unicode="?" horiz-adv-x="809" 
d="M278 1424q115 0 207 -28.5t156 -81t98 -128t34 -168.5q0 -164 -99 -267t-282 -137l-8 -140h-229v359h82q122 0 188 42.5t66 124.5q0 79 -65.5 120.5t-185.5 41.5q-17 0 -35 -0.5t-33 -1t-25.5 -1t-12.5 -0.5l-42 254q39 5 87.5 8t98.5 3zM269 324q35 0 66 -14t54.5 -37.5
t37.5 -55t14 -66.5t-14 -66.5t-37.5 -55t-54.5 -37.5t-66 -14t-66.5 14t-55 37.5t-37.5 55t-14 67.5q0 35 14 66t37.5 54.5t55 37.5t66.5 14z" />
    <glyph glyph-name="at" unicode="@" horiz-adv-x="1743" 
d="M1212 882v-460q0 -146 82 -146q61 0 98.5 65t37.5 203q0 131 -41 240t-114.5 187.5t-175.5 122t-225 43.5t-226 -46t-176.5 -130t-114.5 -201.5t-41 -259.5q0 -143 40 -260.5t112.5 -201.5t173.5 -130.5t223 -46.5q91 0 172 25.5t155 85.5l117 -153q-100 -81 -213.5 -115
t-230.5 -34q-170 0 -309.5 61.5t-240 171.5t-155.5 262.5t-55 334.5q0 181 56 333t157 262t243 171.5t313 61.5t312 -58.5t241.5 -163t155.5 -248t55 -313.5q0 -103 -25.5 -188t-72 -145.5t-112.5 -94t-146 -33.5q-51 0 -91 11.5t-70 32t-50.5 47.5t-33.5 59
q-32 -57 -85.5 -96t-133.5 -39q-73 0 -132 31.5t-101 85.5t-64.5 127t-22.5 157q0 83 23 156t64.5 127t99 85.5t126.5 31.5q73 0 122.5 -33t81.5 -84v99h197zM862 297q34 0 62 14.5t48 41t31 64t11 82.5q0 46 -11 83t-31 63.5t-48 41t-62 14.5t-62 -14.5t-48 -41t-31 -64
t-11 -82.5t11 -82.5t31 -64t48 -41t62 -14.5z" />
    <glyph glyph-name="A" unicode="A" horiz-adv-x="1320" 
d="M915 317h-515l-102 -317h-284l484 1400h324l484 -1400h-289zM834 566l-177 548l-176 -548h353z" />
    <glyph glyph-name="B" unicode="B" horiz-adv-x="1234" 
d="M946 713q48 -18 88 -48t69.5 -70.5t46 -90t16.5 -106.5q0 -98 -32.5 -172.5t-95.5 -124.5t-155.5 -75.5t-211.5 -25.5h-544v1400h517q115 0 207 -24.5t156 -73.5t98 -122t34 -170q0 -53 -14 -99t-39.5 -84t-61 -66.5t-78.5 -47.5zM401 1161v-337h237q47 0 87 8.5t69 28.5
t45.5 52.5t16.5 80.5q0 47 -16.5 79t-45.5 51.5t-69 28t-87 8.5h-237zM661 238q51 0 92 9t70 30t45 54.5t16 82.5q0 48 -16 81t-45 54t-70 30t-92 9h-260v-350h260z" />
    <glyph glyph-name="C" unicode="C" horiz-adv-x="1313" 
d="M721 1423q89 0 170 -21.5t150 -62t123.5 -99t91.5 -133.5l-236 -129q-49 88 -125 134t-175 46q-79 0 -145 -31t-114 -90t-75 -144t-27 -193q0 -111 28 -196.5t77 -143.5t115 -88t142 -30q97 0 174 45.5t128 133.5l226 -143q-39 -71 -93.5 -126.5t-121.5 -94.5t-146 -59.5
t-167 -20.5q-144 0 -263 51.5t-204 146t-132 228t-47 297.5t47 297.5t132 228t204 146t263 51.5z" />
    <glyph glyph-name="D" unicode="D" horiz-adv-x="1374" 
d="M640 1400q153 0 275 -49.5t207.5 -141t131 -220.5t45.5 -289q0 -159 -45.5 -288.5t-131 -221t-207.5 -141t-275 -49.5h-513v1400h513zM635 254q96 0 167.5 32t118.5 90.5t70 140.5t23 183t-23 183.5t-70 141t-118.5 90t-167.5 31.5h-234v-892h234z" />
    <glyph glyph-name="E" unicode="E" horiz-adv-x="1158" 
d="M1056 249v-249h-929v1400h926v-249h-652v-320h618v-249h-618v-333h655z" />
    <glyph glyph-name="F" unicode="F" horiz-adv-x="1118" 
d="M401 1151v-331h599v-249h-599v-571h-274v1400h915v-249h-641z" />
    <glyph glyph-name="G" unicode="G" horiz-adv-x="1389" 
d="M727 1423q159 0 281 -61.5t200 -173.5l-205 -168q-50 68 -120.5 105t-163.5 37q-80 0 -146.5 -31t-114.5 -90t-74.5 -145t-26.5 -196q0 -115 28.5 -202t77.5 -145.5t115 -88.5t141 -30q144 0 228.5 79t106.5 238h-314v226h584q2 -23 3.5 -49t1.5 -53q0 -165 -46.5 -294.5
t-128 -219t-192 -136.5t-237.5 -47q-137 0 -255.5 48.5t-206.5 141t-138 227t-50 305.5q0 165 47.5 298.5t133.5 228t206 145.5t265 51z" />
    <glyph glyph-name="H" unicode="H" horiz-adv-x="1365" 
d="M1238 1400v-1400h-273v580h-564v-580h-274v1400h274v-567h564v567h273z" />
    <glyph glyph-name="I" unicode="I" horiz-adv-x="528" 
d="M401 0h-274v1400h274v-1400z" />
    <glyph glyph-name="J" unicode="J" horiz-adv-x="991" 
d="M870 475q0 -123 -34 -216t-95 -155.5t-145.5 -94t-186.5 -31.5q-70 0 -129 13.5t-107.5 35.5t-86 50.5t-64.5 59.5l143 205q37 -42 92.5 -71t130.5 -29q97 0 153 62t56 196v900h273v-925z" />
    <glyph glyph-name="K" unicode="K" horiz-adv-x="1282" 
d="M512 580h-111v-580h-274v1400h274v-570h115l398 570h331l-508 -684l545 -716h-340z" />
    <glyph glyph-name="L" unicode="L" horiz-adv-x="1067" 
d="M1041 254v-254h-914v1400h274v-1146h640z" />
    <glyph glyph-name="M" unicode="M" horiz-adv-x="1661" 
d="M1534 0h-272v1030l-292 -805h-278l-292 801v-1026h-273v1400h386l318 -851l318 851h385v-1400z" />
    <glyph glyph-name="N" unicode="N" horiz-adv-x="1392" 
d="M1265 0h-262l-604 910v-910h-272v1400h262l605 -912v912h271v-1400z" />
    <glyph glyph-name="O" unicode="O" horiz-adv-x="1448" 
d="M724 1423q145 0 264.5 -52t205 -146.5t132.5 -228t47 -296.5t-47 -296.5t-132.5 -228t-205 -146.5t-264.5 -52t-264.5 52t-205 146.5t-132.5 228t-47 296.5t47 296.5t132.5 228t205 146.5t264.5 52zM724 1158q-81 0 -148 -31t-115 -90t-75 -144t-27 -193t27 -193t75 -144
t115 -90t148 -31t148 31t115 90t75 144t27 193t-27 193t-75 144t-115 90t-148 31z" />
    <glyph glyph-name="P" unicode="P" horiz-adv-x="1190" 
d="M637 1400q117 0 208.5 -31.5t154.5 -90t96 -142t33 -186.5q0 -102 -33 -184t-95.5 -140t-153.5 -89t-208 -31h-238v-506h-274v1400h510zM634 752q100 0 157.5 49t57.5 149t-57.5 149.5t-157.5 49.5h-233v-397h233z" />
    <glyph glyph-name="Q" unicode="Q" horiz-adv-x="1466" 
d="M1149 0l-61 90q-75 -54 -166 -83.5t-198 -29.5q-145 0 -264.5 51.5t-205 146.5t-132.5 228t-47 297q0 163 47 297t132.5 228.5t205 146.5t264.5 52t264.5 -52t205 -146.5t132.5 -228.5t47 -297q0 -125 -28 -229.5t-79 -189.5l187 -281h-304zM360 700q0 -108 27 -193
t75 -144.5t115 -90.5t147 -31q59 0 110 16.5t94 48.5l-236 345h291l82 -130q23 81 23 179q0 108 -26.5 193t-74.5 144.5t-115 90.5t-148 31q-80 0 -147 -31t-115 -90.5t-75 -144.5t-27 -193z" />
    <glyph glyph-name="R" unicode="R" horiz-adv-x="1215" 
d="M470 551h-69v-551h-274v1400h522q117 0 208.5 -29.5t154 -85t95 -136t32.5 -181.5q0 -83 -25.5 -152t-73.5 -121.5t-118 -87.5t-158 -48l386 -559h-322zM401 784h245q100 0 156.5 45t56.5 139q0 92 -57.5 136.5t-155.5 44.5h-245v-365z" />
    <glyph glyph-name="S" unicode="S" horiz-adv-x="1213" 
d="M978 1052q-66 48 -151.5 81.5t-189.5 33.5q-50 0 -92 -11t-72 -31.5t-47 -50t-17 -67.5q0 -35 17.5 -61t50 -45.5t78.5 -34.5t103 -28l83 -19q91 -21 164.5 -55t125 -82.5t79 -113.5t27.5 -148q0 -111 -42.5 -193.5t-114.5 -138t-167.5 -83t-202.5 -27.5q-79 0 -154.5 13
t-143.5 37.5t-128 59.5t-108 80l158 206q32 -28 72.5 -54t88 -45.5t101.5 -31t114 -11.5q51 0 94 10.5t74.5 31.5t49.5 51t18 69q0 69 -60 106t-180 63l-91 20q-193 42 -293.5 143.5t-100.5 268.5q0 97 38 175.5t106 134.5t161 86.5t204 30.5q69 0 132.5 -9t123.5 -28.5
t118.5 -49.5t117.5 -72z" />
    <glyph glyph-name="T" unicode="T" horiz-adv-x="1091" 
d="M1065 1146h-383v-1146h-274v1146h-383v254h1040v-254z" />
    <glyph glyph-name="U" unicode="U" horiz-adv-x="1320" 
d="M1205 513q0 -128 -38 -228t-109 -168t-171.5 -103.5t-226.5 -35.5t-227 35.5t-172 103.5t-109 168t-38 228v887h274v-873q0 -73 19.5 -126.5t55.5 -89t86 -52.5t111 -17t111 17t86 52.5t55.5 89t19.5 126.5v873h273v-887z" />
    <glyph glyph-name="V" unicode="V" horiz-adv-x="1302" 
d="M1288 1400l-473 -1400h-328l-473 1400h290l349 -1102l351 1102h284z" />
    <glyph glyph-name="W" unicode="W" horiz-adv-x="1969" 
d="M1945 1400l-375 -1400h-327l-259 972l-260 -972h-327l-375 1400h283l261 -1060l273 1060h293l272 -1057l262 1057h279z" />
    <glyph glyph-name="X" unicode="X" horiz-adv-x="1223" 
d="M888 1l-278 498l-278 -498h-306l416 709l-408 690h310l269 -483l270 483h306l-408 -690l416 -709h-309z" />
    <glyph glyph-name="Y" unicode="Y" horiz-adv-x="1238" 
d="M760 544v-544h-274v541l-482 859h314l306 -572l305 572h305z" />
    <glyph glyph-name="Z" unicode="Z" horiz-adv-x="1151" 
d="M1074 1187l-650 -938h650v-249h-998v213l650 938h-646v249h994v-213z" />
    <glyph glyph-name="bracketleft" unicode="[" horiz-adv-x="674" 
d="M383 1169v-1201h241v-231h-497v1663h497v-231h-241z" />
    <glyph glyph-name="backslash" unicode="\" horiz-adv-x="959" 
d="M-36 1540h264l765 -1740h-265z" />
    <glyph glyph-name="bracketright" unicode="]" horiz-adv-x="674" 
d="M547 -263h-497v231h241v1201h-241v231h497v-1663z" />
    <glyph glyph-name="asciicircum" unicode="^" horiz-adv-x="1096" 
d="M731 712l-186 444l-185 -444h-241l319 688h220l319 -688h-246z" />
    <glyph glyph-name="underscore" unicode="_" horiz-adv-x="844" 
d="M849 -314h-854v211h854v-211z" />
    <glyph glyph-name="grave" unicode="`" horiz-adv-x="836" 
d="M176 1420h290l193 -322h-236z" />
    <glyph glyph-name="a" unicode="a" horiz-adv-x="1093" 
d="M982 974v-974h-248v116q-42 -62 -105.5 -100t-155.5 -38q-90 0 -165.5 38t-130.5 105.5t-85.5 161t-30.5 205.5q0 111 30.5 204.5t85.5 161t130.5 105.5t165.5 38q92 0 155.5 -38.5t105.5 -100.5v116h248zM531 219q46 0 84.5 18.5t65.5 53t42 84.5t15 112t-15 112t-42 85
t-65.5 53.5t-84.5 18.5q-48 0 -86.5 -19t-65.5 -54t-41.5 -85t-14.5 -111q0 -62 14.5 -111.5t41.5 -84t65.5 -53.5t86.5 -19z" />
    <glyph glyph-name="b" unicode="b" horiz-adv-x="1092" 
d="M619 997q90 0 166 -38t130.5 -105.5t85 -161t30.5 -204.5q0 -112 -30.5 -205.5t-85 -161t-130 -105.5t-165.5 -38q-92 0 -155.5 38t-105.5 99v-115h-248v1440h256v-569q42 57 103.5 91.5t148.5 34.5zM562 219q47 0 85.5 19t65.5 53.5t41.5 84t14.5 111.5q0 61 -14.5 111
t-41.5 85t-65.5 54t-85.5 19t-85 -18.5t-65.5 -53.5t-42.5 -85t-15 -112t15 -112t42.5 -84.5t65.5 -53t85 -18.5z" />
    <glyph glyph-name="c" unicode="c" horiz-adv-x="918" 
d="M527 996q114 0 205 -46.5t151 -134.5l-185 -147q-35 42 -77 64.5t-95 22.5q-43 0 -80.5 -17.5t-65 -51.5t-43.5 -84t-16 -115t16 -115t43.5 -84t64.5 -51.5t79 -17.5q53 0 96.5 24t78.5 64l184 -149q-60 -87 -151 -133.5t-205 -46.5q-105 0 -190.5 37t-147 103.5
t-95 160.5t-33.5 208t33.5 208t95 161t147 103.5t190.5 36.5z" />
    <glyph glyph-name="d" unicode="d" horiz-adv-x="1092" 
d="M981 1440v-1440h-247v116q-42 -62 -105.5 -100t-155.5 -38q-90 0 -165.5 38t-130.5 105.5t-85.5 161t-30.5 205.5q0 111 30.5 204.5t85.5 161t130.5 105.5t165.5 38q88 0 149.5 -35t103.5 -92v570h255zM531 219q46 0 84.5 18.5t65.5 53t42 84.5t15 112t-15 112t-42 85
t-65.5 53.5t-84.5 18.5q-48 0 -86.5 -19t-65.5 -54t-41.5 -85t-14.5 -111q0 -62 14.5 -111.5t41.5 -84t65.5 -53.5t86.5 -19z" />
    <glyph glyph-name="e" unicode="e" horiz-adv-x="1007" 
d="M945 488q0 -21 -1.5 -44t-3.5 -40h-617q17 -106 75 -155.5t146 -49.5q60 0 116 23t101 65l148 -166q-75 -73 -171.5 -108t-210.5 -35q-105 0 -191 35.5t-147 101t-94.5 159t-33.5 210.5t32.5 211.5t92 161t142.5 103t184 36.5q97 0 176.5 -36t136.5 -102t88.5 -160
t31.5 -210zM690 578q-14 96 -60 145t-120 49q-78 0 -125 -49.5t-61 -144.5h366z" />
    <glyph glyph-name="f" unicode="f" horiz-adv-x="775" 
d="M451 974h268v-231h-268v-743h-255v743h-163v231h163v117q0 88 22.5 157.5t65 116.5t103.5 72t138 25q95 0 162 -23.5t116 -58.5l-100 -199q-32 17 -66 28.5t-76 11.5q-110 0 -110 -133v-114z" />
    <glyph glyph-name="g" unicode="g" horiz-adv-x="1084" 
d="M973 974v-900q0 -113 -34 -201t-96 -148t-149.5 -91.5t-194.5 -31.5q-112 0 -214 29.5t-175 86.5l99 204q59 -44 126.5 -67.5t147.5 -23.5q50 0 93.5 14t76 43t51 72t18.5 102v91q-43 -60 -106.5 -96t-154.5 -36q-84 0 -157 35t-127 99t-85 154t-31 200t31 200t85 154
t127 99t157 35q92 0 157 -37.5t108 -100.5v115h247zM527 259q46 0 83.5 17.5t64 50t41 79t14.5 103.5t-14.5 103t-41 78.5t-64 50t-83.5 17.5t-83.5 -18t-64 -50.5t-41 -78.5t-14.5 -102t14.5 -102t41 -79t64 -51t83.5 -18z" />
    <glyph glyph-name="h" unicode="h" horiz-adv-x="1058" 
d="M619 997q74 0 135.5 -25t105.5 -70.5t68.5 -110.5t24.5 -144v-647h-256v571q0 91 -43 137.5t-118 46.5q-35 0 -66 -12t-54 -35.5t-36 -58t-13 -80.5v-569h-256v1440h256v-569q45 67 109.5 96.5t142.5 29.5z" />
    <glyph glyph-name="i" unicode="i" horiz-adv-x="477" 
d="M366 0h-255v974h255v-974zM237 1446q33 0 62 -12t50 -33.5t33 -50.5t12 -62t-12 -61.5t-33 -49.5t-50 -33t-62 -12t-62 12t-50 33t-33 50t-12 62t12 61.5t33 50t50 33.5t62 12z" />
    <glyph glyph-name="j" unicode="j" horiz-adv-x="478" 
d="M367 -91q0 -74 -19.5 -132t-55.5 -97.5t-86 -60t-111 -20.5q-38 0 -78.5 8t-67.5 19l35 226q14 -5 29 -8.5t33 -3.5q29 0 47.5 20t18.5 67v1047h255v-1065zM237 1446q33 0 62 -12t50 -33.5t33 -50.5t12 -62t-12 -61.5t-33 -49.5t-50 -33t-62 -12t-62 12t-50 33t-33 50
t-12 62t12 61.5t33 50t50 33.5t62 12z" />
    <glyph glyph-name="k" unicode="k" horiz-adv-x="997" 
d="M442 393h-77v-393h-254v1440h254v-813h79l235 347h305l-334 -460l339 -514h-306z" />
    <glyph glyph-name="l" unicode="l" horiz-adv-x="476" 
d="M365 0h-254v1440h254v-1440z" />
    <glyph glyph-name="m" unicode="m" horiz-adv-x="1643" 
d="M1197 997q77 0 140 -25t107.5 -70.5t69 -110.5t24.5 -144v-647h-256v571q0 91 -43 137.5t-118 46.5q-35 0 -65.5 -12t-53.5 -35.5t-36 -58t-13 -80.5v-569h-256v571q0 91 -43 137.5t-118 46.5q-35 0 -66 -12t-54 -35.5t-36 -58t-13 -80.5v-569h-256v974h246v-119
q45 75 112.5 108.5t149.5 33.5q97 0 170.5 -41t116.5 -116q47 84 123 120.5t168 36.5z" />
    <glyph glyph-name="n" unicode="n" horiz-adv-x="1057" 
d="M619 997q74 0 135 -25t105 -70.5t68.5 -110.5t24.5 -144v-647h-255v571q0 91 -43 137.5t-118 46.5q-35 0 -66 -12t-54 -35.5t-36 -58t-13 -80.5v-569h-256v974h246v-119q45 75 112.5 108.5t149.5 33.5z" />
    <glyph glyph-name="o" unicode="o" horiz-adv-x="1067" 
d="M533 996q104 0 191 -37t149.5 -104t97.5 -160.5t35 -207.5t-35 -207.5t-97.5 -160.5t-149.5 -104t-191 -37t-190.5 37t-149 104t-97.5 160.5t-35 207.5t35 207.5t97.5 160.5t149 104t190.5 37zM533 755q-47 0 -85.5 -18.5t-67 -53t-44 -84t-15.5 -112.5t15.5 -113
t44 -84.5t67 -52.5t85.5 -18q46 0 85.5 18t67.5 52.5t44 84.5t16 113t-16 112.5t-44 84t-67.5 53t-85.5 18.5z" />
    <glyph glyph-name="p" unicode="p" horiz-adv-x="1092" 
d="M619 997q90 0 166 -38t130.5 -105.5t85 -161.5t30.5 -205t-30.5 -204.5t-85 -161t-130 -105.5t-165.5 -38q-87 0 -149 35t-104 91v-488h-256v1358h248v-115q42 62 105.5 100t154.5 38zM562 219q47 0 85.5 19t65.5 53.5t41.5 84t14.5 111.5q0 61 -14.5 111t-41.5 85
t-65.5 54t-85.5 19t-85 -18.5t-65.5 -53.5t-42.5 -85t-15 -112t15 -112t42.5 -84.5t65.5 -53t85 -18.5z" />
    <glyph glyph-name="q" unicode="q" horiz-adv-x="1092" 
d="M981 974v-1358h-255v488q-42 -57 -103.5 -91.5t-149.5 -34.5q-90 0 -165.5 38t-130.5 105.5t-85.5 161t-30.5 204.5t30.5 205t85.5 161.5t130.5 105.5t165.5 38q92 0 155.5 -38.5t105.5 -100.5v116h247zM531 219q46 0 84.5 18.5t65.5 53t42 84.5t15 112t-15 112t-42 85
t-65.5 53.5t-84.5 18.5q-48 0 -86.5 -19t-65.5 -54t-41.5 -85t-14.5 -111q0 -62 14.5 -111.5t41.5 -84t65.5 -53.5t86.5 -19z" />
    <glyph glyph-name="r" unicode="r" horiz-adv-x="746" 
d="M602 997q67 0 111 -19l-29 -261q-29 11 -65.5 18t-72.5 7q-82 0 -130.5 -50t-48.5 -148v-544h-256v974h246v-114q39 71 100.5 104t144.5 33z" />
    <glyph glyph-name="s" unicode="s" horiz-adv-x="912" 
d="M747 708q-27 14 -60 27t-68 23t-71 16t-70 6q-66 0 -99 -23.5t-33 -61.5q0 -42 40 -61.5t112 -32.5l72 -13q143 -26 214.5 -98.5t71.5 -188.5q0 -74 -28.5 -134t-81 -102t-128.5 -64.5t-170 -22.5q-54 0 -108 6t-104.5 19t-96.5 33.5t-84 48.5l101 197q57 -39 127 -63
t161 -24q76 0 115.5 22.5t39.5 66.5q0 35 -34.5 57.5t-116.5 37.5l-67 12q-155 29 -225 104.5t-70 191.5q0 72 26.5 129.5t76 97.5t120 61t158.5 21q53 0 100 -5.5t91 -16.5t86.5 -28t87.5 -39z" />
    <glyph glyph-name="t" unicode="t" horiz-adv-x="841" 
d="M828 67q-56 -39 -126 -64t-166 -25q-165 0 -250 92t-85 269v404h-168v231h168v275h255v-275h309v-231h-309v-378q0 -40 10 -68t27.5 -45t41.5 -25t52 -8q42 0 82 16t73 37z" />
    <glyph glyph-name="u" unicode="u" horiz-adv-x="1048" 
d="M944 390q0 -107 -33 -184.5t-90 -128t-133.5 -75t-163.5 -24.5t-163.5 24.5t-133.5 75t-90 128.5t-33 185v583h255v-563q0 -51 12.5 -87t34 -59.5t52 -34.5t66.5 -11q73 0 119 45.5t46 146.5v563h255v-584z" />
    <glyph glyph-name="v" unicode="v" horiz-adv-x="1000" 
d="M986 974l-339 -974h-290l-343 974h273l217 -690l217 690h265z" />
    <glyph glyph-name="w" unicode="w" horiz-adv-x="1592" 
d="M1571 974l-303 -974h-283l-190 643l-188 -643h-282l-304 974h269l186 -669l195 669h251l198 -670l186 670h265z" />
    <glyph glyph-name="x" unicode="x" horiz-adv-x="1005" 
d="M688 0l-189 312l-185 -312h-292l314 495l-304 479h297l179 -307l178 307h292l-305 -481l310 -493h-295z" />
    <glyph glyph-name="y" unicode="y" horiz-adv-x="1026" 
d="M1019 974l-646 -1358h-275l288 577l-376 781h285l225 -508l224 508h275z" />
    <glyph glyph-name="z" unicode="z" horiz-adv-x="942" 
d="M855 778l-434 -548h443v-230h-786v190l443 553h-427v231h761v-196z" />
    <glyph glyph-name="braceleft" unicode="{" horiz-adv-x="789" 
d="M673 1180q-70 0 -111 -44t-37 -132l5 -125q2 -57 -7 -105.5t-31.5 -87.5t-60.5 -68.5t-95 -48.5q57 -19 94.5 -48.5t60 -69t31.5 -87.5t7 -105l-4 -125q-3 -88 37.5 -132.5t110.5 -44.5h66v-220h-104q-93 0 -163.5 28.5t-117 81t-68 128t-18.5 169.5l5 132q4 91 -49 137
t-148 46v219q95 0 148 46t49 137l-5 132q-4 94 18 169.5t68.5 128.5t117 81t163.5 28h104v-220h-66z" />
    <glyph glyph-name="bar" unicode="|" horiz-adv-x="608" 
d="M430 -265h-252v1665h252v-1665z" />
    <glyph glyph-name="braceright" unicode="}" horiz-adv-x="789" 
d="M116 -42q70 0 111 44t37 132l-5 125q-2 57 7 105.5t31.5 87.5t60.5 68.5t95 48.5q-57 19 -95 48.5t-60.5 69t-31 87.5t-6.5 105l4 125q3 88 -37.5 132.5t-110.5 44.5h-66v220h104q93 0 163.5 -28.5t117 -81t68 -128t18.5 -169.5l-5 -132q-4 -91 49 -137t148 -46v-219
q-95 0 -148 -46t-49 -137l5 -132q4 -95 -18 -170t-68.5 -128t-117 -81t-163.5 -28h-104v220h66z" />
    <glyph glyph-name="asciitilde" unicode="~" horiz-adv-x="1096" 
d="M980 535q-52 -76 -121.5 -114t-151.5 -38q-59 0 -102.5 13.5t-80 29t-69.5 29t-70 13.5q-36 0 -70 -20.5t-71 -62.5l-128 145q52 77 121.5 115t151.5 38q59 0 102.5 -13.5t80 -29t69 -29t70.5 -13.5q36 0 70 20t71 62z" />
    <glyph glyph-name="uni00A0" unicode="&#xa0;" horiz-adv-x="420" 
 />
    <glyph glyph-name="exclamdown" unicode="&#xa1;" horiz-adv-x="522" 
d="M261 651q-35 0 -66.5 14t-55 37.5t-37 55t-13.5 66.5t13.5 66.5t37 55t55 37.5t66.5 14t66.5 -14t55 -37.5t37.5 -55t14 -67.5q0 -35 -14 -66t-37.5 -54.5t-55 -37.5t-66.5 -14zM147 498h228l31 -923h-290z" />
    <glyph glyph-name="cent" unicode="&#xa2;" horiz-adv-x="1253" 
d="M778 443q58 23 101 70l169 -156q-49 -62 -116.5 -103t-153.5 -55v-199h-211v206q-82 19 -147.5 62t-111.5 107t-71 146t-25 179t25 179t71 146t111.5 107t147.5 62v206h211v-199q86 -14 154 -55t116 -104l-172 -155q-45 49 -98 70v-514zM465 700q0 -85 27 -145t75 -92
v473q-47 -32 -74.5 -91.5t-27.5 -144.5z" />
    <glyph glyph-name="sterling" unicode="&#xa3;" horiz-adv-x="1253" 
d="M555 249h537v-249h-947v249h145v345h-144v212h144v121q0 124 37.5 217t102 154.5t151 92.5t184.5 31q103 0 193 -33.5t154 -99.5l-161 -194q-35 35 -80 53.5t-98 18.5q-46 0 -86 -14.5t-69 -45t-46 -78t-17 -113.5v-110h413v-212h-413v-345z" />
    <glyph glyph-name="currency" unicode="&#xa4;" horiz-adv-x="1253" 
d="M999 173l-141 143q-50 -32 -108 -49.5t-122 -17.5t-122 17.5t-109 49.5l-141 -143l-140 142l142 144q-32 53 -49 113.5t-17 127.5q0 66 17 126.5t49 112.5l-143 146l140 142l142 -144q51 32 109 49.5t122 17.5q63 0 120.5 -17t108.5 -49l140 143l142 -142l-142 -144
q32 -52 50 -113t18 -128t-17.5 -128t-49.5 -114l142 -143zM391 700q0 -53 18 -99t49.5 -80t75 -53.5t94.5 -19.5q50 0 93.5 19.5t75.5 53.5t50.5 80t18.5 99q0 52 -18.5 98t-50.5 80t-75.5 53.5t-93.5 19.5q-51 0 -94.5 -19.5t-75 -53.5t-49.5 -80t-18 -98z" />
    <glyph glyph-name="yen" unicode="&#xa5;" horiz-adv-x="1253" 
d="M826 760h262v-175h-324v-136h324v-175h-324v-274h-263v274h-324v175h324v136h-324v175h257l-390 640h301l287 -496l284 496h293z" />
    <glyph glyph-name="brokenbar" unicode="&#xa6;" horiz-adv-x="608" 
d="M430 706h-252v694h252v-694zM430 -265h-252v694h252v-694z" />
    <glyph glyph-name="section" unicode="&#xa7;" horiz-adv-x="1163" 
d="M935 336q53 -42 81 -97.5t28 -128.5q0 -96 -38.5 -168t-103 -119.5t-150 -71t-179.5 -23.5q-144 0 -269 42t-213 121l140 191q30 -24 66.5 -46t80 -39.5t92.5 -27.5t105 -10q43 0 80 7.5t64.5 23t43 38t15.5 52.5q0 29 -16 49t-46 35t-74 26.5t-100 24.5l-75 17
q-82 18 -147 47t-110 70.5t-69 95t-24 121.5q0 78 36 141t101 108q-109 88 -109 236q0 83 34 151.5t95.5 117t145.5 75.5t185 27q120 0 227.5 -33t214.5 -108l-126 -196q-59 42 -136 73.5t-173 31.5q-43 0 -80 -8t-64 -23.5t-42 -38t-15 -51.5t17.5 -50.5t49 -38t76.5 -29
t99 -22.5l68 -13q82 -16 147 -43.5t110 -67.5t69 -92.5t24 -117.5q0 -88 -36.5 -151.5t-99.5 -107.5zM380 591q0 -29 16.5 -50t47.5 -37t76 -28t101 -24q26 -5 49 -9.5t38 -8.5q46 17 72.5 49t26.5 77q0 30 -15.5 50.5t-45 36t-73 27t-98.5 22.5l-93 19q-47 -17 -74.5 -48
t-27.5 -76z" />
    <glyph glyph-name="dieresis" unicode="&#xa8;" horiz-adv-x="941" 
d="M257 1411q33 0 61.5 -12t49.5 -33.5t33 -50t12 -61.5t-12 -61t-33 -49t-49.5 -33t-61.5 -12t-61.5 12t-49 33t-32.5 49.5t-12 61.5t12 61.5t32.5 49.5t49 33t61.5 12zM677 1411q33 0 61.5 -12t49.5 -33.5t33 -50t12 -61.5t-12 -61t-33 -49t-49.5 -33t-61.5 -12t-61.5 12
t-49 33t-32.5 49.5t-12 61.5t12 61.5t32.5 49.5t49 33t61.5 12z" />
    <glyph glyph-name="copyright" unicode="&#xa9;" horiz-adv-x="1822" 
d="M910 1514q113 0 218 -29t196.5 -81t166.5 -125.5t128 -163t82.5 -192t29.5 -213.5t-29.5 -213.5t-82.5 -192t-128 -163t-166.5 -126t-196.5 -81.5t-218 -29q-114 0 -218.5 29t-195.5 81.5t-166 126t-128.5 163t-82.5 192t-29 213.5t29 213.5t82.5 192t128.5 163
t166 125.5t195.5 81t218.5 29zM910 1292q-122 0 -229 -45.5t-187 -124.5t-126 -185t-46 -227t46 -227.5t126 -185.5t187 -124.5t229 -45.5t229 45.5t187 124.5t126 185.5t46 227.5t-46 227t-126 185t-187 124.5t-229 45.5zM1098 812q-58 106 -177 106q-40 0 -74.5 -15
t-60 -42.5t-40 -66t-14.5 -85.5q0 -53 16 -92t42.5 -64.5t60.5 -37.5t70 -12q117 0 182 105l178 -119q-55 -88 -145.5 -138.5t-211.5 -50.5q-91 0 -167.5 30t-131.5 84t-86 129.5t-31 166.5t31 166.5t86 129.5t131.5 84t167.5 30q59 0 114.5 -14t102.5 -41t85 -66t63 -88z
" />
    <glyph glyph-name="ordfeminine" unicode="&#xaa;" horiz-adv-x="724" 
d="M345 1293q65 0 120 -16.5t95.5 -51.5t63 -89t22.5 -130v-423h-181v73q-31 -37 -76 -63t-113 -26q-51 0 -93 15.5t-71 44t-45 68.5t-16 89q0 100 70.5 157t204.5 57h130q-2 126 -133 126q-51 0 -92.5 -17t-72.5 -40l-75 143q45 37 111.5 60t150.5 23zM329 720
q43 0 76.5 21t55.5 51v79h-107q-57 0 -83 -22t-26 -54q0 -33 21 -54t63 -21z" />
    <glyph glyph-name="guillemotleft" unicode="&#xab;" horiz-adv-x="1030" 
d="M942 146h-252l-184 385l184 385h252l-184 -385zM519 146h-252l-184 385l184 385h252l-184 -385z" />
    <glyph glyph-name="logicalnot" unicode="&#xac;" horiz-adv-x="1104" 
d="M939 640v-497h-220v279h-590v218h810z" />
    <glyph glyph-name="uni00AD" unicode="&#xad;" horiz-adv-x="710" 
d="M621 418h-532v226h532v-226z" />
    <glyph glyph-name="registered" unicode="&#xae;" horiz-adv-x="990" 
d="M496 1442q93 0 173.5 -34.5t140 -93.5t93.5 -138.5t34 -170.5q0 -90 -34.5 -169.5t-94 -139t-140 -94t-172.5 -34.5q-94 0 -175 34.5t-140.5 94t-93.5 139t-34 169.5q0 91 34 170.5t93.5 138.5t140.5 93.5t175 34.5zM496 695q62 0 117 24.5t96 67t65 99t24 119.5
q0 64 -24 120.5t-65 98.5t-96 66.5t-117 24.5q-63 0 -119 -24.5t-97 -66.5t-65 -98.5t-24 -120.5q0 -63 24 -119.5t65 -99t97 -67t119 -24.5zM680 1071q0 -47 -29 -79t-84 -43l118 -143h-128l-106 139h-14v-139h-108v399h188q81 0 122 -37t41 -97zM437 1109v-74h78
q25 0 40 8.5t15 27.5t-15 28.5t-40 9.5h-78z" />
    <glyph glyph-name="macron" unicode="&#xaf;" horiz-adv-x="801" 
d="M92 1360h616v-212h-616v212z" />
    <glyph glyph-name="degree" unicode="&#xb0;" horiz-adv-x="851" 
d="M425 717q-74 0 -139 27t-113.5 74t-76.5 111.5t-28 139.5t28 140t76.5 113t113.5 75t139 27q75 0 140 -27t113.5 -75t76.5 -113t28 -140t-28 -139.5t-76.5 -111.5t-113.5 -74t-140 -27zM425 907q32 0 60.5 12.5t50 34t34 51t12.5 64.5q0 34 -12.5 63.5t-34 51.5t-50 34.5
t-60.5 12.5t-60.5 -12.5t-50 -34.5t-34 -51.5t-12.5 -63.5q0 -35 12.5 -64.5t34 -51t50 -34t60.5 -12.5z" />
    <glyph glyph-name="plusminus" unicode="&#xb1;" horiz-adv-x="1104" 
d="M441 563h-295v217h295v287h221v-287h295v-217h-295v-242h-221v242zM958 226v-212h-813v212h813z" />
    <glyph glyph-name="uni00B2" unicode="&#xb2;" horiz-adv-x="646" 
d="M42 1279q18 22 43.5 46t59.5 43.5t77 32t97 12.5q61 0 110.5 -18t84.5 -52t54 -81.5t19 -105.5q0 -36 -7 -67.5t-22.5 -61.5t-40 -61t-58.5 -65l-128 -131h269v-173h-518v148l260 271q26 28 40.5 58t14.5 62q0 42 -27.5 69.5t-72.5 27.5q-24 0 -45 -7t-39.5 -18.5
t-34.5 -26t-31 -30.5z" />
    <glyph glyph-name="uni00B3" unicode="&#xb3;" horiz-adv-x="650" 
d="M467 1002q61 -26 94.5 -72t33.5 -110q0 -60 -25 -104.5t-66.5 -73.5t-95.5 -43.5t-111 -14.5q-85 0 -152 28t-112 79l101 125q65 -65 152 -65q24 0 45 5.5t37 16t25.5 27t9.5 39.5q0 20 -10 35.5t-27.5 26t-40.5 15.5t-49 5h-86v162h88q48 0 80 21t32 60q0 38 -29 59
t-77 21q-52 0 -89.5 -21t-63.5 -49l-94 131q44 48 105.5 78t153.5 30q62 0 114.5 -16.5t90 -46.5t58.5 -72.5t21 -94.5q0 -63 -29.5 -109t-83.5 -72z" />
    <glyph glyph-name="acute" unicode="&#xb4;" horiz-adv-x="886" 
d="M203 1098l192 322h290l-247 -322h-235z" />
    <glyph glyph-name="mu" unicode="&#xb5;" horiz-adv-x="1056" 
d="M945 974v-974h-245v121q-45 -77 -112.5 -110.5t-151.5 -33.5q-46 0 -90 11v-372h-242v1358h255v-572q0 -91 43.5 -137.5t118.5 -46.5q35 0 66 12t54 35.5t36 58.5t13 81v569h255z" />
    <glyph glyph-name="paragraph" unicode="&#xb6;" horiz-adv-x="1147" 
d="M682 0h-193v621q-99 2 -174.5 30.5t-126.5 80t-77 123.5t-26 160q0 86 26.5 157t77.5 121.5t126.5 78.5t173.5 28h193v-1400zM969 1400v-1400h-192v1400h192z" />
    <glyph glyph-name="periodcentered" unicode="&#xb7;" horiz-adv-x="640" 
d="M320 706q36 0 68 -14t56 -38t38 -56t14 -68t-14 -68t-38 -56.5t-56 -38.5t-68 -14t-68 14t-56.5 38.5t-38.5 57t-14 68.5t14 67.5t38.5 55.5t56.5 38t68 14z" />
    <glyph glyph-name="cedilla" unicode="&#xb8;" horiz-adv-x="616" 
d="M297 -321h-232l102 339l223 -11z" />
    <glyph glyph-name="uni00B9" unicode="&#xb9;" horiz-adv-x="491" 
d="M386 597h-183v561l-170 -65v181l353 138v-815z" />
    <glyph glyph-name="ordmasculine" unicode="&#xba;" horiz-adv-x="783" 
d="M391 1295q75 0 137.5 -26.5t107.5 -74.5t70 -115t25 -148t-25 -148t-70 -115t-107.5 -74.5t-137.5 -26.5t-137 26.5t-107 74.5t-70 115t-25 148t25 148t70 115t107 74.5t137 26.5zM391 1114q-63 0 -104 -48t-41 -135t41 -135t104 -48q64 0 105 47.5t41 135.5t-41 135.5
t-105 47.5z" />
    <glyph glyph-name="guillemotright" unicode="&#xbb;" horiz-adv-x="1030" 
d="M88 916h252l184 -385l-184 -385h-252l184 385zM511 916h252l184 -385l-184 -385h-252l184 385z" />
    <glyph glyph-name="onequarter" unicode="&#xbc;" horiz-adv-x="1600" 
d="M420 0h-217l804 1400h217zM1497 137h-87v-137h-183v137h-340v132l236 534h199l-222 -501h127v88l55 124h128v-212h87v-165zM386 597h-183v561l-170 -65v181l353 138v-815z" />
    <glyph glyph-name="onehalf" unicode="&#xbd;" horiz-adv-x="1624" 
d="M420 0h-217l804 1400h217zM962 682q18 22 43.5 46t59.5 43.5t77 32t97 12.5q61 0 110.5 -18t84.5 -52t54 -81.5t19 -105.5q0 -36 -7 -67.5t-22.5 -61.5t-40 -61t-58.5 -65l-128 -131h269v-173h-518v148l260 271q26 28 40.5 58t14.5 62q0 42 -27.5 69.5t-72.5 27.5
q-24 0 -45 -7t-39.5 -18.5t-34.5 -26t-31 -30.5zM386 597h-183v561l-170 -65v181l353 138v-815z" />
    <glyph glyph-name="threequarters" unicode="&#xbe;" horiz-adv-x="1696" 
d="M563 0h-217l804 1400h217zM1640 137h-87v-137h-183v137h-340v132l236 534h199l-222 -501h127v88l55 124h128v-212h87v-165zM467 1002q61 -26 94.5 -72t33.5 -110q0 -60 -25 -104.5t-66.5 -73.5t-95.5 -43.5t-111 -14.5q-85 0 -152 28t-112 79l101 125q65 -65 152 -65
q24 0 45 5.5t37 16t25.5 27t9.5 39.5q0 20 -10 35.5t-27.5 26t-40.5 15.5t-49 5h-86v162h88q48 0 80 21t32 60q0 38 -29 59t-77 21q-52 0 -89.5 -21t-63.5 -49l-94 131q44 48 105.5 78t153.5 30q62 0 114.5 -16.5t90 -46.5t58.5 -72.5t21 -94.5q0 -63 -29.5 -109t-83.5 -72z
" />
    <glyph glyph-name="questiondown" unicode="&#xbf;" horiz-adv-x="809" 
d="M540 651q-35 0 -66 14t-54.5 37.5t-37.5 55t-14 66.5t14 66.5t37.5 55t54.5 37.5t66 14t66.5 -14t55 -37.5t37.5 -55t14 -67.5q0 -35 -14 -66t-37.5 -54.5t-55 -37.5t-66.5 -14zM531 -449q-116 0 -207.5 28.5t-155.5 81t-98 128t-34 168.5q0 164 99 267t282 137l8 140
h229v-359h-82q-122 0 -188 -42.5t-66 -124.5q0 -79 65.5 -120.5t185.5 -41.5q17 0 35 0.5t33 1t25.5 1t12.5 0.5l42 -254q-39 -5 -87.5 -8t-98.5 -3z" />
    <glyph glyph-name="Agrave" unicode="&#xc0;" horiz-adv-x="1320" 
d="M915 317h-515l-102 -317h-284l484 1400h324l484 -1400h-289zM834 566l-177 548l-176 -548h353zM345 1826h290l193 -322h-236z" />
    <glyph glyph-name="Aacute" unicode="&#xc1;" horiz-adv-x="1320" 
d="M915 317h-515l-102 -317h-284l484 1400h324l484 -1400h-289zM834 566l-177 548l-176 -548h353zM485 1504l192 322h290l-247 -322h-235z" />
    <glyph glyph-name="Acircumflex" unicode="&#xc2;" horiz-adv-x="1320" 
d="M915 317h-515l-102 -317h-284l484 1400h324l484 -1400h-289zM834 566l-177 548l-176 -548h353zM777 1502l-117 157l-116 -157h-230l207 319h279l207 -319h-230z" />
    <glyph glyph-name="Atilde" unicode="&#xc3;" horiz-adv-x="1320" 
d="M915 317h-515l-102 -317h-284l484 1400h324l484 -1400h-289zM834 566l-177 548l-176 -548h353zM296 1669q51 74 111 105.5t134 31.5q47 0 81 -11t60 -23.5t47.5 -23.5t44.5 -11q26 0 52.5 17t55.5 49l137 -139q-51 -74 -111.5 -105.5t-134.5 -31.5q-46 0 -79.5 11
t-60 23.5t-48.5 23.5t-44 11q-26 0 -53 -17t-56 -49z" />
    <glyph glyph-name="Adieresis" unicode="&#xc4;" horiz-adv-x="1320" 
d="M915 317h-515l-102 -317h-284l484 1400h324l484 -1400h-289zM834 566l-177 548l-176 -548h353zM448 1817q33 0 61.5 -12t49.5 -33.5t33 -50t12 -61.5t-12 -61t-33 -49t-49.5 -33t-61.5 -12t-61.5 12t-49 33t-32.5 49.5t-12 61.5t12 61.5t32.5 49.5t49 33t61.5 12z
M868 1817q33 0 61.5 -12t49.5 -33.5t33 -50t12 -61.5t-12 -61t-33 -49t-49.5 -33t-61.5 -12t-61.5 12t-49 33t-32.5 49.5t-12 61.5t12 61.5t32.5 49.5t49 33t61.5 12z" />
    <glyph glyph-name="Aring" unicode="&#xc5;" horiz-adv-x="1320" 
d="M915 317h-515l-102 -317h-284l484 1400h324l484 -1400h-289zM834 566l-177 548l-176 -548h353zM658 1483q-51 0 -95.5 19t-78 52t-53 77t-19.5 95q0 50 19.5 94t53 77t78 52t95.5 19t96 -19t78.5 -52t53 -77t19.5 -94q0 -51 -19.5 -95t-53 -77t-78.5 -52t-96 -19z
M658 1623q42 0 71.5 29t29.5 74q0 21 -8 40t-22 32.5t-32 21.5t-39 8q-20 0 -38.5 -8t-32 -21.5t-21.5 -32.5t-8 -40q0 -45 29.5 -74t70.5 -29z" />
    <glyph glyph-name="AE" unicode="&#xc6;" horiz-adv-x="1997" 
d="M1895 249v-249h-928v278h-479l-162 -278h-315l839 1400h1043v-249h-652v-320h618v-249h-618v-333h654zM967 529v573l-333 -573h333z" />
    <glyph glyph-name="Ccedilla" unicode="&#xc7;" horiz-adv-x="1313" 
d="M721 1423q89 0 170 -21.5t150 -62t123.5 -99t91.5 -133.5l-236 -129q-49 88 -125 134t-175 46q-79 0 -145 -31t-114 -90t-75 -144t-27 -193q0 -111 28 -196.5t77 -143.5t115 -88t142 -30q97 0 174 45.5t128 133.5l226 -143q-39 -71 -93.5 -126.5t-121.5 -94.5t-146 -59.5
t-167 -20.5q-144 0 -263 51.5t-204 146t-132 228t-47 297.5t47 297.5t132 228t204 146t263 51.5zM748 -321h-250l100 328h243z" />
    <glyph glyph-name="Egrave" unicode="&#xc8;" horiz-adv-x="1158" 
d="M1056 249v-249h-929v1400h926v-249h-652v-320h618v-249h-618v-333h655zM275 1826h290l193 -322h-236z" />
    <glyph glyph-name="Eacute" unicode="&#xc9;" horiz-adv-x="1158" 
d="M1056 249v-249h-929v1400h926v-249h-652v-320h618v-249h-618v-333h655zM415 1504l192 322h290l-247 -322h-235z" />
    <glyph glyph-name="Ecircumflex" unicode="&#xca;" horiz-adv-x="1158" 
d="M1056 249v-249h-929v1400h926v-249h-652v-320h618v-249h-618v-333h655zM707 1502l-117 157l-116 -157h-230l207 319h279l207 -319h-230z" />
    <glyph glyph-name="Edieresis" unicode="&#xcb;" horiz-adv-x="1158" 
d="M1056 249v-249h-929v1400h926v-249h-652v-320h618v-249h-618v-333h655zM378 1817q33 0 61.5 -12t49.5 -33.5t33 -50t12 -61.5t-12 -61t-33 -49t-49.5 -33t-61.5 -12t-61.5 12t-49 33t-32.5 49.5t-12 61.5t12 61.5t32.5 49.5t49 33t61.5 12zM798 1817q33 0 61.5 -12
t49.5 -33.5t33 -50t12 -61.5t-12 -61t-33 -49t-49.5 -33t-61.5 -12t-61.5 12t-49 33t-32.5 49.5t-12 61.5t12 61.5t32.5 49.5t49 33t61.5 12z" />
    <glyph glyph-name="Igrave" unicode="&#xcc;" horiz-adv-x="528" 
d="M401 0h-274v1400h274v-1400zM-51 1826h290l193 -322h-236z" />
    <glyph glyph-name="Iacute" unicode="&#xcd;" horiz-adv-x="528" 
d="M401 0h-274v1400h274v-1400zM89 1504l192 322h290l-247 -322h-235z" />
    <glyph glyph-name="Icircumflex" unicode="&#xce;" horiz-adv-x="528" 
d="M401 0h-274v1400h274v-1400zM381 1502l-117 157l-116 -157h-230l207 319h279l207 -319h-230z" />
    <glyph glyph-name="Idieresis" unicode="&#xcf;" horiz-adv-x="528" 
d="M401 0h-274v1400h274v-1400zM52 1817q33 0 61.5 -12t49.5 -33.5t33 -50t12 -61.5t-12 -61t-33 -49t-49.5 -33t-61.5 -12t-61.5 12t-49 33t-32.5 49.5t-12 61.5t12 61.5t32.5 49.5t49 33t61.5 12zM472 1817q33 0 61.5 -12t49.5 -33.5t33 -50t12 -61.5t-12 -61t-33 -49
t-49.5 -33t-61.5 -12t-61.5 12t-49 33t-32.5 49.5t-12 61.5t12 61.5t32.5 49.5t49 33t61.5 12z" />
    <glyph glyph-name="Eth" unicode="&#xd0;" horiz-adv-x="1480" 
d="M745 1400q153 0 275 -49.5t207.5 -141t131 -220.5t45.5 -289q0 -159 -45.5 -288.5t-131 -221t-207.5 -141t-275 -49.5h-513v591h-156v231h156v578h513zM740 254q96 0 167.5 32t118.5 90.5t70 140.5t23 183t-23 183.5t-70 141t-118.5 90t-167.5 31.5h-234v-324h299v-231
h-299v-337h234z" />
    <glyph glyph-name="Ntilde" unicode="&#xd1;" horiz-adv-x="1392" 
d="M1265 0h-262l-604 910v-910h-272v1400h262l605 -912v912h271v-1400zM338 1669q51 74 111 105.5t134 31.5q47 0 81 -11t60 -23.5t47.5 -23.5t44.5 -11q26 0 52.5 17t55.5 49l137 -139q-51 -74 -111.5 -105.5t-134.5 -31.5q-46 0 -79.5 11t-60 23.5t-48.5 23.5t-44 11
q-26 0 -53 -17t-56 -49z" />
    <glyph glyph-name="Ograve" unicode="&#xd2;" horiz-adv-x="1448" 
d="M724 1423q145 0 264.5 -52t205 -146.5t132.5 -228t47 -296.5t-47 -296.5t-132.5 -228t-205 -146.5t-264.5 -52t-264.5 52t-205 146.5t-132.5 228t-47 296.5t47 296.5t132.5 228t205 146.5t264.5 52zM724 1158q-81 0 -148 -31t-115 -90t-75 -144t-27 -193t27 -193t75 -144
t115 -90t148 -31t148 31t115 90t75 144t27 193t-27 193t-75 144t-115 90t-148 31zM409 1826h290l193 -322h-236z" />
    <glyph glyph-name="Oacute" unicode="&#xd3;" horiz-adv-x="1448" 
d="M724 1423q145 0 264.5 -52t205 -146.5t132.5 -228t47 -296.5t-47 -296.5t-132.5 -228t-205 -146.5t-264.5 -52t-264.5 52t-205 146.5t-132.5 228t-47 296.5t47 296.5t132.5 228t205 146.5t264.5 52zM724 1158q-81 0 -148 -31t-115 -90t-75 -144t-27 -193t27 -193t75 -144
t115 -90t148 -31t148 31t115 90t75 144t27 193t-27 193t-75 144t-115 90t-148 31zM549 1504l192 322h290l-247 -322h-235z" />
    <glyph glyph-name="Ocircumflex" unicode="&#xd4;" horiz-adv-x="1448" 
d="M724 1423q145 0 264.5 -52t205 -146.5t132.5 -228t47 -296.5t-47 -296.5t-132.5 -228t-205 -146.5t-264.5 -52t-264.5 52t-205 146.5t-132.5 228t-47 296.5t47 296.5t132.5 228t205 146.5t264.5 52zM724 1158q-81 0 -148 -31t-115 -90t-75 -144t-27 -193t27 -193t75 -144
t115 -90t148 -31t148 31t115 90t75 144t27 193t-27 193t-75 144t-115 90t-148 31zM841 1502l-117 157l-116 -157h-230l207 319h279l207 -319h-230z" />
    <glyph glyph-name="Otilde" unicode="&#xd5;" horiz-adv-x="1448" 
d="M724 1423q145 0 264.5 -52t205 -146.5t132.5 -228t47 -296.5t-47 -296.5t-132.5 -228t-205 -146.5t-264.5 -52t-264.5 52t-205 146.5t-132.5 228t-47 296.5t47 296.5t132.5 228t205 146.5t264.5 52zM724 1158q-81 0 -148 -31t-115 -90t-75 -144t-27 -193t27 -193t75 -144
t115 -90t148 -31t148 31t115 90t75 144t27 193t-27 193t-75 144t-115 90t-148 31zM360 1669q51 74 111 105.5t134 31.5q47 0 81 -11t60 -23.5t47.5 -23.5t44.5 -11q26 0 52.5 17t55.5 49l137 -139q-51 -74 -111.5 -105.5t-134.5 -31.5q-46 0 -79.5 11t-60 23.5t-48.5 23.5
t-44 11q-26 0 -53 -17t-56 -49z" />
    <glyph glyph-name="Odieresis" unicode="&#xd6;" horiz-adv-x="1448" 
d="M724 1423q145 0 264.5 -52t205 -146.5t132.5 -228t47 -296.5t-47 -296.5t-132.5 -228t-205 -146.5t-264.5 -52t-264.5 52t-205 146.5t-132.5 228t-47 296.5t47 296.5t132.5 228t205 146.5t264.5 52zM724 1158q-81 0 -148 -31t-115 -90t-75 -144t-27 -193t27 -193t75 -144
t115 -90t148 -31t148 31t115 90t75 144t27 193t-27 193t-75 144t-115 90t-148 31zM512 1817q33 0 61.5 -12t49.5 -33.5t33 -50t12 -61.5t-12 -61t-33 -49t-49.5 -33t-61.5 -12t-61.5 12t-49 33t-32.5 49.5t-12 61.5t12 61.5t32.5 49.5t49 33t61.5 12zM932 1817
q33 0 61.5 -12t49.5 -33.5t33 -50t12 -61.5t-12 -61t-33 -49t-49.5 -33t-61.5 -12t-61.5 12t-49 33t-32.5 49.5t-12 61.5t12 61.5t32.5 49.5t49 33t61.5 12z" />
    <glyph glyph-name="multiply" unicode="&#xd7;" horiz-adv-x="1104" 
d="M791 131l-242 248l-239 -245l-149 150l240 246l-241 247l151 154l241 -247l240 246l149 -150l-241 -247l242 -248z" />
    <glyph glyph-name="Oslash" unicode="&#xd8;" horiz-adv-x="1448" 
d="M1241 1165q63 -91 97.5 -208t34.5 -257q0 -163 -47 -296.5t-132.5 -228t-205 -146.5t-264.5 -52q-105 0 -196 27t-166 78l-94 -116l-160 134l104 128q-66 92 -101.5 210.5t-35.5 261.5q0 163 47 296.5t132.5 228t205 146.5t264.5 52q106 0 198.5 -27.5t169.5 -81.5
l94 117l161 -135zM359 700q0 -136 43 -237l516 637q-84 58 -194 58q-81 0 -148 -31t-115 -90t-75 -144t-27 -193zM724 242q81 0 148 31t115 90t75 144t27 193q0 131 -40 229l-513 -633q40 -26 87 -40t101 -14z" />
    <glyph glyph-name="Ugrave" unicode="&#xd9;" horiz-adv-x="1320" 
d="M1205 513q0 -128 -38 -228t-109 -168t-171.5 -103.5t-226.5 -35.5t-227 35.5t-172 103.5t-109 168t-38 228v887h274v-873q0 -73 19.5 -126.5t55.5 -89t86 -52.5t111 -17t111 17t86 52.5t55.5 89t19.5 126.5v873h273v-887zM345 1826h290l193 -322h-236z" />
    <glyph glyph-name="Uacute" unicode="&#xda;" horiz-adv-x="1320" 
d="M1205 513q0 -128 -38 -228t-109 -168t-171.5 -103.5t-226.5 -35.5t-227 35.5t-172 103.5t-109 168t-38 228v887h274v-873q0 -73 19.5 -126.5t55.5 -89t86 -52.5t111 -17t111 17t86 52.5t55.5 89t19.5 126.5v873h273v-887zM485 1504l192 322h290l-247 -322h-235z" />
    <glyph glyph-name="Ucircumflex" unicode="&#xdb;" horiz-adv-x="1320" 
d="M1205 513q0 -128 -38 -228t-109 -168t-171.5 -103.5t-226.5 -35.5t-227 35.5t-172 103.5t-109 168t-38 228v887h274v-873q0 -73 19.5 -126.5t55.5 -89t86 -52.5t111 -17t111 17t86 52.5t55.5 89t19.5 126.5v873h273v-887zM777 1502l-117 157l-116 -157h-230l207 319h279
l207 -319h-230z" />
    <glyph glyph-name="Udieresis" unicode="&#xdc;" horiz-adv-x="1320" 
d="M1205 513q0 -128 -38 -228t-109 -168t-171.5 -103.5t-226.5 -35.5t-227 35.5t-172 103.5t-109 168t-38 228v887h274v-873q0 -73 19.5 -126.5t55.5 -89t86 -52.5t111 -17t111 17t86 52.5t55.5 89t19.5 126.5v873h273v-887zM448 1817q33 0 61.5 -12t49.5 -33.5t33 -50
t12 -61.5t-12 -61t-33 -49t-49.5 -33t-61.5 -12t-61.5 12t-49 33t-32.5 49.5t-12 61.5t12 61.5t32.5 49.5t49 33t61.5 12zM868 1817q33 0 61.5 -12t49.5 -33.5t33 -50t12 -61.5t-12 -61t-33 -49t-49.5 -33t-61.5 -12t-61.5 12t-49 33t-32.5 49.5t-12 61.5t12 61.5t32.5 49.5
t49 33t61.5 12z" />
    <glyph glyph-name="Yacute" unicode="&#xdd;" horiz-adv-x="1238" 
d="M760 544v-544h-274v541l-482 859h314l306 -572l305 572h305zM449 1504l192 322h290l-247 -322h-235z" />
    <glyph glyph-name="Thorn" unicode="&#xde;" horiz-adv-x="1186" 
d="M635 1162q117 0 208 -31.5t154 -90t95.5 -142t32.5 -186.5q0 -102 -32.5 -184.5t-95 -140t-153.5 -89t-207 -31.5h-238v-267h-272v1400h272v-238h236zM632 514q99 0 157 49.5t58 148.5q0 100 -57.5 149.5t-157.5 49.5h-233v-397h233z" />
    <glyph glyph-name="germandbls" unicode="&#xdf;" horiz-adv-x="1103" 
d="M105 1016q0 84 23.5 164.5t77 143t140.5 100.5t213 38q108 0 192 -33t142 -88.5t88 -130t30 -156.5q0 -63 -13.5 -116.5t-38.5 -95.5t-59 -72t-75 -47q47 -15 88 -46t71 -74.5t47 -97t17 -112.5q0 -95 -29.5 -171.5t-83.5 -130.5t-130.5 -83.5t-171.5 -29.5
q-55 0 -98.5 6.5t-80.5 19.5l28 220q52 -20 113 -20q88 0 140.5 52t52.5 148q0 104 -60 152.5t-163 48.5h-44v223h22q45 0 83.5 11t66.5 35t43.5 61.5t15.5 91.5q0 47 -14.5 83.5t-41 62t-63 39t-79.5 13.5q-47 0 -83.5 -16t-61 -44.5t-37 -69.5t-12.5 -90v-1005h-255v1016z
" />
    <glyph glyph-name="agrave" unicode="&#xe0;" horiz-adv-x="1093" 
d="M982 974v-974h-248v116q-42 -62 -105.5 -100t-155.5 -38q-90 0 -165.5 38t-130.5 105.5t-85.5 161t-30.5 205.5q0 111 30.5 204.5t85.5 161t130.5 105.5t165.5 38q92 0 155.5 -38.5t105.5 -100.5v116h248zM531 219q46 0 84.5 18.5t65.5 53t42 84.5t15 112t-15 112t-42 85
t-65.5 53.5t-84.5 18.5q-48 0 -86.5 -19t-65.5 -54t-41.5 -85t-14.5 -111q0 -62 14.5 -111.5t41.5 -84t65.5 -53.5t86.5 -19zM236 1420h290l193 -322h-236z" />
    <glyph glyph-name="aacute" unicode="&#xe1;" horiz-adv-x="1093" 
d="M982 974v-974h-248v116q-42 -62 -105.5 -100t-155.5 -38q-90 0 -165.5 38t-130.5 105.5t-85.5 161t-30.5 205.5q0 111 30.5 204.5t85.5 161t130.5 105.5t165.5 38q92 0 155.5 -38.5t105.5 -100.5v116h248zM531 219q46 0 84.5 18.5t65.5 53t42 84.5t15 112t-15 112t-42 85
t-65.5 53.5t-84.5 18.5q-48 0 -86.5 -19t-65.5 -54t-41.5 -85t-14.5 -111q0 -62 14.5 -111.5t41.5 -84t65.5 -53.5t86.5 -19zM390 1098l192 322h290l-247 -322h-235z" />
    <glyph glyph-name="acircumflex" unicode="&#xe2;" horiz-adv-x="1093" 
d="M982 974v-974h-248v116q-42 -62 -105.5 -100t-155.5 -38q-90 0 -165.5 38t-130.5 105.5t-85.5 161t-30.5 205.5q0 111 30.5 204.5t85.5 161t130.5 105.5t165.5 38q92 0 155.5 -38.5t105.5 -100.5v116h248zM531 219q46 0 84.5 18.5t65.5 53t42 84.5t15 112t-15 112t-42 85
t-65.5 53.5t-84.5 18.5q-48 0 -86.5 -19t-65.5 -54t-41.5 -85t-14.5 -111q0 -62 14.5 -111.5t41.5 -84t65.5 -53.5t86.5 -19zM670 1096l-117 157l-116 -157h-230l207 319h279l207 -319h-230z" />
    <glyph glyph-name="atilde" unicode="&#xe3;" horiz-adv-x="1093" 
d="M982 974v-974h-248v116q-42 -62 -105.5 -100t-155.5 -38q-90 0 -165.5 38t-130.5 105.5t-85.5 161t-30.5 205.5q0 111 30.5 204.5t85.5 161t130.5 105.5t165.5 38q92 0 155.5 -38.5t105.5 -100.5v116h248zM531 219q46 0 84.5 18.5t65.5 53t42 84.5t15 112t-15 112t-42 85
t-65.5 53.5t-84.5 18.5q-48 0 -86.5 -19t-65.5 -54t-41.5 -85t-14.5 -111q0 -62 14.5 -111.5t41.5 -84t65.5 -53.5t86.5 -19zM190 1263q51 74 111 105.5t134 31.5q47 0 81 -11t60 -23.5t47.5 -23.5t44.5 -11q26 0 52.5 17t55.5 49l137 -139q-51 -74 -111.5 -105.5
t-134.5 -31.5q-46 0 -79.5 11t-60 23.5t-48.5 23.5t-44 11q-26 0 -53 -17t-56 -49z" />
    <glyph glyph-name="adieresis" unicode="&#xe4;" horiz-adv-x="1093" 
d="M982 974v-974h-248v116q-42 -62 -105.5 -100t-155.5 -38q-90 0 -165.5 38t-130.5 105.5t-85.5 161t-30.5 205.5q0 111 30.5 204.5t85.5 161t130.5 105.5t165.5 38q92 0 155.5 -38.5t105.5 -100.5v116h248zM531 219q46 0 84.5 18.5t65.5 53t42 84.5t15 112t-15 112t-42 85
t-65.5 53.5t-84.5 18.5q-48 0 -86.5 -19t-65.5 -54t-41.5 -85t-14.5 -111q0 -62 14.5 -111.5t41.5 -84t65.5 -53.5t86.5 -19zM340 1412q33 0 61.5 -12t49.5 -33.5t33 -50t12 -61.5t-12 -61t-33 -49t-49.5 -33t-61.5 -12t-61.5 12t-49 33t-32.5 49.5t-12 61.5t12 61.5
t32.5 49.5t49 33t61.5 12zM760 1412q33 0 61.5 -12t49.5 -33.5t33 -50t12 -61.5t-12 -61t-33 -49t-49.5 -33t-61.5 -12t-61.5 12t-49 33t-32.5 49.5t-12 61.5t12 61.5t32.5 49.5t49 33t61.5 12z" />
    <glyph glyph-name="aring" unicode="&#xe5;" horiz-adv-x="1093" 
d="M982 974v-974h-248v116q-42 -62 -105.5 -100t-155.5 -38q-90 0 -165.5 38t-130.5 105.5t-85.5 161t-30.5 205.5q0 111 30.5 204.5t85.5 161t130.5 105.5t165.5 38q92 0 155.5 -38.5t105.5 -100.5v116h248zM531 219q46 0 84.5 18.5t65.5 53t42 84.5t15 112t-15 112t-42 85
t-65.5 53.5t-84.5 18.5q-48 0 -86.5 -19t-65.5 -54t-41.5 -85t-14.5 -111q0 -62 14.5 -111.5t41.5 -84t65.5 -53.5t86.5 -19zM552 1078q-51 0 -95.5 19t-78 52t-53 77t-19.5 95q0 50 19.5 94t53 77t78 52t95.5 19t96 -19t78.5 -52t53 -77t19.5 -94q0 -51 -19.5 -95t-53 -77
t-78.5 -52t-96 -19zM552 1218q42 0 71.5 29t29.5 74q0 21 -8 40t-22 32.5t-32 21.5t-39 8q-20 0 -38.5 -8t-32 -21.5t-21.5 -32.5t-8 -40q0 -45 29.5 -74t70.5 -29z" />
    <glyph glyph-name="ae" unicode="&#xe6;" horiz-adv-x="1574" 
d="M1512 488q0 -21 -1.5 -44t-3.5 -40h-617q17 -106 75 -155t146 -49q60 0 116 22.5t101 64.5l147 -166q-75 -73 -172.5 -108t-212.5 -35q-112 0 -201 38t-150 113q-25 -30 -56 -57t-71 -48t-90 -33.5t-113 -12.5q-81 0 -145.5 21.5t-109.5 61.5t-69 95.5t-24 124.5
q0 140 99 217.5t284 77.5h186v7q0 94 -47.5 139.5t-140.5 45.5q-65 0 -127 -23t-107 -54l-93 197q64 49 159.5 78t202.5 29q109 0 183.5 -35.5t116.5 -95.5q55 66 133.5 99t175.5 33q96 0 175 -36t134.5 -102t86 -160t30.5 -210zM1258 575q-14 97 -60.5 147.5t-120.5 50.5
q-75 0 -123.5 -47.5t-63.5 -150.5h368zM456 183q62 0 113 30.5t85 82.5q-15 51 -21 110h-152q-84 0 -122 -31.5t-38 -80.5t34 -80t101 -31z" />
    <glyph glyph-name="ccedilla" unicode="&#xe7;" horiz-adv-x="918" 
d="M527 996q114 0 205 -46.5t151 -134.5l-185 -147q-35 42 -77 64.5t-95 22.5q-43 0 -80.5 -17.5t-65 -51.5t-43.5 -84t-16 -115t16 -115t43.5 -84t64.5 -51.5t79 -17.5q53 0 96.5 24t78.5 64l184 -149q-60 -87 -151 -133.5t-205 -46.5q-105 0 -190.5 37t-147 103.5
t-95 160.5t-33.5 208t33.5 208t95 161t147 103.5t190.5 36.5zM536 -321h-232l102 339l223 -11z" />
    <glyph glyph-name="egrave" unicode="&#xe8;" horiz-adv-x="1007" 
d="M945 488q0 -21 -1.5 -44t-3.5 -40h-617q17 -106 75 -155.5t146 -49.5q60 0 116 23t101 65l148 -166q-75 -73 -171.5 -108t-210.5 -35q-105 0 -191 35.5t-147 101t-94.5 159t-33.5 210.5t32.5 211.5t92 161t142.5 103t184 36.5q97 0 176.5 -36t136.5 -102t88.5 -160
t31.5 -210zM690 578q-14 96 -60 145t-120 49q-78 0 -125 -49.5t-61 -144.5h366zM194 1420h290l193 -322h-236z" />
    <glyph glyph-name="eacute" unicode="&#xe9;" horiz-adv-x="1007" 
d="M945 488q0 -21 -1.5 -44t-3.5 -40h-617q17 -106 75 -155.5t146 -49.5q60 0 116 23t101 65l148 -166q-75 -73 -171.5 -108t-210.5 -35q-105 0 -191 35.5t-147 101t-94.5 159t-33.5 210.5t32.5 211.5t92 161t142.5 103t184 36.5q97 0 176.5 -36t136.5 -102t88.5 -160
t31.5 -210zM690 578q-14 96 -60 145t-120 49q-78 0 -125 -49.5t-61 -144.5h366zM348 1098l192 322h290l-247 -322h-235z" />
    <glyph glyph-name="ecircumflex" unicode="&#xea;" horiz-adv-x="1007" 
d="M945 488q0 -21 -1.5 -44t-3.5 -40h-617q17 -106 75 -155.5t146 -49.5q60 0 116 23t101 65l148 -166q-75 -73 -171.5 -108t-210.5 -35q-105 0 -191 35.5t-147 101t-94.5 159t-33.5 210.5t32.5 211.5t92 161t142.5 103t184 36.5q97 0 176.5 -36t136.5 -102t88.5 -160
t31.5 -210zM690 578q-14 96 -60 145t-120 49q-78 0 -125 -49.5t-61 -144.5h366zM628 1096l-117 157l-116 -157h-230l207 319h279l207 -319h-230z" />
    <glyph glyph-name="edieresis" unicode="&#xeb;" horiz-adv-x="1007" 
d="M945 488q0 -21 -1.5 -44t-3.5 -40h-617q17 -106 75 -155.5t146 -49.5q60 0 116 23t101 65l148 -166q-75 -73 -171.5 -108t-210.5 -35q-105 0 -191 35.5t-147 101t-94.5 159t-33.5 210.5t32.5 211.5t92 161t142.5 103t184 36.5q97 0 176.5 -36t136.5 -102t88.5 -160
t31.5 -210zM690 578q-14 96 -60 145t-120 49q-78 0 -125 -49.5t-61 -144.5h366zM298 1412q33 0 61.5 -12t49.5 -33.5t33 -50t12 -61.5t-12 -61t-33 -49t-49.5 -33t-61.5 -12t-61.5 12t-49 33t-32.5 49.5t-12 61.5t12 61.5t32.5 49.5t49 33t61.5 12zM718 1412q33 0 61.5 -12
t49.5 -33.5t33 -50t12 -61.5t-12 -61t-33 -49t-49.5 -33t-61.5 -12t-61.5 12t-49 33t-32.5 49.5t-12 61.5t12 61.5t32.5 49.5t49 33t61.5 12z" />
    <glyph glyph-name="igrave" unicode="&#xec;" horiz-adv-x="477" 
d="M366 0h-255v974h255v-974zM-79 1420h290l193 -322h-236z" />
    <glyph glyph-name="iacute" unicode="&#xed;" horiz-adv-x="477" 
d="M366 0h-255v974h255v-974zM75 1098l192 322h290l-247 -322h-235z" />
    <glyph glyph-name="icircumflex" unicode="&#xee;" horiz-adv-x="477" 
d="M366 0h-255v974h255v-974zM355 1096l-117 157l-116 -157h-230l207 319h279l207 -319h-230z" />
    <glyph glyph-name="idieresis" unicode="&#xef;" horiz-adv-x="477" 
d="M366 0h-255v974h255v-974zM25 1412q33 0 61.5 -12t49.5 -33.5t33 -50t12 -61.5t-12 -61t-33 -49t-49.5 -33t-61.5 -12t-61.5 12t-49 33t-32.5 49.5t-12 61.5t12 61.5t32.5 49.5t49 33t61.5 12zM445 1412q33 0 61.5 -12t49.5 -33.5t33 -50t12 -61.5t-12 -61t-33 -49
t-49.5 -33t-61.5 -12t-61.5 12t-49 33t-32.5 49.5t-12 61.5t12 61.5t32.5 49.5t49 33t61.5 12z" />
    <glyph glyph-name="eth" unicode="&#xf0;" horiz-adv-x="1061" 
d="M1000 486q0 -111 -34 -204.5t-96.5 -161t-149.5 -105t-193 -37.5q-101 0 -186 35.5t-147.5 99.5t-97.5 151.5t-35 192.5q0 103 31.5 190t86.5 150.5t129.5 99.5t161.5 36q124 0 213 -75q-32 66 -75 123.5t-100 109.5l-198 -129l-84 130l155 102q-35 25 -73 48.5t-79 47.5
l148 166q57 -28 109 -61.5t100 -71.5l175 115l86 -130l-143 -95q71 -76 126 -162t93 -179t57.5 -190.5t19.5 -195.5zM533 208q46 0 85 18t67 50.5t44 78.5t16 102q0 58 -16 105t-44 80t-67 50.5t-85 17.5t-85 -17.5t-67 -50.5t-43.5 -80t-15.5 -105q0 -56 15.5 -102
t43.5 -78.5t67 -50.5t85 -18z" />
    <glyph glyph-name="ntilde" unicode="&#xf1;" horiz-adv-x="1057" 
d="M619 997q74 0 135 -25t105 -70.5t68.5 -110.5t24.5 -144v-647h-255v571q0 91 -43 137.5t-118 46.5q-35 0 -66 -12t-54 -35.5t-36 -58t-13 -80.5v-569h-256v974h246v-119q45 75 112.5 108.5t149.5 33.5zM174 1263q51 74 111 105.5t134 31.5q47 0 81 -11t60 -23.5
t47.5 -23.5t44.5 -11q26 0 52.5 17t55.5 49l137 -139q-51 -74 -111.5 -105.5t-134.5 -31.5q-46 0 -79.5 11t-60 23.5t-48.5 23.5t-44 11q-26 0 -53 -17t-56 -49z" />
    <glyph glyph-name="ograve" unicode="&#xf2;" horiz-adv-x="1067" 
d="M533 996q104 0 191 -37t149.5 -104t97.5 -160.5t35 -207.5t-35 -207.5t-97.5 -160.5t-149.5 -104t-191 -37t-190.5 37t-149 104t-97.5 160.5t-35 207.5t35 207.5t97.5 160.5t149 104t190.5 37zM533 755q-47 0 -85.5 -18.5t-67 -53t-44 -84t-15.5 -112.5t15.5 -113
t44 -84.5t67 -52.5t85.5 -18q46 0 85.5 18t67.5 52.5t44 84.5t16 113t-16 112.5t-44 84t-67.5 53t-85.5 18.5zM216 1418h290l193 -322h-236z" />
    <glyph glyph-name="oacute" unicode="&#xf3;" horiz-adv-x="1067" 
d="M533 996q104 0 191 -37t149.5 -104t97.5 -160.5t35 -207.5t-35 -207.5t-97.5 -160.5t-149.5 -104t-191 -37t-190.5 37t-149 104t-97.5 160.5t-35 207.5t35 207.5t97.5 160.5t149 104t190.5 37zM533 755q-47 0 -85.5 -18.5t-67 -53t-44 -84t-15.5 -112.5t15.5 -113
t44 -84.5t67 -52.5t85.5 -18q46 0 85.5 18t67.5 52.5t44 84.5t16 113t-16 112.5t-44 84t-67.5 53t-85.5 18.5zM370 1096l192 322h290l-247 -322h-235z" />
    <glyph glyph-name="ocircumflex" unicode="&#xf4;" horiz-adv-x="1067" 
d="M533 996q104 0 191 -37t149.5 -104t97.5 -160.5t35 -207.5t-35 -207.5t-97.5 -160.5t-149.5 -104t-191 -37t-190.5 37t-149 104t-97.5 160.5t-35 207.5t35 207.5t97.5 160.5t149 104t190.5 37zM533 755q-47 0 -85.5 -18.5t-67 -53t-44 -84t-15.5 -112.5t15.5 -113
t44 -84.5t67 -52.5t85.5 -18q46 0 85.5 18t67.5 52.5t44 84.5t16 113t-16 112.5t-44 84t-67.5 53t-85.5 18.5zM650 1094l-117 157l-116 -157h-230l207 319h279l207 -319h-230z" />
    <glyph glyph-name="otilde" unicode="&#xf5;" horiz-adv-x="1067" 
d="M533 996q104 0 191 -37t149.5 -104t97.5 -160.5t35 -207.5t-35 -207.5t-97.5 -160.5t-149.5 -104t-191 -37t-190.5 37t-149 104t-97.5 160.5t-35 207.5t35 207.5t97.5 160.5t149 104t190.5 37zM533 755q-47 0 -85.5 -18.5t-67 -53t-44 -84t-15.5 -112.5t15.5 -113
t44 -84.5t67 -52.5t85.5 -18q46 0 85.5 18t67.5 52.5t44 84.5t16 113t-16 112.5t-44 84t-67.5 53t-85.5 18.5zM170 1261q51 74 111 105.5t134 31.5q47 0 81 -11t60 -23.5t47.5 -23.5t44.5 -11q26 0 52.5 17t55.5 49l137 -139q-51 -74 -111.5 -105.5t-134.5 -31.5
q-46 0 -79.5 11t-60 23.5t-48.5 23.5t-44 11q-26 0 -53 -17t-56 -49z" />
    <glyph glyph-name="odieresis" unicode="&#xf6;" horiz-adv-x="1067" 
d="M533 996q104 0 191 -37t149.5 -104t97.5 -160.5t35 -207.5t-35 -207.5t-97.5 -160.5t-149.5 -104t-191 -37t-190.5 37t-149 104t-97.5 160.5t-35 207.5t35 207.5t97.5 160.5t149 104t190.5 37zM533 755q-47 0 -85.5 -18.5t-67 -53t-44 -84t-15.5 -112.5t15.5 -113
t44 -84.5t67 -52.5t85.5 -18q46 0 85.5 18t67.5 52.5t44 84.5t16 113t-16 112.5t-44 84t-67.5 53t-85.5 18.5zM320 1410q33 0 61.5 -12t49.5 -33.5t33 -50t12 -61.5t-12 -61t-33 -49t-49.5 -33t-61.5 -12t-61.5 12t-49 33t-32.5 49.5t-12 61.5t12 61.5t32.5 49.5t49 33
t61.5 12zM740 1410q33 0 61.5 -12t49.5 -33.5t33 -50t12 -61.5t-12 -61t-33 -49t-49.5 -33t-61.5 -12t-61.5 12t-49 33t-32.5 49.5t-12 61.5t12 61.5t32.5 49.5t49 33t61.5 12z" />
    <glyph glyph-name="divide" unicode="&#xf7;" horiz-adv-x="1104" 
d="M553 1027q30 0 57.5 -12t48 -32.5t32.5 -48t12 -57.5q0 -31 -12 -58.5t-32.5 -48.5t-48 -33t-57.5 -12q-31 0 -58.5 12t-48 33t-32.5 48.5t-12 58.5t12 58t32.5 47.5t48 32.5t58.5 12zM963 434h-824v217h824v-217zM553 359q30 0 57.5 -12t48 -32.5t32.5 -48t12 -58.5
t-12 -58.5t-32.5 -48t-48 -32.5t-57.5 -12q-31 0 -58.5 12t-48 33t-32.5 48.5t-12 58.5t12 58t32.5 47.5t48 32.5t58.5 12z" />
    <glyph glyph-name="oslash" unicode="&#xf8;" horiz-adv-x="1067" 
d="M914 805q44 -63 68 -143.5t24 -174.5q0 -114 -35 -207.5t-97.5 -160.5t-149.5 -104t-191 -37q-67 0 -126.5 15.5t-110.5 44.5l-75 -91l-150 120l83 101q-45 63 -69 143.5t-24 175.5q0 114 35 207.5t97.5 160.5t149 104t190.5 37q134 0 239 -61l75 91l149 -120zM533 758
q-47 0 -86 -18.5t-67.5 -53.5t-44.5 -85.5t-16 -113.5q0 -29 3.5 -55.5t9.5 -49.5l286 358q-39 18 -85 18zM533 216q47 0 86.5 18.5t68 53.5t44.5 85.5t16 113.5q0 58 -13 103l-284 -357q39 -17 82 -17z" />
    <glyph glyph-name="ugrave" unicode="&#xf9;" horiz-adv-x="1048" 
d="M944 390q0 -107 -33 -184.5t-90 -128t-133.5 -75t-163.5 -24.5t-163.5 24.5t-133.5 75t-90 128.5t-33 185v583h255v-563q0 -51 12.5 -87t34 -59.5t52 -34.5t66.5 -11q73 0 119 45.5t46 146.5v563h255v-584zM205 1418h290l193 -322h-236z" />
    <glyph glyph-name="uacute" unicode="&#xfa;" horiz-adv-x="1048" 
d="M944 390q0 -107 -33 -184.5t-90 -128t-133.5 -75t-163.5 -24.5t-163.5 24.5t-133.5 75t-90 128.5t-33 185v583h255v-563q0 -51 12.5 -87t34 -59.5t52 -34.5t66.5 -11q73 0 119 45.5t46 146.5v563h255v-584zM359 1096l192 322h290l-247 -322h-235z" />
    <glyph glyph-name="ucircumflex" unicode="&#xfb;" horiz-adv-x="1048" 
d="M944 390q0 -107 -33 -184.5t-90 -128t-133.5 -75t-163.5 -24.5t-163.5 24.5t-133.5 75t-90 128.5t-33 185v583h255v-563q0 -51 12.5 -87t34 -59.5t52 -34.5t66.5 -11q73 0 119 45.5t46 146.5v563h255v-584zM639 1094l-117 157l-116 -157h-230l207 319h279l207 -319h-230z
" />
    <glyph glyph-name="udieresis" unicode="&#xfc;" horiz-adv-x="1048" 
d="M944 390q0 -107 -33 -184.5t-90 -128t-133.5 -75t-163.5 -24.5t-163.5 24.5t-133.5 75t-90 128.5t-33 185v583h255v-563q0 -51 12.5 -87t34 -59.5t52 -34.5t66.5 -11q73 0 119 45.5t46 146.5v563h255v-584zM309 1410q33 0 61.5 -12t49.5 -33.5t33 -50t12 -61.5t-12 -61
t-33 -49t-49.5 -33t-61.5 -12t-61.5 12t-49 33t-32.5 49.5t-12 61.5t12 61.5t32.5 49.5t49 33t61.5 12zM729 1410q33 0 61.5 -12t49.5 -33.5t33 -50t12 -61.5t-12 -61t-33 -49t-49.5 -33t-61.5 -12t-61.5 12t-49 33t-32.5 49.5t-12 61.5t12 61.5t32.5 49.5t49 33t61.5 12z
" />
    <glyph glyph-name="yacute" unicode="&#xfd;" horiz-adv-x="1026" 
d="M1019 974l-646 -1358h-275l288 577l-376 781h285l225 -508l224 508h275zM355 1098l192 322h290l-247 -322h-235z" />
    <glyph glyph-name="thorn" unicode="&#xfe;" horiz-adv-x="1092" 
d="M619 997q90 0 166 -38t130.5 -105.5t85 -161t30.5 -204.5q0 -112 -30.5 -205.5t-85 -161t-130 -105.5t-165.5 -38q-87 0 -149 35t-104 91v-488h-256v1824h256v-569q42 57 103.5 91.5t148.5 34.5zM562 219q47 0 85.5 19t65.5 53.5t41.5 84t14.5 111.5q0 61 -14.5 111
t-41.5 85t-65.5 54t-85.5 19t-85 -18.5t-65.5 -53.5t-42.5 -85t-15 -112t15 -112t42.5 -84.5t65.5 -53t85 -18.5z" />
    <glyph glyph-name="ydieresis" unicode="&#xff;" horiz-adv-x="1026" 
d="M1019 974l-646 -1358h-275l288 577l-376 781h285l225 -508l224 508h275zM305 1412q33 0 61.5 -12t49.5 -33.5t33 -50t12 -61.5t-12 -61t-33 -49t-49.5 -33t-61.5 -12t-61.5 12t-49 33t-32.5 49.5t-12 61.5t12 61.5t32.5 49.5t49 33t61.5 12zM725 1412q33 0 61.5 -12
t49.5 -33.5t33 -50t12 -61.5t-12 -61t-33 -49t-49.5 -33t-61.5 -12t-61.5 12t-49 33t-32.5 49.5t-12 61.5t12 61.5t32.5 49.5t49 33t61.5 12z" />
    <glyph glyph-name="Amacron" unicode="&#x100;" horiz-adv-x="1320" 
d="M915 317h-515l-102 -317h-284l484 1400h324l484 -1400h-289zM834 566l-177 548l-176 -548h353zM351 1766h616v-212h-616v212z" />
    <glyph glyph-name="amacron" unicode="&#x101;" horiz-adv-x="1093" 
d="M982 974v-974h-248v116q-42 -62 -105.5 -100t-155.5 -38q-90 0 -165.5 38t-130.5 105.5t-85.5 161t-30.5 205.5q0 111 30.5 204.5t85.5 161t130.5 105.5t165.5 38q92 0 155.5 -38.5t105.5 -100.5v116h248zM531 219q46 0 84.5 18.5t65.5 53t42 84.5t15 112t-15 112t-42 85
t-65.5 53.5t-84.5 18.5q-48 0 -86.5 -19t-65.5 -54t-41.5 -85t-14.5 -111q0 -62 14.5 -111.5t41.5 -84t65.5 -53.5t86.5 -19zM244 1361h616v-212h-616v212z" />
    <glyph glyph-name="Abreve" unicode="&#x102;" horiz-adv-x="1320" 
d="M915 317h-515l-102 -317h-284l484 1400h324l484 -1400h-289zM834 566l-177 548l-176 -548h353zM499 1856q20 -81 59.5 -119.5t99.5 -38.5t99.5 38.5t59.5 119.5l191 -47q-32 -153 -121 -235t-229 -82t-228.5 82t-120.5 235z" />
    <glyph glyph-name="abreve" unicode="&#x103;" horiz-adv-x="1093" 
d="M982 974v-974h-248v116q-42 -62 -105.5 -100t-155.5 -38q-90 0 -165.5 38t-130.5 105.5t-85.5 161t-30.5 205.5q0 111 30.5 204.5t85.5 161t130.5 105.5t165.5 38q92 0 155.5 -38.5t105.5 -100.5v116h248zM531 219q46 0 84.5 18.5t65.5 53t42 84.5t15 112t-15 112t-42 85
t-65.5 53.5t-84.5 18.5q-48 0 -86.5 -19t-65.5 -54t-41.5 -85t-14.5 -111q0 -62 14.5 -111.5t41.5 -84t65.5 -53.5t86.5 -19zM393 1450q20 -81 59.5 -119.5t99.5 -38.5t99.5 38.5t59.5 119.5l191 -47q-32 -153 -121 -235t-229 -82t-228.5 82t-120.5 235z" />
    <glyph glyph-name="Aogonek" unicode="&#x104;" horiz-adv-x="1320" 
d="M915 317h-515l-102 -317h-284l484 1400h324l484 -1400h-289zM834 566l-177 548l-176 -548h353zM1306 -311q-41 -40 -99 -66t-133 -26q-49 0 -92 13t-74.5 37.5t-49.5 59.5t-18 80q0 49 24.5 90.5t65.5 75.5t94.5 61t112.5 47l93 -59q-50 -18 -83.5 -38t-53.5 -39.5
t-28 -38t-8 -34.5q0 -26 16 -40t42 -14q34 0 72 33z" />
    <glyph glyph-name="aogonek" unicode="&#x105;" horiz-adv-x="1093" 
d="M982 974v-974h-248v116q-42 -62 -105.5 -100t-155.5 -38q-90 0 -165.5 38t-130.5 105.5t-85.5 161t-30.5 205.5q0 111 30.5 204.5t85.5 161t130.5 105.5t165.5 38q92 0 155.5 -38.5t105.5 -100.5v116h248zM531 219q46 0 84.5 18.5t65.5 53t42 84.5t15 112t-15 112t-42 85
t-65.5 53.5t-84.5 18.5q-48 0 -86.5 -19t-65.5 -54t-41.5 -85t-14.5 -111q0 -62 14.5 -111.5t41.5 -84t65.5 -53.5t86.5 -19zM1037 -311q-41 -40 -99 -66t-133 -26q-49 0 -92 13t-74.5 37.5t-49.5 59.5t-18 80q0 49 24.5 90.5t65.5 75.5t94.5 61t112.5 47l93 -59
q-50 -18 -83.5 -38t-53.5 -39.5t-28 -38t-8 -34.5q0 -26 16 -40t42 -14q34 0 72 33z" />
    <glyph glyph-name="Cacute" unicode="&#x106;" horiz-adv-x="1313" 
d="M721 1423q89 0 170 -21.5t150 -62t123.5 -99t91.5 -133.5l-236 -129q-49 88 -125 134t-175 46q-79 0 -145 -31t-114 -90t-75 -144t-27 -193q0 -111 28 -196.5t77 -143.5t115 -88t142 -30q97 0 174 45.5t128 133.5l226 -143q-39 -71 -93.5 -126.5t-121.5 -94.5t-146 -59.5
t-167 -20.5q-144 0 -263 51.5t-204 146t-132 228t-47 297.5t47 297.5t132 228t204 146t263 51.5zM542 1504l192 322h290l-247 -322h-235z" />
    <glyph glyph-name="cacute" unicode="&#x107;" horiz-adv-x="918" 
d="M527 996q114 0 205 -46.5t151 -134.5l-185 -147q-35 42 -77 64.5t-95 22.5q-43 0 -80.5 -17.5t-65 -51.5t-43.5 -84t-16 -115t16 -115t43.5 -84t64.5 -51.5t79 -17.5q53 0 96.5 24t78.5 64l184 -149q-60 -87 -151 -133.5t-205 -46.5q-105 0 -190.5 37t-147 103.5
t-95 160.5t-33.5 208t33.5 208t95 161t147 103.5t190.5 36.5zM357 1098l192 322h290l-247 -322h-235z" />
    <glyph glyph-name="Ccircumflex" unicode="&#x108;" horiz-adv-x="1313" 
d="M721 1423q89 0 170 -21.5t150 -62t123.5 -99t91.5 -133.5l-236 -129q-49 88 -125 134t-175 46q-79 0 -145 -31t-114 -90t-75 -144t-27 -193q0 -111 28 -196.5t77 -143.5t115 -88t142 -30q97 0 174 45.5t128 133.5l226 -143q-39 -71 -93.5 -126.5t-121.5 -94.5t-146 -59.5
t-167 -20.5q-144 0 -263 51.5t-204 146t-132 228t-47 297.5t47 297.5t132 228t204 146t263 51.5zM834 1502l-117 157l-116 -157h-230l207 319h279l207 -319h-230z" />
    <glyph glyph-name="ccircumflex" unicode="&#x109;" horiz-adv-x="918" 
d="M527 996q114 0 205 -46.5t151 -134.5l-185 -147q-35 42 -77 64.5t-95 22.5q-43 0 -80.5 -17.5t-65 -51.5t-43.5 -84t-16 -115t16 -115t43.5 -84t64.5 -51.5t79 -17.5q53 0 96.5 24t78.5 64l184 -149q-60 -87 -151 -133.5t-205 -46.5q-105 0 -190.5 37t-147 103.5
t-95 160.5t-33.5 208t33.5 208t95 161t147 103.5t190.5 36.5zM637 1096l-117 157l-116 -157h-230l207 319h279l207 -319h-230z" />
    <glyph glyph-name="Cdotaccent" unicode="&#x10a;" horiz-adv-x="1313" 
d="M721 1423q89 0 170 -21.5t150 -62t123.5 -99t91.5 -133.5l-236 -129q-49 88 -125 134t-175 46q-79 0 -145 -31t-114 -90t-75 -144t-27 -193q0 -111 28 -196.5t77 -143.5t115 -88t142 -30q97 0 174 45.5t128 133.5l226 -143q-39 -71 -93.5 -126.5t-121.5 -94.5t-146 -59.5
t-167 -20.5q-144 0 -263 51.5t-204 146t-132 228t-47 297.5t47 297.5t132 228t204 146t263 51.5zM716 1828q34 0 64 -12.5t52 -34.5t34.5 -52t12.5 -64q0 -35 -12.5 -64.5t-34.5 -51t-52 -34t-64 -12.5q-35 0 -64.5 12.5t-51 34.5t-34 51.5t-12.5 64.5q0 34 12.5 63.5
t34 51.5t51 34.5t64.5 12.5z" />
    <glyph glyph-name="cdotaccent" unicode="&#x10b;" horiz-adv-x="918" 
d="M527 996q114 0 205 -46.5t151 -134.5l-185 -147q-35 42 -77 64.5t-95 22.5q-43 0 -80.5 -17.5t-65 -51.5t-43.5 -84t-16 -115t16 -115t43.5 -84t64.5 -51.5t79 -17.5q53 0 96.5 24t78.5 64l184 -149q-60 -87 -151 -133.5t-205 -46.5q-105 0 -190.5 37t-147 103.5
t-95 160.5t-33.5 208t33.5 208t95 161t147 103.5t190.5 36.5zM519 1446q33 0 62 -12t50 -33.5t33 -50.5t12 -62t-12 -61.5t-33 -49.5t-50 -33t-62 -12t-62 12t-50 33t-33 50t-12 62t12 61.5t33 50t50 33.5t62 12z" />
    <glyph glyph-name="Ccaron" unicode="&#x10c;" horiz-adv-x="1313" 
d="M721 1423q89 0 170 -21.5t150 -62t123.5 -99t91.5 -133.5l-236 -129q-49 88 -125 134t-175 46q-79 0 -145 -31t-114 -90t-75 -144t-27 -193q0 -111 28 -196.5t77 -143.5t115 -88t142 -30q97 0 174 45.5t128 133.5l226 -143q-39 -71 -93.5 -126.5t-121.5 -94.5t-146 -59.5
t-167 -20.5q-144 0 -263 51.5t-204 146t-132 228t-47 297.5t47 297.5t132 228t204 146t263 51.5zM600 1819l116 -157l116 157h230l-207 -319h-279l-206 319h230z" />
    <glyph glyph-name="ccaron" unicode="&#x10d;" horiz-adv-x="918" 
d="M527 996q114 0 205 -46.5t151 -134.5l-185 -147q-35 42 -77 64.5t-95 22.5q-43 0 -80.5 -17.5t-65 -51.5t-43.5 -84t-16 -115t16 -115t43.5 -84t64.5 -51.5t79 -17.5q53 0 96.5 24t78.5 64l184 -149q-60 -87 -151 -133.5t-205 -46.5q-105 0 -190.5 37t-147 103.5
t-95 160.5t-33.5 208t33.5 208t95 161t147 103.5t190.5 36.5zM404 1413l116 -157l116 157h230l-207 -319h-279l-206 319h230z" />
    <glyph glyph-name="Dcaron" unicode="&#x10e;" horiz-adv-x="1374" 
d="M640 1400q153 0 275 -49.5t207.5 -141t131 -220.5t45.5 -289q0 -159 -45.5 -288.5t-131 -221t-207.5 -141t-275 -49.5h-513v1400h513zM635 254q96 0 167.5 32t118.5 90.5t70 140.5t23 183t-23 183.5t-70 141t-118.5 90t-167.5 31.5h-234v-892h234zM515 1819l116 -157
l116 157h230l-207 -319h-279l-206 319h230z" />
    <glyph glyph-name="dcaron" unicode="&#x10f;" horiz-adv-x="1228" 
d="M981 1440v-1440h-247v116q-42 -62 -105.5 -100t-155.5 -38q-90 0 -165.5 38t-130.5 105.5t-85.5 161t-30.5 205.5q0 111 30.5 204.5t85.5 161t130.5 105.5t165.5 38q88 0 149.5 -35t103.5 -92v570h255zM531 219q46 0 84.5 18.5t65.5 53t42 84.5t15 112t-15 112t-42 85
t-65.5 53.5t-84.5 18.5q-48 0 -86.5 -19t-65.5 -54t-41.5 -85t-14.5 -111q0 -62 14.5 -111.5t41.5 -84t65.5 -53.5t86.5 -19zM1068 997l2 443h241l-50 -443h-193z" />
    <glyph glyph-name="Dcroat" unicode="&#x110;" horiz-adv-x="1480" 
d="M745 1400q153 0 275 -49.5t207.5 -141t131 -220.5t45.5 -289q0 -159 -45.5 -288.5t-131 -221t-207.5 -141t-275 -49.5h-513v591h-156v231h156v578h513zM740 254q96 0 167.5 32t118.5 90.5t70 140.5t23 183t-23 183.5t-70 141t-118.5 90t-167.5 31.5h-234v-324h299v-231
h-299v-337h234z" />
    <glyph glyph-name="dcroat" unicode="&#x111;" horiz-adv-x="1094" 
d="M981 1440v-1440h-247v116q-42 -62 -105.5 -100t-155.5 -38q-90 0 -165.5 38t-130.5 105.5t-85.5 161t-30.5 205.5q0 111 30.5 204.5t85.5 161t130.5 105.5t165.5 38q88 0 149.5 -35t103.5 -92v570h255zM531 219q46 0 84.5 18.5t65.5 53t42 84.5t15 112t-15 112t-42 85
t-65.5 53.5t-84.5 18.5q-48 0 -86.5 -19t-65.5 -54t-41.5 -85t-14.5 -111q0 -62 14.5 -111.5t41.5 -84t65.5 -53.5t86.5 -19zM1082 1092h-670v205h670v-205z" />
    <glyph glyph-name="Emacron" unicode="&#x112;" horiz-adv-x="1158" 
d="M1056 249v-249h-929v1400h926v-249h-652v-320h618v-249h-618v-333h655zM281 1766h616v-212h-616v212z" />
    <glyph glyph-name="emacron" unicode="&#x113;" horiz-adv-x="1007" 
d="M945 488q0 -21 -1.5 -44t-3.5 -40h-617q17 -106 75 -155.5t146 -49.5q60 0 116 23t101 65l148 -166q-75 -73 -171.5 -108t-210.5 -35q-105 0 -191 35.5t-147 101t-94.5 159t-33.5 210.5t32.5 211.5t92 161t142.5 103t184 36.5q97 0 176.5 -36t136.5 -102t88.5 -160
t31.5 -210zM690 578q-14 96 -60 145t-120 49q-78 0 -125 -49.5t-61 -144.5h366zM202 1361h616v-212h-616v212z" />
    <glyph glyph-name="Ebreve" unicode="&#x114;" horiz-adv-x="1158" 
d="M1056 249v-249h-929v1400h926v-249h-652v-320h618v-249h-618v-333h655zM429 1856q20 -81 59.5 -119.5t99.5 -38.5t99.5 38.5t59.5 119.5l191 -47q-32 -153 -121 -235t-229 -82t-228.5 82t-120.5 235z" />
    <glyph glyph-name="ebreve" unicode="&#x115;" horiz-adv-x="1007" 
d="M945 488q0 -21 -1.5 -44t-3.5 -40h-617q17 -106 75 -155.5t146 -49.5q60 0 116 23t101 65l148 -166q-75 -73 -171.5 -108t-210.5 -35q-105 0 -191 35.5t-147 101t-94.5 159t-33.5 210.5t32.5 211.5t92 161t142.5 103t184 36.5q97 0 176.5 -36t136.5 -102t88.5 -160
t31.5 -210zM690 578q-14 96 -60 145t-120 49q-78 0 -125 -49.5t-61 -144.5h366zM351 1450q20 -81 59.5 -119.5t99.5 -38.5t99.5 38.5t59.5 119.5l191 -47q-32 -153 -121 -235t-229 -82t-228.5 82t-120.5 235z" />
    <glyph glyph-name="Edotaccent" unicode="&#x116;" horiz-adv-x="1158" 
d="M1056 249v-249h-929v1400h926v-249h-652v-320h618v-249h-618v-333h655zM589 1828q34 0 64 -12.5t52 -34.5t34.5 -52t12.5 -64q0 -35 -12.5 -64.5t-34.5 -51t-52 -34t-64 -12.5q-35 0 -64.5 12.5t-51 34.5t-34 51.5t-12.5 64.5q0 34 12.5 63.5t34 51.5t51 34.5t64.5 12.5z
" />
    <glyph glyph-name="edotaccent" unicode="&#x117;" horiz-adv-x="1007" 
d="M945 488q0 -21 -1.5 -44t-3.5 -40h-617q17 -106 75 -155.5t146 -49.5q60 0 116 23t101 65l148 -166q-75 -73 -171.5 -108t-210.5 -35q-105 0 -191 35.5t-147 101t-94.5 159t-33.5 210.5t32.5 211.5t92 161t142.5 103t184 36.5q97 0 176.5 -36t136.5 -102t88.5 -160
t31.5 -210zM690 578q-14 96 -60 145t-120 49q-78 0 -125 -49.5t-61 -144.5h366zM510 1446q33 0 62 -12t50 -33.5t33 -50.5t12 -62t-12 -61.5t-33 -49.5t-50 -33t-62 -12t-62 12t-50 33t-33 50t-12 62t12 61.5t33 50t50 33.5t62 12z" />
    <glyph glyph-name="Eogonek" unicode="&#x118;" horiz-adv-x="1158" 
d="M1056 249v-249h-929v1400h926v-249h-652v-320h618v-249h-618v-333h655zM962 14q-49 -15 -81.5 -34.5t-52.5 -39.5t-28.5 -40.5t-8.5 -38.5q0 -28 19.5 -45.5t53.5 -17.5q51 0 94 41l128 -137q-49 -50 -113 -77.5t-142 -27.5q-58 0 -107 14.5t-84.5 41t-55.5 64t-20 83.5
q0 50 21.5 91.5t60.5 74.5t92.5 58t117.5 42z" />
    <glyph glyph-name="eogonek" unicode="&#x119;" horiz-adv-x="1007" 
d="M945 488q0 -21 -1.5 -44t-3.5 -40h-617q17 -106 75 -155.5t146 -49.5q60 0 116 23t101 65l148 -166q-75 -73 -171.5 -108t-210.5 -35q-105 0 -191 35.5t-147 101t-94.5 159t-33.5 210.5t32.5 211.5t92 161t142.5 103t184 36.5q97 0 176.5 -36t136.5 -102t88.5 -160
t31.5 -210zM690 578q-14 96 -60 145t-120 49q-78 0 -125 -49.5t-61 -144.5h366zM895 -298q-49 -50 -113 -77.5t-142 -27.5q-58 0 -107 14.5t-84.5 41.5t-55.5 64.5t-20 83.5q0 51 21.5 92t59 74t89 59.5t111.5 49.5l111 -51q-49 -24 -81 -46t-50.5 -42.5t-26 -39t-7.5 -36.5
q0 -29 19.5 -46t53.5 -17q51 0 94 41z" />
    <glyph glyph-name="Ecaron" unicode="&#x11a;" horiz-adv-x="1158" 
d="M1056 249v-249h-929v1400h926v-249h-652v-320h618v-249h-618v-333h655zM473 1819l116 -157l116 157h230l-207 -319h-279l-206 319h230z" />
    <glyph glyph-name="ecaron" unicode="&#x11b;" horiz-adv-x="1007" 
d="M945 488q0 -21 -1.5 -44t-3.5 -40h-617q17 -106 75 -155.5t146 -49.5q60 0 116 23t101 65l148 -166q-75 -73 -171.5 -108t-210.5 -35q-105 0 -191 35.5t-147 101t-94.5 159t-33.5 210.5t32.5 211.5t92 161t142.5 103t184 36.5q97 0 176.5 -36t136.5 -102t88.5 -160
t31.5 -210zM690 578q-14 96 -60 145t-120 49q-78 0 -125 -49.5t-61 -144.5h366zM395 1413l116 -157l116 157h230l-207 -319h-279l-206 319h230z" />
    <glyph glyph-name="Gcircumflex" unicode="&#x11c;" horiz-adv-x="1389" 
d="M727 1423q159 0 281 -61.5t200 -173.5l-205 -168q-50 68 -120.5 105t-163.5 37q-80 0 -146.5 -31t-114.5 -90t-74.5 -145t-26.5 -196q0 -115 28.5 -202t77.5 -145.5t115 -88.5t141 -30q144 0 228.5 79t106.5 238h-314v226h584q2 -23 3.5 -49t1.5 -53q0 -165 -46.5 -294.5
t-128 -219t-192 -136.5t-237.5 -47q-137 0 -255.5 48.5t-206.5 141t-138 227t-50 305.5q0 165 47.5 298.5t133.5 228t206 145.5t265 51zM826 1502l-117 157l-116 -157h-230l207 319h279l207 -319h-230z" />
    <glyph glyph-name="gcircumflex" unicode="&#x11d;" horiz-adv-x="1084" 
d="M973 974v-900q0 -113 -34 -201t-96 -148t-149.5 -91.5t-194.5 -31.5q-112 0 -214 29.5t-175 86.5l99 204q59 -44 126.5 -67.5t147.5 -23.5q50 0 93.5 14t76 43t51 72t18.5 102v91q-43 -60 -106.5 -96t-154.5 -36q-84 0 -157 35t-127 99t-85 154t-31 200t31 200t85 154
t127 99t157 35q92 0 157 -37.5t108 -100.5v115h247zM527 259q46 0 83.5 17.5t64 50t41 79t14.5 103.5t-14.5 103t-41 78.5t-64 50t-83.5 17.5t-83.5 -18t-64 -50.5t-41 -78.5t-14.5 -102t14.5 -102t41 -79t64 -51t83.5 -18zM653 1096l-117 157l-116 -157h-230l207 319h279
l207 -319h-230z" />
    <glyph glyph-name="Gbreve" unicode="&#x11e;" horiz-adv-x="1389" 
d="M727 1423q159 0 281 -61.5t200 -173.5l-205 -168q-50 68 -120.5 105t-163.5 37q-80 0 -146.5 -31t-114.5 -90t-74.5 -145t-26.5 -196q0 -115 28.5 -202t77.5 -145.5t115 -88.5t141 -30q144 0 228.5 79t106.5 238h-314v226h584q2 -23 3.5 -49t1.5 -53q0 -165 -46.5 -294.5
t-128 -219t-192 -136.5t-237.5 -47q-137 0 -255.5 48.5t-206.5 141t-138 227t-50 305.5q0 165 47.5 298.5t133.5 228t206 145.5t265 51zM548 1856q20 -81 59.5 -119.5t99.5 -38.5t99.5 38.5t59.5 119.5l191 -47q-32 -153 -121 -235t-229 -82t-228.5 82t-120.5 235z" />
    <glyph glyph-name="gbreve" unicode="&#x11f;" horiz-adv-x="1084" 
d="M973 974v-900q0 -113 -34 -201t-96 -148t-149.5 -91.5t-194.5 -31.5q-112 0 -214 29.5t-175 86.5l99 204q59 -44 126.5 -67.5t147.5 -23.5q50 0 93.5 14t76 43t51 72t18.5 102v91q-43 -60 -106.5 -96t-154.5 -36q-84 0 -157 35t-127 99t-85 154t-31 200t31 200t85 154
t127 99t157 35q92 0 157 -37.5t108 -100.5v115h247zM527 259q46 0 83.5 17.5t64 50t41 79t14.5 103.5t-14.5 103t-41 78.5t-64 50t-83.5 17.5t-83.5 -18t-64 -50.5t-41 -78.5t-14.5 -102t14.5 -102t41 -79t64 -51t83.5 -18zM376 1450q20 -81 59.5 -119.5t99.5 -38.5
t99.5 38.5t59.5 119.5l191 -47q-32 -153 -121 -235t-229 -82t-228.5 82t-120.5 235z" />
    <glyph glyph-name="Gdotaccent" unicode="&#x120;" horiz-adv-x="1389" 
d="M727 1423q159 0 281 -61.5t200 -173.5l-205 -168q-50 68 -120.5 105t-163.5 37q-80 0 -146.5 -31t-114.5 -90t-74.5 -145t-26.5 -196q0 -115 28.5 -202t77.5 -145.5t115 -88.5t141 -30q144 0 228.5 79t106.5 238h-314v226h584q2 -23 3.5 -49t1.5 -53q0 -165 -46.5 -294.5
t-128 -219t-192 -136.5t-237.5 -47q-137 0 -255.5 48.5t-206.5 141t-138 227t-50 305.5q0 165 47.5 298.5t133.5 228t206 145.5t265 51zM708 1828q34 0 64 -12.5t52 -34.5t34.5 -52t12.5 -64q0 -35 -12.5 -64.5t-34.5 -51t-52 -34t-64 -12.5q-35 0 -64.5 12.5t-51 34.5
t-34 51.5t-12.5 64.5q0 34 12.5 63.5t34 51.5t51 34.5t64.5 12.5z" />
    <glyph glyph-name="gdotaccent" unicode="&#x121;" horiz-adv-x="1084" 
d="M973 974v-900q0 -113 -34 -201t-96 -148t-149.5 -91.5t-194.5 -31.5q-112 0 -214 29.5t-175 86.5l99 204q59 -44 126.5 -67.5t147.5 -23.5q50 0 93.5 14t76 43t51 72t18.5 102v91q-43 -60 -106.5 -96t-154.5 -36q-84 0 -157 35t-127 99t-85 154t-31 200t31 200t85 154
t127 99t157 35q92 0 157 -37.5t108 -100.5v115h247zM527 259q46 0 83.5 17.5t64 50t41 79t14.5 103.5t-14.5 103t-41 78.5t-64 50t-83.5 17.5t-83.5 -18t-64 -50.5t-41 -78.5t-14.5 -102t14.5 -102t41 -79t64 -51t83.5 -18zM535 1446q33 0 62 -12t50 -33.5t33 -50.5t12 -62
t-12 -61.5t-33 -49.5t-50 -33t-62 -12t-62 12t-50 33t-33 50t-12 62t12 61.5t33 50t50 33.5t62 12z" />
    <glyph glyph-name="uni0122" unicode="&#x122;" horiz-adv-x="1389" 
d="M727 1423q159 0 281 -61.5t200 -173.5l-205 -168q-50 68 -120.5 105t-163.5 37q-80 0 -146.5 -31t-114.5 -90t-74.5 -145t-26.5 -196q0 -115 28.5 -202t77.5 -145.5t115 -88.5t141 -30q144 0 228.5 79t106.5 238h-314v226h584q2 -23 3.5 -49t1.5 -53q0 -165 -46.5 -294.5
t-128 -219t-192 -136.5t-237.5 -47q-137 0 -255.5 48.5t-206.5 141t-138 227t-50 305.5q0 165 47.5 298.5t133.5 228t206 145.5t265 51zM840 -84l-84 -373h-201l42 373h243z" />
    <glyph glyph-name="uni0123" unicode="&#x123;" horiz-adv-x="1084" 
d="M973 974v-900q0 -113 -34 -201t-96 -148t-149.5 -91.5t-194.5 -31.5q-112 0 -214 29.5t-175 86.5l99 204q59 -44 126.5 -67.5t147.5 -23.5q50 0 93.5 14t76 43t51 72t18.5 102v91q-43 -60 -106.5 -96t-154.5 -36q-84 0 -157 35t-127 99t-85 154t-31 200t31 200t85 154
t127 99t157 35q92 0 157 -37.5t108 -100.5v115h247zM527 259q46 0 83.5 17.5t64 50t41 79t14.5 103.5t-14.5 103t-41 78.5t-64 50t-83.5 17.5t-83.5 -18t-64 -50.5t-41 -78.5t-14.5 -102t14.5 -102t41 -79t64 -51t83.5 -18zM412 1099l83 383h203l-43 -383h-243z" />
    <glyph glyph-name="Hcircumflex" unicode="&#x124;" horiz-adv-x="1365" 
d="M1238 1400v-1400h-273v580h-564v-580h-274v1400h274v-567h564v567h273zM800 1502l-117 157l-116 -157h-230l207 319h279l207 -319h-230z" />
    <glyph glyph-name="hcircumflex" unicode="&#x125;" horiz-adv-x="1058" 
d="M619 997q74 0 135.5 -25t105.5 -70.5t68.5 -110.5t24.5 -144v-647h-256v571q0 91 -43 137.5t-118 46.5q-35 0 -66 -12t-54 -35.5t-36 -58t-13 -80.5v-569h-256v1440h256v-569q45 67 109.5 96.5t142.5 29.5zM644 1522l-117 157l-116 -157h-230l207 319h279l207 -319h-230z
" />
    <glyph glyph-name="Hbar" unicode="&#x126;" horiz-adv-x="1456" 
d="M1283 1400v-1400h-273v580h-564v-580h-274v1400h274v-567h564v567h273zM1418 1000h-1380v205h1380v-205z" />
    <glyph glyph-name="hbar" unicode="&#x127;" horiz-adv-x="1058" 
d="M619 997q74 0 135.5 -25t105.5 -70.5t68.5 -110.5t24.5 -144v-647h-256v571q0 91 -43 137.5t-118 46.5q-35 0 -66 -12t-54 -35.5t-36 -58t-13 -80.5v-569h-256v1440h256v-569q45 67 109.5 96.5t142.5 29.5zM672 1090h-670v205h670v-205z" />
    <glyph glyph-name="Itilde" unicode="&#x128;" horiz-adv-x="528" 
d="M401 0h-274v1400h274v-1400zM-100 1669q51 74 111 105.5t134 31.5q47 0 81 -11t60 -23.5t47.5 -23.5t44.5 -11q26 0 52.5 17t55.5 49l137 -139q-51 -74 -111.5 -105.5t-134.5 -31.5q-46 0 -79.5 11t-60 23.5t-48.5 23.5t-44 11q-26 0 -53 -17t-56 -49z" />
    <glyph glyph-name="itilde" unicode="&#x129;" horiz-adv-x="477" 
d="M366 0h-255v974h255v-974zM-125 1263q51 74 111 105.5t134 31.5q47 0 81 -11t60 -23.5t47.5 -23.5t44.5 -11q26 0 52.5 17t55.5 49l137 -139q-51 -74 -111.5 -105.5t-134.5 -31.5q-46 0 -79.5 11t-60 23.5t-48.5 23.5t-44 11q-26 0 -53 -17t-56 -49z" />
    <glyph glyph-name="Imacron" unicode="&#x12a;" horiz-adv-x="528" 
d="M401 0h-274v1400h274v-1400zM-45 1766h616v-212h-616v212z" />
    <glyph glyph-name="imacron" unicode="&#x12b;" horiz-adv-x="477" 
d="M366 0h-255v974h255v-974zM-71 1361h616v-212h-616v212z" />
    <glyph glyph-name="Ibreve" unicode="&#x12c;" horiz-adv-x="528" 
d="M401 0h-274v1400h274v-1400zM103 1856q20 -81 59.5 -119.5t99.5 -38.5t99.5 38.5t59.5 119.5l191 -47q-32 -153 -121 -235t-229 -82t-228.5 82t-120.5 235z" />
    <glyph glyph-name="ibreve" unicode="&#x12d;" horiz-adv-x="477" 
d="M366 0h-255v974h255v-974zM78 1450q20 -81 59.5 -119.5t99.5 -38.5t99.5 38.5t59.5 119.5l191 -47q-32 -153 -121 -235t-229 -82t-228.5 82t-120.5 235z" />
    <glyph glyph-name="Iogonek" unicode="&#x12e;" horiz-adv-x="528" 
d="M401 0h-274v1400h274v-1400zM502 -310q-40 -41 -98 -67t-133 -26q-49 0 -92 13t-74.5 38t-50 61.5t-18.5 82.5q0 48 20 89t54.5 75.5t80.5 62.5t98 50l91 -67q-39 -18 -64 -38t-39.5 -39.5t-20.5 -37.5t-6 -33q0 -27 16.5 -41.5t43.5 -14.5q36 0 73 34z" />
    <glyph glyph-name="iogonek" unicode="&#x12f;" horiz-adv-x="477" 
d="M471 -310q-40 -41 -98 -67t-133 -26q-49 0 -92 13t-74.5 38t-50 61.5t-18.5 82.5q0 48 20 89t54.5 75.5t80.5 62.5t98 50l91 -67q-39 -18 -64 -38t-39.5 -39.5t-20.5 -37.5t-6 -33q0 -27 16.5 -41.5t43.5 -14.5q36 0 73 34zM366 0h-255v974h255v-974zM237 1446
q33 0 62 -12t50 -33.5t33 -50.5t12 -62t-12 -61.5t-33 -49.5t-50 -33t-62 -12t-62 12t-50 33t-33 50t-12 62t12 61.5t33 50t50 33.5t62 12z" />
    <glyph glyph-name="Idotaccent" unicode="&#x130;" horiz-adv-x="528" 
d="M401 0h-274v1400h274v-1400zM263 1828q34 0 64 -12.5t52 -34.5t34.5 -52t12.5 -64q0 -35 -12.5 -64.5t-34.5 -51t-52 -34t-64 -12.5q-35 0 -64.5 12.5t-51 34.5t-34 51.5t-12.5 64.5q0 34 12.5 63.5t34 51.5t51 34.5t64.5 12.5z" />
    <glyph glyph-name="dotlessi" unicode="&#x131;" horiz-adv-x="477" 
d="M366 0h-255v974h255v-974z" />
    <glyph glyph-name="IJ" unicode="&#x132;" horiz-adv-x="1519" 
d="M401 0h-274v1400h274v-1400zM1398 475q0 -123 -34 -216t-95 -155.5t-145.5 -94t-186.5 -31.5q-70 0 -129 13.5t-107.5 35.5t-86 50.5t-64.5 59.5l143 205q37 -42 92.5 -71t130.5 -29q97 0 153 62t56 196v900h273v-925z" />
    <glyph glyph-name="ij" unicode="&#x133;" horiz-adv-x="955" 
d="M844 -91q0 -74 -19.5 -132t-55.5 -97.5t-86 -60t-111 -20.5q-38 0 -78.5 8t-67.5 19l35 226q14 -5 29 -8.5t33 -3.5q29 0 47.5 20t18.5 67v1047h255v-1065zM714 1446q33 0 62 -12t50 -33.5t33 -50.5t12 -62t-12 -61.5t-33 -49.5t-50 -33t-62 -12t-62 12t-50 33t-33 50
t-12 62t12 61.5t33 50t50 33.5t62 12zM366 0h-255v974h255v-974zM237 1446q33 0 62 -12t50 -33.5t33 -50.5t12 -62t-12 -61.5t-33 -49.5t-50 -33t-62 -12t-62 12t-50 33t-33 50t-12 62t12 61.5t33 50t50 33.5t62 12z" />
    <glyph glyph-name="Jcircumflex" unicode="&#x134;" horiz-adv-x="991" 
d="M870 475q0 -123 -34 -216t-95 -155.5t-145.5 -94t-186.5 -31.5q-70 0 -129 13.5t-107.5 35.5t-86 50.5t-64.5 59.5l143 205q37 -42 92.5 -71t130.5 -29q97 0 153 62t56 196v900h273v-925zM851 1502l-117 157l-116 -157h-230l207 319h279l207 -319h-230z" />
    <glyph glyph-name="jcircumflex" unicode="&#x135;" horiz-adv-x="478" 
d="M367 -91q0 -74 -19.5 -132t-55.5 -97.5t-86 -60t-111 -20.5q-38 0 -78.5 8t-67.5 19l35 226q14 -5 29 -8.5t33 -3.5q29 0 47.5 20t18.5 67v1047h255v-1065zM355 1096l-117 157l-116 -157h-230l207 319h279l207 -319h-230z" />
    <glyph glyph-name="uni0136" unicode="&#x136;" horiz-adv-x="1282" 
d="M512 580h-111v-580h-274v1400h274v-570h115l398 570h331l-508 -684l545 -716h-340zM771 -84l-84 -373h-201l42 373h243z" />
    <glyph glyph-name="uni0137" unicode="&#x137;" horiz-adv-x="997" 
d="M442 393h-77v-393h-254v1440h254v-813h79l235 347h305l-334 -460l339 -514h-306zM652 -81l-84 -373h-201l42 373h243z" />
    <glyph glyph-name="kgreenlandic" unicode="&#x138;" horiz-adv-x="1001" 
d="M443 393h-78v-393h-254v974h254v-346h82l236 346h305l-335 -461l339 -513h-305z" />
    <glyph glyph-name="Lacute" unicode="&#x139;" horiz-adv-x="1067" 
d="M1041 254v-254h-914v1400h274v-1146h640zM89 1504l192 322h290l-247 -322h-235z" />
    <glyph glyph-name="lacute" unicode="&#x13a;" horiz-adv-x="476" 
d="M365 0h-254v1440h254v-1440zM49 1529l192 322h290l-247 -322h-235z" />
    <glyph glyph-name="uni013B" unicode="&#x13b;" horiz-adv-x="1067" 
d="M1041 254v-254h-914v1400h274v-1146h640zM716 -84l-84 -373h-201l42 373h243z" />
    <glyph glyph-name="uni013C" unicode="&#x13c;" horiz-adv-x="476" 
d="M365 0h-254v1440h254v-1440zM374 -81l-84 -373h-201l42 373h243z" />
    <glyph glyph-name="Lcaron" unicode="&#x13d;" horiz-adv-x="1067" 
d="M1041 254v-254h-914v1400h274v-1146h640zM554 958l2 443h241l-50 -443h-193z" />
    <glyph glyph-name="lcaron" unicode="&#x13e;" horiz-adv-x="604" 
d="M365 0h-254v1440h254v-1440zM444 997l2 443h241l-50 -443h-193z" />
    <glyph glyph-name="Ldot" unicode="&#x13f;" horiz-adv-x="1067" 
d="M1041 254v-254h-914v1400h274v-1146h640zM791 877q34 0 64 -12.5t52 -34.5t34.5 -52t12.5 -64q0 -35 -12.5 -64.5t-34.5 -51t-52 -34t-64 -12.5q-35 0 -64.5 12.5t-51 34.5t-34 51.5t-12.5 64.5q0 34 12.5 63.5t34 51.5t51 34.5t64.5 12.5z" />
    <glyph glyph-name="ldot" unicode="&#x140;" horiz-adv-x="692" 
d="M365 0h-254v1440h254v-1440zM598.662 881.141q31.8154 0 59.7754 -11.5693q27.959 -11.5693 48.2051 -32.2979t31.8154 -48.6875t11.5693 -59.7744t-11.5693 -59.293t-31.8154 -47.7236t-48.2051 -31.8154q-27.96 -11.5693 -59.7754 -11.5693t-59.7754 11.5693
q-27.959 11.5693 -48.2051 31.8154t-31.8154 48.2051q-11.5693 27.96 -11.5693 59.7754t11.5693 59.293q11.5693 27.4766 31.8154 48.2051t48.2051 32.2979q27.96 11.5693 59.7754 11.5693z" />
    <glyph glyph-name="Lslash" unicode="&#x141;" horiz-adv-x="1164" 
d="M1138 254v-254h-914v444l-148 -82v263l148 82v693h274v-540l392 219v-263l-392 -219v-343h640z" />
    <glyph glyph-name="lslash" unicode="&#x142;" horiz-adv-x="656" 
d="M455 946l168 103v-252l-168 -103v-694h-254v539l-168 -103v251l168 103v650h254v-494z" />
    <glyph glyph-name="Nacute" unicode="&#x143;" horiz-adv-x="1392" 
d="M1265 0h-262l-604 910v-910h-272v1400h262l605 -912v912h271v-1400zM527 1504l192 322h290l-247 -322h-235z" />
    <glyph glyph-name="nacute" unicode="&#x144;" horiz-adv-x="1057" 
d="M619 997q74 0 135 -25t105 -70.5t68.5 -110.5t24.5 -144v-647h-255v571q0 91 -43 137.5t-118 46.5q-35 0 -66 -12t-54 -35.5t-36 -58t-13 -80.5v-569h-256v974h246v-119q45 75 112.5 108.5t149.5 33.5zM374 1098l192 322h290l-247 -322h-235z" />
    <glyph glyph-name="uni0145" unicode="&#x145;" horiz-adv-x="1392" 
d="M1265 0h-262l-604 910v-910h-272v1400h262l605 -912v912h271v-1400zM832 -84l-84 -373h-201l42 373h243z" />
    <glyph glyph-name="uni0146" unicode="&#x146;" horiz-adv-x="1057" 
d="M619 997q74 0 135 -25t105 -70.5t68.5 -110.5t24.5 -144v-647h-255v571q0 91 -43 137.5t-118 46.5q-35 0 -66 -12t-54 -35.5t-36 -58t-13 -80.5v-569h-256v974h246v-119q45 75 112.5 108.5t149.5 33.5zM668 -81l-84 -373h-201l42 373h243z" />
    <glyph glyph-name="Ncaron" unicode="&#x147;" horiz-adv-x="1392" 
d="M1265 0h-262l-604 910v-910h-272v1400h262l605 -912v912h271v-1400zM585 1819l116 -157l116 157h230l-207 -319h-279l-206 319h230z" />
    <glyph glyph-name="ncaron" unicode="&#x148;" horiz-adv-x="1057" 
d="M619 997q74 0 135 -25t105 -70.5t68.5 -110.5t24.5 -144v-647h-255v571q0 91 -43 137.5t-118 46.5q-35 0 -66 -12t-54 -35.5t-36 -58t-13 -80.5v-569h-256v974h246v-119q45 75 112.5 108.5t149.5 33.5zM421 1413l116 -157l116 157h230l-207 -319h-279l-206 319h230z" />
    <glyph glyph-name="napostrophe" unicode="&#x149;" horiz-adv-x="1363" 
d="M422 1440l-133 -583h-212l66 583h279zM925 997q74 0 135 -25t105 -70.5t68.5 -110.5t24.5 -144v-647h-255v571q0 91 -43 137.5t-118 46.5q-35 0 -66 -12t-54 -35.5t-36 -58t-13 -80.5v-569h-256v974h246v-119q45 75 112.5 108.5t149.5 33.5z" />
    <glyph glyph-name="Eng" unicode="&#x14a;" horiz-adv-x="1392" 
d="M1265 -5q0 -93 -24.5 -166.5t-71 -124.5t-113.5 -78t-153 -27q-94 0 -164 22.5t-121 57.5l105 225q32 -20 67.5 -32.5t72.5 -12.5q67 0 98.5 41t32.5 113l-595 897v-910h-272v1400h262l605 -912v912h271v-1405z" />
    <glyph glyph-name="eng" unicode="&#x14b;" horiz-adv-x="1057" 
d="M619 997q74 0 135 -25t105 -70.5t68.5 -110.5t24.5 -144v-683q0 -74 -19.5 -132t-55.5 -97.5t-86 -60t-111 -20.5q-38 0 -76.5 7.5t-64.5 18.5l29 227q14 -5 29.5 -8.5t32.5 -3.5q29 0 48 20t19 68v588q0 91 -43 137.5t-118 46.5q-35 0 -66 -12t-54 -35.5t-36 -58
t-13 -80.5v-569h-256v974h246v-119q45 75 112.5 108.5t149.5 33.5z" />
    <glyph glyph-name="Omacron" unicode="&#x14c;" horiz-adv-x="1448" 
d="M724 1423q145 0 264.5 -52t205 -146.5t132.5 -228t47 -296.5t-47 -296.5t-132.5 -228t-205 -146.5t-264.5 -52t-264.5 52t-205 146.5t-132.5 228t-47 296.5t47 296.5t132.5 228t205 146.5t264.5 52zM724 1158q-81 0 -148 -31t-115 -90t-75 -144t-27 -193t27 -193t75 -144
t115 -90t148 -31t148 31t115 90t75 144t27 193t-27 193t-75 144t-115 90t-148 31zM415 1766h616v-212h-616v212z" />
    <glyph glyph-name="omacron" unicode="&#x14d;" horiz-adv-x="1067" 
d="M533 996q104 0 191 -37t149.5 -104t97.5 -160.5t35 -207.5t-35 -207.5t-97.5 -160.5t-149.5 -104t-191 -37t-190.5 37t-149 104t-97.5 160.5t-35 207.5t35 207.5t97.5 160.5t149 104t190.5 37zM533 755q-47 0 -85.5 -18.5t-67 -53t-44 -84t-15.5 -112.5t15.5 -113
t44 -84.5t67 -52.5t85.5 -18q46 0 85.5 18t67.5 52.5t44 84.5t16 113t-16 112.5t-44 84t-67.5 53t-85.5 18.5zM224 1359h616v-212h-616v212z" />
    <glyph glyph-name="Obreve" unicode="&#x14e;" horiz-adv-x="1448" 
d="M724 1423q145 0 264.5 -52t205 -146.5t132.5 -228t47 -296.5t-47 -296.5t-132.5 -228t-205 -146.5t-264.5 -52t-264.5 52t-205 146.5t-132.5 228t-47 296.5t47 296.5t132.5 228t205 146.5t264.5 52zM724 1158q-81 0 -148 -31t-115 -90t-75 -144t-27 -193t27 -193t75 -144
t115 -90t148 -31t148 31t115 90t75 144t27 193t-27 193t-75 144t-115 90t-148 31zM563 1856q20 -81 59.5 -119.5t99.5 -38.5t99.5 38.5t59.5 119.5l191 -47q-32 -153 -121 -235t-229 -82t-228.5 82t-120.5 235z" />
    <glyph glyph-name="obreve" unicode="&#x14f;" horiz-adv-x="1067" 
d="M533 996q104 0 191 -37t149.5 -104t97.5 -160.5t35 -207.5t-35 -207.5t-97.5 -160.5t-149.5 -104t-191 -37t-190.5 37t-149 104t-97.5 160.5t-35 207.5t35 207.5t97.5 160.5t149 104t190.5 37zM533 755q-47 0 -85.5 -18.5t-67 -53t-44 -84t-15.5 -112.5t15.5 -113
t44 -84.5t67 -52.5t85.5 -18q46 0 85.5 18t67.5 52.5t44 84.5t16 113t-16 112.5t-44 84t-67.5 53t-85.5 18.5zM373 1448q20 -81 59.5 -119.5t99.5 -38.5t99.5 38.5t59.5 119.5l191 -47q-32 -153 -121 -235t-229 -82t-228.5 82t-120.5 235z" />
    <glyph glyph-name="Ohungarumlaut" unicode="&#x150;" horiz-adv-x="1448" 
d="M724 1423q145 0 264.5 -52t205 -146.5t132.5 -228t47 -296.5t-47 -296.5t-132.5 -228t-205 -146.5t-264.5 -52t-264.5 52t-205 146.5t-132.5 228t-47 296.5t47 296.5t132.5 228t205 146.5t264.5 52zM724 1158q-81 0 -148 -31t-115 -90t-75 -144t-27 -193t27 -193t75 -144
t115 -90t148 -31t148 31t115 90t75 144t27 193t-27 193t-75 144t-115 90t-148 31zM413 1504l188 322h258l-211 -322h-235zM771 1504l211 322h262l-231 -322h-242z" />
    <glyph glyph-name="ohungarumlaut" unicode="&#x151;" horiz-adv-x="1067" 
d="M533 996q104 0 191 -37t149.5 -104t97.5 -160.5t35 -207.5t-35 -207.5t-97.5 -160.5t-149.5 -104t-191 -37t-190.5 37t-149 104t-97.5 160.5t-35 207.5t35 207.5t97.5 160.5t149 104t190.5 37zM533 755q-47 0 -85.5 -18.5t-67 -53t-44 -84t-15.5 -112.5t15.5 -113
t44 -84.5t67 -52.5t85.5 -18q46 0 85.5 18t67.5 52.5t44 84.5t16 113t-16 112.5t-44 84t-67.5 53t-85.5 18.5zM226 1097l188 322h258l-211 -322h-235zM584 1097l211 322h262l-231 -322h-242z" />
    <glyph glyph-name="OE" unicode="&#x152;" horiz-adv-x="1952" 
d="M1850 249v-249h-1110q-154 0 -277 49.5t-209.5 141t-132.5 220.5t-46 289q0 159 46 288.5t132.5 221t209.5 141t277 49.5h1107v-249h-652v-320h618v-249h-618v-333h655zM359 700q0 -101 23.5 -183.5t71 -141t120 -90t170.5 -31.5h177v892h-177q-98 0 -170.5 -32
t-120 -90.5t-71 -141t-23.5 -182.5z" />
    <glyph glyph-name="oe" unicode="&#x153;" horiz-adv-x="1690" 
d="M1629 488q0 -21 -1.5 -44t-3.5 -40h-617q17 -106 75 -155t146 -49q60 0 116 22.5t101 64.5l147 -166q-75 -73 -173 -108t-213 -35q-109 0 -194 41.5t-143 119.5q-60 -77 -145 -119t-191 -42q-104 0 -190.5 37t-149 104t-97.5 160.5t-35 207.5t35 207.5t97.5 160.5
t149 104t190.5 37q106 0 191 -42t145 -119q57 78 140 119.5t187 41.5q97 0 176.5 -36t136.5 -102t88.5 -160t31.5 -210zM1374 578q-14 96 -60.5 145t-119.5 49q-78 0 -125 -49.5t-61 -144.5h366zM533 219q46 0 85.5 18t67.5 52.5t44 84.5t16 113t-16 112.5t-44 84t-67.5 53
t-85.5 18.5q-47 0 -85.5 -18.5t-67 -53t-44 -84t-15.5 -112.5t15.5 -113t44 -84.5t67 -52.5t85.5 -18z" />
    <glyph glyph-name="Racute" unicode="&#x154;" horiz-adv-x="1215" 
d="M470 551h-69v-551h-274v1400h522q117 0 208.5 -29.5t154 -85t95 -136t32.5 -181.5q0 -83 -25.5 -152t-73.5 -121.5t-118 -87.5t-158 -48l386 -559h-322zM401 784h245q100 0 156.5 45t56.5 139q0 92 -57.5 136.5t-155.5 44.5h-245v-365zM414 1504l192 322h290l-247 -322
h-235z" />
    <glyph glyph-name="racute" unicode="&#x155;" horiz-adv-x="746" 
d="M602 997q67 0 111 -19l-29 -261q-29 11 -65.5 18t-72.5 7q-82 0 -130.5 -50t-48.5 -148v-544h-256v974h246v-114q39 71 100.5 104t144.5 33zM247 1098l192 322h290l-247 -322h-235z" />
    <glyph glyph-name="uni0156" unicode="&#x156;" horiz-adv-x="1215" 
d="M470 551h-69v-551h-274v1400h522q117 0 208.5 -29.5t154 -85t95 -136t32.5 -181.5q0 -83 -25.5 -152t-73.5 -121.5t-118 -87.5t-158 -48l386 -559h-322zM401 784h245q100 0 156.5 45t56.5 139q0 92 -57.5 136.5t-155.5 44.5h-245v-365zM731 -84l-84 -373h-201l42 373h243
z" />
    <glyph glyph-name="uni0157" unicode="&#x157;" horiz-adv-x="746" 
d="M602 997q67 0 111 -19l-29 -261q-29 11 -65.5 18t-72.5 7q-82 0 -130.5 -50t-48.5 -148v-544h-256v974h246v-114q39 71 100.5 104t144.5 33zM375 -81l-84 -373h-201l42 373h243z" />
    <glyph glyph-name="Rcaron" unicode="&#x158;" horiz-adv-x="1215" 
d="M470 551h-69v-551h-274v1400h522q117 0 208.5 -29.5t154 -85t95 -136t32.5 -181.5q0 -83 -25.5 -152t-73.5 -121.5t-118 -87.5t-158 -48l386 -559h-322zM401 784h245q100 0 156.5 45t56.5 139q0 92 -57.5 136.5t-155.5 44.5h-245v-365zM472 1819l116 -157l116 157h230
l-207 -319h-279l-206 319h230z" />
    <glyph glyph-name="rcaron" unicode="&#x159;" horiz-adv-x="746" 
d="M602 997q67 0 111 -19l-29 -261q-29 11 -65.5 18t-72.5 7q-82 0 -130.5 -50t-48.5 -148v-544h-256v974h246v-114q39 71 100.5 104t144.5 33zM294 1413l116 -157l116 157h230l-207 -319h-279l-206 319h230z" />
    <glyph glyph-name="Sacute" unicode="&#x15a;" horiz-adv-x="1213" 
d="M978 1052q-66 48 -151.5 81.5t-189.5 33.5q-50 0 -92 -11t-72 -31.5t-47 -50t-17 -67.5q0 -35 17.5 -61t50 -45.5t78.5 -34.5t103 -28l83 -19q91 -21 164.5 -55t125 -82.5t79 -113.5t27.5 -148q0 -111 -42.5 -193.5t-114.5 -138t-167.5 -83t-202.5 -27.5q-79 0 -154.5 13
t-143.5 37.5t-128 59.5t-108 80l158 206q32 -28 72.5 -54t88 -45.5t101.5 -31t114 -11.5q51 0 94 10.5t74.5 31.5t49.5 51t18 69q0 69 -60 106t-180 63l-91 20q-193 42 -293.5 143.5t-100.5 268.5q0 97 38 175.5t106 134.5t161 86.5t204 30.5q69 0 132.5 -9t123.5 -28.5
t118.5 -49.5t117.5 -72zM470 1504l192 322h290l-247 -322h-235z" />
    <glyph glyph-name="sacute" unicode="&#x15b;" horiz-adv-x="912" 
d="M747 708q-27 14 -60 27t-68 23t-71 16t-70 6q-66 0 -99 -23.5t-33 -61.5q0 -42 40 -61.5t112 -32.5l72 -13q143 -26 214.5 -98.5t71.5 -188.5q0 -74 -28.5 -134t-81 -102t-128.5 -64.5t-170 -22.5q-54 0 -108 6t-104.5 19t-96.5 33.5t-84 48.5l101 197q57 -39 127 -63
t161 -24q76 0 115.5 22.5t39.5 66.5q0 35 -34.5 57.5t-116.5 37.5l-67 12q-155 29 -225 104.5t-70 191.5q0 72 26.5 129.5t76 97.5t120 61t158.5 21q53 0 100 -5.5t91 -16.5t86.5 -28t87.5 -39zM312 1098l192 322h290l-247 -322h-235z" />
    <glyph glyph-name="Scircumflex" unicode="&#x15c;" horiz-adv-x="1213" 
d="M978 1052q-66 48 -151.5 81.5t-189.5 33.5q-50 0 -92 -11t-72 -31.5t-47 -50t-17 -67.5q0 -35 17.5 -61t50 -45.5t78.5 -34.5t103 -28l83 -19q91 -21 164.5 -55t125 -82.5t79 -113.5t27.5 -148q0 -111 -42.5 -193.5t-114.5 -138t-167.5 -83t-202.5 -27.5q-79 0 -154.5 13
t-143.5 37.5t-128 59.5t-108 80l158 206q32 -28 72.5 -54t88 -45.5t101.5 -31t114 -11.5q51 0 94 10.5t74.5 31.5t49.5 51t18 69q0 69 -60 106t-180 63l-91 20q-193 42 -293.5 143.5t-100.5 268.5q0 97 38 175.5t106 134.5t161 86.5t204 30.5q69 0 132.5 -9t123.5 -28.5
t118.5 -49.5t117.5 -72zM762 1502l-117 157l-116 -157h-230l207 319h279l207 -319h-230z" />
    <glyph glyph-name="scircumflex" unicode="&#x15d;" horiz-adv-x="912" 
d="M747 708q-27 14 -60 27t-68 23t-71 16t-70 6q-66 0 -99 -23.5t-33 -61.5q0 -42 40 -61.5t112 -32.5l72 -13q143 -26 214.5 -98.5t71.5 -188.5q0 -74 -28.5 -134t-81 -102t-128.5 -64.5t-170 -22.5q-54 0 -108 6t-104.5 19t-96.5 33.5t-84 48.5l101 197q57 -39 127 -63
t161 -24q76 0 115.5 22.5t39.5 66.5q0 35 -34.5 57.5t-116.5 37.5l-67 12q-155 29 -225 104.5t-70 191.5q0 72 26.5 129.5t76 97.5t120 61t158.5 21q53 0 100 -5.5t91 -16.5t86.5 -28t87.5 -39zM592 1096l-117 157l-116 -157h-230l207 319h279l207 -319h-230z" />
    <glyph glyph-name="Scedilla" unicode="&#x15e;" horiz-adv-x="1213" 
d="M978 1052q-66 48 -151.5 81.5t-189.5 33.5q-50 0 -92 -11t-72 -31.5t-47 -50t-17 -67.5q0 -35 17.5 -61t50 -45.5t78.5 -34.5t103 -28l83 -19q91 -21 164.5 -55t125 -82.5t79 -113.5t27.5 -148q0 -111 -42.5 -193.5t-114.5 -138t-167.5 -83t-202.5 -27.5q-79 0 -154.5 13
t-143.5 37.5t-128 59.5t-108 80l158 206q32 -28 72.5 -54t88 -45.5t101.5 -31t114 -11.5q51 0 94 10.5t74.5 31.5t49.5 51t18 69q0 69 -60 106t-180 63l-91 20q-193 42 -293.5 143.5t-100.5 268.5q0 97 38 175.5t106 134.5t161 86.5t204 30.5q69 0 132.5 -9t123.5 -28.5
t118.5 -49.5t117.5 -72zM657 -321h-250l100 328h243z" />
    <glyph glyph-name="scedilla" unicode="&#x15f;" horiz-adv-x="912" 
d="M747 708q-27 14 -60 27t-68 23t-71 16t-70 6q-66 0 -99 -23.5t-33 -61.5q0 -42 40 -61.5t112 -32.5l72 -13q143 -26 214.5 -98.5t71.5 -188.5q0 -74 -28.5 -134t-81 -102t-128.5 -64.5t-170 -22.5q-54 0 -108 6t-104.5 19t-96.5 33.5t-84 48.5l101 197q57 -39 127 -63
t161 -24q76 0 115.5 22.5t39.5 66.5q0 35 -34.5 57.5t-116.5 37.5l-67 12q-155 29 -225 104.5t-70 191.5q0 72 26.5 129.5t76 97.5t120 61t158.5 21q53 0 100 -5.5t91 -16.5t86.5 -28t87.5 -39zM492 -321h-232l102 339l223 -11z" />
    <glyph glyph-name="Scaron" unicode="&#x160;" horiz-adv-x="1213" 
d="M978 1052q-66 48 -151.5 81.5t-189.5 33.5q-50 0 -92 -11t-72 -31.5t-47 -50t-17 -67.5q0 -35 17.5 -61t50 -45.5t78.5 -34.5t103 -28l83 -19q91 -21 164.5 -55t125 -82.5t79 -113.5t27.5 -148q0 -111 -42.5 -193.5t-114.5 -138t-167.5 -83t-202.5 -27.5q-79 0 -154.5 13
t-143.5 37.5t-128 59.5t-108 80l158 206q32 -28 72.5 -54t88 -45.5t101.5 -31t114 -11.5q51 0 94 10.5t74.5 31.5t49.5 51t18 69q0 69 -60 106t-180 63l-91 20q-193 42 -293.5 143.5t-100.5 268.5q0 97 38 175.5t106 134.5t161 86.5t204 30.5q69 0 132.5 -9t123.5 -28.5
t118.5 -49.5t117.5 -72zM528 1819l116 -157l116 157h230l-207 -319h-279l-206 319h230z" />
    <glyph glyph-name="scaron" unicode="&#x161;" horiz-adv-x="912" 
d="M747 708q-27 14 -60 27t-68 23t-71 16t-70 6q-66 0 -99 -23.5t-33 -61.5q0 -42 40 -61.5t112 -32.5l72 -13q143 -26 214.5 -98.5t71.5 -188.5q0 -74 -28.5 -134t-81 -102t-128.5 -64.5t-170 -22.5q-54 0 -108 6t-104.5 19t-96.5 33.5t-84 48.5l101 197q57 -39 127 -63
t161 -24q76 0 115.5 22.5t39.5 66.5q0 35 -34.5 57.5t-116.5 37.5l-67 12q-155 29 -225 104.5t-70 191.5q0 72 26.5 129.5t76 97.5t120 61t158.5 21q53 0 100 -5.5t91 -16.5t86.5 -28t87.5 -39zM359 1413l116 -157l116 157h230l-207 -319h-279l-206 319h230z" />
    <glyph glyph-name="uni0162" unicode="&#x162;" horiz-adv-x="1091" 
d="M1065 1146h-383v-1146h-274v1146h-383v254h1040v-254zM576 -321h-250l100 328h243z" />
    <glyph glyph-name="uni0163" unicode="&#x163;" horiz-adv-x="841" 
d="M828 67q-56 -39 -126 -64t-166 -25q-165 0 -250 92t-85 269v404h-168v231h168v275h255v-275h309v-231h-309v-378q0 -40 10 -68t27.5 -45t41.5 -25t52 -8q42 0 82 16t73 37zM528 -321h-232l102 339l223 -11z" />
    <glyph glyph-name="Tcaron" unicode="&#x164;" horiz-adv-x="1091" 
d="M1065 1146h-383v-1146h-274v1146h-383v254h1040v-254zM434 1819l116 -157l116 157h230l-207 -319h-279l-206 319h230z" />
    <glyph glyph-name="tcaron" unicode="&#x165;" horiz-adv-x="841" 
d="M828 67q-56 -39 -126 -64t-166 -25q-165 0 -250 92t-85 269v404h-168v231h168v275h255v-275h309v-231h-309v-378q0 -40 10 -68t27.5 -45t41.5 -25t52 -8q42 0 82 16t73 37zM529 1044l2 443h241l-50 -443h-193z" />
    <glyph glyph-name="Tbar" unicode="&#x166;" horiz-adv-x="1091" 
d="M1065 1146h-383v-1146h-274v1146h-383v254h1040v-254zM914 591h-729v231h729v-231z" />
    <glyph glyph-name="tbar" unicode="&#x167;" horiz-adv-x="841" 
d="M828 67q-56 -39 -126 -64t-166 -25q-165 0 -250 92t-85 269v72h-151v197h151v135h-168v231h168v275h255v-275h309v-231h-309v-135h221v-197h-221v-46q0 -40 10 -68t27.5 -45t41.5 -25t52 -8q42 0 82 16t73 37z" />
    <glyph glyph-name="Utilde" unicode="&#x168;" horiz-adv-x="1320" 
d="M1205 513q0 -128 -38 -228t-109 -168t-171.5 -103.5t-226.5 -35.5t-227 35.5t-172 103.5t-109 168t-38 228v887h274v-873q0 -73 19.5 -126.5t55.5 -89t86 -52.5t111 -17t111 17t86 52.5t55.5 89t19.5 126.5v873h273v-887zM296 1669q51 74 111 105.5t134 31.5q47 0 81 -11
t60 -23.5t47.5 -23.5t44.5 -11q26 0 52.5 17t55.5 49l137 -139q-51 -74 -111.5 -105.5t-134.5 -31.5q-46 0 -79.5 11t-60 23.5t-48.5 23.5t-44 11q-26 0 -53 -17t-56 -49z" />
    <glyph glyph-name="utilde" unicode="&#x169;" horiz-adv-x="1048" 
d="M944 390q0 -107 -33 -184.5t-90 -128t-133.5 -75t-163.5 -24.5t-163.5 24.5t-133.5 75t-90 128.5t-33 185v583h255v-563q0 -51 12.5 -87t34 -59.5t52 -34.5t66.5 -11q73 0 119 45.5t46 146.5v563h255v-584zM159 1261q51 74 111 105.5t134 31.5q47 0 81 -11t60 -23.5
t47.5 -23.5t44.5 -11q26 0 52.5 17t55.5 49l137 -139q-51 -74 -111.5 -105.5t-134.5 -31.5q-46 0 -79.5 11t-60 23.5t-48.5 23.5t-44 11q-26 0 -53 -17t-56 -49z" />
    <glyph glyph-name="Umacron" unicode="&#x16a;" horiz-adv-x="1320" 
d="M1205 513q0 -128 -38 -228t-109 -168t-171.5 -103.5t-226.5 -35.5t-227 35.5t-172 103.5t-109 168t-38 228v887h274v-873q0 -73 19.5 -126.5t55.5 -89t86 -52.5t111 -17t111 17t86 52.5t55.5 89t19.5 126.5v873h273v-887zM351 1766h616v-212h-616v212z" />
    <glyph glyph-name="umacron" unicode="&#x16b;" horiz-adv-x="1048" 
d="M944 390q0 -107 -33 -184.5t-90 -128t-133.5 -75t-163.5 -24.5t-163.5 24.5t-133.5 75t-90 128.5t-33 185v583h255v-563q0 -51 12.5 -87t34 -59.5t52 -34.5t66.5 -11q73 0 119 45.5t46 146.5v563h255v-584zM213 1359h616v-212h-616v212z" />
    <glyph glyph-name="Ubreve" unicode="&#x16c;" horiz-adv-x="1320" 
d="M1205 513q0 -128 -38 -228t-109 -168t-171.5 -103.5t-226.5 -35.5t-227 35.5t-172 103.5t-109 168t-38 228v887h274v-873q0 -73 19.5 -126.5t55.5 -89t86 -52.5t111 -17t111 17t86 52.5t55.5 89t19.5 126.5v873h273v-887zM499 1856q20 -81 59.5 -119.5t99.5 -38.5
t99.5 38.5t59.5 119.5l191 -47q-32 -153 -121 -235t-229 -82t-228.5 82t-120.5 235z" />
    <glyph glyph-name="ubreve" unicode="&#x16d;" horiz-adv-x="1048" 
d="M944 390q0 -107 -33 -184.5t-90 -128t-133.5 -75t-163.5 -24.5t-163.5 24.5t-133.5 75t-90 128.5t-33 185v583h255v-563q0 -51 12.5 -87t34 -59.5t52 -34.5t66.5 -11q73 0 119 45.5t46 146.5v563h255v-584zM362 1448q20 -81 59.5 -119.5t99.5 -38.5t99.5 38.5t59.5 119.5
l191 -47q-32 -153 -121 -235t-229 -82t-228.5 82t-120.5 235z" />
    <glyph glyph-name="Uring" unicode="&#x16e;" horiz-adv-x="1320" 
d="M1205 513q0 -128 -38 -228t-109 -168t-171.5 -103.5t-226.5 -35.5t-227 35.5t-172 103.5t-109 168t-38 228v887h274v-873q0 -73 19.5 -126.5t55.5 -89t86 -52.5t111 -17t111 17t86 52.5t55.5 89t19.5 126.5v873h273v-887zM658 1483q-51 0 -95.5 19t-78 52t-53 77
t-19.5 95q0 50 19.5 94t53 77t78 52t95.5 19t96 -19t78.5 -52t53 -77t19.5 -94q0 -51 -19.5 -95t-53 -77t-78.5 -52t-96 -19zM658 1623q42 0 71.5 29t29.5 74q0 21 -8 40t-22 32.5t-32 21.5t-39 8q-20 0 -38.5 -8t-32 -21.5t-21.5 -32.5t-8 -40q0 -45 29.5 -74t70.5 -29z
" />
    <glyph glyph-name="uring" unicode="&#x16f;" horiz-adv-x="1048" 
d="M944 390q0 -107 -33 -184.5t-90 -128t-133.5 -75t-163.5 -24.5t-163.5 24.5t-133.5 75t-90 128.5t-33 185v583h255v-563q0 -51 12.5 -87t34 -59.5t52 -34.5t66.5 -11q73 0 119 45.5t46 146.5v563h255v-584zM521 1076q-51 0 -95.5 19t-78 52t-53 77t-19.5 95q0 50 19.5 94
t53 77t78 52t95.5 19t96 -19t78.5 -52t53 -77t19.5 -94q0 -51 -19.5 -95t-53 -77t-78.5 -52t-96 -19zM521 1216q42 0 71.5 29t29.5 74q0 21 -8 40t-22 32.5t-32 21.5t-39 8q-20 0 -38.5 -8t-32 -21.5t-21.5 -32.5t-8 -40q0 -45 29.5 -74t70.5 -29z" />
    <glyph glyph-name="Uhungarumlaut" unicode="&#x170;" horiz-adv-x="1320" 
d="M1205 513q0 -128 -38 -228t-109 -168t-171.5 -103.5t-226.5 -35.5t-227 35.5t-172 103.5t-109 168t-38 228v887h274v-873q0 -73 19.5 -126.5t55.5 -89t86 -52.5t111 -17t111 17t86 52.5t55.5 89t19.5 126.5v873h273v-887zM349 1504l188 322h258l-211 -322h-235zM707 1504
l211 322h262l-231 -322h-242z" />
    <glyph glyph-name="uhungarumlaut" unicode="&#x171;" horiz-adv-x="1048" 
d="M944 390q0 -107 -33 -184.5t-90 -128t-133.5 -75t-163.5 -24.5t-163.5 24.5t-133.5 75t-90 128.5t-33 185v583h255v-563q0 -51 12.5 -87t34 -59.5t52 -34.5t66.5 -11q73 0 119 45.5t46 146.5v563h255v-584zM215 1097l188 322h258l-211 -322h-235zM573 1097l211 322h262
l-231 -322h-242z" />
    <glyph glyph-name="Uogonek" unicode="&#x172;" horiz-adv-x="1320" 
d="M1205 513q0 -128 -38 -228t-109 -168t-171.5 -103.5t-226.5 -35.5t-227 35.5t-172 103.5t-109 168t-38 228v887h274v-873q0 -73 19.5 -126.5t55.5 -89t86 -52.5t111 -17t111 17t86 52.5t55.5 89t19.5 126.5v873h273v-887zM1085 -298q-50 -50 -113.5 -77.5t-141.5 -27.5
q-58 0 -107 14.5t-84.5 41.5t-55.5 64.5t-20 83.5q0 52 22 93.5t60.5 75.5t91 61.5t114.5 51.5l98 -42q-47 -27 -78 -51t-49 -46.5t-25 -42.5t-7 -39q0 -29 19.5 -46.5t53.5 -17.5q51 0 94 41z" />
    <glyph glyph-name="uogonek" unicode="&#x173;" horiz-adv-x="1048" 
d="M944 390q0 -107 -33 -184.5t-90 -128t-133.5 -75t-163.5 -24.5t-163.5 24.5t-133.5 75t-90 128.5t-33 185v583h255v-563q0 -51 12.5 -87t34 -59.5t52 -34.5t66.5 -11q73 0 119 45.5t46 146.5v563h255v-584zM907 -298q-50 -50 -113.5 -77.5t-141.5 -27.5q-58 0 -107 14.5
t-84.5 41.5t-55.5 64.5t-20 83.5q0 52 22 93.5t60.5 75.5t91 61.5t114.5 51.5l98 -42q-47 -27 -78 -51t-49 -46.5t-25 -42.5t-7 -39q0 -29 19.5 -46.5t53.5 -17.5q51 0 94 41z" />
    <glyph glyph-name="Wcircumflex" unicode="&#x174;" horiz-adv-x="1969" 
d="M1945 1400l-375 -1400h-327l-259 972l-260 -972h-327l-375 1400h283l261 -1060l273 1060h293l272 -1057l262 1057h279zM1098 1502l-117 157l-116 -157h-230l207 319h279l207 -319h-230z" />
    <glyph glyph-name="wcircumflex" unicode="&#x175;" horiz-adv-x="1592" 
d="M1571 974l-303 -974h-283l-190 643l-188 -643h-282l-304 974h269l186 -669l195 669h251l198 -670l186 670h265zM910 1094l-117 157l-116 -157h-230l207 319h279l207 -319h-230z" />
    <glyph glyph-name="Ycircumflex" unicode="&#x176;" horiz-adv-x="1238" 
d="M760 544v-544h-274v541l-482 859h314l306 -572l305 572h305zM741 1502l-117 157l-116 -157h-230l207 319h279l207 -319h-230z" />
    <glyph glyph-name="ycircumflex" unicode="&#x177;" horiz-adv-x="1026" 
d="M1019 974l-646 -1358h-275l288 577l-376 781h285l225 -508l224 508h275zM635 1096l-117 157l-116 -157h-230l207 319h279l207 -319h-230z" />
    <glyph glyph-name="Ydieresis" unicode="&#x178;" horiz-adv-x="1238" 
d="M760 544v-544h-274v541l-482 859h314l306 -572l305 572h305zM412 1817q33 0 61.5 -12t49.5 -33.5t33 -50t12 -61.5t-12 -61t-33 -49t-49.5 -33t-61.5 -12t-61.5 12t-49 33t-32.5 49.5t-12 61.5t12 61.5t32.5 49.5t49 33t61.5 12zM832 1817q33 0 61.5 -12t49.5 -33.5
t33 -50t12 -61.5t-12 -61t-33 -49t-49.5 -33t-61.5 -12t-61.5 12t-49 33t-32.5 49.5t-12 61.5t12 61.5t32.5 49.5t49 33t61.5 12z" />
    <glyph glyph-name="Zacute" unicode="&#x179;" horiz-adv-x="1151" 
d="M1074 1187l-650 -938h650v-249h-998v213l650 938h-646v249h994v-213zM401 1504l192 322h290l-247 -322h-235z" />
    <glyph glyph-name="zacute" unicode="&#x17a;" horiz-adv-x="942" 
d="M855 778l-434 -548h443v-230h-786v190l443 553h-427v231h761v-196zM311 1098l192 322h290l-247 -322h-235z" />
    <glyph glyph-name="Zdotaccent" unicode="&#x17b;" horiz-adv-x="1151" 
d="M1074 1187l-650 -938h650v-249h-998v213l650 938h-646v249h994v-213zM575 1828q34 0 64 -12.5t52 -34.5t34.5 -52t12.5 -64q0 -35 -12.5 -64.5t-34.5 -51t-52 -34t-64 -12.5q-35 0 -64.5 12.5t-51 34.5t-34 51.5t-12.5 64.5q0 34 12.5 63.5t34 51.5t51 34.5t64.5 12.5z
" />
    <glyph glyph-name="zdotaccent" unicode="&#x17c;" horiz-adv-x="942" 
d="M855 778l-434 -548h443v-230h-786v190l443 553h-427v231h761v-196zM473 1446q33 0 62 -12t50 -33.5t33 -50.5t12 -62t-12 -61.5t-33 -49.5t-50 -33t-62 -12t-62 12t-50 33t-33 50t-12 62t12 61.5t33 50t50 33.5t62 12z" />
    <glyph glyph-name="Zcaron" unicode="&#x17d;" horiz-adv-x="1151" 
d="M1074 1187l-650 -938h650v-249h-998v213l650 938h-646v249h994v-213zM459 1819l116 -157l116 157h230l-207 -319h-279l-206 319h230z" />
    <glyph glyph-name="zcaron" unicode="&#x17e;" horiz-adv-x="942" 
d="M855 778l-434 -548h443v-230h-786v190l443 553h-427v231h761v-196zM358 1413l116 -157l116 157h230l-207 -319h-279l-206 319h230z" />
    <glyph glyph-name="longs" unicode="&#x17f;" horiz-adv-x="600" 
d="M434 1462q94 0 161 -23.5t116 -58.5l-100 -199q-32 17 -66 28.5t-76 11.5q-110 0 -110 -133v-1088h-254v1091q0 88 22.5 157.5t65 116.5t103.5 72t138 25z" />
    <glyph glyph-name="uni018F" unicode="&#x18f;" horiz-adv-x="1385" 
d="M666 1422q142 0 260.5 -51t204 -145.5t132.5 -228t47 -297.5q0 -165 -46 -298.5t-128.5 -227.5t-197 -145t-251.5 -51q-127 0 -238.5 45.5t-194.5 133t-131 216t-48 294.5q0 36 1.5 70.5t4.5 72.5h940q-12 83 -43 148.5t-76 110.5t-103 68.5t-125 23.5q-103 0 -178 -44
t-132 -123l-202 166q86 124 211 193t293 69zM687 235q61 0 116 22.5t99 66.5t75 109t44 150h-661q7 -84 34 -149t70 -109t99.5 -67t123.5 -23z" />
    <glyph glyph-name="florin" unicode="&#x192;" horiz-adv-x="1248" 
d="M895 1184q-51 0 -75 -33t-29 -98l-19 -221h220v-214h-239l-25 -288q-15 -172 -94 -262t-227 -90q-87 0 -149.5 21.5t-108.5 52.5l97 197q27 -14 58 -23.5t67 -9.5q51 0 74.5 33t29.5 98l23 271h-207v214h226l21 242q14 166 93 257t228 91q87 0 149.5 -21.5t108.5 -52.5
l-98 -197q-27 14 -57.5 23.5t-66.5 9.5z" />
    <glyph glyph-name="uni01B5" unicode="&#x1b5;" horiz-adv-x="1151" 
d="M1074 1187l-261 -367h171v-239h-329l-231 -332h650v-249h-998v213l272 377h-177v238h331l224 323h-646v249h994v-213z" />
    <glyph glyph-name="uni01B6" unicode="&#x1b6;" horiz-adv-x="942" 
d="M864 230v-230h-786v190l189 220h-126v172h252l130 161h-429v231h761v-196l-171 -203h120v-172h-248l-137 -173h445z" />
    <glyph glyph-name="uni01CD" unicode="&#x1cd;" horiz-adv-x="1320" 
d="M915 317h-515l-102 -317h-284l484 1400h324l484 -1400h-289zM834 566l-177 548l-176 -548h353zM543 1819l116 -157l116 157h230l-207 -319h-279l-206 319h230z" />
    <glyph glyph-name="uni01CE" unicode="&#x1ce;" horiz-adv-x="1093" 
d="M982 974v-974h-248v116q-42 -62 -105.5 -100t-155.5 -38q-90 0 -165.5 38t-130.5 105.5t-85.5 161t-30.5 205.5q0 111 30.5 204.5t85.5 161t130.5 105.5t165.5 38q92 0 155.5 -38.5t105.5 -100.5v116h248zM531 219q46 0 84.5 18.5t65.5 53t42 84.5t15 112t-15 112t-42 85
t-65.5 53.5t-84.5 18.5q-48 0 -86.5 -19t-65.5 -54t-41.5 -85t-14.5 -111q0 -62 14.5 -111.5t41.5 -84t65.5 -53.5t86.5 -19zM437 1413l116 -157l116 157h230l-207 -319h-279l-206 319h230z" />
    <glyph glyph-name="uni01CF" unicode="&#x1cf;" horiz-adv-x="528" 
d="M401 0h-274v1400h274v-1400zM147 1819l116 -157l116 157h230l-207 -319h-279l-206 319h230z" />
    <glyph glyph-name="uni01D0" unicode="&#x1d0;" horiz-adv-x="477" 
d="M366 0h-255v974h255v-974zM122 1413l116 -157l116 157h230l-207 -319h-279l-206 319h230z" />
    <glyph glyph-name="uni01D1" unicode="&#x1d1;" horiz-adv-x="1448" 
d="M724 1423q145 0 264.5 -52t205 -146.5t132.5 -228t47 -296.5t-47 -296.5t-132.5 -228t-205 -146.5t-264.5 -52t-264.5 52t-205 146.5t-132.5 228t-47 296.5t47 296.5t132.5 228t205 146.5t264.5 52zM724 1158q-81 0 -148 -31t-115 -90t-75 -144t-27 -193t27 -193t75 -144
t115 -90t148 -31t148 31t115 90t75 144t27 193t-27 193t-75 144t-115 90t-148 31zM607 1819l116 -157l116 157h230l-207 -319h-279l-206 319h230z" />
    <glyph glyph-name="uni01D2" unicode="&#x1d2;" horiz-adv-x="1067" 
d="M533 996q104 0 191 -37t149.5 -104t97.5 -160.5t35 -207.5t-35 -207.5t-97.5 -160.5t-149.5 -104t-191 -37t-190.5 37t-149 104t-97.5 160.5t-35 207.5t35 207.5t97.5 160.5t149 104t190.5 37zM533 755q-47 0 -85.5 -18.5t-67 -53t-44 -84t-15.5 -112.5t15.5 -113
t44 -84.5t67 -52.5t85.5 -18q46 0 85.5 18t67.5 52.5t44 84.5t16 113t-16 112.5t-44 84t-67.5 53t-85.5 18.5zM417 1411l116 -157l116 157h230l-207 -319h-279l-206 319h230z" />
    <glyph glyph-name="uni01D3" unicode="&#x1d3;" horiz-adv-x="1320" 
d="M1205 513q0 -128 -38 -228t-109 -168t-171.5 -103.5t-226.5 -35.5t-227 35.5t-172 103.5t-109 168t-38 228v887h274v-873q0 -73 19.5 -126.5t55.5 -89t86 -52.5t111 -17t111 17t86 52.5t55.5 89t19.5 126.5v873h273v-887zM543 1819l116 -157l116 157h230l-207 -319h-279
l-206 319h230z" />
    <glyph glyph-name="uni01D4" unicode="&#x1d4;" horiz-adv-x="1048" 
d="M944 390q0 -107 -33 -184.5t-90 -128t-133.5 -75t-163.5 -24.5t-163.5 24.5t-133.5 75t-90 128.5t-33 185v583h255v-563q0 -51 12.5 -87t34 -59.5t52 -34.5t66.5 -11q73 0 119 45.5t46 146.5v563h255v-584zM406 1411l116 -157l116 157h230l-207 -319h-279l-206 319h230z
" />
    <glyph glyph-name="uni01D5" unicode="&#x1d5;" horiz-adv-x="1320" 
d="M1205 513q0 -128 -38 -228t-109 -168t-171.5 -103.5t-226.5 -35.5t-227 35.5t-172 103.5t-109 168t-38 228v887h274v-873q0 -73 19.5 -126.5t55.5 -89t86 -52.5t111 -17t111 17t86 52.5t55.5 89t19.5 126.5v873h273v-887zM448 1817q33 0 61.5 -12t49.5 -33.5t33 -50
t12 -61.5t-12 -61t-33 -49t-49.5 -33t-61.5 -12t-61.5 12t-49 33t-32.5 49.5t-12 61.5t12 61.5t32.5 49.5t49 33t61.5 12zM868 1817q33 0 61.5 -12t49.5 -33.5t33 -50t12 -61.5t-12 -61t-33 -49t-49.5 -33t-61.5 -12t-61.5 12t-49 33t-32.5 49.5t-12 61.5t12 61.5t32.5 49.5
t49 33t61.5 12zM351 2113h616v-212h-616v212z" />
    <glyph glyph-name="uni01D6" unicode="&#x1d6;" horiz-adv-x="1048" 
d="M944 390q0 -107 -33 -184.5t-90 -128t-133.5 -75t-163.5 -24.5t-163.5 24.5t-133.5 75t-90 128.5t-33 185v583h255v-563q0 -51 12.5 -87t34 -59.5t52 -34.5t66.5 -11q73 0 119 45.5t46 146.5v563h255v-584zM309 1410q33 0 61.5 -12t49.5 -33.5t33 -50t12 -61.5t-12 -61
t-33 -49t-49.5 -33t-61.5 -12t-61.5 12t-49 33t-32.5 49.5t-12 61.5t12 61.5t32.5 49.5t49 33t61.5 12zM729 1410q33 0 61.5 -12t49.5 -33.5t33 -50t12 -61.5t-12 -61t-33 -49t-49.5 -33t-61.5 -12t-61.5 12t-49 33t-32.5 49.5t-12 61.5t12 61.5t32.5 49.5t49 33t61.5 12z
M212 1716h616v-212h-616v212z" />
    <glyph glyph-name="uni01D7" unicode="&#x1d7;" horiz-adv-x="1320" 
d="M1205 513q0 -128 -38 -228t-109 -168t-171.5 -103.5t-226.5 -35.5t-227 35.5t-172 103.5t-109 168t-38 228v887h274v-873q0 -73 19.5 -126.5t55.5 -89t86 -52.5t111 -17t111 17t86 52.5t55.5 89t19.5 126.5v873h273v-887zM448 1817q33 0 61.5 -12t49.5 -33.5t33 -50
t12 -61.5t-12 -61t-33 -49t-49.5 -33t-61.5 -12t-61.5 12t-49 33t-32.5 49.5t-12 61.5t12 61.5t32.5 49.5t49 33t61.5 12zM868 1817q33 0 61.5 -12t49.5 -33.5t33 -50t12 -61.5t-12 -61t-33 -49t-49.5 -33t-61.5 -12t-61.5 12t-49 33t-32.5 49.5t-12 61.5t12 61.5t32.5 49.5
t49 33t61.5 12zM485 1892l192 322h290l-247 -322h-235z" />
    <glyph glyph-name="uni01D8" unicode="&#x1d8;" horiz-adv-x="1048" 
d="M944 390q0 -107 -33 -184.5t-90 -128t-133.5 -75t-163.5 -24.5t-163.5 24.5t-133.5 75t-90 128.5t-33 185v583h255v-563q0 -51 12.5 -87t34 -59.5t52 -34.5t66.5 -11q73 0 119 45.5t46 146.5v563h255v-584zM309 1410q33 0 61.5 -12t49.5 -33.5t33 -50t12 -61.5t-12 -61
t-33 -49t-49.5 -33t-61.5 -12t-61.5 12t-49 33t-32.5 49.5t-12 61.5t12 61.5t32.5 49.5t49 33t61.5 12zM729 1410q33 0 61.5 -12t49.5 -33.5t33 -50t12 -61.5t-12 -61t-33 -49t-49.5 -33t-61.5 -12t-61.5 12t-49 33t-32.5 49.5t-12 61.5t12 61.5t32.5 49.5t49 33t61.5 12z
M346 1495l192 322h290l-247 -322h-235z" />
    <glyph glyph-name="uni01D9" unicode="&#x1d9;" horiz-adv-x="1320" 
d="M1205 513q0 -128 -38 -228t-109 -168t-171.5 -103.5t-226.5 -35.5t-227 35.5t-172 103.5t-109 168t-38 228v887h274v-873q0 -73 19.5 -126.5t55.5 -89t86 -52.5t111 -17t111 17t86 52.5t55.5 89t19.5 126.5v873h273v-887zM448 1817q33 0 61.5 -12t49.5 -33.5t33 -50
t12 -61.5t-12 -61t-33 -49t-49.5 -33t-61.5 -12t-61.5 12t-49 33t-32.5 49.5t-12 61.5t12 61.5t32.5 49.5t49 33t61.5 12zM868 1817q33 0 61.5 -12t49.5 -33.5t33 -50t12 -61.5t-12 -61t-33 -49t-49.5 -33t-61.5 -12t-61.5 12t-49 33t-32.5 49.5t-12 61.5t12 61.5t32.5 49.5
t49 33t61.5 12zM543 2207l116 -157l116 157h230l-207 -319h-279l-206 319h230z" />
    <glyph glyph-name="uni01DA" unicode="&#x1da;" horiz-adv-x="1048" 
d="M944 390q0 -107 -33 -184.5t-90 -128t-133.5 -75t-163.5 -24.5t-163.5 24.5t-133.5 75t-90 128.5t-33 185v583h255v-563q0 -51 12.5 -87t34 -59.5t52 -34.5t66.5 -11q73 0 119 45.5t46 146.5v563h255v-584zM309 1410q33 0 61.5 -12t49.5 -33.5t33 -50t12 -61.5t-12 -61
t-33 -49t-49.5 -33t-61.5 -12t-61.5 12t-49 33t-32.5 49.5t-12 61.5t12 61.5t32.5 49.5t49 33t61.5 12zM729 1410q33 0 61.5 -12t49.5 -33.5t33 -50t12 -61.5t-12 -61t-33 -49t-49.5 -33t-61.5 -12t-61.5 12t-49 33t-32.5 49.5t-12 61.5t12 61.5t32.5 49.5t49 33t61.5 12z
M404 1810l116 -157l116 157h230l-207 -319h-279l-206 319h230z" />
    <glyph glyph-name="uni01DB" unicode="&#x1db;" horiz-adv-x="1320" 
d="M1205 513q0 -128 -38 -228t-109 -168t-171.5 -103.5t-226.5 -35.5t-227 35.5t-172 103.5t-109 168t-38 228v887h274v-873q0 -73 19.5 -126.5t55.5 -89t86 -52.5t111 -17t111 17t86 52.5t55.5 89t19.5 126.5v873h273v-887zM448 1817q33 0 61.5 -12t49.5 -33.5t33 -50
t12 -61.5t-12 -61t-33 -49t-49.5 -33t-61.5 -12t-61.5 12t-49 33t-32.5 49.5t-12 61.5t12 61.5t32.5 49.5t49 33t61.5 12zM868 1817q33 0 61.5 -12t49.5 -33.5t33 -50t12 -61.5t-12 -61t-33 -49t-49.5 -33t-61.5 -12t-61.5 12t-49 33t-32.5 49.5t-12 61.5t12 61.5t32.5 49.5
t49 33t61.5 12zM345 2214h290l193 -322h-236z" />
    <glyph glyph-name="uni01DC" unicode="&#x1dc;" horiz-adv-x="1048" 
d="M944 390q0 -107 -33 -184.5t-90 -128t-133.5 -75t-163.5 -24.5t-163.5 24.5t-133.5 75t-90 128.5t-33 185v583h255v-563q0 -51 12.5 -87t34 -59.5t52 -34.5t66.5 -11q73 0 119 45.5t46 146.5v563h255v-584zM309 1410q33 0 61.5 -12t49.5 -33.5t33 -50t12 -61.5t-12 -61
t-33 -49t-49.5 -33t-61.5 -12t-61.5 12t-49 33t-32.5 49.5t-12 61.5t12 61.5t32.5 49.5t49 33t61.5 12zM729 1410q33 0 61.5 -12t49.5 -33.5t33 -50t12 -61.5t-12 -61t-33 -49t-49.5 -33t-61.5 -12t-61.5 12t-49 33t-32.5 49.5t-12 61.5t12 61.5t32.5 49.5t49 33t61.5 12z
M206 1817h290l193 -322h-236z" />
    <glyph glyph-name="uni01E2" unicode="&#x1e2;" horiz-adv-x="1997" 
d="M1895 249v-249h-928v278h-479l-162 -278h-315l839 1400h1043v-249h-652v-320h618v-249h-618v-333h654zM967 529v573l-333 -573h333zM1028 1766h616v-212h-616v212z" />
    <glyph glyph-name="uni01E3" unicode="&#x1e3;" horiz-adv-x="1574" 
d="M1512 488q0 -21 -1.5 -44t-3.5 -40h-617q17 -106 75 -155t146 -49q60 0 116 22.5t101 64.5l147 -166q-75 -73 -172.5 -108t-212.5 -35q-112 0 -201 38t-150 113q-25 -30 -56 -57t-71 -48t-90 -33.5t-113 -12.5q-81 0 -145.5 21.5t-109.5 61.5t-69 95.5t-24 124.5
q0 140 99 217.5t284 77.5h186v7q0 94 -47.5 139.5t-140.5 45.5q-65 0 -127 -23t-107 -54l-93 197q64 49 159.5 78t202.5 29q109 0 183.5 -35.5t116.5 -95.5q55 66 133.5 99t175.5 33q96 0 175 -36t134.5 -102t86 -160t30.5 -210zM1258 575q-14 97 -60.5 147.5t-120.5 50.5
q-75 0 -123.5 -47.5t-63.5 -150.5h368zM456 183q62 0 113 30.5t85 82.5q-15 51 -21 110h-152q-84 0 -122 -31.5t-38 -80.5t34 -80t101 -31zM476 1361h616v-212h-616v212z" />
    <glyph glyph-name="Gcaron" unicode="&#x1e6;" horiz-adv-x="1389" 
d="M727 1423q159 0 281 -61.5t200 -173.5l-205 -168q-50 68 -120.5 105t-163.5 37q-80 0 -146.5 -31t-114.5 -90t-74.5 -145t-26.5 -196q0 -115 28.5 -202t77.5 -145.5t115 -88.5t141 -30q144 0 228.5 79t106.5 238h-314v226h584q2 -23 3.5 -49t1.5 -53q0 -165 -46.5 -294.5
t-128 -219t-192 -136.5t-237.5 -47q-137 0 -255.5 48.5t-206.5 141t-138 227t-50 305.5q0 165 47.5 298.5t133.5 228t206 145.5t265 51zM592 1819l116 -157l116 157h230l-207 -319h-279l-206 319h230z" />
    <glyph glyph-name="gcaron" unicode="&#x1e7;" horiz-adv-x="1084" 
d="M973 974v-900q0 -113 -34 -201t-96 -148t-149.5 -91.5t-194.5 -31.5q-112 0 -214 29.5t-175 86.5l99 204q59 -44 126.5 -67.5t147.5 -23.5q50 0 93.5 14t76 43t51 72t18.5 102v91q-43 -60 -106.5 -96t-154.5 -36q-84 0 -157 35t-127 99t-85 154t-31 200t31 200t85 154
t127 99t157 35q92 0 157 -37.5t108 -100.5v115h247zM527 259q46 0 83.5 17.5t64 50t41 79t14.5 103.5t-14.5 103t-41 78.5t-64 50t-83.5 17.5t-83.5 -18t-64 -50.5t-41 -78.5t-14.5 -102t14.5 -102t41 -79t64 -51t83.5 -18zM420 1413l116 -157l116 157h230l-207 -319h-279
l-206 319h230z" />
    <glyph glyph-name="Aringacute" unicode="&#x1fa;" horiz-adv-x="1320" 
d="M915 317h-515l-102 -317h-284l484 1400h324l484 -1400h-289zM834 566l-177 548l-176 -548h353zM656 1268q-51 0 -95.5 19t-78 52t-53 77t-19.5 95q0 50 19.5 94t53 77t78 52t95.5 19t96 -19t78.5 -52t53 -77t19.5 -94q0 -51 -19.5 -95t-53 -77t-78.5 -52t-96 -19z
M656 1408q42 0 71.5 29t29.5 74q0 21 -8 40t-22 32.5t-32 21.5t-39 8q-20 0 -38.5 -8t-32 -21.5t-21.5 -32.5t-8 -40q0 -45 29.5 -74t70.5 -29zM500 1807l192 322h290l-247 -322h-235z" />
    <glyph glyph-name="aringacute" unicode="&#x1fb;" horiz-adv-x="1093" 
d="M982 974v-974h-248v116q-42 -62 -105.5 -100t-155.5 -38q-90 0 -165.5 38t-130.5 105.5t-85.5 161t-30.5 205.5q0 111 30.5 204.5t85.5 161t130.5 105.5t165.5 38q92 0 155.5 -38.5t105.5 -100.5v116h248zM531 219q46 0 84.5 18.5t65.5 53t42 84.5t15 112t-15 112t-42 85
t-65.5 53.5t-84.5 18.5q-48 0 -86.5 -19t-65.5 -54t-41.5 -85t-14.5 -111q0 -62 14.5 -111.5t41.5 -84t65.5 -53.5t86.5 -19zM552 1042q-51 0 -95.5 19t-78 52t-53 77t-19.5 95q0 50 19.5 94t53 77t78 52t95.5 19t96 -19t78.5 -52t53 -77t19.5 -94q0 -51 -19.5 -95t-53 -77
t-78.5 -52t-96 -19zM552 1182q42 0 71.5 29t29.5 74q0 21 -8 40t-22 32.5t-32 21.5t-39 8q-20 0 -38.5 -8t-32 -21.5t-21.5 -32.5t-8 -40q0 -45 29.5 -74t70.5 -29zM406 1568l192 322h290l-247 -322h-235z" />
    <glyph glyph-name="AEacute" unicode="&#x1fc;" horiz-adv-x="1997" 
d="M1895 249v-249h-928v278h-479l-162 -278h-315l839 1400h1043v-249h-652v-320h618v-249h-618v-333h654zM967 529v573l-333 -573h333zM1162 1504l192 322h290l-247 -322h-235z" />
    <glyph glyph-name="aeacute" unicode="&#x1fd;" horiz-adv-x="1574" 
d="M1512 488q0 -21 -1.5 -44t-3.5 -40h-617q17 -106 75 -155t146 -49q60 0 116 22.5t101 64.5l147 -166q-75 -73 -172.5 -108t-212.5 -35q-112 0 -201 38t-150 113q-25 -30 -56 -57t-71 -48t-90 -33.5t-113 -12.5q-81 0 -145.5 21.5t-109.5 61.5t-69 95.5t-24 124.5
q0 140 99 217.5t284 77.5h186v7q0 94 -47.5 139.5t-140.5 45.5q-65 0 -127 -23t-107 -54l-93 197q64 49 159.5 78t202.5 29q109 0 183.5 -35.5t116.5 -95.5q55 66 133.5 99t175.5 33q96 0 175 -36t134.5 -102t86 -160t30.5 -210zM1258 575q-14 97 -60.5 147.5t-120.5 50.5
q-75 0 -123.5 -47.5t-63.5 -150.5h368zM456 183q62 0 113 30.5t85 82.5q-15 51 -21 110h-152q-84 0 -122 -31.5t-38 -80.5t34 -80t101 -31zM622 1098l192 322h290l-247 -322h-235z" />
    <glyph glyph-name="Oslashacute" unicode="&#x1fe;" horiz-adv-x="1448" 
d="M1241 1165q63 -91 97.5 -208t34.5 -257q0 -163 -47 -296.5t-132.5 -228t-205 -146.5t-264.5 -52q-105 0 -196 27t-166 78l-94 -116l-160 134l104 128q-66 92 -101.5 210.5t-35.5 261.5q0 163 47 296.5t132.5 228t205 146.5t264.5 52q106 0 198.5 -27.5t169.5 -81.5
l94 117l161 -135zM359 700q0 -136 43 -237l516 637q-84 58 -194 58q-81 0 -148 -31t-115 -90t-75 -144t-27 -193zM724 242q81 0 148 31t115 90t75 144t27 193q0 131 -40 229l-513 -633q40 -26 87 -40t101 -14zM553 1504l192 322h290l-247 -322h-235z" />
    <glyph glyph-name="oslashacute" unicode="&#x1ff;" horiz-adv-x="1067" 
d="M914 805q44 -63 68 -143.5t24 -174.5q0 -114 -35 -207.5t-97.5 -160.5t-149.5 -104t-191 -37q-67 0 -126.5 15.5t-110.5 44.5l-75 -91l-150 120l83 101q-45 63 -69 143.5t-24 175.5q0 114 35 207.5t97.5 160.5t149 104t190.5 37q134 0 239 -61l75 91l149 -120zM533 758
q-47 0 -86 -18.5t-67.5 -53.5t-44.5 -85.5t-16 -113.5q0 -29 3.5 -55.5t9.5 -49.5l286 358q-39 18 -85 18zM533 216q47 0 86.5 18.5t68 53.5t44.5 85.5t16 113.5q0 58 -13 103l-284 -357q39 -17 82 -17zM370 1098l192 322h290l-247 -322h-235z" />
    <glyph glyph-name="uni0218" unicode="&#x218;" horiz-adv-x="1213" 
d="M978 1052q-66 48 -151.5 81.5t-189.5 33.5q-50 0 -92 -11t-72 -31.5t-47 -50t-17 -67.5q0 -35 17.5 -61t50 -45.5t78.5 -34.5t103 -28l83 -19q91 -21 164.5 -55t125 -82.5t79 -113.5t27.5 -148q0 -111 -42.5 -193.5t-114.5 -138t-167.5 -83t-202.5 -27.5q-79 0 -154.5 13
t-143.5 37.5t-128 59.5t-108 80l158 206q32 -28 72.5 -54t88 -45.5t101.5 -31t114 -11.5q51 0 94 10.5t74.5 31.5t49.5 51t18 69q0 69 -60 106t-180 63l-91 20q-193 42 -293.5 143.5t-100.5 268.5q0 97 38 175.5t106 134.5t161 86.5t204 30.5q69 0 132.5 -9t123.5 -28.5
t118.5 -49.5t117.5 -72zM761 -84l-84 -373h-201l42 373h243z" />
    <glyph glyph-name="uni0219" unicode="&#x219;" horiz-adv-x="912" 
d="M747 708q-27 14 -60 27t-68 23t-71 16t-70 6q-66 0 -99 -23.5t-33 -61.5q0 -42 40 -61.5t112 -32.5l72 -13q143 -26 214.5 -98.5t71.5 -188.5q0 -74 -28.5 -134t-81 -102t-128.5 -64.5t-170 -22.5q-54 0 -108 6t-104.5 19t-96.5 33.5t-84 48.5l101 197q57 -39 127 -63
t161 -24q76 0 115.5 22.5t39.5 66.5q0 35 -34.5 57.5t-116.5 37.5l-67 12q-155 29 -225 104.5t-70 191.5q0 72 26.5 129.5t76 97.5t120 61t158.5 21q53 0 100 -5.5t91 -16.5t86.5 -28t87.5 -39zM596 -81l-84 -373h-201l42 373h243z" />
    <glyph glyph-name="uni021A" unicode="&#x21a;" horiz-adv-x="1091" 
d="M1065 1146h-383v-1146h-274v1146h-383v254h1040v-254zM680 -84l-84 -373h-201l42 373h243z" />
    <glyph glyph-name="uni021B" unicode="&#x21b;" horiz-adv-x="841" 
d="M828 67q-56 -39 -126 -64t-166 -25q-165 0 -250 92t-85 269v404h-168v231h168v275h255v-275h309v-231h-309v-378q0 -40 10 -68t27.5 -45t41.5 -25t52 -8q42 0 82 16t73 37zM632 -81l-84 -373h-201l42 373h243z" />
    <glyph glyph-name="uni0232" unicode="&#x232;" horiz-adv-x="1238" 
d="M760 544v-544h-274v541l-482 859h314l306 -572l305 572h305zM315 1766h616v-212h-616v212z" />
    <glyph glyph-name="uni0233" unicode="&#x233;" horiz-adv-x="1026" 
d="M1019 974l-646 -1358h-275l288 577l-376 781h285l225 -508l224 508h275zM209 1361h616v-212h-616v212z" />
    <glyph glyph-name="uni0237" unicode="&#x237;" horiz-adv-x="478" 
d="M367 -91q0 -74 -19.5 -132t-55.5 -97.5t-86 -60t-111 -20.5q-38 0 -78.5 8t-67.5 19l35 226q14 -5 29 -8.5t33 -3.5q29 0 47.5 20t18.5 67v1047h255v-1065z" />
    <glyph glyph-name="uni0259" unicode="&#x259;" horiz-adv-x="1007" 
d="M62 485q0 21 1.5 44t3.5 40h617q-17 106 -75 155.5t-146 49.5q-60 0 -116 -23t-101 -65l-148 166q75 73 171.5 108t210.5 35q105 0 191 -35.5t147 -101t94.5 -159t33.5 -210.5t-32.5 -211.5t-92 -161t-142.5 -103t-184 -36.5q-97 0 -176.5 36t-136.5 102t-88.5 160
t-31.5 210zM317 395q14 -96 60 -145t120 -49q78 0 125 49.5t61 144.5h-366z" />
    <glyph glyph-name="uni02BB" unicode="&#x2bb;" horiz-adv-x="504" 
d="M82 857l133 583h212l-66 -583h-279z" />
    <glyph glyph-name="uni02BC" unicode="&#x2bc;" horiz-adv-x="504" 
d="M422 1440l-133 -583h-212l66 583h279z" />
    <glyph glyph-name="uni02BE" unicode="&#x2be;" horiz-adv-x="516" 
d="M89 940q31 0 58 12.5t47.5 33.5t32.5 50t12 62q0 34 -12 63t-32.5 50.5t-47.5 33.5t-58 12v198q75 0 140 -27.5t114 -75.5t77 -113t28 -141t-28 -142t-77 -114.5t-114 -76t-140 -27.5v202z" />
    <glyph glyph-name="uni02BF" unicode="&#x2bf;" horiz-adv-x="516" 
d="M427 1254q-31 0 -58 -12.5t-47.5 -33.5t-32.5 -50t-12 -62q0 -34 12 -63t32.5 -50.5t47.5 -33.5t58 -12v-198q-75 0 -140 27.5t-114 75.5t-77 113t-28 141t28 142t77 114.5t114 76t140 27.5v-202z" />
    <glyph glyph-name="circumflex" unicode="&#x2c6;" horiz-adv-x="818" 
d="M525 1096l-117 157l-116 -157h-230l207 319h279l207 -319h-230z" />
    <glyph glyph-name="caron" unicode="&#x2c7;" horiz-adv-x="958" 
d="M364 1413l116 -157l116 157h230l-207 -319h-279l-206 319h230z" />
    <glyph glyph-name="breve" unicode="&#x2d8;" horiz-adv-x="963" 
d="M321 1450q20 -81 59.5 -119.5t99.5 -38.5t99.5 38.5t59.5 119.5l191 -47q-32 -153 -121 -235t-229 -82t-228.5 82t-120.5 235z" />
    <glyph glyph-name="dotaccent" unicode="&#x2d9;" horiz-adv-x="536" 
d="M267 1445q33 0 62 -12t50 -33.5t33 -50.5t12 -62t-12 -61.5t-33 -49.5t-50 -33t-62 -12t-62 12t-50 33t-33 50t-12 62t12 61.5t33 50t50 33.5t62 12z" />
    <glyph glyph-name="ring" unicode="&#x2da;" horiz-adv-x="807" 
d="M403 1077q-51 0 -95.5 19t-78 52t-53 77t-19.5 95q0 50 19.5 94t53 77t78 52t95.5 19t96 -19t78.5 -52t53 -77t19.5 -94q0 -51 -19.5 -95t-53 -77t-78.5 -52t-96 -19zM403 1217q42 0 71.5 29t29.5 74q0 21 -8 40t-22 32.5t-32 21.5t-39 8q-20 0 -38.5 -8t-32 -21.5
t-21.5 -32.5t-8 -40q0 -45 29.5 -74t70.5 -29z" />
    <glyph glyph-name="ogonek" unicode="&#x2db;" horiz-adv-x="952" 
d="M823 -298q-51 -51 -113.5 -78t-141.5 -27q-56 0 -104 15t-83 43.5t-54.5 68.5t-19.5 90q0 49 19 89.5t53 74t80 60t99 49.5l156 -66q-51 -23 -86.5 -44t-57.5 -40.5t-32 -39t-10 -38.5q0 -27 18.5 -44t53.5 -17q27 0 50 10.5t45 30.5z" />
    <glyph glyph-name="tilde" unicode="&#x2dc;" horiz-adv-x="818" 
d="M47 1263q51 74 111 105.5t134 31.5q47 0 81 -11t60 -23.5t47.5 -23.5t44.5 -11q26 0 52.5 17t55.5 49l137 -139q-51 -74 -111.5 -105.5t-134.5 -31.5q-46 0 -79.5 11t-60 23.5t-48.5 23.5t-44 11q-26 0 -53 -17t-56 -49z" />
    <glyph glyph-name="hungarumlaut" unicode="&#x2dd;" horiz-adv-x="946" 
d="M54 1098l188 322h258l-211 -322h-235zM412 1098l211 322h262l-231 -322h-242z" />
    <glyph glyph-name="gravecomb" unicode="&#x300;" horiz-adv-x="1" 
d="M-837 1420h290l193 -322h-236z" />
    <glyph glyph-name="acutecomb" unicode="&#x301;" horiz-adv-x="1" 
d="M-683 1098l192 322h290l-247 -322h-235z" />
    <glyph glyph-name="uni0302" unicode="&#x302;" horiz-adv-x="1" 
d="M-403 1096l-117 157l-116 -157h-230l207 319h279l207 -319h-230z" />
    <glyph glyph-name="tildecomb" unicode="&#x303;" horiz-adv-x="1" 
d="M-883 1263q51 74 111 105.5t134 31.5q47 0 81 -11t60 -23.5t47.5 -23.5t44.5 -11q26 0 52.5 17t55.5 49l137 -139q-51 -74 -111.5 -105.5t-134.5 -31.5q-46 0 -79.5 11t-60 23.5t-48.5 23.5t-44 11q-26 0 -53 -17t-56 -49z" />
    <glyph glyph-name="uni0304" unicode="&#x304;" horiz-adv-x="1" 
d="M-828 1360h616v-212h-616v212z" />
    <glyph glyph-name="uni0306" unicode="&#x306;" horiz-adv-x="1" 
d="M-679 1450q20 -81 59.5 -119.5t99.5 -38.5t99.5 38.5t59.5 119.5l191 -47q-32 -153 -121 -235t-229 -82t-228.5 82t-120.5 235z" />
    <glyph glyph-name="uni0307" unicode="&#x307;" horiz-adv-x="1" 
d="M-520 1445q33 0 62 -12t50 -33.5t33 -50.5t12 -62t-12 -61.5t-33 -49.5t-50 -33t-62 -12t-62 12t-50 33t-33 50t-12 62t12 61.5t33 50t50 33.5t62 12z" />
    <glyph glyph-name="uni0308" unicode="&#x308;" horiz-adv-x="1" 
d="M-732 1411q33 0 61.5 -12t49.5 -33.5t33 -50t12 -61.5t-12 -61t-33 -49t-49.5 -33t-61.5 -12t-61.5 12t-49 33t-32.5 49.5t-12 61.5t12 61.5t32.5 49.5t49 33t61.5 12zM-312 1411q33 0 61.5 -12t49.5 -33.5t33 -50t12 -61.5t-12 -61t-33 -49t-49.5 -33t-61.5 -12
t-61.5 12t-49 33t-32.5 49.5t-12 61.5t12 61.5t32.5 49.5t49 33t61.5 12z" />
    <glyph glyph-name="uni030A" unicode="&#x30a;" horiz-adv-x="1" 
d="M-521 1077q-51 0 -95.5 19t-78 52t-53 77t-19.5 95q0 50 19.5 94t53 77t78 52t95.5 19t96 -19t78.5 -52t53 -77t19.5 -94q0 -51 -19.5 -95t-53 -77t-78.5 -52t-96 -19zM-521 1217q42 0 71.5 29t29.5 74q0 21 -8 40t-22 32.5t-32 21.5t-39 8q-20 0 -38.5 -8t-32 -21.5
t-21.5 -32.5t-8 -40q0 -45 29.5 -74t70.5 -29z" />
    <glyph glyph-name="uni030B" unicode="&#x30b;" horiz-adv-x="1" 
d="M-826 1098l188 322h258l-211 -322h-235zM-468 1098l211 322h262l-231 -322h-242z" />
    <glyph glyph-name="uni030C" unicode="&#x30c;" horiz-adv-x="1" 
d="M-636 1413l116 -157l116 157h230l-207 -319h-279l-206 319h230z" />
    <glyph glyph-name="uni0312" unicode="&#x312;" horiz-adv-x="1" 
d="M-643 1098l83 383h203l-43 -383h-243z" />
    <glyph glyph-name="dotbelowcomb" unicode="&#x323;" horiz-adv-x="1" 
d="M-520 -99q33 0 62 -12t50 -33.5t33 -50.5t12 -62t-12 -61.5t-33 -49.5t-50 -33t-62 -12t-62 12t-50 33t-33 50t-12 62t12 61.5t33 50t50 33.5t62 12z" />
    <glyph glyph-name="uni0326" unicode="&#x326;" horiz-adv-x="1" 
d="M-384 -81l-84 -373h-201l42 373h243z" />
    <glyph glyph-name="uni0327" unicode="&#x327;" horiz-adv-x="1" 
d="M-488 -321h-232l102 339l223 -11z" />
    <glyph glyph-name="uni0328" unicode="&#x328;" horiz-adv-x="1" 
d="M-242 -298q-50 -50 -113.5 -77.5t-141.5 -27.5q-58 0 -107 14.5t-84.5 41.5t-55.5 64.5t-20 83.5q0 52 22 93.5t60.5 75.5t91 61.5t114.5 51.5l98 -42q-47 -27 -78 -51t-49 -46.5t-25 -42.5t-7 -39q0 -29 19.5 -46.5t53.5 -17.5q51 0 94 41z" />
    <glyph glyph-name="uni032E" unicode="&#x32e;" horiz-adv-x="1" 
d="M-680 -74q20 -81 59.5 -119.5t99.5 -38.5t99.5 38.5t59.5 119.5l191 -47q-32 -153 -121 -235t-229 -82t-228.5 82t-120.5 235z" />
    <glyph glyph-name="uni0331" unicode="&#x331;" horiz-adv-x="1" 
d="M-828 -139h616v-212h-616v212z" />
    <glyph glyph-name="uni0335" unicode="&#x335;" horiz-adv-x="0" 
d="M-34 421h-670v205h670v-205z" />
    <glyph glyph-name="uni0336" unicode="&#x336;" horiz-adv-x="0" 
d="M-52 421h-1380v205h1380v-205z" />
    <glyph glyph-name="uni0394" unicode="&#x394;" horiz-adv-x="1242" 
d="M1191 217v-217h-1140v217l411 1183h319zM340 253h562l-281 842z" />
    <glyph glyph-name="uni03A9" unicode="&#x3a9;" horiz-adv-x="1482" 
d="M289 247q-92 88 -144.5 211.5t-52.5 272.5q0 153 47.5 280t133 218.5t205 142.5t263.5 51t263.5 -51t205 -142.5t133 -218.5t47.5 -280q0 -149 -52 -272.5t-145 -211.5h238v-247h-572v229q57 21 103 62.5t78 100.5t49 133.5t17 160.5q0 106 -26.5 193.5t-75 149
t-115.5 95.5t-148 34t-148 -34t-115 -95.5t-74.5 -149t-26.5 -193.5q0 -86 17 -160.5t49 -133.5t78 -100.5t103 -62.5v-229h-573v247h238z" />
    <glyph glyph-name="uni03BC" unicode="&#x3bc;" horiz-adv-x="1056" 
d="M945 974v-974h-245v121q-45 -77 -112.5 -110.5t-151.5 -33.5q-46 0 -90 11v-372h-242v1358h255v-572q0 -91 43.5 -137.5t118.5 -46.5q35 0 66 12t54 35.5t36 58.5t13 81v569h255z" />
    <glyph glyph-name="pi" unicode="&#x3c0;" horiz-adv-x="1057" 
d="M952 0h-253v743h-334v-743h-254v974h841v-974z" />
    <glyph glyph-name="uni1E0C" unicode="&#x1e0c;" horiz-adv-x="1374" 
d="M640 1400q153 0 275 -49.5t207.5 -141t131 -220.5t45.5 -289q0 -159 -45.5 -288.5t-131 -221t-207.5 -141t-275 -49.5h-513v1400h513zM635 254q96 0 167.5 32t118.5 90.5t70 140.5t23 183t-23 183.5t-70 141t-118.5 90t-167.5 31.5h-234v-892h234zM651 -102q33 0 62 -12
t50 -33.5t33 -50.5t12 -62t-12 -61.5t-33 -49.5t-50 -33t-62 -12t-62 12t-50 33t-33 50t-12 62t12 61.5t33 50t50 33.5t62 12z" />
    <glyph glyph-name="uni1E0D" unicode="&#x1e0d;" horiz-adv-x="1092" 
d="M981 1440v-1440h-247v116q-42 -62 -105.5 -100t-155.5 -38q-90 0 -165.5 38t-130.5 105.5t-85.5 161t-30.5 205.5q0 111 30.5 204.5t85.5 161t130.5 105.5t165.5 38q88 0 149.5 -35t103.5 -92v570h255zM531 219q46 0 84.5 18.5t65.5 53t42 84.5t15 112t-15 112t-42 85
t-65.5 53.5t-84.5 18.5q-48 0 -86.5 -19t-65.5 -54t-41.5 -85t-14.5 -111q0 -62 14.5 -111.5t41.5 -84t65.5 -53.5t86.5 -19zM550 -99q33 0 62 -12t50 -33.5t33 -50.5t12 -62t-12 -61.5t-33 -49.5t-50 -33t-62 -12t-62 12t-50 33t-33 50t-12 62t12 61.5t33 50t50 33.5t62 12
z" />
    <glyph glyph-name="uni1E0E" unicode="&#x1e0e;" horiz-adv-x="1374" 
d="M640 1400q153 0 275 -49.5t207.5 -141t131 -220.5t45.5 -289q0 -159 -45.5 -288.5t-131 -221t-207.5 -141t-275 -49.5h-513v1400h513zM635 254q96 0 167.5 32t118.5 90.5t70 140.5t23 183t-23 183.5t-70 141t-118.5 90t-167.5 31.5h-234v-892h234zM344 -139h616v-212
h-616v212z" />
    <glyph glyph-name="uni1E0F" unicode="&#x1e0f;" horiz-adv-x="1092" 
d="M981 1440v-1440h-247v116q-42 -62 -105.5 -100t-155.5 -38q-90 0 -165.5 38t-130.5 105.5t-85.5 161t-30.5 205.5q0 111 30.5 204.5t85.5 161t130.5 105.5t165.5 38q88 0 149.5 -35t103.5 -92v570h255zM531 219q46 0 84.5 18.5t65.5 53t42 84.5t15 112t-15 112t-42 85
t-65.5 53.5t-84.5 18.5q-48 0 -86.5 -19t-65.5 -54t-41.5 -85t-14.5 -111q0 -62 14.5 -111.5t41.5 -84t65.5 -53.5t86.5 -19zM242 -139h616v-212h-616v212z" />
    <glyph glyph-name="uni1E24" unicode="&#x1e24;" horiz-adv-x="1365" 
d="M1238 1400v-1400h-273v580h-564v-580h-274v1400h274v-567h564v567h273zM682 -102q33 0 62 -12t50 -33.5t33 -50.5t12 -62t-12 -61.5t-33 -49.5t-50 -33t-62 -12t-62 12t-50 33t-33 50t-12 62t12 61.5t33 50t50 33.5t62 12z" />
    <glyph glyph-name="uni1E25" unicode="&#x1e25;" horiz-adv-x="1058" 
d="M619 997q74 0 135.5 -25t105.5 -70.5t68.5 -110.5t24.5 -144v-647h-256v571q0 91 -43 137.5t-118 46.5q-35 0 -66 -12t-54 -35.5t-36 -58t-13 -80.5v-569h-256v1440h256v-569q45 67 109.5 96.5t142.5 29.5zM532 -99q33 0 62 -12t50 -33.5t33 -50.5t12 -62t-12 -61.5
t-33 -49.5t-50 -33t-62 -12t-62 12t-50 33t-33 50t-12 62t12 61.5t33 50t50 33.5t62 12z" />
    <glyph glyph-name="uni1E28" unicode="&#x1e28;" horiz-adv-x="1365" 
d="M1238 1400v-1400h-273v580h-564v-580h-274v1400h274v-567h564v567h273zM294 -321h-250l100 328h243z" />
    <glyph glyph-name="uni1E29" unicode="&#x1e29;" horiz-adv-x="1058" 
d="M619 997q74 0 135.5 -25t105.5 -70.5t68.5 -110.5t24.5 -144v-647h-256v571q0 91 -43 137.5t-118 46.5q-35 0 -66 -12t-54 -35.5t-36 -58t-13 -80.5v-569h-256v1440h256v-569q45 67 109.5 96.5t142.5 29.5zM260 -321h-232l102 339l223 -11z" />
    <glyph glyph-name="uni1E2A" unicode="&#x1e2a;" horiz-adv-x="1365" 
d="M1238 1400v-1400h-273v580h-564v-580h-274v1400h274v-567h564v567h273zM523 -74q20 -81 59.5 -119.5t99.5 -38.5t99.5 38.5t59.5 119.5l191 -47q-32 -153 -121 -235t-229 -82t-228.5 82t-120.5 235z" />
    <glyph glyph-name="uni1E2B" unicode="&#x1e2b;" horiz-adv-x="1058" 
d="M619 997q74 0 135.5 -25t105.5 -70.5t68.5 -110.5t24.5 -144v-647h-256v571q0 91 -43 137.5t-118 46.5q-35 0 -66 -12t-54 -35.5t-36 -58t-13 -80.5v-569h-256v1440h256v-569q45 67 109.5 96.5t142.5 29.5zM372 -74q20 -81 59.5 -119.5t99.5 -38.5t99.5 38.5t59.5 119.5
l191 -47q-32 -153 -121 -235t-229 -82t-228.5 82t-120.5 235z" />
    <glyph glyph-name="uni1E32" unicode="&#x1e32;" horiz-adv-x="1282" 
d="M512 580h-111v-580h-274v1400h274v-570h115l398 570h331l-508 -684l545 -716h-340zM635 -102q33 0 62 -12t50 -33.5t33 -50.5t12 -62t-12 -61.5t-33 -49.5t-50 -33t-62 -12t-62 12t-50 33t-33 50t-12 62t12 61.5t33 50t50 33.5t62 12z" />
    <glyph glyph-name="uni1E33" unicode="&#x1e33;" horiz-adv-x="997" 
d="M442 393h-77v-393h-254v1440h254v-813h79l235 347h305l-334 -460l339 -514h-306zM516 -99q33 0 62 -12t50 -33.5t33 -50.5t12 -62t-12 -61.5t-33 -49.5t-50 -33t-62 -12t-62 12t-50 33t-33 50t-12 62t12 61.5t33 50t50 33.5t62 12z" />
    <glyph glyph-name="uni1E36" unicode="&#x1e36;" horiz-adv-x="1067" 
d="M1041 254v-254h-914v1400h274v-1146h640zM580 -102q33 0 62 -12t50 -33.5t33 -50.5t12 -62t-12 -61.5t-33 -49.5t-50 -33t-62 -12t-62 12t-50 33t-33 50t-12 62t12 61.5t33 50t50 33.5t62 12z" />
    <glyph glyph-name="uni1E37" unicode="&#x1e37;" horiz-adv-x="476" 
d="M365 0h-254v1440h254v-1440zM238 -99q33 0 62 -12t50 -33.5t33 -50.5t12 -62t-12 -61.5t-33 -49.5t-50 -33t-62 -12t-62 12t-50 33t-33 50t-12 62t12 61.5t33 50t50 33.5t62 12z" />
    <glyph glyph-name="uni1E38" unicode="&#x1e38;" horiz-adv-x="1067" 
d="M1041 254v-254h-914v1400h274v-1146h640zM-45 1766h616v-212h-616v212zM580 -102q33 0 62 -12t50 -33.5t33 -50.5t12 -62t-12 -61.5t-33 -49.5t-50 -33t-62 -12t-62 12t-50 33t-33 50t-12 62t12 61.5t33 50t50 33.5t62 12z" />
    <glyph glyph-name="uni1E39" unicode="&#x1e39;" horiz-adv-x="476" 
d="M365 0h-254v1440h254v-1440zM-83 1781h616v-212h-616v212zM238 -99q33 0 62 -12t50 -33.5t33 -50.5t12 -62t-12 -61.5t-33 -49.5t-50 -33t-62 -12t-62 12t-50 33t-33 50t-12 62t12 61.5t33 50t50 33.5t62 12z" />
    <glyph glyph-name="uni1E3A" unicode="&#x1e3a;" horiz-adv-x="1067" 
d="M1041 254v-254h-914v1400h274v-1146h640zM273 -139h616v-212h-616v212z" />
    <glyph glyph-name="uni1E3B" unicode="&#x1e3b;" horiz-adv-x="476" 
d="M365 0h-254v1440h254v-1440zM-70 -139h616v-212h-616v212z" />
    <glyph glyph-name="uni1E40" unicode="&#x1e40;" horiz-adv-x="1661" 
d="M1534 0h-272v1030l-292 -805h-278l-292 801v-1026h-273v1400h386l318 -851l318 851h385v-1400zM830 1828q34 0 64 -12.5t52 -34.5t34.5 -52t12.5 -64q0 -35 -12.5 -64.5t-34.5 -51t-52 -34t-64 -12.5q-35 0 -64.5 12.5t-51 34.5t-34 51.5t-12.5 64.5q0 34 12.5 63.5
t34 51.5t51 34.5t64.5 12.5z" />
    <glyph glyph-name="uni1E41" unicode="&#x1e41;" horiz-adv-x="1643" 
d="M1197 997q77 0 140 -25t107.5 -70.5t69 -110.5t24.5 -144v-647h-256v571q0 91 -43 137.5t-118 46.5q-35 0 -65.5 -12t-53.5 -35.5t-36 -58t-13 -80.5v-569h-256v571q0 91 -43 137.5t-118 46.5q-35 0 -66 -12t-54 -35.5t-36 -58t-13 -80.5v-569h-256v974h246v-119
q45 75 112.5 108.5t149.5 33.5q97 0 170.5 -41t116.5 -116q47 84 123 120.5t168 36.5zM839 1446q33 0 62 -12t50 -33.5t33 -50.5t12 -62t-12 -61.5t-33 -49.5t-50 -33t-62 -12t-62 12t-50 33t-33 50t-12 62t12 61.5t33 50t50 33.5t62 12z" />
    <glyph glyph-name="uni1E42" unicode="&#x1e42;" horiz-adv-x="1661" 
d="M1534 0h-272v1030l-292 -805h-278l-292 801v-1026h-273v1400h386l318 -851l318 851h385v-1400zM830 -102q33 0 62 -12t50 -33.5t33 -50.5t12 -62t-12 -61.5t-33 -49.5t-50 -33t-62 -12t-62 12t-50 33t-33 50t-12 62t12 61.5t33 50t50 33.5t62 12z" />
    <glyph glyph-name="uni1E43" unicode="&#x1e43;" horiz-adv-x="1643" 
d="M1197 997q77 0 140 -25t107.5 -70.5t69 -110.5t24.5 -144v-647h-256v571q0 91 -43 137.5t-118 46.5q-35 0 -65.5 -12t-53.5 -35.5t-36 -58t-13 -80.5v-569h-256v571q0 91 -43 137.5t-118 46.5q-35 0 -66 -12t-54 -35.5t-36 -58t-13 -80.5v-569h-256v974h246v-119
q45 75 112.5 108.5t149.5 33.5q97 0 170.5 -41t116.5 -116q47 84 123 120.5t168 36.5zM825 -99q33 0 62 -12t50 -33.5t33 -50.5t12 -62t-12 -61.5t-33 -49.5t-50 -33t-62 -12t-62 12t-50 33t-33 50t-12 62t12 61.5t33 50t50 33.5t62 12z" />
    <glyph glyph-name="uni1E44" unicode="&#x1e44;" horiz-adv-x="1392" 
d="M1265 0h-262l-604 910v-910h-272v1400h262l605 -912v912h271v-1400zM701 1828q34 0 64 -12.5t52 -34.5t34.5 -52t12.5 -64q0 -35 -12.5 -64.5t-34.5 -51t-52 -34t-64 -12.5q-35 0 -64.5 12.5t-51 34.5t-34 51.5t-12.5 64.5q0 34 12.5 63.5t34 51.5t51 34.5t64.5 12.5z
" />
    <glyph glyph-name="uni1E45" unicode="&#x1e45;" horiz-adv-x="1057" 
d="M619 997q74 0 135 -25t105 -70.5t68.5 -110.5t24.5 -144v-647h-255v571q0 91 -43 137.5t-118 46.5q-35 0 -66 -12t-54 -35.5t-36 -58t-13 -80.5v-569h-256v974h246v-119q45 75 112.5 108.5t149.5 33.5zM536 1446q33 0 62 -12t50 -33.5t33 -50.5t12 -62t-12 -61.5
t-33 -49.5t-50 -33t-62 -12t-62 12t-50 33t-33 50t-12 62t12 61.5t33 50t50 33.5t62 12z" />
    <glyph glyph-name="uni1E46" unicode="&#x1e46;" horiz-adv-x="1392" 
d="M1265 0h-262l-604 910v-910h-272v1400h262l605 -912v912h271v-1400zM696 -102q33 0 62 -12t50 -33.5t33 -50.5t12 -62t-12 -61.5t-33 -49.5t-50 -33t-62 -12t-62 12t-50 33t-33 50t-12 62t12 61.5t33 50t50 33.5t62 12z" />
    <glyph glyph-name="uni1E47" unicode="&#x1e47;" horiz-adv-x="1057" 
d="M619 997q74 0 135 -25t105 -70.5t68.5 -110.5t24.5 -144v-647h-255v571q0 91 -43 137.5t-118 46.5q-35 0 -66 -12t-54 -35.5t-36 -58t-13 -80.5v-569h-256v974h246v-119q45 75 112.5 108.5t149.5 33.5zM532 -99q33 0 62 -12t50 -33.5t33 -50.5t12 -62t-12 -61.5
t-33 -49.5t-50 -33t-62 -12t-62 12t-50 33t-33 50t-12 62t12 61.5t33 50t50 33.5t62 12z" />
    <glyph glyph-name="uni1E48" unicode="&#x1e48;" horiz-adv-x="1392" 
d="M1265 0h-262l-604 910v-910h-272v1400h262l605 -912v912h271v-1400zM389 -139h616v-212h-616v212z" />
    <glyph glyph-name="uni1E49" unicode="&#x1e49;" horiz-adv-x="1057" 
d="M619 997q74 0 135 -25t105 -70.5t68.5 -110.5t24.5 -144v-647h-255v571q0 91 -43 137.5t-118 46.5q-35 0 -66 -12t-54 -35.5t-36 -58t-13 -80.5v-569h-256v974h246v-119q45 75 112.5 108.5t149.5 33.5zM224 -139h616v-212h-616v212z" />
    <glyph glyph-name="uni1E58" unicode="&#x1e58;" horiz-adv-x="1215" 
d="M470 551h-69v-551h-274v1400h522q117 0 208.5 -29.5t154 -85t95 -136t32.5 -181.5q0 -83 -25.5 -152t-73.5 -121.5t-118 -87.5t-158 -48l386 -559h-322zM401 784h245q100 0 156.5 45t56.5 139q0 92 -57.5 136.5t-155.5 44.5h-245v-365zM588 1828q34 0 64 -12.5t52 -34.5
t34.5 -52t12.5 -64q0 -35 -12.5 -64.5t-34.5 -51t-52 -34t-64 -12.5q-35 0 -64.5 12.5t-51 34.5t-34 51.5t-12.5 64.5q0 34 12.5 63.5t34 51.5t51 34.5t64.5 12.5z" />
    <glyph glyph-name="uni1E59" unicode="&#x1e59;" horiz-adv-x="746" 
d="M602 997q67 0 111 -19l-29 -261q-29 11 -65.5 18t-72.5 7q-82 0 -130.5 -50t-48.5 -148v-544h-256v974h246v-114q39 71 100.5 104t144.5 33zM409 1446q33 0 62 -12t50 -33.5t33 -50.5t12 -62t-12 -61.5t-33 -49.5t-50 -33t-62 -12t-62 12t-50 33t-33 50t-12 62t12 61.5
t33 50t50 33.5t62 12z" />
    <glyph glyph-name="uni1E5A" unicode="&#x1e5a;" horiz-adv-x="1215" 
d="M470 551h-69v-551h-274v1400h522q117 0 208.5 -29.5t154 -85t95 -136t32.5 -181.5q0 -83 -25.5 -152t-73.5 -121.5t-118 -87.5t-158 -48l386 -559h-322zM401 784h245q100 0 156.5 45t56.5 139q0 92 -57.5 136.5t-155.5 44.5h-245v-365zM595 -102q33 0 62 -12t50 -33.5
t33 -50.5t12 -62t-12 -61.5t-33 -49.5t-50 -33t-62 -12t-62 12t-50 33t-33 50t-12 62t12 61.5t33 50t50 33.5t62 12z" />
    <glyph glyph-name="uni1E5B" unicode="&#x1e5b;" horiz-adv-x="746" 
d="M602 997q67 0 111 -19l-29 -261q-29 11 -65.5 18t-72.5 7q-82 0 -130.5 -50t-48.5 -148v-544h-256v974h246v-114q39 71 100.5 104t144.5 33zM239 -99q33 0 62 -12t50 -33.5t33 -50.5t12 -62t-12 -61.5t-33 -49.5t-50 -33t-62 -12t-62 12t-50 33t-33 50t-12 62t12 61.5
t33 50t50 33.5t62 12z" />
    <glyph glyph-name="uni1E5C" unicode="&#x1e5c;" horiz-adv-x="1215" 
d="M470 551h-69v-551h-274v1400h522q117 0 208.5 -29.5t154 -85t95 -136t32.5 -181.5q0 -83 -25.5 -152t-73.5 -121.5t-118 -87.5t-158 -48l386 -559h-322zM401 784h245q100 0 156.5 45t56.5 139q0 92 -57.5 136.5t-155.5 44.5h-245v-365zM280 1766h616v-212h-616v212z
M595 -102q33 0 62 -12t50 -33.5t33 -50.5t12 -62t-12 -61.5t-33 -49.5t-50 -33t-62 -12t-62 12t-50 33t-33 50t-12 62t12 61.5t33 50t50 33.5t62 12z" />
    <glyph glyph-name="uni1E5D" unicode="&#x1e5d;" horiz-adv-x="746" 
d="M602 997q67 0 111 -19l-29 -261q-29 11 -65.5 18t-72.5 7q-82 0 -130.5 -50t-48.5 -148v-544h-256v974h246v-114q39 71 100.5 104t144.5 33zM101 1361h616v-212h-616v212zM239 -99q33 0 62 -12t50 -33.5t33 -50.5t12 -62t-12 -61.5t-33 -49.5t-50 -33t-62 -12t-62 12
t-50 33t-33 50t-12 62t12 61.5t33 50t50 33.5t62 12z" />
    <glyph glyph-name="uni1E5E" unicode="&#x1e5e;" horiz-adv-x="1215" 
d="M470 551h-69v-551h-274v1400h522q117 0 208.5 -29.5t154 -85t95 -136t32.5 -181.5q0 -83 -25.5 -152t-73.5 -121.5t-118 -87.5t-158 -48l386 -559h-322zM401 784h245q100 0 156.5 45t56.5 139q0 92 -57.5 136.5t-155.5 44.5h-245v-365zM288 -139h616v-212h-616v212z" />
    <glyph glyph-name="uni1E5F" unicode="&#x1e5f;" horiz-adv-x="746" 
d="M602 997q67 0 111 -19l-29 -261q-29 11 -65.5 18t-72.5 7q-82 0 -130.5 -50t-48.5 -148v-544h-256v974h246v-114q39 71 100.5 104t144.5 33zM-69 -139h616v-212h-616v212z" />
    <glyph glyph-name="uni1E62" unicode="&#x1e62;" horiz-adv-x="1213" 
d="M978 1052q-66 48 -151.5 81.5t-189.5 33.5q-50 0 -92 -11t-72 -31.5t-47 -50t-17 -67.5q0 -35 17.5 -61t50 -45.5t78.5 -34.5t103 -28l83 -19q91 -21 164.5 -55t125 -82.5t79 -113.5t27.5 -148q0 -111 -42.5 -193.5t-114.5 -138t-167.5 -83t-202.5 -27.5q-79 0 -154.5 13
t-143.5 37.5t-128 59.5t-108 80l158 206q32 -28 72.5 -54t88 -45.5t101.5 -31t114 -11.5q51 0 94 10.5t74.5 31.5t49.5 51t18 69q0 69 -60 106t-180 63l-91 20q-193 42 -293.5 143.5t-100.5 268.5q0 97 38 175.5t106 134.5t161 86.5t204 30.5q69 0 132.5 -9t123.5 -28.5
t118.5 -49.5t117.5 -72zM625 -102q33 0 62 -12t50 -33.5t33 -50.5t12 -62t-12 -61.5t-33 -49.5t-50 -33t-62 -12t-62 12t-50 33t-33 50t-12 62t12 61.5t33 50t50 33.5t62 12z" />
    <glyph glyph-name="uni1E63" unicode="&#x1e63;" horiz-adv-x="912" 
d="M747 708q-27 14 -60 27t-68 23t-71 16t-70 6q-66 0 -99 -23.5t-33 -61.5q0 -42 40 -61.5t112 -32.5l72 -13q143 -26 214.5 -98.5t71.5 -188.5q0 -74 -28.5 -134t-81 -102t-128.5 -64.5t-170 -22.5q-54 0 -108 6t-104.5 19t-96.5 33.5t-84 48.5l101 197q57 -39 127 -63
t161 -24q76 0 115.5 22.5t39.5 66.5q0 35 -34.5 57.5t-116.5 37.5l-67 12q-155 29 -225 104.5t-70 191.5q0 72 26.5 129.5t76 97.5t120 61t158.5 21q53 0 100 -5.5t91 -16.5t86.5 -28t87.5 -39zM460 -99q33 0 62 -12t50 -33.5t33 -50.5t12 -62t-12 -61.5t-33 -49.5t-50 -33
t-62 -12t-62 12t-50 33t-33 50t-12 62t12 61.5t33 50t50 33.5t62 12z" />
    <glyph glyph-name="uni1E6C" unicode="&#x1e6c;" horiz-adv-x="1091" 
d="M1065 1146h-383v-1146h-274v1146h-383v254h1040v-254zM544 -102q33 0 62 -12t50 -33.5t33 -50.5t12 -62t-12 -61.5t-33 -49.5t-50 -33t-62 -12t-62 12t-50 33t-33 50t-12 62t12 61.5t33 50t50 33.5t62 12z" />
    <glyph glyph-name="uni1E6D" unicode="&#x1e6d;" horiz-adv-x="841" 
d="M828 67q-56 -39 -126 -64t-166 -25q-165 0 -250 92t-85 269v404h-168v231h168v275h255v-275h309v-231h-309v-378q0 -40 10 -68t27.5 -45t41.5 -25t52 -8q42 0 82 16t73 37zM496 -99q33 0 62 -12t50 -33.5t33 -50.5t12 -62t-12 -61.5t-33 -49.5t-50 -33t-62 -12t-62 12
t-50 33t-33 50t-12 62t12 61.5t33 50t50 33.5t62 12z" />
    <glyph glyph-name="uni1E6E" unicode="&#x1e6e;" horiz-adv-x="1091" 
d="M1065 1146h-383v-1146h-274v1146h-383v254h1040v-254zM237 -139h616v-212h-616v212z" />
    <glyph glyph-name="uni1E6F" unicode="&#x1e6f;" horiz-adv-x="841" 
d="M828 67q-56 -39 -126 -64t-166 -25q-165 0 -250 92t-85 269v404h-168v231h168v275h255v-275h309v-231h-309v-378q0 -40 10 -68t27.5 -45t41.5 -25t52 -8q42 0 82 16t73 37zM188 -139h616v-212h-616v212z" />
    <glyph glyph-name="Wgrave" unicode="&#x1e80;" horiz-adv-x="1969" 
d="M1945 1400l-375 -1400h-327l-259 972l-260 -972h-327l-375 1400h283l261 -1060l273 1060h293l272 -1057l262 1057h279zM666 1826h290l193 -322h-236z" />
    <glyph glyph-name="wgrave" unicode="&#x1e81;" horiz-adv-x="1592" 
d="M1571 974l-303 -974h-283l-190 643l-188 -643h-282l-304 974h269l186 -669l195 669h251l198 -670l186 670h265zM476 1418h290l193 -322h-236z" />
    <glyph glyph-name="Wacute" unicode="&#x1e82;" horiz-adv-x="1969" 
d="M1945 1400l-375 -1400h-327l-259 972l-260 -972h-327l-375 1400h283l261 -1060l273 1060h293l272 -1057l262 1057h279zM806 1504l192 322h290l-247 -322h-235z" />
    <glyph glyph-name="wacute" unicode="&#x1e83;" horiz-adv-x="1592" 
d="M1571 974l-303 -974h-283l-190 643l-188 -643h-282l-304 974h269l186 -669l195 669h251l198 -670l186 670h265zM630 1096l192 322h290l-247 -322h-235z" />
    <glyph glyph-name="Wdieresis" unicode="&#x1e84;" horiz-adv-x="1969" 
d="M1945 1400l-375 -1400h-327l-259 972l-260 -972h-327l-375 1400h283l261 -1060l273 1060h293l272 -1057l262 1057h279zM769 1817q33 0 61.5 -12t49.5 -33.5t33 -50t12 -61.5t-12 -61t-33 -49t-49.5 -33t-61.5 -12t-61.5 12t-49 33t-32.5 49.5t-12 61.5t12 61.5t32.5 49.5
t49 33t61.5 12zM1189 1817q33 0 61.5 -12t49.5 -33.5t33 -50t12 -61.5t-12 -61t-33 -49t-49.5 -33t-61.5 -12t-61.5 12t-49 33t-32.5 49.5t-12 61.5t12 61.5t32.5 49.5t49 33t61.5 12z" />
    <glyph glyph-name="wdieresis" unicode="&#x1e85;" horiz-adv-x="1592" 
d="M1571 974l-303 -974h-283l-190 643l-188 -643h-282l-304 974h269l186 -669l195 669h251l198 -670l186 670h265zM580 1410q33 0 61.5 -12t49.5 -33.5t33 -50t12 -61.5t-12 -61t-33 -49t-49.5 -33t-61.5 -12t-61.5 12t-49 33t-32.5 49.5t-12 61.5t12 61.5t32.5 49.5t49 33
t61.5 12zM1000 1410q33 0 61.5 -12t49.5 -33.5t33 -50t12 -61.5t-12 -61t-33 -49t-49.5 -33t-61.5 -12t-61.5 12t-49 33t-32.5 49.5t-12 61.5t12 61.5t32.5 49.5t49 33t61.5 12z" />
    <glyph glyph-name="uni1E88" unicode="&#x1e88;" horiz-adv-x="1969" 
d="M1945 1400l-375 -1400h-327l-259 972l-260 -972h-327l-375 1400h283l261 -1060l273 1060h293l272 -1057l262 1057h279zM980 -102q33 0 62 -12t50 -33.5t33 -50.5t12 -62t-12 -61.5t-33 -49.5t-50 -33t-62 -12t-62 12t-50 33t-33 50t-12 62t12 61.5t33 50t50 33.5t62 12z
" />
    <glyph glyph-name="uni1E89" unicode="&#x1e89;" horiz-adv-x="1592" 
d="M1571 974l-303 -974h-283l-190 643l-188 -643h-282l-304 974h269l186 -669l195 669h251l198 -670l186 670h265zM794 -99q33 0 62 -12t50 -33.5t33 -50.5t12 -62t-12 -61.5t-33 -49.5t-50 -33t-62 -12t-62 12t-50 33t-33 50t-12 62t12 61.5t33 50t50 33.5t62 12z" />
    <glyph glyph-name="uni1E92" unicode="&#x1e92;" horiz-adv-x="1151" 
d="M1074 1187l-650 -938h650v-249h-998v213l650 938h-646v249h994v-213zM574 -102q33 0 62 -12t50 -33.5t33 -50.5t12 -62t-12 -61.5t-33 -49.5t-50 -33t-62 -12t-62 12t-50 33t-33 50t-12 62t12 61.5t33 50t50 33.5t62 12z" />
    <glyph glyph-name="uni1E93" unicode="&#x1e93;" horiz-adv-x="942" 
d="M855 778l-434 -548h443v-230h-786v190l443 553h-427v231h761v-196zM471 -99q33 0 62 -12t50 -33.5t33 -50.5t12 -62t-12 -61.5t-33 -49.5t-50 -33t-62 -12t-62 12t-50 33t-33 50t-12 62t12 61.5t33 50t50 33.5t62 12z" />
    <glyph glyph-name="uni1E94" unicode="&#x1e94;" horiz-adv-x="1151" 
d="M1074 1187l-650 -938h650v-249h-998v213l650 938h-646v249h994v-213zM267 -139h616v-212h-616v212z" />
    <glyph glyph-name="uni1E95" unicode="&#x1e95;" horiz-adv-x="942" 
d="M855 778l-434 -548h443v-230h-786v190l443 553h-427v231h761v-196zM163 -139h616v-212h-616v212z" />
    <glyph glyph-name="uni1E96" unicode="&#x1e96;" horiz-adv-x="1058" 
d="M619 997q74 0 135.5 -25t105.5 -70.5t68.5 -110.5t24.5 -144v-647h-256v571q0 91 -43 137.5t-118 46.5q-35 0 -66 -12t-54 -35.5t-36 -58t-13 -80.5v-569h-256v1440h256v-569q45 67 109.5 96.5t142.5 29.5zM224 -139h616v-212h-616v212z" />
    <glyph glyph-name="uni1E9E" unicode="&#x1e9e;" horiz-adv-x="1287" 
d="M904 780q71 -20 129 -54.5t99 -82.5t63.5 -109t22.5 -134q0 -98 -36 -176t-100.5 -133t-153 -84t-194.5 -29q-73 0 -127.5 7t-103.5 21l44 249q35 -11 70.5 -17t76.5 -6q118 0 179.5 43t61.5 125q0 85 -65.5 128t-190.5 43h-71v194l226 339q-34 31 -81 47t-114 16
q-121 0 -186 -66t-65 -178v-923h-274v926q0 101 30 191t94.5 158t165 107.5t241.5 39.5q96 0 175.5 -18.5t144 -52t115.5 -81.5t91 -106z" />
    <glyph glyph-name="Ygrave" unicode="&#x1ef2;" horiz-adv-x="1238" 
d="M760 544v-544h-274v541l-482 859h314l306 -572l305 572h305zM309 1826h290l193 -322h-236z" />
    <glyph glyph-name="ygrave" unicode="&#x1ef3;" horiz-adv-x="1026" 
d="M1019 974l-646 -1358h-275l288 577l-376 781h285l225 -508l224 508h275zM201 1420h290l193 -322h-236z" />
    <glyph glyph-name="uni1EF4" unicode="&#x1ef4;" horiz-adv-x="1238" 
d="M760 544v-544h-274v541l-482 859h314l306 -572l305 572h305zM622 -102q33 0 62 -12t50 -33.5t33 -50.5t12 -62t-12 -61.5t-33 -49.5t-50 -33t-62 -12t-62 12t-50 33t-33 50t-12 62t12 61.5t33 50t50 33.5t62 12z" />
    <glyph glyph-name="uni1EF5" unicode="&#x1ef5;" horiz-adv-x="1026" 
d="M1019 974l-646 -1358h-275l288 577l-376 781h285l225 -508l224 508h275zM777 -96q33 0 62 -12t50 -33.5t33 -50.5t12 -62t-12 -61.5t-33 -49.5t-50 -33t-62 -12t-62 12t-50 33t-33 50t-12 62t12 61.5t33 50t50 33.5t62 12z" />
    <glyph glyph-name="uni2007" unicode="&#x2007;" horiz-adv-x="1104" 
 />
    <glyph glyph-name="uni2008" unicode="&#x2008;" horiz-adv-x="522" 
 />
    <glyph glyph-name="uni2009" unicode="&#x2009;" horiz-adv-x="267" 
 />
    <glyph glyph-name="uni200B" unicode="&#x200b;" horiz-adv-x="0" 
 />
    <glyph glyph-name="uniFEFF" unicode="&#xfeff;" horiz-adv-x="0" 
 />
    <glyph glyph-name="uni2010" unicode="&#x2010;" horiz-adv-x="710" 
d="M621 418h-532v226h532v-226z" />
    <glyph glyph-name="uni2011" unicode="&#x2011;" horiz-adv-x="710" 
d="M621 418h-532v226h532v-226z" />
    <glyph glyph-name="figuredash" unicode="&#x2012;" horiz-adv-x="1053" 
d="M975 422h-882v218h882v-218z" />
    <glyph glyph-name="endash" unicode="&#x2013;" horiz-adv-x="1034" 
d="M958 422h-882v218h882v-218z" />
    <glyph glyph-name="emdash" unicode="&#x2014;" horiz-adv-x="1424" 
d="M1386 422h-1348v218h1348v-218z" />
    <glyph glyph-name="quoteleft" unicode="&#x2018;" horiz-adv-x="504" 
d="M82 857l133 583h212l-66 -583h-279z" />
    <glyph glyph-name="quoteright" unicode="&#x2019;" horiz-adv-x="504" 
d="M422 1440l-133 -583h-212l66 583h279z" />
    <glyph glyph-name="quotesinglbase" unicode="&#x201a;" horiz-adv-x="504" 
d="M422 310l-133 -583h-212l66 583h279z" />
    <glyph glyph-name="quotedblleft" unicode="&#x201c;" horiz-adv-x="910" 
d="M82 857l133 583h212l-66 -583h-279zM488 857l133 583h212l-66 -583h-279z" />
    <glyph glyph-name="quotedblright" unicode="&#x201d;" horiz-adv-x="909" 
d="M422 1440l-133 -583h-212l66 583h279zM828 1440l-133 -583h-212l66 583h279z" />
    <glyph glyph-name="quotedblbase" unicode="&#x201e;" horiz-adv-x="909" 
d="M422 310l-133 -583h-212l66 583h279zM827 310l-133 -583h-212l66 583h279z" />
    <glyph glyph-name="dagger" unicode="&#x2020;" horiz-adv-x="707" 
d="M643 1049h-195v-395h-190v395h-194v186h194v205h190v-205h195v-186z" />
    <glyph glyph-name="daggerdbl" unicode="&#x2021;" horiz-adv-x="707" 
d="M448 1105v-124h195v-179h-195v-155h-190v155h-194v179h194v124h-194v179h194v156h190v-156h195v-179h-195z" />
    <glyph glyph-name="bullet" unicode="&#x2022;" horiz-adv-x="834" 
d="M416 820q60 0 113 -22.5t92 -62t62 -92.5t23 -113t-23 -113t-62 -92.5t-92 -62t-113 -22.5t-113 22.5t-92.5 62t-62 92.5t-22.5 113t22.5 113t62 92.5t92.5 62t113 22.5z" />
    <glyph glyph-name="uni2023" unicode="&#x2023;" horiz-adv-x="821" 
d="M84.8887 136.677v797.891l689.249 -398.945z" />
    <glyph glyph-name="ellipsis" unicode="&#x2026;" horiz-adv-x="1502" 
d="M261 331q36 0 68 -14t56 -38t38 -56t14 -68t-14 -68t-38 -56.5t-56 -38.5t-68 -14t-68 14t-56.5 38.5t-38.5 57t-14 68.5t14 67.5t38.5 55.5t56.5 38t68 14zM751 331q36 0 68 -14t56 -38t38 -56t14 -68t-14 -68t-38 -56.5t-56 -38.5t-68 -14t-68 14t-56.5 38.5t-38.5 57
t-14 68.5t14 67.5t38.5 55.5t56.5 38t68 14zM1241 331q36 0 68 -14t56 -38t38 -56t14 -68t-14 -68t-38 -56.5t-56 -38.5t-68 -14t-68 14t-56.5 38.5t-38.5 57t-14 68.5t14 67.5t38.5 55.5t56.5 38t68 14z" />
    <glyph glyph-name="perthousand" unicode="&#x2030;" horiz-adv-x="2545" 
d="M418 1424q77 0 142.5 -26.5t113.5 -74t75.5 -113.5t27.5 -145q0 -80 -27.5 -146t-75.5 -113.5t-113.5 -74t-142.5 -26.5t-142.5 26.5t-113.5 74t-75 113.5t-27 146q0 79 27 145t75 113.5t113.5 74t142.5 26.5zM579 0h-244l845 1400h245zM418 1229q-32 0 -59.5 -12
t-47.5 -33.5t-31.5 -52t-11.5 -66.5q0 -37 11.5 -67.5t31.5 -52t47.5 -33.5t59.5 -12q33 0 60.5 12t47.5 33.5t31.5 52t11.5 67.5q0 36 -11.5 66.5t-31.5 52t-47.5 33.5t-60.5 12zM1344 696q77 0 143 -26.5t114 -74t75 -113.5t27 -145t-27 -145t-75 -113.5t-114 -74
t-143 -26.5t-142 26.5t-113 74t-75 113.5t-27 145t27 145t75 113.5t113 74t142 26.5zM2125 696q77 0 143 -26.5t114 -74t75 -113.5t27 -145t-27 -145t-75 -113.5t-114 -74t-143 -26.5t-142 26.5t-113 74t-75 113.5t-27 145t27 145t75 113.5t113 74t142 26.5zM1344 502
q-32 0 -59.5 -12t-47.5 -34t-31.5 -52.5t-11.5 -66.5t11.5 -66.5t31.5 -52t47.5 -33.5t59.5 -12q33 0 60.5 12t48 33.5t31.5 52t11 66.5q0 37 -11 67t-31.5 52t-48 34t-60.5 12zM2125 502q-32 0 -59.5 -12t-47.5 -34t-31.5 -52.5t-11.5 -66.5t11.5 -66.5t31.5 -52
t47.5 -33.5t59.5 -12q33 0 61 12t48 33.5t31.5 52t11.5 66.5q0 37 -11.5 67t-31.5 52t-48 34t-61 12z" />
    <glyph glyph-name="minute" unicode="&#x2032;" horiz-adv-x="519" 
d="M437 1400l-126 -638h-234l127 638h233z" />
    <glyph glyph-name="second" unicode="&#x2033;" horiz-adv-x="878" 
d="M796 1400l-126 -638h-234l127 638h233zM437 1400l-126 -638h-234l127 638h233z" />
    <glyph glyph-name="uni2034" unicode="&#x2034;" horiz-adv-x="1192" 
d="M773 1400l-126 -638h-234l127 638h233zM1110 1400l-126 -638h-234l127 638h233zM437 1400l-126 -638h-234l127 638h233z" />
    <glyph glyph-name="guilsinglleft" unicode="&#x2039;" horiz-adv-x="607" 
d="M519 146h-252l-184 385l184 385h252l-184 -385z" />
    <glyph glyph-name="guilsinglright" unicode="&#x203a;" horiz-adv-x="607" 
d="M88 917h252l184 -385l-184 -385h-252l184 385z" />
    <glyph glyph-name="fraction" unicode="&#x2044;" horiz-adv-x="413" 
d="M-87 0h-217l804 1400h217z" />
    <glyph glyph-name="uni2070" unicode="&#x2070;" horiz-adv-x="789" 
d="M394 1413q71 0 131.5 -27.5t104.5 -80t69 -130t25 -177.5t-25 -177t-69 -129.5t-104.5 -80t-131.5 -27.5t-131 27.5t-104 80t-69 129.5t-25 177t25 177.5t69 130t104 80t131 27.5zM394 1234q-59 0 -98 -58t-39 -178q0 -119 39 -177t98 -58q60 0 99 57.5t39 177.5t-39 178
t-99 58z" />
    <glyph glyph-name="uni2071" unicode="&#x2071;" horiz-adv-x="356" 
d="M178 1622q25 0 46.5 -9t37.5 -25t25 -38t9 -47t-9 -46.5t-25 -37t-37.5 -24.5t-46.5 -9t-46.5 9t-37.5 25t-25 38t-9 47t9 46t25 37t37.5 25t46.5 9zM275 584h-194v699h194v-699z" />
    <glyph glyph-name="uni2074" unicode="&#x2074;" horiz-adv-x="662" 
d="M636 734h-87v-137h-183v137h-340v132l236 534h199l-222 -501h127v88l55 124h128v-212h87v-165z" />
    <glyph glyph-name="uni2075" unicode="&#x2075;" horiz-adv-x="664" 
d="M560 1229h-289l-3 -130h56q65 0 117 -17t89 -48t56.5 -75t19.5 -98q0 -62 -21.5 -113t-60.5 -87.5t-94 -56.5t-122 -20q-86 0 -154 27t-112 69l87 141q13 -11 31.5 -23t41 -21.5t48.5 -15.5t53 -6q54 0 83 24t29 69q0 41 -32 65t-102 24h-179l12 463h446v-171z" />
    <glyph glyph-name="uni2076" unicode="&#x2076;" horiz-adv-x="680" 
d="M363 1125q63 0 114 -20.5t87 -56t55 -83.5t19 -104q0 -61 -23 -112t-63.5 -87.5t-95.5 -57t-118 -20.5t-117.5 20t-95 56t-63.5 86t-23 110q0 51 17.5 100.5t51.5 106.5l204 337h215l-181 -275h17zM338 751q48 0 78 30.5t30 78.5t-30 77.5t-78 29.5q-47 0 -77 -29.5
t-30 -77.5t30 -78.5t77 -30.5z" />
    <glyph glyph-name="uni2077" unicode="&#x2077;" horiz-adv-x="616" 
d="M583 1248l-287 -651h-214l290 628h-333v175h544v-152z" />
    <glyph glyph-name="uni2078" unicode="&#x2078;" horiz-adv-x="721" 
d="M531 1003q57 -23 96 -68.5t39 -119.5q0 -55 -24 -98t-66 -72.5t-97.5 -45t-118.5 -15.5q-62 0 -117.5 15.5t-97 45t-66 72.5t-24.5 98q0 37 10.5 66.5t28.5 53t42.5 40t52.5 28.5q-49 24 -82 67.5t-33 111.5q0 54 22.5 97t61.5 73t91 45.5t111 15.5t111.5 -15.5
t91.5 -45.5t61.5 -73t22.5 -97q0 -34 -9 -62t-24.5 -50t-36.5 -38.5t-46 -28.5zM360 1251q-40 0 -67.5 -22.5t-27.5 -64.5q0 -41 27.5 -63t67.5 -22q41 0 68 22t27 63q0 42 -27 64.5t-68 22.5zM360 745q46 0 77 24t31 69q0 43 -31 67t-77 24q-45 0 -76 -24t-31 -67
q0 -45 31 -69t76 -24z" />
    <glyph glyph-name="uni2079" unicode="&#x2079;" horiz-adv-x="680" 
d="M342 1413q63 0 117.5 -20.5t95 -56.5t63.5 -86t23 -110q0 -50 -17.5 -99.5t-51.5 -106.5l-204 -337h-215l180 275h-15q-64 0 -115 20.5t-87 55.5t-55 83t-19 104q0 61 23 112t63.5 88t95.5 57.5t118 20.5zM342 1029q47 0 77 30t30 78t-29.5 78t-77.5 30q-47 0 -77.5 -30
t-30.5 -78t30 -78t78 -30z" />
    <glyph glyph-name="uni207F" unicode="&#x207f;" horiz-adv-x="777" 
d="M458 1300q54 0 98.5 -17.5t76.5 -50t49.5 -79t17.5 -103.5v-467h-194v409q0 62 -30 93.5t-83 31.5q-50 0 -84 -31.5t-34 -95.5v-407h-194v700h186v-85q32 54 81 78t110 24z" />
    <glyph glyph-name="uni2080" unicode="&#x2080;" horiz-adv-x="789" 
d="M394 454q71 0 131.5 -27.5t104.5 -80t69 -130t25 -177.5t-25 -177t-69 -129.5t-104.5 -80t-131.5 -27.5t-131 27.5t-104 80t-69 129.5t-25 177t25 177.5t69 130t104 80t131 27.5zM394 275q-59 0 -98 -58t-39 -178q0 -119 39 -177t98 -58q60 0 99 57.5t39 177.5t-39 178
t-99 58z" />
    <glyph glyph-name="uni2081" unicode="&#x2081;" horiz-adv-x="490" 
d="M386 -362h-183v561l-170 -65v181l353 138v-815z" />
    <glyph glyph-name="uni2082" unicode="&#x2082;" horiz-adv-x="646" 
d="M42 320q18 22 43.5 46t59.5 43.5t77 32t97 12.5q61 0 110.5 -18t84.5 -52t54 -81.5t19 -105.5q0 -36 -7 -67.5t-22.5 -61.5t-40 -61t-58.5 -65l-128 -131h269v-173h-518v148l260 271q26 28 40.5 58t14.5 62q0 42 -27.5 69.5t-72.5 27.5q-24 0 -45 -7t-39.5 -18.5
t-34.5 -26t-31 -30.5z" />
    <glyph glyph-name="uni2083" unicode="&#x2083;" horiz-adv-x="650" 
d="M467 43q61 -26 94.5 -72t33.5 -110q0 -60 -25 -104.5t-66.5 -73.5t-95.5 -43.5t-111 -14.5q-85 0 -152 28t-112 79l101 125q65 -65 152 -65q24 0 45 5.5t37 16t25.5 27t9.5 39.5q0 20 -10 35.5t-27.5 26t-40.5 15.5t-49 5h-86v162h88q48 0 80 21t32 60q0 38 -29 59
t-77 21q-52 0 -89.5 -21t-63.5 -49l-94 131q44 48 105.5 78t153.5 30q62 0 114.5 -16.5t90 -46.5t58.5 -72.5t21 -94.5q0 -63 -29.5 -109t-83.5 -72z" />
    <glyph glyph-name="uni2084" unicode="&#x2084;" horiz-adv-x="662" 
d="M636 -225h-87v-137h-183v137h-340v132l236 534h199l-222 -501h127v88l55 124h128v-212h87v-165z" />
    <glyph glyph-name="uni2085" unicode="&#x2085;" horiz-adv-x="664" 
d="M560 270h-289l-3 -130h56q65 0 117 -17t89 -48t56.5 -75t19.5 -98q0 -62 -21.5 -113t-60.5 -87.5t-94 -56.5t-122 -20q-86 0 -154 27t-112 69l87 141q13 -11 31.5 -23t41 -21.5t48.5 -15.5t53 -6q54 0 83 24t29 69q0 41 -32 65t-102 24h-179l12 463h446v-171z" />
    <glyph glyph-name="uni2086" unicode="&#x2086;" horiz-adv-x="680" 
d="M363 166q63 0 114 -20.5t87 -56t55 -83.5t19 -104q0 -61 -23 -112t-63.5 -87.5t-95.5 -57t-118 -20.5t-117.5 20t-95 56t-63.5 86t-23 110q0 51 17.5 100.5t51.5 106.5l204 337h215l-181 -275h17zM338 -208q48 0 78 30.5t30 78.5t-30 77.5t-78 29.5q-47 0 -77 -29.5
t-30 -77.5t30 -78.5t77 -30.5z" />
    <glyph glyph-name="uni2087" unicode="&#x2087;" horiz-adv-x="616" 
d="M583 289l-287 -651h-214l290 628h-333v175h544v-152z" />
    <glyph glyph-name="uni2088" unicode="&#x2088;" horiz-adv-x="721" 
d="M531 44q57 -23 96 -68.5t39 -119.5q0 -55 -24 -98t-66 -72.5t-97.5 -45t-118.5 -15.5q-62 0 -117.5 15.5t-97 45t-66 72.5t-24.5 98q0 37 10.5 66.5t28.5 53t42.5 40t52.5 28.5q-49 24 -82 67.5t-33 111.5q0 54 22.5 97t61.5 73t91 45.5t111 15.5t111.5 -15.5t91.5 -45.5
t61.5 -73t22.5 -97q0 -34 -9 -62t-24.5 -50t-36.5 -38.5t-46 -28.5zM360 292q-40 0 -67.5 -22.5t-27.5 -64.5q0 -41 27.5 -63t67.5 -22q41 0 68 22t27 63q0 42 -27 64.5t-68 22.5zM360 -214q46 0 77 24t31 69q0 43 -31 67t-77 24q-45 0 -76 -24t-31 -67q0 -45 31 -69t76 -24
z" />
    <glyph glyph-name="uni2089" unicode="&#x2089;" horiz-adv-x="680" 
d="M342 454q63 0 117.5 -20.5t95 -56.5t63.5 -86t23 -110q0 -50 -17.5 -99.5t-51.5 -106.5l-204 -337h-215l180 275h-15q-64 0 -115 20.5t-87 55.5t-55 83t-19 104q0 61 23 112t63.5 88t95.5 57.5t118 20.5zM342 70q47 0 77 30t30 78t-29.5 78t-77.5 30q-47 0 -77.5 -30
t-30.5 -78t30 -78t78 -30z" />
    <glyph glyph-name="Euro" unicode="&#x20ac;" horiz-adv-x="1253" 
d="M782 224q84 0 146 36t107 99l162 -167q-71 -102 -174 -158t-241 -56q-109 0 -202 32t-165.5 93.5t-123.5 150.5t-77 203h-146v175h122q-1 17 -1.5 34t-0.5 34t0.5 34t1.5 34h-122v175h146q26 114 77 203t123.5 150.5t165.5 93.5t202 32q136 0 240.5 -55.5t177.5 -158.5
l-168 -166q-45 63 -106.5 98.5t-144.5 35.5q-103 0 -176 -60.5t-111 -172.5h447v-175h-479q-1 -17 -1.5 -34t-0.5 -34t0.5 -34t1.5 -34h479v-175h-446q38 -115 112.5 -174t174.5 -59z" />
    <glyph glyph-name="uni20BA" unicode="&#x20ba;" horiz-adv-x="1248" 
d="M1175 375q-41 -91 -92.5 -161t-117 -117.5t-146 -72t-177.5 -24.5h-386v351l-144 -72v189l144 72v134l-144 -72v190l144 72v537h266v-404l361 180v-190l-361 -180v-134l361 180v-190l-361 -180v-233h137q98 0 170 56t129 179z" />
    <glyph glyph-name="uni2100" unicode="&#x2100;" horiz-adv-x="1795" 
d="M427 1422q65 0 120 -16.5t95.5 -51.5t63 -89t22.5 -130v-423h-181v73q-31 -37 -76 -63t-113 -26q-51 0 -93 15.5t-71 44t-45 68.5t-16 89q0 100 70.5 157t204.5 57h130q-2 126 -133 126q-51 0 -92.5 -17t-72.5 -40l-75 143q45 37 111.5 60t150.5 23zM411 849
q43 0 76.5 21t55.5 51v79h-107q-57 0 -83 -22t-26 -54q0 -33 21 -54t63 -21zM638 0h-217l804 1400h217zM1394 710q85 0 151 -33t110 -93l-137 -117q-26 30 -56.5 45t-68.5 15q-63 0 -104.5 -46.5t-41.5 -137.5q0 -45 11 -79t30.5 -57t46 -35t57.5 -12q38 0 69.5 16t57.5 45
l136 -119q-44 -60 -110 -92.5t-151 -32.5q-78 0 -141.5 26.5t-108.5 74.5t-70 115.5t-25 149.5t25 150t70 116t108.5 74.5t141.5 26.5z" />
    <glyph glyph-name="uni2101" unicode="&#x2101;" horiz-adv-x="1798" 
d="M428 1422q65 0 120 -16.5t95.5 -51.5t63 -89t22.5 -130v-423h-181v73q-31 -37 -76 -63t-113 -26q-51 0 -93 15.5t-71 44t-45 68.5t-16 89q0 100 70.5 157t204.5 57h130q-2 126 -133 126q-51 0 -92.5 -17t-72.5 -40l-75 143q45 37 111.5 60t150.5 23zM412 849
q43 0 76.5 21t55.5 51v79h-107q-57 0 -83 -22t-26 -54q0 -33 21 -54t63 -21zM639 0h-217l804 1400h217zM1573 496q-42 20 -95 35t-103 15q-46 0 -69 -14.5t-23 -40.5q0 -28 29 -40.5t82 -22.5l50 -9q105 -20 157 -72t52 -135q0 -54 -21 -97.5t-60 -74t-94.5 -47
t-124.5 -16.5q-82 0 -158.5 18t-131.5 57l75 151q43 -29 95 -46t117 -17q108 0 108 58q0 23 -24.5 38t-84.5 26l-46 8q-114 21 -166 76.5t-52 138.5q0 53 19.5 94.5t56 70.5t88.5 44.5t117 15.5q39 0 73.5 -4t66.5 -11.5t64 -19.5t66 -28z" />
    <glyph glyph-name="uni2105" unicode="&#x2105;" horiz-adv-x="1782" 
d="M464 1423q85 0 151 -33t110 -93l-137 -117q-26 30 -56.5 45t-68.5 15q-63 0 -104.5 -46.5t-41.5 -137.5q0 -45 11 -79t30.5 -57t46 -35t57.5 -12q38 0 69.5 16t57.5 45l136 -119q-44 -60 -110 -92.5t-151 -32.5q-78 0 -141.5 26.5t-108.5 74.5t-70 115.5t-25 149.5
t25 150t70 116t108.5 74.5t141.5 26.5zM590 0h-217l804 1400h217zM1329 706q75 0 137.5 -26.5t107.5 -74.5t70 -115t25 -148t-25 -148t-70 -115t-107.5 -74.5t-137.5 -26.5t-137 26.5t-107 74.5t-70 115t-25 148t25 148t70 115t107 74.5t137 26.5zM1329 525q-63 0 -104 -48
t-41 -135t41 -135t104 -48q64 0 105 47.5t41 135.5t-41 135.5t-105 47.5z" />
    <glyph glyph-name="uni2106" unicode="&#x2106;" horiz-adv-x="1813" 
d="M460 1423q85 0 151 -33t110 -93l-137 -117q-26 30 -56.5 45t-68.5 15q-63 0 -104.5 -46.5t-41.5 -137.5q0 -45 11 -79t30.5 -57t46 -35t57.5 -12q38 0 69.5 16t57.5 45l136 -119q-44 -60 -110 -92.5t-151 -32.5q-78 0 -141.5 26.5t-108.5 74.5t-70 115.5t-25 149.5
t25 150t70 116t108.5 74.5t141.5 26.5zM586 0h-217l804 1400h217zM1698 276q0 -78 -24 -134t-66 -93t-98.5 -54.5t-121.5 -17.5t-121.5 17.5t-98 54.5t-65.5 93t-24 134v418h194v-403q0 -68 32.5 -99t82.5 -31q52 0 84 30.5t32 99.5v403h194v-418z" />
    <glyph glyph-name="uni2113" unicode="&#x2113;" horiz-adv-x="979" 
d="M599 203q47 0 88 17t78 43l94 -192q-56 -42 -126.5 -68t-158.5 -26q-77 0 -138 21t-104 64t-66 107t-23 150v83q-20 -8 -39.5 -15.5t-39.5 -15.5l-66 210q38 14 74.5 29t71.5 31v452q0 84 23 152t66 116.5t103 74.5t134 26q70 0 127.5 -25t98.5 -70.5t64 -109t23 -141.5
q0 -100 -29 -186t-82.5 -160t-128 -136.5t-166.5 -116.5v-184q0 -67 34 -98.5t88 -31.5zM477 779q84 67 130 147t46 179q0 63 -20.5 99.5t-61.5 36.5q-42 0 -68 -38.5t-26 -113.5v-310z" />
    <glyph glyph-name="uni2116" unicode="&#x2116;" horiz-adv-x="2170" 
d="M1781 1418q74 0 136 -26.5t106.5 -74t69.5 -114t25 -147.5q0 -80 -25 -146.5t-69.5 -114.5t-106.5 -74.5t-136 -26.5t-136 26.5t-106.5 74.5t-69.5 114.5t-25 146.5q0 81 25 147.5t69.5 114t106.5 74t136 26.5zM1781 1237q-63 0 -103.5 -47t-40.5 -134q0 -86 40.5 -133.5
t103.5 -47.5q31 0 57.5 12t45.5 35.5t30 57t11 76.5q0 87 -40.5 134t-103.5 47zM2098 387h-634v197h634v-197zM1265 0h-262l-604 910v-910h-272v1400h262l605 -912v912h271v-1400z" />
    <glyph glyph-name="uni2117" unicode="&#x2117;" horiz-adv-x="1822" 
d="M910 1514q113 0 218 -29t196.5 -81t166.5 -125.5t128 -163t82.5 -192t29.5 -213.5t-29.5 -213.5t-82.5 -192t-128 -163t-166.5 -126t-196.5 -81.5t-218 -29q-114 0 -218.5 29t-195.5 81.5t-166 126t-128.5 163t-82.5 192t-29 213.5t29 213.5t82.5 192t128.5 163
t166 125.5t195.5 81t218.5 29zM910 127q122 0 229 45.5t187 124.5t126 185.5t46 227.5t-46 227t-126 185t-187 124.5t-229 45.5t-229 -45.5t-187 -124.5t-126 -185t-46 -227t46 -227.5t126 -185.5t187 -124.5t229 -45.5zM978 1109q84 0 148 -20t107.5 -56.5t66 -87.5
t22.5 -113q0 -61 -22 -111t-65.5 -86t-107 -55.5t-146.5 -19.5h-160v-258h-214v807h371zM975 738q63 0 96.5 24.5t33.5 69.5t-33.5 69.5t-96.5 24.5h-154v-188h154z" />
    <glyph glyph-name="uni2120" unicode="&#x2120;" horiz-adv-x="1463" 
d="M506 1224q-31 17 -72.5 33t-92.5 16q-42 0 -70 -13t-28 -37q0 -27 35.5 -38t89.5 -20l33 -6q96 -18 146.5 -61.5t50.5 -112.5q0 -54 -22 -93t-59 -65t-85.5 -38.5t-102.5 -12.5q-81 0 -148.5 20t-116.5 56l78 120q35 -24 81 -41t105 -17q45 0 75 12t30 39q0 26 -29.5 37
t-89.5 20l-38 6q-100 16 -148.5 64t-48.5 118q0 44 18.5 81t52.5 63.5t81.5 41t104.5 14.5q79 0 136.5 -18.5t108.5 -49.5zM1243 788v395l-115 -319h-157l-117 320v-396h-167v612h232l131 -341l130 341h232v-612h-169z" />
    <glyph glyph-name="trademark" unicode="&#x2122;" horiz-adv-x="1447" 
d="M580 1245h-180v-457h-169v457h-180v155h529v-155zM1396 1400v-612h-168v395l-116 -319h-157l-117 320v-396h-166v612h231l131 -341l130 341h232z" />
    <glyph glyph-name="Omega" unicode="&#x2126;" horiz-adv-x="1482" 
d="M289 247q-92 88 -144.5 211.5t-52.5 272.5q0 153 47.5 280t133 218.5t205 142.5t263.5 51t263.5 -51t205 -142.5t133 -218.5t47.5 -280q0 -149 -52 -272.5t-145 -211.5h238v-247h-572v229q57 21 103 62.5t78 100.5t49 133.5t17 160.5q0 106 -26.5 193.5t-75 149
t-115.5 95.5t-148 34t-148 -34t-115 -95.5t-74.5 -149t-26.5 -193.5q0 -86 17 -160.5t49 -133.5t78 -100.5t103 -62.5v-229h-573v247h238z" />
    <glyph glyph-name="estimated" unicode="&#x212e;" horiz-adv-x="2000" 
d="M513 351q0 -94 32 -164.5t115 -113.5q75 -40 160.5 -63t179.5 -23q93 0 178.5 20.5t161 59.5t139 95.5t110.5 127.5l86 -66q-55 -81 -128 -145.5t-159.5 -108.5t-184.5 -67.5t-203 -23.5q-112 0 -216 26.5t-194.5 77t-165 122.5t-127.5 163.5t-82.5 200t-29.5 231.5
t29.5 231.5t82.5 200t127.5 163.5t165 122.5t194.5 77t216 26.5t216 -26.5t194.5 -77t165 -122.5t127.5 -163.5t82.5 -200t29.5 -231.5v-27q0 -13 -2 -27h-1300v-295zM1497 754v288q0 94 -31 163.5t-112 114.5q-78 44 -167 68.5t-187 24.5q-94 0 -179.5 -23t-160.5 -63
q-83 -44 -115 -114t-32 -164v-295h984z" />
    <glyph glyph-name="uni214D" unicode="&#x214d;" horiz-adv-x="1835" 
d="M807 672h-194l-40 132h-253l-40 -132h-192l252 728h216zM523 969l-77 251l-76 -251h153zM1503 441q110 -19 165.5 -72t55.5 -137q0 -63 -25 -109.5t-67 -76.5t-97.5 -45t-117.5 -15q-93 0 -170 21.5t-133 62.5l86 148q40 -26 93 -46.5t122 -20.5q51 0 82.5 14.5
t31.5 45.5q0 29 -31 42.5t-99 24.5l-39 6q-119 20 -172.5 76.5t-53.5 144.5q0 52 21 95.5t59.5 74t92.5 47.5t120 17q45 0 82.5 -4.5t71 -13.5t64 -22.5t61.5 -30.5l-76 -149q-37 20 -86 37t-107 17q-48 0 -78.5 -15t-30.5 -43q0 -16 10.5 -26.5t29 -18t44 -13t55.5 -10.5z
M693 0h-217l804 1400h217z" />
    <glyph glyph-name="uni2150" unicode="&#x2150;" horiz-adv-x="1633" 
d="M420 0h-217l804 1400h217zM1529 651l-287 -651h-214l290 628h-333v175h544v-152zM386 597h-183v561l-170 -65v181l353 138v-815z" />
    <glyph glyph-name="uni2151" unicode="&#x2151;" horiz-adv-x="1665" 
d="M420 0h-217l804 1400h217zM1262 816q63 0 117.5 -20.5t95 -56.5t63.5 -86t23 -110q0 -50 -17.5 -99.5t-51.5 -106.5l-204 -337h-215l180 275h-15q-64 0 -115 20.5t-87 55.5t-55 83t-19 104q0 61 23 112t63.5 88t95.5 57.5t118 20.5zM1262 432q47 0 77 30t30 78t-29.5 78
t-77.5 30q-47 0 -77.5 -30t-30.5 -78t30 -78t78 -30zM386 597h-183v561l-170 -65v181l353 138v-815z" />
    <glyph glyph-name="uni2152" unicode="&#x2152;" horiz-adv-x="2252" 
d="M420 0h-217l804 1400h217zM1320 0h-183v561l-170 -65v181l353 138v-815zM1818 816q71 0 131.5 -27.5t104.5 -80t69 -130t25 -177.5t-25 -177t-69 -129.5t-104.5 -80t-131.5 -27.5t-131 27.5t-104 80t-69 129.5t-25 177t25 177.5t69 130t104 80t131 27.5zM1818 637
q-59 0 -98 -58t-39 -178q0 -119 39 -177t98 -58q60 0 99 57.5t39 177.5t-39 178t-99 58zM386 597h-183v561l-170 -65v181l353 138v-815z" />
    <glyph glyph-name="onethird" unicode="&#x2153;" horiz-adv-x="1619" 
d="M420 0h-217l804 1400h217zM1387 405q61 -26 94.5 -72t33.5 -110q0 -60 -25 -104.5t-66.5 -73.5t-95.5 -43.5t-111 -14.5q-85 0 -152 28t-112 79l101 125q65 -65 152 -65q24 0 45 5.5t37 16t25.5 27t9.5 39.5q0 20 -10 35.5t-27.5 26t-40.5 15.5t-49 5h-86v162h88
q48 0 80 21t32 60q0 38 -29 59t-77 21q-52 0 -89.5 -21t-63.5 -49l-94 131q44 48 105.5 78t153.5 30q62 0 114.5 -16.5t90 -46.5t58.5 -72.5t21 -94.5q0 -63 -29.5 -109t-83.5 -72zM386 597h-183v561l-170 -65v181l353 138v-815z" />
    <glyph glyph-name="twothirds" unicode="&#x2154;" horiz-adv-x="1722" 
d="M581 0h-217l804 1400h217zM1548 405q61 -26 94.5 -72t33.5 -110q0 -60 -25 -104.5t-66.5 -73.5t-95.5 -43.5t-111 -14.5q-85 0 -152 28t-112 79l101 125q65 -65 152 -65q24 0 45 5.5t37 16t25.5 27t9.5 39.5q0 20 -10 35.5t-27.5 26t-40.5 15.5t-49 5h-86v162h88
q48 0 80 21t32 60q0 38 -29 59t-77 21q-52 0 -89.5 -21t-63.5 -49l-94 131q44 48 105.5 78t153.5 30q62 0 114.5 -16.5t90 -46.5t58.5 -72.5t21 -94.5q0 -63 -29.5 -109t-83.5 -72zM42 1279q18 22 43.5 46t59.5 43.5t77 32t97 12.5q61 0 110.5 -18t84.5 -52t54 -81.5
t19 -105.5q0 -36 -7 -67.5t-22.5 -61.5t-40 -61t-58.5 -65l-128 -131h269v-173h-518v148l260 271q26 28 40.5 58t14.5 62q0 42 -27.5 69.5t-72.5 27.5q-24 0 -45 -7t-39.5 -18.5t-34.5 -26t-31 -30.5z" />
    <glyph glyph-name="uni2155" unicode="&#x2155;" horiz-adv-x="1630" 
d="M420 0h-217l804 1400h217zM1480 632h-289l-3 -130h56q65 0 117 -17t89 -48t56.5 -75t19.5 -98q0 -62 -21.5 -113t-60.5 -87.5t-94 -56.5t-122 -20q-86 0 -154 27t-112 69l87 141q13 -11 31.5 -23t41 -21.5t48.5 -15.5t53 -6q54 0 83 24t29 69q0 41 -32 65t-102 24h-179
l12 463h446v-171zM386 597h-183v561l-170 -65v181l353 138v-815z" />
    <glyph glyph-name="uni2156" unicode="&#x2156;" horiz-adv-x="1733" 
d="M581 0h-217l804 1400h217zM1641 632h-289l-3 -130h56q65 0 117 -17t89 -48t56.5 -75t19.5 -98q0 -62 -21.5 -113t-60.5 -87.5t-94 -56.5t-122 -20q-86 0 -154 27t-112 69l87 141q13 -11 31.5 -23t41 -21.5t48.5 -15.5t53 -6q54 0 83 24t29 69q0 41 -32 65t-102 24h-179
l12 463h446v-171zM42 1279q18 22 43.5 46t59.5 43.5t77 32t97 12.5q61 0 110.5 -18t84.5 -52t54 -81.5t19 -105.5q0 -36 -7 -67.5t-22.5 -61.5t-40 -61t-58.5 -65l-128 -131h269v-173h-518v148l260 271q26 28 40.5 58t14.5 62q0 42 -27.5 69.5t-72.5 27.5q-24 0 -45 -7
t-39.5 -18.5t-34.5 -26t-31 -30.5z" />
    <glyph glyph-name="uni2157" unicode="&#x2157;" horiz-adv-x="1725" 
d="M563 0h-217l804 1400h217zM1624 632h-289l-3 -130h56q65 0 117 -17t89 -48t56.5 -75t19.5 -98q0 -62 -21.5 -113t-60.5 -87.5t-94 -56.5t-122 -20q-86 0 -154 27t-112 69l87 141q13 -11 31.5 -23t41 -21.5t48.5 -15.5t53 -6q54 0 83 24t29 69q0 41 -32 65t-102 24h-179
l12 463h446v-171zM467 1002q61 -26 94.5 -72t33.5 -110q0 -60 -25 -104.5t-66.5 -73.5t-95.5 -43.5t-111 -14.5q-85 0 -152 28t-112 79l101 125q65 -65 152 -65q24 0 45 5.5t37 16t25.5 27t9.5 39.5q0 20 -10 35.5t-27.5 26t-40.5 15.5t-49 5h-86v162h88q48 0 80 21t32 60
q0 38 -29 59t-77 21q-52 0 -89.5 -21t-63.5 -49l-94 131q44 48 105.5 78t153.5 30q62 0 114.5 -16.5t90 -46.5t58.5 -72.5t21 -94.5q0 -63 -29.5 -109t-83.5 -72z" />
    <glyph glyph-name="uni2158" unicode="&#x2158;" horiz-adv-x="1712" 
d="M579 0h-217l804 1400h217zM1639 632h-289l-3 -130h56q65 0 117 -17t89 -48t56.5 -75t19.5 -98q0 -62 -21.5 -113t-60.5 -87.5t-94 -56.5t-122 -20q-86 0 -154 27t-112 69l87 141q13 -11 31.5 -23t41 -21.5t48.5 -15.5t53 -6q54 0 83 24t29 69q0 41 -32 65t-102 24h-179
l12 463h446v-171zM636 734h-87v-137h-183v137h-340v132l236 534h199l-222 -501h127v88l55 124h128v-212h87v-165z" />
    <glyph glyph-name="uni2159" unicode="&#x2159;" horiz-adv-x="1595" 
d="M420 0h-217l804 1400h217zM1217 528q63 0 114 -20.5t87 -56t55 -83.5t19 -104q0 -61 -23 -112t-63.5 -87.5t-95.5 -57t-118 -20.5t-117.5 20t-95 56t-63.5 86t-23 110q0 51 17.5 100.5t51.5 106.5l204 337h215l-181 -275h17zM1192 154q48 0 78 30.5t30 78.5t-30 77.5
t-78 29.5q-47 0 -77 -29.5t-30 -77.5t30 -78.5t77 -30.5zM386 597h-183v561l-170 -65v181l353 138v-815z" />
    <glyph glyph-name="uni215A" unicode="&#x215a;" horiz-adv-x="1704" 
d="M574 0h-217l804 1400h217zM1371 528q63 0 114 -20.5t87 -56t55 -83.5t19 -104q0 -61 -23 -112t-63.5 -87.5t-95.5 -57t-118 -20.5t-117.5 20t-95 56t-63.5 86t-23 110q0 51 17.5 100.5t51.5 106.5l204 337h215l-181 -275h17zM1346 154q48 0 78 30.5t30 78.5t-30 77.5
t-78 29.5q-47 0 -77 -29.5t-30 -77.5t30 -78.5t77 -30.5zM560 1229h-289l-3 -130h56q65 0 117 -17t89 -48t56.5 -75t19.5 -98q0 -62 -21.5 -113t-60.5 -87.5t-94 -56.5t-122 -20q-86 0 -154 27t-112 69l87 141q13 -11 31.5 -23t41 -21.5t48.5 -15.5t53 -6q54 0 83 24t29 69
q0 41 -32 65t-102 24h-179l12 463h446v-171z" />
    <glyph glyph-name="oneeighth" unicode="&#x215b;" horiz-adv-x="1678" 
d="M420 0h-217l804 1400h217zM1440 406q57 -23 96 -68.5t39 -119.5q0 -55 -24 -98t-66 -72.5t-97.5 -45t-118.5 -15.5q-62 0 -117.5 15.5t-97 45t-66 72.5t-24.5 98q0 37 10.5 66.5t28.5 53t42.5 40t52.5 28.5q-49 24 -82 67.5t-33 111.5q0 54 22.5 97t61.5 73t91 45.5
t111 15.5t111.5 -15.5t91.5 -45.5t61.5 -73t22.5 -97q0 -34 -9 -62t-24.5 -50t-36.5 -38.5t-46 -28.5zM1269 654q-40 0 -67.5 -22.5t-27.5 -64.5q0 -41 27.5 -63t67.5 -22q41 0 68 22t27 63q0 42 -27 64.5t-68 22.5zM1269 148q46 0 77 24t31 69q0 43 -31 67t-77 24
q-45 0 -76 -24t-31 -67q0 -45 31 -69t76 -24zM386 597h-183v561l-170 -65v181l353 138v-815z" />
    <glyph glyph-name="threeeighths" unicode="&#x215c;" horiz-adv-x="1774" 
d="M563 0h-217l804 1400h217zM1583 406q57 -23 96 -68.5t39 -119.5q0 -55 -24 -98t-66 -72.5t-97.5 -45t-118.5 -15.5q-62 0 -117.5 15.5t-97 45t-66 72.5t-24.5 98q0 37 10.5 66.5t28.5 53t42.5 40t52.5 28.5q-49 24 -82 67.5t-33 111.5q0 54 22.5 97t61.5 73t91 45.5
t111 15.5t111.5 -15.5t91.5 -45.5t61.5 -73t22.5 -97q0 -34 -9 -62t-24.5 -50t-36.5 -38.5t-46 -28.5zM1412 654q-40 0 -67.5 -22.5t-27.5 -64.5q0 -41 27.5 -63t67.5 -22q41 0 68 22t27 63q0 42 -27 64.5t-68 22.5zM1412 148q46 0 77 24t31 69q0 43 -31 67t-77 24
q-45 0 -76 -24t-31 -67q0 -45 31 -69t76 -24zM467 1002q61 -26 94.5 -72t33.5 -110q0 -60 -25 -104.5t-66.5 -73.5t-95.5 -43.5t-111 -14.5q-85 0 -152 28t-112 79l101 125q65 -65 152 -65q24 0 45 5.5t37 16t25.5 27t9.5 39.5q0 20 -10 35.5t-27.5 26t-40.5 15.5t-49 5h-86
v162h88q48 0 80 21t32 60q0 38 -29 59t-77 21q-52 0 -89.5 -21t-63.5 -49l-94 131q44 48 105.5 78t153.5 30q62 0 114.5 -16.5t90 -46.5t58.5 -72.5t21 -94.5q0 -63 -29.5 -109t-83.5 -72z" />
    <glyph glyph-name="fiveeighths" unicode="&#x215d;" horiz-adv-x="1787" 
d="M574 0h-217l804 1400h217zM1594 406q57 -23 96 -68.5t39 -119.5q0 -55 -24 -98t-66 -72.5t-97.5 -45t-118.5 -15.5q-62 0 -117.5 15.5t-97 45t-66 72.5t-24.5 98q0 37 10.5 66.5t28.5 53t42.5 40t52.5 28.5q-49 24 -82 67.5t-33 111.5q0 54 22.5 97t61.5 73t91 45.5
t111 15.5t111.5 -15.5t91.5 -45.5t61.5 -73t22.5 -97q0 -34 -9 -62t-24.5 -50t-36.5 -38.5t-46 -28.5zM1423 654q-40 0 -67.5 -22.5t-27.5 -64.5q0 -41 27.5 -63t67.5 -22q41 0 68 22t27 63q0 42 -27 64.5t-68 22.5zM1423 148q46 0 77 24t31 69q0 43 -31 67t-77 24
q-45 0 -76 -24t-31 -67q0 -45 31 -69t76 -24zM560 1229h-289l-3 -130h56q65 0 117 -17t89 -48t56.5 -75t19.5 -98q0 -62 -21.5 -113t-60.5 -87.5t-94 -56.5t-122 -20q-86 0 -154 27t-112 69l87 141q13 -11 31.5 -23t41 -21.5t48.5 -15.5t53 -6q54 0 83 24t29 69q0 41 -32 65
t-102 24h-179l12 463h446v-171z" />
    <glyph glyph-name="seveneighths" unicode="&#x215e;" horiz-adv-x="1604" 
d="M416 0h-217l804 1400h217zM1436 406q57 -23 96 -68.5t39 -119.5q0 -55 -24 -98t-66 -72.5t-97.5 -45t-118.5 -15.5q-62 0 -117.5 15.5t-97 45t-66 72.5t-24.5 98q0 37 10.5 66.5t28.5 53t42.5 40t52.5 28.5q-49 24 -82 67.5t-33 111.5q0 54 22.5 97t61.5 73t91 45.5
t111 15.5t111.5 -15.5t91.5 -45.5t61.5 -73t22.5 -97q0 -34 -9 -62t-24.5 -50t-36.5 -38.5t-46 -28.5zM1265 654q-40 0 -67.5 -22.5t-27.5 -64.5q0 -41 27.5 -63t67.5 -22q41 0 68 22t27 63q0 42 -27 64.5t-68 22.5zM1265 148q46 0 77 24t31 69q0 43 -31 67t-77 24
q-45 0 -76 -24t-31 -67q0 -45 31 -69t76 -24zM583 1248l-287 -651h-214l290 628h-333v175h544v-152z" />
    <glyph glyph-name="uni215F" unicode="&#x215f;" horiz-adv-x="1327" 
d="M420 0h-217l804 1400h217zM386 597h-183v561l-170 -65v181l353 138v-815z" />
    <glyph glyph-name="uni2189" unicode="&#x2189;" horiz-adv-x="1821" 
d="M661 0h-217l804 1400h217zM1628 405q61 -26 94.5 -72t33.5 -110q0 -60 -25 -104.5t-66.5 -73.5t-95.5 -43.5t-111 -14.5q-85 0 -152 28t-112 79l101 125q65 -65 152 -65q24 0 45 5.5t37 16t25.5 27t9.5 39.5q0 20 -10 35.5t-27.5 26t-40.5 15.5t-49 5h-86v162h88
q48 0 80 21t32 60q0 38 -29 59t-77 21q-52 0 -89.5 -21t-63.5 -49l-94 131q44 48 105.5 78t153.5 30q62 0 114.5 -16.5t90 -46.5t58.5 -72.5t21 -94.5q0 -63 -29.5 -109t-83.5 -72zM394 1413q71 0 131.5 -27.5t104.5 -80t69 -130t25 -177.5t-25 -177t-69 -129.5t-104.5 -80
t-131.5 -27.5t-131 27.5t-104 80t-69 129.5t-25 177t25 177.5t69 130t104 80t131 27.5zM394 1234q-59 0 -98 -58t-39 -178q0 -119 39 -177t98 -58q60 0 99 57.5t39 177.5t-39 178t-99 58z" />
    <glyph glyph-name="arrowleft" unicode="&#x2190;" horiz-adv-x="1756" 
d="M740 548q-54 0 -105.5 0.5t-115.5 5.5q52 -45 97 -87.5t94 -94.5l164 -175l-162 -149l-572 610l572 611l162 -149l-164 -175q-49 -52 -94 -94.5t-97 -87.5q64 5 115.5 5.5t105.5 0.5h876v-221h-876z" />
    <glyph glyph-name="arrowup" unicode="&#x2191;" horiz-adv-x="1756" 
d="M767 833q0 54 1 105.5t6 115.5q-45 -52 -88 -97t-94 -93l-175 -165l-150 162l611 572l611 -572l-150 -162l-175 165q-52 48 -94.5 93t-87.5 97q5 -64 5.5 -115.5t0.5 -105.5v-876h-221v876z" />
    <glyph glyph-name="arrowright" unicode="&#x2192;" horiz-adv-x="1756" 
d="M1016 769q54 0 105.5 -1t115.5 -6q-52 45 -97 88t-93 95l-165 175l162 149l572 -611l-572 -611l-162 150l165 175q48 52 93 94.5t97 87.5q-64 -5 -115.5 -5.5t-105.5 -0.5h-876v221h876z" />
    <glyph glyph-name="arrowdown" unicode="&#x2193;" horiz-adv-x="1756" 
d="M988 557q0 -54 -0.5 -105.5t-5.5 -115.5q45 52 87.5 97t94.5 93l175 164l150 -161l-611 -572l-611 572l150 162l175 -165q52 -48 94.5 -93t87.5 -97q-5 64 -6 115.5t-1 105.5v876h221v-876z" />
    <glyph glyph-name="uni2196" unicode="&#x2196;" horiz-adv-x="1756" 
d="M676 690q-38 38 -74 75t-78 86q6 -69 7.5 -130.5t-0.5 -132.5l-8 -241l-220 9l27 837l837 27l9 -220l-240 -8q-71 -2 -133 -0.5t-131 6.5q49 -42 86 -78t74 -73l620 -620l-157 -156z" />
    <glyph glyph-name="uni2197" unicode="&#x2197;" horiz-adv-x="1756" 
d="M893 833q38 38 75 74t86 78q-69 -6 -130.5 -7t-132.5 1l-241 7l9 220l836 -27l28 -837l-221 -9l-7 241q-2 71 -0.5 132.5t6.5 130.5q-42 -49 -78 -86t-74 -74l-620 -620l-156 156z" />
    <glyph glyph-name="uni2198" unicode="&#x2198;" horiz-adv-x="1755" 
d="M1050 641q38 -38 73.5 -75t77.5 -86q-5 69 -6.5 130.5t0.5 133.5l8 240l220 -9l-27 -837l-837 -27l-9 221l240 7q72 2 133.5 0.5t130.5 -6.5q-49 42 -86.5 77.5t-74.5 73.5l-619 620l156 156z" />
    <glyph glyph-name="uni2199" unicode="&#x2199;" horiz-adv-x="1756" 
d="M832 469q-37 -37 -74 -73t-86 -78q69 5 131 6.5t133 -0.5l240 -7l-9 -220l-837 27l-27 837l220 8l8 -240q2 -71 0.5 -133t-6.5 -131q42 49 78 86.5t73 74.5l620 619l156 -156z" />
    <glyph glyph-name="partialdiff" unicode="&#x2202;" horiz-adv-x="1055" 
d="M987 529q1 -11 1.5 -22t0.5 -22q0 -111 -34 -204t-95.5 -160.5t-149 -105t-193.5 -37.5q-100 0 -184.5 35.5t-146 98.5t-96 150.5t-34.5 191.5q0 103 31 191t86 152t129 100t161 36q115 0 201 -69q-32 65 -76 122t-100 108.5t-123.5 99t-146.5 93.5l151 169
q141 -70 252.5 -170.5t190.5 -221.5t123 -257.5t52 -277.5zM525 207q46 0 85.5 18t67.5 50.5t44 78.5t16 103q0 58 -16 105t-44 80t-67.5 51t-85.5 18t-85 -18t-67 -51t-44 -80t-16 -105q0 -57 15.5 -103t44 -78.5t67 -50.5t85.5 -18z" />
    <glyph glyph-name="Delta" unicode="&#x2206;" horiz-adv-x="1242" 
d="M1191 217v-217h-1140v217l411 1183h319zM340 253h562l-281 842z" />
    <glyph glyph-name="product" unicode="&#x220f;" horiz-adv-x="1306" 
d="M1179 -265h-271v1412h-509v-1412h-272v1665h1052v-1665z" />
    <glyph glyph-name="summation" unicode="&#x2211;" horiz-adv-x="1117" 
d="M1040 1146h-592l384 -496v-149l-390 -512h599v-254h-964v216l480 620l-479 613v216h962v-254z" />
    <glyph glyph-name="minus" unicode="&#x2212;" horiz-adv-x="1104" 
d="M957 423h-812v216h812v-216z" />
    <glyph glyph-name="uni2219" unicode="&#x2219;" horiz-adv-x="1104" 
d="M552 820q60 0 113 -22.5t92 -62t62 -92.5t23 -113t-23 -113t-62 -92.5t-92 -62t-113 -22.5t-113 22.5t-92.5 62t-62 92.5t-22.5 113t22.5 113t62 92.5t92.5 62t113 22.5z" />
    <glyph glyph-name="radical" unicode="&#x221a;" horiz-adv-x="1195" 
d="M674 -265h-321l-339 1000h284l216 -680l385 1385h281z" />
    <glyph glyph-name="infinity" unicode="&#x221e;" horiz-adv-x="1524" 
d="M1114 933q77 0 145 -28.5t119 -81.5t80.5 -128.5t29.5 -169.5q0 -93 -29.5 -168.5t-80.5 -128.5t-119 -81.5t-145 -28.5q-56 0 -103 17.5t-89 48.5t-81.5 74t-78.5 94q-39 -51 -78.5 -94t-82 -74t-90 -48.5t-102.5 -17.5q-77 0 -145 28.5t-119 81.5t-80.5 128.5
t-29.5 168.5q0 94 29.5 169.5t80.5 128.5t119 81.5t145 28.5q55 0 102.5 -17.5t90 -48.5t82 -74t78.5 -95q39 52 78.5 95t81.5 74t89 48.5t103 17.5zM411 332q25 0 48 11t48 34.5t54.5 60t67.5 87.5q-38 51 -67.5 87.5t-54.5 60.5t-48 35t-48 11q-66 0 -107.5 -50
t-41.5 -144t41.5 -143.5t107.5 -49.5zM1112 332q66 0 108 49.5t42 143.5t-42 144t-108 50q-25 0 -47.5 -11t-47.5 -35t-54.5 -60.5t-67.5 -87.5q38 -51 67.5 -87.5t54.5 -60t47.5 -34.5t47.5 -11z" />
    <glyph glyph-name="integral" unicode="&#x222b;" horiz-adv-x="622" 
d="M585 1172q-27 9 -56 9q-105 0 -105 -131v-970q0 -88 -22 -156.5t-64 -116t-101.5 -72t-134.5 -24.5q-48 0 -85.5 7t-67.5 18l60 225q27 -9 56 -9q105 0 105 131v971q0 88 22 156.5t64 115.5t101.5 71.5t134.5 24.5q48 0 85.5 -7t67.5 -18z" />
    <glyph glyph-name="congruent" unicode="&#x2245;" horiz-adv-x="1104" 
d="M957 624h-811v213h811v-213zM957 226h-811v213h811v-213zM981 1130q-52 -76 -121.5 -114t-151.5 -38q-59 0 -102.5 13.5t-80 29t-69.5 29t-70 13.5q-36 0 -70 -20.5t-71 -62.5l-128 145q52 77 121.5 115t151.5 38q59 0 102.5 -13.5t80 -29t69 -29t70.5 -13.5q36 0 70 20
t71 62z" />
    <glyph glyph-name="approxequal" unicode="&#x2248;" horiz-adv-x="1104" 
d="M984 728q-52 -76 -121.5 -114t-151.5 -38q-59 0 -102.5 13.5t-80 29t-69.5 29t-70 13.5q-36 0 -70 -20.5t-71 -62.5l-128 145q52 77 121.5 115t151.5 38q59 0 102.5 -13.5t80 -29t69 -29t70.5 -13.5q36 0 70 20t71 62zM984 337q-52 -76 -121.5 -114t-151.5 -38
q-59 0 -102.5 13.5t-80 29t-69.5 29t-70 13.5q-36 0 -70 -20.5t-71 -62.5l-128 145q52 77 121.5 115t151.5 38q59 0 102.5 -13.5t80 -29t69 -29t70.5 -13.5q36 0 70 20t71 62z" />
    <glyph glyph-name="uni2259" unicode="&#x2259;" horiz-adv-x="1104" 
d="M957 624h-811v213h811v-213zM957 226h-811v213h811v-213zM644 984l-117 157l-116 -157h-230l207 319h279l207 -319h-230z" />
    <glyph glyph-name="notequal" unicode="&#x2260;" horiz-adv-x="1104" 
d="M958 226h-445l-77 -190h-214l77 190h-152v213h239l76 185h-315v213h401l77 188h214l-77 -188h196v-213h-282l-76 -185h358v-213z" />
    <glyph glyph-name="lessequal" unicode="&#x2264;" horiz-adv-x="1104" 
d="M908 1118v-241l-474 -180l474 -179v-241l-731 309v221zM908 14h-731v212h731v-212z" />
    <glyph glyph-name="greaterequal" unicode="&#x2265;" horiz-adv-x="1104" 
d="M927 807v-221l-731 -309v241l474 179l-474 180v241zM196 226h731v-212h-731v212z" />
    <glyph glyph-name="dotmath" unicode="&#x22c5;" horiz-adv-x="1104" 
d="M552 706q36 0 68 -14t56 -38t38 -56t14 -68t-14 -68t-38 -56.5t-56 -38.5t-68 -14t-68 14t-56.5 38.5t-38.5 57t-14 68.5t14 67.5t38.5 55.5t56.5 38t68 14z" />
    <glyph glyph-name="uni2300" unicode="&#x2300;" horiz-adv-x="1260" 
d="M1031 747q49 -101 49 -224q0 -103 -34.5 -191.5t-95 -153t-143 -101.5t-177.5 -37q-81 0 -151.5 26t-127.5 74l-91 -82l-133 154l101 88q-49 101 -49 223q0 103 34.5 191.5t95.5 153.5t143 102t178 37q81 0 151.5 -26t127.5 -74l92 81l132 -154zM630 799q-50 0 -93 -20
t-75.5 -56.5t-51 -87.5t-18.5 -112q0 -45 11 -87l358 320q-57 43 -131 43zM630 248q49 0 92.5 20t75.5 56.5t50.5 87t18.5 111.5q0 45 -11 86l-357 -319q28 -20 61 -31t70 -11z" />
    <glyph glyph-name="uni2460" unicode="&#x2460;" 
d="M1023 1606q128 0 246 -32.5t220.5 -91.5t186.5 -141.5t143.5 -183t92.5 -216t33 -240.5t-33 -240.5t-92.5 -216.5t-143.5 -184t-186.5 -142t-220.5 -91.5t-246 -32.5q-127 0 -245 32.5t-220.5 91.5t-186.5 142t-144 184t-93 216.5t-33 240.5t33 240.5t93 216t144 183
t186.5 141.5t220 91.5t245.5 32.5zM1023 1366q-139 0 -261.5 -52t-213.5 -142.5t-143.5 -211.5t-52.5 -259q0 -92 24 -177.5t67.5 -159.5t105 -134.5t136 -104t160 -67t178.5 -23.5t178.5 23.5t160 67t136 104t105 134.5t67.5 159.5t24 177.5q0 138 -52.5 259t-143.5 211.5
t-213.5 142.5t-261.5 52zM1160 286h-201v584l-208 -75v195l409 153v-857z" />
    <glyph glyph-name="uni2461" unicode="&#x2461;" 
d="M1023 1606q128 0 246 -32.5t220.5 -91.5t186.5 -141.5t143.5 -183t92.5 -216t33 -240.5t-33 -240.5t-92.5 -216.5t-143.5 -184t-186.5 -142t-220.5 -91.5t-246 -32.5q-127 0 -245 32.5t-220.5 91.5t-186.5 142t-144 184t-93 216.5t-33 240.5t33 240.5t93 216t144 183
t186.5 141.5t220 91.5t245.5 32.5zM1023 1366q-139 0 -261.5 -52t-213.5 -142.5t-143.5 -211.5t-52.5 -259q0 -92 24 -177.5t67.5 -159.5t105 -134.5t136 -104t160 -67t178.5 -23.5t178.5 23.5t160 67t136 104t105 134.5t67.5 159.5t24 177.5q0 138 -52.5 259t-143.5 211.5
t-213.5 142.5t-261.5 52zM702 995q21 25 50 51.5t68 48.5t89 36t112 14q68 0 123.5 -19.5t94.5 -55t60.5 -86t21.5 -111.5q0 -38 -8.5 -71.5t-26 -64.5t-43.5 -61.5t-61 -63.5l-151 -140h310v-186h-595v157l302 282q65 60 65 125q0 46 -32.5 74.5t-83.5 28.5q-57 0 -99 -28
t-76 -64z" />
    <glyph glyph-name="uni2462" unicode="&#x2462;" 
d="M1023 1606q128 0 246 -32.5t220.5 -91.5t186.5 -141.5t143.5 -183t92.5 -216t33 -240.5t-33 -240.5t-92.5 -216.5t-143.5 -184t-186.5 -142t-220.5 -91.5t-246 -32.5q-127 0 -245 32.5t-220.5 91.5t-186.5 142t-144 184t-93 216.5t-33 240.5t33 240.5t93 216t144 183
t186.5 141.5t220 91.5t245.5 32.5zM1023 35q93 0 178.5 23.5t160 67t136 104t105 134.5t67.5 159.5t24 177.5q0 138 -52.5 259t-143.5 211.5t-213.5 142.5t-261.5 52t-261.5 -52t-213.5 -142.5t-143.5 -211.5t-52.5 -259q0 -92 24 -177.5t67.5 -159.5t105 -134.5t136 -104
t160 -67t178.5 -23.5zM1206 712q70 -26 108.5 -75t38.5 -117q0 -63 -28 -110t-74.5 -78t-107 -46t-125.5 -15q-98 0 -176.5 32t-129.5 90l111 129q77 -75 184 -75q28 0 53 5.5t43.5 16.5t29.5 28t11 40q0 22 -12 39.5t-32.5 29t-48 17.5t-58.5 6h-99v167h101q57 0 95.5 22.5
t38.5 66.5q0 41 -34 62.5t-90 21.5q-62 0 -106.5 -24t-74.5 -56l-110 131q50 55 122.5 90t176.5 35q71 0 130 -17.5t102 -49t66.5 -76t23.5 -99.5q0 -69 -33.5 -117t-95.5 -74z" />
    <glyph glyph-name="uni2463" unicode="&#x2463;" horiz-adv-x="2046" 
d="M1024 1606q127 0 245 -32.5t220.5 -91.5t186.5 -141.5t144 -183t93 -216t33 -240.5t-33 -240.5t-93 -216.5t-144 -184t-186.5 -142t-220.5 -91.5t-245 -32.5q-128 0 -246 32.5t-220.5 91.5t-186.5 142t-144 184t-93 216.5t-33 240.5t33 240.5t93 216t144 183t186.5 141.5
t220.5 91.5t246 32.5zM1024 35q92 0 178 24t160.5 67t135.5 104t104.5 135t67.5 159t24 177q0 138 -52.5 259t-143.5 211t-213 142t-261 52t-261 -52t-213 -142t-143.5 -211t-52.5 -259q0 -92 24 -177t67.5 -159t104.5 -135t135.5 -104t160 -67t178.5 -24zM1246 610h109
v-182h-109v-142h-201v142h-386v139l278 563h220l-259 -520h147v93l62 135h139v-228z" />
    <glyph glyph-name="uni2464" unicode="&#x2464;" 
d="M1023 1606q128 0 246 -32.5t220.5 -91.5t186.5 -141.5t143.5 -183t92.5 -216t33 -240.5t-33 -240.5t-92.5 -216.5t-143.5 -184t-186.5 -142t-220.5 -91.5t-246 -32.5q-127 0 -245 32.5t-220.5 91.5t-186.5 142t-144 184t-93 216.5t-33 240.5t33 240.5t93 216t144 183
t186.5 141.5t220 91.5t245.5 32.5zM1023 1366q-139 0 -261.5 -52t-213.5 -142.5t-143.5 -211.5t-52.5 -259q0 -92 24 -177.5t67.5 -159.5t105 -134.5t136 -104t160 -67t178.5 -23.5t178.5 23.5t160 67t136 104t105 134.5t67.5 159.5t24 177.5q0 138 -52.5 259t-143.5 211.5
t-213.5 142.5t-261.5 52zM1302 947h-340l-4 -132h79q76 0 135.5 -17.5t100 -50.5t61.5 -79.5t21 -103.5q0 -66 -24.5 -120.5t-68.5 -92.5t-105 -59t-133 -21q-100 0 -180.5 32.5t-132.5 80.5l96 151q16 -14 39.5 -28.5t52 -26.5t60 -19.5t64.5 -7.5q61 0 92.5 26t31.5 71
q0 43 -36.5 69t-120.5 26h-211l12 486h511v-184z" />
    <glyph glyph-name="uni2465" unicode="&#x2465;" 
d="M1023 1606q128 0 246 -32.5t220.5 -91.5t186.5 -141.5t143.5 -183t92.5 -216t33 -240.5t-33 -240.5t-92.5 -216.5t-143.5 -184t-186.5 -142t-220.5 -91.5t-246 -32.5q-127 0 -245 32.5t-220.5 91.5t-186.5 142t-144 184t-93 216.5t-33 240.5t33 240.5t93 216t144 183
t186.5 141.5t220 91.5t245.5 32.5zM1023 35q93 0 178.5 23.5t160 67t136 104t105 134.5t67.5 159.5t24 177.5q0 138 -52.5 259t-143.5 211.5t-213.5 142.5t-261.5 52t-261.5 -52t-213.5 -142.5t-143.5 -211.5t-52.5 -259q0 -92 24 -177.5t67.5 -159.5t105 -134.5t136 -104
t160 -67t178.5 -23.5zM1043 847q74 0 132 -22t97.5 -60t60.5 -89t21 -109q0 -64 -25.5 -118.5t-71 -94t-107 -61.5t-133.5 -22t-133.5 21.5t-107 60.5t-71 92t-25.5 116q0 60 22 117.5t62 116.5l228 336h242l-205 -284h14zM1017 449q27 0 50.5 8.5t40.5 24t26.5 37t9.5 46.5
t-9.5 46.5t-26.5 37t-40.5 24t-50.5 8.5t-50.5 -8.5t-40 -24t-26 -37t-9.5 -46.5t9.5 -46.5t26 -37t40 -24t50.5 -8.5z" />
    <glyph glyph-name="uni2466" unicode="&#x2466;" 
d="M1023 1606q128 0 246 -32.5t220.5 -91.5t186.5 -141.5t143.5 -183t92.5 -216t33 -240.5t-33 -240.5t-92.5 -216.5t-143.5 -184t-186.5 -142t-220.5 -91.5t-246 -32.5q-127 0 -245 32.5t-220.5 91.5t-186.5 142t-144 184t-93 216.5t-33 240.5t33 240.5t93 216t144 183
t186.5 141.5t220 91.5t245.5 32.5zM1023 1366q-139 0 -261.5 -52t-213.5 -142.5t-143.5 -211.5t-52.5 -259q0 -92 24 -177.5t67.5 -159.5t105 -134.5t136 -104t160 -67t178.5 -23.5t178.5 23.5t160 67t136 104t105 134.5t67.5 159.5t24 177.5q0 138 -52.5 259t-143.5 211.5
t-213.5 142.5t-261.5 52zM1363 973l-340 -687h-240l342 659h-391v186h629v-158z" />
    <glyph glyph-name="uni2467" unicode="&#x2467;" 
d="M1023 1606q128 0 246 -32.5t220.5 -91.5t186.5 -141.5t143.5 -183t92.5 -216t33 -240.5t-33 -240.5t-92.5 -216.5t-143.5 -184t-186.5 -142t-220.5 -91.5t-246 -32.5q-127 0 -245 32.5t-220.5 91.5t-186.5 142t-144 184t-93 216.5t-33 240.5t33 240.5t93 216t144 183
t186.5 141.5t220 91.5t245.5 32.5zM1023 35q93 0 178.5 23.5t160 67t136 104t105 134.5t67.5 159.5t24 177.5q0 138 -52.5 259t-143.5 211.5t-213.5 142.5t-261.5 52t-261.5 -52t-213.5 -142.5t-143.5 -211.5t-52.5 -259q0 -92 24 -177.5t67.5 -159.5t105 -134.5t136 -104
t160 -67t178.5 -23.5zM1213 713q33 -12 61.5 -30t49.5 -42.5t33.5 -55.5t12.5 -70q0 -57 -27.5 -102.5t-75 -77t-110.5 -48t-134 -16.5t-133.5 16.5t-109.5 48t-74.5 77t-27.5 102.5q0 39 12 70t33 55.5t49.5 42.5t61.5 30q-58 26 -96.5 72t-38.5 118q0 57 25.5 102t69.5 76
t103 47.5t126 16.5t126 -16.5t103 -47.5t70 -76t26 -102q0 -72 -39 -118.5t-96 -71.5zM1023 974q-47 0 -79 -23.5t-32 -66.5t32 -67t79 -24q48 0 80 24t32 67t-32 66.5t-80 23.5zM1023 442q27 0 50 6.5t40 19t27 30.5t10 41q0 24 -10 42t-27 31t-40 19.5t-50 6.5
q-26 0 -49 -6.5t-40 -19.5t-27 -31t-10 -42q0 -23 10 -41t27 -30.5t40 -19t49 -6.5z" />
    <glyph glyph-name="uni2468" unicode="&#x2468;" 
d="M1023 1606q128 0 246 -32.5t220.5 -91.5t186.5 -141.5t143.5 -183t92.5 -216t33 -240.5t-33 -240.5t-92.5 -216.5t-143.5 -184t-186.5 -142t-220.5 -91.5t-246 -32.5q-127 0 -245 32.5t-220.5 91.5t-186.5 142t-144 184t-93 216.5t-33 240.5t33 240.5t93 216t144 183
t186.5 141.5t220 91.5t245.5 32.5zM1023 35q93 0 178.5 23.5t160 67t136 104t105 134.5t67.5 159.5t24 177.5q0 138 -52.5 259t-143.5 211.5t-213.5 142.5t-261.5 52t-261.5 -52t-213.5 -142.5t-143.5 -211.5t-52.5 -259q0 -92 24 -177.5t67.5 -159.5t105 -134.5t136 -104
t160 -67t178.5 -23.5zM1035 1145q72 0 133.5 -21.5t107 -60t71 -91.5t25.5 -116q0 -60 -22 -117.5t-62 -117.5l-227 -335h-242l204 283h-14q-74 0 -132 22t-97.5 60t-60.5 89t-21 109q0 64 25.5 118.5t71 94t107 61.5t133.5 22zM1035 736q27 0 50.5 8.5t40 24t26 37
t9.5 46.5t-9.5 46.5t-26 37t-40 24t-50.5 8.5t-50.5 -8.5t-40 -24t-26 -37t-9.5 -46.5t9.5 -46.5t26 -37t40 -24t50.5 -8.5z" />
    <glyph glyph-name="uni24EA" unicode="&#x24ea;" 
d="M1023 1606q128 0 246 -32.5t220.5 -91.5t186.5 -141.5t143.5 -183t92.5 -216t33 -240.5t-33 -240.5t-92.5 -216.5t-143.5 -184t-186.5 -142t-220.5 -91.5t-246 -32.5q-127 0 -245 32.5t-220.5 91.5t-186.5 142t-144 184t-93 216.5t-33 240.5t33 240.5t93 216t144 183
t186.5 141.5t220 91.5t245.5 32.5zM1023 1366q-139 0 -261.5 -52t-213.5 -142.5t-143.5 -211.5t-52.5 -259q0 -92 24 -177.5t67.5 -159.5t105 -134.5t136 -104t160 -67t178.5 -23.5t178.5 23.5t160 67t136 104t105 134.5t67.5 159.5t24 177.5q0 138 -52.5 259t-143.5 211.5
t-213.5 142.5t-261.5 52zM1023 1145q80 0 150 -30t122 -86t82 -137t30 -184q0 -102 -30 -183.5t-82 -137.5t-122 -86t-150 -30t-150 30t-122 86t-82 137.5t-30 183.5q0 103 30 184t82 137t122 86t150 30zM1023 953q-37 0 -69 -16t-55.5 -46.5t-37 -76.5t-13.5 -106
t13.5 -106t37 -76.5t55.5 -46.5t69 -16t69 16t55.5 46.5t37 76.5t13.5 106t-13.5 106t-37 76.5t-55.5 46.5t-69 16z" />
    <glyph glyph-name="uni24FF" unicode="&#x24ff;" 
d="M1023 1585q125 0 240 -31.5t215 -89.5t182 -138.5t140.5 -179t90.5 -211t32 -234.5t-32 -235t-90.5 -211.5t-140.5 -179.5t-182 -138.5t-215 -89.5t-240 -32t-240 32t-215 89.5t-182 138.5t-140.5 179.5t-90.5 211.5t-32 235t32 234.5t90.5 211t140.5 179t182 138.5
t215 89.5t240 31.5zM1023 1145q-80 0 -150 -30t-122 -86t-82 -137t-30 -184q0 -102 30 -183.5t82 -137.5t122 -86t150 -30t150 30t122 86t82 137.5t30 183.5q0 103 -30 184t-82 137t-122 86t-150 30zM1023 953q37 0 69 -16t55.5 -46.5t37 -76.5t13.5 -106t-13.5 -106
t-37 -76.5t-55.5 -46.5t-69 -16t-69 16t-55.5 46.5t-37 76.5t-13.5 106t13.5 106t37 76.5t55.5 46.5t69 16z" />
    <glyph glyph-name="filledbox" unicode="&#x25a0;" horiz-adv-x="1800" 
d="M1600 1400v-1400h-1400v1400h1400z" />
    <glyph glyph-name="H22073" unicode="&#x25a1;" horiz-adv-x="1800" 
d="M1600 1400v-1400h-1400v1400h1400zM443 243h914v914h-914v-914z" />
    <glyph glyph-name="uni25AE" unicode="&#x25ae;" horiz-adv-x="1800" 
d="M900 1400v-1400h-700v1400h700z" />
    <glyph glyph-name="triagup" unicode="&#x25b2;" horiz-adv-x="1800" 
d="M1720 0h-1640l820 1420z" />
    <glyph glyph-name="uni25B3" unicode="&#x25b3;" horiz-adv-x="1800" 
d="M1720 0h-1640l820 1420zM498 242h804l-402 695z" />
    <glyph glyph-name="uni25B4" unicode="&#x25b4;" horiz-adv-x="1200" 
d="M1048 276h-895l448 773z" />
    <glyph glyph-name="uni25B8" unicode="&#x25b8;" horiz-adv-x="1200" 
d="M275 213v896l774 -448z" />
    <glyph glyph-name="triagdn" unicode="&#x25bc;" horiz-adv-x="1800" 
d="M80 1400h1640l-820 -1420z" />
    <glyph glyph-name="uni25BD" unicode="&#x25bd;" horiz-adv-x="1800" 
d="M80 1400h1640l-820 -1420zM1302 1158h-804l402 -695z" />
    <glyph glyph-name="uni25BE" unicode="&#x25be;" horiz-adv-x="1200" 
d="M152 1048h895l-448 -773z" />
    <glyph glyph-name="uni25C2" unicode="&#x25c2;" horiz-adv-x="1200" 
d="M925 1109v-896l-774 448z" />
    <glyph glyph-name="uni25C6" unicode="&#x25c6;" horiz-adv-x="1800" 
d="M1638 700l-738 -738l-738 738l738 738z" />
    <glyph glyph-name="uni25C7" unicode="&#x25c7;" horiz-adv-x="1800" 
d="M1638 700l-738 -738l-738 738l738 738zM506 700l394 -394l394 394l-394 394z" />
    <glyph glyph-name="lozenge" unicode="&#x25ca;" horiz-adv-x="1373" 
d="M799 0h-226l-509 700l510 700h226l509 -700zM683 1129l-311 -427l319 -429l311 425z" />
    <glyph glyph-name="circle" unicode="&#x25cb;" horiz-adv-x="1800" 
d="M900 -39q-102 0 -196.5 26.5t-176.5 74.5t-149.5 115.5t-115.5 149.5t-74.5 176.5t-26.5 196.5t26.5 196.5t74.5 176.5t115.5 149.5t149.5 115.5t176.5 74.5t196.5 26.5t196.5 -26.5t176.5 -74.5t149.5 -115.5t115.5 -149.5t74.5 -176.5t26.5 -196.5t-26.5 -196.5
t-74.5 -176.5t-115.5 -149.5t-149.5 -115.5t-176.5 -74.5t-196.5 -26.5zM900 204q103 0 193 39t157.5 106.5t106.5 157.5t39 193t-39 193t-106.5 157.5t-157.5 106.5t-193 39t-193.5 -39t-157.5 -106.5t-106 -157.5t-39 -193t39 -193t106 -157.5t157.5 -106.5t193.5 -39z
" />
    </font>
</defs>
</svg>
