<?xml version="1.0" standalone="no"?>
<!DOCTYPE svg PUBLIC "-//W3C//DTD SVG 1.1//EN" "http://www.w3.org/Graphics/SVG/1.1/DTD/svg11.dtd" >
<svg xmlns="http://www.w3.org/2000/svg" xmlns:xlink="http://www.w3.org/1999/xlink" version="1.1">
<metadata>
Created by FontForge 20170924 at Wed Aug 10 12:36:05 2016
 By www-data
2016 published by Monotype GmbH
</metadata>
<defs>
<font id="MarkForMCNarrowW00-Medium" horiz-adv-x="1" >
  <font-face 
    font-family="Mark For MC Narrow W00 Medium"
    font-weight="500"
    font-stretch="semi-condensed"
    units-per-em="2000"
    panose-1="2 11 6 6 2 2 1 1 1 4"
    ascent="1600"
    descent="-400"
    x-height="962"
    cap-height="1400"
    bbox="-1405 -462 2465 2201"
    underline-thickness="100"
    underline-position="-250"
    unicode-range="U+0020-FEFF"
  />
<missing-glyph horiz-adv-x="1076" 
d="M135 1400h806v-1400h-806v1400zM760 181v1038h-444v-1038h444z" />
    <glyph glyph-name=".notdef" horiz-adv-x="1076" 
d="M135 1400h806v-1400h-806v1400zM760 181v1038h-444v-1038h444z" />
    <glyph glyph-name="glyph1" horiz-adv-x="0" 
 />
    <glyph glyph-name="glyph1" horiz-adv-x="0" 
 />
    <glyph glyph-name="glyph2" horiz-adv-x="457" 
 />
    <glyph glyph-name="space" unicode=" " horiz-adv-x="457" 
 />
    <glyph glyph-name="exclam" unicode="!" horiz-adv-x="498" 
d="M337 458h-177l-28 942h233zM249 282q31 0 58 -12t47.5 -32.5t32.5 -48t12 -58.5t-12 -58.5t-32.5 -48t-47.5 -32.5t-58 -12t-58.5 12t-48 33t-32.5 48.5t-12 58.5t12 58t32.5 47.5t48 32.5t58.5 12z" />
    <glyph glyph-name="quotedbl" unicode="&#x22;" horiz-adv-x="976" 
d="M410 1440v-551h-193v551h193zM758 1440v-551h-193v551h193z" />
    <glyph glyph-name="numbersign" unicode="#" horiz-adv-x="1254" 
d="M968 874l-65 -341h189l-33 -178h-190l-68 -355h-181l68 355h-255l-68 -355h-181l68 355h-190l33 178h191l65 341h-191l34 178h191l67 348h181l-67 -348h255l67 348h181l-67 -348h190l-34 -178h-190zM787 874h-255l-65 -341h255z" />
    <glyph glyph-name="dollar" unicode="$" horiz-adv-x="1252" 
d="M742 785q84 -17 154 -47.5t121 -75.5t79 -106.5t28 -140.5q0 -85 -30 -153t-83.5 -118t-125.5 -81.5t-156 -43.5v-196h-175v192q-125 11 -237.5 58t-190.5 121l128 154q25 -24 58 -45.5t72 -38.5t81.5 -29.5t87.5 -18.5v393l-18 4q-85 18 -153 50t-116 79.5t-74 110.5
t-26 142q0 80 29 146t80.5 115.5t122.5 81t155 43.5v188h176v-185q115 -11 209.5 -49t174.5 -101l-119 -159q-56 41 -122.5 69t-142.5 39v-395zM378 999q0 -63 42.5 -104.5t132.5 -68.5v353q-79 -18 -127 -64.5t-48 -115.5zM909 403q0 61 -46 101.5t-134 66.5v-349
q40 9 73 25t57 39t37 52t13 65z" />
    <glyph glyph-name="percent" unicode="%" horiz-adv-x="1764" 
d="M428 1422q76 0 141 -26t112.5 -73t74.5 -112t27 -142q0 -78 -27 -143t-74.5 -112.5t-112.5 -73.5t-141 -26q-75 0 -139.5 26t-112 73.5t-74 112.5t-26.5 143q0 77 26.5 142t74 112t112 73t139.5 26zM581 0h-201l802 1400h201zM428 1256q-37 0 -69 -13.5t-55 -38.5
t-36.5 -59t-13.5 -76t13.5 -77t36.5 -59.5t55 -38t69 -13.5q38 0 70.5 13.5t56 38t37 59.5t13.5 77t-13.5 76t-37 59t-56 38.5t-70.5 13.5zM1333 687q76 0 141 -26t112.5 -73t74.5 -112t27 -143t-27 -143t-74.5 -112t-112.5 -73t-141 -26q-75 0 -139.5 26t-112 73t-74 112
t-26.5 143t26.5 143t74 112t112 73t139.5 26zM1333 521q-37 0 -69 -14t-55 -38.5t-36.5 -59t-13.5 -76.5t13.5 -76.5t36.5 -59t55 -38t69 -13.5q38 0 70.5 13.5t56 38t37 59t13.5 76.5t-13.5 76.5t-37 59.5t-56 38.5t-70.5 13.5z" />
    <glyph glyph-name="ampersand" unicode="&#x26;" horiz-adv-x="1290" 
d="M1004 0l-155 165q-35 -40 -74.5 -74t-86 -59t-101.5 -39t-119 -14q-90 0 -161 24t-121 69t-76.5 110t-26.5 146q0 64 19.5 120t52.5 105t75.5 92.5t89.5 83.5q-45 50 -78.5 93t-55 85t-32.5 85.5t-11 94.5q0 71 25.5 132t72 106t112.5 70.5t147 25.5q78 0 142.5 -24
t110 -67t71 -102t25.5 -129q0 -59 -20 -111t-54 -98t-77.5 -87.5t-90.5 -80.5q17 -20 36.5 -40.5t40.5 -43.5l149 -162l176 284l161 -94l-178 -295l-12 -20q-6 -10 -13 -20l306 -331h-269zM482 171q73 0 128.5 35t106.5 100l-268 285q-32 -29 -60 -58.5t-48 -60.5t-31.5 -64
t-11.5 -69q0 -38 13.5 -69t37.5 -53t58 -34t75 -12zM351 1083q0 -26 6 -48.5t21 -48t40 -56t62 -72.5q34 29 64 57t52.5 56.5t35 58t12.5 61.5q0 64 -39 102t-107 38q-67 0 -107 -39.5t-40 -108.5z" />
    <glyph glyph-name="quotesingle" unicode="'" horiz-adv-x="627" 
d="M410 1440v-551h-193v551h193z" />
    <glyph glyph-name="parenleft" unicode="(" horiz-adv-x="756" 
d="M694 1248q-90 -44 -158 -113.5t-114 -157.5t-69.5 -191.5t-23.5 -217.5t23.5 -217.5t69.5 -191.5t114 -157.5t158 -113.5l-76 -186q-116 50 -209 133.5t-158.5 194.5t-101 247t-35.5 291t35.5 291t101 247t158.5 194.5t209 133.5z" />
    <glyph glyph-name="parenright" unicode=")" horiz-adv-x="756" 
d="M62 -110q90 44 158 113.5t114 157.5t69.5 191.5t23.5 217.5t-23.5 217.5t-69.5 191.5t-114 157.5t-158 113.5l76 186q115 -50 208.5 -133.5t159 -194.5t101 -247t35.5 -291t-35.5 -291t-101 -247t-159 -194.5t-208.5 -133.5z" />
    <glyph glyph-name="asterisk" unicode="*" horiz-adv-x="852" 
d="M548 1059l142 -191l-126 -91l-137 195l-138 -195l-126 91l143 191l-228 71l48 148l226 -77l-3 239h155l-3 -239l226 77l48 -148z" />
    <glyph glyph-name="plus" unicode="+" horiz-adv-x="1104" 
d="M946 441h-304v-310h-182v310h-302v180h302v311h182v-311h304v-180z" />
    <glyph glyph-name="comma" unicode="," horiz-adv-x="475" 
d="M377 268l-113 -533h-170l57 533h226z" />
    <glyph glyph-name="hyphen" unicode="-" horiz-adv-x="735" 
d="M627 439h-518v184h518v-184z" />
    <glyph glyph-name="period" unicode="." horiz-adv-x="498" 
d="M249 284q31 0 58.5 -12t48 -33t32.5 -49t12 -59t-12 -58.5t-32.5 -48.5t-48 -33t-58.5 -12t-58.5 12t-48.5 33t-33 49t-12 60q0 31 12 58.5t33 48t48.5 32.5t58.5 12z" />
    <glyph glyph-name="slash" unicode="/" horiz-adv-x="930" 
d="M193 -200h-215l764 1740h215z" />
    <glyph glyph-name="zero" unicode="0" horiz-adv-x="1104" 
d="M554 1420q103 0 192 -43t154 -131.5t102.5 -224.5t37.5 -321q0 -191 -37.5 -327.5t-102.5 -223.5t-154 -128t-192 -41q-104 0 -194 41t-156 128t-103.5 223.5t-37.5 327.5t37.5 327.5t103.5 223.5t156 128t194 41zM554 1217q-57 0 -107 -27t-87 -88t-58.5 -159.5
t-21.5 -242.5q0 -143 21.5 -242t58.5 -160t87 -88t107 -27q56 0 105 27t85 88t57 160t21 242q0 137 -21 235t-57 160.5t-85 92t-105 29.5z" />
    <glyph glyph-name="one" unicode="1" horiz-adv-x="1104" 
d="M1017 199v-199h-837v199h325v925l-335 -126v215l543 207v-1221h304z" />
    <glyph glyph-name="two" unicode="2" horiz-adv-x="1104" 
d="M108 1194q27 39 64 79.5t88 73t116.5 53.5t148.5 21q101 0 181 -32t135.5 -88.5t85 -135t29.5 -171.5q0 -62 -13 -116.5t-35.5 -103t-53 -92t-64.5 -84.5l-335 -398h528v-200h-823v176l463 550q51 61 81.5 124.5t30.5 135.5q0 49 -15 90.5t-43.5 72.5t-69.5 48.5
t-94 17.5q-48 0 -87 -12.5t-70.5 -34t-57.5 -49.5t-49 -59z" />
    <glyph glyph-name="three" unicode="3" horiz-adv-x="1104" 
d="M744 706q106 -42 169 -125t63 -200q0 -100 -38 -175.5t-101.5 -125.5t-147 -75.5t-174.5 -25.5q-140 0 -247.5 48t-179.5 133l130 144q55 -60 130 -93.5t160 -33.5q52 0 97.5 13.5t79.5 41t53.5 68.5t19.5 96q0 51 -21 90.5t-57.5 66.5t-86 41t-105.5 14h-156v197h157
q51 0 95 13.5t77 39.5t51.5 64.5t18.5 89.5q0 49 -18 88t-50.5 66t-76.5 41t-95 14q-44 0 -82 -11t-70.5 -29t-59 -42t-46.5 -51l-134 141q30 41 70.5 76.5t90.5 61t111.5 40t133.5 14.5q99 0 180.5 -28.5t140 -80.5t91 -124t32.5 -160q0 -115 -55 -196.5t-150 -125.5z" />
    <glyph glyph-name="four" unicode="4" horiz-adv-x="1104" 
d="M858 278v-278h-207v278h-576v164l459 957h230l-444 -924h331v358h207v-358h187v-197h-187z" />
    <glyph glyph-name="five" unicode="5" horiz-adv-x="1104" 
d="M922 1203h-521l-9 -350h137q112 0 197.5 -32.5t143.5 -89t88 -133t30 -164.5q0 -108 -36 -192.5t-98.5 -143t-147.5 -89t-182 -30.5q-138 0 -247 50t-187 146l124 149q27 -32 61 -58.5t73.5 -46t83 -30t88.5 -10.5q61 0 108 18.5t78.5 51t48 76t16.5 94.5q0 49 -16 92
t-51.5 75.5t-92.5 51t-139 18.5h-275l16 744h709v-197z" />
    <glyph glyph-name="six" unicode="6" horiz-adv-x="1104" 
d="M585 897q92 0 171.5 -34.5t138.5 -95.5t92.5 -144.5t33.5 -181.5q0 -100 -35.5 -184.5t-98 -146t-148.5 -96.5t-188 -35q-101 0 -187 34.5t-149 96t-98.5 146t-35.5 183.5q0 89 28 174t84 179l363 608h244l-320 -517q23 7 48.5 10.5t56.5 3.5zM551 176q56 0 102.5 19.5
t80.5 54t52.5 83t18.5 107.5q0 58 -19 107t-52.5 83.5t-80.5 54t-102 19.5q-56 0 -102.5 -19.5t-80 -54t-52.5 -83.5t-19 -107q0 -59 19 -107.5t52.5 -83t80 -54t102.5 -19.5z" />
    <glyph glyph-name="seven" unicode="7" horiz-adv-x="1104" 
d="M990 1228l-535 -1228h-239l531 1199h-630v201h873v-172z" />
    <glyph glyph-name="eight" unicode="8" horiz-adv-x="1104" 
d="M809 707q49 -20 91.5 -49.5t74 -70t50 -92.5t18.5 -117q0 -95 -38.5 -169t-104.5 -125t-155 -78t-189 -27q-101 0 -189.5 27t-154.5 78t-104.5 125t-38.5 169q0 65 18.5 117t50 92.5t74 70t90.5 49.5q-43 21 -80 50.5t-64.5 68.5t-43 89t-15.5 111q0 93 36 166.5t98 124
t145 77t178 26.5q94 0 177.5 -26.5t145 -77t97.5 -124t36 -166.5q0 -61 -15.5 -111t-43 -89t-64.5 -68.5t-80 -50.5zM556 1223q-50 0 -93.5 -13.5t-76 -39.5t-51 -66t-18.5 -92q0 -53 18.5 -93.5t51 -67.5t76 -40.5t93.5 -13.5t93.5 13.5t76 40.5t51 67.5t18.5 93.5
q0 52 -19 92t-51 66t-76 39.5t-93 13.5zM556 175q55 0 103 14t84 41.5t57 69t21 95.5t-21 94.5t-57 68t-84 41.5t-103 14t-103.5 -14t-84.5 -41.5t-57 -68t-21 -94.5t21 -95.5t57 -69t84.5 -41.5t103.5 -14z" />
    <glyph glyph-name="nine" unicode="9" horiz-adv-x="1104" 
d="M556 1421q102 0 188 -35t148.5 -96.5t98 -145.5t35.5 -183q0 -89 -28.5 -174t-83.5 -179l-362 -608h-245l321 517q-47 -14 -106 -14q-92 0 -171.5 34.5t-138.5 95.5t-92.5 144.5t-33.5 181.5q0 100 35.5 184.5t98 146t148.5 96.5t188 35zM556 696q56 0 102.5 19.5
t80.5 54t52.5 83t18.5 107.5q0 58 -18.5 107t-52.5 83.5t-80.5 54t-102.5 19.5t-102.5 -19.5t-80 -54t-52.5 -83.5t-19 -107q0 -59 19 -107.5t52.5 -83t80 -54t102.5 -19.5z" />
    <glyph glyph-name="colon" unicode=":" horiz-adv-x="497" 
d="M249 983q31 0 58.5 -12t48 -33t32.5 -48.5t12 -58.5t-12 -58.5t-32.5 -48.5t-48 -33t-58.5 -12t-58.5 12t-48.5 33t-33 49t-12 59t12 58.5t33 48t48.5 32.5t58.5 12zM249 284q31 0 58.5 -12t48 -33t32.5 -48.5t12 -58.5t-12 -58.5t-32.5 -48.5t-48 -33t-58.5 -12
t-58.5 12t-48.5 33t-33 49t-12 59t12 58.5t33 48t48.5 32.5t58.5 12z" />
    <glyph glyph-name="semicolon" unicode=";" horiz-adv-x="497" 
d="M249 983q31 0 58.5 -12t48 -33t32.5 -48.5t12 -58.5t-12 -58.5t-32.5 -48.5t-48 -33t-58.5 -12t-58.5 12t-48.5 33t-33 49t-12 59t12 58.5t33 48t48.5 32.5t58.5 12zM375 268l-113 -533h-170l57 533h226z" />
    <glyph glyph-name="less" unicode="&#x3c;" horiz-adv-x="1104" 
d="M181 442v180l722 340v-201l-523 -229l523 -231v-202z" />
    <glyph glyph-name="equal" unicode="=" horiz-adv-x="1104" 
d="M946 630h-788v175h788v-175zM946 257h-788v176h788v-176z" />
    <glyph glyph-name="greater" unicode="&#x3e;" horiz-adv-x="1104" 
d="M923 621v-180l-722 -340v201l523 229l-523 231v202z" />
    <glyph glyph-name="question" unicode="?" horiz-adv-x="801" 
d="M270 1425q114 0 204.5 -28.5t154 -81t97 -127.5t33.5 -167q0 -170 -103.5 -273.5t-296.5 -132.5l-8 -158h-178v343h72q137 0 213.5 54.5t76.5 157.5q0 96 -76 148.5t-209 52.5q-35 0 -65 -1t-44 -1l-40 202q35 5 81 8.5t88 3.5zM262 282q30 0 57.5 -12t48 -32.5t32.5 -48
t12 -58.5t-12 -58.5t-32.5 -48.5t-48 -33t-58.5 -12q-30 0 -57.5 12t-48 33t-32.5 49t-12 59t12 58t32.5 47.5t48 32.5t58.5 12z" />
    <glyph glyph-name="at" unicode="@" horiz-adv-x="1776" 
d="M1232 885v-463q0 -91 22.5 -133t69.5 -42q66 0 108 71t42 222q0 139 -43.5 254t-121 197t-185 127.5t-235.5 45.5q-129 0 -236.5 -48.5t-185.5 -136t-121.5 -210t-43.5 -269.5q0 -149 43 -271.5t120 -211t184.5 -137t236.5 -48.5q199 0 358 123l92 -123
q-100 -81 -213.5 -118t-236.5 -37q-167 0 -305.5 61t-238 170.5t-154.5 260.5t-55 331q0 178 55 328.5t155 259.5t239 170t307 61t307 -58t238 -161.5t154 -246.5t55 -313q0 -99 -23 -182t-66 -143t-103.5 -93t-136.5 -33q-49 0 -87 12t-66 33t-47 50t-30 62
q-18 -32 -41 -59t-52.5 -47t-65 -31.5t-78.5 -11.5q-75 0 -136.5 31t-105.5 85t-68.5 127.5t-24.5 159.5q0 85 25 158.5t69 128t104.5 85.5t131.5 31q81 0 136 -38t90 -96v116h164zM877 260q43 0 78.5 17.5t60.5 49t39 75.5t14 98t-14 98t-39 75.5t-60.5 48.5t-78.5 17
t-78.5 -17.5t-60.5 -49t-38.5 -75.5t-13.5 -97t13.5 -97t38.5 -76t60.5 -49.5t78.5 -17.5z" />
    <glyph glyph-name="A" unicode="A" horiz-adv-x="1293" 
d="M922 349h-556l-118 -349h-225l493 1401h262l492 -1401h-230zM854 551l-210 623l-210 -623h420z" />
    <glyph glyph-name="B" unicode="B" horiz-adv-x="1245" 
d="M924 718q51 -17 94 -47t74.5 -71t49 -92.5t17.5 -112.5q0 -101 -34 -175t-97.5 -123t-154 -73t-203.5 -24h-515v1400h490q107 0 196.5 -22.5t154 -69t100 -118.5t35.5 -172q0 -55 -15 -102.5t-42.5 -86t-65.5 -67t-84 -44.5zM372 1201v-395h269q55 0 103 9t84 31.5
t56.5 61t20.5 97.5q0 58 -21 95.5t-57 60t-84.5 31.5t-103.5 9h-267zM664 199q60 0 110 10t85 34t54.5 63.5t19.5 98.5q0 58 -19.5 97.5t-55 63t-85 33.5t-110.5 10h-291v-410h292z" />
    <glyph glyph-name="C" unicode="C" horiz-adv-x="1327" 
d="M736 1422q85 0 163 -20.5t144.5 -58.5t119.5 -93.5t89 -125.5l-185 -105q-53 91 -138 141.5t-193 50.5q-90 0 -166 -35t-131.5 -101t-86.5 -161t-31 -214q0 -120 31 -215t86.5 -161t132 -100.5t166.5 -34.5q106 0 191 49.5t140 141.5l179 -112q-38 -68 -90.5 -121.5
t-118 -91t-141.5 -57.5t-161 -20q-143 0 -260.5 51.5t-202.5 146t-131.5 228t-46.5 296.5t46.5 296.5t131.5 228t202.5 146t260.5 51.5z" />
    <glyph glyph-name="D" unicode="D" horiz-adv-x="1399" 
d="M643 1400q153 0 275.5 -49t208 -140.5t131.5 -221t46 -289.5q0 -161 -46 -290t-131.5 -220.5t-208 -140.5t-275.5 -49h-488v1400h488zM641 204q110 0 192 35.5t136 100.5t81 156.5t27 203.5q0 113 -27 205t-81 156.5t-136 99.5t-192 35h-269v-992h269z" />
    <glyph glyph-name="E" unicode="E" horiz-adv-x="1179" 
d="M1055 201v-201h-900v1400h894v-201h-677v-393h650v-201h-650v-404h683z" />
    <glyph glyph-name="F" unicode="F" horiz-adv-x="1131" 
d="M372 1198v-394h628v-202h-628v-602h-217v1400h883v-202h-666z" />
    <glyph glyph-name="G" unicode="G" horiz-adv-x="1415" 
d="M739 1422q158 0 282.5 -64t205.5 -181l-167 -130q-57 78 -138.5 121.5t-184.5 43.5q-91 0 -167 -34.5t-131.5 -100.5t-86.5 -161t-31 -216q0 -122 31.5 -217.5t87 -161t130.5 -100t163 -34.5q167 0 264 97t116 284h-336v196h559q3 -35 3 -78q0 -158 -43 -288.5
t-121.5 -223.5t-190 -144t-249.5 -51q-129 0 -245.5 47t-204 138.5t-139 226t-51.5 309.5q0 164 47 297.5t132.5 228t203.5 145.5t261 51z" />
    <glyph glyph-name="H" unicode="H" horiz-adv-x="1391" 
d="M1236 1400v-1400h-217v604h-647v-604h-217v1400h217v-593h647v593h217z" />
    <glyph glyph-name="I" unicode="I" horiz-adv-x="527" 
d="M372 0h-217v1400h217v-1400z" />
    <glyph glyph-name="J" unicode="J" horiz-adv-x="1007" 
d="M859 461q0 -117 -33.5 -207t-93.5 -151t-142 -92.5t-178 -31.5q-73 0 -133 15t-108 40t-84 56t-62 64l128 155q40 -51 101 -85.5t147 -34.5q55 0 99 18t75.5 54.5t48.5 91t17 128.5v919h218v-939z" />
    <glyph glyph-name="K" unicode="K" horiz-adv-x="1272" 
d="M494 603h-122v-603h-217v1400h217v-594h126l459 594h267l-549 -685l585 -715h-278z" />
    <glyph glyph-name="L" unicode="L" horiz-adv-x="1077" 
d="M1046 203v-203h-891v1400h217v-1197h674z" />
    <glyph glyph-name="M" unicode="M" horiz-adv-x="1675" 
d="M1520 0h-216v1121l-358 -891h-217l-358 884v-1114h-216v1401h315l367 -907l367 907h316v-1401z" />
    <glyph glyph-name="N" unicode="N" horiz-adv-x="1406" 
d="M1251 -1h-204l-676 996v-995h-216v1401h204l676 -999v998h216v-1401z" />
    <glyph glyph-name="O" unicode="O" horiz-adv-x="1477" 
d="M739 1422q144 0 262 -52t203 -146.5t131.5 -227.5t46.5 -296t-46.5 -296t-131.5 -227.5t-203 -146.5t-262 -52t-262.5 52t-203.5 146.5t-131.5 227.5t-46.5 296t46.5 296t131.5 227.5t203.5 146.5t262.5 52zM739 1211q-92 0 -168.5 -35t-132 -101t-86.5 -161t-31 -214
t31 -214t86.5 -161t132 -101t168.5 -35q91 0 167.5 35t132 101t86.5 161t31 214t-31 214t-86.5 161t-132 101t-167.5 35z" />
    <glyph glyph-name="P" unicode="P" horiz-adv-x="1190" 
d="M637 1400q113 0 202 -29.5t150 -85t93 -135.5t32 -181q0 -100 -32 -179.5t-93 -135t-149.5 -85t-201.5 -29.5h-266v-540h-217v1400h482zM634 741q124 0 190 56t66 172t-66 172t-191 56h-261v-456h262z" />
    <glyph glyph-name="Q" unicode="Q" horiz-adv-x="1482" 
d="M1192 0l-70 101q-78 -60 -174.5 -92t-208.5 -32q-144 0 -262.5 52t-203.5 146.5t-131.5 228t-46.5 296.5t46.5 296.5t131.5 228t203.5 146.5t262.5 52t262 -52t203 -146.5t131.5 -228t46.5 -296.5q0 -135 -31 -247.5t-89 -201.5l167 -251h-237zM321 700q0 -120 31 -215
t86.5 -161t132 -101t168.5 -35q76 0 141.5 24t117.5 71l-261 380h250l131 -199q38 103 38 236q0 120 -31 215t-86.5 161t-132 101t-167.5 35q-92 0 -168.5 -35t-132 -101t-86.5 -161t-31 -215z" />
    <glyph glyph-name="R" unicode="R" horiz-adv-x="1219" 
d="M477 581h-105v-581h-217v1400h501q113 0 201.5 -27.5t149 -80t92 -129t31.5 -175.5q0 -87 -28.5 -158t-82 -123.5t-129.5 -84t-171 -39.5l416 -583h-260zM372 774h282q123 0 187.5 53t64.5 161q0 107 -65.5 158.5t-186.5 51.5h-282v-424z" />
    <glyph glyph-name="S" unicode="S" horiz-adv-x="1209" 
d="M976 1096q-71 54 -156.5 85.5t-185.5 31.5q-60 0 -110.5 -14t-87 -40t-56.5 -63t-20 -84q0 -80 65 -125t193 -71l104 -22q84 -18 156.5 -48.5t125 -77.5t82.5 -112t30 -151q0 -103 -40 -182.5t-110 -133.5t-163.5 -82t-200.5 -28q-73 0 -144.5 13.5t-137.5 38t-123.5 60
t-103.5 80.5l133 160q31 -30 72 -56.5t89.5 -46t102.5 -31t110 -11.5q61 0 114 13.5t92 39.5t61 63.5t22 85.5q0 81 -66 127t-197 73l-113 23q-85 18 -155 50.5t-119.5 81t-77 113t-27.5 147.5q0 97 38.5 174.5t105.5 131.5t158.5 82.5t197.5 28.5q143 0 257 -42t209 -117z
" />
    <glyph glyph-name="T" unicode="T" horiz-adv-x="1087" 
d="M1056 1197h-404v-1197h-217v1197h-404v203h1025v-203z" />
    <glyph glyph-name="U" unicode="U" horiz-adv-x="1347" 
d="M1207 506q0 -129 -39.5 -227t-110.5 -165t-168.5 -101t-214.5 -34t-215 34t-169 101t-110.5 165t-39.5 227v894h217v-880q0 -86 23.5 -148.5t65.5 -103t100 -60t128 -19.5q69 0 127 19.5t100 60t65.5 103t23.5 148.5v880h217v-894z" />
    <glyph glyph-name="V" unicode="V" horiz-adv-x="1277" 
d="M1254 1400l-483 -1401h-265l-483 1401h230l388 -1166l388 1166h225z" />
    <glyph glyph-name="W" unicode="W" horiz-adv-x="1968" 
d="M1931 1400l-387 -1401h-264l-296 1076l-297 -1076h-264l-386 1401h227l296 -1134l307 1135h237l307 -1136l297 1135h223z" />
    <glyph glyph-name="X" unicode="X" horiz-adv-x="1222" 
d="M931 0l-322 546l-323 -546h-246l435 713l-420 687h250l308 -522l308 522h247l-421 -687l435 -713h-251z" />
    <glyph glyph-name="Y" unicode="Y" horiz-adv-x="1200" 
d="M711 553v-553h-217v556l-487 844h252l345 -608l344 608h245z" />
    <glyph glyph-name="Z" unicode="Z" horiz-adv-x="1155" 
d="M1061 1231l-694 -1029h695v-202h-969v169l695 1029h-690v202h963v-169z" />
    <glyph glyph-name="bracketleft" unicode="[" horiz-adv-x="677" 
d="M359 1214v-1291h256v-186h-460v1663h460v-186h-256z" />
    <glyph glyph-name="backslash" unicode="\" horiz-adv-x="930" 
d="M-27 1540h215l764 -1740h-215z" />
    <glyph glyph-name="bracketright" unicode="]" horiz-adv-x="677" 
d="M522 -263h-460v186h256v1291h-256v186h460v-1663z" />
    <glyph glyph-name="asciicircum" unicode="^" horiz-adv-x="1092" 
d="M751 714l-207 485l-207 -485h-198l318 686h178l318 -686h-202z" />
    <glyph glyph-name="underscore" unicode="_" horiz-adv-x="841" 
d="M846 -298h-851v181h851v-181z" />
    <glyph glyph-name="grave" unicode="`" horiz-adv-x="829" 
d="M204 1406h239l186 -308h-190z" />
    <glyph glyph-name="a" unicode="a" horiz-adv-x="1107" 
d="M972 962v-962h-200v135q-45 -71 -112.5 -113.5t-164.5 -42.5q-90 0 -166.5 36.5t-132 102.5t-87 158.5t-31.5 204.5t31.5 204.5t87 158.5t132 102.5t166.5 36.5q97 0 164.5 -42.5t112.5 -113.5v135h200zM533 172q55 0 101 22t78 62t50 97t18 128q0 70 -18 127.5t-50 97.5
t-78 62t-101 22q-57 0 -102.5 -22.5t-78 -63t-49.5 -97.5t-17 -126t17 -126t49.5 -97.5t78 -63t102.5 -22.5z" />
    <glyph glyph-name="b" unicode="b" horiz-adv-x="1107" 
d="M611 983q90 0 166.5 -36.5t132.5 -102.5t87.5 -158.5t31.5 -204.5t-31.5 -204.5t-87.5 -158.5t-132.5 -102.5t-166.5 -36.5q-96 0 -163.5 42.5t-112.5 111.5v-133h-200v1440h204v-605q45 67 111.5 107.5t160.5 40.5zM574 172q57 0 102.5 22.5t78 63t49.5 97.5t17 126
t-17 126t-49.5 97.5t-78 63t-102.5 22.5q-56 0 -101.5 -22t-78 -62t-50.5 -97.5t-18 -127.5q0 -71 18 -128t50.5 -97t78 -62t101.5 -22z" />
    <glyph glyph-name="c" unicode="c" horiz-adv-x="911" 
d="M531 983q101 0 186.5 -39.5t142.5 -114.5l-133 -129q-42 43 -89.5 67t-107.5 24q-53 0 -98 -21t-78 -61t-51.5 -97.5t-18.5 -130.5t18.5 -130.5t51.5 -97.5t78 -61t97 -21q60 0 111 25.5t90 66.5l130 -130q-58 -75 -143 -114.5t-186 -39.5q-102 0 -186 36.5t-143 102.5
t-91.5 158.5t-32.5 204.5t32.5 204.5t91.5 158.5t143 102.5t186 36.5z" />
    <glyph glyph-name="d" unicode="d" horiz-adv-x="1107" 
d="M972 1440v-1440h-200v135q-45 -71 -112.5 -113.5t-164.5 -42.5q-90 0 -166.5 36.5t-132 102.5t-87 158.5t-31.5 204.5t31.5 204.5t87 158.5t132 102.5t166.5 36.5q95 0 162 -41t112 -110v608h203zM533 172q55 0 101 22t78 62t50 97t18 128q0 70 -18 127.5t-50 97.5
t-78 62t-101 22q-57 0 -102.5 -22.5t-78 -63t-49.5 -97.5t-17 -126t17 -126t49.5 -97.5t78 -63t102.5 -22.5z" />
    <glyph glyph-name="e" unicode="e" horiz-adv-x="1009" 
d="M931 483q0 -19 -1 -37.5t-3 -35.5h-641q8 -65 31 -112.5t57 -78.5t77 -45.5t93 -14.5q69 0 132.5 25.5t114.5 70.5l103 -142q-79 -73 -170.5 -103.5t-193.5 -30.5q-101 0 -184.5 35t-143 100t-92 157.5t-32.5 208.5q0 115 31.5 208t89.5 158.5t138 101t178 35.5
q93 0 169.5 -35t131 -100.5t85 -158t30.5 -206.5zM728 561q-14 115 -70 177.5t-146 62.5q-97 0 -154 -63.5t-71 -176.5h441z" />
    <glyph glyph-name="f" unicode="f" horiz-adv-x="771" 
d="M418 962h298v-185h-298v-777h-202v777h-176v185h176v155q0 77 19.5 140.5t57.5 108.5t95.5 70t133.5 25q81 0 142 -20t108 -49l-71 -167q-33 19 -72.5 31.5t-82.5 12.5q-65 0 -96.5 -39t-31.5 -114v-154z" />
    <glyph glyph-name="g" unicode="g" horiz-adv-x="1096" 
d="M961 962v-901q0 -110 -33 -195t-94 -143.5t-146 -89t-190 -30.5q-107 0 -204.5 29.5t-164.5 84.5l81 165q59 -43 129.5 -68t151.5 -25q61 0 110.5 17t84.5 50.5t54.5 82.5t19.5 114v110q-46 -71 -116.5 -111t-167.5 -40q-80 0 -152.5 33.5t-127 96.5t-86.5 153t-32 203
q0 112 32 202t86.5 153t127 96.5t152.5 33.5q97 0 168.5 -41t117.5 -114v134h199zM529 204q55 0 100 21t77 59.5t49.5 92.5t17.5 120t-17.5 120.5t-49.5 93t-77 59.5t-100 21q-56 0 -101 -21.5t-76.5 -60.5t-48.5 -93t-17 -119t17 -118.5t48.5 -92.5t76.5 -60.5t101 -21.5z
" />
    <glyph glyph-name="h" unicode="h" horiz-adv-x="1077" 
d="M608 983q76 0 139 -25t108 -70.5t70 -110t25 -143.5v-634h-204v573q0 106 -52 161.5t-144 55.5q-44 0 -82.5 -14.5t-67 -43t-45 -69.5t-16.5 -93v-570h-204v1440h204v-598q24 39 55 66t66 43.5t72.5 24t75.5 7.5z" />
    <glyph glyph-name="i" unicode="i" horiz-adv-x="472" 
d="M337 0h-202v962h202v-962zM235 1424q28 0 52.5 -10.5t42.5 -28.5t28.5 -43t10.5 -53q0 -29 -10.5 -53t-28.5 -42t-42.5 -28t-52.5 -10q-29 0 -53 10t-42 28t-28 42.5t-10 53.5q0 28 10 52.5t28 42.5t42 28.5t53 10.5z" />
    <glyph glyph-name="j" unicode="j" horiz-adv-x="475" 
d="M340 -119q0 -68 -18 -120t-51 -87.5t-78.5 -53.5t-100.5 -18q-39 0 -77 8t-65 21l40 178q15 -7 32.5 -11t36.5 -4q35 0 57 23t22 77v1068h202v-1081zM237 1424q28 0 52.5 -10.5t42.5 -28.5t28.5 -43t10.5 -53q0 -29 -10.5 -53t-28.5 -42t-42.5 -28t-52.5 -10
q-29 0 -53 10t-42 28t-28 42.5t-10 53.5q0 28 10 52.5t28 42.5t42 28.5t53 10.5z" />
    <glyph glyph-name="k" unicode="k" horiz-adv-x="982" 
d="M432 408h-95v-408h-202v1440h202v-843h97l276 365h245l-357 -455l362 -507h-246z" />
    <glyph glyph-name="l" unicode="l" horiz-adv-x="472" 
d="M337 0h-202v1440h202v-1440z" />
    <glyph glyph-name="m" unicode="m" horiz-adv-x="1686" 
d="M1215 983q77 0 140.5 -25t109 -70.5t70.5 -110t25 -143.5v-634h-203v573q0 106 -52.5 161.5t-144.5 55.5q-44 0 -82 -14.5t-66.5 -43t-45 -69.5t-16.5 -93v-570h-204v573q0 106 -52 161.5t-144 55.5q-44 0 -82.5 -14.5t-67 -43t-45 -69.5t-16.5 -93v-570h-204v962h199
v-128q24 42 55.5 70.5t67 46t74 25t77.5 7.5q102 0 179 -43.5t119 -121.5q26 46 61 77.5t75.5 51t84.5 28t88 8.5z" />
    <glyph glyph-name="n" unicode="n" horiz-adv-x="1076" 
d="M608 983q76 0 138.5 -25t107.5 -70.5t70 -110t25 -143.5v-634h-203v573q0 106 -52 161.5t-145 55.5q-44 0 -82 -14.5t-66.5 -43t-45 -69.5t-16.5 -93v-570h-204v962h198v-130q24 42 55.5 71t67.5 46.5t74.5 25.5t77.5 8z" />
    <glyph glyph-name="o" unicode="o" horiz-adv-x="1078" 
d="M539 983q101 0 186 -36.5t146 -102.5t95 -158.5t34 -204.5t-34 -204.5t-95 -158.5t-146 -102.5t-186 -36.5t-186 36.5t-146 102.5t-95 158.5t-34 204.5t34 204.5t95 158.5t146 102.5t186 36.5zM539 791q-56 0 -102.5 -21.5t-80.5 -62t-53 -97.5t-19 -129t19 -129.5
t53 -97.5t80.5 -61.5t102.5 -21.5q55 0 102 21.5t81.5 61.5t53.5 97.5t19 129.5t-19 129t-53.5 97.5t-81.5 62t-102 21.5z" />
    <glyph glyph-name="p" unicode="p" horiz-adv-x="1107" 
d="M611 983q90 0 166.5 -36.5t132.5 -102.5t87.5 -158.5t31.5 -204.5t-31.5 -204.5t-87.5 -158.5t-132.5 -102.5t-166.5 -36.5q-94 0 -160.5 40.5t-111.5 107.5v-511h-204v1346h200v-133q45 69 112.5 111.5t163.5 42.5zM574 172q57 0 102.5 22.5t78 63t49.5 97.5t17 126
t-17 126t-49.5 97.5t-78 63t-102.5 22.5q-56 0 -101.5 -22t-78 -62t-50.5 -97.5t-18 -127.5q0 -71 18 -128t50.5 -97t78 -62t101.5 -22z" />
    <glyph glyph-name="q" unicode="q" horiz-adv-x="1107" 
d="M972 962v-1346h-203v514q-45 -69 -112 -110t-162 -41q-90 0 -166.5 36.5t-132 102.5t-87 158.5t-31.5 204.5t31.5 204.5t87 158.5t132 102.5t166.5 36.5q97 0 164.5 -42.5t112.5 -113.5v135h200zM533 172q55 0 101 22t78 62t50 97t18 128q0 70 -18 127.5t-50 97.5t-78 62
t-101 22q-57 0 -102.5 -22.5t-78 -63t-49.5 -97.5t-17 -126t17 -126t49.5 -97.5t78 -63t102.5 -22.5z" />
    <glyph glyph-name="r" unicode="r" horiz-adv-x="756" 
d="M583 983q38 0 71 -5.5t62 -18.5l-35 -208q-30 14 -67.5 22t-72.5 8q-46 0 -83 -16t-63.5 -47t-41 -75t-14.5 -99v-544h-204v962h198v-123q41 73 104 108.5t146 35.5z" />
    <glyph glyph-name="s" unicode="s" horiz-adv-x="903" 
d="M732 729q-22 14 -51 27.5t-63 24t-71.5 17t-75.5 6.5q-78 0 -122 -30.5t-44 -82.5q0 -50 41 -74.5t117 -38.5l86 -15q140 -25 213.5 -93.5t73.5 -183.5q0 -69 -27.5 -125.5t-79.5 -96.5t-125.5 -62t-164.5 -22q-45 0 -93.5 6t-96.5 19.5t-94.5 35t-87.5 53.5l91 154
q24 -19 52.5 -35.5t62.5 -29t74.5 -19.5t88.5 -7q92 0 143 30.5t51 86.5q0 43 -37 72t-122 44l-87 15q-147 25 -216 99t-69 182q0 69 26 123.5t74 93t115.5 59t150.5 20.5q103 0 191 -25.5t158 -70.5z" />
    <glyph glyph-name="t" unicode="t" horiz-adv-x="819" 
d="M797 63q-51 -36 -117 -60t-150 -24q-74 0 -133 21t-99.5 63.5t-62 107t-21.5 151.5v455h-173v185h173v278h202v-278h329v-185h-329v-443q0 -44 11 -74.5t30 -50.5t45 -29t57 -9q45 0 88 16t78 40z" />
    <glyph glyph-name="u" unicode="u" horiz-adv-x="1063" 
d="M936 382q0 -105 -32.5 -181t-88 -125.5t-129 -73t-155.5 -23.5t-155 23.5t-128.5 73t-88 125.5t-32.5 181v580h202v-565q0 -60 15 -103t42 -70t64 -40t81 -13t81 13t64 40t42.5 70t15.5 103v565h202v-580z" />
    <glyph glyph-name="v" unicode="v" horiz-adv-x="964" 
d="M945 962l-345 -963h-233l-348 963h215l251 -744l251 744h209z" />
    <glyph glyph-name="w" unicode="w" horiz-adv-x="1543" 
d="M1515 962l-299 -962h-231l-215 712l-215 -712h-228l-299 962h212l209 -727l219 727h207l221 -729l210 729h209z" />
    <glyph glyph-name="x" unicode="x" horiz-adv-x="959" 
d="M693 0l-219 340l-215 -340h-232l320 491l-311 471h239l209 -331l208 331h233l-311 -473l318 -489h-239z" />
    <glyph glyph-name="y" unicode="y" horiz-adv-x="990" 
d="M980 962l-660 -1346h-218l291 571l-380 775h222l266 -563l261 563h218z" />
    <glyph glyph-name="z" unicode="z" horiz-adv-x="940" 
d="M838 808l-482 -623h490v-185h-752v152l490 626h-474v184h728v-154z" />
    <glyph glyph-name="braceleft" unicode="{" horiz-adv-x="784" 
d="M669 1221q-41 0 -74.5 -12.5t-57 -37.5t-35 -62.5t-9.5 -86.5l6 -141q5 -117 -41 -196t-149 -116q103 -37 148.5 -116t40.5 -196l-5 -141q-2 -50 10 -87t35 -62.5t56.5 -38t74.5 -12.5h53v-178h-73q-91 0 -160 27t-115 77.5t-68 123t-18 164.5l6 146q4 100 -50.5 151.5
t-150.5 51.5v180q96 0 150.5 51t50.5 152l-6 145q-4 92 18 165t68 123.5t115 77.5t160 27h73v-179h-53z" />
    <glyph glyph-name="bar" unicode="|" horiz-adv-x="632" 
d="M415 -265h-198v1665h198v-1665z" />
    <glyph glyph-name="braceright" unicode="}" horiz-adv-x="784" 
d="M115 -83q41 0 74.5 12.5t57 37.5t35 62.5t9.5 86.5l-6 141q-5 117 41 196t149 116q-103 37 -148.5 116t-40.5 196l5 141q2 49 -10 86.5t-35 63t-56.5 38t-74.5 12.5h-53v178h73q91 0 160 -27t115 -77.5t68 -123.5t18 -164l-6 -146q-4 -101 50.5 -152t150.5 -51v-180
q-96 0 -150.5 -51.5t-50.5 -151.5l6 -145q4 -92 -18 -165t-68 -123.5t-115 -77.5t-160 -27h-73v179h53z" />
    <glyph glyph-name="asciitilde" unicode="~" horiz-adv-x="1092" 
d="M961 538q-52 -69 -113.5 -101.5t-142.5 -32.5q-60 0 -102 12t-77 27t-68.5 27t-77.5 12q-36 0 -69 -18.5t-69 -56.5l-112 117q52 69 113.5 101t142.5 32q61 0 103 -12t76.5 -26.5t68 -26.5t77.5 -12q37 0 69.5 18.5t68.5 56.5z" />
    <glyph glyph-name="uni00A0" unicode="&#xa0;" horiz-adv-x="457" 
 />
    <glyph glyph-name="exclamdown" unicode="&#xa1;" horiz-adv-x="498" 
d="M249 681q-31 0 -58 12t-47.5 32.5t-32.5 48t-12 58.5t12 58.5t32.5 48t47.5 32.5t58 12t58.5 -12t48 -33t32.5 -48.5t12 -58.5t-12 -58t-32.5 -47.5t-48 -32.5t-58.5 -12zM161 505h177l28 -942h-233z" />
    <glyph glyph-name="cent" unicode="&#xa2;" horiz-adv-x="1253" 
d="M762 393q45 10 83.5 31.5t70.5 52.5l118 -135q-51 -58 -119 -93.5t-153 -45.5v-203h-175v210q-83 17 -150 59.5t-114 106t-72 146t-25 178.5t25 178.5t72 146t114 106t150 59.5v210h175v-203q85 -10 153.5 -45.5t118.5 -93.5l-121 -134q-34 32 -71 53t-80 30v-614z
M426 700q0 -110 44 -185t117 -107v584q-73 -32 -117 -107t-44 -185z" />
    <glyph glyph-name="sterling" unicode="&#xa3;" horiz-adv-x="1253" 
d="M521 199h572v-199h-934v199h153v412h-152v179h152v146q0 121 35 212t95.5 151.5t141.5 90.5t174 30q100 0 187 -33.5t149 -100.5l-126 -153q-79 85 -202 85q-53 0 -98 -17t-77.5 -53t-51 -92t-18.5 -134v-132h432v-179h-432v-412z" />
    <glyph glyph-name="currency" unicode="&#xa4;" horiz-adv-x="1253" 
d="M1045 700q0 -69 -18.5 -130.5t-53.5 -113.5l136 -137l-114 -116l-134 137q-51 -34 -109 -53t-124 -19t-124.5 19t-108.5 53l-135 -137l-114 116l136 137q-35 52 -53.5 113.5t-18.5 130.5q0 68 18.5 129.5t52.5 113.5l-136 138l114 115l136 -137q50 34 108.5 53t124.5 19
q65 0 123.5 -18.5t108.5 -52.5l134 136l115 -115l-136 -137q35 -53 53.5 -114t18.5 -130zM372 700q0 -57 19.5 -106.5t54 -86t81 -57.5t101.5 -21q54 0 100.5 21t81 57.5t54.5 86t20 106.5t-20 106t-54.5 85.5t-81 57.5t-100.5 21q-55 0 -101.5 -21t-81 -57.5t-54 -85.5
t-19.5 -106z" />
    <glyph glyph-name="yen" unicode="&#xa5;" horiz-adv-x="1253" 
d="M800 764h272v-157h-336v-161h336v-157h-336v-289h-207v289h-337v157h337v161h-337v157h269l-391 636h240l322 -536l317 536h235z" />
    <glyph glyph-name="brokenbar" unicode="&#xa6;" horiz-adv-x="632" 
d="M415 706h-198v694h198v-694zM415 -265h-198v694h198v-694z" />
    <glyph glyph-name="section" unicode="&#xa7;" horiz-adv-x="1167" 
d="M911 333q56 -40 87.5 -96t31.5 -133q0 -88 -36.5 -155.5t-99 -113t-146 -69t-177.5 -23.5q-67 0 -131.5 11t-123.5 32.5t-111 52.5t-93 70l117 148q29 -26 66.5 -49t81 -40.5t92.5 -27.5t102 -10q54 0 100 10t80 29.5t53.5 48.5t19.5 67q0 33 -18 57.5t-51 43t-80 32
t-106 25.5l-95 19q-76 15 -138.5 41.5t-107 66t-69 93t-24.5 121.5q0 80 38.5 143t104.5 105q-56 42 -86.5 100t-30.5 136q0 81 34.5 146t95 110.5t142.5 70.5t177 25q128 0 231 -37.5t188 -105.5l-108 -152q-63 47 -140 77.5t-169 30.5q-53 0 -98 -10.5t-78 -31t-51.5 -49
t-18.5 -64.5q0 -34 16.5 -59t48.5 -44t79 -33t108 -25l86 -16q75 -14 139.5 -39t111.5 -63t73.5 -91t26.5 -122q0 -84 -39 -147.5t-105 -105.5zM338 596q0 -65 64.5 -100.5t185.5 -57.5l86 -16q14 -2 26.5 -5t25.5 -6q58 21 91.5 61t33.5 96q0 33 -17.5 57t-50 42
t-79.5 31.5t-105 24.5l-94 18q-12 2 -23 5t-22 5q-57 -21 -89.5 -60.5t-32.5 -94.5z" />
    <glyph glyph-name="dieresis" unicode="&#xa8;" horiz-adv-x="884" 
d="M241 1382q28 0 52.5 -10.5t42.5 -28.5t28 -43t10 -53t-10 -52t-28 -41.5t-42.5 -27.5t-52.5 -10t-52 10t-42 28t-28 42t-10 53q0 28 10 52t28 42t42 28.5t52 10.5zM636 1382q28 0 52.5 -10.5t42.5 -28.5t28 -43t10 -53t-10 -52t-28 -41.5t-42.5 -27.5t-52.5 -10t-52 10
t-42 28t-28 42t-10 53q0 28 10 52t28 42t42 28.5t52 10.5z" />
    <glyph glyph-name="copyright" unicode="&#xa9;" horiz-adv-x="1859" 
d="M930 1515q113 0 217 -29t194.5 -81.5t165 -126t127.5 -163t82 -192t29 -213.5t-29 -214t-82 -193t-127.5 -163.5t-165 -126t-194.5 -81.5t-217 -29t-217 29t-195 81.5t-165.5 126t-127.5 163.5t-82 193t-29 214t29 213.5t82 192t127.5 163t165.5 126t195 81.5t217 29z
M930 1332q-87 0 -167 -22t-149.5 -62.5t-126.5 -97.5t-97.5 -126t-63 -148.5t-22.5 -165.5q0 -130 49 -244t134 -198.5t199 -133.5t244 -49t244 49t199 133.5t134 198.5t49 244q0 86 -22.5 165.5t-63 148.5t-97.5 126t-126.5 97.5t-150 62.5t-166.5 22zM1145 849
q-33 53 -83.5 81.5t-115.5 28.5q-50 0 -92 -18.5t-73.5 -51.5t-49 -79t-17.5 -101q0 -61 19 -107.5t51 -78t74 -47.5t88 -16q64 0 116 28.5t87 81.5l145 -107q-56 -82 -143.5 -129.5t-202.5 -47.5q-92 0 -169.5 31.5t-134 87.5t-88.5 133.5t-32 170.5t32 171t88.5 134.5
t134 87.5t169.5 31q56 0 108.5 -13t98 -37.5t83 -60t63.5 -80.5z" />
    <glyph glyph-name="ordfeminine" unicode="&#xaa;" horiz-adv-x="719" 
d="M343 1291q63 0 116.5 -16.5t91.5 -51t59.5 -86.5t21.5 -124v-419h-160v81q-32 -41 -78.5 -68.5t-115.5 -27.5q-51 0 -91.5 15.5t-69 43.5t-44 67t-15.5 87q0 97 69 152.5t197 55.5h141v1q0 71 -36.5 105.5t-105.5 34.5q-51 0 -92.5 -18t-72.5 -41l-67 127q48 38 111.5 60
t140.5 22zM324 717q45 0 82 23t63 59v85h-121q-63 0 -91 -24.5t-28 -59.5t24 -59t71 -24z" />
    <glyph glyph-name="guillemotleft" unicode="&#xab;" horiz-adv-x="1003" 
d="M890 157h-210l-181 374l181 374h210l-182 -374zM492 157h-210l-181 374l181 374h210l-182 -374z" />
    <glyph glyph-name="logicalnot" unicode="&#xac;" horiz-adv-x="1104" 
d="M930 164h-181v277h-606v180h788z" />
    <glyph glyph-name="uni00AD" unicode="&#xad;" horiz-adv-x="735" 
d="M627 439h-518v184h518v-184z" />
    <glyph glyph-name="registered" unicode="&#xae;" horiz-adv-x="995" 
d="M498 1440q90 0 168.5 -33.5t136.5 -91.5t91.5 -136t33.5 -166t-33.5 -165.5t-92 -135.5t-136.5 -92t-168 -34q-91 0 -170 34t-137 92t-91.5 135.5t-33.5 165.5t33.5 166t91.5 136t137 91.5t170 33.5zM498 701q63 0 118.5 24.5t96.5 67t65 99t24 121.5q0 64 -24 121
t-65 99.5t-96.5 67t-118.5 24.5q-64 0 -120 -24.5t-97.5 -67t-65.5 -99.5t-24 -121q0 -65 24 -121.5t65.5 -99t97.5 -67t120 -24.5zM679 1078q0 -46 -29 -77.5t-85 -40.5l118 -141h-119l-106 138h-20v-138h-100v388h183q77 0 117.5 -35t40.5 -94zM438 1039h81q26 0 41.5 9.5
t15.5 29.5t-15.5 30.5t-41.5 10.5h-81v-80z" />
    <glyph glyph-name="macron" unicode="&#xaf;" horiz-adv-x="748" 
d="M86 1332h576v-170h-576v170z" />
    <glyph glyph-name="degree" unicode="&#xb0;" horiz-adv-x="848" 
d="M424 753q-71 0 -133 25.5t-107.5 70.5t-72 106t-26.5 133q0 71 26.5 132.5t72 106.5t107.5 70.5t133 25.5q70 0 132 -25.5t107.5 -70.5t72 -106.5t26.5 -132.5q0 -72 -26.5 -133t-72 -106t-107.5 -70.5t-132 -25.5zM424 905q36 0 67.5 14t55.5 38.5t38 58t14 72.5
q0 38 -14 71t-38 57.5t-55.5 38.5t-67.5 14t-68 -14t-56 -38.5t-38 -57.5t-14 -71q0 -39 14 -72.5t38 -58t56 -38.5t68 -14z" />
    <glyph glyph-name="plusminus" unicode="&#xb1;" horiz-adv-x="1104" 
d="M946 728v-180h-304v-253h-182v253h-302v180h302v294h182v-294h304zM157 197h789v-175h-789v175z" />
    <glyph glyph-name="uni00B2" unicode="&#xb2;" horiz-adv-x="634" 
d="M50 1283q16 21 39.5 43.5t55 41.5t71.5 31t91 12q60 0 107.5 -18t80.5 -50.5t51 -78.5t18 -102q0 -36 -7.5 -67.5t-22 -60.5t-36.5 -58t-51 -59l-151 -159h284v-148h-495v125l260 280q28 31 44 64t16 68q0 49 -30.5 80.5t-82.5 31.5q-51 0 -86 -24.5t-63 -56.5z" />
    <glyph glyph-name="uni00B3" unicode="&#xb3;" horiz-adv-x="640" 
d="M446 1008q60 -24 94.5 -70.5t34.5 -109.5q0 -59 -23.5 -102t-63 -71.5t-90.5 -42.5t-105 -14q-81 0 -146 27t-108 77l88 107q31 -32 71.5 -49.5t86.5 -17.5q26 0 49 6t40.5 18.5t28 31.5t10.5 45q0 23 -11 40.5t-30 29.5t-44 18t-53 6h-87v142h88q53 0 88 24t35 70
q0 44 -32.5 68.5t-86.5 24.5q-52 0 -90 -21.5t-62 -50.5l-84 111q40 47 99.5 76.5t147.5 29.5q59 0 108.5 -16t85 -45.5t55.5 -70.5t20 -91q0 -63 -30 -108.5t-84 -71.5z" />
    <glyph glyph-name="acute" unicode="&#xb4;" horiz-adv-x="876" 
d="M224 1098l186 308h239l-235 -308h-190z" />
    <glyph glyph-name="mu" unicode="&#xb5;" horiz-adv-x="1075" 
d="M940 962v-962h-196v131q-24 -42 -55.5 -71t-67 -47t-74.5 -26t-78 -8q-82 0 -149 29v-392h-193v1346h202v-573q0 -106 52 -162.5t146 -56.5q44 0 82.5 15t67 43.5t45 69.5t16.5 94v570h202z" />
    <glyph glyph-name="paragraph" unicode="&#xb6;" horiz-adv-x="1113" 
d="M648 0h-154v663q-94 1 -166.5 28t-121.5 75t-74 116t-25 152q0 83 25.5 150.5t74.5 115.5t121 74t166 26h154v-1400zM896 1400v-1400h-154v1400h154z" />
    <glyph glyph-name="periodcentered" unicode="&#xb7;" horiz-adv-x="635" 
d="M317 682q31 0 58.5 -12t48 -33t32.5 -48.5t12 -58.5t-12 -58.5t-32.5 -48.5t-48 -33t-58.5 -12t-58.5 12t-48.5 33t-33 49t-12 59t12 58.5t33 48t48.5 32.5t58.5 12z" />
    <glyph glyph-name="cedilla" unicode="&#xb8;" horiz-adv-x="728" 
d="M334 -322h-193l101 339l185 -11z" />
    <glyph glyph-name="uni00B9" unicode="&#xb9;" horiz-adv-x="496" 
d="M373 610h-155v583l-179 -72v155l334 135v-801z" />
    <glyph glyph-name="ordmasculine" unicode="&#xba;" horiz-adv-x="779" 
d="M390 1292q72 0 133 -26t104.5 -73t68 -112.5t24.5 -144.5t-24.5 -144.5t-68 -113t-104.5 -73.5t-133 -26q-73 0 -133.5 26t-104.5 73.5t-68.5 113t-24.5 144.5t24.5 144.5t68.5 112.5t104.5 73t133.5 26zM390 1133q-71 0 -115.5 -51.5t-44.5 -145.5t44.5 -146t115.5 -52
q34 0 63.5 13.5t51 39t33.5 62t12 83.5q0 46 -12 83t-33.5 62t-51 38.5t-63.5 13.5z" />
    <glyph glyph-name="guillemotright" unicode="&#xbb;" horiz-adv-x="1003" 
d="M113 905h210l181 -374l-181 -374h-210l182 374zM511 905h210l181 -374l-181 -374h-210l182 374z" />
    <glyph glyph-name="onequarter" unicode="&#xbc;" horiz-adv-x="1592" 
d="M403 0h-182l804 1400h182zM1469 143h-95v-143h-153v143h-336v114l243 532h168l-232 -505h157v209h153v-209h95v-141zM373 610h-155v583l-179 -72v155l334 135v-801z" />
    <glyph glyph-name="onehalf" unicode="&#xbd;" horiz-adv-x="1615" 
d="M403 0h-182l804 1400h182zM962 673q16 21 39.5 43.5t55 41.5t71.5 31t91 12q60 0 107.5 -18t80.5 -50.5t51 -78.5t18 -102q0 -36 -7.5 -67.5t-22 -60.5t-36.5 -58t-51 -59l-151 -159h284v-148h-495v125l260 280q28 31 44 64t16 68q0 49 -30.5 80.5t-82.5 31.5
q-51 0 -86 -24.5t-63 -56.5zM373 610h-155v583l-179 -72v155l334 135v-801z" />
    <glyph glyph-name="threequarters" unicode="&#xbe;" horiz-adv-x="1660" 
d="M528 0h-182l804 1400h182zM1595 143h-95v-143h-153v143h-336v114l243 532h168l-232 -505h157v209h153v-209h95v-141zM446 1008q60 -24 94.5 -70.5t34.5 -109.5q0 -59 -23.5 -102t-63 -71.5t-90.5 -42.5t-105 -14q-81 0 -146 27t-108 77l88 107q31 -32 71.5 -49.5
t86.5 -17.5q26 0 49 6t40.5 18.5t28 31.5t10.5 45q0 23 -11 40.5t-30 29.5t-44 18t-53 6h-87v142h88q53 0 88 24t35 70q0 44 -32.5 68.5t-86.5 24.5q-52 0 -90 -21.5t-62 -50.5l-84 111q40 47 99.5 76.5t147.5 29.5q59 0 108.5 -16t85 -45.5t55.5 -70.5t20 -91
q0 -63 -30 -108.5t-84 -71.5z" />
    <glyph glyph-name="questiondown" unicode="&#xbf;" horiz-adv-x="801" 
d="M539 681q-30 0 -57.5 12t-48 32.5t-32.5 48t-12 58.5t12 58.5t32.5 48.5t48 33t58.5 12q30 0 57.5 -12t48 -33t32.5 -49t12 -59t-12 -58t-32.5 -47.5t-48 -32.5t-58.5 -12zM531 -462q-114 0 -204.5 28.5t-154 81t-97 127.5t-33.5 167q0 170 103.5 273.5t296.5 132.5
l8 158h178v-343h-72q-137 0 -213.5 -54.5t-76.5 -157.5q0 -96 76 -148.5t209 -52.5q35 0 65 1t44 1l40 -202q-35 -5 -81 -8.5t-88 -3.5z" />
    <glyph glyph-name="Agrave" unicode="&#xc0;" horiz-adv-x="1293" 
d="M922 349h-556l-118 -349h-225l493 1401h262l492 -1401h-230zM854 551l-210 623l-210 -623h420zM365 1817h239l186 -308h-190z" />
    <glyph glyph-name="Aacute" unicode="&#xc1;" horiz-adv-x="1293" 
d="M922 349h-556l-118 -349h-225l493 1401h262l492 -1401h-230zM854 551l-210 623l-210 -623h420zM497 1509l186 308h239l-235 -308h-190z" />
    <glyph glyph-name="Acircumflex" unicode="&#xc2;" horiz-adv-x="1293" 
d="M922 349h-556l-118 -349h-225l493 1401h262l492 -1401h-230zM854 551l-210 623l-210 -623h420zM778 1508l-131 169l-130 -169h-194l204 303h241l204 -303h-194z" />
    <glyph glyph-name="Atilde" unicode="&#xc3;" horiz-adv-x="1293" 
d="M922 349h-556l-118 -349h-225l493 1401h262l492 -1401h-230zM854 551l-210 623l-210 -623h420zM302 1665q46 62 99.5 90.5t122.5 28.5q46 0 79.5 -11t60.5 -23.5t49.5 -23.5t47.5 -11q30 0 57.5 16.5t58.5 49.5l107 -120q-47 -62 -100 -90.5t-123 -28.5q-45 0 -78.5 11
t-60 23.5t-49.5 23.5t-48 11q-30 0 -57.5 -16.5t-58.5 -49.5z" />
    <glyph glyph-name="Adieresis" unicode="&#xc4;" horiz-adv-x="1293" 
d="M922 349h-556l-118 -349h-225l493 1401h262l492 -1401h-230zM854 551l-210 623l-210 -623h420zM446 1793q28 0 52.5 -10.5t42.5 -28.5t28 -43t10 -53t-10 -52t-28 -41.5t-42.5 -27.5t-52.5 -10t-52 10t-42 28t-28 42t-10 53q0 28 10 52t28 42t42 28.5t52 10.5zM841 1793
q28 0 52.5 -10.5t42.5 -28.5t28 -43t10 -53t-10 -52t-28 -41.5t-42.5 -27.5t-52.5 -10t-52 10t-42 28t-28 42t-10 53q0 28 10 52t28 42t42 28.5t52 10.5z" />
    <glyph glyph-name="Aring" unicode="&#xc5;" horiz-adv-x="1293" 
d="M922 349h-556l-118 -349h-225l493 1401h262l492 -1401h-230zM854 551l-210 623l-210 -623h420zM645 1492q-48 0 -90 18t-73.5 48.5t-49.5 72.5t-18 90q0 47 18 88.5t49.5 72t73.5 48.5t90 18t90 -18t73.5 -48.5t50 -72t18.5 -88.5q0 -48 -18.5 -90t-50 -72.5t-73.5 -48.5
t-90 -18zM645 1612q22 0 41.5 8.5t34 23t23 34.5t8.5 43q0 22 -8.5 42t-23 34t-34 22.5t-41.5 8.5q-21 0 -40.5 -8.5t-33.5 -22.5t-22.5 -34t-8.5 -42q0 -23 8.5 -43t22.5 -34.5t33.5 -23t40.5 -8.5z" />
    <glyph glyph-name="AE" unicode="&#xc6;" horiz-adv-x="2000" 
d="M1876 201v-201h-900v309h-516l-190 -309h-252l875 1400h977v-201h-676v-393h649v-201h-649v-404h682zM976 512v639l-392 -639h392z" />
    <glyph glyph-name="Ccedilla" unicode="&#xc7;" horiz-adv-x="1327" 
d="M736 1422q85 0 163 -20.5t144.5 -58.5t119.5 -93.5t89 -125.5l-185 -105q-53 91 -138 141.5t-193 50.5q-90 0 -166 -35t-131.5 -101t-86.5 -161t-31 -214q0 -120 31 -215t86.5 -161t132 -100.5t166.5 -34.5q106 0 191 49.5t140 141.5l179 -112q-38 -68 -90.5 -121.5
t-118 -91t-141.5 -57.5t-161 -20q-143 0 -260.5 51.5t-202.5 146t-131.5 228t-46.5 296.5t46.5 296.5t131.5 228t202.5 146t260.5 51.5zM748 -322h-208l100 328h200z" />
    <glyph glyph-name="Egrave" unicode="&#xc8;" horiz-adv-x="1179" 
d="M1055 201v-201h-900v1400h894v-201h-677v-393h650v-201h-650v-404h683zM319 1817h239l186 -308h-190z" />
    <glyph glyph-name="Eacute" unicode="&#xc9;" horiz-adv-x="1179" 
d="M1055 201v-201h-900v1400h894v-201h-677v-393h650v-201h-650v-404h683zM451 1509l186 308h239l-235 -308h-190z" />
    <glyph glyph-name="Ecircumflex" unicode="&#xca;" horiz-adv-x="1179" 
d="M1055 201v-201h-900v1400h894v-201h-677v-393h650v-201h-650v-404h683zM732 1508l-131 169l-130 -169h-194l204 303h241l204 -303h-194z" />
    <glyph glyph-name="Edieresis" unicode="&#xcb;" horiz-adv-x="1179" 
d="M1055 201v-201h-900v1400h894v-201h-677v-393h650v-201h-650v-404h683zM400 1793q28 0 52.5 -10.5t42.5 -28.5t28 -43t10 -53t-10 -52t-28 -41.5t-42.5 -27.5t-52.5 -10t-52 10t-42 28t-28 42t-10 53q0 28 10 52t28 42t42 28.5t52 10.5zM795 1793q28 0 52.5 -10.5
t42.5 -28.5t28 -43t10 -53t-10 -52t-28 -41.5t-42.5 -27.5t-52.5 -10t-52 10t-42 28t-28 42t-10 53q0 28 10 52t28 42t42 28.5t52 10.5z" />
    <glyph glyph-name="Igrave" unicode="&#xcc;" horiz-adv-x="527" 
d="M372 0h-217v1400h217v-1400zM-18 1817h239l186 -308h-190z" />
    <glyph glyph-name="Iacute" unicode="&#xcd;" horiz-adv-x="527" 
d="M372 0h-217v1400h217v-1400zM121 1509l186 308h239l-235 -308h-190z" />
    <glyph glyph-name="Icircumflex" unicode="&#xce;" horiz-adv-x="527" 
d="M372 0h-217v1400h217v-1400zM395 1508l-131 169l-130 -169h-194l204 303h241l204 -303h-194z" />
    <glyph glyph-name="Idieresis" unicode="&#xcf;" horiz-adv-x="527" 
d="M372 0h-217v1400h217v-1400zM63 1793q28 0 52.5 -10.5t42.5 -28.5t28 -43t10 -53t-10 -52t-28 -41.5t-42.5 -27.5t-52.5 -10t-52 10t-42 28t-28 42t-10 53q0 28 10 52t28 42t42 28.5t52 10.5zM458 1793q28 0 52.5 -10.5t42.5 -28.5t28 -43t10 -53t-10 -52t-28 -41.5
t-42.5 -27.5t-52.5 -10t-52 10t-42 28t-28 42t-10 53q0 28 10 52t28 42t42 28.5t52 10.5z" />
    <glyph glyph-name="Eth" unicode="&#xd0;" horiz-adv-x="1517" 
d="M761 1400q153 0 275.5 -49t208 -140.5t131.5 -221t46 -289.5q0 -161 -46 -290t-131.5 -220.5t-208 -140.5t-275.5 -49h-488v610h-180v191h180v599h488zM759 204q110 0 192 35.5t136 100.5t81 156.5t27 203.5q0 113 -27 205t-81 156.5t-136 99.5t-192 35h-269v-395h326
v-191h-326v-406h269z" />
    <glyph glyph-name="Ntilde" unicode="&#xd1;" horiz-adv-x="1406" 
d="M1251 -1h-204l-676 996v-995h-216v1401h204l676 -999v998h216v-1401zM359 1665q46 62 99.5 90.5t122.5 28.5q46 0 79.5 -11t60.5 -23.5t49.5 -23.5t47.5 -11q30 0 57.5 16.5t58.5 49.5l107 -120q-47 -62 -100 -90.5t-123 -28.5q-45 0 -78.5 11t-60 23.5t-49.5 23.5
t-48 11q-30 0 -57.5 -16.5t-58.5 -49.5z" />
    <glyph glyph-name="Ograve" unicode="&#xd2;" horiz-adv-x="1477" 
d="M739 1422q144 0 262 -52t203 -146.5t131.5 -227.5t46.5 -296t-46.5 -296t-131.5 -227.5t-203 -146.5t-262 -52t-262.5 52t-203.5 146.5t-131.5 227.5t-46.5 296t46.5 296t131.5 227.5t203.5 146.5t262.5 52zM739 1211q-92 0 -168.5 -35t-132 -101t-86.5 -161t-31 -214
t31 -214t86.5 -161t132 -101t168.5 -35q91 0 167.5 35t132 101t86.5 161t31 214t-31 214t-86.5 161t-132 101t-167.5 35zM457 1817h239l186 -308h-190z" />
    <glyph glyph-name="Oacute" unicode="&#xd3;" horiz-adv-x="1477" 
d="M739 1422q144 0 262 -52t203 -146.5t131.5 -227.5t46.5 -296t-46.5 -296t-131.5 -227.5t-203 -146.5t-262 -52t-262.5 52t-203.5 146.5t-131.5 227.5t-46.5 296t46.5 296t131.5 227.5t203.5 146.5t262.5 52zM739 1211q-92 0 -168.5 -35t-132 -101t-86.5 -161t-31 -214
t31 -214t86.5 -161t132 -101t168.5 -35q91 0 167.5 35t132 101t86.5 161t31 214t-31 214t-86.5 161t-132 101t-167.5 35zM589 1509l186 308h239l-235 -308h-190z" />
    <glyph glyph-name="Ocircumflex" unicode="&#xd4;" horiz-adv-x="1477" 
d="M739 1422q144 0 262 -52t203 -146.5t131.5 -227.5t46.5 -296t-46.5 -296t-131.5 -227.5t-203 -146.5t-262 -52t-262.5 52t-203.5 146.5t-131.5 227.5t-46.5 296t46.5 296t131.5 227.5t203.5 146.5t262.5 52zM739 1211q-92 0 -168.5 -35t-132 -101t-86.5 -161t-31 -214
t31 -214t86.5 -161t132 -101t168.5 -35q91 0 167.5 35t132 101t86.5 161t31 214t-31 214t-86.5 161t-132 101t-167.5 35zM870 1508l-131 169l-130 -169h-194l204 303h241l204 -303h-194z" />
    <glyph glyph-name="Otilde" unicode="&#xd5;" horiz-adv-x="1477" 
d="M739 1422q144 0 262 -52t203 -146.5t131.5 -227.5t46.5 -296t-46.5 -296t-131.5 -227.5t-203 -146.5t-262 -52t-262.5 52t-203.5 146.5t-131.5 227.5t-46.5 296t46.5 296t131.5 227.5t203.5 146.5t262.5 52zM739 1211q-92 0 -168.5 -35t-132 -101t-86.5 -161t-31 -214
t31 -214t86.5 -161t132 -101t168.5 -35q91 0 167.5 35t132 101t86.5 161t31 214t-31 214t-86.5 161t-132 101t-167.5 35zM394 1665q46 62 99.5 90.5t122.5 28.5q46 0 79.5 -11t60.5 -23.5t49.5 -23.5t47.5 -11q30 0 57.5 16.5t58.5 49.5l107 -120q-47 -62 -100 -90.5
t-123 -28.5q-45 0 -78.5 11t-60 23.5t-49.5 23.5t-48 11q-30 0 -57.5 -16.5t-58.5 -49.5z" />
    <glyph glyph-name="Odieresis" unicode="&#xd6;" horiz-adv-x="1477" 
d="M739 1422q144 0 262 -52t203 -146.5t131.5 -227.5t46.5 -296t-46.5 -296t-131.5 -227.5t-203 -146.5t-262 -52t-262.5 52t-203.5 146.5t-131.5 227.5t-46.5 296t46.5 296t131.5 227.5t203.5 146.5t262.5 52zM739 1211q-92 0 -168.5 -35t-132 -101t-86.5 -161t-31 -214
t31 -214t86.5 -161t132 -101t168.5 -35q91 0 167.5 35t132 101t86.5 161t31 214t-31 214t-86.5 161t-132 101t-167.5 35zM538 1793q28 0 52.5 -10.5t42.5 -28.5t28 -43t10 -53t-10 -52t-28 -41.5t-42.5 -27.5t-52.5 -10t-52 10t-42 28t-28 42t-10 53q0 28 10 52t28 42
t42 28.5t52 10.5zM933 1793q28 0 52.5 -10.5t42.5 -28.5t28 -43t10 -53t-10 -52t-28 -41.5t-42.5 -27.5t-52.5 -10t-52 10t-42 28t-28 42t-10 53q0 28 10 52t28 42t42 28.5t52 10.5z" />
    <glyph glyph-name="multiply" unicode="&#xd7;" horiz-adv-x="1104" 
d="M798 150l-249 256l-247 -253l-122 124l247 253l-248 255l125 127l248 -254l248 253l121 -124l-247 -253l249 -256z" />
    <glyph glyph-name="Oslash" unicode="&#xd8;" horiz-adv-x="1477" 
d="M1242 1177q67 -93 103.5 -213t36.5 -264q0 -163 -46.5 -296t-131.5 -227.5t-203 -146.5t-262 -52q-110 0 -204.5 30t-172.5 87l-104 -127l-137 111l116 142q-69 93 -105.5 213.5t-36.5 265.5q0 163 46.5 296t131.5 227.5t203.5 146.5t262.5 52q111 0 205.5 -30.5
t172.5 -88.5l103 127l137 -112zM321 700q0 -88 16.5 -162t48.5 -134l592 729q-101 78 -239 78q-92 0 -168.5 -35t-132 -101t-86.5 -161t-31 -214zM739 189q91 0 167.5 35t132 101t86.5 161t31 214q0 87 -16.5 160t-46.5 133l-592 -727q50 -38 109.5 -57.5t128.5 -19.5z" />
    <glyph glyph-name="Ugrave" unicode="&#xd9;" horiz-adv-x="1347" 
d="M1207 506q0 -129 -39.5 -227t-110.5 -165t-168.5 -101t-214.5 -34t-215 34t-169 101t-110.5 165t-39.5 227v894h217v-880q0 -86 23.5 -148.5t65.5 -103t100 -60t128 -19.5q69 0 127 19.5t100 60t65.5 103t23.5 148.5v880h217v-894zM392 1817h239l186 -308h-190z" />
    <glyph glyph-name="Uacute" unicode="&#xda;" horiz-adv-x="1347" 
d="M1207 506q0 -129 -39.5 -227t-110.5 -165t-168.5 -101t-214.5 -34t-215 34t-169 101t-110.5 165t-39.5 227v894h217v-880q0 -86 23.5 -148.5t65.5 -103t100 -60t128 -19.5q69 0 127 19.5t100 60t65.5 103t23.5 148.5v880h217v-894zM524 1509l186 308h239l-235 -308h-190z
" />
    <glyph glyph-name="Ucircumflex" unicode="&#xdb;" horiz-adv-x="1347" 
d="M1207 506q0 -129 -39.5 -227t-110.5 -165t-168.5 -101t-214.5 -34t-215 34t-169 101t-110.5 165t-39.5 227v894h217v-880q0 -86 23.5 -148.5t65.5 -103t100 -60t128 -19.5q69 0 127 19.5t100 60t65.5 103t23.5 148.5v880h217v-894zM805 1508l-131 169l-130 -169h-194
l204 303h241l204 -303h-194z" />
    <glyph glyph-name="Udieresis" unicode="&#xdc;" horiz-adv-x="1347" 
d="M1207 506q0 -129 -39.5 -227t-110.5 -165t-168.5 -101t-214.5 -34t-215 34t-169 101t-110.5 165t-39.5 227v894h217v-880q0 -86 23.5 -148.5t65.5 -103t100 -60t128 -19.5q69 0 127 19.5t100 60t65.5 103t23.5 148.5v880h217v-894zM473 1793q28 0 52.5 -10.5t42.5 -28.5
t28 -43t10 -53t-10 -52t-28 -41.5t-42.5 -27.5t-52.5 -10t-52 10t-42 28t-28 42t-10 53q0 28 10 52t28 42t42 28.5t52 10.5zM868 1793q28 0 52.5 -10.5t42.5 -28.5t28 -43t10 -53t-10 -52t-28 -41.5t-42.5 -27.5t-52.5 -10t-52 10t-42 28t-28 42t-10 53q0 28 10 52t28 42
t42 28.5t52 10.5z" />
    <glyph glyph-name="Yacute" unicode="&#xdd;" horiz-adv-x="1200" 
d="M711 553v-553h-217v556l-487 844h252l345 -608l344 608h245zM453 1509l186 308h239l-235 -308h-190z" />
    <glyph glyph-name="Thorn" unicode="&#xde;" horiz-adv-x="1187" 
d="M635 1144q113 0 201.5 -29.5t149.5 -85t93 -135.5t32 -181q0 -100 -32 -179.5t-93 -135t-149.5 -85t-201.5 -29.5h-265v-284h-215v1400h215v-256h265zM631 485q125 0 191 56t66 172t-66 172t-191 56h-261v-456h261z" />
    <glyph glyph-name="germandbls" unicode="&#xdf;" horiz-adv-x="1102" 
d="M128 1032q0 84 24.5 161.5t77 137t135 95t199.5 35.5q96 0 175 -30t136 -83.5t88 -125.5t31 -156q0 -64 -15 -118.5t-42 -97.5t-64 -73.5t-81 -45.5q51 -13 94.5 -44.5t76 -76.5t51 -100.5t18.5 -116.5q0 -96 -30 -172.5t-83 -130.5t-126 -82.5t-160 -28.5
q-62 0 -108 8.5t-85 22.5l31 183q60 -26 132 -26q103 0 163 59t60 174q0 60 -19 103.5t-53.5 71.5t-83.5 41.5t-109 13.5h-42v183h20q50 0 95.5 11.5t79.5 38t54 70t20 108.5q0 57 -17.5 100t-48.5 71.5t-72.5 43t-89.5 14.5q-55 0 -98 -18t-72 -50.5t-44.5 -78.5
t-15.5 -102v-1021h-202v1032z" />
    <glyph glyph-name="agrave" unicode="&#xe0;" horiz-adv-x="1107" 
d="M972 962v-962h-200v135q-45 -71 -112.5 -113.5t-164.5 -42.5q-90 0 -166.5 36.5t-132 102.5t-87 158.5t-31.5 204.5t31.5 204.5t87 158.5t132 102.5t166.5 36.5q97 0 164.5 -42.5t112.5 -113.5v135h200zM533 172q55 0 101 22t78 62t50 97t18 128q0 70 -18 127.5t-50 97.5
t-78 62t-101 22q-57 0 -102.5 -22.5t-78 -63t-49.5 -97.5t-17 -126t17 -126t49.5 -97.5t78 -63t102.5 -22.5zM264 1406h239l186 -308h-190z" />
    <glyph glyph-name="aacute" unicode="&#xe1;" horiz-adv-x="1107" 
d="M972 962v-962h-200v135q-45 -71 -112.5 -113.5t-164.5 -42.5q-90 0 -166.5 36.5t-132 102.5t-87 158.5t-31.5 204.5t31.5 204.5t87 158.5t132 102.5t166.5 36.5q97 0 164.5 -42.5t112.5 -113.5v135h200zM533 172q55 0 101 22t78 62t50 97t18 128q0 70 -18 127.5t-50 97.5
t-78 62t-101 22q-57 0 -102.5 -22.5t-78 -63t-49.5 -97.5t-17 -126t17 -126t49.5 -97.5t78 -63t102.5 -22.5zM413 1098l186 308h239l-235 -308h-190z" />
    <glyph glyph-name="acircumflex" unicode="&#xe2;" horiz-adv-x="1107" 
d="M972 962v-962h-200v135q-45 -71 -112.5 -113.5t-164.5 -42.5q-90 0 -166.5 36.5t-132 102.5t-87 158.5t-31.5 204.5t31.5 204.5t87 158.5t132 102.5t166.5 36.5q97 0 164.5 -42.5t112.5 -113.5v135h200zM533 172q55 0 101 22t78 62t50 97t18 128q0 70 -18 127.5t-50 97.5
t-78 62t-101 22q-57 0 -102.5 -22.5t-78 -63t-49.5 -97.5t-17 -126t17 -126t49.5 -97.5t78 -63t102.5 -22.5zM685 1097l-131 169l-130 -169h-194l204 303h241l204 -303h-194z" />
    <glyph glyph-name="atilde" unicode="&#xe3;" horiz-adv-x="1107" 
d="M972 962v-962h-200v135q-45 -71 -112.5 -113.5t-164.5 -42.5q-90 0 -166.5 36.5t-132 102.5t-87 158.5t-31.5 204.5t31.5 204.5t87 158.5t132 102.5t166.5 36.5q97 0 164.5 -42.5t112.5 -113.5v135h200zM533 172q55 0 101 22t78 62t50 97t18 128q0 70 -18 127.5t-50 97.5
t-78 62t-101 22q-57 0 -102.5 -22.5t-78 -63t-49.5 -97.5t-17 -126t17 -126t49.5 -97.5t78 -63t102.5 -22.5zM214 1254q46 62 99.5 90.5t122.5 28.5q46 0 79.5 -11t60.5 -23.5t49.5 -23.5t47.5 -11q30 0 57.5 16.5t58.5 49.5l107 -120q-47 -62 -100 -90.5t-123 -28.5
q-45 0 -78.5 11t-60 23.5t-49.5 23.5t-48 11q-30 0 -57.5 -16.5t-58.5 -49.5z" />
    <glyph glyph-name="adieresis" unicode="&#xe4;" horiz-adv-x="1107" 
d="M972 962v-962h-200v135q-45 -71 -112.5 -113.5t-164.5 -42.5q-90 0 -166.5 36.5t-132 102.5t-87 158.5t-31.5 204.5t31.5 204.5t87 158.5t132 102.5t166.5 36.5q97 0 164.5 -42.5t112.5 -113.5v135h200zM533 172q55 0 101 22t78 62t50 97t18 128q0 70 -18 127.5t-50 97.5
t-78 62t-101 22q-57 0 -102.5 -22.5t-78 -63t-49.5 -97.5t-17 -126t17 -126t49.5 -97.5t78 -63t102.5 -22.5zM355 1383q28 0 52.5 -10.5t42.5 -28.5t28 -43t10 -53t-10 -52t-28 -41.5t-42.5 -27.5t-52.5 -10t-52 10t-42 28t-28 42t-10 53q0 28 10 52t28 42t42 28.5t52 10.5z
M750 1383q28 0 52.5 -10.5t42.5 -28.5t28 -43t10 -53t-10 -52t-28 -41.5t-42.5 -27.5t-52.5 -10t-52 10t-42 28t-28 42t-10 53q0 28 10 52t28 42t42 28.5t52 10.5z" />
    <glyph glyph-name="aring" unicode="&#xe5;" horiz-adv-x="1107" 
d="M972 962v-962h-200v135q-45 -71 -112.5 -113.5t-164.5 -42.5q-90 0 -166.5 36.5t-132 102.5t-87 158.5t-31.5 204.5t31.5 204.5t87 158.5t132 102.5t166.5 36.5q97 0 164.5 -42.5t112.5 -113.5v135h200zM533 172q55 0 101 22t78 62t50 97t18 128q0 70 -18 127.5t-50 97.5
t-78 62t-101 22q-57 0 -102.5 -22.5t-78 -63t-49.5 -97.5t-17 -126t17 -126t49.5 -97.5t78 -63t102.5 -22.5zM553 1082q-48 0 -90 18t-73.5 48.5t-49.5 72.5t-18 90q0 47 18 88.5t49.5 72t73.5 48.5t90 18t90 -18t73.5 -48.5t50 -72t18.5 -88.5q0 -48 -18.5 -90t-50 -72.5
t-73.5 -48.5t-90 -18zM553 1202q22 0 41.5 8.5t34 23t23 34.5t8.5 43q0 22 -8.5 42t-23 34t-34 22.5t-41.5 8.5q-21 0 -40.5 -8.5t-33.5 -22.5t-22.5 -34t-8.5 -42q0 -23 8.5 -43t22.5 -34.5t33.5 -23t40.5 -8.5z" />
    <glyph glyph-name="ae" unicode="&#xe6;" horiz-adv-x="1589" 
d="M1511 483q0 -19 -1 -37.5t-3 -35.5h-641q8 -65 31 -112.5t57 -78.5t77 -45.5t93 -14.5q70 0 133 25.5t114 70.5l103 -142q-79 -73 -170.5 -103.5t-194.5 -30.5q-113 0 -203 42.5t-150 123.5q-27 -34 -60 -64.5t-74.5 -53t-92 -35.5t-112.5 -13q-81 0 -144 22t-106.5 61.5
t-66 94.5t-22.5 121q0 67 24.5 119.5t71 89.5t114 56.5t152.5 19.5h221v18q0 109 -55.5 163t-161.5 54q-70 0 -129.5 -25t-104.5 -59l-81 157q72 57 159.5 84t182.5 27q108 0 186.5 -38t123.5 -113q55 74 137 113t179 39q93 0 169 -35t130.5 -100.5t84.5 -158t30 -206.5z
M1308 560q-13 116 -69.5 178.5t-146.5 62.5q-97 0 -154 -63t-71 -178h441zM450 152q65 0 128 33t108 101q-19 58 -25 129h-191q-50 0 -85 -10.5t-56.5 -28.5t-31.5 -42t-10 -51t10 -51t30 -42t51 -28t72 -10z" />
    <glyph glyph-name="ccedilla" unicode="&#xe7;" horiz-adv-x="911" 
d="M531 983q101 0 186.5 -39.5t142.5 -114.5l-133 -129q-42 43 -89.5 67t-107.5 24q-53 0 -98 -21t-78 -61t-51.5 -97.5t-18.5 -130.5t18.5 -130.5t51.5 -97.5t78 -61t97 -21q60 0 111 25.5t90 66.5l130 -130q-58 -75 -143 -114.5t-186 -39.5q-102 0 -186 36.5t-143 102.5
t-91.5 158.5t-32.5 204.5t32.5 204.5t91.5 158.5t143 102.5t186 36.5zM520 -322h-193l101 339l185 -11z" />
    <glyph glyph-name="egrave" unicode="&#xe8;" horiz-adv-x="1009" 
d="M931 483q0 -19 -1 -37.5t-3 -35.5h-641q8 -65 31 -112.5t57 -78.5t77 -45.5t93 -14.5q69 0 132.5 25.5t114.5 70.5l103 -142q-79 -73 -170.5 -103.5t-193.5 -30.5q-101 0 -184.5 35t-143 100t-92 157.5t-32.5 208.5q0 115 31.5 208t89.5 158.5t138 101t178 35.5
q93 0 169.5 -35t131 -100.5t85 -158t30.5 -206.5zM728 561q-14 115 -70 177.5t-146 62.5q-97 0 -154 -63.5t-71 -176.5h441zM225 1406h239l186 -308h-190z" />
    <glyph glyph-name="eacute" unicode="&#xe9;" horiz-adv-x="1009" 
d="M931 483q0 -19 -1 -37.5t-3 -35.5h-641q8 -65 31 -112.5t57 -78.5t77 -45.5t93 -14.5q69 0 132.5 25.5t114.5 70.5l103 -142q-79 -73 -170.5 -103.5t-193.5 -30.5q-101 0 -184.5 35t-143 100t-92 157.5t-32.5 208.5q0 115 31.5 208t89.5 158.5t138 101t178 35.5
q93 0 169.5 -35t131 -100.5t85 -158t30.5 -206.5zM728 561q-14 115 -70 177.5t-146 62.5q-97 0 -154 -63.5t-71 -176.5h441zM374 1098l186 308h239l-235 -308h-190z" />
    <glyph glyph-name="ecircumflex" unicode="&#xea;" horiz-adv-x="1009" 
d="M931 483q0 -19 -1 -37.5t-3 -35.5h-641q8 -65 31 -112.5t57 -78.5t77 -45.5t93 -14.5q69 0 132.5 25.5t114.5 70.5l103 -142q-79 -73 -170.5 -103.5t-193.5 -30.5q-101 0 -184.5 35t-143 100t-92 157.5t-32.5 208.5q0 115 31.5 208t89.5 158.5t138 101t178 35.5
q93 0 169.5 -35t131 -100.5t85 -158t30.5 -206.5zM728 561q-14 115 -70 177.5t-146 62.5q-97 0 -154 -63.5t-71 -176.5h441zM646 1097l-131 169l-130 -169h-194l204 303h241l204 -303h-194z" />
    <glyph glyph-name="edieresis" unicode="&#xeb;" horiz-adv-x="1009" 
d="M931 483q0 -19 -1 -37.5t-3 -35.5h-641q8 -65 31 -112.5t57 -78.5t77 -45.5t93 -14.5q69 0 132.5 25.5t114.5 70.5l103 -142q-79 -73 -170.5 -103.5t-193.5 -30.5q-101 0 -184.5 35t-143 100t-92 157.5t-32.5 208.5q0 115 31.5 208t89.5 158.5t138 101t178 35.5
q93 0 169.5 -35t131 -100.5t85 -158t30.5 -206.5zM728 561q-14 115 -70 177.5t-146 62.5q-97 0 -154 -63.5t-71 -176.5h441zM316 1383q28 0 52.5 -10.5t42.5 -28.5t28 -43t10 -53t-10 -52t-28 -41.5t-42.5 -27.5t-52.5 -10t-52 10t-42 28t-28 42t-10 53q0 28 10 52t28 42
t42 28.5t52 10.5zM711 1383q28 0 52.5 -10.5t42.5 -28.5t28 -43t10 -53t-10 -52t-28 -41.5t-42.5 -27.5t-52.5 -10t-52 10t-42 28t-28 42t-10 53q0 28 10 52t28 42t42 28.5t52 10.5z" />
    <glyph glyph-name="igrave" unicode="&#xec;" horiz-adv-x="472" 
d="M337 0h-202v962h202v-962zM-54 1406h239l186 -308h-190z" />
    <glyph glyph-name="iacute" unicode="&#xed;" horiz-adv-x="472" 
d="M337 0h-202v962h202v-962zM99 1098l186 308h239l-235 -308h-190z" />
    <glyph glyph-name="icircumflex" unicode="&#xee;" horiz-adv-x="472" 
d="M337 0h-202v962h202v-962zM367 1097l-131 169l-130 -169h-194l204 303h241l204 -303h-194z" />
    <glyph glyph-name="idieresis" unicode="&#xef;" horiz-adv-x="472" 
d="M337 0h-202v962h202v-962zM37 1383q28 0 52.5 -10.5t42.5 -28.5t28 -43t10 -53t-10 -52t-28 -41.5t-42.5 -27.5t-52.5 -10t-52 10t-42 28t-28 42t-10 53q0 28 10 52t28 42t42 28.5t52 10.5zM432 1383q28 0 52.5 -10.5t42.5 -28.5t28 -43t10 -53t-10 -52t-28 -41.5
t-42.5 -27.5t-52.5 -10t-52 10t-42 28t-28 42t-10 53q0 28 10 52t28 42t42 28.5t52 10.5z" />
    <glyph glyph-name="eth" unicode="&#xf0;" horiz-adv-x="1074" 
d="M687 1219q80 -81 138 -172t96 -185.5t56.5 -190t18.5 -185.5q0 -110 -34 -203t-95 -160.5t-145.5 -105.5t-185.5 -38q-99 0 -183 36t-145 100t-95.5 152.5t-34.5 193.5q0 104 32 192.5t87.5 153t131 101t163.5 36.5q74 0 135 -27t109 -78q-33 75 -84 144.5t-123 134.5
l-213 -136l-74 114l172 112q-38 26 -80 51t-89 50l107 145q126 -59 228 -140l187 121l75 -114zM539 169q55 0 101.5 21t80.5 59.5t53 92.5t19 120q0 68 -19 122.5t-53 93t-80.5 59.5t-101.5 21t-101.5 -21t-80.5 -59.5t-53 -93t-19 -122.5q0 -66 19 -120t53 -92.5
t80.5 -59.5t101.5 -21z" />
    <glyph glyph-name="ntilde" unicode="&#xf1;" horiz-adv-x="1076" 
d="M608 983q76 0 138.5 -25t107.5 -70.5t70 -110t25 -143.5v-634h-203v573q0 106 -52 161.5t-145 55.5q-44 0 -82 -14.5t-66.5 -43t-45 -69.5t-16.5 -93v-570h-204v962h198v-130q24 42 55.5 71t67.5 46.5t74.5 25.5t77.5 8zM209 1254q46 62 99.5 90.5t122.5 28.5
q46 0 79.5 -11t60.5 -23.5t49.5 -23.5t47.5 -11q30 0 57.5 16.5t58.5 49.5l107 -120q-47 -62 -100 -90.5t-123 -28.5q-45 0 -78.5 11t-60 23.5t-49.5 23.5t-48 11q-30 0 -57.5 -16.5t-58.5 -49.5z" />
    <glyph glyph-name="ograve" unicode="&#xf2;" horiz-adv-x="1078" 
d="M539 983q101 0 186 -36.5t146 -102.5t95 -158.5t34 -204.5t-34 -204.5t-95 -158.5t-146 -102.5t-186 -36.5t-186 36.5t-146 102.5t-95 158.5t-34 204.5t34 204.5t95 158.5t146 102.5t186 36.5zM539 791q-56 0 -102.5 -21.5t-80.5 -62t-53 -97.5t-19 -129t19 -129.5
t53 -97.5t80.5 -61.5t102.5 -21.5q55 0 102 21.5t81.5 61.5t53.5 97.5t19 129.5t-19 129t-53.5 97.5t-81.5 62t-102 21.5zM249 1405h239l186 -308h-190z" />
    <glyph glyph-name="oacute" unicode="&#xf3;" horiz-adv-x="1078" 
d="M539 983q101 0 186 -36.5t146 -102.5t95 -158.5t34 -204.5t-34 -204.5t-95 -158.5t-146 -102.5t-186 -36.5t-186 36.5t-146 102.5t-95 158.5t-34 204.5t34 204.5t95 158.5t146 102.5t186 36.5zM539 791q-56 0 -102.5 -21.5t-80.5 -62t-53 -97.5t-19 -129t19 -129.5
t53 -97.5t80.5 -61.5t102.5 -21.5q55 0 102 21.5t81.5 61.5t53.5 97.5t19 129.5t-19 129t-53.5 97.5t-81.5 62t-102 21.5zM398 1097l186 308h239l-235 -308h-190z" />
    <glyph glyph-name="ocircumflex" unicode="&#xf4;" horiz-adv-x="1078" 
d="M539 983q101 0 186 -36.5t146 -102.5t95 -158.5t34 -204.5t-34 -204.5t-95 -158.5t-146 -102.5t-186 -36.5t-186 36.5t-146 102.5t-95 158.5t-34 204.5t34 204.5t95 158.5t146 102.5t186 36.5zM539 791q-56 0 -102.5 -21.5t-80.5 -62t-53 -97.5t-19 -129t19 -129.5
t53 -97.5t80.5 -61.5t102.5 -21.5q55 0 102 21.5t81.5 61.5t53.5 97.5t19 129.5t-19 129t-53.5 97.5t-81.5 62t-102 21.5zM670 1095l-131 169l-130 -169h-194l204 303h241l204 -303h-194z" />
    <glyph glyph-name="otilde" unicode="&#xf5;" horiz-adv-x="1078" 
d="M539 983q101 0 186 -36.5t146 -102.5t95 -158.5t34 -204.5t-34 -204.5t-95 -158.5t-146 -102.5t-186 -36.5t-186 36.5t-146 102.5t-95 158.5t-34 204.5t34 204.5t95 158.5t146 102.5t186 36.5zM539 791q-56 0 -102.5 -21.5t-80.5 -62t-53 -97.5t-19 -129t19 -129.5
t53 -97.5t80.5 -61.5t102.5 -21.5q55 0 102 21.5t81.5 61.5t53.5 97.5t19 129.5t-19 129t-53.5 97.5t-81.5 62t-102 21.5zM199 1253q46 62 99.5 90.5t122.5 28.5q46 0 79.5 -11t60.5 -23.5t49.5 -23.5t47.5 -11q30 0 57.5 16.5t58.5 49.5l107 -120q-47 -62 -100 -90.5
t-123 -28.5q-45 0 -78.5 11t-60 23.5t-49.5 23.5t-48 11q-30 0 -57.5 -16.5t-58.5 -49.5z" />
    <glyph glyph-name="odieresis" unicode="&#xf6;" horiz-adv-x="1078" 
d="M539 983q101 0 186 -36.5t146 -102.5t95 -158.5t34 -204.5t-34 -204.5t-95 -158.5t-146 -102.5t-186 -36.5t-186 36.5t-146 102.5t-95 158.5t-34 204.5t34 204.5t95 158.5t146 102.5t186 36.5zM539 791q-56 0 -102.5 -21.5t-80.5 -62t-53 -97.5t-19 -129t19 -129.5
t53 -97.5t80.5 -61.5t102.5 -21.5q55 0 102 21.5t81.5 61.5t53.5 97.5t19 129.5t-19 129t-53.5 97.5t-81.5 62t-102 21.5zM340 1382q28 0 52.5 -10.5t42.5 -28.5t28 -43t10 -53t-10 -52t-28 -41.5t-42.5 -27.5t-52.5 -10t-52 10t-42 28t-28 42t-10 53q0 28 10 52t28 42
t42 28.5t52 10.5zM735 1382q28 0 52.5 -10.5t42.5 -28.5t28 -43t10 -53t-10 -52t-28 -41.5t-42.5 -27.5t-52.5 -10t-52 10t-42 28t-28 42t-10 53q0 28 10 52t28 42t42 28.5t52 10.5z" />
    <glyph glyph-name="divide" unicode="&#xf7;" horiz-adv-x="1104" 
d="M552 979q26 0 49 -10.5t40.5 -28t28 -41t10.5 -49.5t-10.5 -49t-28 -40.5t-40.5 -28t-49 -10.5t-49 10.5t-40.5 28t-28 41t-10.5 49.5t10.5 49.5t28 41t40.5 27.5t49 10zM951 444h-800v180h800v-180zM552 345q26 0 49 -10.5t40.5 -28t28 -40.5t10.5 -49t-10.5 -49.5
t-28 -41t-40.5 -28t-49 -10.5t-49 10.5t-40.5 28.5t-28 41.5t-10.5 49.5t10.5 49t28 40.5t40.5 27.5t49 10z" />
    <glyph glyph-name="oslash" unicode="&#xf8;" horiz-adv-x="1078" 
d="M902 806q47 -64 72.5 -146t25.5 -179q0 -112 -34 -204.5t-95 -158.5t-146 -102.5t-186 -36.5q-71 0 -133 18t-115 51l-78 -94l-123 95l86 107q-47 64 -72.5 146t-25.5 179q0 112 34 204.5t95 158.5t146 102.5t186 36.5q71 0 133.5 -18t115.5 -52l76 94l124 -96zM539 795
q-56 0 -103.5 -22t-82 -62.5t-53.5 -98.5t-19 -131q0 -46 8 -86t22 -74l355 440q-57 34 -127 34zM539 166q56 0 103.5 22t82 62.5t53.5 99t19 131.5q0 46 -8 86t-22 74l-355 -441q57 -34 127 -34z" />
    <glyph glyph-name="ugrave" unicode="&#xf9;" horiz-adv-x="1063" 
d="M936 382q0 -105 -32.5 -181t-88 -125.5t-129 -73t-155.5 -23.5t-155 23.5t-128.5 73t-88 125.5t-32.5 181v580h202v-565q0 -60 15 -103t42 -70t64 -40t81 -13t81 13t64 40t42.5 70t15.5 103v565h202v-580zM240 1405h239l186 -308h-190z" />
    <glyph glyph-name="uacute" unicode="&#xfa;" horiz-adv-x="1063" 
d="M936 382q0 -105 -32.5 -181t-88 -125.5t-129 -73t-155.5 -23.5t-155 23.5t-128.5 73t-88 125.5t-32.5 181v580h202v-565q0 -60 15 -103t42 -70t64 -40t81 -13t81 13t64 40t42.5 70t15.5 103v565h202v-580zM389 1097l186 308h239l-235 -308h-190z" />
    <glyph glyph-name="ucircumflex" unicode="&#xfb;" horiz-adv-x="1063" 
d="M936 382q0 -105 -32.5 -181t-88 -125.5t-129 -73t-155.5 -23.5t-155 23.5t-128.5 73t-88 125.5t-32.5 181v580h202v-565q0 -60 15 -103t42 -70t64 -40t81 -13t81 13t64 40t42.5 70t15.5 103v565h202v-580zM661 1095l-131 169l-130 -169h-194l204 303h241l204 -303h-194z
" />
    <glyph glyph-name="udieresis" unicode="&#xfc;" horiz-adv-x="1063" 
d="M936 382q0 -105 -32.5 -181t-88 -125.5t-129 -73t-155.5 -23.5t-155 23.5t-128.5 73t-88 125.5t-32.5 181v580h202v-565q0 -60 15 -103t42 -70t64 -40t81 -13t81 13t64 40t42.5 70t15.5 103v565h202v-580zM331 1382q28 0 52.5 -10.5t42.5 -28.5t28 -43t10 -53t-10 -52
t-28 -41.5t-42.5 -27.5t-52.5 -10t-52 10t-42 28t-28 42t-10 53q0 28 10 52t28 42t42 28.5t52 10.5zM726 1382q28 0 52.5 -10.5t42.5 -28.5t28 -43t10 -53t-10 -52t-28 -41.5t-42.5 -27.5t-52.5 -10t-52 10t-42 28t-28 42t-10 53q0 28 10 52t28 42t42 28.5t52 10.5z" />
    <glyph glyph-name="yacute" unicode="&#xfd;" horiz-adv-x="990" 
d="M980 962l-660 -1346h-218l291 571l-380 775h222l266 -563l261 563h218zM356 1098l186 308h239l-235 -308h-190z" />
    <glyph glyph-name="thorn" unicode="&#xfe;" horiz-adv-x="1107" 
d="M611 983q90 0 166.5 -36.5t132.5 -102.5t87.5 -158.5t31.5 -204.5t-31.5 -204.5t-87.5 -158.5t-132.5 -102.5t-166.5 -36.5q-94 0 -160.5 40.5t-111.5 107.5v-511h-204v1824h204v-605q45 67 111.5 107.5t160.5 40.5zM574 172q57 0 102.5 22.5t78 63t49.5 97.5t17 126
t-17 126t-49.5 97.5t-78 63t-102.5 22.5q-56 0 -101.5 -22t-78 -62t-50.5 -97.5t-18 -127.5q0 -71 18 -128t50.5 -97t78 -62t101.5 -22z" />
    <glyph glyph-name="ydieresis" unicode="&#xff;" horiz-adv-x="990" 
d="M980 962l-660 -1346h-218l291 571l-380 775h222l266 -563l261 563h218zM298 1383q28 0 52.5 -10.5t42.5 -28.5t28 -43t10 -53t-10 -52t-28 -41.5t-42.5 -27.5t-52.5 -10t-52 10t-42 28t-28 42t-10 53q0 28 10 52t28 42t42 28.5t52 10.5zM693 1383q28 0 52.5 -10.5
t42.5 -28.5t28 -43t10 -53t-10 -52t-28 -41.5t-42.5 -27.5t-52.5 -10t-52 10t-42 28t-28 42t-10 53q0 28 10 52t28 42t42 28.5t52 10.5z" />
    <glyph glyph-name="Amacron" unicode="&#x100;" horiz-adv-x="1293" 
d="M922 349h-556l-118 -349h-225l493 1401h262l492 -1401h-230zM854 551l-210 623l-210 -623h420zM358 1743h576v-170h-576v170z" />
    <glyph glyph-name="amacron" unicode="&#x101;" horiz-adv-x="1107" 
d="M972 962v-962h-200v135q-45 -71 -112.5 -113.5t-164.5 -42.5q-90 0 -166.5 36.5t-132 102.5t-87 158.5t-31.5 204.5t31.5 204.5t87 158.5t132 102.5t166.5 36.5q97 0 164.5 -42.5t112.5 -113.5v135h200zM533 172q55 0 101 22t78 62t50 97t18 128q0 70 -18 127.5t-50 97.5
t-78 62t-101 22q-57 0 -102.5 -22.5t-78 -63t-49.5 -97.5t-17 -126t17 -126t49.5 -97.5t78 -63t102.5 -22.5zM266 1333h576v-170h-576v170z" />
    <glyph glyph-name="Abreve" unicode="&#x102;" horiz-adv-x="1293" 
d="M922 349h-556l-118 -349h-225l493 1401h262l492 -1401h-230zM854 551l-210 623l-210 -623h420zM468 1837q22 -88 66.5 -128.5t110.5 -40.5q65 0 109.5 40.5t66.5 128.5l156 -38q-33 -148 -117.5 -224.5t-214.5 -76.5t-215 76.5t-118 224.5z" />
    <glyph glyph-name="abreve" unicode="&#x103;" horiz-adv-x="1107" 
d="M972 962v-962h-200v135q-45 -71 -112.5 -113.5t-164.5 -42.5q-90 0 -166.5 36.5t-132 102.5t-87 158.5t-31.5 204.5t31.5 204.5t87 158.5t132 102.5t166.5 36.5q97 0 164.5 -42.5t112.5 -113.5v135h200zM533 172q55 0 101 22t78 62t50 97t18 128q0 70 -18 127.5t-50 97.5
t-78 62t-101 22q-57 0 -102.5 -22.5t-78 -63t-49.5 -97.5t-17 -126t17 -126t49.5 -97.5t78 -63t102.5 -22.5zM377 1426q22 -88 66.5 -128.5t110.5 -40.5q65 0 109.5 40.5t66.5 128.5l156 -38q-33 -148 -117.5 -224.5t-214.5 -76.5t-215 76.5t-118 224.5z" />
    <glyph glyph-name="Aogonek" unicode="&#x104;" horiz-adv-x="1293" 
d="M922 349h-556l-118 -349h-225l493 1401h262l492 -1401h-230zM854 551l-210 623l-210 -623h420zM1269 -316q-85 -85 -204 -85q-47 0 -87.5 12.5t-70 35.5t-46 56.5t-16.5 74.5q0 46 21.5 86.5t61.5 75t96.5 64.5t125.5 56l70 -60q-105 -44 -148.5 -89.5t-43.5 -83.5
q0 -28 17 -44t45 -16q23 0 42 10t37 29z" />
    <glyph glyph-name="aogonek" unicode="&#x105;" horiz-adv-x="1107" 
d="M972 962v-962h-200v135q-45 -71 -112.5 -113.5t-164.5 -42.5q-90 0 -166.5 36.5t-132 102.5t-87 158.5t-31.5 204.5t31.5 204.5t87 158.5t132 102.5t166.5 36.5q97 0 164.5 -42.5t112.5 -113.5v135h200zM533 172q55 0 101 22t78 62t50 97t18 128q0 70 -18 127.5t-50 97.5
t-78 62t-101 22q-57 0 -102.5 -22.5t-78 -63t-49.5 -97.5t-17 -126t17 -126t49.5 -97.5t78 -63t102.5 -22.5zM1019 -316q-85 -85 -204 -85q-47 0 -87.5 12.5t-70 35.5t-46 56.5t-16.5 74.5q0 46 21.5 86.5t61.5 75t96.5 64.5t125.5 56l70 -60q-105 -44 -148.5 -89.5
t-43.5 -83.5q0 -28 17 -44t45 -16q23 0 42 10t37 29z" />
    <glyph glyph-name="Cacute" unicode="&#x106;" horiz-adv-x="1327" 
d="M736 1422q85 0 163 -20.5t144.5 -58.5t119.5 -93.5t89 -125.5l-185 -105q-53 91 -138 141.5t-193 50.5q-90 0 -166 -35t-131.5 -101t-86.5 -161t-31 -214q0 -120 31 -215t86.5 -161t132 -100.5t166.5 -34.5q106 0 191 49.5t140 141.5l179 -112q-38 -68 -90.5 -121.5
t-118 -91t-141.5 -57.5t-161 -20q-143 0 -260.5 51.5t-202.5 146t-131.5 228t-46.5 296.5t46.5 296.5t131.5 228t202.5 146t260.5 51.5zM581 1509l186 308h239l-235 -308h-190z" />
    <glyph glyph-name="cacute" unicode="&#x107;" horiz-adv-x="911" 
d="M531 983q101 0 186.5 -39.5t142.5 -114.5l-133 -129q-42 43 -89.5 67t-107.5 24q-53 0 -98 -21t-78 -61t-51.5 -97.5t-18.5 -130.5t18.5 -130.5t51.5 -97.5t78 -61t97 -21q60 0 111 25.5t90 66.5l130 -130q-58 -75 -143 -114.5t-186 -39.5q-102 0 -186 36.5t-143 102.5
t-91.5 158.5t-32.5 204.5t32.5 204.5t91.5 158.5t143 102.5t186 36.5zM381 1098l186 308h239l-235 -308h-190z" />
    <glyph glyph-name="Ccircumflex" unicode="&#x108;" horiz-adv-x="1327" 
d="M736 1422q85 0 163 -20.5t144.5 -58.5t119.5 -93.5t89 -125.5l-185 -105q-53 91 -138 141.5t-193 50.5q-90 0 -166 -35t-131.5 -101t-86.5 -161t-31 -214q0 -120 31 -215t86.5 -161t132 -100.5t166.5 -34.5q106 0 191 49.5t140 141.5l179 -112q-38 -68 -90.5 -121.5
t-118 -91t-141.5 -57.5t-161 -20q-143 0 -260.5 51.5t-202.5 146t-131.5 228t-46.5 296.5t46.5 296.5t131.5 228t202.5 146t260.5 51.5zM862 1508l-131 169l-130 -169h-194l204 303h241l204 -303h-194z" />
    <glyph glyph-name="ccircumflex" unicode="&#x109;" horiz-adv-x="911" 
d="M531 983q101 0 186.5 -39.5t142.5 -114.5l-133 -129q-42 43 -89.5 67t-107.5 24q-53 0 -98 -21t-78 -61t-51.5 -97.5t-18.5 -130.5t18.5 -130.5t51.5 -97.5t78 -61t97 -21q60 0 111 25.5t90 66.5l130 -130q-58 -75 -143 -114.5t-186 -39.5q-102 0 -186 36.5t-143 102.5
t-91.5 158.5t-32.5 204.5t32.5 204.5t91.5 158.5t143 102.5t186 36.5zM653 1097l-131 169l-130 -169h-194l204 303h241l204 -303h-194z" />
    <glyph glyph-name="Cdotaccent" unicode="&#x10a;" horiz-adv-x="1327" 
d="M736 1422q85 0 163 -20.5t144.5 -58.5t119.5 -93.5t89 -125.5l-185 -105q-53 91 -138 141.5t-193 50.5q-90 0 -166 -35t-131.5 -101t-86.5 -161t-31 -214q0 -120 31 -215t86.5 -161t132 -100.5t166.5 -34.5q106 0 191 49.5t140 141.5l179 -112q-38 -68 -90.5 -121.5
t-118 -91t-141.5 -57.5t-161 -20q-143 0 -260.5 51.5t-202.5 146t-131.5 228t-46.5 296.5t46.5 296.5t131.5 228t202.5 146t260.5 51.5zM730 1799q29 0 54.5 -11t44 -29.5t29 -44t10.5 -54.5t-10.5 -54t-29 -43.5t-44 -29t-54.5 -10.5q-30 0 -55 10.5t-43 29t-28.5 44
t-10.5 54.5t10.5 54t28.5 44t43 29.5t55 10.5z" />
    <glyph glyph-name="cdotaccent" unicode="&#x10b;" horiz-adv-x="911" 
d="M531 983q101 0 186.5 -39.5t142.5 -114.5l-133 -129q-42 43 -89.5 67t-107.5 24q-53 0 -98 -21t-78 -61t-51.5 -97.5t-18.5 -130.5t18.5 -130.5t51.5 -97.5t78 -61t97 -21q60 0 111 25.5t90 66.5l130 -130q-58 -75 -143 -114.5t-186 -39.5q-102 0 -186 36.5t-143 102.5
t-91.5 158.5t-32.5 204.5t32.5 204.5t91.5 158.5t143 102.5t186 36.5zM521 1424q28 0 52.5 -10.5t42.5 -28.5t28.5 -43t10.5 -53q0 -29 -10.5 -53t-28.5 -42t-42.5 -28t-52.5 -10q-29 0 -53 10t-42 28t-28 42.5t-10 53.5q0 28 10 52.5t28 42.5t42 28.5t53 10.5z" />
    <glyph glyph-name="Ccaron" unicode="&#x10c;" horiz-adv-x="1327" 
d="M736 1422q85 0 163 -20.5t144.5 -58.5t119.5 -93.5t89 -125.5l-185 -105q-53 91 -138 141.5t-193 50.5q-90 0 -166 -35t-131.5 -101t-86.5 -161t-31 -214q0 -120 31 -215t86.5 -161t132 -100.5t166.5 -34.5q106 0 191 49.5t140 141.5l179 -112q-38 -68 -90.5 -121.5
t-118 -91t-141.5 -57.5t-161 -20q-143 0 -260.5 51.5t-202.5 146t-131.5 228t-46.5 296.5t46.5 296.5t131.5 228t202.5 146t260.5 51.5zM599 1809l131 -169l130 169h194l-204 -303h-241l-204 303h194z" />
    <glyph glyph-name="ccaron" unicode="&#x10d;" horiz-adv-x="911" 
d="M531 983q101 0 186.5 -39.5t142.5 -114.5l-133 -129q-42 43 -89.5 67t-107.5 24q-53 0 -98 -21t-78 -61t-51.5 -97.5t-18.5 -130.5t18.5 -130.5t51.5 -97.5t78 -61t97 -21q60 0 111 25.5t90 66.5l130 -130q-58 -75 -143 -114.5t-186 -39.5q-102 0 -186 36.5t-143 102.5
t-91.5 158.5t-32.5 204.5t32.5 204.5t91.5 158.5t143 102.5t186 36.5zM391 1398l131 -169l130 169h194l-204 -303h-241l-204 303h194z" />
    <glyph glyph-name="Dcaron" unicode="&#x10e;" horiz-adv-x="1399" 
d="M643 1400q153 0 275.5 -49t208 -140.5t131.5 -221t46 -289.5q0 -161 -46 -290t-131.5 -220.5t-208 -140.5t-275.5 -49h-488v1400h488zM641 204q110 0 192 35.5t136 100.5t81 156.5t27 203.5q0 113 -27 205t-81 156.5t-136 99.5t-192 35h-269v-992h269zM512 1809l131 -169
l130 169h194l-204 -303h-241l-204 303h194z" />
    <glyph glyph-name="dcaron" unicode="&#x10f;" horiz-adv-x="1204" 
d="M972 1440v-1440h-200v135q-45 -71 -112.5 -113.5t-164.5 -42.5q-90 0 -166.5 36.5t-132 102.5t-87 158.5t-31.5 204.5t31.5 204.5t87 158.5t132 102.5t166.5 36.5q95 0 162 -41t112 -110v608h203zM533 172q55 0 101 22t78 62t50 97t18 128q0 70 -18 127.5t-50 97.5
t-78 62t-101 22q-57 0 -102.5 -22.5t-78 -63t-49.5 -97.5t-17 -126t17 -126t49.5 -97.5t78 -63t102.5 -22.5zM1070 1029l3 411h196l-41 -411h-158z" />
    <glyph glyph-name="Dcroat" unicode="&#x110;" horiz-adv-x="1517" 
d="M761 1400q153 0 275.5 -49t208 -140.5t131.5 -221t46 -289.5q0 -161 -46 -290t-131.5 -220.5t-208 -140.5t-275.5 -49h-488v610h-180v191h180v599h488zM759 204q110 0 192 35.5t136 100.5t81 156.5t27 203.5q0 113 -27 205t-81 156.5t-136 99.5t-192 35h-269v-395h326
v-191h-326v-406h269z" />
    <glyph glyph-name="dcroat" unicode="&#x111;" horiz-adv-x="1106" 
d="M972 1440v-1440h-200v135q-45 -71 -112.5 -113.5t-164.5 -42.5q-90 0 -166.5 36.5t-132 102.5t-87 158.5t-31.5 204.5t31.5 204.5t87 158.5t132 102.5t166.5 36.5q95 0 162 -41t112 -110v608h203zM533 172q55 0 101 22t78 62t50 97t18 128q0 70 -18 127.5t-50 97.5
t-78 62t-101 22q-57 0 -102.5 -22.5t-78 -63t-49.5 -97.5t-17 -126t17 -126t49.5 -97.5t78 -63t102.5 -22.5zM1085 1104h-657v173h657v-173z" />
    <glyph glyph-name="Emacron" unicode="&#x112;" horiz-adv-x="1179" 
d="M1055 201v-201h-900v1400h894v-201h-677v-393h650v-201h-650v-404h683zM312 1743h576v-170h-576v170z" />
    <glyph glyph-name="emacron" unicode="&#x113;" horiz-adv-x="1009" 
d="M931 483q0 -19 -1 -37.5t-3 -35.5h-641q8 -65 31 -112.5t57 -78.5t77 -45.5t93 -14.5q69 0 132.5 25.5t114.5 70.5l103 -142q-79 -73 -170.5 -103.5t-193.5 -30.5q-101 0 -184.5 35t-143 100t-92 157.5t-32.5 208.5q0 115 31.5 208t89.5 158.5t138 101t178 35.5
q93 0 169.5 -35t131 -100.5t85 -158t30.5 -206.5zM728 561q-14 115 -70 177.5t-146 62.5q-97 0 -154 -63.5t-71 -176.5h441zM227 1333h576v-170h-576v170z" />
    <glyph glyph-name="Ebreve" unicode="&#x114;" horiz-adv-x="1179" 
d="M1055 201v-201h-900v1400h894v-201h-677v-393h650v-201h-650v-404h683zM422 1837q22 -88 66.5 -128.5t110.5 -40.5q65 0 109.5 40.5t66.5 128.5l156 -38q-33 -148 -117.5 -224.5t-214.5 -76.5t-215 76.5t-118 224.5z" />
    <glyph glyph-name="ebreve" unicode="&#x115;" horiz-adv-x="1009" 
d="M931 483q0 -19 -1 -37.5t-3 -35.5h-641q8 -65 31 -112.5t57 -78.5t77 -45.5t93 -14.5q69 0 132.5 25.5t114.5 70.5l103 -142q-79 -73 -170.5 -103.5t-193.5 -30.5q-101 0 -184.5 35t-143 100t-92 157.5t-32.5 208.5q0 115 31.5 208t89.5 158.5t138 101t178 35.5
q93 0 169.5 -35t131 -100.5t85 -158t30.5 -206.5zM728 561q-14 115 -70 177.5t-146 62.5q-97 0 -154 -63.5t-71 -176.5h441zM338 1426q22 -88 66.5 -128.5t110.5 -40.5q65 0 109.5 40.5t66.5 128.5l156 -38q-33 -148 -117.5 -224.5t-214.5 -76.5t-215 76.5t-118 224.5z" />
    <glyph glyph-name="Edotaccent" unicode="&#x116;" horiz-adv-x="1179" 
d="M1055 201v-201h-900v1400h894v-201h-677v-393h650v-201h-650v-404h683zM600 1799q29 0 54.5 -11t44 -29.5t29 -44t10.5 -54.5t-10.5 -54t-29 -43.5t-44 -29t-54.5 -10.5q-30 0 -55 10.5t-43 29t-28.5 44t-10.5 54.5t10.5 54t28.5 44t43 29.5t55 10.5z" />
    <glyph glyph-name="edotaccent" unicode="&#x117;" horiz-adv-x="1009" 
d="M931 483q0 -19 -1 -37.5t-3 -35.5h-641q8 -65 31 -112.5t57 -78.5t77 -45.5t93 -14.5q69 0 132.5 25.5t114.5 70.5l103 -142q-79 -73 -170.5 -103.5t-193.5 -30.5q-101 0 -184.5 35t-143 100t-92 157.5t-32.5 208.5q0 115 31.5 208t89.5 158.5t138 101t178 35.5
q93 0 169.5 -35t131 -100.5t85 -158t30.5 -206.5zM728 561q-14 115 -70 177.5t-146 62.5q-97 0 -154 -63.5t-71 -176.5h441zM514 1424q28 0 52.5 -10.5t42.5 -28.5t28.5 -43t10.5 -53q0 -29 -10.5 -53t-28.5 -42t-42.5 -28t-52.5 -10q-29 0 -53 10t-42 28t-28 42.5t-10 53.5
q0 28 10 52.5t28 42.5t42 28.5t53 10.5z" />
    <glyph glyph-name="Eogonek" unicode="&#x118;" horiz-adv-x="1179" 
d="M1055 201v-201h-900v1400h894v-201h-677v-393h650v-201h-650v-404h683zM955 11q-96 -30 -137.5 -76t-41.5 -91q0 -34 24 -55.5t66 -21.5q61 0 110 46l102 -120q-46 -46 -104.5 -70t-127.5 -24q-57 0 -104 15t-80.5 41.5t-52.5 63.5t-19 81q0 97 79.5 164t224.5 103z" />
    <glyph glyph-name="eogonek" unicode="&#x119;" horiz-adv-x="1009" 
d="M931 483q0 -19 -1 -37.5t-3 -35.5h-641q8 -65 31 -112.5t57 -78.5t77 -45.5t93 -14.5q69 0 132.5 25.5t114.5 70.5l103 -142q-79 -73 -170.5 -103.5t-193.5 -30.5q-101 0 -184.5 35t-143 100t-92 157.5t-32.5 208.5q0 115 31.5 208t89.5 158.5t138 101t178 35.5
q93 0 169.5 -35t131 -100.5t85 -158t30.5 -206.5zM728 561q-14 115 -70 177.5t-146 62.5q-97 0 -154 -63.5t-71 -176.5h441zM883 -307q-46 -46 -104.5 -70t-127.5 -24q-57 0 -104 15t-80.5 41.5t-52.5 63.5t-19 81q0 50 20.5 91t59 74.5t93.5 62t124 53.5l64 -56
q-95 -48 -135 -91.5t-40 -89.5q0 -34 24 -55.5t66 -21.5q61 0 110 46z" />
    <glyph glyph-name="Ecaron" unicode="&#x11a;" horiz-adv-x="1179" 
d="M1055 201v-201h-900v1400h894v-201h-677v-393h650v-201h-650v-404h683zM469 1809l131 -169l130 169h194l-204 -303h-241l-204 303h194z" />
    <glyph glyph-name="ecaron" unicode="&#x11b;" horiz-adv-x="1009" 
d="M931 483q0 -19 -1 -37.5t-3 -35.5h-641q8 -65 31 -112.5t57 -78.5t77 -45.5t93 -14.5q69 0 132.5 25.5t114.5 70.5l103 -142q-79 -73 -170.5 -103.5t-193.5 -30.5q-101 0 -184.5 35t-143 100t-92 157.5t-32.5 208.5q0 115 31.5 208t89.5 158.5t138 101t178 35.5
q93 0 169.5 -35t131 -100.5t85 -158t30.5 -206.5zM728 561q-14 115 -70 177.5t-146 62.5q-97 0 -154 -63.5t-71 -176.5h441zM384 1398l131 -169l130 169h194l-204 -303h-241l-204 303h194z" />
    <glyph glyph-name="Gcircumflex" unicode="&#x11c;" horiz-adv-x="1415" 
d="M739 1422q158 0 282.5 -64t205.5 -181l-167 -130q-57 78 -138.5 121.5t-184.5 43.5q-91 0 -167 -34.5t-131.5 -100.5t-86.5 -161t-31 -216q0 -122 31.5 -217.5t87 -161t130.5 -100t163 -34.5q167 0 264 97t116 284h-336v196h559q3 -35 3 -78q0 -158 -43 -288.5
t-121.5 -223.5t-190 -144t-249.5 -51q-129 0 -245.5 47t-204 138.5t-139 226t-51.5 309.5q0 164 47 297.5t132.5 228t203.5 145.5t261 51zM852 1508l-131 169l-130 -169h-194l204 303h241l204 -303h-194z" />
    <glyph glyph-name="gcircumflex" unicode="&#x11d;" horiz-adv-x="1096" 
d="M961 962v-901q0 -110 -33 -195t-94 -143.5t-146 -89t-190 -30.5q-107 0 -204.5 29.5t-164.5 84.5l81 165q59 -43 129.5 -68t151.5 -25q61 0 110.5 17t84.5 50.5t54.5 82.5t19.5 114v110q-46 -71 -116.5 -111t-167.5 -40q-80 0 -152.5 33.5t-127 96.5t-86.5 153t-32 203
q0 112 32 202t86.5 153t127 96.5t152.5 33.5q97 0 168.5 -41t117.5 -114v134h199zM529 204q55 0 100 21t77 59.5t49.5 92.5t17.5 120t-17.5 120.5t-49.5 93t-77 59.5t-100 21q-56 0 -101 -21.5t-76.5 -60.5t-48.5 -93t-17 -119t17 -118.5t48.5 -92.5t76.5 -60.5t101 -21.5z
M667 1097l-131 169l-130 -169h-194l204 303h241l204 -303h-194z" />
    <glyph glyph-name="Gbreve" unicode="&#x11e;" horiz-adv-x="1415" 
d="M739 1422q158 0 282.5 -64t205.5 -181l-167 -130q-57 78 -138.5 121.5t-184.5 43.5q-91 0 -167 -34.5t-131.5 -100.5t-86.5 -161t-31 -216q0 -122 31.5 -217.5t87 -161t130.5 -100t163 -34.5q167 0 264 97t116 284h-336v196h559q3 -35 3 -78q0 -158 -43 -288.5
t-121.5 -223.5t-190 -144t-249.5 -51q-129 0 -245.5 47t-204 138.5t-139 226t-51.5 309.5q0 164 47 297.5t132.5 228t203.5 145.5t261 51zM542 1837q22 -88 66.5 -128.5t110.5 -40.5q65 0 109.5 40.5t66.5 128.5l156 -38q-33 -148 -117.5 -224.5t-214.5 -76.5t-215 76.5
t-118 224.5z" />
    <glyph glyph-name="gbreve" unicode="&#x11f;" horiz-adv-x="1096" 
d="M961 962v-901q0 -110 -33 -195t-94 -143.5t-146 -89t-190 -30.5q-107 0 -204.5 29.5t-164.5 84.5l81 165q59 -43 129.5 -68t151.5 -25q61 0 110.5 17t84.5 50.5t54.5 82.5t19.5 114v110q-46 -71 -116.5 -111t-167.5 -40q-80 0 -152.5 33.5t-127 96.5t-86.5 153t-32 203
q0 112 32 202t86.5 153t127 96.5t152.5 33.5q97 0 168.5 -41t117.5 -114v134h199zM529 204q55 0 100 21t77 59.5t49.5 92.5t17.5 120t-17.5 120.5t-49.5 93t-77 59.5t-100 21q-56 0 -101 -21.5t-76.5 -60.5t-48.5 -93t-17 -119t17 -118.5t48.5 -92.5t76.5 -60.5t101 -21.5z
M359 1426q22 -88 66.5 -128.5t110.5 -40.5q65 0 109.5 40.5t66.5 128.5l156 -38q-33 -148 -117.5 -224.5t-214.5 -76.5t-215 76.5t-118 224.5z" />
    <glyph glyph-name="Gdotaccent" unicode="&#x120;" horiz-adv-x="1415" 
d="M739 1422q158 0 282.5 -64t205.5 -181l-167 -130q-57 78 -138.5 121.5t-184.5 43.5q-91 0 -167 -34.5t-131.5 -100.5t-86.5 -161t-31 -216q0 -122 31.5 -217.5t87 -161t130.5 -100t163 -34.5q167 0 264 97t116 284h-336v196h559q3 -35 3 -78q0 -158 -43 -288.5
t-121.5 -223.5t-190 -144t-249.5 -51q-129 0 -245.5 47t-204 138.5t-139 226t-51.5 309.5q0 164 47 297.5t132.5 228t203.5 145.5t261 51zM720 1799q29 0 54.5 -11t44 -29.5t29 -44t10.5 -54.5t-10.5 -54t-29 -43.5t-44 -29t-54.5 -10.5q-30 0 -55 10.5t-43 29t-28.5 44
t-10.5 54.5t10.5 54t28.5 44t43 29.5t55 10.5z" />
    <glyph glyph-name="gdotaccent" unicode="&#x121;" horiz-adv-x="1096" 
d="M961 962v-901q0 -110 -33 -195t-94 -143.5t-146 -89t-190 -30.5q-107 0 -204.5 29.5t-164.5 84.5l81 165q59 -43 129.5 -68t151.5 -25q61 0 110.5 17t84.5 50.5t54.5 82.5t19.5 114v110q-46 -71 -116.5 -111t-167.5 -40q-80 0 -152.5 33.5t-127 96.5t-86.5 153t-32 203
q0 112 32 202t86.5 153t127 96.5t152.5 33.5q97 0 168.5 -41t117.5 -114v134h199zM529 204q55 0 100 21t77 59.5t49.5 92.5t17.5 120t-17.5 120.5t-49.5 93t-77 59.5t-100 21q-56 0 -101 -21.5t-76.5 -60.5t-48.5 -93t-17 -119t17 -118.5t48.5 -92.5t76.5 -60.5t101 -21.5z
M535 1424q28 0 52.5 -10.5t42.5 -28.5t28.5 -43t10.5 -53q0 -29 -10.5 -53t-28.5 -42t-42.5 -28t-52.5 -10q-29 0 -53 10t-42 28t-28 42.5t-10 53.5q0 28 10 52.5t28 42.5t42 28.5t53 10.5z" />
    <glyph glyph-name="uni0122" unicode="&#x122;" horiz-adv-x="1415" 
d="M739 1422q158 0 282.5 -64t205.5 -181l-167 -130q-57 78 -138.5 121.5t-184.5 43.5q-91 0 -167 -34.5t-131.5 -100.5t-86.5 -161t-31 -216q0 -122 31.5 -217.5t87 -161t130.5 -100t163 -34.5q167 0 264 97t116 284h-336v196h559q3 -35 3 -78q0 -158 -43 -288.5
t-121.5 -223.5t-190 -144t-249.5 -51q-129 0 -245.5 47t-204 138.5t-139 226t-51.5 309.5q0 164 47 297.5t132.5 228t203.5 145.5t261 51zM836 -86l-75 -353h-166l38 353h203z" />
    <glyph glyph-name="uni0123" unicode="&#x123;" horiz-adv-x="1096" 
d="M961 962v-901q0 -110 -33 -195t-94 -143.5t-146 -89t-190 -30.5q-107 0 -204.5 29.5t-164.5 84.5l81 165q59 -43 129.5 -68t151.5 -25q61 0 110.5 17t84.5 50.5t54.5 82.5t19.5 114v110q-46 -71 -116.5 -111t-167.5 -40q-80 0 -152.5 33.5t-127 96.5t-86.5 153t-32 203
q0 112 32 202t86.5 153t127 96.5t152.5 33.5q97 0 168.5 -41t117.5 -114v134h199zM529 204q55 0 100 21t77 59.5t49.5 92.5t17.5 120t-17.5 120.5t-49.5 93t-77 59.5t-100 21q-56 0 -101 -21.5t-76.5 -60.5t-48.5 -93t-17 -119t17 -118.5t48.5 -92.5t76.5 -60.5t101 -21.5z
M429 1099l74 362h167l-38 -362h-203z" />
    <glyph glyph-name="Hcircumflex" unicode="&#x124;" horiz-adv-x="1391" 
d="M1236 1400v-1400h-217v604h-647v-604h-217v1400h217v-593h647v593h217zM827 1508l-131 169l-130 -169h-194l204 303h241l204 -303h-194z" />
    <glyph glyph-name="hcircumflex" unicode="&#x125;" horiz-adv-x="1077" 
d="M608 983q76 0 139 -25t108 -70.5t70 -110t25 -143.5v-634h-204v573q0 106 -52 161.5t-144 55.5q-44 0 -82.5 -14.5t-67 -43t-45 -69.5t-16.5 -93v-570h-204v1440h204v-598q24 39 55 66t66 43.5t72.5 24t75.5 7.5zM666 1535l-131 169l-130 -169h-194l204 303h241l204 -303
h-194z" />
    <glyph glyph-name="Hbar" unicode="&#x126;" horiz-adv-x="1453" 
d="M1266 1400v-1400h-217v604h-647v-604h-217v1400h217v-593h647v593h217zM1406 1002h-1359v173h1359v-173z" />
    <glyph glyph-name="hbar" unicode="&#x127;" horiz-adv-x="1077" 
d="M608 983q76 0 139 -25t108 -70.5t70 -110t25 -143.5v-634h-204v573q0 106 -52 161.5t-144 55.5q-44 0 -82.5 -14.5t-67 -43t-45 -69.5t-16.5 -93v-570h-204v1440h204v-598q24 39 55 66t66 43.5t72.5 24t75.5 7.5zM660 1102h-657v173h657v-173z" />
    <glyph glyph-name="Itilde" unicode="&#x128;" horiz-adv-x="527" 
d="M372 0h-217v1400h217v-1400zM-81 1665q46 62 99.5 90.5t122.5 28.5q46 0 79.5 -11t60.5 -23.5t49.5 -23.5t47.5 -11q30 0 57.5 16.5t58.5 49.5l107 -120q-47 -62 -100 -90.5t-123 -28.5q-45 0 -78.5 11t-60 23.5t-49.5 23.5t-48 11q-30 0 -57.5 -16.5t-58.5 -49.5z" />
    <glyph glyph-name="itilde" unicode="&#x129;" horiz-adv-x="472" 
d="M337 0h-202v962h202v-962zM-104 1254q46 62 99.5 90.5t122.5 28.5q46 0 79.5 -11t60.5 -23.5t49.5 -23.5t47.5 -11q30 0 57.5 16.5t58.5 49.5l107 -120q-47 -62 -100 -90.5t-123 -28.5q-45 0 -78.5 11t-60 23.5t-49.5 23.5t-48 11q-30 0 -57.5 -16.5t-58.5 -49.5z" />
    <glyph glyph-name="Imacron" unicode="&#x12a;" horiz-adv-x="527" 
d="M372 0h-217v1400h217v-1400zM-25 1743h576v-170h-576v170z" />
    <glyph glyph-name="imacron" unicode="&#x12b;" horiz-adv-x="472" 
d="M337 0h-202v962h202v-962zM-52 1333h576v-170h-576v170z" />
    <glyph glyph-name="Ibreve" unicode="&#x12c;" horiz-adv-x="527" 
d="M372 0h-217v1400h217v-1400zM85 1837q22 -88 66.5 -128.5t110.5 -40.5q65 0 109.5 40.5t66.5 128.5l156 -38q-33 -148 -117.5 -224.5t-214.5 -76.5t-215 76.5t-118 224.5z" />
    <glyph glyph-name="ibreve" unicode="&#x12d;" horiz-adv-x="472" 
d="M337 0h-202v962h202v-962zM59 1426q22 -88 66.5 -128.5t110.5 -40.5q65 0 109.5 40.5t66.5 128.5l156 -38q-33 -148 -117.5 -224.5t-214.5 -76.5t-215 76.5t-118 224.5z" />
    <glyph glyph-name="Iogonek" unicode="&#x12e;" horiz-adv-x="527" 
d="M372 0h-217v1400h217v-1400zM480 -315q-84 -86 -204 -86q-47 0 -87.5 13t-70 37t-46 58.5t-16.5 77.5q0 89 65 157.5t181 123.5l69 -66q-75 -45 -105 -90.5t-30 -80.5q0 -29 17.5 -45.5t46.5 -16.5q43 0 80 40z" />
    <glyph glyph-name="iogonek" unicode="&#x12f;" horiz-adv-x="472" 
d="M445 -315q-84 -86 -204 -86q-47 0 -87.5 13t-70 37t-46 58.5t-16.5 77.5q0 89 65 157.5t181 123.5l69 -66q-75 -45 -105 -90.5t-30 -80.5q0 -29 17.5 -45.5t46.5 -16.5q43 0 80 40zM337 0h-202v962h202v-962zM235 1424q28 0 52.5 -10.5t42.5 -28.5t28.5 -43t10.5 -53
q0 -29 -10.5 -53t-28.5 -42t-42.5 -28t-52.5 -10q-29 0 -53 10t-42 28t-28 42.5t-10 53.5q0 28 10 52.5t28 42.5t42 28.5t53 10.5z" />
    <glyph glyph-name="Idotaccent" unicode="&#x130;" horiz-adv-x="527" 
d="M372 0h-217v1400h217v-1400zM263 1799q29 0 54.5 -11t44 -29.5t29 -44t10.5 -54.5t-10.5 -54t-29 -43.5t-44 -29t-54.5 -10.5q-30 0 -55 10.5t-43 29t-28.5 44t-10.5 54.5t10.5 54t28.5 44t43 29.5t55 10.5z" />
    <glyph glyph-name="dotlessi" unicode="&#x131;" horiz-adv-x="472" 
d="M337 0h-202v962h202v-962z" />
    <glyph glyph-name="IJ" unicode="&#x132;" horiz-adv-x="1534" 
d="M372 0h-217v1400h217v-1400zM1386 461q0 -117 -33.5 -207t-93.5 -151t-142 -92.5t-178 -31.5q-73 0 -133 15t-108 40t-84 56t-62 64l128 155q40 -51 101 -85.5t147 -34.5q55 0 99 18t75.5 54.5t48.5 91t17 128.5v919h218v-939z" />
    <glyph glyph-name="ij" unicode="&#x133;" horiz-adv-x="946" 
d="M812 -119q0 -68 -18 -120t-51 -87.5t-78.5 -53.5t-100.5 -18q-39 0 -77 8t-65 21l40 178q15 -7 32.5 -11t36.5 -4q35 0 57 23t22 77v1068h202v-1081zM709 1424q28 0 52.5 -10.5t42.5 -28.5t28.5 -43t10.5 -53q0 -29 -10.5 -53t-28.5 -42t-42.5 -28t-52.5 -10
q-29 0 -53 10t-42 28t-28 42.5t-10 53.5q0 28 10 52.5t28 42.5t42 28.5t53 10.5zM337 0h-202v962h202v-962zM235 1424q28 0 52.5 -10.5t42.5 -28.5t28.5 -43t10.5 -53q0 -29 -10.5 -53t-28.5 -42t-42.5 -28t-52.5 -10q-29 0 -53 10t-42 28t-28 42.5t-10 53.5q0 28 10 52.5
t28 42.5t42 28.5t53 10.5z" />
    <glyph glyph-name="Jcircumflex" unicode="&#x134;" horiz-adv-x="1007" 
d="M859 461q0 -117 -33.5 -207t-93.5 -151t-142 -92.5t-178 -31.5q-73 0 -133 15t-108 40t-84 56t-62 64l128 155q40 -51 101 -85.5t147 -34.5q55 0 99 18t75.5 54.5t48.5 91t17 128.5v919h218v-939zM881 1508l-131 169l-130 -169h-194l204 303h241l204 -303h-194z" />
    <glyph glyph-name="jcircumflex" unicode="&#x135;" horiz-adv-x="475" 
d="M340 -119q0 -68 -18 -120t-51 -87.5t-78.5 -53.5t-100.5 -18q-39 0 -77 8t-65 21l40 178q15 -7 32.5 -11t36.5 -4q35 0 57 23t22 77v1068h202v-1081zM369 1097l-131 169l-130 -169h-194l204 303h241l204 -303h-194z" />
    <glyph glyph-name="uni0136" unicode="&#x136;" horiz-adv-x="1272" 
d="M494 603h-122v-603h-217v1400h217v-594h126l459 594h267l-549 -685l585 -715h-278zM749 -86l-75 -353h-166l38 353h203z" />
    <glyph glyph-name="uni0137" unicode="&#x137;" horiz-adv-x="982" 
d="M432 408h-95v-408h-202v1440h202v-843h97l276 365h245l-357 -455l362 -507h-246zM622 -84l-75 -353h-166l38 353h203z" />
    <glyph glyph-name="kgreenlandic" unicode="&#x138;" horiz-adv-x="980" 
d="M433 408h-97v-408h-201v962h201v-365h99l272 365h245l-353 -455l359 -507h-246z" />
    <glyph glyph-name="Lacute" unicode="&#x139;" horiz-adv-x="1077" 
d="M1046 203v-203h-891v1400h217v-1197h674zM114 1509l186 308h239l-235 -308h-190z" />
    <glyph glyph-name="lacute" unicode="&#x13a;" horiz-adv-x="472" 
d="M337 0h-202v1440h202v-1440zM71 1536l186 308h239l-235 -308h-190z" />
    <glyph glyph-name="uni013B" unicode="&#x13b;" horiz-adv-x="1077" 
d="M1046 203v-203h-891v1400h217v-1197h674zM712 -86l-75 -353h-166l38 353h203z" />
    <glyph glyph-name="uni013C" unicode="&#x13c;" horiz-adv-x="472" 
d="M337 0h-202v1440h202v-1440zM346 -84l-75 -353h-166l38 353h203z" />
    <glyph glyph-name="Lcaron" unicode="&#x13d;" horiz-adv-x="1077" 
d="M1046 203v-203h-891v1400h217v-1197h674zM554 990l3 411h196l-41 -411h-158z" />
    <glyph glyph-name="lcaron" unicode="&#x13e;" horiz-adv-x="562" 
d="M337 0h-202v1440h202v-1440zM429 1029l3 411h196l-41 -411h-158z" />
    <glyph glyph-name="Ldot" unicode="&#x13f;" horiz-adv-x="1077" 
d="M1046 203v-203h-891v1400h217v-1197h674zM791 845q29 0 54.5 -11t44 -29.5t29 -44t10.5 -54.5t-10.5 -54t-29 -43.5t-44 -29t-54.5 -10.5q-30 0 -55 10.5t-43 29t-28.5 44t-10.5 54.5t10.5 54t28.5 44t43 29.5t55 10.5z" />
    <glyph glyph-name="ldot" unicode="&#x140;" horiz-adv-x="638" 
d="M337 0h-202v1440h202v-1440zM556.157 862.796q27.7793 0 52.0869 -10.417q24.3066 -10.418 42.165 -28.2754q17.8584 -17.8584 28.2754 -42.6621q10.418 -24.8027 10.418 -52.582q0 -28.7725 -10.418 -52.583q-10.417 -23.8115 -28.2754 -41.6699
q-17.8584 -17.8574 -42.165 -27.7793q-24.3076 -9.9209 -52.0869 -9.9209q-28.7715 0 -52.583 9.9209q-23.8105 9.92188 -41.6689 27.7793q-17.8584 17.8584 -27.7793 42.166q-9.92188 24.3066 -9.92188 53.0781q0 27.7803 9.92188 52.0869q9.9209 24.3076 27.7793 42.166
q17.8584 17.8574 41.6689 28.2754q23.8115 10.417 52.583 10.417z" />
    <glyph glyph-name="Lslash" unicode="&#x141;" horiz-adv-x="1184" 
d="M1153 203v-203h-891v479l-169 -94v218l169 94v703h217v-581l426 238v-219l-426 -238v-397h674z" />
    <glyph glyph-name="lslash" unicode="&#x142;" horiz-adv-x="631" 
d="M417 912l173 113v-204l-173 -114v-707h-202v575l-174 -114v205l174 114v660h202v-528z" />
    <glyph glyph-name="Nacute" unicode="&#x143;" horiz-adv-x="1406" 
d="M1251 -1h-204l-676 996v-995h-216v1401h204l676 -999v998h216v-1401zM554 1509l186 308h239l-235 -308h-190z" />
    <glyph glyph-name="nacute" unicode="&#x144;" horiz-adv-x="1076" 
d="M608 983q76 0 138.5 -25t107.5 -70.5t70 -110t25 -143.5v-634h-203v573q0 106 -52 161.5t-145 55.5q-44 0 -82 -14.5t-66.5 -43t-45 -69.5t-16.5 -93v-570h-204v962h198v-130q24 42 55.5 71t67.5 46.5t74.5 25.5t77.5 8zM408 1098l186 308h239l-235 -308h-190z" />
    <glyph glyph-name="uni0145" unicode="&#x145;" horiz-adv-x="1406" 
d="M1251 -1h-204l-676 996v-995h-216v1401h204l676 -999v998h216v-1401zM813 -86l-75 -353h-166l38 353h203z" />
    <glyph glyph-name="uni0146" unicode="&#x146;" horiz-adv-x="1076" 
d="M608 983q76 0 138.5 -25t107.5 -70.5t70 -110t25 -143.5v-634h-203v573q0 106 -52 161.5t-145 55.5q-44 0 -82 -14.5t-66.5 -43t-45 -69.5t-16.5 -93v-570h-204v962h198v-130q24 42 55.5 71t67.5 46.5t74.5 25.5t77.5 8zM652 -84l-75 -353h-166l38 353h203z" />
    <glyph glyph-name="Ncaron" unicode="&#x147;" horiz-adv-x="1406" 
d="M1251 -1h-204l-676 996v-995h-216v1401h204l676 -999v998h216v-1401zM572 1809l131 -169l130 169h194l-204 -303h-241l-204 303h194z" />
    <glyph glyph-name="ncaron" unicode="&#x148;" horiz-adv-x="1076" 
d="M608 983q76 0 138.5 -25t107.5 -70.5t70 -110t25 -143.5v-634h-203v573q0 106 -52 161.5t-145 55.5q-44 0 -82 -14.5t-66.5 -43t-45 -69.5t-16.5 -93v-570h-204v962h198v-130q24 42 55.5 71t67.5 46.5t74.5 25.5t77.5 8zM418 1398l131 -169l130 169h194l-204 -303h-241
l-204 303h194z" />
    <glyph glyph-name="napostrophe" unicode="&#x149;" horiz-adv-x="1349" 
d="M377 1439l-113 -533h-170l57 533h226zM881 983q76 0 138.5 -25t107.5 -70.5t70 -110t25 -143.5v-634h-203v573q0 106 -52 161.5t-145 55.5q-44 0 -82 -14.5t-66.5 -43t-45 -69.5t-16.5 -93v-570h-204v962h198v-130q24 42 55.5 71t67.5 46.5t74.5 25.5t77.5 8z" />
    <glyph glyph-name="Eng" unicode="&#x14a;" horiz-adv-x="1406" 
d="M1250 -20q0 -84 -21.5 -153.5t-64 -119.5t-107 -77.5t-149.5 -27.5q-82 0 -147.5 20.5t-114.5 52.5l86 182q32 -20 70.5 -32.5t79.5 -12.5q79 0 115.5 47.5t36.5 134.5v24l-663 977v-995h-216v1401h204l676 -998v997h216z" />
    <glyph glyph-name="eng" unicode="&#x14b;" horiz-adv-x="1076" 
d="M608 983q76 0 138.5 -25t107.5 -70.5t70 -110t25 -143.5v-691q0 -68 -18.5 -120t-51.5 -87.5t-78.5 -53.5t-100.5 -18q-39 0 -77 8t-65 21l40 178q15 -7 32.5 -11t36.5 -4q35 0 57 23.5t22 76.5v617q0 106 -52 161.5t-145 55.5q-44 0 -82 -14.5t-66.5 -43t-45 -69.5
t-16.5 -93v-570h-204v962h198v-130q24 42 55.5 71t67.5 46.5t74.5 25.5t77.5 8z" />
    <glyph glyph-name="Omacron" unicode="&#x14c;" horiz-adv-x="1477" 
d="M739 1422q144 0 262 -52t203 -146.5t131.5 -227.5t46.5 -296t-46.5 -296t-131.5 -227.5t-203 -146.5t-262 -52t-262.5 52t-203.5 146.5t-131.5 227.5t-46.5 296t46.5 296t131.5 227.5t203.5 146.5t262.5 52zM739 1211q-92 0 -168.5 -35t-132 -101t-86.5 -161t-31 -214
t31 -214t86.5 -161t132 -101t168.5 -35q91 0 167.5 35t132 101t86.5 161t31 214t-31 214t-86.5 161t-132 101t-167.5 35zM450 1743h576v-170h-576v170z" />
    <glyph glyph-name="omacron" unicode="&#x14d;" horiz-adv-x="1078" 
d="M539 983q101 0 186 -36.5t146 -102.5t95 -158.5t34 -204.5t-34 -204.5t-95 -158.5t-146 -102.5t-186 -36.5t-186 36.5t-146 102.5t-95 158.5t-34 204.5t34 204.5t95 158.5t146 102.5t186 36.5zM539 791q-56 0 -102.5 -21.5t-80.5 -62t-53 -97.5t-19 -129t19 -129.5
t53 -97.5t80.5 -61.5t102.5 -21.5q55 0 102 21.5t81.5 61.5t53.5 97.5t19 129.5t-19 129t-53.5 97.5t-81.5 62t-102 21.5zM251 1332h576v-170h-576v170z" />
    <glyph glyph-name="Obreve" unicode="&#x14e;" horiz-adv-x="1477" 
d="M739 1422q144 0 262 -52t203 -146.5t131.5 -227.5t46.5 -296t-46.5 -296t-131.5 -227.5t-203 -146.5t-262 -52t-262.5 52t-203.5 146.5t-131.5 227.5t-46.5 296t46.5 296t131.5 227.5t203.5 146.5t262.5 52zM739 1211q-92 0 -168.5 -35t-132 -101t-86.5 -161t-31 -214
t31 -214t86.5 -161t132 -101t168.5 -35q91 0 167.5 35t132 101t86.5 161t31 214t-31 214t-86.5 161t-132 101t-167.5 35zM560 1837q22 -88 66.5 -128.5t110.5 -40.5q65 0 109.5 40.5t66.5 128.5l156 -38q-33 -148 -117.5 -224.5t-214.5 -76.5t-215 76.5t-118 224.5z" />
    <glyph glyph-name="obreve" unicode="&#x14f;" horiz-adv-x="1078" 
d="M539 983q101 0 186 -36.5t146 -102.5t95 -158.5t34 -204.5t-34 -204.5t-95 -158.5t-146 -102.5t-186 -36.5t-186 36.5t-146 102.5t-95 158.5t-34 204.5t34 204.5t95 158.5t146 102.5t186 36.5zM539 791q-56 0 -102.5 -21.5t-80.5 -62t-53 -97.5t-19 -129t19 -129.5
t53 -97.5t80.5 -61.5t102.5 -21.5q55 0 102 21.5t81.5 61.5t53.5 97.5t19 129.5t-19 129t-53.5 97.5t-81.5 62t-102 21.5zM362 1425q22 -88 66.5 -128.5t110.5 -40.5q65 0 109.5 40.5t66.5 128.5l156 -38q-33 -148 -117.5 -224.5t-214.5 -76.5t-215 76.5t-118 224.5z" />
    <glyph glyph-name="Ohungarumlaut" unicode="&#x150;" horiz-adv-x="1477" 
d="M739 1422q144 0 262 -52t203 -146.5t131.5 -227.5t46.5 -296t-46.5 -296t-131.5 -227.5t-203 -146.5t-262 -52t-262.5 52t-203.5 146.5t-131.5 227.5t-46.5 296t46.5 296t131.5 227.5t203.5 146.5t262.5 52zM739 1211q-92 0 -168.5 -35t-132 -101t-86.5 -161t-31 -214
t31 -214t86.5 -161t132 -101t168.5 -35q91 0 167.5 35t132 101t86.5 161t31 214t-31 214t-86.5 161t-132 101t-167.5 35zM454 1509l179 308h212l-198 -308h-193zM786 1509l198 308h217l-220 -308h-195z" />
    <glyph glyph-name="ohungarumlaut" unicode="&#x151;" horiz-adv-x="1078" 
d="M539 983q101 0 186 -36.5t146 -102.5t95 -158.5t34 -204.5t-34 -204.5t-95 -158.5t-146 -102.5t-186 -36.5t-186 36.5t-146 102.5t-95 158.5t-34 204.5t34 204.5t95 158.5t146 102.5t186 36.5zM539 791q-56 0 -102.5 -21.5t-80.5 -62t-53 -97.5t-19 -129t19 -129.5
t53 -97.5t80.5 -61.5t102.5 -21.5q55 0 102 21.5t81.5 61.5t53.5 97.5t19 129.5t-19 129t-53.5 97.5t-81.5 62t-102 21.5zM266 1098l179 308h212l-198 -308h-193zM598 1098l198 308h217l-220 -308h-195z" />
    <glyph glyph-name="OE" unicode="&#x152;" horiz-adv-x="1978" 
d="M1854 201v-201h-1092q-155 0 -278.5 49t-209.5 140t-132.5 220.5t-46.5 290.5q0 160 46.5 289.5t132.5 221t209.5 140.5t278.5 49h1086v-201h-677v-393h650v-201h-650v-404h683zM321 700q0 -113 27.5 -205t82.5 -156.5t138 -99.5t194 -35h191v992h-191q-111 0 -194 -35.5
t-138 -100.5t-82.5 -156.5t-27.5 -203.5z" />
    <glyph glyph-name="oe" unicode="&#x153;" horiz-adv-x="1724" 
d="M1646 483q0 -40 -3 -73h-641q8 -65 31 -112.5t57 -78.5t77 -45.5t93 -14.5q69 0 132.5 25.5t114.5 70.5l102 -142q-79 -73 -170.5 -103.5t-194.5 -30.5q-118 0 -207.5 49t-146.5 140q-58 -89 -148 -139t-203 -50q-101 0 -186 36.5t-146 102.5t-95 158.5t-34 204.5
t34 204.5t95 158.5t146 102.5t186 36.5q113 0 203 -50t148 -139q56 91 143 140t198 49q93 0 169 -35t131 -100.5t85 -158t30 -206.5zM1443 561q-13 115 -69 177.5t-146 62.5q-97 0 -154 -63.5t-71 -176.5h440zM539 171q55 0 102 21.5t81.5 61.5t53.5 97.5t19 129.5t-19 129
t-53.5 97.5t-81.5 62t-102 21.5q-56 0 -102.5 -21.5t-80.5 -62t-53 -97.5t-19 -129t19 -129.5t53 -97.5t80.5 -61.5t102.5 -21.5z" />
    <glyph glyph-name="Racute" unicode="&#x154;" horiz-adv-x="1219" 
d="M477 581h-105v-581h-217v1400h501q113 0 201.5 -27.5t149 -80t92 -129t31.5 -175.5q0 -87 -28.5 -158t-82 -123.5t-129.5 -84t-171 -39.5l416 -583h-260zM372 774h282q123 0 187.5 53t64.5 161q0 107 -65.5 158.5t-186.5 51.5h-282v-424zM443 1509l186 308h239l-235 -308
h-190z" />
    <glyph glyph-name="racute" unicode="&#x155;" horiz-adv-x="756" 
d="M583 983q38 0 71 -5.5t62 -18.5l-35 -208q-30 14 -67.5 22t-72.5 8q-46 0 -83 -16t-63.5 -47t-41 -75t-14.5 -99v-544h-204v962h198v-123q41 73 104 108.5t146 35.5zM283 1098l186 308h239l-235 -308h-190z" />
    <glyph glyph-name="uni0156" unicode="&#x156;" horiz-adv-x="1219" 
d="M477 581h-105v-581h-217v1400h501q113 0 201.5 -27.5t149 -80t92 -129t31.5 -175.5q0 -87 -28.5 -158t-82 -123.5t-129.5 -84t-171 -39.5l416 -583h-260zM372 774h282q123 0 187.5 53t64.5 161q0 107 -65.5 158.5t-186.5 51.5h-282v-424zM716 -86l-75 -353h-166l38 353
h203z" />
    <glyph glyph-name="uni0157" unicode="&#x157;" horiz-adv-x="756" 
d="M583 983q38 0 71 -5.5t62 -18.5l-35 -208q-30 14 -67.5 22t-72.5 8q-46 0 -83 -16t-63.5 -47t-41 -75t-14.5 -99v-544h-204v962h198v-123q41 73 104 108.5t146 35.5zM348 -84l-75 -353h-166l38 353h203z" />
    <glyph glyph-name="Rcaron" unicode="&#x158;" horiz-adv-x="1219" 
d="M477 581h-105v-581h-217v1400h501q113 0 201.5 -27.5t149 -80t92 -129t31.5 -175.5q0 -87 -28.5 -158t-82 -123.5t-129.5 -84t-171 -39.5l416 -583h-260zM372 774h282q123 0 187.5 53t64.5 161q0 107 -65.5 158.5t-186.5 51.5h-282v-424zM461 1809l131 -169l130 169h194
l-204 -303h-241l-204 303h194z" />
    <glyph glyph-name="rcaron" unicode="&#x159;" horiz-adv-x="756" 
d="M583 983q38 0 71 -5.5t62 -18.5l-35 -208q-30 14 -67.5 22t-72.5 8q-46 0 -83 -16t-63.5 -47t-41 -75t-14.5 -99v-544h-204v962h198v-123q41 73 104 108.5t146 35.5zM293 1398l131 -169l130 169h194l-204 -303h-241l-204 303h194z" />
    <glyph glyph-name="Sacute" unicode="&#x15a;" horiz-adv-x="1209" 
d="M976 1096q-71 54 -156.5 85.5t-185.5 31.5q-60 0 -110.5 -14t-87 -40t-56.5 -63t-20 -84q0 -80 65 -125t193 -71l104 -22q84 -18 156.5 -48.5t125 -77.5t82.5 -112t30 -151q0 -103 -40 -182.5t-110 -133.5t-163.5 -82t-200.5 -28q-73 0 -144.5 13.5t-137.5 38t-123.5 60
t-103.5 80.5l133 160q31 -30 72 -56.5t89.5 -46t102.5 -31t110 -11.5q61 0 114 13.5t92 39.5t61 63.5t22 85.5q0 81 -66 127t-197 73l-113 23q-85 18 -155 50.5t-119.5 81t-77 113t-27.5 147.5q0 97 38.5 174.5t105.5 131.5t158.5 82.5t197.5 28.5q143 0 257 -42t209 -117z
M497 1509l186 308h239l-235 -308h-190z" />
    <glyph glyph-name="sacute" unicode="&#x15b;" horiz-adv-x="903" 
d="M732 729q-22 14 -51 27.5t-63 24t-71.5 17t-75.5 6.5q-78 0 -122 -30.5t-44 -82.5q0 -50 41 -74.5t117 -38.5l86 -15q140 -25 213.5 -93.5t73.5 -183.5q0 -69 -27.5 -125.5t-79.5 -96.5t-125.5 -62t-164.5 -22q-45 0 -93.5 6t-96.5 19.5t-94.5 35t-87.5 53.5l91 154
q24 -19 52.5 -35.5t62.5 -29t74.5 -19.5t88.5 -7q92 0 143 30.5t51 86.5q0 43 -37 72t-122 44l-87 15q-147 25 -216 99t-69 182q0 69 26 123.5t74 93t115.5 59t150.5 20.5q103 0 191 -25.5t158 -70.5zM331 1098l186 308h239l-235 -308h-190z" />
    <glyph glyph-name="Scircumflex" unicode="&#x15c;" horiz-adv-x="1209" 
d="M976 1096q-71 54 -156.5 85.5t-185.5 31.5q-60 0 -110.5 -14t-87 -40t-56.5 -63t-20 -84q0 -80 65 -125t193 -71l104 -22q84 -18 156.5 -48.5t125 -77.5t82.5 -112t30 -151q0 -103 -40 -182.5t-110 -133.5t-163.5 -82t-200.5 -28q-73 0 -144.5 13.5t-137.5 38t-123.5 60
t-103.5 80.5l133 160q31 -30 72 -56.5t89.5 -46t102.5 -31t110 -11.5q61 0 114 13.5t92 39.5t61 63.5t22 85.5q0 81 -66 127t-197 73l-113 23q-85 18 -155 50.5t-119.5 81t-77 113t-27.5 147.5q0 97 38.5 174.5t105.5 131.5t158.5 82.5t197.5 28.5q143 0 257 -42t209 -117z
M778 1508l-131 169l-130 -169h-194l204 303h241l204 -303h-194z" />
    <glyph glyph-name="scircumflex" unicode="&#x15d;" horiz-adv-x="903" 
d="M732 729q-22 14 -51 27.5t-63 24t-71.5 17t-75.5 6.5q-78 0 -122 -30.5t-44 -82.5q0 -50 41 -74.5t117 -38.5l86 -15q140 -25 213.5 -93.5t73.5 -183.5q0 -69 -27.5 -125.5t-79.5 -96.5t-125.5 -62t-164.5 -22q-45 0 -93.5 6t-96.5 19.5t-94.5 35t-87.5 53.5l91 154
q24 -19 52.5 -35.5t62.5 -29t74.5 -19.5t88.5 -7q92 0 143 30.5t51 86.5q0 43 -37 72t-122 44l-87 15q-147 25 -216 99t-69 182q0 69 26 123.5t74 93t115.5 59t150.5 20.5q103 0 191 -25.5t158 -70.5zM603 1097l-131 169l-130 -169h-194l204 303h241l204 -303h-194z" />
    <glyph glyph-name="Scedilla" unicode="&#x15e;" horiz-adv-x="1209" 
d="M976 1096q-71 54 -156.5 85.5t-185.5 31.5q-60 0 -110.5 -14t-87 -40t-56.5 -63t-20 -84q0 -80 65 -125t193 -71l104 -22q84 -18 156.5 -48.5t125 -77.5t82.5 -112t30 -151q0 -103 -40 -182.5t-110 -133.5t-163.5 -82t-200.5 -28q-73 0 -144.5 13.5t-137.5 38t-123.5 60
t-103.5 80.5l133 160q31 -30 72 -56.5t89.5 -46t102.5 -31t110 -11.5q61 0 114 13.5t92 39.5t61 63.5t22 85.5q0 81 -66 127t-197 73l-113 23q-85 18 -155 50.5t-119.5 81t-77 113t-27.5 147.5q0 97 38.5 174.5t105.5 131.5t158.5 82.5t197.5 28.5q143 0 257 -42t209 -117z
M630 -322h-208l100 328h200z" />
    <glyph glyph-name="scedilla" unicode="&#x15f;" horiz-adv-x="903" 
d="M732 729q-22 14 -51 27.5t-63 24t-71.5 17t-75.5 6.5q-78 0 -122 -30.5t-44 -82.5q0 -50 41 -74.5t117 -38.5l86 -15q140 -25 213.5 -93.5t73.5 -183.5q0 -69 -27.5 -125.5t-79.5 -96.5t-125.5 -62t-164.5 -22q-45 0 -93.5 6t-96.5 19.5t-94.5 35t-87.5 53.5l91 154
q24 -19 52.5 -35.5t62.5 -29t74.5 -19.5t88.5 -7q92 0 143 30.5t51 86.5q0 43 -37 72t-122 44l-87 15q-147 25 -216 99t-69 182q0 69 26 123.5t74 93t115.5 59t150.5 20.5q103 0 191 -25.5t158 -70.5zM470 -322h-193l101 339l185 -11z" />
    <glyph glyph-name="Scaron" unicode="&#x160;" horiz-adv-x="1209" 
d="M976 1096q-71 54 -156.5 85.5t-185.5 31.5q-60 0 -110.5 -14t-87 -40t-56.5 -63t-20 -84q0 -80 65 -125t193 -71l104 -22q84 -18 156.5 -48.5t125 -77.5t82.5 -112t30 -151q0 -103 -40 -182.5t-110 -133.5t-163.5 -82t-200.5 -28q-73 0 -144.5 13.5t-137.5 38t-123.5 60
t-103.5 80.5l133 160q31 -30 72 -56.5t89.5 -46t102.5 -31t110 -11.5q61 0 114 13.5t92 39.5t61 63.5t22 85.5q0 81 -66 127t-197 73l-113 23q-85 18 -155 50.5t-119.5 81t-77 113t-27.5 147.5q0 97 38.5 174.5t105.5 131.5t158.5 82.5t197.5 28.5q143 0 257 -42t209 -117z
M515 1809l131 -169l130 169h194l-204 -303h-241l-204 303h194z" />
    <glyph glyph-name="scaron" unicode="&#x161;" horiz-adv-x="903" 
d="M732 729q-22 14 -51 27.5t-63 24t-71.5 17t-75.5 6.5q-78 0 -122 -30.5t-44 -82.5q0 -50 41 -74.5t117 -38.5l86 -15q140 -25 213.5 -93.5t73.5 -183.5q0 -69 -27.5 -125.5t-79.5 -96.5t-125.5 -62t-164.5 -22q-45 0 -93.5 6t-96.5 19.5t-94.5 35t-87.5 53.5l91 154
q24 -19 52.5 -35.5t62.5 -29t74.5 -19.5t88.5 -7q92 0 143 30.5t51 86.5q0 43 -37 72t-122 44l-87 15q-147 25 -216 99t-69 182q0 69 26 123.5t74 93t115.5 59t150.5 20.5q103 0 191 -25.5t158 -70.5zM341 1398l131 -169l130 169h194l-204 -303h-241l-204 303h194z" />
    <glyph glyph-name="uni0162" unicode="&#x162;" horiz-adv-x="1087" 
d="M1056 1197h-404v-1197h-217v1197h-404v203h1025v-203zM553 -322h-208l100 328h200z" />
    <glyph glyph-name="uni0163" unicode="&#x163;" horiz-adv-x="819" 
d="M797 63q-51 -36 -117 -60t-150 -24q-74 0 -133 21t-99.5 63.5t-62 107t-21.5 151.5v455h-173v185h173v278h202v-278h329v-185h-329v-443q0 -44 11 -74.5t30 -50.5t45 -29t57 -9q45 0 88 16t78 40zM504 -322h-193l101 339l185 -11z" />
    <glyph glyph-name="Tcaron" unicode="&#x164;" horiz-adv-x="1087" 
d="M1056 1197h-404v-1197h-217v1197h-404v203h1025v-203zM413 1809l131 -169l130 169h194l-204 -303h-241l-204 303h194z" />
    <glyph glyph-name="tcaron" unicode="&#x165;" horiz-adv-x="819" 
d="M797 63q-51 -36 -117 -60t-150 -24q-74 0 -133 21t-99.5 63.5t-62 107t-21.5 151.5v455h-173v185h173v278h202v-278h329v-185h-329v-443q0 -44 11 -74.5t30 -50.5t45 -29t57 -9q45 0 88 16t78 40zM509 1047l3 411h196l-41 -411h-158z" />
    <glyph glyph-name="Tbar" unicode="&#x166;" horiz-adv-x="1087" 
d="M1056 1197h-404v-1197h-217v1197h-404v203h1025v-203zM910 610h-723v191h723v-191z" />
    <glyph glyph-name="tbar" unicode="&#x167;" horiz-adv-x="819" 
d="M797 63q-51 -36 -117 -60t-150 -24q-74 0 -133 21t-99.5 63.5t-62 107t-21.5 151.5v105h-161v175h161v175h-173v185h173v278h202v-278h329v-185h-329v-175h247v-175h-247v-93q0 -44 11 -74.5t30 -50.5t45 -29t57 -9q45 0 88 16t78 40z" />
    <glyph glyph-name="Utilde" unicode="&#x168;" horiz-adv-x="1347" 
d="M1207 506q0 -129 -39.5 -227t-110.5 -165t-168.5 -101t-214.5 -34t-215 34t-169 101t-110.5 165t-39.5 227v894h217v-880q0 -86 23.5 -148.5t65.5 -103t100 -60t128 -19.5q69 0 127 19.5t100 60t65.5 103t23.5 148.5v880h217v-894zM329 1665q46 62 99.5 90.5t122.5 28.5
q46 0 79.5 -11t60.5 -23.5t49.5 -23.5t47.5 -11q30 0 57.5 16.5t58.5 49.5l107 -120q-47 -62 -100 -90.5t-123 -28.5q-45 0 -78.5 11t-60 23.5t-49.5 23.5t-48 11q-30 0 -57.5 -16.5t-58.5 -49.5z" />
    <glyph glyph-name="utilde" unicode="&#x169;" horiz-adv-x="1063" 
d="M936 382q0 -105 -32.5 -181t-88 -125.5t-129 -73t-155.5 -23.5t-155 23.5t-128.5 73t-88 125.5t-32.5 181v580h202v-565q0 -60 15 -103t42 -70t64 -40t81 -13t81 13t64 40t42.5 70t15.5 103v565h202v-580zM190 1253q46 62 99.5 90.5t122.5 28.5q46 0 79.5 -11t60.5 -23.5
t49.5 -23.5t47.5 -11q30 0 57.5 16.5t58.5 49.5l107 -120q-47 -62 -100 -90.5t-123 -28.5q-45 0 -78.5 11t-60 23.5t-49.5 23.5t-48 11q-30 0 -57.5 -16.5t-58.5 -49.5z" />
    <glyph glyph-name="Umacron" unicode="&#x16a;" horiz-adv-x="1347" 
d="M1207 506q0 -129 -39.5 -227t-110.5 -165t-168.5 -101t-214.5 -34t-215 34t-169 101t-110.5 165t-39.5 227v894h217v-880q0 -86 23.5 -148.5t65.5 -103t100 -60t128 -19.5q69 0 127 19.5t100 60t65.5 103t23.5 148.5v880h217v-894zM385 1743h576v-170h-576v170z" />
    <glyph glyph-name="umacron" unicode="&#x16b;" horiz-adv-x="1063" 
d="M936 382q0 -105 -32.5 -181t-88 -125.5t-129 -73t-155.5 -23.5t-155 23.5t-128.5 73t-88 125.5t-32.5 181v580h202v-565q0 -60 15 -103t42 -70t64 -40t81 -13t81 13t64 40t42.5 70t15.5 103v565h202v-580zM242 1332h576v-170h-576v170z" />
    <glyph glyph-name="Ubreve" unicode="&#x16c;" horiz-adv-x="1347" 
d="M1207 506q0 -129 -39.5 -227t-110.5 -165t-168.5 -101t-214.5 -34t-215 34t-169 101t-110.5 165t-39.5 227v894h217v-880q0 -86 23.5 -148.5t65.5 -103t100 -60t128 -19.5q69 0 127 19.5t100 60t65.5 103t23.5 148.5v880h217v-894zM495 1837q22 -88 66.5 -128.5
t110.5 -40.5q65 0 109.5 40.5t66.5 128.5l156 -38q-33 -148 -117.5 -224.5t-214.5 -76.5t-215 76.5t-118 224.5z" />
    <glyph glyph-name="ubreve" unicode="&#x16d;" horiz-adv-x="1063" 
d="M936 382q0 -105 -32.5 -181t-88 -125.5t-129 -73t-155.5 -23.5t-155 23.5t-128.5 73t-88 125.5t-32.5 181v580h202v-565q0 -60 15 -103t42 -70t64 -40t81 -13t81 13t64 40t42.5 70t15.5 103v565h202v-580zM353 1425q22 -88 66.5 -128.5t110.5 -40.5q65 0 109.5 40.5
t66.5 128.5l156 -38q-33 -148 -117.5 -224.5t-214.5 -76.5t-215 76.5t-118 224.5z" />
    <glyph glyph-name="Uring" unicode="&#x16e;" horiz-adv-x="1347" 
d="M1207 506q0 -129 -39.5 -227t-110.5 -165t-168.5 -101t-214.5 -34t-215 34t-169 101t-110.5 165t-39.5 227v894h217v-880q0 -86 23.5 -148.5t65.5 -103t100 -60t128 -19.5q69 0 127 19.5t100 60t65.5 103t23.5 148.5v880h217v-894zM672 1492q-48 0 -90 18t-73.5 48.5
t-49.5 72.5t-18 90q0 47 18 88.5t49.5 72t73.5 48.5t90 18t90 -18t73.5 -48.5t50 -72t18.5 -88.5q0 -48 -18.5 -90t-50 -72.5t-73.5 -48.5t-90 -18zM672 1612q22 0 41.5 8.5t34 23t23 34.5t8.5 43q0 22 -8.5 42t-23 34t-34 22.5t-41.5 8.5q-21 0 -40.5 -8.5t-33.5 -22.5
t-22.5 -34t-8.5 -42q0 -23 8.5 -43t22.5 -34.5t33.5 -23t40.5 -8.5z" />
    <glyph glyph-name="uring" unicode="&#x16f;" horiz-adv-x="1063" 
d="M936 382q0 -105 -32.5 -181t-88 -125.5t-129 -73t-155.5 -23.5t-155 23.5t-128.5 73t-88 125.5t-32.5 181v580h202v-565q0 -60 15 -103t42 -70t64 -40t81 -13t81 13t64 40t42.5 70t15.5 103v565h202v-580zM529 1081q-48 0 -90 18t-73.5 48.5t-49.5 72.5t-18 90
q0 47 18 88.5t49.5 72t73.5 48.5t90 18t90 -18t73.5 -48.5t50 -72t18.5 -88.5q0 -48 -18.5 -90t-50 -72.5t-73.5 -48.5t-90 -18zM529 1201q22 0 41.5 8.5t34 23t23 34.5t8.5 43q0 22 -8.5 42t-23 34t-34 22.5t-41.5 8.5q-21 0 -40.5 -8.5t-33.5 -22.5t-22.5 -34t-8.5 -42
q0 -23 8.5 -43t22.5 -34.5t33.5 -23t40.5 -8.5z" />
    <glyph glyph-name="Uhungarumlaut" unicode="&#x170;" horiz-adv-x="1347" 
d="M1207 506q0 -129 -39.5 -227t-110.5 -165t-168.5 -101t-214.5 -34t-215 34t-169 101t-110.5 165t-39.5 227v894h217v-880q0 -86 23.5 -148.5t65.5 -103t100 -60t128 -19.5q69 0 127 19.5t100 60t65.5 103t23.5 148.5v880h217v-894zM389 1509l179 308h212l-198 -308h-193z
M721 1509l198 308h217l-220 -308h-195z" />
    <glyph glyph-name="uhungarumlaut" unicode="&#x171;" horiz-adv-x="1063" 
d="M936 382q0 -105 -32.5 -181t-88 -125.5t-129 -73t-155.5 -23.5t-155 23.5t-128.5 73t-88 125.5t-32.5 181v580h202v-565q0 -60 15 -103t42 -70t64 -40t81 -13t81 13t64 40t42.5 70t15.5 103v565h202v-580zM257 1098l179 308h212l-198 -308h-193zM589 1098l198 308h217
l-220 -308h-195z" />
    <glyph glyph-name="Uogonek" unicode="&#x172;" horiz-adv-x="1347" 
d="M1207 506q0 -129 -39.5 -227t-110.5 -165t-168.5 -101t-214.5 -34t-215 34t-169 101t-110.5 165t-39.5 227v894h217v-880q0 -86 23.5 -148.5t65.5 -103t100 -60t128 -19.5q69 0 127 19.5t100 60t65.5 103t23.5 148.5v880h217v-894zM1079 -307q-46 -46 -104.5 -70
t-127.5 -24q-57 0 -104 15t-80.5 41.5t-52.5 63.5t-19 81q0 51 21 92.5t60.5 76.5t96 63.5t126.5 54.5l58 -45q-96 -53 -136 -100.5t-40 -96.5q0 -35 24.5 -56.5t66.5 -21.5q60 0 109 46z" />
    <glyph glyph-name="uogonek" unicode="&#x173;" horiz-adv-x="1063" 
d="M936 382q0 -105 -32.5 -181t-88 -125.5t-129 -73t-155.5 -23.5t-155 23.5t-128.5 73t-88 125.5t-32.5 181v580h202v-565q0 -60 15 -103t42 -70t64 -40t81 -13t81 13t64 40t42.5 70t15.5 103v565h202v-580zM894 -307q-46 -46 -104.5 -70t-127.5 -24q-57 0 -104 15
t-80.5 41.5t-52.5 63.5t-19 81q0 51 21 92.5t60.5 76.5t96 63.5t126.5 54.5l58 -45q-96 -53 -136 -100.5t-40 -96.5q0 -35 24.5 -56.5t66.5 -21.5q60 0 109 46z" />
    <glyph glyph-name="Wcircumflex" unicode="&#x174;" horiz-adv-x="1968" 
d="M1931 1400l-387 -1401h-264l-296 1076l-297 -1076h-264l-386 1401h227l296 -1134l307 1135h237l307 -1136l297 1135h223zM1112 1508l-131 169l-130 -169h-194l204 303h241l204 -303h-194z" />
    <glyph glyph-name="wcircumflex" unicode="&#x175;" horiz-adv-x="1543" 
d="M1515 962l-299 -962h-231l-215 712l-215 -712h-228l-299 962h212l209 -727l219 727h207l221 -729l210 729h209zM900 1095l-131 169l-130 -169h-194l204 303h241l204 -303h-194z" />
    <glyph glyph-name="Ycircumflex" unicode="&#x176;" horiz-adv-x="1200" 
d="M711 553v-553h-217v556l-487 844h252l345 -608l344 608h245zM734 1508l-131 169l-130 -169h-194l204 303h241l204 -303h-194z" />
    <glyph glyph-name="ycircumflex" unicode="&#x177;" horiz-adv-x="990" 
d="M980 962l-660 -1346h-218l291 571l-380 775h222l266 -563l261 563h218zM628 1097l-131 169l-130 -169h-194l204 303h241l204 -303h-194z" />
    <glyph glyph-name="Ydieresis" unicode="&#x178;" horiz-adv-x="1200" 
d="M711 553v-553h-217v556l-487 844h252l345 -608l344 608h245zM402 1793q28 0 52.5 -10.5t42.5 -28.5t28 -43t10 -53t-10 -52t-28 -41.5t-42.5 -27.5t-52.5 -10t-52 10t-42 28t-28 42t-10 53q0 28 10 52t28 42t42 28.5t52 10.5zM797 1793q28 0 52.5 -10.5t42.5 -28.5
t28 -43t10 -53t-10 -52t-28 -41.5t-42.5 -27.5t-52.5 -10t-52 10t-42 28t-28 42t-10 53q0 28 10 52t28 42t42 28.5t52 10.5z" />
    <glyph glyph-name="Zacute" unicode="&#x179;" horiz-adv-x="1155" 
d="M1061 1231l-694 -1029h695v-202h-969v169l695 1029h-690v202h963v-169zM429 1509l186 308h239l-235 -308h-190z" />
    <glyph glyph-name="zacute" unicode="&#x17a;" horiz-adv-x="940" 
d="M838 808l-482 -623h490v-185h-752v152l490 626h-474v184h728v-154zM333 1098l186 308h239l-235 -308h-190z" />
    <glyph glyph-name="Zdotaccent" unicode="&#x17b;" horiz-adv-x="1155" 
d="M1061 1231l-694 -1029h695v-202h-969v169l695 1029h-690v202h963v-169zM578 1799q29 0 54.5 -11t44 -29.5t29 -44t10.5 -54.5t-10.5 -54t-29 -43.5t-44 -29t-54.5 -10.5q-30 0 -55 10.5t-43 29t-28.5 44t-10.5 54.5t10.5 54t28.5 44t43 29.5t55 10.5z" />
    <glyph glyph-name="zdotaccent" unicode="&#x17c;" horiz-adv-x="940" 
d="M838 808l-482 -623h490v-185h-752v152l490 626h-474v184h728v-154zM473 1424q28 0 52.5 -10.5t42.5 -28.5t28.5 -43t10.5 -53q0 -29 -10.5 -53t-28.5 -42t-42.5 -28t-52.5 -10q-29 0 -53 10t-42 28t-28 42.5t-10 53.5q0 28 10 52.5t28 42.5t42 28.5t53 10.5z" />
    <glyph glyph-name="Zcaron" unicode="&#x17d;" horiz-adv-x="1155" 
d="M1061 1231l-694 -1029h695v-202h-969v169l695 1029h-690v202h963v-169zM447 1809l131 -169l130 169h194l-204 -303h-241l-204 303h194z" />
    <glyph glyph-name="zcaron" unicode="&#x17e;" horiz-adv-x="940" 
d="M838 808l-482 -623h490v-185h-752v152l490 626h-474v184h728v-154zM343 1398l131 -169l130 169h194l-204 -303h-241l-204 303h194z" />
    <glyph glyph-name="longs" unicode="&#x17f;" horiz-adv-x="582" 
d="M434 1461q81 0 141.5 -20t107.5 -49l-71 -167q-32 19 -72 31.5t-83 12.5q-64 0 -96 -39t-32 -114v-1116h-201v1117q0 77 19.5 140.5t57.5 108.5t95.5 70t133.5 25z" />
    <glyph glyph-name="uni018F" unicode="&#x18f;" horiz-adv-x="1416" 
d="M690 1421q138 0 254 -51.5t200 -146t130.5 -227.5t46.5 -296q0 -164 -46 -297t-128 -227t-195 -145.5t-248 -51.5q-133 0 -245 48.5t-193 138.5t-126 218.5t-45 288.5q0 32 1 62t3 61h992q-12 97 -46.5 174t-87 130.5t-120 82t-145.5 28.5q-115 0 -199.5 -49.5
t-150.5 -137.5l-162 128q89 126 215.5 197.5t294.5 71.5zM705 188q74 0 139 28t116 81t85 129.5t46 173.5h-767q6 -95 36.5 -171t81 -129.5t117.5 -82.5t146 -29z" />
    <glyph glyph-name="florin" unicode="&#x192;" horiz-adv-x="1244" 
d="M883 1231q-58 0 -85 -39t-33 -110l-24 -267h242v-180h-258l-29 -323q-7 -78 -27.5 -139.5t-56.5 -104.5t-88.5 -65.5t-122.5 -22.5q-75 0 -132 18t-101 45l70 165q29 -17 64.5 -28t73.5 -11q59 0 86 38.5t33 109.5l28 318h-219v180h235l24 274q7 76 27 137.5t56 104.5
t89 66t124 23q75 0 131.5 -18t101.5 -45l-71 -165q-29 17 -64.5 28t-73.5 11z" />
    <glyph glyph-name="uni01B5" unicode="&#x1b5;" horiz-adv-x="1155" 
d="M1062 202v-202h-969v169l300 439h-193v196h321l267 394h-690v202h963v-169l-295 -434h194v-196h-323l-270 -399h695z" />
    <glyph glyph-name="uni01B6" unicode="&#x1b6;" horiz-adv-x="941" 
d="M847 185v-185h-753v152l211 264h-145v151h258l168 211h-476v184h728v-154l-195 -247h141v-151h-254l-176 -225h493z" />
    <glyph glyph-name="uni01CD" unicode="&#x1cd;" horiz-adv-x="1293" 
d="M922 349h-556l-118 -349h-225l493 1401h262l492 -1401h-230zM854 551l-210 623l-210 -623h420zM515 1809l131 -169l130 169h194l-204 -303h-241l-204 303h194z" />
    <glyph glyph-name="uni01CE" unicode="&#x1ce;" horiz-adv-x="1107" 
d="M972 962v-962h-200v135q-45 -71 -112.5 -113.5t-164.5 -42.5q-90 0 -166.5 36.5t-132 102.5t-87 158.5t-31.5 204.5t31.5 204.5t87 158.5t132 102.5t166.5 36.5q97 0 164.5 -42.5t112.5 -113.5v135h200zM533 172q55 0 101 22t78 62t50 97t18 128q0 70 -18 127.5t-50 97.5
t-78 62t-101 22q-57 0 -102.5 -22.5t-78 -63t-49.5 -97.5t-17 -126t17 -126t49.5 -97.5t78 -63t102.5 -22.5zM423 1398l131 -169l130 169h194l-204 -303h-241l-204 303h194z" />
    <glyph glyph-name="uni01CF" unicode="&#x1cf;" horiz-adv-x="527" 
d="M372 0h-217v1400h217v-1400zM132 1809l131 -169l130 169h194l-204 -303h-241l-204 303h194z" />
    <glyph glyph-name="uni01D0" unicode="&#x1d0;" horiz-adv-x="472" 
d="M337 0h-202v962h202v-962zM105 1398l131 -169l130 169h194l-204 -303h-241l-204 303h194z" />
    <glyph glyph-name="uni01D1" unicode="&#x1d1;" horiz-adv-x="1477" 
d="M739 1422q144 0 262 -52t203 -146.5t131.5 -227.5t46.5 -296t-46.5 -296t-131.5 -227.5t-203 -146.5t-262 -52t-262.5 52t-203.5 146.5t-131.5 227.5t-46.5 296t46.5 296t131.5 227.5t203.5 146.5t262.5 52zM739 1211q-92 0 -168.5 -35t-132 -101t-86.5 -161t-31 -214
t31 -214t86.5 -161t132 -101t168.5 -35q91 0 167.5 35t132 101t86.5 161t31 214t-31 214t-86.5 161t-132 101t-167.5 35zM607 1809l131 -169l130 169h194l-204 -303h-241l-204 303h194z" />
    <glyph glyph-name="uni01D2" unicode="&#x1d2;" horiz-adv-x="1078" 
d="M539 983q101 0 186 -36.5t146 -102.5t95 -158.5t34 -204.5t-34 -204.5t-95 -158.5t-146 -102.5t-186 -36.5t-186 36.5t-146 102.5t-95 158.5t-34 204.5t34 204.5t95 158.5t146 102.5t186 36.5zM539 791q-56 0 -102.5 -21.5t-80.5 -62t-53 -97.5t-19 -129t19 -129.5
t53 -97.5t80.5 -61.5t102.5 -21.5q55 0 102 21.5t81.5 61.5t53.5 97.5t19 129.5t-19 129t-53.5 97.5t-81.5 62t-102 21.5zM408 1397l131 -169l130 169h194l-204 -303h-241l-204 303h194z" />
    <glyph glyph-name="uni01D3" unicode="&#x1d3;" horiz-adv-x="1347" 
d="M1207 506q0 -129 -39.5 -227t-110.5 -165t-168.5 -101t-214.5 -34t-215 34t-169 101t-110.5 165t-39.5 227v894h217v-880q0 -86 23.5 -148.5t65.5 -103t100 -60t128 -19.5q69 0 127 19.5t100 60t65.5 103t23.5 148.5v880h217v-894zM542 1809l131 -169l130 169h194
l-204 -303h-241l-204 303h194z" />
    <glyph glyph-name="uni01D4" unicode="&#x1d4;" horiz-adv-x="1063" 
d="M936 382q0 -105 -32.5 -181t-88 -125.5t-129 -73t-155.5 -23.5t-155 23.5t-128.5 73t-88 125.5t-32.5 181v580h202v-565q0 -60 15 -103t42 -70t64 -40t81 -13t81 13t64 40t42.5 70t15.5 103v565h202v-580zM399 1397l131 -169l130 169h194l-204 -303h-241l-204 303h194z
" />
    <glyph glyph-name="uni01D5" unicode="&#x1d5;" horiz-adv-x="1347" 
d="M1207 506q0 -129 -39.5 -227t-110.5 -165t-168.5 -101t-214.5 -34t-215 34t-169 101t-110.5 165t-39.5 227v894h217v-880q0 -86 23.5 -148.5t65.5 -103t100 -60t128 -19.5q69 0 127 19.5t100 60t65.5 103t23.5 148.5v880h217v-894zM473 1793q28 0 52.5 -10.5t42.5 -28.5
t28 -43t10 -53t-10 -52t-28 -41.5t-42.5 -27.5t-52.5 -10t-52 10t-42 28t-28 42t-10 53q0 28 10 52t28 42t42 28.5t52 10.5zM868 1793q28 0 52.5 -10.5t42.5 -28.5t28 -43t10 -53t-10 -52t-28 -41.5t-42.5 -27.5t-52.5 -10t-52 10t-42 28t-28 42t-10 53q0 28 10 52t28 42
t42 28.5t52 10.5zM385 2076h576v-170h-576v170z" />
    <glyph glyph-name="uni01D6" unicode="&#x1d6;" horiz-adv-x="1063" 
d="M936 382q0 -105 -32.5 -181t-88 -125.5t-129 -73t-155.5 -23.5t-155 23.5t-128.5 73t-88 125.5t-32.5 181v580h202v-565q0 -60 15 -103t42 -70t64 -40t81 -13t81 13t64 40t42.5 70t15.5 103v565h202v-580zM331 1382q28 0 52.5 -10.5t42.5 -28.5t28 -43t10 -53t-10 -52
t-28 -41.5t-42.5 -27.5t-52.5 -10t-52 10t-42 28t-28 42t-10 53q0 28 10 52t28 42t42 28.5t52 10.5zM726 1382q28 0 52.5 -10.5t42.5 -28.5t28 -43t10 -53t-10 -52t-28 -41.5t-42.5 -27.5t-52.5 -10t-52 10t-42 28t-28 42t-10 53q0 28 10 52t28 42t42 28.5t52 10.5z
M241 1675h576v-170h-576v170z" />
    <glyph glyph-name="uni01D7" unicode="&#x1d7;" horiz-adv-x="1347" 
d="M1207 506q0 -129 -39.5 -227t-110.5 -165t-168.5 -101t-214.5 -34t-215 34t-169 101t-110.5 165t-39.5 227v894h217v-880q0 -86 23.5 -148.5t65.5 -103t100 -60t128 -19.5q69 0 127 19.5t100 60t65.5 103t23.5 148.5v880h217v-894zM473 1793q28 0 52.5 -10.5t42.5 -28.5
t28 -43t10 -53t-10 -52t-28 -41.5t-42.5 -27.5t-52.5 -10t-52 10t-42 28t-28 42t-10 53q0 28 10 52t28 42t42 28.5t52 10.5zM868 1793q28 0 52.5 -10.5t42.5 -28.5t28 -43t10 -53t-10 -52t-28 -41.5t-42.5 -27.5t-52.5 -10t-52 10t-42 28t-28 42t-10 53q0 28 10 52t28 42
t42 28.5t52 10.5zM524 1893l186 308h239l-235 -308h-190z" />
    <glyph glyph-name="uni01D8" unicode="&#x1d8;" horiz-adv-x="1063" 
d="M936 382q0 -105 -32.5 -181t-88 -125.5t-129 -73t-155.5 -23.5t-155 23.5t-128.5 73t-88 125.5t-32.5 181v580h202v-565q0 -60 15 -103t42 -70t64 -40t81 -13t81 13t64 40t42.5 70t15.5 103v565h202v-580zM331 1382q28 0 52.5 -10.5t42.5 -28.5t28 -43t10 -53t-10 -52
t-28 -41.5t-42.5 -27.5t-52.5 -10t-52 10t-42 28t-28 42t-10 53q0 28 10 52t28 42t42 28.5t52 10.5zM726 1382q28 0 52.5 -10.5t42.5 -28.5t28 -43t10 -53t-10 -52t-28 -41.5t-42.5 -27.5t-52.5 -10t-52 10t-42 28t-28 42t-10 53q0 28 10 52t28 42t42 28.5t52 10.5z
M380 1492l186 308h239l-235 -308h-190z" />
    <glyph glyph-name="uni01D9" unicode="&#x1d9;" horiz-adv-x="1347" 
d="M1207 506q0 -129 -39.5 -227t-110.5 -165t-168.5 -101t-214.5 -34t-215 34t-169 101t-110.5 165t-39.5 227v894h217v-880q0 -86 23.5 -148.5t65.5 -103t100 -60t128 -19.5q69 0 127 19.5t100 60t65.5 103t23.5 148.5v880h217v-894zM473 1793q28 0 52.5 -10.5t42.5 -28.5
t28 -43t10 -53t-10 -52t-28 -41.5t-42.5 -27.5t-52.5 -10t-52 10t-42 28t-28 42t-10 53q0 28 10 52t28 42t42 28.5t52 10.5zM868 1793q28 0 52.5 -10.5t42.5 -28.5t28 -43t10 -53t-10 -52t-28 -41.5t-42.5 -27.5t-52.5 -10t-52 10t-42 28t-28 42t-10 53q0 28 10 52t28 42
t42 28.5t52 10.5zM542 2193l131 -169l130 169h194l-204 -303h-241l-204 303h194z" />
    <glyph glyph-name="uni01DA" unicode="&#x1da;" horiz-adv-x="1063" 
d="M936 382q0 -105 -32.5 -181t-88 -125.5t-129 -73t-155.5 -23.5t-155 23.5t-128.5 73t-88 125.5t-32.5 181v580h202v-565q0 -60 15 -103t42 -70t64 -40t81 -13t81 13t64 40t42.5 70t15.5 103v565h202v-580zM331 1382q28 0 52.5 -10.5t42.5 -28.5t28 -43t10 -53t-10 -52
t-28 -41.5t-42.5 -27.5t-52.5 -10t-52 10t-42 28t-28 42t-10 53q0 28 10 52t28 42t42 28.5t52 10.5zM726 1382q28 0 52.5 -10.5t42.5 -28.5t28 -43t10 -53t-10 -52t-28 -41.5t-42.5 -27.5t-52.5 -10t-52 10t-42 28t-28 42t-10 53q0 28 10 52t28 42t42 28.5t52 10.5z
M398 1792l131 -169l130 169h194l-204 -303h-241l-204 303h194z" />
    <glyph glyph-name="uni01DB" unicode="&#x1db;" horiz-adv-x="1347" 
d="M1207 506q0 -129 -39.5 -227t-110.5 -165t-168.5 -101t-214.5 -34t-215 34t-169 101t-110.5 165t-39.5 227v894h217v-880q0 -86 23.5 -148.5t65.5 -103t100 -60t128 -19.5q69 0 127 19.5t100 60t65.5 103t23.5 148.5v880h217v-894zM473 1793q28 0 52.5 -10.5t42.5 -28.5
t28 -43t10 -53t-10 -52t-28 -41.5t-42.5 -27.5t-52.5 -10t-52 10t-42 28t-28 42t-10 53q0 28 10 52t28 42t42 28.5t52 10.5zM868 1793q28 0 52.5 -10.5t42.5 -28.5t28 -43t10 -53t-10 -52t-28 -41.5t-42.5 -27.5t-52.5 -10t-52 10t-42 28t-28 42t-10 53q0 28 10 52t28 42
t42 28.5t52 10.5zM392 2201h239l186 -308h-190z" />
    <glyph glyph-name="uni01DC" unicode="&#x1dc;" horiz-adv-x="1063" 
d="M936 382q0 -105 -32.5 -181t-88 -125.5t-129 -73t-155.5 -23.5t-155 23.5t-128.5 73t-88 125.5t-32.5 181v580h202v-565q0 -60 15 -103t42 -70t64 -40t81 -13t81 13t64 40t42.5 70t15.5 103v565h202v-580zM331 1382q28 0 52.5 -10.5t42.5 -28.5t28 -43t10 -53t-10 -52
t-28 -41.5t-42.5 -27.5t-52.5 -10t-52 10t-42 28t-28 42t-10 53q0 28 10 52t28 42t42 28.5t52 10.5zM726 1382q28 0 52.5 -10.5t42.5 -28.5t28 -43t10 -53t-10 -52t-28 -41.5t-42.5 -27.5t-52.5 -10t-52 10t-42 28t-28 42t-10 53q0 28 10 52t28 42t42 28.5t52 10.5z
M248 1800h239l186 -308h-190z" />
    <glyph glyph-name="uni01E2" unicode="&#x1e2;" horiz-adv-x="2000" 
d="M1876 201v-201h-900v309h-516l-190 -309h-252l875 1400h977v-201h-676v-393h649v-201h-649v-404h682zM976 512v639l-392 -639h392zM1048 1743h576v-170h-576v170z" />
    <glyph glyph-name="uni01E3" unicode="&#x1e3;" horiz-adv-x="1589" 
d="M1511 483q0 -19 -1 -37.5t-3 -35.5h-641q8 -65 31 -112.5t57 -78.5t77 -45.5t93 -14.5q70 0 133 25.5t114 70.5l103 -142q-79 -73 -170.5 -103.5t-194.5 -30.5q-113 0 -203 42.5t-150 123.5q-27 -34 -60 -64.5t-74.5 -53t-92 -35.5t-112.5 -13q-81 0 -144 22t-106.5 61.5
t-66 94.5t-22.5 121q0 67 24.5 119.5t71 89.5t114 56.5t152.5 19.5h221v18q0 109 -55.5 163t-161.5 54q-70 0 -129.5 -25t-104.5 -59l-81 157q72 57 159.5 84t182.5 27q108 0 186.5 -38t123.5 -113q55 74 137 113t179 39q93 0 169 -35t130.5 -100.5t84.5 -158t30 -206.5z
M1308 560q-13 116 -69.5 178.5t-146.5 62.5q-97 0 -154 -63t-71 -178h441zM450 152q65 0 128 33t108 101q-19 58 -25 129h-191q-50 0 -85 -10.5t-56.5 -28.5t-31.5 -42t-10 -51t10 -51t30 -42t51 -28t72 -10zM506 1333h576v-170h-576v170z" />
    <glyph glyph-name="Gcaron" unicode="&#x1e6;" horiz-adv-x="1415" 
d="M739 1422q158 0 282.5 -64t205.5 -181l-167 -130q-57 78 -138.5 121.5t-184.5 43.5q-91 0 -167 -34.5t-131.5 -100.5t-86.5 -161t-31 -216q0 -122 31.5 -217.5t87 -161t130.5 -100t163 -34.5q167 0 264 97t116 284h-336v196h559q3 -35 3 -78q0 -158 -43 -288.5
t-121.5 -223.5t-190 -144t-249.5 -51q-129 0 -245.5 47t-204 138.5t-139 226t-51.5 309.5q0 164 47 297.5t132.5 228t203.5 145.5t261 51zM589 1809l131 -169l130 169h194l-204 -303h-241l-204 303h194z" />
    <glyph glyph-name="gcaron" unicode="&#x1e7;" horiz-adv-x="1096" 
d="M961 962v-901q0 -110 -33 -195t-94 -143.5t-146 -89t-190 -30.5q-107 0 -204.5 29.5t-164.5 84.5l81 165q59 -43 129.5 -68t151.5 -25q61 0 110.5 17t84.5 50.5t54.5 82.5t19.5 114v110q-46 -71 -116.5 -111t-167.5 -40q-80 0 -152.5 33.5t-127 96.5t-86.5 153t-32 203
q0 112 32 202t86.5 153t127 96.5t152.5 33.5q97 0 168.5 -41t117.5 -114v134h199zM529 204q55 0 100 21t77 59.5t49.5 92.5t17.5 120t-17.5 120.5t-49.5 93t-77 59.5t-100 21q-56 0 -101 -21.5t-76.5 -60.5t-48.5 -93t-17 -119t17 -118.5t48.5 -92.5t76.5 -60.5t101 -21.5z
M405 1398l131 -169l130 169h194l-204 -303h-241l-204 303h194z" />
    <glyph glyph-name="Aringacute" unicode="&#x1fa;" horiz-adv-x="1293" 
d="M922 349h-556l-118 -349h-225l493 1401h262l492 -1401h-230zM854 551l-210 623l-210 -623h420zM643 1290q-48 0 -90 18t-73.5 48.5t-49.5 72.5t-18 90q0 47 18 88.5t49.5 72t73.5 48.5t90 18t90 -18t73.5 -48.5t50 -72t18.5 -88.5q0 -48 -18.5 -90t-50 -72.5t-73.5 -48.5
t-90 -18zM643 1410q22 0 41.5 8.5t34 23t23 34.5t8.5 43q0 22 -8.5 42t-23 34t-34 22.5t-41.5 8.5q-21 0 -40.5 -8.5t-33.5 -22.5t-22.5 -34t-8.5 -42q0 -23 8.5 -43t22.5 -34.5t33.5 -23t40.5 -8.5zM515 1801l186 308h239l-235 -308h-190z" />
    <glyph glyph-name="aringacute" unicode="&#x1fb;" horiz-adv-x="1107" 
d="M972 962v-962h-200v135q-45 -71 -112.5 -113.5t-164.5 -42.5q-90 0 -166.5 36.5t-132 102.5t-87 158.5t-31.5 204.5t31.5 204.5t87 158.5t132 102.5t166.5 36.5q97 0 164.5 -42.5t112.5 -113.5v135h200zM533 172q55 0 101 22t78 62t50 97t18 128q0 70 -18 127.5t-50 97.5
t-78 62t-101 22q-57 0 -102.5 -22.5t-78 -63t-49.5 -97.5t-17 -126t17 -126t49.5 -97.5t78 -63t102.5 -22.5zM553 1041q-48 0 -90 18t-73.5 48.5t-49.5 72.5t-18 90q0 47 18 88.5t49.5 72t73.5 48.5t90 18t90 -18t73.5 -48.5t50 -72t18.5 -88.5q0 -48 -18.5 -90t-50 -72.5
t-73.5 -48.5t-90 -18zM553 1161q22 0 41.5 8.5t34 23t23 34.5t8.5 43q0 22 -8.5 42t-23 34t-34 22.5t-41.5 8.5q-21 0 -40.5 -8.5t-33.5 -22.5t-22.5 -34t-8.5 -42q0 -23 8.5 -43t22.5 -34.5t33.5 -23t40.5 -8.5zM437 1548l186 308h239l-235 -308h-190z" />
    <glyph glyph-name="AEacute" unicode="&#x1fc;" horiz-adv-x="2000" 
d="M1876 201v-201h-900v309h-516l-190 -309h-252l875 1400h977v-201h-676v-393h649v-201h-649v-404h682zM976 512v639l-392 -639h392zM1187 1509l186 308h239l-235 -308h-190z" />
    <glyph glyph-name="aeacute" unicode="&#x1fd;" horiz-adv-x="1589" 
d="M1511 483q0 -19 -1 -37.5t-3 -35.5h-641q8 -65 31 -112.5t57 -78.5t77 -45.5t93 -14.5q70 0 133 25.5t114 70.5l103 -142q-79 -73 -170.5 -103.5t-194.5 -30.5q-113 0 -203 42.5t-150 123.5q-27 -34 -60 -64.5t-74.5 -53t-92 -35.5t-112.5 -13q-81 0 -144 22t-106.5 61.5
t-66 94.5t-22.5 121q0 67 24.5 119.5t71 89.5t114 56.5t152.5 19.5h221v18q0 109 -55.5 163t-161.5 54q-70 0 -129.5 -25t-104.5 -59l-81 157q72 57 159.5 84t182.5 27q108 0 186.5 -38t123.5 -113q55 74 137 113t179 39q93 0 169 -35t130.5 -100.5t84.5 -158t30 -206.5z
M1308 560q-13 116 -69.5 178.5t-146.5 62.5q-97 0 -154 -63t-71 -178h441zM450 152q65 0 128 33t108 101q-19 58 -25 129h-191q-50 0 -85 -10.5t-56.5 -28.5t-31.5 -42t-10 -51t10 -51t30 -42t51 -28t72 -10zM653 1098l186 308h239l-235 -308h-190z" />
    <glyph glyph-name="Oslashacute" unicode="&#x1fe;" horiz-adv-x="1477" 
d="M1242 1177q67 -93 103.5 -213t36.5 -264q0 -163 -46.5 -296t-131.5 -227.5t-203 -146.5t-262 -52q-110 0 -204.5 30t-172.5 87l-104 -127l-137 111l116 142q-69 93 -105.5 213.5t-36.5 265.5q0 163 46.5 296t131.5 227.5t203.5 146.5t262.5 52q111 0 205.5 -30.5
t172.5 -88.5l103 127l137 -112zM321 700q0 -88 16.5 -162t48.5 -134l592 729q-101 78 -239 78q-92 0 -168.5 -35t-132 -101t-86.5 -161t-31 -214zM739 189q91 0 167.5 35t132 101t86.5 161t31 214q0 87 -16.5 160t-46.5 133l-592 -727q50 -38 109.5 -57.5t128.5 -19.5z
M589 1509l186 308h239l-235 -308h-190z" />
    <glyph glyph-name="oslashacute" unicode="&#x1ff;" horiz-adv-x="1078" 
d="M902 806q47 -64 72.5 -146t25.5 -179q0 -112 -34 -204.5t-95 -158.5t-146 -102.5t-186 -36.5q-71 0 -133 18t-115 51l-78 -94l-123 95l86 107q-47 64 -72.5 146t-25.5 179q0 112 34 204.5t95 158.5t146 102.5t186 36.5q71 0 133.5 -18t115.5 -52l76 94l124 -96zM539 795
q-56 0 -103.5 -22t-82 -62.5t-53.5 -98.5t-19 -131q0 -46 8 -86t22 -74l355 440q-57 34 -127 34zM539 166q56 0 103.5 22t82 62.5t53.5 99t19 131.5q0 46 -8 86t-22 74l-355 -441q57 -34 127 -34zM398 1098l186 308h239l-235 -308h-190z" />
    <glyph glyph-name="uni0218" unicode="&#x218;" horiz-adv-x="1209" 
d="M976 1096q-71 54 -156.5 85.5t-185.5 31.5q-60 0 -110.5 -14t-87 -40t-56.5 -63t-20 -84q0 -80 65 -125t193 -71l104 -22q84 -18 156.5 -48.5t125 -77.5t82.5 -112t30 -151q0 -103 -40 -182.5t-110 -133.5t-163.5 -82t-200.5 -28q-73 0 -144.5 13.5t-137.5 38t-123.5 60
t-103.5 80.5l133 160q31 -30 72 -56.5t89.5 -46t102.5 -31t110 -11.5q61 0 114 13.5t92 39.5t61 63.5t22 85.5q0 81 -66 127t-197 73l-113 23q-85 18 -155 50.5t-119.5 81t-77 113t-27.5 147.5q0 97 38.5 174.5t105.5 131.5t158.5 82.5t197.5 28.5q143 0 257 -42t209 -117z
M736 -86l-75 -353h-166l38 353h203z" />
    <glyph glyph-name="uni0219" unicode="&#x219;" horiz-adv-x="903" 
d="M732 729q-22 14 -51 27.5t-63 24t-71.5 17t-75.5 6.5q-78 0 -122 -30.5t-44 -82.5q0 -50 41 -74.5t117 -38.5l86 -15q140 -25 213.5 -93.5t73.5 -183.5q0 -69 -27.5 -125.5t-79.5 -96.5t-125.5 -62t-164.5 -22q-45 0 -93.5 6t-96.5 19.5t-94.5 35t-87.5 53.5l91 154
q24 -19 52.5 -35.5t62.5 -29t74.5 -19.5t88.5 -7q92 0 143 30.5t51 86.5q0 43 -37 72t-122 44l-87 15q-147 25 -216 99t-69 182q0 69 26 123.5t74 93t115.5 59t150.5 20.5q103 0 191 -25.5t158 -70.5zM571 -84l-75 -353h-166l38 353h203z" />
    <glyph glyph-name="uni021A" unicode="&#x21a;" horiz-adv-x="1087" 
d="M1056 1197h-404v-1197h-217v1197h-404v203h1025v-203zM659 -86l-75 -353h-166l38 353h203z" />
    <glyph glyph-name="uni021B" unicode="&#x21b;" horiz-adv-x="819" 
d="M797 63q-51 -36 -117 -60t-150 -24q-74 0 -133 21t-99.5 63.5t-62 107t-21.5 151.5v455h-173v185h173v278h202v-278h329v-185h-329v-443q0 -44 11 -74.5t30 -50.5t45 -29t57 -9q45 0 88 16t78 40zM605 -84l-75 -353h-166l38 353h203z" />
    <glyph glyph-name="uni0232" unicode="&#x232;" horiz-adv-x="1200" 
d="M711 553v-553h-217v556l-487 844h252l345 -608l344 608h245zM314 1743h576v-170h-576v170z" />
    <glyph glyph-name="uni0233" unicode="&#x233;" horiz-adv-x="990" 
d="M980 962l-660 -1346h-218l291 571l-380 775h222l266 -563l261 563h218zM209 1333h576v-170h-576v170z" />
    <glyph glyph-name="uni0237" unicode="&#x237;" horiz-adv-x="475" 
d="M340 -119q0 -68 -18 -120t-51 -87.5t-78.5 -53.5t-100.5 -18q-39 0 -77 8t-65 21l40 178q15 -7 32.5 -11t36.5 -4q35 0 57 23t22 77v1068h202v-1081z" />
    <glyph glyph-name="uni0259" unicode="&#x259;" horiz-adv-x="1009" 
d="M78 479q0 19 1 37.5t3 35.5h641q-8 65 -31 112.5t-57 78t-77.5 45.5t-92.5 15q-69 0 -132.5 -25.5t-114.5 -70.5l-103 142q79 73 170.5 103.5t193.5 30.5q101 0 184.5 -35t143 -100t92 -158t32.5 -208t-31.5 -208t-89.5 -158.5t-138.5 -101t-177.5 -35.5q-93 0 -169.5 35
t-131 100.5t-85 158t-30.5 206.5zM281 401q14 -115 70 -177.5t146 -62.5q97 0 154 63.5t71 176.5h-441z" />
    <glyph glyph-name="uni02BB" unicode="&#x2bb;" horiz-adv-x="476" 
d="M99 907l113 533h170l-57 -533h-226z" />
    <glyph glyph-name="uni02BC" unicode="&#x2bc;" horiz-adv-x="476" 
d="M377 1439l-113 -533h-170l57 533h226z" />
    <glyph glyph-name="uni02BE" unicode="&#x2be;" horiz-adv-x="536" 
d="M109 936q33 0 63 13.5t52.5 37.5t35.5 56t13 68q0 37 -13 69.5t-35.5 56.5t-52.5 37.5t-63 13.5v168q71 0 133 -26.5t108.5 -73t73.5 -109.5t27 -136q0 -72 -27 -134.5t-73.5 -109t-108.5 -73t-133 -26.5v168z" />
    <glyph glyph-name="uni02BF" unicode="&#x2bf;" horiz-adv-x="536" 
d="M427 1288q-33 0 -63 -13.5t-52.5 -37.5t-35.5 -56t-13 -68q0 -38 13 -70t35.5 -56t52.5 -37.5t63 -13.5v-168q-71 0 -133 26.5t-108.5 73t-73.5 109.5t-27 136q0 72 27 134.5t73.5 109t108.5 73t133 26.5v-168z" />
    <glyph glyph-name="circumflex" unicode="&#x2c6;" horiz-adv-x="752" 
d="M506 1097l-131 169l-130 -169h-194l204 303h241l204 -303h-194z" />
    <glyph glyph-name="caron" unicode="&#x2c7;" horiz-adv-x="892" 
d="M315 1398l131 -169l130 169h194l-204 -303h-241l-204 303h194z" />
    <glyph glyph-name="breve" unicode="&#x2d8;" horiz-adv-x="895" 
d="M271 1426q22 -88 66.5 -128.5t110.5 -40.5q65 0 109.5 40.5t66.5 128.5l156 -38q-33 -148 -117.5 -224.5t-214.5 -76.5t-215 76.5t-118 224.5z" />
    <glyph glyph-name="dotaccent" unicode="&#x2d9;" horiz-adv-x="537" 
d="M268 1423q28 0 52.5 -10.5t42.5 -28.5t28.5 -43t10.5 -53q0 -29 -10.5 -53t-28.5 -42t-42.5 -28t-52.5 -10q-29 0 -53 10t-42 28t-28 42.5t-10 53.5q0 28 10 52.5t28 42.5t42 28.5t53 10.5z" />
    <glyph glyph-name="ring" unicode="&#x2da;" horiz-adv-x="796" 
d="M397 1081q-48 0 -90 18t-73.5 48.5t-49.5 72.5t-18 90q0 47 18 88.5t49.5 72t73.5 48.5t90 18t90 -18t73.5 -48.5t50 -72t18.5 -88.5q0 -48 -18.5 -90t-50 -72.5t-73.5 -48.5t-90 -18zM397 1201q22 0 41.5 8.5t34 23t23 34.5t8.5 43q0 22 -8.5 42t-23 34t-34 22.5
t-41.5 8.5q-21 0 -40.5 -8.5t-33.5 -22.5t-22.5 -34t-8.5 -42q0 -23 8.5 -43t22.5 -34.5t33.5 -23t40.5 -8.5z" />
    <glyph glyph-name="ogonek" unicode="&#x2db;" horiz-adv-x="952" 
d="M805 -307q-46 -46 -104 -70t-127 -24q-56 0 -102.5 15.5t-79.5 43t-51.5 67t-18.5 87.5q0 50 19.5 91.5t55.5 76.5t87 64t114 55l106 -78q-55 -24 -93 -46t-62 -43.5t-34.5 -43.5t-10.5 -44q0 -34 24 -55.5t66 -21.5q32 0 58.5 11.5t51.5 34.5z" />
    <glyph glyph-name="tilde" unicode="&#x2dc;" horiz-adv-x="752" 
d="M34 1254q46 62 99.5 90.5t122.5 28.5q46 0 79.5 -11t60.5 -23.5t49.5 -23.5t47.5 -11q30 0 57.5 16.5t58.5 49.5l107 -120q-47 -62 -100 -90.5t-123 -28.5q-45 0 -78.5 11t-60 23.5t-49.5 23.5t-48 11q-30 0 -57.5 -16.5t-58.5 -49.5z" />
    <glyph glyph-name="hungarumlaut" unicode="&#x2dd;" horiz-adv-x="873" 
d="M70 1098l179 308h212l-198 -308h-193zM402 1098l198 308h217l-220 -308h-195z" />
    <glyph glyph-name="gravecomb" unicode="&#x300;" 
d="M-816 1406h239l186 -308h-190z" />
    <glyph glyph-name="acutecomb" unicode="&#x301;" 
d="M-667 1098l186 308h239l-235 -308h-190z" />
    <glyph glyph-name="uni0302" unicode="&#x302;" 
d="M-395 1097l-131 169l-130 -169h-194l204 303h241l204 -303h-194z" />
    <glyph glyph-name="tildecomb" unicode="&#x303;" 
d="M-866 1254q46 62 99.5 90.5t122.5 28.5q46 0 79.5 -11t60.5 -23.5t49.5 -23.5t47.5 -11q30 0 57.5 16.5t58.5 49.5l107 -120q-47 -62 -100 -90.5t-123 -28.5q-45 0 -78.5 11t-60 23.5t-49.5 23.5t-48 11q-30 0 -57.5 -16.5t-58.5 -49.5z" />
    <glyph glyph-name="uni0304" unicode="&#x304;" 
d="M-815 1332h576v-170h-576v170z" />
    <glyph glyph-name="uni0306" unicode="&#x306;" 
d="M-704 1426q22 -88 66.5 -128.5t110.5 -40.5q65 0 109.5 40.5t66.5 128.5l156 -38q-33 -148 -117.5 -224.5t-214.5 -76.5t-215 76.5t-118 224.5z" />
    <glyph glyph-name="uni0307" unicode="&#x307;" 
d="M-528 1423q28 0 52.5 -10.5t42.5 -28.5t28.5 -43t10.5 -53q0 -29 -10.5 -53t-28.5 -42t-42.5 -28t-52.5 -10q-29 0 -53 10t-42 28t-28 42.5t-10 53.5q0 28 10 52.5t28 42.5t42 28.5t53 10.5z" />
    <glyph glyph-name="uni0308" unicode="&#x308;" 
d="M-725 1382q28 0 52.5 -10.5t42.5 -28.5t28 -43t10 -53t-10 -52t-28 -41.5t-42.5 -27.5t-52.5 -10t-52 10t-42 28t-28 42t-10 53q0 28 10 52t28 42t42 28.5t52 10.5zM-330 1382q28 0 52.5 -10.5t42.5 -28.5t28 -43t10 -53t-10 -52t-28 -41.5t-42.5 -27.5t-52.5 -10t-52 10
t-42 28t-28 42t-10 53q0 28 10 52t28 42t42 28.5t52 10.5z" />
    <glyph glyph-name="uni030A" unicode="&#x30a;" 
d="M-528 1081q-48 0 -90 18t-73.5 48.5t-49.5 72.5t-18 90q0 47 18 88.5t49.5 72t73.5 48.5t90 18t90 -18t73.5 -48.5t50 -72t18.5 -88.5q0 -48 -18.5 -90t-50 -72.5t-73.5 -48.5t-90 -18zM-528 1201q22 0 41.5 8.5t34 23t23 34.5t8.5 43q0 22 -8.5 42t-23 34t-34 22.5
t-41.5 8.5q-21 0 -40.5 -8.5t-33.5 -22.5t-22.5 -34t-8.5 -42q0 -23 8.5 -43t22.5 -34.5t33.5 -23t40.5 -8.5z" />
    <glyph glyph-name="uni030B" unicode="&#x30b;" 
d="M-800 1098l179 308h212l-198 -308h-193zM-468 1098l198 308h217l-220 -308h-195z" />
    <glyph glyph-name="uni030C" unicode="&#x30c;" 
d="M-657 1398l131 -169l130 169h194l-204 -303h-241l-204 303h194z" />
    <glyph glyph-name="uni0312" unicode="&#x312;" 
d="M-634 1098l74 362h167l-38 -362h-203z" />
    <glyph glyph-name="dotbelowcomb" unicode="&#x323;" 
d="M-529 -122q28 0 52.5 -10.5t42.5 -28.5t28.5 -43t10.5 -53q0 -29 -10.5 -53t-28.5 -42t-42.5 -28t-52.5 -10q-29 0 -53 10t-42 28t-28 42.5t-10 53.5q0 28 10 52.5t28 42.5t42 28.5t53 10.5z" />
    <glyph glyph-name="uni0326" unicode="&#x326;" 
d="M-416 -84l-75 -353h-166l38 353h203z" />
    <glyph glyph-name="uni0327" unicode="&#x327;" 
d="M-517 -322h-193l101 339l185 -11z" />
    <glyph glyph-name="uni0328" unicode="&#x328;" 
d="M-273 -307q-46 -46 -104.5 -70t-127.5 -24q-57 0 -104 15t-80.5 41.5t-52.5 63.5t-19 81q0 51 21 92.5t60.5 76.5t96 63.5t126.5 54.5l58 -45q-96 -53 -136 -100.5t-40 -96.5q0 -35 24.5 -56.5t66.5 -21.5q60 0 109 46z" />
    <glyph glyph-name="uni032E" unicode="&#x32e;" 
d="M-704 -82q22 -88 66.5 -128.5t110.5 -40.5q65 0 109.5 40.5t66.5 128.5l156 -38q-33 -148 -117.5 -224.5t-214.5 -76.5t-215 76.5t-118 224.5z" />
    <glyph glyph-name="uni0331" unicode="&#x331;" 
d="M-816 -162h576v-170h-576v170z" />
    <glyph glyph-name="uni0335" unicode="&#x335;" horiz-adv-x="0" 
d="M-54 442h-657v173h657v-173z" />
    <glyph glyph-name="uni0336" unicode="&#x336;" horiz-adv-x="0" 
d="M-46 442h-1359v173h1359v-173z" />
    <glyph glyph-name="uni0394" unicode="&#x394;" horiz-adv-x="1252" 
d="M1190 172v-172h-1128v172l436 1229h257zM295 203h661l-330 947z" />
    <glyph glyph-name="uni03A9" unicode="&#x3a9;" horiz-adv-x="1496" 
d="M325 202q-51 44 -92 99.5t-69.5 120t-44 137.5t-15.5 152q0 157 47 288t132 225t203.5 146t261.5 52q142 0 260.5 -52t204 -146t132.5 -225t47 -288q0 -159 -59.5 -290t-162.5 -219h264v-202h-552v184q65 23 117.5 69.5t89 112t56.5 147.5t20 177q0 117 -31 213.5
t-86 164.5t-132 105.5t-168 37.5q-92 0 -168.5 -37.5t-131.5 -105.5t-86 -164.5t-31 -213.5q0 -95 20 -177t56.5 -147.5t88.5 -112t117 -69.5v-184h-551v202h263z" />
    <glyph glyph-name="uni03BC" unicode="&#x3bc;" horiz-adv-x="1075" 
d="M940 962v-962h-196v131q-24 -42 -55.5 -71t-67 -47t-74.5 -26t-78 -8q-82 0 -149 29v-392h-193v1346h202v-573q0 -106 52 -162.5t146 -56.5q44 0 82.5 15t67 43.5t45 69.5t16.5 94v570h202z" />
    <glyph glyph-name="pi" unicode="&#x3c0;" horiz-adv-x="1073" 
d="M946 0h-201v777h-409v-777h-201v962h811v-962z" />
    <glyph glyph-name="uni1E0C" unicode="&#x1e0c;" horiz-adv-x="1399" 
d="M643 1400q153 0 275.5 -49t208 -140.5t131.5 -221t46 -289.5q0 -161 -46 -290t-131.5 -220.5t-208 -140.5t-275.5 -49h-488v1400h488zM641 204q110 0 192 35.5t136 100.5t81 156.5t27 203.5q0 113 -27 205t-81 156.5t-136 99.5t-192 35h-269v-992h269zM663 -124
q28 0 52.5 -10.5t42.5 -28.5t28.5 -43t10.5 -53q0 -29 -10.5 -53t-28.5 -42t-42.5 -28t-52.5 -10q-29 0 -53 10t-42 28t-28 42.5t-10 53.5q0 28 10 52.5t28 42.5t42 28.5t53 10.5z" />
    <glyph glyph-name="uni1E0D" unicode="&#x1e0d;" horiz-adv-x="1107" 
d="M972 1440v-1440h-200v135q-45 -71 -112.5 -113.5t-164.5 -42.5q-90 0 -166.5 36.5t-132 102.5t-87 158.5t-31.5 204.5t31.5 204.5t87 158.5t132 102.5t166.5 36.5q95 0 162 -41t112 -110v608h203zM533 172q55 0 101 22t78 62t50 97t18 128q0 70 -18 127.5t-50 97.5
t-78 62t-101 22q-57 0 -102.5 -22.5t-78 -63t-49.5 -97.5t-17 -126t17 -126t49.5 -97.5t78 -63t102.5 -22.5zM553 -122q28 0 52.5 -10.5t42.5 -28.5t28.5 -43t10.5 -53q0 -29 -10.5 -53t-28.5 -42t-42.5 -28t-52.5 -10q-29 0 -53 10t-42 28t-28 42.5t-10 53.5q0 28 10 52.5
t28 42.5t42 28.5t53 10.5z" />
    <glyph glyph-name="uni1E0E" unicode="&#x1e0e;" horiz-adv-x="1399" 
d="M643 1400q153 0 275.5 -49t208 -140.5t131.5 -221t46 -289.5q0 -161 -46 -290t-131.5 -220.5t-208 -140.5t-275.5 -49h-488v1400h488zM641 204q110 0 192 35.5t136 100.5t81 156.5t27 203.5q0 113 -27 205t-81 156.5t-136 99.5t-192 35h-269v-992h269zM376 -162h576v-170
h-576v170z" />
    <glyph glyph-name="uni1E0F" unicode="&#x1e0f;" horiz-adv-x="1107" 
d="M972 1440v-1440h-200v135q-45 -71 -112.5 -113.5t-164.5 -42.5q-90 0 -166.5 36.5t-132 102.5t-87 158.5t-31.5 204.5t31.5 204.5t87 158.5t132 102.5t166.5 36.5q95 0 162 -41t112 -110v608h203zM533 172q55 0 101 22t78 62t50 97t18 128q0 70 -18 127.5t-50 97.5
t-78 62t-101 22q-57 0 -102.5 -22.5t-78 -63t-49.5 -97.5t-17 -126t17 -126t49.5 -97.5t78 -63t102.5 -22.5zM266 -162h576v-170h-576v170z" />
    <glyph glyph-name="uni1E24" unicode="&#x1e24;" horiz-adv-x="1391" 
d="M1236 1400v-1400h-217v604h-647v-604h-217v1400h217v-593h647v593h217zM694 -124q28 0 52.5 -10.5t42.5 -28.5t28.5 -43t10.5 -53q0 -29 -10.5 -53t-28.5 -42t-42.5 -28t-52.5 -10q-29 0 -53 10t-42 28t-28 42.5t-10 53.5q0 28 10 52.5t28 42.5t42 28.5t53 10.5z" />
    <glyph glyph-name="uni1E25" unicode="&#x1e25;" horiz-adv-x="1077" 
d="M608 983q76 0 139 -25t108 -70.5t70 -110t25 -143.5v-634h-204v573q0 106 -52 161.5t-144 55.5q-44 0 -82.5 -14.5t-67 -43t-45 -69.5t-16.5 -93v-570h-204v1440h204v-598q24 39 55 66t66 43.5t72.5 24t75.5 7.5zM541 -122q28 0 52.5 -10.5t42.5 -28.5t28.5 -43t10.5 -53
q0 -29 -10.5 -53t-28.5 -42t-42.5 -28t-52.5 -10q-29 0 -53 10t-42 28t-28 42.5t-10 53.5q0 28 10 52.5t28 42.5t42 28.5t53 10.5z" />
    <glyph glyph-name="uni1E28" unicode="&#x1e28;" horiz-adv-x="1391" 
d="M1236 1400v-1400h-217v604h-647v-604h-217v1400h217v-593h647v593h217zM274 -322h-208l100 328h200z" />
    <glyph glyph-name="uni1E29" unicode="&#x1e29;" horiz-adv-x="1077" 
d="M608 983q76 0 139 -25t108 -70.5t70 -110t25 -143.5v-634h-204v573q0 106 -52 161.5t-144 55.5q-44 0 -82.5 -14.5t-67 -43t-45 -69.5t-16.5 -93v-570h-204v1440h204v-598q24 39 55 66t66 43.5t72.5 24t75.5 7.5zM238 -322h-193l101 339l185 -11z" />
    <glyph glyph-name="uni1E2A" unicode="&#x1e2a;" horiz-adv-x="1391" 
d="M1236 1400v-1400h-217v604h-647v-604h-217v1400h217v-593h647v593h217zM519 -82q22 -88 66.5 -128.5t110.5 -40.5q65 0 109.5 40.5t66.5 128.5l156 -38q-33 -148 -117.5 -224.5t-214.5 -76.5t-215 76.5t-118 224.5z" />
    <glyph glyph-name="uni1E2B" unicode="&#x1e2b;" horiz-adv-x="1077" 
d="M608 983q76 0 139 -25t108 -70.5t70 -110t25 -143.5v-634h-204v573q0 106 -52 161.5t-144 55.5q-44 0 -82.5 -14.5t-67 -43t-45 -69.5t-16.5 -93v-570h-204v1440h204v-598q24 39 55 66t66 43.5t72.5 24t75.5 7.5zM366 -82q22 -88 66.5 -128.5t110.5 -40.5
q65 0 109.5 40.5t66.5 128.5l156 -38q-33 -148 -117.5 -224.5t-214.5 -76.5t-215 76.5t-118 224.5z" />
    <glyph glyph-name="uni1E32" unicode="&#x1e32;" horiz-adv-x="1272" 
d="M494 603h-122v-603h-217v1400h217v-594h126l459 594h267l-549 -685l585 -715h-278zM631 -124q28 0 52.5 -10.5t42.5 -28.5t28.5 -43t10.5 -53q0 -29 -10.5 -53t-28.5 -42t-42.5 -28t-52.5 -10q-29 0 -53 10t-42 28t-28 42.5t-10 53.5q0 28 10 52.5t28 42.5t42 28.5
t53 10.5z" />
    <glyph glyph-name="uni1E33" unicode="&#x1e33;" horiz-adv-x="982" 
d="M432 408h-95v-408h-202v1440h202v-843h97l276 365h245l-357 -455l362 -507h-246zM510 -122q28 0 52.5 -10.5t42.5 -28.5t28.5 -43t10.5 -53q0 -29 -10.5 -53t-28.5 -42t-42.5 -28t-52.5 -10q-29 0 -53 10t-42 28t-28 42.5t-10 53.5q0 28 10 52.5t28 42.5t42 28.5t53 10.5
z" />
    <glyph glyph-name="uni1E36" unicode="&#x1e36;" horiz-adv-x="1077" 
d="M1046 203v-203h-891v1400h217v-1197h674zM594 -124q28 0 52.5 -10.5t42.5 -28.5t28.5 -43t10.5 -53q0 -29 -10.5 -53t-28.5 -42t-42.5 -28t-52.5 -10q-29 0 -53 10t-42 28t-28 42.5t-10 53.5q0 28 10 52.5t28 42.5t42 28.5t53 10.5z" />
    <glyph glyph-name="uni1E37" unicode="&#x1e37;" horiz-adv-x="472" 
d="M337 0h-202v1440h202v-1440zM234 -122q28 0 52.5 -10.5t42.5 -28.5t28.5 -43t10.5 -53q0 -29 -10.5 -53t-28.5 -42t-42.5 -28t-52.5 -10q-29 0 -53 10t-42 28t-28 42.5t-10 53.5q0 28 10 52.5t28 42.5t42 28.5t53 10.5z" />
    <glyph glyph-name="uni1E38" unicode="&#x1e38;" horiz-adv-x="1077" 
d="M1046 203v-203h-891v1400h217v-1197h674zM-25 1743h576v-170h-576v170zM594 -124q28 0 52.5 -10.5t42.5 -28.5t28.5 -43t10.5 -53q0 -29 -10.5 -53t-28.5 -42t-42.5 -28t-52.5 -10q-29 0 -53 10t-42 28t-28 42.5t-10 53.5q0 28 10 52.5t28 42.5t42 28.5t53 10.5z" />
    <glyph glyph-name="uni1E39" unicode="&#x1e39;" horiz-adv-x="472" 
d="M337 0h-202v1440h202v-1440zM-66 1756h576v-170h-576v170zM234 -122q28 0 52.5 -10.5t42.5 -28.5t28.5 -43t10.5 -53q0 -29 -10.5 -53t-28.5 -42t-42.5 -28t-52.5 -10q-29 0 -53 10t-42 28t-28 42.5t-10 53.5q0 28 10 52.5t28 42.5t42 28.5t53 10.5z" />
    <glyph glyph-name="uni1E3A" unicode="&#x1e3a;" horiz-adv-x="1077" 
d="M1046 203v-203h-891v1400h217v-1197h674zM307 -162h576v-170h-576v170z" />
    <glyph glyph-name="uni1E3B" unicode="&#x1e3b;" horiz-adv-x="472" 
d="M337 0h-202v1440h202v-1440zM-53 -162h576v-170h-576v170z" />
    <glyph glyph-name="uni1E40" unicode="&#x1e40;" horiz-adv-x="1675" 
d="M1520 0h-216v1121l-358 -891h-217l-358 884v-1114h-216v1401h315l367 -907l367 907h316v-1401zM836 1799q29 0 54.5 -11t44 -29.5t29 -44t10.5 -54.5t-10.5 -54t-29 -43.5t-44 -29t-54.5 -10.5q-30 0 -55 10.5t-43 29t-28.5 44t-10.5 54.5t10.5 54t28.5 44t43 29.5
t55 10.5z" />
    <glyph glyph-name="uni1E41" unicode="&#x1e41;" horiz-adv-x="1686" 
d="M1215 983q77 0 140.5 -25t109 -70.5t70.5 -110t25 -143.5v-634h-203v573q0 106 -52.5 161.5t-144.5 55.5q-44 0 -82 -14.5t-66.5 -43t-45 -69.5t-16.5 -93v-570h-204v573q0 106 -52 161.5t-144 55.5q-44 0 -82.5 -14.5t-67 -43t-45 -69.5t-16.5 -93v-570h-204v962h199
v-128q24 42 55.5 70.5t67 46t74 25t77.5 7.5q102 0 179 -43.5t119 -121.5q26 46 61 77.5t75.5 51t84.5 28t88 8.5zM853 1424q28 0 52.5 -10.5t42.5 -28.5t28.5 -43t10.5 -53q0 -29 -10.5 -53t-28.5 -42t-42.5 -28t-52.5 -10q-29 0 -53 10t-42 28t-28 42.5t-10 53.5
q0 28 10 52.5t28 42.5t42 28.5t53 10.5z" />
    <glyph glyph-name="uni1E42" unicode="&#x1e42;" horiz-adv-x="1675" 
d="M1520 0h-216v1121l-358 -891h-217l-358 884v-1114h-216v1401h315l367 -907l367 907h316v-1401zM835 -124q28 0 52.5 -10.5t42.5 -28.5t28.5 -43t10.5 -53q0 -29 -10.5 -53t-28.5 -42t-42.5 -28t-52.5 -10q-29 0 -53 10t-42 28t-28 42.5t-10 53.5q0 28 10 52.5t28 42.5
t42 28.5t53 10.5z" />
    <glyph glyph-name="uni1E43" unicode="&#x1e43;" horiz-adv-x="1686" 
d="M1215 983q77 0 140.5 -25t109 -70.5t70.5 -110t25 -143.5v-634h-203v573q0 106 -52.5 161.5t-144.5 55.5q-44 0 -82 -14.5t-66.5 -43t-45 -69.5t-16.5 -93v-570h-204v573q0 106 -52 161.5t-144 55.5q-44 0 -82.5 -14.5t-67 -43t-45 -69.5t-16.5 -93v-570h-204v962h199
v-128q24 42 55.5 70.5t67 46t74 25t77.5 7.5q102 0 179 -43.5t119 -121.5q26 46 61 77.5t75.5 51t84.5 28t88 8.5zM846 -122q28 0 52.5 -10.5t42.5 -28.5t28.5 -43t10.5 -53q0 -29 -10.5 -53t-28.5 -42t-42.5 -28t-52.5 -10q-29 0 -53 10t-42 28t-28 42.5t-10 53.5
q0 28 10 52.5t28 42.5t42 28.5t53 10.5z" />
    <glyph glyph-name="uni1E44" unicode="&#x1e44;" horiz-adv-x="1406" 
d="M1251 -1h-204l-676 996v-995h-216v1401h204l676 -999v998h216v-1401zM703 1799q29 0 54.5 -11t44 -29.5t29 -44t10.5 -54.5t-10.5 -54t-29 -43.5t-44 -29t-54.5 -10.5q-30 0 -55 10.5t-43 29t-28.5 44t-10.5 54.5t10.5 54t28.5 44t43 29.5t55 10.5z" />
    <glyph glyph-name="uni1E45" unicode="&#x1e45;" horiz-adv-x="1076" 
d="M608 983q76 0 138.5 -25t107.5 -70.5t70 -110t25 -143.5v-634h-203v573q0 106 -52 161.5t-145 55.5q-44 0 -82 -14.5t-66.5 -43t-45 -69.5t-16.5 -93v-570h-204v962h198v-130q24 42 55.5 71t67.5 46.5t74.5 25.5t77.5 8zM548 1424q28 0 52.5 -10.5t42.5 -28.5t28.5 -43
t10.5 -53q0 -29 -10.5 -53t-28.5 -42t-42.5 -28t-52.5 -10q-29 0 -53 10t-42 28t-28 42.5t-10 53.5q0 28 10 52.5t28 42.5t42 28.5t53 10.5z" />
    <glyph glyph-name="uni1E46" unicode="&#x1e46;" horiz-adv-x="1406" 
d="M1251 -1h-204l-676 996v-995h-216v1401h204l676 -999v998h216v-1401zM695 -124q28 0 52.5 -10.5t42.5 -28.5t28.5 -43t10.5 -53q0 -29 -10.5 -53t-28.5 -42t-42.5 -28t-52.5 -10q-29 0 -53 10t-42 28t-28 42.5t-10 53.5q0 28 10 52.5t28 42.5t42 28.5t53 10.5z" />
    <glyph glyph-name="uni1E47" unicode="&#x1e47;" horiz-adv-x="1076" 
d="M608 983q76 0 138.5 -25t107.5 -70.5t70 -110t25 -143.5v-634h-203v573q0 106 -52 161.5t-145 55.5q-44 0 -82 -14.5t-66.5 -43t-45 -69.5t-16.5 -93v-570h-204v962h198v-130q24 42 55.5 71t67.5 46.5t74.5 25.5t77.5 8zM540 -122q28 0 52.5 -10.5t42.5 -28.5t28.5 -43
t10.5 -53q0 -29 -10.5 -53t-28.5 -42t-42.5 -28t-52.5 -10q-29 0 -53 10t-42 28t-28 42.5t-10 53.5q0 28 10 52.5t28 42.5t42 28.5t53 10.5z" />
    <glyph glyph-name="uni1E48" unicode="&#x1e48;" horiz-adv-x="1406" 
d="M1251 -1h-204l-676 996v-995h-216v1401h204l676 -999v998h216v-1401zM408 -162h576v-170h-576v170z" />
    <glyph glyph-name="uni1E49" unicode="&#x1e49;" horiz-adv-x="1076" 
d="M608 983q76 0 138.5 -25t107.5 -70.5t70 -110t25 -143.5v-634h-203v573q0 106 -52 161.5t-145 55.5q-44 0 -82 -14.5t-66.5 -43t-45 -69.5t-16.5 -93v-570h-204v962h198v-130q24 42 55.5 71t67.5 46.5t74.5 25.5t77.5 8zM253 -162h576v-170h-576v170z" />
    <glyph glyph-name="uni1E58" unicode="&#x1e58;" horiz-adv-x="1219" 
d="M477 581h-105v-581h-217v1400h501q113 0 201.5 -27.5t149 -80t92 -129t31.5 -175.5q0 -87 -28.5 -158t-82 -123.5t-129.5 -84t-171 -39.5l416 -583h-260zM372 774h282q123 0 187.5 53t64.5 161q0 107 -65.5 158.5t-186.5 51.5h-282v-424zM592 1799q29 0 54.5 -11
t44 -29.5t29 -44t10.5 -54.5t-10.5 -54t-29 -43.5t-44 -29t-54.5 -10.5q-30 0 -55 10.5t-43 29t-28.5 44t-10.5 54.5t10.5 54t28.5 44t43 29.5t55 10.5z" />
    <glyph glyph-name="uni1E59" unicode="&#x1e59;" horiz-adv-x="756" 
d="M583 983q38 0 71 -5.5t62 -18.5l-35 -208q-30 14 -67.5 22t-72.5 8q-46 0 -83 -16t-63.5 -47t-41 -75t-14.5 -99v-544h-204v962h198v-123q41 73 104 108.5t146 35.5zM423 1424q28 0 52.5 -10.5t42.5 -28.5t28.5 -43t10.5 -53q0 -29 -10.5 -53t-28.5 -42t-42.5 -28
t-52.5 -10q-29 0 -53 10t-42 28t-28 42.5t-10 53.5q0 28 10 52.5t28 42.5t42 28.5t53 10.5z" />
    <glyph glyph-name="uni1E5A" unicode="&#x1e5a;" horiz-adv-x="1219" 
d="M477 581h-105v-581h-217v1400h501q113 0 201.5 -27.5t149 -80t92 -129t31.5 -175.5q0 -87 -28.5 -158t-82 -123.5t-129.5 -84t-171 -39.5l416 -583h-260zM372 774h282q123 0 187.5 53t64.5 161q0 107 -65.5 158.5t-186.5 51.5h-282v-424zM598 -124q28 0 52.5 -10.5
t42.5 -28.5t28.5 -43t10.5 -53q0 -29 -10.5 -53t-28.5 -42t-42.5 -28t-52.5 -10q-29 0 -53 10t-42 28t-28 42.5t-10 53.5q0 28 10 52.5t28 42.5t42 28.5t53 10.5z" />
    <glyph glyph-name="uni1E5B" unicode="&#x1e5b;" horiz-adv-x="756" 
d="M583 983q38 0 71 -5.5t62 -18.5l-35 -208q-30 14 -67.5 22t-72.5 8q-46 0 -83 -16t-63.5 -47t-41 -75t-14.5 -99v-544h-204v962h198v-123q41 73 104 108.5t146 35.5zM236 -122q28 0 52.5 -10.5t42.5 -28.5t28.5 -43t10.5 -53q0 -29 -10.5 -53t-28.5 -42t-42.5 -28
t-52.5 -10q-29 0 -53 10t-42 28t-28 42.5t-10 53.5q0 28 10 52.5t28 42.5t42 28.5t53 10.5z" />
    <glyph glyph-name="uni1E5C" unicode="&#x1e5c;" horiz-adv-x="1219" 
d="M477 581h-105v-581h-217v1400h501q113 0 201.5 -27.5t149 -80t92 -129t31.5 -175.5q0 -87 -28.5 -158t-82 -123.5t-129.5 -84t-171 -39.5l416 -583h-260zM372 774h282q123 0 187.5 53t64.5 161q0 107 -65.5 158.5t-186.5 51.5h-282v-424zM304 1743h576v-170h-576v170z
M598 -124q28 0 52.5 -10.5t42.5 -28.5t28.5 -43t10.5 -53q0 -29 -10.5 -53t-28.5 -42t-42.5 -28t-52.5 -10q-29 0 -53 10t-42 28t-28 42.5t-10 53.5q0 28 10 52.5t28 42.5t42 28.5t53 10.5z" />
    <glyph glyph-name="uni1E5D" unicode="&#x1e5d;" horiz-adv-x="756" 
d="M583 983q38 0 71 -5.5t62 -18.5l-35 -208q-30 14 -67.5 22t-72.5 8q-46 0 -83 -16t-63.5 -47t-41 -75t-14.5 -99v-544h-204v962h198v-123q41 73 104 108.5t146 35.5zM136 1333h576v-170h-576v170zM236 -122q28 0 52.5 -10.5t42.5 -28.5t28.5 -43t10.5 -53
q0 -29 -10.5 -53t-28.5 -42t-42.5 -28t-52.5 -10q-29 0 -53 10t-42 28t-28 42.5t-10 53.5q0 28 10 52.5t28 42.5t42 28.5t53 10.5z" />
    <glyph glyph-name="uni1E5E" unicode="&#x1e5e;" horiz-adv-x="1219" 
d="M477 581h-105v-581h-217v1400h501q113 0 201.5 -27.5t149 -80t92 -129t31.5 -175.5q0 -87 -28.5 -158t-82 -123.5t-129.5 -84t-171 -39.5l416 -583h-260zM372 774h282q123 0 187.5 53t64.5 161q0 107 -65.5 158.5t-186.5 51.5h-282v-424zM311 -162h576v-170h-576v170z
" />
    <glyph glyph-name="uni1E5F" unicode="&#x1e5f;" horiz-adv-x="756" 
d="M583 983q38 0 71 -5.5t62 -18.5l-35 -208q-30 14 -67.5 22t-72.5 8q-46 0 -83 -16t-63.5 -47t-41 -75t-14.5 -99v-544h-204v962h198v-123q41 73 104 108.5t146 35.5zM-51 -162h576v-170h-576v170z" />
    <glyph glyph-name="uni1E62" unicode="&#x1e62;" horiz-adv-x="1209" 
d="M976 1096q-71 54 -156.5 85.5t-185.5 31.5q-60 0 -110.5 -14t-87 -40t-56.5 -63t-20 -84q0 -80 65 -125t193 -71l104 -22q84 -18 156.5 -48.5t125 -77.5t82.5 -112t30 -151q0 -103 -40 -182.5t-110 -133.5t-163.5 -82t-200.5 -28q-73 0 -144.5 13.5t-137.5 38t-123.5 60
t-103.5 80.5l133 160q31 -30 72 -56.5t89.5 -46t102.5 -31t110 -11.5q61 0 114 13.5t92 39.5t61 63.5t22 85.5q0 81 -66 127t-197 73l-113 23q-85 18 -155 50.5t-119.5 81t-77 113t-27.5 147.5q0 97 38.5 174.5t105.5 131.5t158.5 82.5t197.5 28.5q143 0 257 -42t209 -117z
M618 -124q28 0 52.5 -10.5t42.5 -28.5t28.5 -43t10.5 -53q0 -29 -10.5 -53t-28.5 -42t-42.5 -28t-52.5 -10q-29 0 -53 10t-42 28t-28 42.5t-10 53.5q0 28 10 52.5t28 42.5t42 28.5t53 10.5z" />
    <glyph glyph-name="uni1E63" unicode="&#x1e63;" horiz-adv-x="903" 
d="M732 729q-22 14 -51 27.5t-63 24t-71.5 17t-75.5 6.5q-78 0 -122 -30.5t-44 -82.5q0 -50 41 -74.5t117 -38.5l86 -15q140 -25 213.5 -93.5t73.5 -183.5q0 -69 -27.5 -125.5t-79.5 -96.5t-125.5 -62t-164.5 -22q-45 0 -93.5 6t-96.5 19.5t-94.5 35t-87.5 53.5l91 154
q24 -19 52.5 -35.5t62.5 -29t74.5 -19.5t88.5 -7q92 0 143 30.5t51 86.5q0 43 -37 72t-122 44l-87 15q-147 25 -216 99t-69 182q0 69 26 123.5t74 93t115.5 59t150.5 20.5q103 0 191 -25.5t158 -70.5zM459 -122q28 0 52.5 -10.5t42.5 -28.5t28.5 -43t10.5 -53
q0 -29 -10.5 -53t-28.5 -42t-42.5 -28t-52.5 -10q-29 0 -53 10t-42 28t-28 42.5t-10 53.5q0 28 10 52.5t28 42.5t42 28.5t53 10.5z" />
    <glyph glyph-name="uni1E6C" unicode="&#x1e6c;" horiz-adv-x="1087" 
d="M1056 1197h-404v-1197h-217v1197h-404v203h1025v-203zM541 -124q28 0 52.5 -10.5t42.5 -28.5t28.5 -43t10.5 -53q0 -29 -10.5 -53t-28.5 -42t-42.5 -28t-52.5 -10q-29 0 -53 10t-42 28t-28 42.5t-10 53.5q0 28 10 52.5t28 42.5t42 28.5t53 10.5z" />
    <glyph glyph-name="uni1E6D" unicode="&#x1e6d;" horiz-adv-x="819" 
d="M797 63q-51 -36 -117 -60t-150 -24q-74 0 -133 21t-99.5 63.5t-62 107t-21.5 151.5v455h-173v185h173v278h202v-278h329v-185h-329v-443q0 -44 11 -74.5t30 -50.5t45 -29t57 -9q45 0 88 16t78 40zM493 -122q28 0 52.5 -10.5t42.5 -28.5t28.5 -43t10.5 -53
q0 -29 -10.5 -53t-28.5 -42t-42.5 -28t-52.5 -10q-29 0 -53 10t-42 28t-28 42.5t-10 53.5q0 28 10 52.5t28 42.5t42 28.5t53 10.5z" />
    <glyph glyph-name="uni1E6E" unicode="&#x1e6e;" horiz-adv-x="1087" 
d="M1056 1197h-404v-1197h-217v1197h-404v203h1025v-203zM254 -162h576v-170h-576v170z" />
    <glyph glyph-name="uni1E6F" unicode="&#x1e6f;" horiz-adv-x="819" 
d="M797 63q-51 -36 -117 -60t-150 -24q-74 0 -133 21t-99.5 63.5t-62 107t-21.5 151.5v455h-173v185h173v278h202v-278h329v-185h-329v-443q0 -44 11 -74.5t30 -50.5t45 -29t57 -9q45 0 88 16t78 40zM206 -162h576v-170h-576v170z" />
    <glyph glyph-name="Wgrave" unicode="&#x1e80;" horiz-adv-x="1968" 
d="M1931 1400l-387 -1401h-264l-296 1076l-297 -1076h-264l-386 1401h227l296 -1134l307 1135h237l307 -1136l297 1135h223zM699 1817h239l186 -308h-190z" />
    <glyph glyph-name="wgrave" unicode="&#x1e81;" horiz-adv-x="1543" 
d="M1515 962l-299 -962h-231l-215 712l-215 -712h-228l-299 962h212l209 -727l219 727h207l221 -729l210 729h209zM479 1405h239l186 -308h-190z" />
    <glyph glyph-name="Wacute" unicode="&#x1e82;" horiz-adv-x="1968" 
d="M1931 1400l-387 -1401h-264l-296 1076l-297 -1076h-264l-386 1401h227l296 -1134l307 1135h237l307 -1136l297 1135h223zM831 1509l186 308h239l-235 -308h-190z" />
    <glyph glyph-name="wacute" unicode="&#x1e83;" horiz-adv-x="1543" 
d="M1515 962l-299 -962h-231l-215 712l-215 -712h-228l-299 962h212l209 -727l219 727h207l221 -729l210 729h209zM628 1097l186 308h239l-235 -308h-190z" />
    <glyph glyph-name="Wdieresis" unicode="&#x1e84;" horiz-adv-x="1968" 
d="M1931 1400l-387 -1401h-264l-296 1076l-297 -1076h-264l-386 1401h227l296 -1134l307 1135h237l307 -1136l297 1135h223zM780 1793q28 0 52.5 -10.5t42.5 -28.5t28 -43t10 -53t-10 -52t-28 -41.5t-42.5 -27.5t-52.5 -10t-52 10t-42 28t-28 42t-10 53q0 28 10 52t28 42
t42 28.5t52 10.5zM1175 1793q28 0 52.5 -10.5t42.5 -28.5t28 -43t10 -53t-10 -52t-28 -41.5t-42.5 -27.5t-52.5 -10t-52 10t-42 28t-28 42t-10 53q0 28 10 52t28 42t42 28.5t52 10.5z" />
    <glyph glyph-name="wdieresis" unicode="&#x1e85;" horiz-adv-x="1543" 
d="M1515 962l-299 -962h-231l-215 712l-215 -712h-228l-299 962h212l209 -727l219 727h207l221 -729l210 729h209zM570 1382q28 0 52.5 -10.5t42.5 -28.5t28 -43t10 -53t-10 -52t-28 -41.5t-42.5 -27.5t-52.5 -10t-52 10t-42 28t-28 42t-10 53q0 28 10 52t28 42t42 28.5
t52 10.5zM965 1382q28 0 52.5 -10.5t42.5 -28.5t28 -43t10 -53t-10 -52t-28 -41.5t-42.5 -27.5t-52.5 -10t-52 10t-42 28t-28 42t-10 53q0 28 10 52t28 42t42 28.5t52 10.5z" />
    <glyph glyph-name="uni1E88" unicode="&#x1e88;" horiz-adv-x="1968" 
d="M1931 1400l-387 -1401h-264l-296 1076l-297 -1076h-264l-386 1401h227l296 -1134l307 1135h237l307 -1136l297 1135h223zM980 -124q28 0 52.5 -10.5t42.5 -28.5t28.5 -43t10.5 -53q0 -29 -10.5 -53t-28.5 -42t-42.5 -28t-52.5 -10q-29 0 -53 10t-42 28t-28 42.5t-10 53.5
q0 28 10 52.5t28 42.5t42 28.5t53 10.5z" />
    <glyph glyph-name="uni1E89" unicode="&#x1e89;" horiz-adv-x="1543" 
d="M1515 962l-299 -962h-231l-215 712l-215 -712h-228l-299 962h212l209 -727l219 727h207l221 -729l210 729h209zM766 -122q28 0 52.5 -10.5t42.5 -28.5t28.5 -43t10.5 -53q0 -29 -10.5 -53t-28.5 -42t-42.5 -28t-52.5 -10q-29 0 -53 10t-42 28t-28 42.5t-10 53.5
q0 28 10 52.5t28 42.5t42 28.5t53 10.5z" />
    <glyph glyph-name="uni1E92" unicode="&#x1e92;" horiz-adv-x="1155" 
d="M1061 1231l-694 -1029h695v-202h-969v169l695 1029h-690v202h963v-169zM576 -124q28 0 52.5 -10.5t42.5 -28.5t28.5 -43t10.5 -53q0 -29 -10.5 -53t-28.5 -42t-42.5 -28t-52.5 -10q-29 0 -53 10t-42 28t-28 42.5t-10 53.5q0 28 10 52.5t28 42.5t42 28.5t53 10.5z" />
    <glyph glyph-name="uni1E93" unicode="&#x1e93;" horiz-adv-x="940" 
d="M838 808l-482 -623h490v-185h-752v152l490 626h-474v184h728v-154zM469 -122q28 0 52.5 -10.5t42.5 -28.5t28.5 -43t10.5 -53q0 -29 -10.5 -53t-28.5 -42t-42.5 -28t-52.5 -10q-29 0 -53 10t-42 28t-28 42.5t-10 53.5q0 28 10 52.5t28 42.5t42 28.5t53 10.5z" />
    <glyph glyph-name="uni1E94" unicode="&#x1e94;" horiz-adv-x="1155" 
d="M1061 1231l-694 -1029h695v-202h-969v169l695 1029h-690v202h963v-169zM289 -162h576v-170h-576v170z" />
    <glyph glyph-name="uni1E95" unicode="&#x1e95;" horiz-adv-x="940" 
d="M838 808l-482 -623h490v-185h-752v152l490 626h-474v184h728v-154zM182 -162h576v-170h-576v170z" />
    <glyph glyph-name="uni1E96" unicode="&#x1e96;" horiz-adv-x="1077" 
d="M608 983q76 0 139 -25t108 -70.5t70 -110t25 -143.5v-634h-204v573q0 106 -52 161.5t-144 55.5q-44 0 -82.5 -14.5t-67 -43t-45 -69.5t-16.5 -93v-570h-204v1440h204v-598q24 39 55 66t66 43.5t72.5 24t75.5 7.5zM254 -162h576v-170h-576v170z" />
    <glyph glyph-name="uni1E9E" unicode="&#x1e9e;" horiz-adv-x="1297" 
d="M868 777q75 -18 137.5 -51t108.5 -81.5t71.5 -111.5t25.5 -141q0 -96 -36.5 -172t-100.5 -129.5t-149.5 -82t-183.5 -28.5q-82 0 -139 8t-109 24l44 205q38 -14 80 -21.5t92 -7.5q130 0 202 52.5t72 151.5q0 101 -74 154.5t-211 53.5h-84v160l273 372q-38 38 -96 59
t-140 21q-69 0 -123.5 -19.5t-92 -55.5t-57.5 -87.5t-20 -115.5v-934h-218v939q0 101 31 189t95 153t160.5 102.5t228.5 37.5q183 0 306 -66t203 -185z" />
    <glyph glyph-name="Ygrave" unicode="&#x1ef2;" horiz-adv-x="1200" 
d="M711 553v-553h-217v556l-487 844h252l345 -608l344 608h245zM321 1817h239l186 -308h-190z" />
    <glyph glyph-name="ygrave" unicode="&#x1ef3;" horiz-adv-x="990" 
d="M980 962l-660 -1346h-218l291 571l-380 775h222l266 -563l261 563h218zM207 1406h239l186 -308h-190z" />
    <glyph glyph-name="uni1EF4" unicode="&#x1ef4;" horiz-adv-x="1200" 
d="M711 553v-553h-217v556l-487 844h252l345 -608l344 608h245zM601 -124q28 0 52.5 -10.5t42.5 -28.5t28.5 -43t10.5 -53q0 -29 -10.5 -53t-28.5 -42t-42.5 -28t-52.5 -10q-29 0 -53 10t-42 28t-28 42.5t-10 53.5q0 28 10 52.5t28 42.5t42 28.5t53 10.5z" />
    <glyph glyph-name="uni1EF5" unicode="&#x1ef5;" horiz-adv-x="990" 
d="M980 962l-660 -1346h-218l291 571l-380 775h222l266 -563l261 563h218zM735 -120q28 0 52.5 -10.5t42.5 -28.5t28.5 -43t10.5 -53q0 -29 -10.5 -53t-28.5 -42t-42.5 -28t-52.5 -10q-29 0 -53 10t-42 28t-28 42.5t-10 53.5q0 28 10 52.5t28 42.5t42 28.5t53 10.5z" />
    <glyph glyph-name="uni2007" unicode="&#x2007;" horiz-adv-x="1104" 
 />
    <glyph glyph-name="uni2008" unicode="&#x2008;" horiz-adv-x="498" 
 />
    <glyph glyph-name="uni2009" unicode="&#x2009;" horiz-adv-x="278" 
 />
    <glyph glyph-name="uni200B" unicode="&#x200b;" horiz-adv-x="0" 
 />
    <glyph glyph-name="uniFEFF" unicode="&#xfeff;" horiz-adv-x="0" 
 />
    <glyph glyph-name="uni2010" unicode="&#x2010;" horiz-adv-x="735" 
d="M627 439h-518v184h518v-184z" />
    <glyph glyph-name="uni2011" unicode="&#x2011;" horiz-adv-x="735" 
d="M627 439h-518v184h518v-184z" />
    <glyph glyph-name="figuredash" unicode="&#x2012;" horiz-adv-x="1053" 
d="M966 441h-864v180h864v-180z" />
    <glyph glyph-name="endash" unicode="&#x2013;" horiz-adv-x="1050" 
d="M957 441h-864v180h864v-180z" />
    <glyph glyph-name="emdash" unicode="&#x2014;" horiz-adv-x="1438" 
d="M1392 441h-1345v180h1345v-180z" />
    <glyph glyph-name="quoteleft" unicode="&#x2018;" horiz-adv-x="476" 
d="M99 907l113 533h170l-57 -533h-226z" />
    <glyph glyph-name="quoteright" unicode="&#x2019;" horiz-adv-x="476" 
d="M377 1439l-113 -533h-170l57 533h226z" />
    <glyph glyph-name="quotesinglbase" unicode="&#x201a;" horiz-adv-x="476" 
d="M377 268l-113 -533h-170l57 533h226z" />
    <glyph glyph-name="quotedblleft" unicode="&#x201c;" horiz-adv-x="840" 
d="M99 907l113 533h170l-57 -533h-226zM463 907l113 533h170l-57 -533h-226z" />
    <glyph glyph-name="quotedblright" unicode="&#x201d;" horiz-adv-x="839" 
d="M377 1439l-113 -533h-170l57 533h226zM741 1439l-113 -533h-170l57 533h226z" />
    <glyph glyph-name="quotedblbase" unicode="&#x201e;" horiz-adv-x="839" 
d="M377 268l-113 -533h-170l57 533h226zM740 268l-113 -533h-170l57 533h226z" />
    <glyph glyph-name="dagger" unicode="&#x2020;" horiz-adv-x="693" 
d="M616 1087h-191v-403h-156v403h-191v152h191v201h156v-201h191v-152z" />
    <glyph glyph-name="daggerdbl" unicode="&#x2021;" horiz-adv-x="693" 
d="M425 1126v-130h191v-151h-191v-163h-156v163h-191v151h191v130h-191v151h191v163h156v-163h191v-151h-191z" />
    <glyph glyph-name="bullet" unicode="&#x2022;" horiz-adv-x="805" 
d="M402 786q52 0 99 -20t81.5 -54.5t55 -81t20.5 -100.5q0 -53 -20.5 -99.5t-55 -81t-81.5 -54.5t-99 -20q-53 0 -100 20t-81.5 54.5t-54.5 81t-20 99.5q0 54 20 100.5t54.5 81t81.5 54.5t100 20z" />
    <glyph glyph-name="uni2023" unicode="&#x2023;" horiz-adv-x="803" 
d="M83.1826 158.699v759.279l655.908 -379.64z" />
    <glyph glyph-name="ellipsis" unicode="&#x2026;" horiz-adv-x="1449" 
d="M249 284q31 0 58.5 -12t48 -33t32.5 -49t12 -59t-12 -58.5t-32.5 -48.5t-48 -33t-58.5 -12t-58.5 12t-48.5 33t-33 49t-12 60q0 31 12 58.5t33 48t48.5 32.5t58.5 12zM724 284q31 0 58.5 -12t48 -33t32.5 -49t12 -59t-12 -58.5t-32.5 -48.5t-48 -33t-58.5 -12t-58.5 12
t-48.5 33t-33 49t-12 60q0 31 12 58.5t33 48t48.5 32.5t58.5 12zM1200 284q31 0 58.5 -12t48 -33t32.5 -49t12 -59t-12 -58.5t-32.5 -48.5t-48 -33t-58.5 -12t-58.5 12t-48.5 33t-33 49t-12 60q0 31 12 58.5t33 48t48.5 32.5t58.5 12z" />
    <glyph glyph-name="perthousand" unicode="&#x2030;" horiz-adv-x="2541" 
d="M428 1422q76 0 141 -26t112.5 -73t74.5 -112t27 -142q0 -78 -27 -143t-74.5 -112.5t-112.5 -73.5t-141 -26q-75 0 -139.5 26t-112 73.5t-74 112.5t-26.5 143q0 77 26.5 142t74 112t112 73t139.5 26zM581 0h-201l802 1400h201zM428 1256q-37 0 -69 -13.5t-55 -38.5
t-36.5 -59t-13.5 -76t13.5 -77t36.5 -59.5t55 -38t69 -13.5q38 0 70.5 13.5t56 38t37 59.5t13.5 77t-13.5 76t-37 59t-56 38.5t-70.5 13.5zM1333 687q76 0 141 -26.5t112.5 -73.5t74.5 -112t27 -142q0 -78 -27 -143t-74.5 -112t-112.5 -73t-141 -26q-75 0 -139.5 26t-112 73
t-74 112t-26.5 143t26.5 143t74 112t112 73t139.5 26zM2111 687q76 0 140.5 -26t112 -73t74.5 -112t27 -143t-27 -143t-74.5 -112t-112 -73t-140.5 -26q-75 0 -139.5 26t-112 73t-74 112t-26.5 143t26.5 143t74 112t112 73t139.5 26zM1333 521q-37 0 -69 -14t-55 -38.5
t-36.5 -59t-13.5 -76.5t13.5 -76.5t36.5 -59t55 -38t69 -13.5q38 0 70.5 13.5t56 38t37 59t13.5 76.5t-13.5 76.5t-37 59.5t-56 38.5t-70.5 13.5zM2111 521q-38 0 -70 -14t-55 -38.5t-36.5 -59t-13.5 -76.5t13.5 -76t36.5 -59t55 -38.5t70 -13.5t70 13.5t55.5 38t37 59
t13.5 76.5t-13.5 76.5t-37 59.5t-55.5 38.5t-70 13.5z" />
    <glyph glyph-name="minute" unicode="&#x2032;" horiz-adv-x="498" 
d="M400 1400l-121 -614h-185l121 614h185z" />
    <glyph glyph-name="second" unicode="&#x2033;" horiz-adv-x="821" 
d="M723 1400l-121 -614h-185l121 614h185zM400 1400l-121 -614h-185l121 614h185z" />
    <glyph glyph-name="uni2034" unicode="&#x2034;" horiz-adv-x="1099" 
d="M700 1400l-121 -614h-185l121 614h185zM1000 1400l-121 -614h-185l121 614h185zM400 1400l-121 -614h-185l121 614h185z" />
    <glyph glyph-name="guilsinglleft" unicode="&#x2039;" horiz-adv-x="605" 
d="M492 157h-210l-181 374l181 374h210l-182 -374z" />
    <glyph glyph-name="guilsinglright" unicode="&#x203a;" horiz-adv-x="605" 
d="M113 906h210l181 -374l-181 -374h-210l182 374z" />
    <glyph glyph-name="fraction" unicode="&#x2044;" horiz-adv-x="398" 
d="M-112 0h-182l804 1400h182z" />
    <glyph glyph-name="uni2070" unicode="&#x2070;" horiz-adv-x="788" 
d="M394 1411q68 0 126 -26.5t100.5 -78.5t66.5 -127.5t24 -173.5t-24 -174t-66.5 -128t-100.5 -78.5t-126 -26.5t-126 26.5t-100.5 78.5t-66.5 128t-24 174t24 173.5t66.5 127.5t100.5 78.5t126 26.5zM394 1260q-33 0 -61.5 -16t-49.5 -48t-32.5 -79.5t-11.5 -111.5
q0 -128 44 -191.5t111 -63.5t111 63.5t44 191.5q0 64 -11.5 111.5t-32.5 79.5t-49.5 48t-61.5 16z" />
    <glyph glyph-name="uni2071" unicode="&#x2071;" horiz-adv-x="353" 
d="M177 1610q22 0 41.5 -8.5t34 -23t22.5 -34.5t8 -43q0 -22 -8.5 -41t-22.5 -33t-34 -22t-42 -8t-41 8.5t-33.5 23t-22.5 34t-8 42.5q0 22 8 41t22.5 33.5t33.5 22.5t42 8zM262 594h-170v687h170v-687z" />
    <glyph glyph-name="uni2074" unicode="&#x2074;" horiz-adv-x="646" 
d="M615 753h-95v-143h-153v143h-336v114l243 532h168l-232 -505h157v209h153v-209h95v-141z" />
    <glyph glyph-name="uni2075" unicode="&#x2075;" horiz-adv-x="658" 
d="M547 1254h-293l-4 -154h66q64 0 114.5 -17t86 -48.5t54 -75t18.5 -95.5q0 -61 -21 -110t-58.5 -83.5t-89.5 -53.5t-114 -19q-82 0 -147 27.5t-109 72.5l81 114q28 -27 73.5 -47.5t96.5 -20.5q62 0 94.5 29.5t32.5 80.5q0 45 -34.5 75t-114.5 30h-170l11 440h427v-145z
" />
    <glyph glyph-name="uni2076" unicode="&#x2076;" horiz-adv-x="667" 
d="M353 1124q58 0 107 -20t83.5 -54.5t54 -81.5t19.5 -102q0 -59 -22 -108t-60.5 -84.5t-90.5 -55.5t-113 -20q-60 0 -112 19.5t-90.5 54.5t-60.5 83.5t-22 106.5q0 48 16 94.5t48 99.5l206 343h181l-179 -278q16 3 35 3zM331 740q54 0 89 34.5t35 89.5t-35 89.5t-89 34.5
t-89 -34t-35 -90q0 -27 9.5 -50t26 -39.5t39 -25.5t49.5 -9z" />
    <glyph glyph-name="uni2077" unicode="&#x2077;" horiz-adv-x="608" 
d="M569 1270l-294 -660h-179l295 640h-345v149h523v-129z" />
    <glyph glyph-name="uni2078" unicode="&#x2078;" horiz-adv-x="716" 
d="M517 1009q28 -11 52.5 -27.5t42.5 -39.5t28.5 -52t10.5 -66q0 -54 -23.5 -96t-63 -71t-93 -44t-113.5 -15t-113.5 15t-93.5 44t-63 71t-23 96q0 37 10.5 66t28.5 52t42.5 39.5t52.5 27.5q-49 23 -82 66.5t-33 111.5q0 53 21.5 94.5t59 70.5t87 44t106.5 15t106.5 -15
t87 -44t59 -70.5t21.5 -94.5q0 -68 -33 -111.5t-82 -66.5zM358 1272q-47 0 -80 -25.5t-33 -74.5q0 -24 9 -42t24.5 -30.5t36 -19t43.5 -6.5t43.5 6.5t36 19t24.5 30.5t9 42q0 49 -33 74.5t-80 25.5zM358 736q26 0 49 7t40.5 20.5t27.5 33t10 45.5q0 25 -10 44t-27.5 32
t-40.5 19.5t-49 6.5t-49.5 -6.5t-40.5 -19.5t-27 -32t-10 -44q0 -26 10 -45.5t27 -33t40.5 -20.5t49.5 -7z" />
    <glyph glyph-name="uni2079" unicode="&#x2079;" horiz-adv-x="667" 
d="M336 1411q60 0 112 -19.5t90.5 -54.5t60.5 -83.5t22 -106.5q0 -48 -16 -94.5t-48 -99.5l-206 -343h-182l180 277q-8 -1 -17 -1.5t-18 -0.5q-59 0 -107.5 20t-83 54.5t-54 82t-19.5 102.5q0 58 22 107.5t60.5 84.5t90.5 55t113 20zM335 1021q27 0 50 9t39.5 25.5t26 39.5
t9.5 50t-9.5 50t-26 39.5t-39 25.5t-49.5 9t-50 -9t-39.5 -25.5t-26 -39t-9.5 -50.5q0 -27 9.5 -50t26 -39.5t39 -25.5t49.5 -9z" />
    <glyph glyph-name="uni207F" unicode="&#x207f;" horiz-adv-x="776" 
d="M449 1296q53 0 97.5 -17.5t76.5 -49.5t49.5 -77.5t17.5 -101.5v-456h-170v405q0 67 -33.5 102t-93.5 35q-27 0 -51 -9t-42 -26.5t-28.5 -43.5t-10.5 -60v-403h-170v687h164v-89q32 55 83 79.5t111 24.5z" />
    <glyph glyph-name="uni2080" unicode="&#x2080;" horiz-adv-x="788" 
d="M394 441q68 0 126 -26.5t100.5 -78.5t66.5 -127.5t24 -173.5t-24 -174t-66.5 -128t-100.5 -78.5t-126 -26.5t-126 26.5t-100.5 78.5t-66.5 128t-24 174t24 173.5t66.5 127.5t100.5 78.5t126 26.5zM394 290q-33 0 -61.5 -16t-49.5 -48t-32.5 -79.5t-11.5 -111.5
q0 -128 44 -191.5t111 -63.5t111 63.5t44 191.5q0 64 -11.5 111.5t-32.5 79.5t-49.5 48t-61.5 16z" />
    <glyph glyph-name="uni2081" unicode="&#x2081;" horiz-adv-x="496" 
d="M373 -360h-155v583l-179 -72v155l334 135v-801z" />
    <glyph glyph-name="uni2082" unicode="&#x2082;" horiz-adv-x="634" 
d="M50 313q16 21 39.5 43.5t55 41.5t71.5 31t91 12q60 0 107.5 -18t80.5 -50.5t51 -78.5t18 -102q0 -36 -7.5 -67.5t-22 -60.5t-36.5 -58t-51 -59l-151 -159h284v-148h-495v125l260 280q28 31 44 64t16 68q0 49 -30.5 80.5t-82.5 31.5q-51 0 -86 -24.5t-63 -56.5z" />
    <glyph glyph-name="uni2083" unicode="&#x2083;" horiz-adv-x="640" 
d="M446 38q60 -24 94.5 -70.5t34.5 -109.5q0 -59 -23.5 -102t-63 -71.5t-90.5 -42.5t-105 -14q-81 0 -146 27t-108 77l88 107q31 -32 71.5 -49.5t86.5 -17.5q26 0 49 6t40.5 18.5t28 31.5t10.5 45q0 23 -11 40.5t-30 29.5t-44 18t-53 6h-87v142h88q53 0 88 24t35 70
q0 44 -32.5 68.5t-86.5 24.5q-52 0 -90 -21.5t-62 -50.5l-84 111q40 47 99.5 76.5t147.5 29.5q59 0 108.5 -16t85 -45.5t55.5 -70.5t20 -91q0 -63 -30 -108.5t-84 -71.5z" />
    <glyph glyph-name="uni2084" unicode="&#x2084;" horiz-adv-x="646" 
d="M615 -217h-95v-143h-153v143h-336v114l243 532h168l-232 -505h157v209h153v-209h95v-141z" />
    <glyph glyph-name="uni2085" unicode="&#x2085;" horiz-adv-x="658" 
d="M547 284h-293l-4 -154h66q64 0 114.5 -17t86 -48.5t54 -75t18.5 -95.5q0 -61 -21 -110t-58.5 -83.5t-89.5 -53.5t-114 -19q-82 0 -147 27.5t-109 72.5l81 114q28 -27 73.5 -47.5t96.5 -20.5q62 0 94.5 29.5t32.5 80.5q0 45 -34.5 75t-114.5 30h-170l11 440h427v-145z" />
    <glyph glyph-name="uni2086" unicode="&#x2086;" horiz-adv-x="667" 
d="M353 154q58 0 107 -20t83.5 -54.5t54 -81.5t19.5 -102q0 -59 -22 -108t-60.5 -84.5t-90.5 -55.5t-113 -20q-60 0 -112 19.5t-90.5 54.5t-60.5 83.5t-22 106.5q0 48 16 94.5t48 99.5l206 343h181l-179 -278q16 3 35 3zM331 -230q54 0 89 34.5t35 89.5t-35 89.5t-89 34.5
t-89 -34t-35 -90q0 -27 9.5 -50t26 -39.5t39 -25.5t49.5 -9z" />
    <glyph glyph-name="uni2087" unicode="&#x2087;" horiz-adv-x="608" 
d="M569 300l-294 -660h-179l295 640h-345v149h523v-129z" />
    <glyph glyph-name="uni2088" unicode="&#x2088;" horiz-adv-x="716" 
d="M517 39q28 -11 52.5 -27.5t42.5 -39.5t28.5 -52t10.5 -66q0 -54 -23.5 -96t-63 -71t-93 -44t-113.5 -15t-113.5 15t-93.5 44t-63 71t-23 96q0 37 10.5 66t28.5 52t42.5 39.5t52.5 27.5q-49 23 -82 66.5t-33 111.5q0 53 21.5 94.5t59 70.5t87 44t106.5 15t106.5 -15
t87 -44t59 -70.5t21.5 -94.5q0 -68 -33 -111.5t-82 -66.5zM358 302q-47 0 -80 -25.5t-33 -74.5q0 -24 9 -42t24.5 -30.5t36 -19t43.5 -6.5t43.5 6.5t36 19t24.5 30.5t9 42q0 49 -33 74.5t-80 25.5zM358 -234q26 0 49 7t40.5 20.5t27.5 33t10 45.5q0 25 -10 44t-27.5 32
t-40.5 19.5t-49 6.5t-49.5 -6.5t-40.5 -19.5t-27 -32t-10 -44q0 -26 10 -45.5t27 -33t40.5 -20.5t49.5 -7z" />
    <glyph glyph-name="uni2089" unicode="&#x2089;" horiz-adv-x="667" 
d="M336 441q60 0 112 -19.5t90.5 -54.5t60.5 -83.5t22 -106.5q0 -48 -16 -94.5t-48 -99.5l-206 -343h-182l180 277q-8 -1 -17 -1.5t-18 -0.5q-59 0 -107.5 20t-83 54.5t-54 82t-19.5 102.5q0 58 22 107.5t60.5 84.5t90.5 55t113 20zM335 51q27 0 50 9t39.5 25.5t26 39.5
t9.5 50t-9.5 50t-26 39.5t-39 25.5t-49.5 9t-50 -9t-39.5 -25.5t-26 -39t-9.5 -50.5q0 -27 9.5 -50t26 -39.5t39 -25.5t49.5 -9z" />
    <glyph glyph-name="Euro" unicode="&#x20ac;" horiz-adv-x="1252" 
d="M767 178q96 0 164.5 43.5t116.5 118.5l148 -118q-70 -115 -176.5 -178.5t-252.5 -63.5q-108 0 -198 32.5t-160 95t-118.5 152t-72.5 203.5h-150v156h129q-3 39 -3 81t3 81h-129v156h150q24 114 72.5 203.5t118.5 152t160 95t198 32.5q146 0 253.5 -62.5t177.5 -175.5
l-154 -119q-47 73 -115 116t-162 43q-121 0 -203.5 -74t-120.5 -211h496v-156h-521q-3 -39 -3 -81t3 -81h521v-156h-495q38 -138 120.5 -211.5t202.5 -73.5z" />
    <glyph glyph-name="uni20BA" unicode="&#x20ba;" horiz-adv-x="1244" 
d="M1163 379q-45 -98 -98.5 -169.5t-118.5 -118t-142.5 -69t-170.5 -22.5h-361v345l-160 -80v171l160 80v158l-160 -80v171l160 80v555h210v-449l404 203v-171l-404 -203v-158l404 203v-171l-404 -203v-251h166q55 0 102 14.5t88 46.5t77 81.5t68 120.5z" />
    <glyph glyph-name="uni2100" unicode="&#x2100;" horiz-adv-x="1777" 
d="M437 1422q63 0 116.5 -16.5t91.5 -51t59.5 -86.5t21.5 -124v-419h-160v81q-32 -41 -78.5 -68.5t-115.5 -27.5q-51 0 -91.5 15.5t-69 43.5t-44 67t-15.5 87q0 97 69 152.5t197 55.5h141v1q0 71 -36.5 105.5t-105.5 34.5q-51 0 -92.5 -18t-72.5 -41l-67 127q48 38 111.5 60
t140.5 22zM418 848q45 0 82 23t63 59v85h-121q-63 0 -91 -24.5t-28 -59.5t24 -59t71 -24zM615 0h-182l804 1400h182zM1374 694q79 0 142.5 -30t105.5 -85l-116 -107q-28 30 -60 45.5t-72 15.5q-70 0 -115.5 -51t-45.5 -147q0 -47 12 -84t33.5 -62t50.5 -38t64 -13
q40 0 74 16.5t60 45.5l116 -108q-43 -55 -106.5 -85t-142.5 -30q-75 0 -137 26t-105.5 73t-67.5 113t-24 146q0 81 24 147t67.5 113t105.5 73t137 26z" />
    <glyph glyph-name="uni2101" unicode="&#x2101;" horiz-adv-x="1779" 
d="M439 1422q63 0 116.5 -16.5t91.5 -51t59.5 -86.5t21.5 -124v-419h-160v81q-32 -41 -78.5 -68.5t-115.5 -27.5q-51 0 -91.5 15.5t-69 43.5t-44 67t-15.5 87q0 97 69 152.5t197 55.5h141v1q0 71 -36.5 105.5t-105.5 34.5q-51 0 -92.5 -18t-72.5 -41l-67 127q48 38 111.5 60
t140.5 22zM420 848q45 0 82 23t63 59v85h-121q-63 0 -91 -24.5t-28 -59.5t24 -59t71 -24zM617 0h-182l804 1400h182zM1539 497q-38 20 -90 36t-103 16t-77.5 -18t-26.5 -48q0 -31 29 -46t83 -25l55 -10q102 -18 154 -68.5t52 -131.5q0 -52 -20.5 -93.5t-58 -71t-91.5 -45
t-121 -15.5q-75 0 -148.5 18t-129.5 59l69 132q40 -29 90 -46.5t117 -17.5q58 0 89.5 18t31.5 51q0 26 -25.5 43.5t-86.5 28.5l-52 9q-111 19 -161 72.5t-50 133.5q0 51 19 91t54 67.5t85.5 42.5t112.5 15q76 0 137.5 -16.5t121.5 -48.5z" />
    <glyph glyph-name="uni2105" unicode="&#x2105;" horiz-adv-x="1766" 
d="M464 1422q79 0 142.5 -30t105.5 -85l-116 -107q-28 30 -60 45.5t-72 15.5q-70 0 -115.5 -51t-45.5 -147q0 -47 12 -84t33.5 -62t50.5 -38t64 -13q40 0 74 16.5t60 45.5l116 -108q-43 -55 -106.5 -85t-142.5 -30q-75 0 -137 26t-105.5 73t-67.5 113t-24 146q0 81 24 147
t67.5 113t105.5 73t137 26zM565 0h-182l804 1400h182zM1311 691q72 0 133 -26t104.5 -73t68 -112.5t24.5 -144.5t-24.5 -144.5t-68 -113t-104.5 -73.5t-133 -26q-73 0 -133.5 26t-104.5 73.5t-68.5 113t-24.5 144.5t24.5 144.5t68.5 112.5t104.5 73t133.5 26zM1311 532
q-71 0 -115.5 -51.5t-44.5 -145.5t44.5 -146t115.5 -52q34 0 63.5 13.5t51 39t33.5 62t12 83.5q0 46 -12 83t-33.5 62t-51 38.5t-63.5 13.5z" />
    <glyph glyph-name="uni2106" unicode="&#x2106;" horiz-adv-x="1793" 
d="M465 1422q79 0 142.5 -30t105.5 -85l-116 -107q-28 30 -60 45.5t-72 15.5q-70 0 -115.5 -51t-45.5 -147q0 -47 12 -84t33.5 -62t50.5 -38t64 -13q40 0 74 16.5t60 45.5l116 -108q-43 -55 -106.5 -85t-142.5 -30q-75 0 -137 26t-105.5 73t-67.5 113t-24 146q0 81 24 147
t67.5 113t105.5 73t137 26zM566 0h-182l804 1400h182zM1664 267q0 -75 -23.5 -129.5t-64 -90t-95 -52.5t-116.5 -17t-116.5 17t-95 52.5t-64 90t-23.5 129.5v413h170v-399q0 -75 36 -108.5t93 -33.5t93 33.5t36 108.5v399h170v-413z" />
    <glyph glyph-name="uni2113" unicode="&#x2113;" horiz-adv-x="988" 
d="M596 164q47 0 91.5 17.5t82.5 44.5l73 -158q-52 -38 -119 -64t-151 -26q-72 0 -130 20.5t-98.5 62.5t-62 105.5t-21.5 150.5v92l-84 -36l-62 169q38 15 75 31.5t72 33.5v491q0 81 21.5 147.5t61.5 114.5t96.5 74.5t127.5 26.5q67 0 122 -24t94 -68.5t60 -106t21 -136.5
q0 -98 -30 -185t-84.5 -163.5t-130 -142.5t-166.5 -123v-185q0 -86 40 -124.5t101 -38.5zM456 728q102 81 159 178.5t57 217.5q0 72 -26 112.5t-76 40.5q-51 0 -82.5 -45.5t-31.5 -129.5v-374z" />
    <glyph glyph-name="uni2116" unicode="&#x2116;" horiz-adv-x="2179" 
d="M1793 1417q72 0 132 -26t103.5 -72.5t67.5 -111.5t24 -144q0 -78 -24 -143t-67.5 -111.5t-103.5 -72.5t-132 -26t-132 26t-103.5 72.5t-67.5 111.5t-24 143q0 79 24 144t67.5 111.5t103.5 72.5t132 26zM1793 1265q-36 0 -66.5 -13.5t-52 -39.5t-34 -63.5t-12.5 -85.5
q0 -47 12.5 -84.5t34 -63.5t52 -39.5t66.5 -13.5t66 13.5t52 39.5t34.5 63.5t12.5 84.5q0 48 -12.5 85.5t-34.5 63.5t-52 39.5t-66 13.5zM2100 419h-614v168h614v-168zM1251 -1h-204l-676 996v-995h-216v1401h204l676 -999v998h216v-1401z" />
    <glyph glyph-name="uni2117" unicode="&#x2117;" horiz-adv-x="1859" 
d="M930 1515q113 0 217 -29t194.5 -81.5t165 -126t127.5 -163t82 -192t29 -213.5t-29 -214t-82 -193t-127.5 -163.5t-165 -126t-194.5 -81.5t-217 -29t-217 29t-195 81.5t-165.5 126t-127.5 163.5t-82 193t-29 214t29 213.5t82 192t127.5 163t165.5 126t195 81.5t217 29z
M930 85q130 0 244 49t199 133.5t134 198.5t49 244q0 86 -22.5 165.5t-63 148.5t-97.5 126t-126.5 97.5t-150 62.5t-166.5 22q-87 0 -167 -22t-149.5 -62.5t-126.5 -97.5t-97.5 -126t-63 -148.5t-22.5 -165.5q0 -130 49 -244t134 -198.5t199 -133.5t244 -49zM994 1121
q83 0 147 -19.5t107.5 -55t66 -86t22.5 -112.5q0 -61 -22.5 -110.5t-66 -84.5t-107 -54t-146.5 -19h-184v-294h-181v835h364zM991 736q79 0 120.5 29t41.5 83q0 55 -41.5 84t-120.5 29h-180v-225h180z" />
    <glyph glyph-name="uni2120" unicode="&#x2120;" horiz-adv-x="1425" 
d="M509 1240q-32 19 -72.5 34t-90.5 15q-47 0 -77.5 -15.5t-30.5 -44.5q0 -30 33 -43.5t90 -22.5l39 -6q91 -14 142.5 -56.5t51.5 -111.5q0 -50 -21 -87.5t-56.5 -62t-83 -37t-100.5 -12.5q-76 0 -141.5 20.5t-113.5 56.5l71 103q33 -24 80 -41t103 -17q50 0 84 15t34 46
q0 29 -31 41t-92 23l-45 8q-93 16 -140.5 60.5t-47.5 112.5q0 43 18.5 78.5t51.5 60.5t78.5 39t100.5 14q75 0 130.5 -18t103.5 -50zM1225 802v416l-129 -338h-134l-129 337v-415h-138v598h193l141 -359l141 359h193v-598h-138z" />
    <glyph glyph-name="trademark" unicode="&#x2122;" horiz-adv-x="1388" 
d="M62 1400h494v-128h-177v-470h-139v470h-178v128zM1326 1400v-598h-137v416l-130 -338h-133l-130 338v-416h-137v598h193l141 -359l140 359h193z" />
    <glyph glyph-name="Omega" unicode="&#x2126;" horiz-adv-x="1496" 
d="M325 202q-51 44 -92 99.5t-69.5 120t-44 137.5t-15.5 152q0 157 47 288t132 225t203.5 146t261.5 52q142 0 260.5 -52t204 -146t132.5 -225t47 -288q0 -159 -59.5 -290t-162.5 -219h264v-202h-552v184q65 23 117.5 69.5t89 112t56.5 147.5t20 177q0 117 -31 213.5
t-86 164.5t-132 105.5t-168 37.5q-92 0 -168.5 -37.5t-131.5 -105.5t-86 -164.5t-31 -213.5q0 -95 20 -177t56.5 -147.5t88.5 -112t117 -69.5v-184h-551v202h263z" />
    <glyph glyph-name="estimated" unicode="&#x212e;" horiz-adv-x="2000" 
d="M484 338q0 -42 6 -78.5t20.5 -68t38.5 -58.5t59 -49q85 -54 184 -82.5t208 -28.5q94 0 181.5 21t164.5 60.5t141.5 97t112.5 130.5l68 -53q-54 -81 -126.5 -144.5t-158 -107.5t-182.5 -67t-201 -23q-167 0 -313.5 58.5t-256.5 165.5t-173.5 256.5t-63.5 332.5t63.5 332.5
t173.5 256.5t256.5 165.5t313.5 58.5q111 0 213.5 -26.5t192.5 -76t163.5 -121t126.5 -162t82 -198t29 -229.5v-22q0 -10 -2 -21h-1321v-319zM1527 743v309q0 83 -26 145.5t-94 108.5q-88 59 -190.5 90t-216.5 31q-109 0 -208 -29t-184 -82q-71 -44 -97.5 -107.5
t-26.5 -146.5v-319h1043z" />
    <glyph glyph-name="uni214D" unicode="&#x214d;" horiz-adv-x="1777" 
d="M795 683h-168l-47 146h-265l-47 -146h-166l253 717h187zM534 973l-87 268l-86 -268h173zM1451 426q104 -18 159.5 -68.5t55.5 -135.5q0 -60 -23.5 -104t-64 -73.5t-93.5 -44t-113 -14.5q-88 0 -162.5 22.5t-127.5 64.5l79 129q38 -28 90 -48.5t119 -20.5q54 0 89.5 18
t35.5 54q0 32 -32 48t-98 27l-45 7q-113 17 -165.5 72.5t-52.5 141.5q0 51 20.5 92.5t57.5 71t89 45.5t114 16q85 0 146.5 -19t119.5 -54l-70 -131q-36 23 -83.5 40t-104.5 17q-53 0 -86 -18.5t-33 -50.5q0 -35 37.5 -50.5t100.5 -26.5zM651 0h-182l804 1400h182z" />
    <glyph glyph-name="uni2150" unicode="&#x2150;" horiz-adv-x="1627" 
d="M403 0h-182l804 1400h182zM1504 660l-294 -660h-179l295 640h-345v149h523v-129zM373 610h-155v583l-179 -72v155l334 135v-801z" />
    <glyph glyph-name="uni2151" unicode="&#x2151;" horiz-adv-x="1656" 
d="M403 0h-182l804 1400h182zM1248 801q60 0 112 -19.5t90.5 -54.5t60.5 -83.5t22 -106.5q0 -48 -16 -94.5t-48 -99.5l-206 -343h-182l180 277q-8 -1 -17 -1.5t-18 -0.5q-59 0 -107.5 20t-83 54.5t-54 82t-19.5 102.5q0 58 22 107.5t60.5 84.5t90.5 55t113 20zM1247 411
q27 0 50 9t39.5 25.5t26 39.5t9.5 50t-9.5 50t-26 39.5t-39 25.5t-49.5 9t-50 -9t-39.5 -25.5t-26 -39t-9.5 -50.5q0 -27 9.5 -50t26 -39.5t39 -25.5t49.5 -9zM373 610h-155v583l-179 -72v155l334 135v-801z" />
    <glyph glyph-name="uni2152" unicode="&#x2152;" horiz-adv-x="2256" 
d="M403 0h-182l804 1400h182zM1300 0h-155v583l-179 -72v155l334 135v-801zM1817 801q68 0 126 -26.5t100.5 -78.5t66.5 -127.5t24 -173.5t-24 -174t-66.5 -128t-100.5 -78.5t-126 -26.5t-126 26.5t-100.5 78.5t-66.5 128t-24 174t24 173.5t66.5 127.5t100.5 78.5t126 26.5z
M1817 650q-33 0 -61.5 -16t-49.5 -48t-32.5 -79.5t-11.5 -111.5q0 -128 44 -191.5t111 -63.5t111 63.5t44 191.5q0 64 -11.5 111.5t-32.5 79.5t-49.5 48t-61.5 16zM373 610h-155v583l-179 -72v155l334 135v-801z" />
    <glyph glyph-name="onethird" unicode="&#x2153;" horiz-adv-x="1610" 
d="M403 0h-182l804 1400h182zM1358 398q60 -24 94.5 -70.5t34.5 -109.5q0 -59 -23.5 -102t-63 -71.5t-90.5 -42.5t-105 -14q-81 0 -146 27t-108 77l88 107q31 -32 71.5 -49.5t86.5 -17.5q26 0 49 6t40.5 18.5t28 31.5t10.5 45q0 23 -11 40.5t-30 29.5t-44 18t-53 6h-87v142
h88q53 0 88 24t35 70q0 44 -32.5 68.5t-86.5 24.5q-52 0 -90 -21.5t-62 -50.5l-84 111q40 47 99.5 76.5t147.5 29.5q59 0 108.5 -16t85 -45.5t55.5 -70.5t20 -91q0 -63 -30 -108.5t-84 -71.5zM373 610h-155v583l-179 -72v155l334 135v-801z" />
    <glyph glyph-name="twothirds" unicode="&#x2154;" horiz-adv-x="1683" 
d="M544 0h-182l804 1400h182zM1500 398q60 -24 94.5 -70.5t34.5 -109.5q0 -59 -23.5 -102t-63 -71.5t-90.5 -42.5t-105 -14q-81 0 -146 27t-108 77l88 107q31 -32 71.5 -49.5t86.5 -17.5q26 0 49 6t40.5 18.5t28 31.5t10.5 45q0 23 -11 40.5t-30 29.5t-44 18t-53 6h-87v142
h88q53 0 88 24t35 70q0 44 -32.5 68.5t-86.5 24.5q-52 0 -90 -21.5t-62 -50.5l-84 111q40 47 99.5 76.5t147.5 29.5q59 0 108.5 -16t85 -45.5t55.5 -70.5t20 -91q0 -63 -30 -108.5t-84 -71.5zM50 1283q16 21 39.5 43.5t55 41.5t71.5 31t91 12q60 0 107.5 -18t80.5 -50.5
t51 -78.5t18 -102q0 -36 -7.5 -67.5t-22 -60.5t-36.5 -58t-51 -59l-151 -159h284v-148h-495v125l260 280q28 31 44 64t16 68q0 49 -30.5 80.5t-82.5 31.5q-51 0 -86 -24.5t-63 -56.5z" />
    <glyph glyph-name="uni2155" unicode="&#x2155;" horiz-adv-x="1624" 
d="M403 0h-182l804 1400h182zM1459 644h-293l-4 -154h66q64 0 114.5 -17t86 -48.5t54 -75t18.5 -95.5q0 -61 -21 -110t-58.5 -83.5t-89.5 -53.5t-114 -19q-82 0 -147 27.5t-109 72.5l81 114q28 -27 73.5 -47.5t96.5 -20.5q62 0 94.5 29.5t32.5 80.5q0 45 -34.5 75t-114.5 30
h-170l11 440h427v-145zM373 610h-155v583l-179 -72v155l334 135v-801z" />
    <glyph glyph-name="uni2156" unicode="&#x2156;" horiz-adv-x="1697" 
d="M544 0h-182l804 1400h182zM1601 644h-293l-4 -154h66q64 0 114.5 -17t86 -48.5t54 -75t18.5 -95.5q0 -61 -21 -110t-58.5 -83.5t-89.5 -53.5t-114 -19q-82 0 -147 27.5t-109 72.5l81 114q28 -27 73.5 -47.5t96.5 -20.5q62 0 94.5 29.5t32.5 80.5q0 45 -34.5 75t-114.5 30
h-170l11 440h427v-145zM50 1283q16 21 39.5 43.5t55 41.5t71.5 31t91 12q60 0 107.5 -18t80.5 -50.5t51 -78.5t18 -102q0 -36 -7.5 -67.5t-22 -60.5t-36.5 -58t-51 -59l-151 -159h284v-148h-495v125l260 280q28 31 44 64t16 68q0 49 -30.5 80.5t-82.5 31.5q-51 0 -86 -24.5
t-63 -56.5z" />
    <glyph glyph-name="uni2157" unicode="&#x2157;" horiz-adv-x="1693" 
d="M528 0h-182l804 1400h182zM1585 644h-293l-4 -154h66q64 0 114.5 -17t86 -48.5t54 -75t18.5 -95.5q0 -61 -21 -110t-58.5 -83.5t-89.5 -53.5t-114 -19q-82 0 -147 27.5t-109 72.5l81 114q28 -27 73.5 -47.5t96.5 -20.5q62 0 94.5 29.5t32.5 80.5q0 45 -34.5 75t-114.5 30
h-170l11 440h427v-145zM446 1008q60 -24 94.5 -70.5t34.5 -109.5q0 -59 -23.5 -102t-63 -71.5t-90.5 -42.5t-105 -14q-81 0 -146 27t-108 77l88 107q31 -32 71.5 -49.5t86.5 -17.5q26 0 49 6t40.5 18.5t28 31.5t10.5 45q0 23 -11 40.5t-30 29.5t-44 18t-53 6h-87v142h88
q53 0 88 24t35 70q0 44 -32.5 68.5t-86.5 24.5q-52 0 -90 -21.5t-62 -50.5l-84 111q40 47 99.5 76.5t147.5 29.5q59 0 108.5 -16t85 -45.5t55.5 -70.5t20 -91q0 -63 -30 -108.5t-84 -71.5z" />
    <glyph glyph-name="uni2158" unicode="&#x2158;" horiz-adv-x="1664" 
d="M535 0h-182l804 1400h182zM1592 644h-293l-4 -154h66q64 0 114.5 -17t86 -48.5t54 -75t18.5 -95.5q0 -61 -21 -110t-58.5 -83.5t-89.5 -53.5t-114 -19q-82 0 -147 27.5t-109 72.5l81 114q28 -27 73.5 -47.5t96.5 -20.5q62 0 94.5 29.5t32.5 80.5q0 45 -34.5 75t-114.5 30
h-170l11 440h427v-145zM615 753h-95v-143h-153v143h-336v114l243 532h168l-232 -505h157v209h153v-209h95v-141z" />
    <glyph glyph-name="uni2159" unicode="&#x2159;" horiz-adv-x="1585" 
d="M403 0h-182l804 1400h182zM1198 514q58 0 107 -20t83.5 -54.5t54 -81.5t19.5 -102q0 -59 -22 -108t-60.5 -84.5t-90.5 -55.5t-113 -20q-60 0 -112 19.5t-90.5 54.5t-60.5 83.5t-22 106.5q0 48 16 94.5t48 99.5l206 343h181l-179 -278q16 3 35 3zM1176 130q54 0 89 34.5
t35 89.5t-35 89.5t-89 34.5t-89 -34t-35 -90q0 -27 9.5 -50t26 -39.5t39 -25.5t49.5 -9zM373 610h-155v583l-179 -72v155l334 135v-801z" />
    <glyph glyph-name="uni215A" unicode="&#x215a;" horiz-adv-x="1669" 
d="M541 0h-182l804 1400h182zM1336 514q58 0 107 -20t83.5 -54.5t54 -81.5t19.5 -102q0 -59 -22 -108t-60.5 -84.5t-90.5 -55.5t-113 -20q-60 0 -112 19.5t-90.5 54.5t-60.5 83.5t-22 106.5q0 48 16 94.5t48 99.5l206 343h181l-179 -278q16 3 35 3zM1314 130q54 0 89 34.5
t35 89.5t-35 89.5t-89 34.5t-89 -34t-35 -90q0 -27 9.5 -50t26 -39.5t39 -25.5t49.5 -9zM547 1254h-293l-4 -154h66q64 0 114.5 -17t86 -48.5t54 -75t18.5 -95.5q0 -61 -21 -110t-58.5 -83.5t-89.5 -53.5t-114 -19q-82 0 -147 27.5t-109 72.5l81 114q28 -27 73.5 -47.5
t96.5 -20.5q62 0 94.5 29.5t32.5 80.5q0 45 -34.5 75t-114.5 30h-170l11 440h427v-145z" />
    <glyph glyph-name="oneeighth" unicode="&#x215b;" horiz-adv-x="1667" 
d="M403 0h-182l804 1400h182zM1410 399q28 -11 52.5 -27.5t42.5 -39.5t28.5 -52t10.5 -66q0 -54 -23.5 -96t-63 -71t-93 -44t-113.5 -15t-113.5 15t-93.5 44t-63 71t-23 96q0 37 10.5 66t28.5 52t42.5 39.5t52.5 27.5q-49 23 -82 66.5t-33 111.5q0 53 21.5 94.5t59 70.5
t87 44t106.5 15t106.5 -15t87 -44t59 -70.5t21.5 -94.5q0 -68 -33 -111.5t-82 -66.5zM1251 662q-47 0 -80 -25.5t-33 -74.5q0 -24 9 -42t24.5 -30.5t36 -19t43.5 -6.5t43.5 6.5t36 19t24.5 30.5t9 42q0 49 -33 74.5t-80 25.5zM1251 126q26 0 49 7t40.5 20.5t27.5 33t10 45.5
q0 25 -10 44t-27.5 32t-40.5 19.5t-49 6.5t-49.5 -6.5t-40.5 -19.5t-27 -32t-10 -44q0 -26 10 -45.5t27 -33t40.5 -20.5t49.5 -7zM373 610h-155v583l-179 -72v155l334 135v-801z" />
    <glyph glyph-name="threeeighths" unicode="&#x215c;" horiz-adv-x="1735" 
d="M528 0h-182l804 1400h182zM1536 399q28 -11 52.5 -27.5t42.5 -39.5t28.5 -52t10.5 -66q0 -54 -23.5 -96t-63 -71t-93 -44t-113.5 -15t-113.5 15t-93.5 44t-63 71t-23 96q0 37 10.5 66t28.5 52t42.5 39.5t52.5 27.5q-49 23 -82 66.5t-33 111.5q0 53 21.5 94.5t59 70.5
t87 44t106.5 15t106.5 -15t87 -44t59 -70.5t21.5 -94.5q0 -68 -33 -111.5t-82 -66.5zM1377 662q-47 0 -80 -25.5t-33 -74.5q0 -24 9 -42t24.5 -30.5t36 -19t43.5 -6.5t43.5 6.5t36 19t24.5 30.5t9 42q0 49 -33 74.5t-80 25.5zM1377 126q26 0 49 7t40.5 20.5t27.5 33t10 45.5
q0 25 -10 44t-27.5 32t-40.5 19.5t-49 6.5t-49.5 -6.5t-40.5 -19.5t-27 -32t-10 -44q0 -26 10 -45.5t27 -33t40.5 -20.5t49.5 -7zM446 1008q60 -24 94.5 -70.5t34.5 -109.5q0 -59 -23.5 -102t-63 -71.5t-90.5 -42.5t-105 -14q-81 0 -146 27t-108 77l88 107
q31 -32 71.5 -49.5t86.5 -17.5q26 0 49 6t40.5 18.5t28 31.5t10.5 45q0 23 -11 40.5t-30 29.5t-44 18t-53 6h-87v142h88q53 0 88 24t35 70q0 44 -32.5 68.5t-86.5 24.5q-52 0 -90 -21.5t-62 -50.5l-84 111q40 47 99.5 76.5t147.5 29.5q59 0 108.5 -16t85 -45.5t55.5 -70.5
t20 -91q0 -63 -30 -108.5t-84 -71.5z" />
    <glyph glyph-name="fiveeighths" unicode="&#x215d;" horiz-adv-x="1751" 
d="M541 0h-182l804 1400h182zM1548 399q28 -11 52.5 -27.5t42.5 -39.5t28.5 -52t10.5 -66q0 -54 -23.5 -96t-63 -71t-93 -44t-113.5 -15t-113.5 15t-93.5 44t-63 71t-23 96q0 37 10.5 66t28.5 52t42.5 39.5t52.5 27.5q-49 23 -82 66.5t-33 111.5q0 53 21.5 94.5t59 70.5
t87 44t106.5 15t106.5 -15t87 -44t59 -70.5t21.5 -94.5q0 -68 -33 -111.5t-82 -66.5zM1389 662q-47 0 -80 -25.5t-33 -74.5q0 -24 9 -42t24.5 -30.5t36 -19t43.5 -6.5t43.5 6.5t36 19t24.5 30.5t9 42q0 49 -33 74.5t-80 25.5zM1389 126q26 0 49 7t40.5 20.5t27.5 33t10 45.5
q0 25 -10 44t-27.5 32t-40.5 19.5t-49 6.5t-49.5 -6.5t-40.5 -19.5t-27 -32t-10 -44q0 -26 10 -45.5t27 -33t40.5 -20.5t49.5 -7zM547 1254h-293l-4 -154h66q64 0 114.5 -17t86 -48.5t54 -75t18.5 -95.5q0 -61 -21 -110t-58.5 -83.5t-89.5 -53.5t-114 -19q-82 0 -147 27.5
t-109 72.5l81 114q28 -27 73.5 -47.5t96.5 -20.5q62 0 94.5 29.5t32.5 80.5q0 45 -34.5 75t-114.5 30h-170l11 440h427v-145z" />
    <glyph glyph-name="seveneighths" unicode="&#x215e;" horiz-adv-x="1572" 
d="M392 0h-182l804 1400h182zM1399 399q28 -11 52.5 -27.5t42.5 -39.5t28.5 -52t10.5 -66q0 -54 -23.5 -96t-63 -71t-93 -44t-113.5 -15t-113.5 15t-93.5 44t-63 71t-23 96q0 37 10.5 66t28.5 52t42.5 39.5t52.5 27.5q-49 23 -82 66.5t-33 111.5q0 53 21.5 94.5t59 70.5
t87 44t106.5 15t106.5 -15t87 -44t59 -70.5t21.5 -94.5q0 -68 -33 -111.5t-82 -66.5zM1240 662q-47 0 -80 -25.5t-33 -74.5q0 -24 9 -42t24.5 -30.5t36 -19t43.5 -6.5t43.5 6.5t36 19t24.5 30.5t9 42q0 49 -33 74.5t-80 25.5zM1240 126q26 0 49 7t40.5 20.5t27.5 33t10 45.5
q0 25 -10 44t-27.5 32t-40.5 19.5t-49 6.5t-49.5 -6.5t-40.5 -19.5t-27 -32t-10 -44q0 -26 10 -45.5t27 -33t40.5 -20.5t49.5 -7zM569 1270l-294 -660h-179l295 640h-345v149h523v-129z" />
    <glyph glyph-name="uni215F" unicode="&#x215f;" horiz-adv-x="1330" 
d="M403 0h-182l804 1400h182zM373 610h-155v583l-179 -72v155l334 135v-801z" />
    <glyph glyph-name="uni2189" unicode="&#x2189;" horiz-adv-x="1795" 
d="M633 0h-182l804 1400h182zM1589 398q60 -24 94.5 -70.5t34.5 -109.5q0 -59 -23.5 -102t-63 -71.5t-90.5 -42.5t-105 -14q-81 0 -146 27t-108 77l88 107q31 -32 71.5 -49.5t86.5 -17.5q26 0 49 6t40.5 18.5t28 31.5t10.5 45q0 23 -11 40.5t-30 29.5t-44 18t-53 6h-87v142
h88q53 0 88 24t35 70q0 44 -32.5 68.5t-86.5 24.5q-52 0 -90 -21.5t-62 -50.5l-84 111q40 47 99.5 76.5t147.5 29.5q59 0 108.5 -16t85 -45.5t55.5 -70.5t20 -91q0 -63 -30 -108.5t-84 -71.5zM394 1411q68 0 126 -26.5t100.5 -78.5t66.5 -127.5t24 -173.5t-24 -174
t-66.5 -128t-100.5 -78.5t-126 -26.5t-126 26.5t-100.5 78.5t-66.5 128t-24 174t24 173.5t66.5 127.5t100.5 78.5t126 26.5zM394 1260q-33 0 -61.5 -16t-49.5 -48t-32.5 -79.5t-11.5 -111.5q0 -128 44 -191.5t111 -63.5t111 63.5t44 191.5q0 64 -11.5 111.5t-32.5 79.5
t-49.5 48t-61.5 16z" />
    <glyph glyph-name="arrowleft" unicode="&#x2190;" horiz-adv-x="1756" 
d="M620 570q-22 0 -46 0.5t-51.5 1.5t-60.5 3q51 -42 97 -87.5t87 -89.5l202 -215l-132 -120l-558 596l558 597l132 -120l-202 -216q-41 -44 -87 -89t-97 -88q33 2 60.5 3.5t51.5 2t46 0.5h979v-179h-979z" />
    <glyph glyph-name="arrowup" unicode="&#x2191;" horiz-adv-x="1756" 
d="M788 953q0 23 0.5 47t2 51t3.5 60q-43 -51 -88 -96.5t-89 -87.5l-215 -202l-121 133l597 557l596 -557l-120 -133l-215 202q-44 42 -89.5 87.5t-87.5 96.5q2 -33 3.5 -60t2 -51t0.5 -47v-978h-180v978z" />
    <glyph glyph-name="arrowright" unicode="&#x2192;" horiz-adv-x="1756" 
d="M1137 749q22 0 46 -0.5t51 -2t60 -3.5q-50 43 -96 88t-88 89l-202 215l133 121l558 -597l-558 -597l-133 121l202 215q42 44 88 89.5t96 87.5q-33 -2 -60 -3.5t-51 -2t-46 -0.5h-979v180h979z" />
    <glyph glyph-name="arrowdown" unicode="&#x2193;" horiz-adv-x="1756" 
d="M968 436q0 -22 -0.5 -46t-2 -51.5t-3.5 -60.5q42 51 87.5 96.5t89.5 87.5l215 202l120 -132l-596 -558l-597 558l121 133l215 -203q44 -42 89 -87.5t88 -96.5q-2 33 -3.5 60.5t-2 51.5t-0.5 46v979h180v-979z" />
    <glyph glyph-name="uni2196" unicode="&#x2196;" horiz-adv-x="1756" 
d="M645 755q-17 16 -32.5 32t-32 33.5t-34.5 37.5t-40 45q5 -66 5.5 -130.5t-1.5 -124.5l-9 -295l-178 9l28 816l816 28l8 -180l-295 -9q-60 -2 -124.5 -1t-130.5 6q25 -22 45 -40t37.5 -34.5t33 -32.5t31.5 -32l660 -660l-128 -127z" />
    <glyph glyph-name="uni2197" unicode="&#x2197;" horiz-adv-x="1756" 
d="M992 904q16 16 33.5 32.5t37.5 34.5t45 40q-66 -5 -130.5 -5.5t-124.5 1.5l-296 9l9 178l816 -27l28 -816l-179 -9l-9 296q-2 60 -1.5 124t6.5 130q-22 -25 -40.5 -45t-35 -37t-32.5 -33l-692 -692l-127 127z" />
    <glyph glyph-name="uni2198" unicode="&#x2198;" horiz-adv-x="1755" 
d="M1087 575q33 -33 64.5 -66t75.5 -82q-5 66 -6 130.5t1 124.5l9 295l179 -8l-27 -817l-817 -27l-8 179l295 9q60 2 124.5 1t130.5 -6q-25 22 -45 40t-37.5 34.5t-33.5 32t-32 32.5l-660 660l128 127z" />
    <glyph glyph-name="uni2199" unicode="&#x2199;" horiz-adv-x="1756" 
d="M773 435q-17 -17 -33 -32.5t-33 -32t-37 -34.5t-45 -40q66 5 131 6t125 -1l295 -9l-9 -179l-816 27l-28 817l179 8l10 -295q2 -60 1 -124.5t-7 -130.5q22 25 40.5 45t35 37t31.5 32l693 693l127 -127z" />
    <glyph glyph-name="partialdiff" unicode="&#x2202;" horiz-adv-x="1066" 
d="M342 1454q157 -73 277.5 -182.5t202 -239t123 -270.5t41.5 -276q0 -110 -34 -203t-94.5 -160.5t-145 -105.5t-186.5 -38q-99 0 -182.5 36t-144.5 100t-95 152t-34 193t31.5 193.5t87 153t131 101t163.5 36.5q69 0 128.5 -26t107.5 -74q-59 134 -176 247.5t-310 215.5z
M529 168q55 0 102 21t81 59.5t53 93t19 120.5q0 68 -19 123t-53 94t-81 60t-102 21q-56 0 -102.5 -21t-80.5 -60t-53 -94t-19 -123q0 -66 19 -120.5t53 -93t80.5 -59.5t102.5 -21z" />
    <glyph glyph-name="Delta" unicode="&#x2206;" horiz-adv-x="1252" 
d="M1190 172v-172h-1128v172l436 1229h257zM295 203h661l-330 947z" />
    <glyph glyph-name="product" unicode="&#x220f;" horiz-adv-x="1312" 
d="M1157 -265h-215v1462h-572v-1462h-215v1665h1002v-1665z" />
    <glyph glyph-name="summation" unicode="&#x2211;" horiz-adv-x="1146" 
d="M1051 1197h-662l442 -564v-112l-447 -583h669v-203h-960v172l516 666l-513 655v172h955v-203z" />
    <glyph glyph-name="minus" unicode="&#x2212;" horiz-adv-x="1104" 
d="M946 441h-790v179h790v-179z" />
    <glyph glyph-name="uni2219" unicode="&#x2219;" horiz-adv-x="1104" 
d="M552 786q52 0 99 -20t81.5 -54.5t55 -81t20.5 -100.5q0 -53 -20.5 -99.5t-55 -81t-81.5 -54.5t-99 -20q-53 0 -100 20t-81.5 54.5t-54.5 81t-20 99.5q0 54 20 100.5t54.5 81t81.5 54.5t100 20z" />
    <glyph glyph-name="radical" unicode="&#x221a;" horiz-adv-x="1153" 
d="M624 -265h-259l-346 1000h228l247 -739l416 1444h220z" />
    <glyph glyph-name="infinity" unicode="&#x221e;" horiz-adv-x="1494" 
d="M1099 911q73 0 137.5 -27t112.5 -77.5t75.5 -122.5t27.5 -162t-27.5 -162t-75.5 -122.5t-112.5 -77.5t-137.5 -27q-55 0 -101.5 18t-88.5 50.5t-81.5 78t-80.5 100.5q-41 -55 -80 -100.5t-81 -78t-88.5 -50.5t-101.5 -18q-73 0 -137.5 27t-112.5 77.5t-76 122.5t-28 162
t28 162t76 122.5t112.5 77.5t137.5 27q55 0 101.5 -18t88.5 -50.5t81 -78t80 -100.5q41 55 80.5 100.5t81.5 78t88.5 50.5t101.5 18zM398 310q29 0 54.5 12.5t53.5 38.5t60 66t73 95q-41 55 -73 95t-60 66.5t-53.5 39t-54.5 12.5q-37 0 -68 -14t-53.5 -41.5t-35.5 -67
t-13 -90.5t13 -90.5t35.5 -66.5t53.5 -41t68 -14zM1097 310q37 0 68 14t53.5 41t35 66.5t12.5 90.5t-12.5 90.5t-35 67t-53.5 41.5t-68 14q-29 0 -54.5 -12.5t-53.5 -39t-60 -66.5t-73 -95q41 -55 73 -95t60 -66t53.5 -38.5t54.5 -12.5z" />
    <glyph glyph-name="integral" unicode="&#x222b;" horiz-adv-x="614" 
d="M560 1219q-26 10 -56 10q-62 0 -91.5 -38.5t-29.5 -110.5v-1027q0 -77 -19 -139.5t-56.5 -107.5t-93 -69.5t-129.5 -24.5q-41 0 -74.5 6t-60.5 16l54 180q14 -5 27.5 -7.5t29.5 -2.5q61 0 91 38.5t30 111.5v1027q0 76 19 139t56 107.5t92.5 69t129.5 24.5q42 0 75 -6
t61 -16z" />
    <glyph glyph-name="congruent" unicode="&#x2245;" horiz-adv-x="1104" 
d="M946 630h-788v175h788v-175zM946 257h-788v176h788v-176zM965 1100q-52 -69 -113.5 -101.5t-142.5 -32.5q-60 0 -102 12t-77 27t-68.5 27t-77.5 12q-36 0 -69 -18.5t-69 -56.5l-112 117q52 69 113.5 101t142.5 32q61 0 103 -12t76.5 -26.5t68 -26.5t77.5 -12
q37 0 69.5 18.5t68.5 56.5z" />
    <glyph glyph-name="approxequal" unicode="&#x2248;" horiz-adv-x="1104" 
d="M967 721q-52 -69 -113.5 -101.5t-142.5 -32.5q-60 0 -102 12t-77 27t-68.5 27t-77.5 12q-36 0 -69 -18.5t-69 -56.5l-112 117q52 69 113.5 101t142.5 32q61 0 103 -12t76.5 -26.5t68 -26.5t77.5 -12q37 0 69.5 18.5t68.5 56.5zM967 354q-52 -69 -113.5 -101.5
t-142.5 -32.5q-60 0 -102 12t-77 27t-68.5 27t-77.5 12q-36 0 -69 -18.5t-69 -56.5l-112 117q52 69 113.5 101t142.5 32q61 0 103 -12t76.5 -26.5t68 -26.5t77.5 -12q37 0 69.5 18.5t68.5 56.5z" />
    <glyph glyph-name="uni2259" unicode="&#x2259;" horiz-adv-x="1104" 
d="M946 630h-788v175h788v-175zM946 257h-788v176h788v-176zM657 966l-131 169l-130 -169h-194l204 303h241l204 -303h-194z" />
    <glyph glyph-name="notequal" unicode="&#x2260;" horiz-adv-x="1104" 
d="M947 257h-448l-92 -215h-177l92 215h-163v176h239l85 197h-324v175h400l92 214h176l-92 -214h212v-175h-288l-84 -197h372v-176z" />
    <glyph glyph-name="lessequal" unicode="&#x2264;" horiz-adv-x="1104" 
d="M903 1058v-201l-508 -200l508 -199v-201l-722 310v179zM903 22h-722v175h722v-175z" />
    <glyph glyph-name="greaterequal" unicode="&#x2265;" horiz-adv-x="1104" 
d="M923 746v-179l-722 -310v201l508 199l-508 200v201zM201 197h722v-175h-722v175z" />
    <glyph glyph-name="dotmath" unicode="&#x22c5;" horiz-adv-x="1104" 
d="M552 682q31 0 58.5 -12t48 -33t32.5 -48.5t12 -58.5t-12 -58.5t-32.5 -48.5t-48 -33t-58.5 -12t-58.5 12t-48.5 33t-33 49t-12 59t12 58.5t33 48t48.5 32.5t58.5 12z" />
    <glyph glyph-name="uni2300" unicode="&#x2300;" horiz-adv-x="1298" 
d="M1035 762q27 -53 42 -113t15 -126q0 -102 -34 -189t-93.5 -150.5t-140.5 -100t-175 -36.5q-84 0 -156.5 28.5t-129.5 79.5l-101 -91l-107 128l107 93q-28 52 -42.5 112t-14.5 126q0 101 34 188t94 151.5t141 101.5t175 37q83 0 156 -29t130 -80l100 90l108 -127zM649 829
q-56 0 -105 -22.5t-85.5 -63t-57.5 -97t-21 -123.5t22 -125l408 372q-34 29 -74.5 44t-86.5 15zM649 218q55 0 104 22.5t85.5 63t57.5 96.5t21 123t-22 125l-408 -372q34 -28 75 -43t87 -15z" />
    <glyph glyph-name="uni2460" unicode="&#x2460;" horiz-adv-x="2045" 
d="M1023 1595q125 0 240.5 -32t216 -90t183 -140t141.5 -181t91 -213.5t32 -237.5t-32 -237.5t-91 -214t-141.5 -181.5t-183 -140.5t-216 -90.5t-240.5 -32t-240.5 32t-216 90.5t-183 140.5t-141.5 181.5t-91 214t-32 237.5t32 237.5t91 213.5t141.5 181t183 140t216 90
t240.5 32zM1023 1399q-97 0 -186.5 -25t-167.5 -70t-142 -108.5t-109.5 -141.5t-70.5 -167t-25 -186t25 -186.5t70.5 -167.5t109.5 -141.5t142 -109t167.5 -70.5t186.5 -25t186.5 25t167.5 70.5t142 109t109.5 141.5t70.5 167.5t25 186.5t-25 186t-70.5 167t-109.5 141.5
t-142 108.5t-167.5 70t-186.5 25zM1152 287h-176v618l-228 -86v172l404 155v-859z" />
    <glyph glyph-name="uni2461" unicode="&#x2461;" horiz-adv-x="2045" 
d="M1023 1595q125 0 240.5 -32t216 -90t183 -140t141.5 -181t91 -213.5t32 -237.5t-32 -237.5t-91 -214t-141.5 -181.5t-183 -140.5t-216 -90.5t-240.5 -32t-240.5 32t-216 90.5t-183 140.5t-141.5 181.5t-91 214t-32 237.5t32 237.5t91 213.5t141.5 181t183 140t216 90
t240.5 32zM1023 1399q-97 0 -186.5 -25t-167.5 -70t-142 -108.5t-109.5 -141.5t-70.5 -167t-25 -186t25 -186.5t70.5 -167.5t109.5 -141.5t142 -109t167.5 -70.5t186.5 -25t186.5 25t167.5 70.5t142 109t109.5 141.5t70.5 167.5t25 186.5t-25 186t-70.5 167t-109.5 141.5
t-142 108.5t-167.5 70t-186.5 25zM714 1000q19 24 46.5 50.5t65 48t86 35.5t109.5 14q68 0 123 -19.5t94 -55.5t60 -86t21 -111q0 -39 -10 -73.5t-27.5 -65.5t-42.5 -60t-55 -57l-180 -171h336v-162h-587v137l311 296q34 32 53 66.5t19 73.5q0 53 -36 86.5t-96 33.5
q-31 0 -56.5 -7.5t-47 -20.5t-40 -29.5t-34.5 -34.5z" />
    <glyph glyph-name="uni2462" unicode="&#x2462;" horiz-adv-x="2045" 
d="M1023 1595q125 0 240.5 -32t216 -90t183 -140t141.5 -181t91 -213.5t32 -237.5t-32 -237.5t-91 -214t-141.5 -181.5t-183 -140.5t-216 -90.5t-240.5 -32t-240.5 32t-216 90.5t-183 140.5t-141.5 181.5t-91 214t-32 237.5t32 237.5t91 213.5t141.5 181t183 140t216 90
t240.5 32zM1023 1q97 0 186.5 25t167.5 70.5t142 109t109.5 141.5t70.5 167.5t25 186.5t-25 186t-70.5 167t-109.5 141.5t-142 108.5t-167.5 70t-186.5 25t-186.5 -25t-167.5 -70t-142 -108.5t-109.5 -141.5t-70.5 -167t-25 -186t25 -186.5t70.5 -167.5t109.5 -141.5
t142 -109t167.5 -70.5t186.5 -25zM1194 713q72 -25 112.5 -74t40.5 -119q0 -63 -27.5 -109.5t-73 -77.5t-105 -46t-122.5 -15q-97 0 -175 31.5t-129 88.5l100 114q38 -38 88.5 -58.5t107.5 -20.5q31 0 59 6.5t49 19.5t33.5 32.5t12.5 46.5q0 26 -13 46.5t-36 34t-53.5 20.5
t-65.5 7h-105v149h107q31 0 58.5 6.5t47.5 20t31.5 32.5t11.5 45q0 47 -40 73t-103 26t-109 -25t-75 -59l-102 114q48 55 119.5 90.5t174.5 35.5q70 0 128 -17.5t100 -49t65 -76t23 -98.5q0 -70 -36 -119t-99 -75z" />
    <glyph glyph-name="uni2463" unicode="&#x2463;" horiz-adv-x="2045" 
d="M1023 1595q125 0 240.5 -32t216 -90t183 -140t141.5 -181t91 -213.5t32 -237.5t-32 -237.5t-91 -214t-141.5 -181.5t-183 -140.5t-216 -90.5t-240.5 -32t-240.5 32t-216 90.5t-183 140.5t-141.5 181.5t-91 214t-32 237.5t32 237.5t91 213.5t141.5 181t183 140t216 90
t240.5 32zM1023 1q97 0 186.5 25t167.5 70.5t142 109t109.5 141.5t70.5 167.5t25 186.5t-25 186t-70.5 167t-109.5 141.5t-142 108.5t-167.5 70t-186.5 25t-186.5 -25t-167.5 -70t-142 -108.5t-109.5 -141.5t-70.5 -167t-25 -186t25 -186.5t70.5 -167.5t109.5 -141.5
t142 -109t167.5 -70.5t186.5 -25zM1231 599h119v-161h-119v-151h-175v151h-393v123l293 573h193l-277 -535h184v229h175v-229z" />
    <glyph glyph-name="uni2464" unicode="&#x2464;" horiz-adv-x="2045" 
d="M1023 1595q125 0 240.5 -32t216 -90t183 -140t141.5 -181t91 -213.5t32 -237.5t-32 -237.5t-91 -214t-141.5 -181.5t-183 -140.5t-216 -90.5t-240.5 -32t-240.5 32t-216 90.5t-183 140.5t-141.5 181.5t-91 214t-32 237.5t32 237.5t91 213.5t141.5 181t183 140t216 90
t240.5 32zM1023 1399q-97 0 -186.5 -25t-167.5 -70t-142 -108.5t-109.5 -141.5t-70.5 -167t-25 -186t25 -186.5t70.5 -167.5t109.5 -141.5t142 -109t167.5 -70.5t186.5 -25t186.5 25t167.5 70.5t142 109t109.5 141.5t70.5 167.5t25 186.5t-25 186t-70.5 167t-109.5 141.5
t-142 108.5t-167.5 70t-186.5 25zM1301 973h-353l-5 -160h93q77 0 136 -18.5t98.5 -52t60 -80t20.5 -102.5q0 -66 -24.5 -119.5t-68 -91t-103 -57.5t-129.5 -20q-99 0 -177.5 32.5t-132.5 86.5l89 129q17 -17 41.5 -33t53 -28t60.5 -19.5t65 -7.5q71 0 107 32.5t36 83.5
q0 25 -9.5 45.5t-30.5 35.5t-54.5 23.5t-82.5 8.5h-207l12 473h505v-161z" />
    </font>
</defs>
</svg>
