<?xml version="1.0" encoding="UTF-8"?>
<svg xmlns="http://www.w3.org/2000/svg" xmlns:xlink="http://www.w3.org/1999/xlink" version="1.2" >
<font id="MarkWebPro-Medium W01 Regular">
<font-face  font-family="MarkWebPro- W01 Regular" units-per-em="2000" ascent="2212" descent="-474" font-style="normal" font-weight="500" font-stretch="normal" cap-height="1400" x-height="958" underline-position="-200" underline-thickness="100" />
<missing-glyph  horiz-adv-x="1209" d="M164 1400 L1045 1400 L1045 0 L164 0 L164 1400 Z M855 190 L855 1210 L354 1210 L354 190 L855 190 Z " />
<glyph glyph-name="uni0000" d="" />
<glyph glyph-name="space" unicode="&#x20;" horiz-adv-x="540" d="" />
<glyph glyph-name="exclam" unicode="&#x21;" horiz-adv-x="530" d="M359 462 L169 462 L135 1400 L393 1400 L359 462 Z M265 325 Q300 325 331.5 311 Q363 297 387 273 Q411 249 425 217.5 Q439 186 439 151 Q439 116 425 84 Q411 52 387 28 Q363 4 331.5 -10.5 Q300 -25 265 -25 Q230 -25 198.5 -10.5 Q167 4 143 28 Q119 52 104.5 84 Q90 116 90 151 Q90 186 104.5 217.5 Q119 249 143 273 Q167 297 198.5 311 Q230 325 265 325 Z " />
<glyph glyph-name="quotedbl" unicode="&#x22;" horiz-adv-x="1112" d="M476 1440 L476 895 L266 895 L266 1440 L476 1440 Z M846 1440 L846 895 L636 895 L636 1440 L846 1440 Z " />
<glyph glyph-name="numbersign" unicode="&#x23;" horiz-adv-x="1480" d="M482 1044 L558 1400 L754 1400 L678 1044 L947 1044 L1023 1400 L1219 1400 L1143 1044 L1366 1044 L1326 858 L1103 858 L1038 549 L1259 549 L1220 363 L998 363 L921 0 L725 0 L802 363 L533 363 L456 0 L260 0 L337 363 L114 363 L154 549 L377 549 L442 858 L219 858 L259 1044 L482 1044 Z M573 549 L842 549 L907 858 L638 858 L573 549 Z " />
<glyph glyph-name="dollar" unicode="&#x24;" horiz-adv-x="1400" d="M816 1571 L816 1382 Q941 1371 1043 1333.5 Q1145 1296 1236 1237 L1126 1061 Q1057 1106 979 1135.5 Q901 1165 816 1176 L816 792 Q901 780 979.5 754.5 Q1058 729 1118 685.5 Q1178 642 1213 578 Q1248 514 1246 424 Q1244 337 1210.5 267.5 Q1177 198 1119 147 Q1061 96 983.5 64 Q906 32 817 20 L817 -181 L623 -181 L623 16 Q559 21 494.5 35 Q430 49 368.5 71 Q307 93 251.5 122.5 Q196 152 151 190 L268 363 Q298 337 337.5 314.5 Q377 292 423 273 Q469 254 519.5 241 Q570 228 622 222 L622 605 L604 608 Q523 620 448.5 645 Q374 670 317 714 Q260 758 226.5 823.5 Q193 889 195 981 Q196 1066 229 1134.5 Q262 1203 319 1253.5 Q376 1304 454 1335.5 Q532 1367 622 1379 L622 1571 L816 1571 Z M1027 413 Q1028 476 972.5 514.5 Q917 553 816 576 L816 227 Q910 244 967.5 291 Q1025 338 1027 413 Z M416 987 Q415 918 466.5 880 Q518 842 622 821 L622 1172 Q528 1155 473 1107 Q418 1059 416 987 Z " />
<glyph glyph-name="percent" unicode="&#x25;" horiz-adv-x="1983" d="M477 1425 Q561 1425 632 1396 Q703 1367 755 1316.5 Q807 1266 836.5 1197 Q866 1128 866 1047 Q866 966 836.5 896.5 Q807 827 755 776 Q703 725 632 696.5 Q561 668 477 668 Q394 668 323.5 696.5 Q253 725 201 776 Q149 827 120 896.5 Q91 966 91 1047 Q91 1128 120 1197 Q149 1266 201 1316.5 Q253 1367 323.5 1396 Q394 1425 477 1425 Z M477 1240 Q436 1240 401.5 1226 Q367 1212 342 1186.5 Q317 1161 302.5 1125.5 Q288 1090 288 1047 Q288 1004 302.5 968 Q317 932 342 906.5 Q367 881 401.5 867 Q436 853 477 853 Q519 853 554 867 Q589 881 614.5 906.5 Q640 932 654.5 968 Q669 1004 669 1047 Q669 1090 654.5 1125.5 Q640 1161 614.5 1186.5 Q589 1212 554 1226 Q519 1240 477 1240 Z M659 0 L440 0 L1323 1400 L1542 1400 L659 0 Z M1503 732 Q1587 732 1658 703 Q1729 674 1781 623.5 Q1833 573 1862.5 504 Q1892 435 1892 354 Q1892 273 1862.5 203.5 Q1833 134 1781 83 Q1729 32 1658 3.5 Q1587 -25 1503 -25 Q1420 -25 1349.5 3.5 Q1279 32 1227 83 Q1175 134 1146 203.5 Q1117 273 1117 354 Q1117 435 1146 504 Q1175 573 1227 623.5 Q1279 674 1349.5 703 Q1420 732 1503 732 Z M1503 547 Q1462 547 1427.5 533 Q1393 519 1368 493.5 Q1343 468 1328.5 432.5 Q1314 397 1314 354 Q1314 311 1328.5 275 Q1343 239 1368 213.5 Q1393 188 1427.5 174 Q1462 160 1503 160 Q1545 160 1580 174 Q1615 188 1640.5 213.5 Q1666 239 1680.5 275 Q1695 311 1695 354 Q1695 397 1680.5 432.5 Q1666 468 1640.5 493.5 Q1615 519 1580 533 Q1545 547 1503 547 Z " />
<glyph glyph-name="ampersand" unicode="&#x26;" horiz-adv-x="1454" d="M1122 0 L948 166 Q910 125 866 90 Q822 55 770 29.5 Q718 4 657 -10.5 Q596 -25 525 -25 Q427 -25 348.5 0 Q270 25 215.5 72 Q161 119 132 188 Q103 257 103 344 Q103 407 123.5 461.5 Q144 516 178 564 Q212 612 257 654 Q302 696 352 734 Q304 782 268.5 824 Q233 866 209.5 907.5 Q186 949 174.5 993.5 Q163 1038 163 1090 Q163 1161 191 1222.5 Q219 1284 269.5 1329 Q320 1374 391.5 1399.5 Q463 1425 550 1425 Q636 1425 707 1401.5 Q778 1378 828.5 1334.5 Q879 1291 907 1230.5 Q935 1170 935 1097 Q935 1038 913 987 Q891 936 854 891 Q817 846 769.5 805 Q722 764 670 726 L929 477 L1122 776 L1292 670 L1115 393 Q1106 378 1096.5 363.5 Q1087 349 1077 334 L1424 0 L1122 0 Z M538 172 Q621 172 683 205 Q745 238 803 304 L495 598 Q460 570 429.5 541 Q399 512 376.5 482 Q354 452 341.5 419.5 Q329 387 329 351 Q329 311 344 278 Q359 245 387 221.5 Q415 198 453 185 Q491 172 538 172 Z M389 1077 Q389 1051 395 1029.5 Q401 1008 417 984 Q433 960 460 931 Q487 902 528 862 Q567 890 600.5 917 Q634 944 658.5 972 Q683 1000 697.5 1028.5 Q712 1057 712 1087 Q712 1154 669.5 1190.5 Q627 1227 550 1227 Q473 1227 431 1187.5 Q389 1148 389 1077 Z " />
<glyph glyph-name="quotesingle" unicode="&#x27;" horiz-adv-x="742" d="M476 1440 L476 895 L266 895 L266 1440 L476 1440 Z " />
<glyph glyph-name="parenleft" unicode="&#x28;" horiz-adv-x="850" d="M774 1248 Q676 1203 599.5 1132.5 Q523 1062 470.5 973 Q418 884 390 781 Q362 678 362 568 Q362 458 390 355 Q418 252 470.5 163 Q523 74 599.5 3.5 Q676 -67 774 -112 L700 -305 Q573 -252 469 -165.5 Q365 -79 291.5 34 Q218 147 177.5 282.5 Q137 418 137 568 Q137 718 177.5 853.5 Q218 989 291.5 1102 Q365 1215 469 1301.5 Q573 1388 700 1441 L774 1248 Z " />
<glyph glyph-name="parenright" unicode="&#x29;" horiz-adv-x="850" d="M76 -110 Q173 -65 250 5.5 Q327 76 379.5 165 Q432 254 460 357 Q488 460 488 570 Q488 680 460 783 Q432 886 379.5 975 Q327 1064 250 1134.5 Q173 1205 76 1250 L150 1443 Q277 1390 381 1303.5 Q485 1217 558.5 1104 Q632 991 672.5 855.5 Q713 720 713 570 Q713 420 672.5 284.5 Q632 149 558.5 36 Q485 -77 381 -163.5 Q277 -250 150 -303 L76 -110 Z " />
<glyph glyph-name="asterisk" unicode="&#x2a;" horiz-adv-x="950" d="M395 1176 L395 1440 L555 1440 L555 1176 L806 1258 L855 1105 L604 1024 L760 810 L630 716 L475 929 L320 716 L190 810 L345 1024 L95 1105 L144 1258 L395 1176 Z " />
<glyph glyph-name="plus" unicode="&#x2b;" horiz-adv-x="1200" d="M503 83 L503 438 L150 438 L150 628 L503 628 L503 983 L697 983 L697 628 L1050 628 L1050 438 L697 438 L697 83 L503 83 Z " />
<glyph glyph-name="comma" unicode="&#x2c;" horiz-adv-x="505" d="M400 271 L280 -274 L100 -274 L155 271 L400 271 Z " />
<glyph glyph-name="hyphen" unicode="&#x2d;" horiz-adv-x="846" d="M713 438 L133 438 L133 628 L713 628 L713 438 Z " />
<glyph glyph-name="period" unicode="&#x2e;" horiz-adv-x="529" d="M265 325 Q300 325 331.5 311 Q363 297 387 273 Q411 249 425 217.5 Q439 186 439 151 Q439 116 425 84 Q411 52 387 28 Q363 4 331.5 -10.5 Q300 -25 265 -25 Q230 -25 198.5 -10.5 Q167 4 143 28 Q119 52 104.5 84 Q90 116 90 151 Q90 186 104.5 217.5 Q119 249 143 273 Q167 297 198.5 311 Q230 325 265 325 Z " />
<glyph glyph-name="slash" unicode="&#x2f;" horiz-adv-x="1007" d="M201 -200 L-30 -200 L819 1540 L1050 1540 L201 -200 Z " />
<glyph glyph-name="zero" unicode="0" horiz-adv-x="1200" d="M604 1424 Q710 1424 806.5 1381.5 Q903 1339 976 1250.5 Q1049 1162 1092 1025.5 Q1135 889 1135 700 Q1135 500 1092 362 Q1049 224 976 138.5 Q903 53 806.5 14.5 Q710 -24 604 -24 Q496 -24 398.5 14.5 Q301 53 226.5 138.5 Q152 224 108 362 Q64 500 64 700 Q64 900 108 1038 Q152 1176 226.5 1262 Q301 1348 398.5 1386 Q496 1424 604 1424 Z M604 1216 Q542 1216 485 1191.5 Q428 1167 384.5 1107.5 Q341 1048 315 948.5 Q289 849 289 700 Q289 551 315 451.5 Q341 352 384.5 292.5 Q428 233 485 208.5 Q542 184 604 184 Q664 184 719.5 208.5 Q775 233 817 292.5 Q859 352 884.5 451.5 Q910 551 910 700 Q910 838 884.5 936 Q859 1034 817 1096 Q775 1158 719.5 1187 Q664 1216 604 1216 Z " />
<glyph glyph-name="one" unicode="1" horiz-adv-x="1200" d="M561 206 L561 1125 L185 990 L185 1211 L778 1422 L778 206 L1114 206 L1114 0 L204 0 L204 206 L561 206 Z " />
<glyph glyph-name="two" unicode="2" horiz-adv-x="1200" d="M118 1190 Q143 1224 180.5 1265 Q218 1306 272 1341 Q326 1376 398 1400 Q470 1424 565 1424 Q674 1424 760 1390.5 Q846 1357 906 1297.5 Q966 1238 997.5 1155.5 Q1029 1073 1029 974 Q1029 908 1012 851.5 Q995 795 968 747 Q941 699 908 658 Q875 617 843 582 L492 206 L1067 206 L1067 0 L171 0 L171 170 L677 708 Q736 771 769 835.5 Q802 900 802 975 Q802 1027 785.5 1071.5 Q769 1116 737.5 1148.5 Q706 1181 661 1199 Q616 1217 559 1217 Q506 1217 464 1204.5 Q422 1192 388.5 1171 Q355 1150 327 1121.5 Q299 1093 273 1062 L118 1190 Z " />
<glyph glyph-name="three" unicode="3" horiz-adv-x="1200" d="M562 1424 Q669 1424 756.5 1395.5 Q844 1367 906.5 1314.5 Q969 1262 1003.5 1188 Q1038 1114 1038 1024 Q1038 912 980 831.5 Q922 751 825 706 Q880 684 925 652 Q970 620 1002.5 579 Q1035 538 1052.5 488 Q1070 438 1070 381 Q1070 279 1028.5 202.5 Q987 126 918 76 Q849 26 759.5 1 Q670 -24 575 -24 Q418 -24 294.5 28.5 Q171 81 93 176 L232 321 Q295 253 384.5 215.5 Q474 178 570 178 Q627 178 677 191 Q727 204 764 230.5 Q801 257 822 297 Q843 337 843 391 Q843 444 819 484 Q795 524 754 551 Q713 578 658 592 Q603 606 540 606 L371 606 L371 805 L539 805 Q596 805 645.5 818 Q695 831 732 856.5 Q769 882 790.5 921 Q812 960 812 1013 Q812 1063 791 1102 Q770 1141 734 1167.5 Q698 1194 650 1208 Q602 1222 548 1222 Q499 1222 456 1209.5 Q413 1197 377.5 1176 Q342 1155 313.5 1127.5 Q285 1100 265 1071 L109 1204 Q139 1251 182.5 1291 Q226 1331 283 1360.5 Q340 1390 409.5 1407 Q479 1424 562 1424 Z " />
<glyph glyph-name="four" unicode="4" horiz-adv-x="1200" d="M914 478 L1128 478 L1128 272 L914 272 L914 0 L697 0 L697 272 L72 272 L72 439 L596 1398 L842 1398 L333 478 L697 478 L697 854 L914 854 L914 478 Z " />
<glyph glyph-name="five" unicode="5" horiz-adv-x="1200" d="M1000 1195 L415 1195 L408 857 L592 857 Q715 857 805.5 822 Q896 787 955 729 Q1014 671 1043 595 Q1072 519 1072 437 Q1072 323 1032 237 Q992 151 924.5 92.5 Q857 34 768 4.5 Q679 -25 581 -25 Q276 -25 94 199 L238 340 Q269 303 309 274 Q349 245 393.5 224.5 Q438 204 485.5 193 Q533 182 580 182 Q648 182 698 202 Q748 222 781 255 Q814 288 830 330.5 Q846 373 846 418 Q846 463 831 505.5 Q816 548 779 580.5 Q742 613 680.5 632.5 Q619 652 525 652 L203 652 L216 1400 L1000 1400 L1000 1195 Z " />
<glyph glyph-name="six" unicode="6" horiz-adv-x="1200" d="M528 892 Q548 897 574.5 901.5 Q601 906 636 906 Q732 906 817.5 870.5 Q903 835 967 773 Q1031 711 1068.5 626 Q1106 541 1106 441 Q1106 341 1067.5 256 Q1029 171 961 108.5 Q893 46 800 11 Q707 -24 598 -24 Q489 -24 396 11 Q303 46 235 108.5 Q167 171 128.5 256 Q90 341 90 441 Q90 534 122 618 Q154 702 216 794 L619 1400 L884 1400 L528 892 Z M598 705 Q538 705 486 685.5 Q434 666 395.5 631.5 Q357 597 335.5 548 Q314 499 314 441 Q314 382 335.5 333.5 Q357 285 395.5 250 Q434 215 486 196 Q538 177 598 177 Q659 177 711 196.5 Q763 216 801 250.5 Q839 285 860.5 333.5 Q882 382 882 441 Q882 499 860.5 548 Q839 597 801 631.5 Q763 666 711 685.5 Q659 705 598 705 Z " />
<glyph glyph-name="seven" unicode="7" horiz-adv-x="1200" d="M1084 1230 L478 0 L225 0 L823 1195 L122 1195 L122 1400 L1084 1400 L1084 1230 Z " />
<glyph glyph-name="eight" unicode="8" horiz-adv-x="1200" d="M600 1424 Q703 1424 794.5 1397 Q886 1370 953.5 1318.5 Q1021 1267 1060.5 1192.5 Q1100 1118 1100 1024 Q1100 963 1083.5 913.5 Q1067 864 1038 825 Q1009 786 969.5 756.5 Q930 727 885 706 Q936 686 981.5 656.5 Q1027 627 1060.5 587 Q1094 547 1113.5 495.5 Q1133 444 1133 380 Q1133 285 1091 210 Q1049 135 976.5 83 Q904 31 807 3.5 Q710 -24 600 -24 Q490 -24 393 3.5 Q296 31 223.5 83 Q151 135 109 210 Q67 285 67 380 Q67 444 86.5 495.5 Q106 547 139.5 587 Q173 627 218 656.5 Q263 686 315 706 Q270 727 230.5 756.5 Q191 786 162 825 Q133 864 116.5 913.5 Q100 963 100 1024 Q100 1118 139.5 1192.5 Q179 1267 246.5 1318.5 Q314 1370 405 1397 Q496 1424 600 1424 Z M600 609 Q538 609 482.5 595 Q427 581 386 553.5 Q345 526 321 485.5 Q297 445 297 392 Q297 339 321 299 Q345 259 386 232 Q427 205 482.5 191 Q538 177 600 177 Q662 177 717 191 Q772 205 813 232 Q854 259 878 299 Q902 339 902 392 Q902 445 878 485.5 Q854 526 813 553.5 Q772 581 717 595 Q662 609 600 609 Z M600 1222 Q544 1222 495 1208.5 Q446 1195 409 1168.5 Q372 1142 351 1103 Q330 1064 330 1013 Q330 960 351 920 Q372 880 409 853 Q446 826 495 812.5 Q544 799 600 799 Q656 799 705.5 812.5 Q755 826 791.5 853 Q828 880 849.5 920 Q871 960 871 1013 Q871 1064 849.5 1103 Q828 1142 791.5 1168.5 Q755 1195 705.5 1208.5 Q656 1222 600 1222 Z " />
<glyph glyph-name="nine" unicode="9" horiz-adv-x="1200" d="M673 508 Q653 502 626.5 498 Q600 494 565 494 Q469 494 383.5 529 Q298 564 234 626.5 Q170 689 132.5 774 Q95 859 95 959 Q95 1059 133.5 1144 Q172 1229 240 1291 Q308 1353 401 1388.5 Q494 1424 603 1424 Q712 1424 805 1388.5 Q898 1353 966 1291 Q1034 1229 1072.5 1144 Q1111 1059 1111 959 Q1111 866 1079 782 Q1047 698 985 606 L582 0 L317 0 L673 508 Z M603 695 Q663 695 715 714.5 Q767 734 805.5 768.5 Q844 803 865.5 851.5 Q887 900 887 959 Q887 1018 865.5 1066.5 Q844 1115 805.5 1150 Q767 1185 715 1204 Q663 1223 603 1223 Q542 1223 490 1203.5 Q438 1184 400 1149.5 Q362 1115 340.5 1066 Q319 1017 319 959 Q319 900 340.5 851.5 Q362 803 400 768.5 Q438 734 490 714.5 Q542 695 603 695 Z " />
<glyph glyph-name="colon" unicode="&#x3a;" horiz-adv-x="529" d="M265 983 Q300 983 331.5 969 Q363 955 387 931 Q411 907 425 875.5 Q439 844 439 809 Q439 774 425 742 Q411 710 387 686 Q363 662 331.5 647.5 Q300 633 265 633 Q230 633 198.5 647.5 Q167 662 143 686 Q119 710 104.5 742 Q90 774 90 809 Q90 844 104.5 875.5 Q119 907 143 931 Q167 955 198.5 969 Q230 983 265 983 Z M265 325 Q300 325 331.5 311 Q363 297 387 273 Q411 249 425 217.5 Q439 186 439 151 Q439 116 425 84 Q411 52 387 28 Q363 4 331.5 -10.5 Q300 -25 265 -25 Q230 -25 198.5 -10.5 Q167 4 143 28 Q119 52 104.5 84 Q90 116 90 151 Q90 186 104.5 217.5 Q119 249 143 273 Q167 297 198.5 311 Q230 325 265 325 Z " />
<glyph glyph-name="semicolon" unicode="&#x3b;" horiz-adv-x="505" d="M268 983 Q303 983 334.5 969 Q366 955 390 931 Q414 907 428 875.5 Q442 844 442 809 Q442 774 428 742 Q414 710 390 686 Q366 662 334.5 647.5 Q303 633 268 633 Q233 633 201.5 647.5 Q170 662 146 686 Q122 710 107.5 742 Q93 774 93 809 Q93 844 107.5 875.5 Q122 907 146 931 Q170 955 201.5 969 Q233 983 268 983 Z M400 271 L280 -274 L100 -274 L155 271 L400 271 Z " />
<glyph glyph-name="less" unicode="&#x3c;" horiz-adv-x="1200" d="M1008 51 L193 431 L193 636 L1008 1016 L1008 792 L410 534 L1008 275 L1008 51 Z " />
<glyph glyph-name="equal" unicode="&#x3d;" horiz-adv-x="1200" d="M1050 238 L150 238 L150 428 L1050 428 L1050 238 Z M1050 638 L150 638 L150 828 L1050 828 L1050 638 Z " />
<glyph glyph-name="greater" unicode="&#x3e;" horiz-adv-x="1200" d="M193 1016 L1008 636 L1008 431 L193 51 L193 275 L791 533 L193 792 L193 1016 Z " />
<glyph glyph-name="question" unicode="&#x3f;" horiz-adv-x="890" d="M192 462 L192 784 L281 784 Q442 784 528 841.5 Q614 899 614 1008 Q614 1106 529.5 1159 Q445 1212 286 1212 Q241 1212 199.5 1209 Q158 1206 126 1203 L108 1418 Q127 1421 150.5 1423.5 Q174 1426 199 1428 Q224 1430 249 1431 Q274 1432 296 1432 Q428 1432 530.5 1402.5 Q633 1373 703.5 1319 Q774 1265 811 1188 Q848 1111 848 1017 Q848 836 731 727.5 Q614 619 390 590 L382 462 L192 462 Z M287 325 Q322 325 353.5 311 Q385 297 409 273 Q433 249 447 217.5 Q461 186 461 151 Q461 116 447 84 Q433 52 409 28 Q385 4 353.5 -10.5 Q322 -25 287 -25 Q252 -25 220.5 -10.5 Q189 4 165 28 Q141 52 126.5 84 Q112 116 112 151 Q112 186 126.5 217.5 Q141 249 165 273 Q189 297 220.5 311 Q252 325 287 325 Z " />
<glyph glyph-name="at" unicode="&#x40;" horiz-adv-x="1972" d="M1366 460 Q1366 354 1388 305 Q1410 256 1467 256 Q1500 256 1528 271.5 Q1556 287 1576.5 320.5 Q1597 354 1609 408 Q1621 462 1621 540 Q1621 672 1573.5 783 Q1526 894 1441.5 974.5 Q1357 1055 1240.5 1100 Q1124 1145 986 1145 Q848 1145 731.5 1098 Q615 1051 530.5 966 Q446 881 398.5 762 Q351 643 351 500 Q351 355 398.5 235 Q446 115 530.5 29.5 Q615 -56 731.5 -103 Q848 -150 986 -150 Q1102 -150 1205.5 -117 Q1309 -84 1401 -22 L1498 -157 Q1385 -239 1256.5 -278.5 Q1128 -318 986 -318 Q804 -318 652.5 -256.5 Q501 -195 391.5 -85.5 Q282 24 221 173.5 Q160 323 160 500 Q160 675 221 823.5 Q282 972 391.5 1081 Q501 1190 652.5 1251.5 Q804 1313 986 1313 Q1107 1313 1215 1286 Q1323 1259 1415 1209 Q1507 1159 1580.5 1089 Q1654 1019 1705.5 933 Q1757 847 1784.5 747.5 Q1812 648 1812 540 Q1812 443 1788.5 361 Q1765 279 1720 219 Q1675 159 1609 125 Q1543 91 1458 91 Q1409 91 1370.5 101 Q1332 111 1302 128 Q1272 145 1251 169 Q1230 193 1216 220 Q1174 164 1109.5 130.5 Q1045 97 954 97 Q870 97 798.5 127 Q727 157 675 211 Q623 265 594 339 Q565 413 565 500 Q565 587 594.5 661 Q624 735 675.5 789 Q727 843 797 873 Q867 903 948 903 Q1029 903 1088 875 Q1147 847 1187 799 L1187 883 L1366 883 L1366 460 Z M973 734 Q921 734 880 715.5 Q839 697 810 665.5 Q781 634 765.5 591 Q750 548 750 500 Q750 452 765.5 409 Q781 366 810 334.5 Q839 303 880 284.5 Q921 266 973 266 Q1023 266 1064 283.5 Q1105 301 1134.5 332.5 Q1164 364 1180 407 Q1196 450 1196 500 Q1196 550 1180 593 Q1164 636 1134.5 667.5 Q1105 699 1064 716.5 Q1023 734 973 734 Z " />
<glyph glyph-name="A" unicode="A" horiz-adv-x="1448" d="M1418 0 L1175 0 L1037 357 L403 357 L265 0 L30 0 L583 1400 L865 1400 L1418 0 Z M486 571 L954 571 L720 1175 L486 571 Z " />
<glyph glyph-name="B" unicode="B" horiz-adv-x="1403" d="M733 1400 Q845 1400 941 1379.5 Q1037 1359 1107 1313.5 Q1177 1268 1217 1195.5 Q1257 1123 1257 1019 Q1257 965 1240.5 916.5 Q1224 868 1195 829 Q1166 790 1126.5 762 Q1087 734 1041 721 Q1091 706 1136 677 Q1181 648 1215 606.5 Q1249 565 1269 512.5 Q1289 460 1289 400 Q1289 295 1252 219.5 Q1215 144 1146.5 95.5 Q1078 47 981.5 23.5 Q885 0 765 0 L190 0 L190 1400 L733 1400 Z M416 600 L416 212 L755 212 Q822 212 876.5 220 Q931 228 970 249.5 Q1009 271 1030.5 309 Q1052 347 1052 408 Q1052 467 1030.5 504.5 Q1009 542 970 563 Q931 584 876.5 592 Q822 600 755 600 L416 600 Z M416 1188 L416 811 L726 811 Q785 811 838 817.5 Q891 824 931.5 844 Q972 864 996 901.5 Q1020 939 1020 1002 Q1020 1062 996 1099 Q972 1136 931 1155.5 Q890 1175 836.5 1181.5 Q783 1188 724 1188 L416 1188 Z " />
<glyph glyph-name="C" unicode="C" horiz-adv-x="1532" d="M847 1426 Q940 1426 1027 1406 Q1114 1386 1189 1348 Q1264 1310 1325 1255.5 Q1386 1201 1427 1133 L1238 1007 Q1174 1101 1073.5 1155 Q973 1209 847 1209 Q740 1209 649 1172 Q558 1135 492 1068 Q426 1001 388.5 907 Q351 813 351 700 Q351 587 388.5 493 Q426 399 492 332 Q558 265 649 228 Q740 191 847 191 Q972 191 1071.5 244 Q1171 297 1237 392 L1421 257 Q1376 191 1315.5 139 Q1255 87 1181.5 50 Q1108 13 1023.5 -6.5 Q939 -26 847 -26 Q686 -26 551 28.5 Q416 83 319 180 Q222 277 168 410 Q114 543 114 700 Q114 857 168 990 Q222 1123 319 1220 Q416 1317 551 1371.5 Q686 1426 847 1426 Z " />
<glyph glyph-name="D" unicode="D" horiz-adv-x="1587" d="M746 1400 Q910 1400 1044 1350 Q1178 1300 1273.5 1208.5 Q1369 1117 1421 987.5 Q1473 858 1473 700 Q1473 542 1421 412.5 Q1369 283 1273.5 191.5 Q1178 100 1044 50 Q910 0 746 0 L190 0 L190 1400 L746 1400 Z M416 1186 L416 214 L746 214 Q869 214 961 250.5 Q1053 287 1114 351.5 Q1175 416 1205.5 505 Q1236 594 1236 700 Q1236 807 1205.5 896 Q1175 985 1114 1049.5 Q1053 1114 961 1150 Q869 1186 746 1186 L416 1186 Z " />
<glyph glyph-name="E" unicode="E" horiz-adv-x="1363" d="M1211 0 L190 0 L190 1400 L1198 1400 L1198 1188 L416 1188 L416 811 L1171 811 L1171 599 L416 599 L416 212 L1211 212 L1211 0 Z " />
<glyph glyph-name="F" unicode="F" horiz-adv-x="1303" d="M1143 598 L416 598 L416 0 L190 0 L190 1400 L1189 1400 L1189 1186 L416 1186 L416 812 L1143 812 L1143 598 Z " />
<glyph glyph-name="G" unicode="G" horiz-adv-x="1639" d="M847 1426 Q1015 1426 1154 1366.5 Q1293 1307 1389 1200 L1223 1039 Q1157 1118 1061 1163.5 Q965 1209 847 1209 Q740 1209 649 1172 Q558 1135 492 1068 Q426 1001 388.5 907 Q351 813 351 700 Q351 587 388 493 Q425 399 490.5 332 Q556 265 644.5 228 Q733 191 837 191 Q1029 191 1140 285.5 Q1251 380 1278 554 L907 554 L907 764 L1523 764 Q1524 750 1524.5 737 Q1525 724 1525 710 Q1525 559 1478.5 425.5 Q1432 292 1343.5 192 Q1255 92 1127 33.5 Q999 -25 837 -25 Q747 -25 658 -3.5 Q569 18 489 59.5 Q409 101 340 162.5 Q271 224 221 304.5 Q171 385 142.5 484 Q114 583 114 700 Q114 858 169 991 Q224 1124 321.5 1221 Q419 1318 553.5 1372 Q688 1426 847 1426 Z " />
<glyph glyph-name="H" unicode="H" horiz-adv-x="1588" d="M416 812 L1172 812 L1172 1400 L1398 1400 L1398 0 L1172 0 L1172 598 L416 598 L416 0 L190 0 L190 1400 L416 1400 L416 812 Z " />
<glyph glyph-name="I" unicode="I" horiz-adv-x="606" d="M416 0 L190 0 L190 1400 L416 1400 L416 0 Z " />
<glyph glyph-name="J" unicode="J" horiz-adv-x="1149" d="M969 495 Q969 369 932 272 Q895 175 829.5 109 Q764 43 674.5 9 Q585 -25 481 -25 Q389 -25 318 -5.5 Q247 14 192.5 45 Q138 76 99 114.5 Q60 153 32 190 L183 345 Q205 313 234 285 Q263 257 300 236.5 Q337 216 381.5 204 Q426 192 480 192 Q603 192 673 272.5 Q743 353 743 517 L743 1400 L969 1400 L969 495 Z " />
<glyph glyph-name="K" unicode="K" horiz-adv-x="1424" d="M551 597 L416 597 L416 0 L190 0 L190 1400 L416 1400 L416 811 L554 811 L1080 1400 L1372 1400 L742 717 L1415 0 L1108 0 L551 597 Z " />
<glyph glyph-name="L" unicode="L" horiz-adv-x="1229" d="M1191 0 L190 0 L190 1400 L416 1400 L416 214 L1191 214 L1191 0 Z " />
<glyph glyph-name="M" unicode="M" horiz-adv-x="1888" d="M1698 0 L1472 0 L1472 1152 L1063 137 L825 137 L416 1141 L416 0 L190 0 L190 1400 L537 1400 L944 400 L1351 1400 L1698 1400 L1698 0 Z " />
<glyph glyph-name="N" unicode="N" horiz-adv-x="1592" d="M1402 0 L1198 0 L417 1013 L416 0 L190 0 L190 1400 L394 1400 L1176 387 L1176 1400 L1402 1400 L1402 0 Z " />
<glyph glyph-name="O" unicode="O" horiz-adv-x="1694" d="M847 1426 Q1008 1426 1143 1371.5 Q1278 1317 1375 1220 Q1472 1123 1526 990 Q1580 857 1580 700 Q1580 543 1526 410 Q1472 277 1375 180 Q1278 83 1143 28.5 Q1008 -26 847 -26 Q686 -26 551 28.5 Q416 83 319 180 Q222 277 168 410 Q114 543 114 700 Q114 857 168 990 Q222 1123 319 1220 Q416 1317 551 1371.5 Q686 1426 847 1426 Z M847 1209 Q740 1209 649 1172 Q558 1135 492 1068 Q426 1001 388.5 907 Q351 813 351 700 Q351 587 388.5 493 Q426 399 492 332 Q558 265 649 228 Q740 191 847 191 Q954 191 1045 228 Q1136 265 1202 332 Q1268 399 1305.5 493 Q1343 587 1343 700 Q1343 813 1305.5 907 Q1268 1001 1202 1068 Q1136 1135 1045 1172 Q954 1209 847 1209 Z " />
<glyph glyph-name="P" unicode="P" horiz-adv-x="1324" d="M416 550 L416 0 L190 0 L190 1400 L733 1400 Q854 1400 946.5 1370.5 Q1039 1341 1102 1286 Q1165 1231 1197 1152 Q1229 1073 1229 975 Q1229 877 1197 798 Q1165 719 1102 664 Q1039 609 946.5 579.5 Q854 550 733 550 L416 550 Z M416 1187 L416 763 L727 763 Q865 763 929.5 814.5 Q994 866 994 975 Q994 1084 929.5 1135.5 Q865 1187 727 1187 L416 1187 Z " />
<glyph glyph-name="Q" unicode="Q" horiz-adv-x="1694" d="M847 1426 Q1008 1426 1143 1371.5 Q1278 1317 1375 1220 Q1472 1123 1526 990 Q1580 857 1580 700 Q1580 563 1538.5 445 Q1497 327 1422 233 L1596 0 L1331 0 L1263 90 Q1175 34 1070.5 4 Q966 -26 847 -26 Q686 -26 551 28.5 Q416 83 319 180 Q222 277 168 410 Q114 543 114 700 Q114 857 168 990 Q222 1123 319 1220 Q416 1317 551 1371.5 Q686 1426 847 1426 Z M847 1209 Q740 1209 649 1172 Q558 1135 492 1068 Q426 1001 388.5 907 Q351 813 351 700 Q351 587 388.5 493 Q426 399 492 332 Q558 265 649 228 Q740 191 847 191 Q927 191 997 211.5 Q1067 232 1127 271 L838 655 L1108 655 L1275 430 Q1307 487 1325 554.5 Q1343 622 1343 700 Q1343 813 1305.5 907 Q1268 1001 1202 1068 Q1136 1135 1045 1172 Q954 1209 847 1209 Z " />
<glyph glyph-name="R" unicode="R" horiz-adv-x="1372" d="M766 1400 Q1009 1400 1135.5 1296 Q1262 1192 1262 995 Q1262 906 1229 832.5 Q1196 759 1135.5 706.5 Q1075 654 988.5 623.5 Q902 593 795 589 L1256 0 L976 0 L530 589 L416 589 L416 0 L190 0 L190 1400 L766 1400 Z M416 1188 L416 794 L760 794 Q897 794 962 843.5 Q1027 893 1027 995 Q1027 1095 960.5 1141.5 Q894 1188 760 1188 L416 1188 Z " />
<glyph glyph-name="S" unicode="S" horiz-adv-x="1352" d="M1107 1090 Q1017 1147 919 1178.5 Q821 1210 714 1210 Q644 1210 586 1195.5 Q528 1181 486.5 1153.5 Q445 1126 422 1087.5 Q399 1049 399 1001 Q399 957 419 926 Q439 895 476.5 873.5 Q514 852 568 838 Q622 824 690 814 L787 801 Q872 789 953 764 Q1034 739 1097.5 694 Q1161 649 1199.5 581 Q1238 513 1238 416 Q1238 309 1193 227 Q1148 145 1071 89 Q994 33 892.5 4 Q791 -25 677 -25 Q606 -25 529.5 -13 Q453 -1 378.5 22.5 Q304 46 236 81 Q168 116 114 163 L237 343 Q273 310 323.5 282 Q374 254 432 233 Q490 212 552.5 200.5 Q615 189 676 189 Q745 189 804.5 203 Q864 217 908 244 Q952 271 977.5 309.5 Q1003 348 1003 396 Q1003 478 922.5 521 Q842 564 688 585 L579 600 Q501 611 426.5 636 Q352 661 293.5 706.5 Q235 752 199.5 820.5 Q164 889 164 987 Q164 1092 207.5 1173.5 Q251 1255 326 1310.5 Q401 1366 501.5 1395 Q602 1424 716 1424 Q869 1424 992.5 1383.5 Q1116 1343 1222 1273 L1107 1090 Z " />
<glyph glyph-name="T" unicode="T" horiz-adv-x="1208" d="M1170 1186 L717 1186 L717 0 L491 0 L491 1186 L38 1186 L38 1400 L1170 1400 L1170 1186 Z " />
<glyph glyph-name="U" unicode="U" horiz-adv-x="1530" d="M1359 552 Q1359 406 1312.5 297.5 Q1266 189 1186 117.5 Q1106 46 997.5 10.5 Q889 -25 765 -25 Q641 -25 532.5 10.5 Q424 46 344 117.5 Q264 189 217.5 297.5 Q171 406 171 552 L171 1400 L397 1400 L397 569 Q397 469 424 397.5 Q451 326 499.5 280.5 Q548 235 616 213.5 Q684 192 765 192 Q846 192 914 213.5 Q982 235 1030.5 280.5 Q1079 326 1106 397.5 Q1133 469 1133 569 L1133 1400 L1359 1400 L1359 552 Z " />
<glyph glyph-name="V" unicode="V" horiz-adv-x="1410" d="M846 0 L564 0 L30 1400 L271 1400 L707 229 L1146 1400 L1380 1400 L846 0 Z " />
<glyph glyph-name="W" unicode="W" horiz-adv-x="2180" d="M1705 0 L1425 0 L1090 1093 L755 0 L475 0 L48 1400 L285 1400 L618 261 L964 1400 L1221 1400 L1566 261 L1900 1400 L2132 1400 L1705 0 Z " />
<glyph glyph-name="X" unicode="X" horiz-adv-x="1356" d="M813 714 L1311 0 L1038 0 L676 539 L311 0 L45 0 L542 714 L65 1400 L338 1400 L680 890 L1025 1400 L1292 1400 L813 714 Z " />
<glyph glyph-name="Y" unicode="Y" horiz-adv-x="1328" d="M779 568 L779 0 L553 0 L553 572 L9 1400 L279 1400 L667 773 L1056 1400 L1319 1400 L779 568 Z " />
<glyph glyph-name="Z" unicode="Z" horiz-adv-x="1292" d="M1178 1225 L414 214 L1178 214 L1178 0 L114 0 L114 175 L878 1186 L116 1186 L116 1400 L1178 1400 L1178 1225 Z " />
<glyph glyph-name="bracketleft" unicode="&#x5b;" horiz-adv-x="775" d="M699 -263 L190 -263 L190 1400 L699 1400 L699 1206 L406 1206 L406 -69 L699 -69 L699 -263 Z " />
<glyph glyph-name="backslash" unicode="&#x5c;" horiz-adv-x="1007" d="M-43 1540 L188 1540 L1037 -200 L806 -200 L-43 1540 Z " />
<glyph glyph-name="bracketright" unicode="&#x5d;" horiz-adv-x="775" d="M76 1400 L585 1400 L585 -263 L76 -263 L76 -69 L369 -69 L369 1206 L76 1206 L76 1400 Z " />
<glyph glyph-name="asciicircum" unicode="&#x5e;" horiz-adv-x="1200" d="M141 635 L498 1400 L702 1400 L1059 635 L831 635 L597 1177 L364 635 L141 635 Z " />
<glyph glyph-name="underscore" unicode="&#x5f;" horiz-adv-x="940" d="M945 -303 L-5 -303 L-5 -113 L945 -113 L945 -303 Z " />
<glyph glyph-name="grave" unicode="&#x60;" horiz-adv-x="1000" d="M523 1110 L272 1410 L538 1410 L729 1110 L523 1110 Z " />
<glyph glyph-name="a" unicode="a" horiz-adv-x="1248" d="M1084 0 L875 0 L875 115 Q825 51 751 13 Q677 -25 574 -25 Q473 -25 386 12.5 Q299 50 234 117 Q169 184 132 276.5 Q95 369 95 479 Q95 589 132 681.5 Q169 774 234 841 Q299 908 386 945.5 Q473 983 574 983 Q677 983 751 944.5 Q825 906 875 842 L875 958 L1084 958 L1084 0 Z M599 786 Q531 786 477.5 761.5 Q424 737 387 695.5 Q350 654 330 598 Q310 542 310 479 Q310 416 330 360 Q350 304 387 262.5 Q424 221 477.5 196.5 Q531 172 599 172 Q664 172 717 195.5 Q770 219 808 260 Q846 301 867 357 Q888 413 888 479 Q888 545 867 601 Q846 657 808 698 Q770 739 717 762.5 Q664 786 599 786 Z " />
<glyph glyph-name="b" unicode="b" horiz-adv-x="1247" d="M673 983 Q773 983 860.5 945.5 Q948 908 1013 841 Q1078 774 1115 681.5 Q1152 589 1152 479 Q1152 369 1115 276.5 Q1078 184 1013 117 Q948 50 860.5 12.5 Q773 -25 673 -25 Q570 -25 496.5 13 Q423 51 373 114 L373 0 L164 0 L164 1440 L373 1440 L373 844 Q423 907 496.5 945 Q570 983 673 983 Z M648 786 Q583 786 530 762.5 Q477 739 439 698 Q401 657 380 601 Q359 545 359 479 Q359 413 380 357 Q401 301 439 260 Q477 219 530 195.5 Q583 172 648 172 Q715 172 769 196.5 Q823 221 860 262.5 Q897 304 917 360 Q937 416 937 479 Q937 542 917 598 Q897 654 860 695.5 Q823 737 769 761.5 Q715 786 648 786 Z " />
<glyph glyph-name="c" unicode="c" horiz-adv-x="1027" d="M599 983 Q707 983 800 944.5 Q893 906 957 830 L823 687 Q772 735 717 760.5 Q662 786 593 786 Q533 786 481 763.5 Q429 741 391 700.5 Q353 660 331.5 603.5 Q310 547 310 479 Q310 411 331.5 354.5 Q353 298 391 257.5 Q429 217 481 194.5 Q533 172 593 172 Q662 172 722 200.5 Q782 229 828 272 L957 128 Q891 52 799 13.5 Q707 -25 599 -25 Q485 -25 392 13.5 Q299 52 233 119.5 Q167 187 131 279 Q95 371 95 479 Q95 587 131 679 Q167 771 233 838.5 Q299 906 392 944.5 Q485 983 599 983 Z " />
<glyph glyph-name="d" unicode="d" horiz-adv-x="1248" d="M574 983 Q677 983 751 944.5 Q825 906 875 842 L875 1440 L1084 1440 L1084 0 L875 0 L875 115 Q825 51 751 13 Q677 -25 574 -25 Q473 -25 386 12.5 Q299 50 234 117 Q169 184 132 276.5 Q95 369 95 479 Q95 589 132 681.5 Q169 774 234 841 Q299 908 386 945.5 Q473 983 574 983 Z M599 786 Q531 786 477.5 761.5 Q424 737 387 695.5 Q350 654 330 598 Q310 542 310 479 Q310 416 330 360 Q350 304 387 262.5 Q424 221 477.5 196.5 Q531 172 599 172 Q664 172 717 195.5 Q770 219 808 260 Q846 301 867 357 Q888 413 888 479 Q888 545 867 601 Q846 657 808 698 Q770 739 717 762.5 Q664 786 599 786 Z " />
<glyph glyph-name="e" unicode="e" horiz-adv-x="1120" d="M572 983 Q672 983 755.5 946.5 Q839 910 898.5 843.5 Q958 777 991.5 684.5 Q1025 592 1025 480 Q1025 460 1024 440 Q1023 420 1021 402 L313 402 Q323 337 350 291 Q377 245 415 215.5 Q453 186 500 172 Q547 158 598 158 Q670 158 742.5 184.5 Q815 211 875 259 L979 110 Q891 35 792.5 5 Q694 -25 585 -25 Q477 -25 387 11 Q297 47 232 113 Q167 179 131 272 Q95 365 95 479 Q95 591 130 684 Q165 777 228 843.5 Q291 910 378.5 946.5 Q466 983 572 983 Z M568 797 Q512 797 468.5 780 Q425 763 393.5 731.5 Q362 700 342 656.5 Q322 613 314 561 L811 561 Q794 673 731 735 Q668 797 568 797 Z " />
<glyph glyph-name="f" unicode="f" horiz-adv-x="844" d="M779 768 L451 768 L451 0 L241 0 L241 768 L49 768 L49 958 L241 958 L241 1120 Q241 1192 259.5 1255 Q278 1318 317.5 1364.5 Q357 1411 417.5 1438 Q478 1465 562 1465 Q647 1465 711 1445 Q775 1425 829 1393 L755 1217 Q718 1238 671 1253 Q624 1268 576 1268 Q515 1268 483 1230 Q451 1192 451 1120 L451 958 L779 958 L779 768 Z " />
<glyph glyph-name="g" unicode="g" horiz-adv-x="1232" d="M539 983 Q644 983 724 947.5 Q804 912 858 843 L858 958 L1068 958 L1068 67 Q1068 -46 1032.5 -136 Q997 -226 931 -289 Q865 -352 769.5 -385.5 Q674 -419 554 -419 Q500 -419 445 -412 Q390 -405 337.5 -390.5 Q285 -376 238 -355.5 Q191 -335 153 -308 L229 -131 Q302 -176 384 -202 Q466 -228 554 -228 Q702 -228 780 -152 Q858 -76 858 58 L858 135 Q804 66 724 30.5 Q644 -5 539 -5 Q457 -5 377.5 28.5 Q298 62 235 125.5 Q172 189 133.5 281 Q95 373 95 489 Q95 605 133.5 697 Q172 789 235 852.5 Q298 916 377.5 949.5 Q457 983 539 983 Z M593 786 Q527 786 474.5 762.5 Q422 739 385.5 698.5 Q349 658 329.5 604 Q310 550 310 489 Q310 429 329.5 375 Q349 321 385.5 280.5 Q422 240 474.5 216 Q527 192 593 192 Q656 192 708.5 215 Q761 238 798 277.5 Q835 317 855.5 371.5 Q876 426 876 489 Q876 552 855.5 606.5 Q835 661 798 700.5 Q761 740 708.5 763 Q656 786 593 786 Z " />
<glyph glyph-name="h" unicode="h" horiz-adv-x="1209" d="M374 844 Q403 885 438.5 912 Q474 939 512.5 954.5 Q551 970 590.5 976.5 Q630 983 666 983 Q751 983 822.5 955 Q894 927 946 876.5 Q998 826 1026.5 756 Q1055 686 1055 602 L1055 0 L845 0 L845 533 Q845 654 786.5 719 Q728 784 622 784 Q571 784 526 767.5 Q481 751 447.5 719 Q414 687 394 639.5 Q374 592 374 531 L374 0 L164 0 L164 1440 L374 1440 L374 844 Z " />
<glyph glyph-name="i" unicode="i" horiz-adv-x="538" d="M374 0 L164 0 L164 958 L374 958 L374 0 Z M268 1437 Q299 1437 326 1425.5 Q353 1414 373 1394 Q393 1374 404.5 1347 Q416 1320 416 1289 Q416 1258 404.5 1231 Q393 1204 373 1184.5 Q353 1165 326 1154 Q299 1143 268 1143 Q237 1143 210 1154 Q183 1165 163.5 1184.5 Q144 1204 133 1231 Q122 1258 122 1289 Q122 1320 133 1347 Q144 1374 163.5 1394 Q183 1414 210 1425.5 Q237 1437 268 1437 Z " />
<glyph glyph-name="j" unicode="j" horiz-adv-x="544" d="M380 -118 Q380 -192 359.5 -248 Q339 -304 301.5 -342 Q264 -380 212.5 -399.5 Q161 -419 99 -419 Q62 -419 22.5 -411.5 Q-17 -404 -46 -390 L3 -208 Q40 -222 80 -222 Q117 -222 143.5 -196 Q170 -170 170 -108 L170 958 L380 958 L380 -118 Z M273 1437 Q304 1437 331 1425.5 Q358 1414 378 1394 Q398 1374 409.5 1347 Q421 1320 421 1289 Q421 1258 409.5 1231 Q398 1204 378 1184.5 Q358 1165 331 1154 Q304 1143 273 1143 Q242 1143 215 1154 Q188 1165 168.5 1184.5 Q149 1204 138 1231 Q127 1258 127 1289 Q127 1320 138 1347 Q149 1374 168.5 1394 Q188 1414 215 1425.5 Q242 1437 273 1437 Z " />
<glyph glyph-name="k" unicode="k" horiz-adv-x="1085" d="M374 594 L479 594 L795 958 L1058 958 L657 507 L1062 0 L797 0 L478 404 L374 404 L374 0 L164 0 L164 1440 L374 1440 L374 594 Z " />
<glyph glyph-name="l" unicode="l" horiz-adv-x="538" d="M374 0 L164 0 L164 1440 L374 1440 L374 0 Z " />
<glyph glyph-name="m" unicode="m" horiz-adv-x="1890" d="M1347 983 Q1432 983 1503.5 955 Q1575 927 1627 876.5 Q1679 826 1707.5 756 Q1736 686 1736 602 L1736 0 L1526 0 L1526 533 Q1526 654 1467.5 719 Q1409 784 1303 784 Q1252 784 1207 767.5 Q1162 751 1128.5 719 Q1095 687 1075 639.5 Q1055 592 1055 531 L1055 0 L845 0 L845 533 Q845 654 786.5 719 Q728 784 622 784 Q571 784 526 767.5 Q481 751 447.5 719 Q414 687 394 639.5 Q374 592 374 531 L374 0 L164 0 L164 958 L372 958 L372 841 Q401 883 436.5 910.5 Q472 938 511 954 Q550 970 589.5 976.5 Q629 983 666 983 Q776 983 861.5 937.5 Q947 892 997 812 Q1028 863 1070 896.5 Q1112 930 1158.5 949 Q1205 968 1253.5 975.5 Q1302 983 1347 983 Z " />
<glyph glyph-name="n" unicode="n" horiz-adv-x="1209" d="M666 983 Q751 983 822.5 955 Q894 927 946 876.5 Q998 826 1026.5 756 Q1055 686 1055 602 L1055 0 L845 0 L845 533 Q845 654 786.5 719 Q728 784 622 784 Q571 784 526 767.5 Q481 751 447.5 719 Q414 687 394 639.5 Q374 592 374 531 L374 0 L164 0 L164 958 L372 958 L372 841 Q401 883 436.5 910.5 Q472 938 511 954 Q550 970 589.5 976.5 Q629 983 666 983 Z " />
<glyph glyph-name="o" unicode="o" horiz-adv-x="1221" d="M610 983 Q721 983 815.5 944.5 Q910 906 979 838.5 Q1048 771 1087 679 Q1126 587 1126 479 Q1126 371 1087 279 Q1048 187 979 119.5 Q910 52 815.5 13.5 Q721 -25 610 -25 Q499 -25 404.5 13.5 Q310 52 241.5 119.5 Q173 187 134 279 Q95 371 95 479 Q95 587 134 679 Q173 771 241.5 838.5 Q310 906 404.5 944.5 Q499 983 610 983 Z M610 786 Q546 786 491 763.5 Q436 741 396 700.5 Q356 660 333 603.5 Q310 547 310 479 Q310 411 333 354.5 Q356 298 396 257.5 Q436 217 491 194.5 Q546 172 610 172 Q674 172 729 194.5 Q784 217 824.5 257.5 Q865 298 888 354.5 Q911 411 911 479 Q911 547 888 603.5 Q865 660 824.5 700.5 Q784 741 729 763.5 Q674 786 610 786 Z " />
<glyph glyph-name="p" unicode="p" horiz-adv-x="1247" d="M673 983 Q773 983 860.5 945.5 Q948 908 1013 841 Q1078 774 1115 681.5 Q1152 589 1152 479 Q1152 369 1115 276.5 Q1078 184 1013 117 Q948 50 860.5 12.5 Q773 -25 673 -25 Q570 -25 496.5 13 Q423 51 373 114 L373 -400 L164 -400 L164 958 L373 958 L373 844 Q423 907 496.5 945 Q570 983 673 983 Z M648 786 Q583 786 530 762.5 Q477 739 439 698 Q401 657 380 601 Q359 545 359 479 Q359 413 380 357 Q401 301 439 260 Q477 219 530 195.5 Q583 172 648 172 Q715 172 769 196.5 Q823 221 860 262.5 Q897 304 917 360 Q937 416 937 479 Q937 542 917 598 Q897 654 860 695.5 Q823 737 769 761.5 Q715 786 648 786 Z " />
<glyph glyph-name="q" unicode="q" horiz-adv-x="1248" d="M574 983 Q677 983 751 944.5 Q825 906 875 842 L875 958 L1084 958 L1084 -400 L875 -400 L875 115 Q825 51 751 13 Q677 -25 574 -25 Q473 -25 386 12.5 Q299 50 234 117 Q169 184 132 276.5 Q95 369 95 479 Q95 589 132 681.5 Q169 774 234 841 Q299 908 386 945.5 Q473 983 574 983 Z M599 786 Q531 786 477.5 761.5 Q424 737 387 695.5 Q350 654 330 598 Q310 542 310 479 Q310 416 330 360 Q350 304 387 262.5 Q424 221 477.5 196.5 Q531 172 599 172 Q664 172 717 195.5 Q770 219 808 260 Q846 301 867 357 Q888 413 888 479 Q888 545 867 601 Q846 657 808 698 Q770 739 717 762.5 Q664 786 599 786 Z " />
<glyph glyph-name="r" unicode="r" horiz-adv-x="859" d="M649 983 Q697 983 735.5 976.5 Q774 970 810 956 L760 749 Q727 766 683 775 Q639 784 601 784 Q551 784 509 767 Q467 750 437 717 Q407 684 390 636 Q373 588 373 527 L373 0 L164 0 L164 958 L371 958 L371 850 Q419 919 490 951 Q561 983 649 983 Z " />
<glyph glyph-name="s" unicode="s" horiz-adv-x="1011" d="M816 718 Q794 731 762 745.5 Q730 760 691 772 Q652 784 608.5 792 Q565 800 520 800 Q434 800 386.5 768.5 Q339 737 339 686 Q339 661 351.5 644 Q364 627 385 616 Q406 605 435 598.5 Q464 592 497 587 L596 572 Q753 549 841 480.5 Q929 412 929 289 Q929 220 899.5 162.5 Q870 105 814.5 63.5 Q759 22 677.5 -1 Q596 -24 493 -24 Q456 -24 407 -19.5 Q358 -15 303 -1.5 Q248 12 191 36 Q134 60 82 99 L179 256 Q205 236 235.5 218.5 Q266 201 304.5 187.5 Q343 174 389.5 166 Q436 158 495 158 Q603 158 658 189.5 Q713 221 713 275 Q713 316 673 342.5 Q633 369 547 381 L447 394 Q287 416 204.5 487.5 Q122 559 122 675 Q122 746 149.5 803 Q177 860 228.5 899.5 Q280 939 353 960.5 Q426 982 518 982 Q631 982 731 955.5 Q831 929 906 881 L816 718 Z " />
<glyph glyph-name="t" unicode="t" horiz-adv-x="908" d="M817 768 L450 768 L450 351 Q450 303 462 269 Q474 235 494.5 213.5 Q515 192 542.5 182 Q570 172 602 172 Q651 172 701.5 191 Q752 210 795 237 L878 70 Q820 31 747.5 3 Q675 -25 584 -25 Q421 -25 330.5 65.5 Q240 156 240 347 L240 768 L49 768 L49 958 L240 958 L240 1248 L450 1248 L450 958 L817 958 L817 768 Z " />
<glyph glyph-name="u" unicode="u" horiz-adv-x="1196" d="M1042 406 Q1042 292 1004 210 Q966 128 904 76 Q842 24 762 -0.5 Q682 -25 598 -25 Q514 -25 434 -0.5 Q354 24 291.5 76 Q229 128 191.5 210 Q154 292 154 406 L154 958 L364 958 L364 425 Q364 356 382 307.5 Q400 259 431.5 229 Q463 199 506 185.5 Q549 172 598 172 Q647 172 690 185.5 Q733 199 764.5 229 Q796 259 814 307.5 Q832 356 832 425 L832 958 L1042 958 L1042 406 Z " />
<glyph glyph-name="v" unicode="v" horiz-adv-x="1062" d="M656 0 L408 0 L23 958 L251 958 L534 217 L817 958 L1039 958 L656 0 Z " />
<glyph glyph-name="w" unicode="w" horiz-adv-x="1674" d="M1195 226 L1421 958 L1639 958 L1322 0 L1072 0 L835 722 L598 0 L352 0 L35 958 L258 958 L483 230 L719 958 L956 958 L1195 226 Z " />
<glyph glyph-name="x" unicode="x" horiz-adv-x="1051" d="M657 491 L1018 0 L761 0 L518 333 L278 0 L33 0 L394 489 L39 958 L296 958 L529 638 L764 958 L1011 958 L657 491 Z " />
<glyph glyph-name="y" unicode="y" horiz-adv-x="1098" d="M330 -406 L98 -406 L441 197 L16 958 L251 958 L559 408 L856 958 L1086 958 L330 -406 Z " />
<glyph glyph-name="z" unicode="z" horiz-adv-x="1041" d="M916 806 L393 190 L926 190 L926 0 L115 0 L115 152 L647 768 L131 768 L131 958 L916 958 L916 806 Z " />
<glyph glyph-name="braceleft" unicode="&#x7b;" horiz-adv-x="880" d="M756 1206 Q706 1206 666 1192.5 Q626 1179 598 1153 Q570 1127 555.5 1089 Q541 1051 543 1002 L548 894 Q553 777 501.5 694 Q450 611 342 569 Q450 527 501.5 444 Q553 361 548 244 L543 136 Q541 87 555.5 49 Q570 11 598 -15 Q626 -41 666 -54.5 Q706 -68 756 -68 L804 -68 L804 -262 L756 -262 Q648 -262 565.5 -232.5 Q483 -203 428.5 -148 Q374 -93 348 -15 Q322 63 327 160 L332 268 Q334 317 320 355 Q306 393 277.5 419 Q249 445 207.5 458.5 Q166 472 114 472 L114 666 Q166 666 207.5 679.5 Q249 693 277.5 719 Q306 745 320 783 Q334 821 332 870 L327 978 Q322 1075 348 1153 Q374 1231 428.5 1286 Q483 1341 565.5 1370.5 Q648 1400 756 1400 L804 1400 L804 1206 L756 1206 Z " />
<glyph glyph-name="bar" unicode="&#x7c;" horiz-adv-x="742" d="M476 -265 L266 -265 L266 1400 L476 1400 L476 -265 Z " />
<glyph glyph-name="braceright" unicode="&#x7d;" horiz-adv-x="880" d="M124 -68 Q173 -68 213.5 -54.5 Q254 -41 282 -15 Q310 11 324.5 49 Q339 87 337 136 L332 244 Q327 361 378.5 444 Q430 527 538 569 Q430 611 378.5 694 Q327 777 332 894 L337 1002 Q339 1051 324.5 1089 Q310 1127 282 1153 Q254 1179 213.5 1192.5 Q173 1206 124 1206 L76 1206 L76 1400 L124 1400 Q232 1400 314.5 1370.5 Q397 1341 451.5 1286 Q506 1231 531.5 1153 Q557 1075 553 978 L548 870 Q546 821 560 783 Q574 745 602.5 719 Q631 693 672.5 679.5 Q714 666 766 666 L766 472 Q714 472 672.5 458.5 Q631 445 602.5 419 Q574 393 560 355 Q546 317 548 268 L553 160 Q557 63 531.5 -15 Q506 -93 451.5 -148 Q397 -203 314.5 -232.5 Q232 -262 124 -262 L76 -262 L76 -68 L124 -68 Z " />
<glyph glyph-name="asciitilde" unicode="&#x7e;" horiz-adv-x="1200" d="M1068 523 Q1009 461 942.5 431 Q876 401 788 401 Q715 401 665.5 413 Q616 425 575 440 Q534 455 493.5 467 Q453 479 399 479 Q361 479 326 460.5 Q291 442 247 404 L133 537 Q163 568 193.5 591 Q224 614 258 629 Q292 644 330.5 651.5 Q369 659 413 659 Q486 659 535.5 647 Q585 635 626 620 Q667 605 707.5 593 Q748 581 802 581 Q840 581 875 599.5 Q910 618 954 656 L1068 523 Z " />
<glyph glyph-name="uni00A0" unicode="&#xa0;" horiz-adv-x="540" d="" />
<glyph glyph-name="exclamdown" unicode="&#xa1;" horiz-adv-x="530" d="M171 496 L361 496 L395 -442 L137 -442 L171 496 Z M265 633 Q230 633 198.5 647 Q167 661 143 685 Q119 709 105 740.5 Q91 772 91 807 Q91 842 105 874 Q119 906 143 930 Q167 954 198.5 968.5 Q230 983 265 983 Q300 983 331.5 968.5 Q363 954 387 930 Q411 906 425.5 874 Q440 842 440 807 Q440 772 425.5 740.5 Q411 709 387 685 Q363 661 331.5 647 Q300 633 265 633 Z " />
<glyph glyph-name="cent" unicode="&#xa2;" horiz-adv-x="1400" d="M851 1400 L851 1198 Q942 1187 1020 1150 Q1098 1113 1155 1050 L1032 913 Q990 948 946 971.5 Q902 995 851 1005 L851 394 Q905 405 952 430 Q999 455 1038 488 L1155 350 Q1096 287 1018.5 250 Q941 213 851 202 L851 0 L657 0 L657 209 Q562 227 486.5 271.5 Q411 316 358 380.5 Q305 445 276.5 526 Q248 607 248 700 Q248 793 276.5 874 Q305 955 358 1019.5 Q411 1084 486.5 1128 Q562 1172 657 1190 L657 1400 L851 1400 Z M455 700 Q455 647 469.5 600.5 Q484 554 510.5 516.5 Q537 479 574.5 451 Q612 423 657 407 L657 993 Q612 977 574.5 949 Q537 921 510.5 883.5 Q484 846 469.5 799.5 Q455 753 455 700 Z " />
<glyph glyph-name="sterling" unicode="&#xa3;" horiz-adv-x="1400" d="M1227 0 L174 0 L174 206 L340 206 L340 605 L174 605 L174 795 L340 795 L340 875 Q340 1013 379.5 1116.5 Q419 1220 487.5 1288 Q556 1356 647 1390 Q738 1424 841 1424 Q953 1424 1049.5 1388 Q1146 1352 1217 1279 L1071 1126 Q1027 1172 969 1194.5 Q911 1217 841 1217 Q779 1217 727 1196.5 Q675 1176 637 1132.5 Q599 1089 577.5 1021.5 Q556 954 556 859 L556 795 L1055 795 L1055 605 L556 605 L556 206 L1227 206 L1227 0 Z " />
<glyph glyph-name="currency" unicode="&#xa4;" horiz-adv-x="1400" d="M292 1230 L439 1084 Q495 1122 561 1142.5 Q627 1163 700 1163 Q772 1163 838 1142.5 Q904 1122 960 1084 L1106 1230 L1229 1107 L1083 961 Q1121 905 1142.5 839 Q1164 773 1164 700 Q1164 626 1143 560.5 Q1122 495 1084 438 L1230 293 L1107 170 L961 316 Q904 278 838.5 257 Q773 236 700 236 Q626 236 560 257 Q494 278 438 316 L293 170 L171 293 L316 438 Q278 494 257 560 Q236 626 236 700 Q236 773 257 839 Q278 905 316 961 L170 1107 L292 1230 Z M700 408 Q761 408 814 430.5 Q867 453 906.5 492.5 Q946 532 968.5 585.5 Q991 639 991 700 Q991 761 968.5 814 Q946 867 906.5 906.5 Q867 946 814 968.5 Q761 991 700 991 Q639 991 586 968.5 Q533 946 493.5 906.5 Q454 867 431.5 814 Q409 761 409 700 Q409 639 431.5 585.5 Q454 532 493.5 492.5 Q533 453 586 430.5 Q639 408 700 408 Z " />
<glyph glyph-name="yen" unicode="&#xa5;" horiz-adv-x="1400" d="M1190 280 L816 280 L816 0 L599 0 L599 280 L224 280 L224 453 L599 453 L599 609 L224 609 L224 782 L511 782 L88 1400 L346 1400 L707 848 L1059 1400 L1313 1400 L898 782 L1190 782 L1190 609 L816 609 L816 453 L1190 453 L1190 280 Z " />
<glyph glyph-name="brokenbar" unicode="&#xa6;" horiz-adv-x="742" d="M476 706 L266 706 L266 1400 L476 1400 L476 706 Z M476 -265 L266 -265 L266 429 L476 429 L476 -265 Z " />
<glyph glyph-name="section" unicode="&#xa7;" horiz-adv-x="1308" d="M1042 1127 Q965 1172 877.5 1200 Q790 1228 692 1228 Q629 1228 577 1216.5 Q525 1205 487 1183.5 Q449 1162 427.5 1131 Q406 1100 406 1062 Q406 1026 424.5 1001 Q443 976 478 959 Q513 942 565 930.5 Q617 919 683 910 L768 899 Q848 888 921 866 Q994 844 1049.5 805 Q1105 766 1138 709 Q1171 652 1171 572 Q1171 488 1131.5 424.5 Q1092 361 1024 316 Q1081 278 1115.5 220 Q1150 162 1150 81 Q1150 -14 1108.5 -85.5 Q1067 -157 997.5 -205 Q928 -253 835.5 -277 Q743 -301 641 -301 Q575 -301 506 -291 Q437 -281 371 -261.5 Q305 -242 245 -213.5 Q185 -185 137 -147 L248 23 Q281 -3 325 -26.5 Q369 -50 420.5 -67.5 Q472 -85 528 -95 Q584 -105 641 -105 Q703 -105 756.5 -94 Q810 -83 850 -62 Q890 -41 913 -9.5 Q936 22 936 63 Q936 97 916 121.5 Q896 146 858.5 164 Q821 182 768 194 Q715 206 648 214 L552 226 Q476 235 407 257.5 Q338 280 285.5 319.5 Q233 359 202 417.5 Q171 476 171 557 Q171 637 209 699.5 Q247 762 314 807 Q258 847 225 905 Q192 963 192 1048 Q192 1137 231 1207 Q270 1277 337.5 1325 Q405 1373 496 1398.5 Q587 1424 691 1424 Q761 1424 822.5 1415.5 Q884 1407 939.5 1390.5 Q995 1374 1045.5 1350.5 Q1096 1327 1143 1298 L1042 1127 Z M574 717 Q556 719 538 722.5 Q520 726 502 730 Q447 707 416 665.5 Q385 624 385 570 Q385 535 403.5 510 Q422 485 457 467.5 Q492 450 544 438.5 Q596 427 662 419 L747 408 Q770 405 792.5 401 Q815 397 837 392 Q892 415 924.5 456 Q957 497 957 554 Q957 587 937 612 Q917 637 879.5 655 Q842 673 789 685 Q736 697 669 705 L574 717 Z " />
<glyph glyph-name="dieresis" unicode="&#xa8;" horiz-adv-x="1020" d="M309 1399 Q340 1399 367 1387.5 Q394 1376 414 1356 Q434 1336 445.5 1309 Q457 1282 457 1251 Q457 1220 445.5 1193 Q434 1166 414 1146.5 Q394 1127 367 1116 Q340 1105 309 1105 Q278 1105 251 1116 Q224 1127 204.5 1146.5 Q185 1166 174 1193 Q163 1220 163 1251 Q163 1282 174 1309 Q185 1336 204.5 1356 Q224 1376 251 1387.5 Q278 1399 309 1399 Z M709 1399 Q740 1399 767 1387.5 Q794 1376 814 1356 Q834 1336 845.5 1309 Q857 1282 857 1251 Q857 1220 845.5 1193 Q834 1166 814 1146.5 Q794 1127 767 1116 Q740 1105 709 1105 Q678 1105 651 1116 Q624 1127 604.5 1146.5 Q585 1166 574 1193 Q563 1220 563 1251 Q563 1282 574 1309 Q585 1336 604.5 1356 Q624 1376 651 1387.5 Q678 1399 709 1399 Z " />
<glyph glyph-name="copyright" unicode="&#xa9;" horiz-adv-x="1912" d="M956 1522 Q1069 1522 1174 1493 Q1279 1464 1370 1411 Q1461 1358 1535.5 1284 Q1610 1210 1663.5 1120 Q1717 1030 1746 926.5 Q1775 823 1775 711 Q1775 599 1746 495 Q1717 391 1663.5 301 Q1610 211 1535.5 136.5 Q1461 62 1370 9 Q1279 -44 1174 -73 Q1069 -102 956 -102 Q843 -102 738 -73 Q633 -44 542 9 Q451 62 376.5 136.5 Q302 211 248.5 301 Q195 391 166 495 Q137 599 137 711 Q137 823 166 926.5 Q195 1030 248.5 1120 Q302 1210 376.5 1284 Q451 1358 542 1411 Q633 1464 738 1493 Q843 1522 956 1522 Z M956 1337 Q826 1337 711.5 1288 Q597 1239 512 1154 Q427 1069 377.5 955 Q328 841 328 711 Q328 580 377.5 466 Q427 352 512 266.5 Q597 181 711.5 132 Q826 83 956 83 Q1086 83 1200.5 132 Q1315 181 1400 266.5 Q1485 352 1534.5 466 Q1584 580 1584 711 Q1584 841 1534.5 955 Q1485 1069 1400 1154 Q1315 1239 1200.5 1288 Q1086 1337 956 1337 Z M1169 858 Q1135 907 1086 934.5 Q1037 962 974 962 Q924 962 882 943 Q840 924 808.5 890.5 Q777 857 759.5 811 Q742 765 742 711 Q742 650 761 603.5 Q780 557 812 525 Q844 493 886 476.5 Q928 460 975 460 Q1037 460 1087 487.5 Q1137 515 1172 564 L1319 448 Q1261 368 1174.5 322.5 Q1088 277 976 277 Q882 277 803 309.5 Q724 342 666.5 399.5 Q609 457 577 536.5 Q545 616 545 711 Q545 805 577 885 Q609 965 666.5 1022.5 Q724 1080 803 1112.5 Q882 1145 976 1145 Q1087 1145 1178.5 1097 Q1270 1049 1325 963 L1169 858 Z " />
<glyph glyph-name="ordfeminine" unicode="&#xaa;" horiz-adv-x="791" d="M375 1282 Q447 1282 505 1263 Q563 1244 603 1206.5 Q643 1169 664.5 1114.5 Q686 1060 686 988 L686 588 L517 588 L517 658 Q481 620 428.5 595 Q376 570 307 570 Q251 570 206.5 586 Q162 602 131.5 631.5 Q101 661 85 701 Q69 741 69 789 Q69 837 88.5 875 Q108 913 144 939.5 Q180 966 231.5 980.5 Q283 995 347 995 L512 995 Q506 1060 468 1094.5 Q430 1129 355 1129 Q298 1129 251.5 1109.5 Q205 1090 170 1064 L102 1197 Q217 1282 375 1282 Z M347 712 Q393 712 437 734 Q481 756 515 795 L515 875 L372 875 Q338 875 314.5 868 Q291 861 277 849.5 Q263 838 256.5 823 Q250 808 250 793 Q250 763 273 737.5 Q296 712 347 712 Z " />
<glyph glyph-name="guillemotleft" unicode="&#xab;" horiz-adv-x="1062" d="M944 154 L719 154 L530 533 L719 912 L944 912 L755 533 L944 154 Z M519 154 L294 154 L105 533 L294 912 L519 912 L330 533 L519 154 Z " />
<glyph glyph-name="logicalnot" unicode="&#xac;" horiz-adv-x="1200" d="M1050 628 L1050 128 L856 128 L856 438 L150 438 L150 628 L1050 628 Z " />
<glyph glyph-name="uni00AD" unicode="&#xad;" horiz-adv-x="846" d="M713 438 L133 438 L133 628 L713 628 L713 438 Z " />
<glyph glyph-name="registered" unicode="&#xae;" horiz-adv-x="1017" d="M510 1441 Q606 1441 690 1405.5 Q774 1370 836.5 1309 Q899 1248 935 1166.5 Q971 1085 971 992 Q971 900 935 818 Q899 736 836.5 674.5 Q774 613 690 577.5 Q606 542 510 542 Q412 542 327 577.5 Q242 613 179.5 674.5 Q117 736 81.5 818 Q46 900 46 992 Q46 1085 81.5 1166.5 Q117 1248 179.5 1309 Q242 1370 327 1405.5 Q412 1441 510 1441 Z M510 667 Q577 667 636 692.5 Q695 718 738.5 762 Q782 806 807 865 Q832 924 832 992 Q832 1059 807 1118.5 Q782 1178 738.5 1221.5 Q695 1265 636 1290.5 Q577 1316 510 1316 Q441 1316 381.5 1290.5 Q322 1265 278 1221.5 Q234 1178 209 1118.5 Q184 1059 184 992 Q184 924 209 865 Q234 806 278 762 Q322 718 381.5 692.5 Q441 667 510 667 Z M536 1191 Q618 1191 660.5 1154.5 Q703 1118 703 1057 Q703 1009 672.5 977.5 Q642 946 584 936 L708 793 L574 793 L463 932 L450 932 L450 793 L338 793 L338 1191 L536 1191 Z M450 1094 L450 1021 L534 1021 Q560 1021 574 1029 Q588 1037 588 1057 Q588 1076 574 1085 Q560 1094 534 1094 L450 1094 Z " />
<glyph glyph-name="macron" unicode="&#xaf;" horiz-adv-x="1000" d="M190 1335 L810 1335 L810 1165 L190 1165 L190 1335 Z " />
<glyph glyph-name="degree" unicode="&#xb0;" horiz-adv-x="842" d="M421 686 Q343 686 275 715 Q207 744 156 794 Q105 844 75.5 911.5 Q46 979 46 1056 Q46 1132 75.5 1199.5 Q105 1267 156 1317 Q207 1367 275 1396 Q343 1425 421 1425 Q499 1425 567 1396 Q635 1367 686 1317 Q737 1267 766.5 1199.5 Q796 1132 796 1056 Q796 979 766.5 911.5 Q737 844 686 794 Q635 744 567 715 Q499 686 421 686 Z M421 856 Q460 856 495.5 871.5 Q531 887 557.5 914 Q584 941 600 977.5 Q616 1014 616 1056 Q616 1097 600 1133.5 Q584 1170 557.5 1197 Q531 1224 495.5 1239.5 Q460 1255 421 1255 Q381 1255 345.5 1239.5 Q310 1224 283.5 1197 Q257 1170 241.5 1133.5 Q226 1097 226 1056 Q226 1014 241.5 977.5 Q257 941 283.5 914 Q310 887 345.5 871.5 Q381 856 421 856 Z " />
<glyph glyph-name="plusminus" unicode="&#xb1;" horiz-adv-x="1200" d="M503 283 L503 548 L150 548 L150 738 L503 738 L503 1063 L697 1063 L697 738 L1050 738 L1050 548 L697 548 L697 283 L503 283 Z M1050 0 L150 0 L150 190 L1050 190 L1050 0 Z " />
<glyph glyph-name="twosuperior" unicode="&#xb2;" horiz-adv-x="721" d="M62 1273 Q80 1295 106 1320 Q132 1345 167 1366 Q202 1387 248 1400.5 Q294 1414 352 1414 Q417 1414 469.5 1395 Q522 1376 558.5 1341.5 Q595 1307 615 1259 Q635 1211 635 1152 Q635 1115 626.5 1083.5 Q618 1052 602 1022.5 Q586 993 563 965.5 Q540 938 512 910 L348 749 L655 749 L655 588 L101 588 L101 723 L391 1008 Q422 1039 439 1071 Q456 1103 456 1138 Q456 1188 423 1218.5 Q390 1249 337 1249 Q309 1249 286 1242 Q263 1235 243.5 1223.5 Q224 1212 207 1197 Q190 1182 174 1165 L62 1273 Z " />
<glyph glyph-name="threesuperior" unicode="&#xb3;" horiz-adv-x="730" d="M333 1414 Q399 1414 454 1397.5 Q509 1381 548 1350.5 Q587 1320 609 1277 Q631 1234 631 1181 Q631 1116 598.5 1069.5 Q566 1023 509 997 Q574 971 611.5 924 Q649 877 649 812 Q649 752 623 707 Q597 662 553.5 632.5 Q510 603 454.5 588.5 Q399 574 339 574 Q245 574 170.5 604.5 Q96 635 48 692 L148 806 Q183 769 230.5 749 Q278 729 331 729 Q360 729 385 735 Q410 741 429 753 Q448 765 458.5 783 Q469 801 469 826 Q469 850 456.5 867.5 Q444 885 423 897 Q402 909 374 915 Q346 921 315 921 L220 921 L220 1074 L316 1074 Q373 1074 412.5 1097.5 Q452 1121 452 1167 Q452 1212 416 1235.5 Q380 1259 325 1259 Q267 1259 225 1235 Q183 1211 157 1179 L53 1290 Q97 1344 165 1379 Q233 1414 333 1414 Z " />
<glyph glyph-name="acute" unicode="&#xb4;" horiz-adv-x="1000" d="M272 1110 L463 1410 L729 1410 L478 1110 L272 1110 Z " />
<glyph glyph-name="mu" unicode="&#xb5;" horiz-adv-x="1209" d="M154 -400 L154 958 L364 958 L364 425 Q364 304 422.5 239 Q481 174 587 174 Q638 174 683 190.5 Q728 207 761.5 239 Q795 271 815 318 Q835 365 835 427 L835 958 L1045 958 L1045 0 L837 0 L837 117 Q808 75 772.5 47.5 Q737 20 698 4 Q659 -12 619.5 -18.5 Q580 -25 543 -25 Q492 -25 447 -15 Q402 -5 362 13 L362 -400 L154 -400 Z " />
<glyph glyph-name="paragraph" unicode="&#xb6;" horiz-adv-x="1267" d="M568 629 Q462 631 380.5 658.5 Q299 686 244 736 Q189 786 161 856.5 Q133 927 133 1014 Q133 1102 161 1172.5 Q189 1243 244 1292.5 Q299 1342 380.5 1369.5 Q462 1397 568 1399 L568 1400 L734 1400 L734 0 L568 0 L568 629 Z M835 1400 L1001 1400 L1001 0 L835 0 L835 1400 Z " />
<glyph glyph-name="periodcentered" unicode="&#xb7;" horiz-adv-x="655" d="M328 708 Q363 708 394.5 694 Q426 680 450 656 Q474 632 488 600.5 Q502 569 502 534 Q502 499 488 467 Q474 435 450 411 Q426 387 394.5 372.5 Q363 358 328 358 Q293 358 261.5 372.5 Q230 387 206 411 Q182 435 167.5 467 Q153 499 153 534 Q153 569 167.5 600.5 Q182 632 206 656 Q230 680 261.5 694 Q293 708 328 708 Z " />
<glyph glyph-name="cedilla" unicode="&#xb8;" horiz-adv-x="1014" d="M565 -321 L346 -321 L457 7 L666 7 L565 -321 Z " />
<glyph glyph-name="onesuperior" unicode="&#xb9;" horiz-adv-x="565" d="M413 588 L240 588 L240 1173 L48 1099 L48 1270 L413 1413 L413 588 Z " />
<glyph glyph-name="ordmasculine" unicode="&#xba;" horiz-adv-x="868" d="M434 1282 Q513 1282 579.5 1255 Q646 1228 695 1180.5 Q744 1133 771.5 1067.5 Q799 1002 799 926 Q799 850 771.5 785 Q744 720 695 672 Q646 624 579.5 597 Q513 570 434 570 Q355 570 288 597 Q221 624 172.5 672 Q124 720 96.5 785 Q69 850 69 926 Q69 1002 96.5 1067.5 Q124 1133 172.5 1180.5 Q221 1228 288 1255 Q355 1282 434 1282 Z M434 1121 Q393 1121 359 1106.5 Q325 1092 299.5 1066.5 Q274 1041 260 1005 Q246 969 246 926 Q246 883 260 847.5 Q274 812 299.5 786.5 Q325 761 359 746.5 Q393 732 434 732 Q474 732 508.5 746.5 Q543 761 568.5 786.5 Q594 812 608.5 847.5 Q623 883 623 926 Q623 969 608.5 1005 Q594 1041 568.5 1066.5 Q543 1092 508.5 1106.5 Q474 1121 434 1121 Z " />
<glyph glyph-name="guillemotright" unicode="&#xbb;" horiz-adv-x="1062" d="M118 912 L343 912 L532 533 L343 154 L118 154 L307 533 L118 912 Z M543 912 L768 912 L957 533 L768 154 L543 154 L732 533 L543 912 Z " />
<glyph glyph-name="onequarter" unicode="&#xbc;" horiz-adv-x="1701" d="M489 0 L280 0 L1163 1400 L1372 1400 L489 0 Z M1553 301 L1663 301 L1663 143 L1553 143 L1553 0 L1380 0 L1380 143 L1015 143 L1015 267 L1296 811 L1487 811 L1219 301 L1380 301 L1380 519 L1553 519 L1553 301 Z M413 588 L240 588 L240 1173 L48 1099 L48 1270 L413 1413 L413 588 Z " />
<glyph glyph-name="onehalf" unicode="&#xbd;" horiz-adv-x="1778" d="M489 0 L280 0 L1163 1400 L1372 1400 L489 0 Z M1119 685 Q1137 707 1163 732 Q1189 757 1224 778 Q1259 799 1305 812.5 Q1351 826 1409 826 Q1474 826 1526.5 807 Q1579 788 1615.5 753.5 Q1652 719 1672 671 Q1692 623 1692 564 Q1692 527 1683.5 495.5 Q1675 464 1659 434.5 Q1643 405 1620 377.5 Q1597 350 1569 322 L1405 161 L1712 161 L1712 0 L1158 0 L1158 135 L1448 420 Q1479 451 1496 483 Q1513 515 1513 550 Q1513 600 1480 630.5 Q1447 661 1394 661 Q1366 661 1343 654 Q1320 647 1300.5 635.5 Q1281 624 1264 609 Q1247 594 1231 577 L1119 685 Z M413 588 L240 588 L240 1173 L48 1099 L48 1270 L413 1413 L413 588 Z " />
<glyph glyph-name="threequarters" unicode="&#xbe;" horiz-adv-x="1836" d="M624 0 L415 0 L1298 1400 L1507 1400 L624 0 Z M1688 301 L1798 301 L1798 143 L1688 143 L1688 0 L1515 0 L1515 143 L1150 143 L1150 267 L1431 811 L1622 811 L1354 301 L1515 301 L1515 519 L1688 519 L1688 301 Z M333 1414 Q399 1414 454 1397.5 Q509 1381 548 1350.5 Q587 1320 609 1277 Q631 1234 631 1181 Q631 1116 598.5 1069.5 Q566 1023 509 997 Q574 971 611.5 924 Q649 877 649 812 Q649 752 623 707 Q597 662 553.5 632.5 Q510 603 454.5 588.5 Q399 574 339 574 Q245 574 170.5 604.5 Q96 635 48 692 L148 806 Q183 769 230.5 749 Q278 729 331 729 Q360 729 385 735 Q410 741 429 753 Q448 765 458.5 783 Q469 801 469 826 Q469 850 456.5 867.5 Q444 885 423 897 Q402 909 374 915 Q346 921 315 921 L220 921 L220 1074 L316 1074 Q373 1074 412.5 1097.5 Q452 1121 452 1167 Q452 1212 416 1235.5 Q380 1259 325 1259 Q267 1259 225 1235 Q183 1211 157 1179 L53 1290 Q97 1344 165 1379 Q233 1414 333 1414 Z " />
<glyph glyph-name="questiondown" unicode="&#xbf;" horiz-adv-x="890" d="M698 496 L698 174 L609 174 Q448 174 362 116.5 Q276 59 276 -50 Q276 -148 360.5 -201 Q445 -254 604 -254 Q649 -254 690.5 -251 Q732 -248 764 -245 L782 -460 Q763 -463 739.5 -465.5 Q716 -468 691 -470 Q666 -472 641 -473 Q616 -474 594 -474 Q462 -474 359.5 -444.5 Q257 -415 186.5 -361 Q116 -307 79 -230.5 Q42 -154 42 -59 Q42 122 159 230.5 Q276 339 499 367 L508 496 L698 496 Z M603 633 Q568 633 536.5 647 Q505 661 481 685 Q457 709 443 740.5 Q429 772 429 807 Q429 842 443 874 Q457 906 481 930 Q505 954 536.5 968.5 Q568 983 603 983 Q638 983 669.5 968.5 Q701 954 725 930 Q749 906 763.5 874 Q778 842 778 807 Q778 772 763.5 740.5 Q749 709 725 685 Q701 661 669.5 647 Q638 633 603 633 Z " />
<glyph glyph-name="Agrave" unicode="&#xc0;" horiz-adv-x="1448" d="M1418 0 L1175 0 L1037 357 L403 357 L265 0 L30 0 L583 1400 L865 1400 L1418 0 Z M486 571 L954 571 L720 1175 L486 571 Z M410 1825 L676 1825 L867 1525 L661 1525 L410 1825 Z " />
<glyph glyph-name="Aacute" unicode="&#xc1;" horiz-adv-x="1448" d="M1418 0 L1175 0 L1037 357 L403 357 L265 0 L30 0 L583 1400 L865 1400 L1418 0 Z M486 571 L954 571 L720 1175 L486 571 Z M566 1525 L757 1825 L1023 1825 L772 1525 L566 1525 Z " />
<glyph glyph-name="Acircumflex" unicode="&#xc2;" horiz-adv-x="1448" d="M1418 0 L1175 0 L1037 357 L403 357 L265 0 L30 0 L583 1400 L865 1400 L1418 0 Z M486 571 L954 571 L720 1175 L486 571 Z M855 1515 L724 1678 L593 1515 L370 1515 L581 1815 L867 1815 L1078 1515 L855 1515 Z " />
<glyph glyph-name="Atilde" unicode="&#xc3;" horiz-adv-x="1448" d="M1418 0 L1175 0 L1037 357 L403 357 L265 0 L30 0 L583 1400 L865 1400 L1418 0 Z M486 571 L954 571 L720 1175 L486 571 Z M351 1679 Q402 1736 458 1763.5 Q514 1791 591 1791 Q642 1791 681 1780.5 Q720 1770 750.5 1757 Q781 1744 806.5 1733.5 Q832 1723 856 1723 Q889 1723 919.5 1739.5 Q950 1756 988 1788 L1096 1655 Q1045 1598 989 1570.5 Q933 1543 856 1543 Q806 1543 767.5 1553.5 Q729 1564 698.5 1577 Q668 1590 642 1600.5 Q616 1611 591 1611 Q558 1611 527.5 1594.5 Q497 1578 459 1546 L351 1679 Z " />
<glyph glyph-name="Adieresis" unicode="&#xc4;" horiz-adv-x="1448" d="M1418 0 L1175 0 L1037 357 L403 357 L265 0 L30 0 L583 1400 L865 1400 L1418 0 Z M486 571 L954 571 L720 1175 L486 571 Z M523 1814 Q554 1814 581 1802.5 Q608 1791 628 1771 Q648 1751 659.5 1724 Q671 1697 671 1666 Q671 1635 659.5 1608 Q648 1581 628 1561.5 Q608 1542 581 1531 Q554 1520 523 1520 Q492 1520 465 1531 Q438 1542 418.5 1561.5 Q399 1581 388 1608 Q377 1635 377 1666 Q377 1697 388 1724 Q399 1751 418.5 1771 Q438 1791 465 1802.5 Q492 1814 523 1814 Z M923 1814 Q954 1814 981 1802.5 Q1008 1791 1028 1771 Q1048 1751 1059.5 1724 Q1071 1697 1071 1666 Q1071 1635 1059.5 1608 Q1048 1581 1028 1561.5 Q1008 1542 981 1531 Q954 1520 923 1520 Q892 1520 865 1531 Q838 1542 818.5 1561.5 Q799 1581 788 1608 Q777 1635 777 1666 Q777 1697 788 1724 Q799 1751 818.5 1771 Q838 1791 865 1802.5 Q892 1814 923 1814 Z " />
<glyph glyph-name="Aring" unicode="&#xc5;" horiz-adv-x="1448" d="M1418 0 L1175 0 L1037 357 L403 357 L265 0 L30 0 L583 1400 L865 1400 L1418 0 Z M486 571 L954 571 L720 1175 L486 571 Z M724 1498 Q673 1498 628 1517 Q583 1536 549 1569.5 Q515 1603 495.5 1647.5 Q476 1692 476 1743 Q476 1793 495.5 1837.5 Q515 1882 549 1915 Q583 1948 628 1967.5 Q673 1987 724 1987 Q775 1987 820.5 1967.5 Q866 1948 900 1915 Q934 1882 953.5 1837.5 Q973 1793 973 1743 Q973 1692 953.5 1647.5 Q934 1603 900 1569.5 Q866 1536 820.5 1517 Q775 1498 724 1498 Z M724 1630 Q746 1630 766 1638.5 Q786 1647 801 1662.5 Q816 1678 825 1698.5 Q834 1719 834 1743 Q834 1766 825 1786.5 Q816 1807 801 1822 Q786 1837 766 1845.5 Q746 1854 724 1854 Q702 1854 682 1845.5 Q662 1837 647 1822 Q632 1807 623.5 1786.5 Q615 1766 615 1743 Q615 1719 623.5 1698.5 Q632 1678 647 1662.5 Q662 1647 682 1638.5 Q702 1630 724 1630 Z " />
<glyph glyph-name="AE" unicode="&#xc6;" horiz-adv-x="2317" d="M2165 0 L1144 0 L1144 321 L538 321 L297 0 L24 0 L1081 1400 L2152 1400 L2152 1188 L1370 1188 L1370 811 L2125 811 L2125 599 L1370 599 L1370 212 L2165 212 L2165 0 Z M1144 535 L1144 1127 L699 535 L1144 535 Z " />
<glyph glyph-name="Ccedilla" unicode="&#xc7;" horiz-adv-x="1532" d="M847 1426 Q940 1426 1027 1406 Q1114 1386 1189 1348 Q1264 1310 1325 1255.5 Q1386 1201 1427 1133 L1238 1007 Q1174 1101 1073.5 1155 Q973 1209 847 1209 Q740 1209 649 1172 Q558 1135 492 1068 Q426 1001 388.5 907 Q351 813 351 700 Q351 587 388.5 493 Q426 399 492 332 Q558 265 649 228 Q740 191 847 191 Q972 191 1071.5 244 Q1171 297 1237 392 L1421 257 Q1376 191 1315.5 139 Q1255 87 1181.5 50 Q1108 13 1023.5 -6.5 Q939 -26 847 -26 Q686 -26 551 28.5 Q416 83 319 180 Q222 277 168 410 Q114 543 114 700 Q114 857 168 990 Q222 1123 319 1220 Q416 1317 551 1371.5 Q686 1426 847 1426 Z M860 -321 L631 -321 L744 7 L963 7 L860 -321 Z " />
<glyph glyph-name="Egrave" unicode="&#xc8;" horiz-adv-x="1363" d="M1211 0 L190 0 L190 1400 L1198 1400 L1198 1188 L416 1188 L416 811 L1171 811 L1171 599 L416 599 L416 212 L1211 212 L1211 0 Z M377 1825 L643 1825 L834 1525 L628 1525 L377 1825 Z " />
<glyph glyph-name="Eacute" unicode="&#xc9;" horiz-adv-x="1363" d="M1211 0 L190 0 L190 1400 L1198 1400 L1198 1188 L416 1188 L416 811 L1171 811 L1171 599 L416 599 L416 212 L1211 212 L1211 0 Z M533 1525 L724 1825 L990 1825 L739 1525 L533 1525 Z " />
<glyph glyph-name="Ecircumflex" unicode="&#xca;" horiz-adv-x="1363" d="M1211 0 L190 0 L190 1400 L1198 1400 L1198 1188 L416 1188 L416 811 L1171 811 L1171 599 L416 599 L416 212 L1211 212 L1211 0 Z M822 1515 L691 1678 L560 1515 L337 1515 L548 1815 L834 1815 L1045 1515 L822 1515 Z " />
<glyph glyph-name="Edieresis" unicode="&#xcb;" horiz-adv-x="1363" d="M1211 0 L190 0 L190 1400 L1198 1400 L1198 1188 L416 1188 L416 811 L1171 811 L1171 599 L416 599 L416 212 L1211 212 L1211 0 Z M490 1814 Q521 1814 548 1802.5 Q575 1791 595 1771 Q615 1751 626.5 1724 Q638 1697 638 1666 Q638 1635 626.5 1608 Q615 1581 595 1561.5 Q575 1542 548 1531 Q521 1520 490 1520 Q459 1520 432 1531 Q405 1542 385.5 1561.5 Q366 1581 355 1608 Q344 1635 344 1666 Q344 1697 355 1724 Q366 1751 385.5 1771 Q405 1791 432 1802.5 Q459 1814 490 1814 Z M890 1814 Q921 1814 948 1802.5 Q975 1791 995 1771 Q1015 1751 1026.5 1724 Q1038 1697 1038 1666 Q1038 1635 1026.5 1608 Q1015 1581 995 1561.5 Q975 1542 948 1531 Q921 1520 890 1520 Q859 1520 832 1531 Q805 1542 785.5 1561.5 Q766 1581 755 1608 Q744 1635 744 1666 Q744 1697 755 1724 Q766 1751 785.5 1771 Q805 1791 832 1802.5 Q859 1814 890 1814 Z " />
<glyph glyph-name="Igrave" unicode="&#xcc;" horiz-adv-x="606" d="M416 0 L190 0 L190 1400 L416 1400 L416 0 Z M-11 1825 L255 1825 L446 1525 L240 1525 L-11 1825 Z " />
<glyph glyph-name="Iacute" unicode="&#xcd;" horiz-adv-x="606" d="M416 0 L190 0 L190 1400 L416 1400 L416 0 Z M145 1525 L336 1825 L602 1825 L351 1525 L145 1525 Z " />
<glyph glyph-name="Icircumflex" unicode="&#xce;" horiz-adv-x="606" d="M416 0 L190 0 L190 1400 L416 1400 L416 0 Z M434 1515 L303 1678 L172 1515 L-51 1515 L160 1815 L446 1815 L657 1515 L434 1515 Z " />
<glyph glyph-name="Idieresis" unicode="&#xcf;" horiz-adv-x="606" d="M416 0 L190 0 L190 1400 L416 1400 L416 0 Z M102 1814 Q133 1814 160 1802.5 Q187 1791 207 1771 Q227 1751 238.5 1724 Q250 1697 250 1666 Q250 1635 238.5 1608 Q227 1581 207 1561.5 Q187 1542 160 1531 Q133 1520 102 1520 Q71 1520 44 1531 Q17 1542 -2.5 1561.5 Q-22 1581 -33 1608 Q-44 1635 -44 1666 Q-44 1697 -33 1724 Q-22 1751 -2.5 1771 Q17 1791 44 1802.5 Q71 1814 102 1814 Z M502 1814 Q533 1814 560 1802.5 Q587 1791 607 1771 Q627 1751 638.5 1724 Q650 1697 650 1666 Q650 1635 638.5 1608 Q627 1581 607 1561.5 Q587 1542 560 1531 Q533 1520 502 1520 Q471 1520 444 1531 Q417 1542 397.5 1561.5 Q378 1581 367 1608 Q356 1635 356 1666 Q356 1697 367 1724 Q378 1751 397.5 1771 Q417 1791 444 1802.5 Q471 1814 502 1814 Z " />
<glyph glyph-name="Eth" unicode="&#xd0;" horiz-adv-x="1701" d="M860 1400 Q1024 1400 1158 1350 Q1292 1300 1387.5 1208.5 Q1483 1117 1535 987.5 Q1587 858 1587 700 Q1587 542 1535 412.5 Q1483 283 1387.5 191.5 Q1292 100 1158 50 Q1024 0 860 0 L304 0 L304 598 L114 598 L114 812 L304 812 L304 1400 L860 1400 Z M904 598 L530 598 L530 214 L860 214 Q983 214 1075 250.5 Q1167 287 1228 351.5 Q1289 416 1319.5 505 Q1350 594 1350 700 Q1350 807 1319.5 896 Q1289 985 1228 1049.5 Q1167 1114 1075 1150 Q983 1186 860 1186 L530 1186 L530 812 L904 812 L904 598 Z " />
<glyph glyph-name="Ntilde" unicode="&#xd1;" horiz-adv-x="1592" d="M1402 0 L1198 0 L417 1013 L416 0 L190 0 L190 1400 L394 1400 L1176 387 L1176 1400 L1402 1400 L1402 0 Z M423 1679 Q474 1736 530 1763.5 Q586 1791 663 1791 Q714 1791 753 1780.5 Q792 1770 822.5 1757 Q853 1744 878.5 1733.5 Q904 1723 928 1723 Q961 1723 991.5 1739.5 Q1022 1756 1060 1788 L1168 1655 Q1117 1598 1061 1570.5 Q1005 1543 928 1543 Q878 1543 839.5 1553.5 Q801 1564 770.5 1577 Q740 1590 714 1600.5 Q688 1611 663 1611 Q630 1611 599.5 1594.5 Q569 1578 531 1546 L423 1679 Z " />
<glyph glyph-name="Ograve" unicode="&#xd2;" horiz-adv-x="1694" d="M847 1426 Q1008 1426 1143 1371.5 Q1278 1317 1375 1220 Q1472 1123 1526 990 Q1580 857 1580 700 Q1580 543 1526 410 Q1472 277 1375 180 Q1278 83 1143 28.5 Q1008 -26 847 -26 Q686 -26 551 28.5 Q416 83 319 180 Q222 277 168 410 Q114 543 114 700 Q114 857 168 990 Q222 1123 319 1220 Q416 1317 551 1371.5 Q686 1426 847 1426 Z M847 1209 Q740 1209 649 1172 Q558 1135 492 1068 Q426 1001 388.5 907 Q351 813 351 700 Q351 587 388.5 493 Q426 399 492 332 Q558 265 649 228 Q740 191 847 191 Q954 191 1045 228 Q1136 265 1202 332 Q1268 399 1305.5 493 Q1343 587 1343 700 Q1343 813 1305.5 907 Q1268 1001 1202 1068 Q1136 1135 1045 1172 Q954 1209 847 1209 Z M533 1825 L799 1825 L990 1525 L784 1525 L533 1825 Z " />
<glyph glyph-name="Oacute" unicode="&#xd3;" horiz-adv-x="1694" d="M847 1426 Q1008 1426 1143 1371.5 Q1278 1317 1375 1220 Q1472 1123 1526 990 Q1580 857 1580 700 Q1580 543 1526 410 Q1472 277 1375 180 Q1278 83 1143 28.5 Q1008 -26 847 -26 Q686 -26 551 28.5 Q416 83 319 180 Q222 277 168 410 Q114 543 114 700 Q114 857 168 990 Q222 1123 319 1220 Q416 1317 551 1371.5 Q686 1426 847 1426 Z M847 1209 Q740 1209 649 1172 Q558 1135 492 1068 Q426 1001 388.5 907 Q351 813 351 700 Q351 587 388.5 493 Q426 399 492 332 Q558 265 649 228 Q740 191 847 191 Q954 191 1045 228 Q1136 265 1202 332 Q1268 399 1305.5 493 Q1343 587 1343 700 Q1343 813 1305.5 907 Q1268 1001 1202 1068 Q1136 1135 1045 1172 Q954 1209 847 1209 Z M689 1525 L880 1825 L1146 1825 L895 1525 L689 1525 Z " />
<glyph glyph-name="Ocircumflex" unicode="&#xd4;" horiz-adv-x="1694" d="M847 1426 Q1008 1426 1143 1371.5 Q1278 1317 1375 1220 Q1472 1123 1526 990 Q1580 857 1580 700 Q1580 543 1526 410 Q1472 277 1375 180 Q1278 83 1143 28.5 Q1008 -26 847 -26 Q686 -26 551 28.5 Q416 83 319 180 Q222 277 168 410 Q114 543 114 700 Q114 857 168 990 Q222 1123 319 1220 Q416 1317 551 1371.5 Q686 1426 847 1426 Z M847 1209 Q740 1209 649 1172 Q558 1135 492 1068 Q426 1001 388.5 907 Q351 813 351 700 Q351 587 388.5 493 Q426 399 492 332 Q558 265 649 228 Q740 191 847 191 Q954 191 1045 228 Q1136 265 1202 332 Q1268 399 1305.5 493 Q1343 587 1343 700 Q1343 813 1305.5 907 Q1268 1001 1202 1068 Q1136 1135 1045 1172 Q954 1209 847 1209 Z M978 1515 L847 1678 L716 1515 L493 1515 L704 1815 L990 1815 L1201 1515 L978 1515 Z " />
<glyph glyph-name="Otilde" unicode="&#xd5;" horiz-adv-x="1694" d="M847 1426 Q1008 1426 1143 1371.5 Q1278 1317 1375 1220 Q1472 1123 1526 990 Q1580 857 1580 700 Q1580 543 1526 410 Q1472 277 1375 180 Q1278 83 1143 28.5 Q1008 -26 847 -26 Q686 -26 551 28.5 Q416 83 319 180 Q222 277 168 410 Q114 543 114 700 Q114 857 168 990 Q222 1123 319 1220 Q416 1317 551 1371.5 Q686 1426 847 1426 Z M847 1209 Q740 1209 649 1172 Q558 1135 492 1068 Q426 1001 388.5 907 Q351 813 351 700 Q351 587 388.5 493 Q426 399 492 332 Q558 265 649 228 Q740 191 847 191 Q954 191 1045 228 Q1136 265 1202 332 Q1268 399 1305.5 493 Q1343 587 1343 700 Q1343 813 1305.5 907 Q1268 1001 1202 1068 Q1136 1135 1045 1172 Q954 1209 847 1209 Z M474 1679 Q525 1736 581 1763.5 Q637 1791 714 1791 Q765 1791 804 1780.5 Q843 1770 873.5 1757 Q904 1744 929.5 1733.5 Q955 1723 979 1723 Q1012 1723 1042.5 1739.5 Q1073 1756 1111 1788 L1219 1655 Q1168 1598 1112 1570.5 Q1056 1543 979 1543 Q929 1543 890.5 1553.5 Q852 1564 821.5 1577 Q791 1590 765 1600.5 Q739 1611 714 1611 Q681 1611 650.5 1594.5 Q620 1578 582 1546 L474 1679 Z " />
<glyph glyph-name="Odieresis" unicode="&#xd6;" horiz-adv-x="1694" d="M847 1426 Q1008 1426 1143 1371.5 Q1278 1317 1375 1220 Q1472 1123 1526 990 Q1580 857 1580 700 Q1580 543 1526 410 Q1472 277 1375 180 Q1278 83 1143 28.5 Q1008 -26 847 -26 Q686 -26 551 28.5 Q416 83 319 180 Q222 277 168 410 Q114 543 114 700 Q114 857 168 990 Q222 1123 319 1220 Q416 1317 551 1371.5 Q686 1426 847 1426 Z M847 1209 Q740 1209 649 1172 Q558 1135 492 1068 Q426 1001 388.5 907 Q351 813 351 700 Q351 587 388.5 493 Q426 399 492 332 Q558 265 649 228 Q740 191 847 191 Q954 191 1045 228 Q1136 265 1202 332 Q1268 399 1305.5 493 Q1343 587 1343 700 Q1343 813 1305.5 907 Q1268 1001 1202 1068 Q1136 1135 1045 1172 Q954 1209 847 1209 Z M646 1814 Q677 1814 704 1802.5 Q731 1791 751 1771 Q771 1751 782.5 1724 Q794 1697 794 1666 Q794 1635 782.5 1608 Q771 1581 751 1561.5 Q731 1542 704 1531 Q677 1520 646 1520 Q615 1520 588 1531 Q561 1542 541.5 1561.5 Q522 1581 511 1608 Q500 1635 500 1666 Q500 1697 511 1724 Q522 1751 541.5 1771 Q561 1791 588 1802.5 Q615 1814 646 1814 Z M1046 1814 Q1077 1814 1104 1802.5 Q1131 1791 1151 1771 Q1171 1751 1182.5 1724 Q1194 1697 1194 1666 Q1194 1635 1182.5 1608 Q1171 1581 1151 1561.5 Q1131 1542 1104 1531 Q1077 1520 1046 1520 Q1015 1520 988 1531 Q961 1542 941.5 1561.5 Q922 1581 911 1608 Q900 1635 900 1666 Q900 1697 911 1724 Q922 1751 941.5 1771 Q961 1791 988 1802.5 Q1015 1814 1046 1814 Z " />
<glyph glyph-name="multiply" unicode="&#xd7;" horiz-adv-x="1200" d="M179 247 L463 531 L177 817 L316 956 L602 670 L886 954 L1021 819 L737 535 L1023 249 L884 110 L598 396 L314 112 L179 247 Z " />
<glyph glyph-name="Oslash" unicode="&#xd8;" horiz-adv-x="1694" d="M847 1426 Q976 1426 1087.5 1391 Q1199 1356 1290 1291 L1424 1425 L1573 1276 L1440 1143 Q1507 1052 1543.5 940 Q1580 828 1580 700 Q1580 543 1526 410 Q1472 277 1375 180 Q1278 83 1143 28.5 Q1008 -26 847 -26 Q717 -26 606 9 Q495 44 404 108 L271 -25 L122 123 L254 255 Q187 346 150.5 458 Q114 570 114 700 Q114 857 168 990 Q222 1123 319 1220 Q416 1317 551 1371.5 Q686 1426 847 1426 Z M847 1209 Q740 1209 649 1172 Q558 1135 492 1068 Q426 1001 388.5 907 Q351 813 351 700 Q351 620 369 550.5 Q387 481 422 423 L1127 1128 Q1068 1167 997.5 1188 Q927 1209 847 1209 Z M1343 700 Q1343 779 1324.5 848 Q1306 917 1272 975 L567 270 Q627 232 697 211.5 Q767 191 847 191 Q954 191 1045 228 Q1136 265 1202 332 Q1268 399 1305.5 493 Q1343 587 1343 700 Z " />
<glyph glyph-name="Ugrave" unicode="&#xd9;" horiz-adv-x="1530" d="M1359 552 Q1359 406 1312.5 297.5 Q1266 189 1186 117.5 Q1106 46 997.5 10.5 Q889 -25 765 -25 Q641 -25 532.5 10.5 Q424 46 344 117.5 Q264 189 217.5 297.5 Q171 406 171 552 L171 1400 L397 1400 L397 569 Q397 469 424 397.5 Q451 326 499.5 280.5 Q548 235 616 213.5 Q684 192 765 192 Q846 192 914 213.5 Q982 235 1030.5 280.5 Q1079 326 1106 397.5 Q1133 469 1133 569 L1133 1400 L1359 1400 L1359 552 Z M451 1825 L717 1825 L908 1525 L702 1525 L451 1825 Z " />
<glyph glyph-name="Uacute" unicode="&#xda;" horiz-adv-x="1530" d="M1359 552 Q1359 406 1312.5 297.5 Q1266 189 1186 117.5 Q1106 46 997.5 10.5 Q889 -25 765 -25 Q641 -25 532.5 10.5 Q424 46 344 117.5 Q264 189 217.5 297.5 Q171 406 171 552 L171 1400 L397 1400 L397 569 Q397 469 424 397.5 Q451 326 499.5 280.5 Q548 235 616 213.5 Q684 192 765 192 Q846 192 914 213.5 Q982 235 1030.5 280.5 Q1079 326 1106 397.5 Q1133 469 1133 569 L1133 1400 L1359 1400 L1359 552 Z M607 1525 L798 1825 L1064 1825 L813 1525 L607 1525 Z " />
<glyph glyph-name="Ucircumflex" unicode="&#xdb;" horiz-adv-x="1530" d="M1359 552 Q1359 406 1312.5 297.5 Q1266 189 1186 117.5 Q1106 46 997.5 10.5 Q889 -25 765 -25 Q641 -25 532.5 10.5 Q424 46 344 117.5 Q264 189 217.5 297.5 Q171 406 171 552 L171 1400 L397 1400 L397 569 Q397 469 424 397.5 Q451 326 499.5 280.5 Q548 235 616 213.5 Q684 192 765 192 Q846 192 914 213.5 Q982 235 1030.5 280.5 Q1079 326 1106 397.5 Q1133 469 1133 569 L1133 1400 L1359 1400 L1359 552 Z M896 1515 L765 1678 L634 1515 L411 1515 L622 1815 L908 1815 L1119 1515 L896 1515 Z " />
<glyph glyph-name="Udieresis" unicode="&#xdc;" horiz-adv-x="1530" d="M1359 552 Q1359 406 1312.5 297.5 Q1266 189 1186 117.5 Q1106 46 997.5 10.5 Q889 -25 765 -25 Q641 -25 532.5 10.5 Q424 46 344 117.5 Q264 189 217.5 297.5 Q171 406 171 552 L171 1400 L397 1400 L397 569 Q397 469 424 397.5 Q451 326 499.5 280.5 Q548 235 616 213.5 Q684 192 765 192 Q846 192 914 213.5 Q982 235 1030.5 280.5 Q1079 326 1106 397.5 Q1133 469 1133 569 L1133 1400 L1359 1400 L1359 552 Z M564 1814 Q595 1814 622 1802.5 Q649 1791 669 1771 Q689 1751 700.5 1724 Q712 1697 712 1666 Q712 1635 700.5 1608 Q689 1581 669 1561.5 Q649 1542 622 1531 Q595 1520 564 1520 Q533 1520 506 1531 Q479 1542 459.5 1561.5 Q440 1581 429 1608 Q418 1635 418 1666 Q418 1697 429 1724 Q440 1751 459.5 1771 Q479 1791 506 1802.5 Q533 1814 564 1814 Z M964 1814 Q995 1814 1022 1802.5 Q1049 1791 1069 1771 Q1089 1751 1100.5 1724 Q1112 1697 1112 1666 Q1112 1635 1100.5 1608 Q1089 1581 1069 1561.5 Q1049 1542 1022 1531 Q995 1520 964 1520 Q933 1520 906 1531 Q879 1542 859.5 1561.5 Q840 1581 829 1608 Q818 1635 818 1666 Q818 1697 829 1724 Q840 1751 859.5 1771 Q879 1791 906 1802.5 Q933 1814 964 1814 Z " />
<glyph glyph-name="Yacute" unicode="&#xdd;" horiz-adv-x="1328" d="M779 568 L779 0 L553 0 L553 572 L9 1400 L279 1400 L667 773 L1056 1400 L1319 1400 L779 568 Z M509 1525 L700 1825 L966 1825 L715 1525 L509 1525 Z " />
<glyph glyph-name="Thorn" unicode="&#xde;" horiz-adv-x="1324" d="M416 1140 L733 1140 Q854 1140 946.5 1110.5 Q1039 1081 1102 1026 Q1165 971 1197 892 Q1229 813 1229 715 Q1229 617 1197 538 Q1165 459 1102 404 Q1039 349 946.5 319.5 Q854 290 733 290 L416 290 L416 0 L190 0 L190 1400 L416 1400 L416 1140 Z M416 927 L416 503 L727 503 Q865 503 929.5 554.5 Q994 606 994 715 Q994 824 929.5 875.5 Q865 927 727 927 L416 927 Z " />
<glyph glyph-name="germandbls" unicode="&#xdf;" horiz-adv-x="1241" d="M156 1024 Q156 1109 183 1188.5 Q210 1268 268.5 1329.5 Q327 1391 417.5 1428 Q508 1465 636 1465 Q733 1465 818 1436.5 Q903 1408 966.5 1356 Q1030 1304 1067 1231.5 Q1104 1159 1104 1071 Q1104 1009 1086.5 954 Q1069 899 1038.5 855 Q1008 811 966 780 Q924 749 875 735 Q930 723 979.5 691.5 Q1029 660 1066 615 Q1103 570 1124.5 514 Q1146 458 1146 397 Q1146 298 1111.5 220 Q1077 142 1017.5 87.5 Q958 33 877.5 4 Q797 -25 706 -25 Q632 -25 581 -17.5 Q530 -10 484 4 L524 198 Q559 184 596.5 177 Q634 170 673 170 Q798 170 864.5 228 Q931 286 931 404 Q931 467 908 509.5 Q885 552 842 578.5 Q799 605 739 616 Q679 627 605 627 L576 627 L576 817 L577 817 Q635 817 691.5 825 Q748 833 791.5 857 Q835 881 862 924.5 Q889 968 889 1039 Q889 1099 868 1142.5 Q847 1186 812 1213.5 Q777 1241 730 1254.5 Q683 1268 632 1268 Q567 1268 517.5 1248.5 Q468 1229 434 1194.5 Q400 1160 383 1113 Q366 1066 366 1010 L366 0 L156 0 L156 1024 Z " />
<glyph glyph-name="agrave" unicode="&#xe0;" horiz-adv-x="1248" d="M1084 0 L875 0 L875 115 Q825 51 751 13 Q677 -25 574 -25 Q473 -25 386 12.5 Q299 50 234 117 Q169 184 132 276.5 Q95 369 95 479 Q95 589 132 681.5 Q169 774 234 841 Q299 908 386 945.5 Q473 983 574 983 Q677 983 751 944.5 Q825 906 875 842 L875 958 L1084 958 L1084 0 Z M599 786 Q531 786 477.5 761.5 Q424 737 387 695.5 Q350 654 330 598 Q310 542 310 479 Q310 416 330 360 Q350 304 387 262.5 Q424 221 477.5 196.5 Q531 172 599 172 Q664 172 717 195.5 Q770 219 808 260 Q846 301 867 357 Q888 413 888 479 Q888 545 867 601 Q846 657 808 698 Q770 739 717 762.5 Q664 786 599 786 Z M302 1410 L568 1410 L759 1110 L553 1110 L302 1410 Z " />
<glyph glyph-name="aacute" unicode="&#xe1;" horiz-adv-x="1248" d="M1084 0 L875 0 L875 115 Q825 51 751 13 Q677 -25 574 -25 Q473 -25 386 12.5 Q299 50 234 117 Q169 184 132 276.5 Q95 369 95 479 Q95 589 132 681.5 Q169 774 234 841 Q299 908 386 945.5 Q473 983 574 983 Q677 983 751 944.5 Q825 906 875 842 L875 958 L1084 958 L1084 0 Z M599 786 Q531 786 477.5 761.5 Q424 737 387 695.5 Q350 654 330 598 Q310 542 310 479 Q310 416 330 360 Q350 304 387 262.5 Q424 221 477.5 196.5 Q531 172 599 172 Q664 172 717 195.5 Q770 219 808 260 Q846 301 867 357 Q888 413 888 479 Q888 545 867 601 Q846 657 808 698 Q770 739 717 762.5 Q664 786 599 786 Z M470 1110 L661 1410 L927 1410 L676 1110 L470 1110 Z " />
<glyph glyph-name="acircumflex" unicode="&#xe2;" horiz-adv-x="1248" d="M1084 0 L875 0 L875 115 Q825 51 751 13 Q677 -25 574 -25 Q473 -25 386 12.5 Q299 50 234 117 Q169 184 132 276.5 Q95 369 95 479 Q95 589 132 681.5 Q169 774 234 841 Q299 908 386 945.5 Q473 983 574 983 Q677 983 751 944.5 Q825 906 875 842 L875 958 L1084 958 L1084 0 Z M599 786 Q531 786 477.5 761.5 Q424 737 387 695.5 Q350 654 330 598 Q310 542 310 479 Q310 416 330 360 Q350 304 387 262.5 Q424 221 477.5 196.5 Q531 172 599 172 Q664 172 717 195.5 Q770 219 808 260 Q846 301 867 357 Q888 413 888 479 Q888 545 867 601 Q846 657 808 698 Q770 739 717 762.5 Q664 786 599 786 Z M752 1100 L621 1263 L490 1100 L267 1100 L478 1400 L764 1400 L975 1100 L752 1100 Z " />
<glyph glyph-name="atilde" unicode="&#xe3;" horiz-adv-x="1248" d="M1084 0 L875 0 L875 115 Q825 51 751 13 Q677 -25 574 -25 Q473 -25 386 12.5 Q299 50 234 117 Q169 184 132 276.5 Q95 369 95 479 Q95 589 132 681.5 Q169 774 234 841 Q299 908 386 945.5 Q473 983 574 983 Q677 983 751 944.5 Q825 906 875 842 L875 958 L1084 958 L1084 0 Z M599 786 Q531 786 477.5 761.5 Q424 737 387 695.5 Q350 654 330 598 Q310 542 310 479 Q310 416 330 360 Q350 304 387 262.5 Q424 221 477.5 196.5 Q531 172 599 172 Q664 172 717 195.5 Q770 219 808 260 Q846 301 867 357 Q888 413 888 479 Q888 545 867 601 Q846 657 808 698 Q770 739 717 762.5 Q664 786 599 786 Z M250 1264 Q301 1321 357 1348.5 Q413 1376 490 1376 Q541 1376 580 1365.5 Q619 1355 649.5 1342 Q680 1329 705.5 1318.5 Q731 1308 755 1308 Q788 1308 818.5 1324.5 Q849 1341 887 1373 L995 1240 Q944 1183 888 1155.5 Q832 1128 755 1128 Q705 1128 666.5 1138.5 Q628 1149 597.5 1162 Q567 1175 541 1185.5 Q515 1196 490 1196 Q457 1196 426.5 1179.5 Q396 1163 358 1131 L250 1264 Z " />
<glyph glyph-name="adieresis" unicode="&#xe4;" horiz-adv-x="1248" d="M1084 0 L875 0 L875 115 Q825 51 751 13 Q677 -25 574 -25 Q473 -25 386 12.5 Q299 50 234 117 Q169 184 132 276.5 Q95 369 95 479 Q95 589 132 681.5 Q169 774 234 841 Q299 908 386 945.5 Q473 983 574 983 Q677 983 751 944.5 Q825 906 875 842 L875 958 L1084 958 L1084 0 Z M599 786 Q531 786 477.5 761.5 Q424 737 387 695.5 Q350 654 330 598 Q310 542 310 479 Q310 416 330 360 Q350 304 387 262.5 Q424 221 477.5 196.5 Q531 172 599 172 Q664 172 717 195.5 Q770 219 808 260 Q846 301 867 357 Q888 413 888 479 Q888 545 867 601 Q846 657 808 698 Q770 739 717 762.5 Q664 786 599 786 Z M420 1399 Q451 1399 478 1387.5 Q505 1376 525 1356 Q545 1336 556.5 1309 Q568 1282 568 1251 Q568 1220 556.5 1193 Q545 1166 525 1146.5 Q505 1127 478 1116 Q451 1105 420 1105 Q389 1105 362 1116 Q335 1127 315.5 1146.5 Q296 1166 285 1193 Q274 1220 274 1251 Q274 1282 285 1309 Q296 1336 315.5 1356 Q335 1376 362 1387.5 Q389 1399 420 1399 Z M820 1399 Q851 1399 878 1387.5 Q905 1376 925 1356 Q945 1336 956.5 1309 Q968 1282 968 1251 Q968 1220 956.5 1193 Q945 1166 925 1146.5 Q905 1127 878 1116 Q851 1105 820 1105 Q789 1105 762 1116 Q735 1127 715.5 1146.5 Q696 1166 685 1193 Q674 1220 674 1251 Q674 1282 685 1309 Q696 1336 715.5 1356 Q735 1376 762 1387.5 Q789 1399 820 1399 Z " />
<glyph glyph-name="aring" unicode="&#xe5;" horiz-adv-x="1248" d="M1084 0 L875 0 L875 115 Q825 51 751 13 Q677 -25 574 -25 Q473 -25 386 12.5 Q299 50 234 117 Q169 184 132 276.5 Q95 369 95 479 Q95 589 132 681.5 Q169 774 234 841 Q299 908 386 945.5 Q473 983 574 983 Q677 983 751 944.5 Q825 906 875 842 L875 958 L1084 958 L1084 0 Z M599 786 Q531 786 477.5 761.5 Q424 737 387 695.5 Q350 654 330 598 Q310 542 310 479 Q310 416 330 360 Q350 304 387 262.5 Q424 221 477.5 196.5 Q531 172 599 172 Q664 172 717 195.5 Q770 219 808 260 Q846 301 867 357 Q888 413 888 479 Q888 545 867 601 Q846 657 808 698 Q770 739 717 762.5 Q664 786 599 786 Z M620 1083 Q569 1083 524 1102 Q479 1121 445 1154.5 Q411 1188 391.5 1232.5 Q372 1277 372 1328 Q372 1378 391.5 1422.5 Q411 1467 445 1500 Q479 1533 524 1552.5 Q569 1572 620 1572 Q671 1572 716.5 1552.5 Q762 1533 796 1500 Q830 1467 849.5 1422.5 Q869 1378 869 1328 Q869 1277 849.5 1232.5 Q830 1188 796 1154.5 Q762 1121 716.5 1102 Q671 1083 620 1083 Z M620 1215 Q642 1215 662 1223.5 Q682 1232 697 1247.5 Q712 1263 721 1283.5 Q730 1304 730 1328 Q730 1351 721 1371.5 Q712 1392 697 1407 Q682 1422 662 1430.5 Q642 1439 620 1439 Q598 1439 578 1430.5 Q558 1422 543 1407 Q528 1392 519.5 1371.5 Q511 1351 511 1328 Q511 1304 519.5 1283.5 Q528 1263 543 1247.5 Q558 1232 578 1223.5 Q598 1215 620 1215 Z " />
<glyph glyph-name="ae" unicode="&#xe6;" horiz-adv-x="1764" d="M1216 983 Q1316 983 1399.5 946.5 Q1483 910 1542.5 843.5 Q1602 777 1635.5 684.5 Q1669 592 1669 480 Q1669 460 1668 440 Q1667 420 1665 402 L957 402 Q967 337 994 291 Q1021 245 1059 215.5 Q1097 186 1144 172 Q1191 158 1242 158 Q1314 158 1386.5 184.5 Q1459 211 1519 259 L1623 110 Q1535 35 1436.5 5 Q1338 -25 1229 -25 Q1111 -25 1016 17 Q921 59 855 136 Q822 102 783 72.5 Q744 43 697 21.5 Q650 0 593.5 -12.5 Q537 -25 469 -25 Q376 -25 306 -1.5 Q236 22 189 63 Q142 104 118.5 161 Q95 218 95 284 Q95 350 122.5 403 Q150 456 200 492.5 Q250 529 320.5 548.5 Q391 568 477 568 L741 568 Q736 677 676.5 735 Q617 793 496 793 Q456 793 419.5 785 Q383 777 350 763.5 Q317 750 287 733 Q257 716 232 697 L146 862 Q237 929 332 956 Q427 983 523 983 Q643 983 730 942.5 Q817 902 870 826 Q900 863 938.5 892 Q977 921 1021.5 941.5 Q1066 962 1115.5 972.5 Q1165 983 1216 983 Z M495 157 Q526 157 561.5 164 Q597 171 633.5 186 Q670 201 705 225 Q740 249 770 284 Q751 341 743 409 L507 409 Q453 409 417 398 Q381 387 359.5 369.5 Q338 352 329 329.5 Q320 307 320 284 Q320 261 330 238 Q340 215 361 197 Q382 179 415 168 Q448 157 495 157 Z M1212 797 Q1156 797 1112.5 780 Q1069 763 1037.5 731.5 Q1006 700 986 656.5 Q966 613 958 561 L1455 561 Q1438 673 1375 735 Q1312 797 1212 797 Z " />
<glyph glyph-name="ccedilla" unicode="&#xe7;" horiz-adv-x="1027" d="M599 983 Q707 983 800 944.5 Q893 906 957 830 L823 687 Q772 735 717 760.5 Q662 786 593 786 Q533 786 481 763.5 Q429 741 391 700.5 Q353 660 331.5 603.5 Q310 547 310 479 Q310 411 331.5 354.5 Q353 298 391 257.5 Q429 217 481 194.5 Q533 172 593 172 Q662 172 722 200.5 Q782 229 828 272 L957 128 Q891 52 799 13.5 Q707 -25 599 -25 Q485 -25 392 13.5 Q299 52 233 119.5 Q167 187 131 279 Q95 371 95 479 Q95 587 131 679 Q167 771 233 838.5 Q299 906 392 944.5 Q485 983 599 983 Z M588 -321 L369 -321 L480 7 L689 7 L588 -321 Z " />
<glyph glyph-name="egrave" unicode="&#xe8;" horiz-adv-x="1120" d="M572 983 Q672 983 755.5 946.5 Q839 910 898.5 843.5 Q958 777 991.5 684.5 Q1025 592 1025 480 Q1025 460 1024 440 Q1023 420 1021 402 L313 402 Q323 337 350 291 Q377 245 415 215.5 Q453 186 500 172 Q547 158 598 158 Q670 158 742.5 184.5 Q815 211 875 259 L979 110 Q891 35 792.5 5 Q694 -25 585 -25 Q477 -25 387 11 Q297 47 232 113 Q167 179 131 272 Q95 365 95 479 Q95 591 130 684 Q165 777 228 843.5 Q291 910 378.5 946.5 Q466 983 572 983 Z M568 797 Q512 797 468.5 780 Q425 763 393.5 731.5 Q362 700 342 656.5 Q322 613 314 561 L811 561 Q794 673 731 735 Q668 797 568 797 Z M248 1410 L514 1410 L705 1110 L499 1110 L248 1410 Z " />
<glyph glyph-name="eacute" unicode="&#xe9;" horiz-adv-x="1120" d="M572 983 Q672 983 755.5 946.5 Q839 910 898.5 843.5 Q958 777 991.5 684.5 Q1025 592 1025 480 Q1025 460 1024 440 Q1023 420 1021 402 L313 402 Q323 337 350 291 Q377 245 415 215.5 Q453 186 500 172 Q547 158 598 158 Q670 158 742.5 184.5 Q815 211 875 259 L979 110 Q891 35 792.5 5 Q694 -25 585 -25 Q477 -25 387 11 Q297 47 232 113 Q167 179 131 272 Q95 365 95 479 Q95 591 130 684 Q165 777 228 843.5 Q291 910 378.5 946.5 Q466 983 572 983 Z M568 797 Q512 797 468.5 780 Q425 763 393.5 731.5 Q362 700 342 656.5 Q322 613 314 561 L811 561 Q794 673 731 735 Q668 797 568 797 Z M416 1110 L607 1410 L873 1410 L622 1110 L416 1110 Z " />
<glyph glyph-name="ecircumflex" unicode="&#xea;" horiz-adv-x="1120" d="M572 983 Q672 983 755.5 946.5 Q839 910 898.5 843.5 Q958 777 991.5 684.5 Q1025 592 1025 480 Q1025 460 1024 440 Q1023 420 1021 402 L313 402 Q323 337 350 291 Q377 245 415 215.5 Q453 186 500 172 Q547 158 598 158 Q670 158 742.5 184.5 Q815 211 875 259 L979 110 Q891 35 792.5 5 Q694 -25 585 -25 Q477 -25 387 11 Q297 47 232 113 Q167 179 131 272 Q95 365 95 479 Q95 591 130 684 Q165 777 228 843.5 Q291 910 378.5 946.5 Q466 983 572 983 Z M568 797 Q512 797 468.5 780 Q425 763 393.5 731.5 Q362 700 342 656.5 Q322 613 314 561 L811 561 Q794 673 731 735 Q668 797 568 797 Z M698 1100 L567 1263 L436 1100 L213 1100 L424 1400 L710 1400 L921 1100 L698 1100 Z " />
<glyph glyph-name="edieresis" unicode="&#xeb;" horiz-adv-x="1120" d="M572 983 Q672 983 755.5 946.5 Q839 910 898.5 843.5 Q958 777 991.5 684.5 Q1025 592 1025 480 Q1025 460 1024 440 Q1023 420 1021 402 L313 402 Q323 337 350 291 Q377 245 415 215.5 Q453 186 500 172 Q547 158 598 158 Q670 158 742.5 184.5 Q815 211 875 259 L979 110 Q891 35 792.5 5 Q694 -25 585 -25 Q477 -25 387 11 Q297 47 232 113 Q167 179 131 272 Q95 365 95 479 Q95 591 130 684 Q165 777 228 843.5 Q291 910 378.5 946.5 Q466 983 572 983 Z M568 797 Q512 797 468.5 780 Q425 763 393.5 731.5 Q362 700 342 656.5 Q322 613 314 561 L811 561 Q794 673 731 735 Q668 797 568 797 Z M366 1399 Q397 1399 424 1387.5 Q451 1376 471 1356 Q491 1336 502.5 1309 Q514 1282 514 1251 Q514 1220 502.5 1193 Q491 1166 471 1146.5 Q451 1127 424 1116 Q397 1105 366 1105 Q335 1105 308 1116 Q281 1127 261.5 1146.5 Q242 1166 231 1193 Q220 1220 220 1251 Q220 1282 231 1309 Q242 1336 261.5 1356 Q281 1376 308 1387.5 Q335 1399 366 1399 Z M766 1399 Q797 1399 824 1387.5 Q851 1376 871 1356 Q891 1336 902.5 1309 Q914 1282 914 1251 Q914 1220 902.5 1193 Q891 1166 871 1146.5 Q851 1127 824 1116 Q797 1105 766 1105 Q735 1105 708 1116 Q681 1127 661.5 1146.5 Q642 1166 631 1193 Q620 1220 620 1251 Q620 1282 631 1309 Q642 1336 661.5 1356 Q681 1376 708 1387.5 Q735 1399 766 1399 Z " />
<glyph glyph-name="igrave" unicode="&#xec;" horiz-adv-x="538" d="M374 0 L164 0 L164 958 L374 958 L374 0 Z M-50 1410 L216 1410 L407 1110 L201 1110 L-50 1410 Z " />
<glyph glyph-name="iacute" unicode="&#xed;" horiz-adv-x="538" d="M374 0 L164 0 L164 958 L374 958 L374 0 Z M118 1110 L309 1410 L575 1410 L324 1110 L118 1110 Z " />
<glyph glyph-name="icircumflex" unicode="&#xee;" horiz-adv-x="538" d="M374 0 L164 0 L164 958 L374 958 L374 0 Z M400 1100 L269 1263 L138 1100 L-85 1100 L126 1400 L412 1400 L623 1100 L400 1100 Z " />
<glyph glyph-name="idieresis" unicode="&#xef;" horiz-adv-x="538" d="M374 0 L164 0 L164 958 L374 958 L374 0 Z M68 1399 Q99 1399 126 1387.5 Q153 1376 173 1356 Q193 1336 204.5 1309 Q216 1282 216 1251 Q216 1220 204.5 1193 Q193 1166 173 1146.5 Q153 1127 126 1116 Q99 1105 68 1105 Q37 1105 10 1116 Q-17 1127 -36.5 1146.5 Q-56 1166 -67 1193 Q-78 1220 -78 1251 Q-78 1282 -67 1309 Q-56 1336 -36.5 1356 Q-17 1376 10 1387.5 Q37 1399 68 1399 Z M468 1399 Q499 1399 526 1387.5 Q553 1376 573 1356 Q593 1336 604.5 1309 Q616 1282 616 1251 Q616 1220 604.5 1193 Q593 1166 573 1146.5 Q553 1127 526 1116 Q499 1105 468 1105 Q437 1105 410 1116 Q383 1127 363.5 1146.5 Q344 1166 333 1193 Q322 1220 322 1251 Q322 1282 333 1309 Q344 1336 363.5 1356 Q383 1376 410 1387.5 Q437 1399 468 1399 Z " />
<glyph glyph-name="eth" unicode="&#xf0;" horiz-adv-x="1215" d="M933 1322 L777 1226 Q878 1140 944 1045 Q1010 950 1049 854 Q1088 758 1104 665.5 Q1120 573 1120 492 Q1120 382 1081 287.5 Q1042 193 973.5 123.5 Q905 54 812 14.5 Q719 -25 610 -25 Q499 -25 404.5 12.5 Q310 50 241.5 115.5 Q173 181 134 270.5 Q95 360 95 464 Q95 570 131.5 660.5 Q168 751 232 817 Q296 883 383 920.5 Q470 958 570 958 Q654 958 725.5 926.5 Q797 895 852 835 Q817 907 757 978.5 Q697 1050 601 1118 L364 973 L286 1100 L458 1206 Q419 1226 376.5 1246 Q334 1266 286 1285 L380 1453 Q456 1424 522.5 1391 Q589 1358 646 1322 L854 1449 L933 1322 Z M610 761 Q546 761 491 739.5 Q436 718 396 679 Q356 640 333 585.5 Q310 531 310 465 Q310 400 333 346 Q356 292 396 253.5 Q436 215 491 193.5 Q546 172 610 172 Q674 172 729 193.5 Q784 215 824.5 253.5 Q865 292 888 346 Q911 400 911 465 Q911 531 888 585.5 Q865 640 824.5 679 Q784 718 729 739.5 Q674 761 610 761 Z " />
<glyph glyph-name="ntilde" unicode="&#xf1;" horiz-adv-x="1209" d="M666 983 Q751 983 822.5 955 Q894 927 946 876.5 Q998 826 1026.5 756 Q1055 686 1055 602 L1055 0 L845 0 L845 533 Q845 654 786.5 719 Q728 784 622 784 Q571 784 526 767.5 Q481 751 447.5 719 Q414 687 394 639.5 Q374 592 374 531 L374 0 L164 0 L164 958 L372 958 L372 841 Q401 883 436.5 910.5 Q472 938 511 954 Q550 970 589.5 976.5 Q629 983 666 983 Z M252 1264 Q303 1321 359 1348.5 Q415 1376 492 1376 Q543 1376 582 1365.5 Q621 1355 651.5 1342 Q682 1329 707.5 1318.5 Q733 1308 757 1308 Q790 1308 820.5 1324.5 Q851 1341 889 1373 L997 1240 Q946 1183 890 1155.5 Q834 1128 757 1128 Q707 1128 668.5 1138.5 Q630 1149 599.5 1162 Q569 1175 543 1185.5 Q517 1196 492 1196 Q459 1196 428.5 1179.5 Q398 1163 360 1131 L252 1264 Z " />
<glyph glyph-name="ograve" unicode="&#xf2;" horiz-adv-x="1221" d="M610 983 Q721 983 815.5 944.5 Q910 906 979 838.5 Q1048 771 1087 679 Q1126 587 1126 479 Q1126 371 1087 279 Q1048 187 979 119.5 Q910 52 815.5 13.5 Q721 -25 610 -25 Q499 -25 404.5 13.5 Q310 52 241.5 119.5 Q173 187 134 279 Q95 371 95 479 Q95 587 134 679 Q173 771 241.5 838.5 Q310 906 404.5 944.5 Q499 983 610 983 Z M610 786 Q546 786 491 763.5 Q436 741 396 700.5 Q356 660 333 603.5 Q310 547 310 479 Q310 411 333 354.5 Q356 298 396 257.5 Q436 217 491 194.5 Q546 172 610 172 Q674 172 729 194.5 Q784 217 824.5 257.5 Q865 298 888 354.5 Q911 411 911 479 Q911 547 888 603.5 Q865 660 824.5 700.5 Q784 741 729 763.5 Q674 786 610 786 Z M291 1410 L557 1410 L748 1110 L542 1110 L291 1410 Z " />
<glyph glyph-name="oacute" unicode="&#xf3;" horiz-adv-x="1221" d="M610 983 Q721 983 815.5 944.5 Q910 906 979 838.5 Q1048 771 1087 679 Q1126 587 1126 479 Q1126 371 1087 279 Q1048 187 979 119.5 Q910 52 815.5 13.5 Q721 -25 610 -25 Q499 -25 404.5 13.5 Q310 52 241.5 119.5 Q173 187 134 279 Q95 371 95 479 Q95 587 134 679 Q173 771 241.5 838.5 Q310 906 404.5 944.5 Q499 983 610 983 Z M610 786 Q546 786 491 763.5 Q436 741 396 700.5 Q356 660 333 603.5 Q310 547 310 479 Q310 411 333 354.5 Q356 298 396 257.5 Q436 217 491 194.5 Q546 172 610 172 Q674 172 729 194.5 Q784 217 824.5 257.5 Q865 298 888 354.5 Q911 411 911 479 Q911 547 888 603.5 Q865 660 824.5 700.5 Q784 741 729 763.5 Q674 786 610 786 Z M459 1110 L650 1410 L916 1410 L665 1110 L459 1110 Z " />
<glyph glyph-name="ocircumflex" unicode="&#xf4;" horiz-adv-x="1221" d="M610 983 Q721 983 815.5 944.5 Q910 906 979 838.5 Q1048 771 1087 679 Q1126 587 1126 479 Q1126 371 1087 279 Q1048 187 979 119.5 Q910 52 815.5 13.5 Q721 -25 610 -25 Q499 -25 404.5 13.5 Q310 52 241.5 119.5 Q173 187 134 279 Q95 371 95 479 Q95 587 134 679 Q173 771 241.5 838.5 Q310 906 404.5 944.5 Q499 983 610 983 Z M610 786 Q546 786 491 763.5 Q436 741 396 700.5 Q356 660 333 603.5 Q310 547 310 479 Q310 411 333 354.5 Q356 298 396 257.5 Q436 217 491 194.5 Q546 172 610 172 Q674 172 729 194.5 Q784 217 824.5 257.5 Q865 298 888 354.5 Q911 411 911 479 Q911 547 888 603.5 Q865 660 824.5 700.5 Q784 741 729 763.5 Q674 786 610 786 Z M741 1100 L610 1263 L479 1100 L256 1100 L467 1400 L753 1400 L964 1100 L741 1100 Z " />
<glyph glyph-name="otilde" unicode="&#xf5;" horiz-adv-x="1221" d="M610 983 Q721 983 815.5 944.5 Q910 906 979 838.5 Q1048 771 1087 679 Q1126 587 1126 479 Q1126 371 1087 279 Q1048 187 979 119.5 Q910 52 815.5 13.5 Q721 -25 610 -25 Q499 -25 404.5 13.5 Q310 52 241.5 119.5 Q173 187 134 279 Q95 371 95 479 Q95 587 134 679 Q173 771 241.5 838.5 Q310 906 404.5 944.5 Q499 983 610 983 Z M610 786 Q546 786 491 763.5 Q436 741 396 700.5 Q356 660 333 603.5 Q310 547 310 479 Q310 411 333 354.5 Q356 298 396 257.5 Q436 217 491 194.5 Q546 172 610 172 Q674 172 729 194.5 Q784 217 824.5 257.5 Q865 298 888 354.5 Q911 411 911 479 Q911 547 888 603.5 Q865 660 824.5 700.5 Q784 741 729 763.5 Q674 786 610 786 Z M239 1264 Q290 1321 346 1348.5 Q402 1376 479 1376 Q530 1376 569 1365.5 Q608 1355 638.5 1342 Q669 1329 694.5 1318.5 Q720 1308 744 1308 Q777 1308 807.5 1324.5 Q838 1341 876 1373 L984 1240 Q933 1183 877 1155.5 Q821 1128 744 1128 Q694 1128 655.5 1138.5 Q617 1149 586.5 1162 Q556 1175 530 1185.5 Q504 1196 479 1196 Q446 1196 415.5 1179.5 Q385 1163 347 1131 L239 1264 Z " />
<glyph glyph-name="odieresis" unicode="&#xf6;" horiz-adv-x="1221" d="M610 983 Q721 983 815.5 944.5 Q910 906 979 838.5 Q1048 771 1087 679 Q1126 587 1126 479 Q1126 371 1087 279 Q1048 187 979 119.5 Q910 52 815.5 13.5 Q721 -25 610 -25 Q499 -25 404.5 13.5 Q310 52 241.5 119.5 Q173 187 134 279 Q95 371 95 479 Q95 587 134 679 Q173 771 241.5 838.5 Q310 906 404.5 944.5 Q499 983 610 983 Z M610 786 Q546 786 491 763.5 Q436 741 396 700.5 Q356 660 333 603.5 Q310 547 310 479 Q310 411 333 354.5 Q356 298 396 257.5 Q436 217 491 194.5 Q546 172 610 172 Q674 172 729 194.5 Q784 217 824.5 257.5 Q865 298 888 354.5 Q911 411 911 479 Q911 547 888 603.5 Q865 660 824.5 700.5 Q784 741 729 763.5 Q674 786 610 786 Z M409 1399 Q440 1399 467 1387.5 Q494 1376 514 1356 Q534 1336 545.5 1309 Q557 1282 557 1251 Q557 1220 545.5 1193 Q534 1166 514 1146.5 Q494 1127 467 1116 Q440 1105 409 1105 Q378 1105 351 1116 Q324 1127 304.5 1146.5 Q285 1166 274 1193 Q263 1220 263 1251 Q263 1282 274 1309 Q285 1336 304.5 1356 Q324 1376 351 1387.5 Q378 1399 409 1399 Z M809 1399 Q840 1399 867 1387.5 Q894 1376 914 1356 Q934 1336 945.5 1309 Q957 1282 957 1251 Q957 1220 945.5 1193 Q934 1166 914 1146.5 Q894 1127 867 1116 Q840 1105 809 1105 Q778 1105 751 1116 Q724 1127 704.5 1146.5 Q685 1166 674 1193 Q663 1220 663 1251 Q663 1282 674 1309 Q685 1336 704.5 1356 Q724 1376 751 1387.5 Q778 1399 809 1399 Z " />
<glyph glyph-name="divide" unicode="&#xf7;" horiz-adv-x="1200" d="M1050 438 L150 438 L150 628 L1050 628 L1050 438 Z M601 1013 Q630 1013 656 1001.5 Q682 990 702 970.5 Q722 951 733.5 924.5 Q745 898 745 869 Q745 840 733.5 814 Q722 788 702 768 Q682 748 656 736 Q630 724 601 724 Q572 724 546 736 Q520 748 500 768 Q480 788 468 814 Q456 840 456 869 Q456 898 468 924.5 Q480 951 500 970.5 Q520 990 546 1001.5 Q572 1013 601 1013 Z M601 342 Q630 342 656 330.5 Q682 319 702 299.5 Q722 280 733.5 253.5 Q745 227 745 198 Q745 169 733.5 143 Q722 117 702 97 Q682 77 656 65 Q630 53 601 53 Q572 53 546 65 Q520 77 500 97 Q480 117 468 143 Q456 169 456 198 Q456 227 468 253.5 Q480 280 500 299.5 Q520 319 546 330.5 Q572 342 601 342 Z " />
<glyph glyph-name="oslash" unicode="&#xf8;" horiz-adv-x="1221" d="M610 983 Q694 983 768 961 Q842 939 905 898 L1008 1001 L1134 875 L1033 774 Q1078 712 1102 638 Q1126 564 1126 479 Q1126 371 1087 279 Q1048 187 979 119.5 Q910 52 815.5 13.5 Q721 -25 610 -25 Q526 -25 452.5 -3.5 Q379 18 317 58 L214 -45 L87 80 L188 181 Q143 244 119 319 Q95 394 95 479 Q95 587 134 679 Q173 771 241.5 838.5 Q310 906 404.5 944.5 Q499 983 610 983 Z M610 786 Q546 786 491 763.5 Q436 741 396 700.5 Q356 660 333 603.5 Q310 547 310 479 Q310 399 341 334 L757 750 Q725 767 688 776.5 Q651 786 610 786 Z M911 479 Q911 557 880 621 L465 206 Q531 172 610 172 Q674 172 729 194.5 Q784 217 824.5 257.5 Q865 298 888 354.5 Q911 411 911 479 Z " />
<glyph glyph-name="ugrave" unicode="&#xf9;" horiz-adv-x="1196" d="M1042 406 Q1042 292 1004 210 Q966 128 904 76 Q842 24 762 -0.5 Q682 -25 598 -25 Q514 -25 434 -0.5 Q354 24 291.5 76 Q229 128 191.5 210 Q154 292 154 406 L154 958 L364 958 L364 425 Q364 356 382 307.5 Q400 259 431.5 229 Q463 199 506 185.5 Q549 172 598 172 Q647 172 690 185.5 Q733 199 764.5 229 Q796 259 814 307.5 Q832 356 832 425 L832 958 L1042 958 L1042 406 Z M279 1410 L545 1410 L736 1110 L530 1110 L279 1410 Z " />
<glyph glyph-name="uacute" unicode="&#xfa;" horiz-adv-x="1196" d="M1042 406 Q1042 292 1004 210 Q966 128 904 76 Q842 24 762 -0.5 Q682 -25 598 -25 Q514 -25 434 -0.5 Q354 24 291.5 76 Q229 128 191.5 210 Q154 292 154 406 L154 958 L364 958 L364 425 Q364 356 382 307.5 Q400 259 431.5 229 Q463 199 506 185.5 Q549 172 598 172 Q647 172 690 185.5 Q733 199 764.5 229 Q796 259 814 307.5 Q832 356 832 425 L832 958 L1042 958 L1042 406 Z M447 1110 L638 1410 L904 1410 L653 1110 L447 1110 Z " />
<glyph glyph-name="ucircumflex" unicode="&#xfb;" horiz-adv-x="1196" d="M1042 406 Q1042 292 1004 210 Q966 128 904 76 Q842 24 762 -0.5 Q682 -25 598 -25 Q514 -25 434 -0.5 Q354 24 291.5 76 Q229 128 191.5 210 Q154 292 154 406 L154 958 L364 958 L364 425 Q364 356 382 307.5 Q400 259 431.5 229 Q463 199 506 185.5 Q549 172 598 172 Q647 172 690 185.5 Q733 199 764.5 229 Q796 259 814 307.5 Q832 356 832 425 L832 958 L1042 958 L1042 406 Z M729 1100 L598 1263 L467 1100 L244 1100 L455 1400 L741 1400 L952 1100 L729 1100 Z " />
<glyph glyph-name="udieresis" unicode="&#xfc;" horiz-adv-x="1196" d="M1042 406 Q1042 292 1004 210 Q966 128 904 76 Q842 24 762 -0.5 Q682 -25 598 -25 Q514 -25 434 -0.5 Q354 24 291.5 76 Q229 128 191.5 210 Q154 292 154 406 L154 958 L364 958 L364 425 Q364 356 382 307.5 Q400 259 431.5 229 Q463 199 506 185.5 Q549 172 598 172 Q647 172 690 185.5 Q733 199 764.5 229 Q796 259 814 307.5 Q832 356 832 425 L832 958 L1042 958 L1042 406 Z M397 1399 Q428 1399 455 1387.5 Q482 1376 502 1356 Q522 1336 533.5 1309 Q545 1282 545 1251 Q545 1220 533.5 1193 Q522 1166 502 1146.5 Q482 1127 455 1116 Q428 1105 397 1105 Q366 1105 339 1116 Q312 1127 292.5 1146.5 Q273 1166 262 1193 Q251 1220 251 1251 Q251 1282 262 1309 Q273 1336 292.5 1356 Q312 1376 339 1387.5 Q366 1399 397 1399 Z M797 1399 Q828 1399 855 1387.5 Q882 1376 902 1356 Q922 1336 933.5 1309 Q945 1282 945 1251 Q945 1220 933.5 1193 Q922 1166 902 1146.5 Q882 1127 855 1116 Q828 1105 797 1105 Q766 1105 739 1116 Q712 1127 692.5 1146.5 Q673 1166 662 1193 Q651 1220 651 1251 Q651 1282 662 1309 Q673 1336 692.5 1356 Q712 1376 739 1387.5 Q766 1399 797 1399 Z " />
<glyph glyph-name="yacute" unicode="&#xfd;" horiz-adv-x="1098" d="M330 -406 L98 -406 L441 197 L16 958 L251 958 L559 408 L856 958 L1086 958 L330 -406 Z M403 1110 L594 1410 L860 1410 L609 1110 L403 1110 Z " />
<glyph glyph-name="thorn" unicode="&#xfe;" horiz-adv-x="1247" d="M673 983 Q773 983 860.5 945.5 Q948 908 1013 841 Q1078 774 1115 681.5 Q1152 589 1152 479 Q1152 369 1115 276.5 Q1078 184 1013 117 Q948 50 860.5 12.5 Q773 -25 673 -25 Q571 -25 497.5 12.5 Q424 50 374 113 L374 -400 L164 -400 L164 1440 L374 1440 L374 845 Q424 908 497.5 945.5 Q571 983 673 983 Z M648 786 Q583 786 530 762.5 Q477 739 439 698 Q401 657 380 601 Q359 545 359 479 Q359 413 380 357 Q401 301 439 260 Q477 219 530 195.5 Q583 172 648 172 Q715 172 769 196.5 Q823 221 860 262.5 Q897 304 917 360 Q937 416 937 479 Q937 542 917 598 Q897 654 860 695.5 Q823 737 769 761.5 Q715 786 648 786 Z " />
<glyph glyph-name="ydieresis" unicode="&#xff;" horiz-adv-x="1098" d="M330 -406 L98 -406 L441 197 L16 958 L251 958 L559 408 L856 958 L1086 958 L330 -406 Z M353 1399 Q384 1399 411 1387.5 Q438 1376 458 1356 Q478 1336 489.5 1309 Q501 1282 501 1251 Q501 1220 489.5 1193 Q478 1166 458 1146.5 Q438 1127 411 1116 Q384 1105 353 1105 Q322 1105 295 1116 Q268 1127 248.5 1146.5 Q229 1166 218 1193 Q207 1220 207 1251 Q207 1282 218 1309 Q229 1336 248.5 1356 Q268 1376 295 1387.5 Q322 1399 353 1399 Z M753 1399 Q784 1399 811 1387.5 Q838 1376 858 1356 Q878 1336 889.5 1309 Q901 1282 901 1251 Q901 1220 889.5 1193 Q878 1166 858 1146.5 Q838 1127 811 1116 Q784 1105 753 1105 Q722 1105 695 1116 Q668 1127 648.5 1146.5 Q629 1166 618 1193 Q607 1220 607 1251 Q607 1282 618 1309 Q629 1336 648.5 1356 Q668 1376 695 1387.5 Q722 1399 753 1399 Z " />
<glyph glyph-name="dotlessi" unicode="&#x131;" horiz-adv-x="538" d="M374 0 L164 0 L164 958 L374 958 L374 0 Z " />
<glyph glyph-name="trademark" unicode="&#x2122;" horiz-adv-x="1580" d="M1354 760 L1354 1204 L1210 821 L1051 821 L907 1203 L907 760 L757 760 L757 1400 L972 1400 L1131 990 L1289 1400 L1504 1400 L1504 760 L1354 760 Z M279 760 L279 1262 L76 1262 L76 1400 L632 1400 L632 1262 L429 1262 L429 760 L279 760 Z " />
<glyph glyph-name="OE" unicode="&#x152;" horiz-adv-x="2254" d="M2102 0 L841 0 Q677 0 542.5 50 Q408 100 313 191.5 Q218 283 166 412.5 Q114 542 114 700 Q114 858 166 987.5 Q218 1117 313 1208.5 Q408 1300 542.5 1350 Q677 1400 841 1400 L2089 1400 L2089 1188 L1307 1188 L1307 811 L2062 811 L2062 599 L1307 599 L1307 212 L2102 212 L2102 0 Z M351 700 Q351 593 381.5 504 Q412 415 473 350.5 Q534 286 626 250 Q718 214 841 214 L1081 214 L1081 1186 L841 1186 Q718 1186 626 1149.5 Q534 1113 473 1048.5 Q412 984 381.5 895 Q351 806 351 700 Z " />
<glyph glyph-name="oe" unicode="&#x153;" horiz-adv-x="1935" d="M1387 983 Q1487 983 1570.5 946.5 Q1654 910 1713.5 843.5 Q1773 777 1806.5 684.5 Q1840 592 1840 480 Q1840 460 1839 440 Q1838 420 1836 402 L1128 402 Q1138 337 1165 291 Q1192 245 1230 215.5 Q1268 186 1315 172 Q1362 158 1413 158 Q1485 158 1557.5 184.5 Q1630 211 1690 259 L1794 110 Q1706 35 1607.5 5 Q1509 -25 1400 -25 Q1269 -25 1169 27 Q1069 79 1006 174 Q940 81 838 28 Q736 -25 610 -25 Q499 -25 404.5 13.5 Q310 52 241.5 119.5 Q173 187 134 279 Q95 371 95 479 Q95 587 134 679 Q173 771 241.5 838.5 Q310 906 404.5 944.5 Q499 983 610 983 Q736 983 838 929.5 Q940 876 1006 784 Q1067 878 1164.5 930.5 Q1262 983 1387 983 Z M610 786 Q546 786 491 763.5 Q436 741 396 700.5 Q356 660 333 603.5 Q310 547 310 479 Q310 411 333 354.5 Q356 298 396 257.5 Q436 217 491 194.5 Q546 172 610 172 Q674 172 729 194.5 Q784 217 824.5 257.5 Q865 298 888 354.5 Q911 411 911 479 Q911 547 888 603.5 Q865 660 824.5 700.5 Q784 741 729 763.5 Q674 786 610 786 Z M1383 797 Q1327 797 1283.5 780 Q1240 763 1208.5 731.5 Q1177 700 1157 656.5 Q1137 613 1129 561 L1626 561 Q1609 673 1546 735 Q1483 797 1383 797 Z " />
<glyph glyph-name="Scaron" unicode="&#x160;" horiz-adv-x="1352" d="M1107 1090 Q1017 1147 919 1178.5 Q821 1210 714 1210 Q644 1210 586 1195.5 Q528 1181 486.5 1153.5 Q445 1126 422 1087.5 Q399 1049 399 1001 Q399 957 419 926 Q439 895 476.5 873.5 Q514 852 568 838 Q622 824 690 814 L787 801 Q872 789 953 764 Q1034 739 1097.5 694 Q1161 649 1199.5 581 Q1238 513 1238 416 Q1238 309 1193 227 Q1148 145 1071 89 Q994 33 892.5 4 Q791 -25 677 -25 Q606 -25 529.5 -13 Q453 -1 378.5 22.5 Q304 46 236 81 Q168 116 114 163 L237 343 Q273 310 323.5 282 Q374 254 432 233 Q490 212 552.5 200.5 Q615 189 676 189 Q745 189 804.5 203 Q864 217 908 244 Q952 271 977.5 309.5 Q1003 348 1003 396 Q1003 478 922.5 521 Q842 564 688 585 L579 600 Q501 611 426.5 636 Q352 661 293.5 706.5 Q235 752 199.5 820.5 Q164 889 164 987 Q164 1092 207.5 1173.5 Q251 1255 326 1310.5 Q401 1366 501.5 1395 Q602 1424 716 1424 Q869 1424 992.5 1383.5 Q1116 1343 1222 1273 L1107 1090 Z M599 1815 L730 1652 L861 1815 L1084 1815 L873 1515 L587 1515 L376 1815 L599 1815 Z " />
<glyph glyph-name="scaron" unicode="&#x161;" horiz-adv-x="1011" d="M816 718 Q794 731 762 745.5 Q730 760 691 772 Q652 784 608.5 792 Q565 800 520 800 Q434 800 386.5 768.5 Q339 737 339 686 Q339 661 351.5 644 Q364 627 385 616 Q406 605 435 598.5 Q464 592 497 587 L596 572 Q753 549 841 480.5 Q929 412 929 289 Q929 220 899.5 162.5 Q870 105 814.5 63.5 Q759 22 677.5 -1 Q596 -24 493 -24 Q456 -24 407 -19.5 Q358 -15 303 -1.5 Q248 12 191 36 Q134 60 82 99 L179 256 Q205 236 235.5 218.5 Q266 201 304.5 187.5 Q343 174 389.5 166 Q436 158 495 158 Q603 158 658 189.5 Q713 221 713 275 Q713 316 673 342.5 Q633 369 547 381 L447 394 Q287 416 204.5 487.5 Q122 559 122 675 Q122 746 149.5 803 Q177 860 228.5 899.5 Q280 939 353 960.5 Q426 982 518 982 Q631 982 731 955.5 Q831 929 906 881 L816 718 Z M402 1400 L533 1237 L664 1400 L887 1400 L676 1100 L390 1100 L179 1400 L402 1400 Z " />
<glyph glyph-name="Ydieresis" unicode="&#x178;" horiz-adv-x="1328" d="M779 568 L779 0 L553 0 L553 572 L9 1400 L279 1400 L667 773 L1056 1400 L1319 1400 L779 568 Z M466 1814 Q497 1814 524 1802.5 Q551 1791 571 1771 Q591 1751 602.5 1724 Q614 1697 614 1666 Q614 1635 602.5 1608 Q591 1581 571 1561.5 Q551 1542 524 1531 Q497 1520 466 1520 Q435 1520 408 1531 Q381 1542 361.5 1561.5 Q342 1581 331 1608 Q320 1635 320 1666 Q320 1697 331 1724 Q342 1751 361.5 1771 Q381 1791 408 1802.5 Q435 1814 466 1814 Z M866 1814 Q897 1814 924 1802.5 Q951 1791 971 1771 Q991 1751 1002.5 1724 Q1014 1697 1014 1666 Q1014 1635 1002.5 1608 Q991 1581 971 1561.5 Q951 1542 924 1531 Q897 1520 866 1520 Q835 1520 808 1531 Q781 1542 761.5 1561.5 Q742 1581 731 1608 Q720 1635 720 1666 Q720 1697 731 1724 Q742 1751 761.5 1771 Q781 1791 808 1802.5 Q835 1814 866 1814 Z " />
<glyph glyph-name="Zcaron" unicode="&#x17d;" horiz-adv-x="1292" d="M1178 1225 L414 214 L1178 214 L1178 0 L114 0 L114 175 L878 1186 L116 1186 L116 1400 L1178 1400 L1178 1225 Z M516 1815 L647 1652 L778 1815 L1001 1815 L790 1515 L504 1515 L293 1815 L516 1815 Z " />
<glyph glyph-name="zcaron" unicode="&#x17e;" horiz-adv-x="1041" d="M916 806 L393 190 L926 190 L926 0 L115 0 L115 152 L647 768 L131 768 L131 958 L916 958 L916 806 Z M393 1400 L524 1237 L655 1400 L878 1400 L667 1100 L381 1100 L170 1400 L393 1400 Z " />
<glyph glyph-name="florin" unicode="&#x192;" horiz-adv-x="1400" d="M1083 629 L795 629 L764 319 Q756 241 736.5 177.5 Q717 114 680.5 69 Q644 24 588.5 0 Q533 -24 453 -24 Q375 -24 314.5 -6.5 Q254 11 204 39 L275 208 Q308 190 352 177.5 Q396 165 439 165 Q471 165 492.5 175.5 Q514 186 527.5 205.5 Q541 225 548 253.5 Q555 282 559 319 L590 629 L354 629 L354 821 L610 821 L637 1081 Q645 1159 665 1222.5 Q685 1286 721 1331 Q757 1376 812.5 1400 Q868 1424 948 1424 Q1026 1424 1086 1406.5 Q1146 1389 1197 1361 L1125 1192 Q1092 1210 1048.5 1222.5 Q1005 1235 961 1235 Q929 1235 907.5 1224.5 Q886 1214 872.5 1194.5 Q859 1175 852 1146.5 Q845 1118 841 1081 L815 821 L1083 821 L1083 629 Z " />
<glyph glyph-name="uni0237" unicode="&#x237;" horiz-adv-x="544" d="M380 -118 Q380 -192 359.5 -248 Q339 -304 301.5 -342 Q264 -380 212.5 -399.5 Q161 -419 99 -419 Q62 -419 22.5 -411.5 Q-17 -404 -46 -390 L3 -208 Q40 -222 80 -222 Q117 -222 143.5 -196 Q170 -170 170 -108 L170 958 L380 958 L380 -118 Z " />
<glyph glyph-name="circumflex" unicode="&#x2c6;" horiz-adv-x="1000" d="M631 1100 L500 1263 L369 1100 L146 1100 L357 1400 L643 1400 L854 1100 L631 1100 Z " />
<glyph glyph-name="tilde" unicode="&#x2dc;" horiz-adv-x="1000" d="M128 1264 Q179 1321 235 1348.5 Q291 1376 368 1376 Q419 1376 458 1365.5 Q497 1355 527.5 1342 Q558 1329 583.5 1318.5 Q609 1308 633 1308 Q666 1308 696.5 1324.5 Q727 1341 765 1373 L873 1240 Q822 1183 766 1155.5 Q710 1128 633 1128 Q583 1128 544.5 1138.5 Q506 1149 475.5 1162 Q445 1175 419 1185.5 Q393 1196 368 1196 Q335 1196 304.5 1179.5 Q274 1163 236 1131 L128 1264 Z " />
<glyph glyph-name="endash" unicode="&#x2013;" horiz-adv-x="1178" d="M1064 438 L114 438 L114 628 L1064 628 L1064 438 Z " />
<glyph glyph-name="emdash" unicode="&#x2014;" horiz-adv-x="1614" d="M1557 438 L57 438 L57 628 L1557 628 L1557 438 Z " />
<glyph glyph-name="quoteleft" unicode="&#x2018;" horiz-adv-x="505" d="M105 895 L225 1440 L405 1440 L350 895 L105 895 Z " />
<glyph glyph-name="quoteright" unicode="&#x2019;" horiz-adv-x="505" d="M400 1440 L280 895 L100 895 L155 1440 L400 1440 Z " />
<glyph glyph-name="quotesinglbase" unicode="&#x201a;" horiz-adv-x="505" d="M400 271 L280 -274 L100 -274 L155 271 L400 271 Z " />
<glyph glyph-name="quotedblleft" unicode="&#x201c;" horiz-adv-x="895" d="M105 895 L225 1440 L405 1440 L350 895 L105 895 Z M495 895 L615 1440 L795 1440 L740 895 L495 895 Z " />
<glyph glyph-name="quotedblright" unicode="&#x201d;" horiz-adv-x="895" d="M790 1440 L670 895 L490 895 L545 1440 L790 1440 Z M400 1440 L280 895 L100 895 L155 1440 L400 1440 Z " />
<glyph glyph-name="quotedblbase" unicode="&#x201e;" horiz-adv-x="895" d="M790 271 L670 -274 L490 -274 L545 271 L790 271 Z M400 271 L280 -274 L100 -274 L155 271 L400 271 Z " />
<glyph glyph-name="dagger" unicode="&#x2020;" horiz-adv-x="789" d="M308 627 L308 1058 L95 1058 L95 1227 L308 1227 L308 1440 L481 1440 L481 1227 L694 1227 L694 1058 L481 1058 L481 627 L308 627 Z " />
<glyph glyph-name="daggerdbl" unicode="&#x2021;" horiz-adv-x="789" d="M481 1267 L694 1267 L694 1098 L481 1098 L481 969 L694 969 L694 800 L481 800 L481 627 L308 627 L308 800 L95 800 L95 969 L308 969 L308 1098 L95 1098 L95 1267 L308 1267 L308 1440 L481 1440 L481 1267 Z " />
<glyph glyph-name="bullet" unicode="&#x2022;" horiz-adv-x="846" d="M423 821 Q482 821 534.5 798.5 Q587 776 626 737 Q665 698 688 645.5 Q711 593 711 533 Q711 473 688 420.5 Q665 368 626 329 Q587 290 534.5 267.5 Q482 245 423 245 Q363 245 310.5 267.5 Q258 290 219 329 Q180 368 157.5 420.5 Q135 473 135 533 Q135 593 157.5 645.5 Q180 698 219 737 Q258 776 310.5 798.5 Q363 821 423 821 Z " />
<glyph glyph-name="ellipsis" unicode="&#x2026;" horiz-adv-x="1629" d="M265 325 Q300 325 331.5 311 Q363 297 387 273 Q411 249 425 217.5 Q439 186 439 151 Q439 116 425 84 Q411 52 387 28 Q363 4 331.5 -10.5 Q300 -25 265 -25 Q230 -25 198.5 -10.5 Q167 4 143 28 Q119 52 104.5 84 Q90 116 90 151 Q90 186 104.5 217.5 Q119 249 143 273 Q167 297 198.5 311 Q230 325 265 325 Z M815 325 Q850 325 881.5 311 Q913 297 937 273 Q961 249 975 217.5 Q989 186 989 151 Q989 116 975 84 Q961 52 937 28 Q913 4 881.5 -10.5 Q850 -25 815 -25 Q780 -25 748.5 -10.5 Q717 4 693 28 Q669 52 654.5 84 Q640 116 640 151 Q640 186 654.5 217.5 Q669 249 693 273 Q717 297 748.5 311 Q780 325 815 325 Z M1365 325 Q1400 325 1431.5 311 Q1463 297 1487 273 Q1511 249 1525 217.5 Q1539 186 1539 151 Q1539 116 1525 84 Q1511 52 1487 28 Q1463 4 1431.5 -10.5 Q1400 -25 1365 -25 Q1330 -25 1298.5 -10.5 Q1267 4 1243 28 Q1219 52 1204.5 84 Q1190 116 1190 151 Q1190 186 1204.5 217.5 Q1219 249 1243 273 Q1267 297 1298.5 311 Q1330 325 1365 325 Z " />
<glyph glyph-name="perthousand" unicode="&#x2030;" horiz-adv-x="2834" d="M477 1425 Q561 1425 632 1396 Q703 1367 755 1316.5 Q807 1266 836.5 1197 Q866 1128 866 1047 Q866 966 836.5 896.5 Q807 827 755 776 Q703 725 632 696.5 Q561 668 477 668 Q394 668 323.5 696.5 Q253 725 201 776 Q149 827 120 896.5 Q91 966 91 1047 Q91 1128 120 1197 Q149 1266 201 1316.5 Q253 1367 323.5 1396 Q394 1425 477 1425 Z M477 1240 Q436 1240 401.5 1226 Q367 1212 342 1186.5 Q317 1161 302.5 1125.5 Q288 1090 288 1047 Q288 1004 302.5 968 Q317 932 342 906.5 Q367 881 401.5 867 Q436 853 477 853 Q519 853 554 867 Q589 881 614.5 906.5 Q640 932 654.5 968 Q669 1004 669 1047 Q669 1090 654.5 1125.5 Q640 1161 614.5 1186.5 Q589 1212 554 1226 Q519 1240 477 1240 Z M659 0 L440 0 L1323 1400 L1542 1400 L659 0 Z M1503 732 Q1587 732 1658 702.5 Q1729 673 1781 622 Q1833 571 1862.5 502 Q1892 433 1892 354 Q1892 273 1862.5 203.5 Q1833 134 1781 83 Q1729 32 1658 3.5 Q1587 -25 1503 -25 Q1420 -25 1349.5 3.5 Q1279 32 1227 83 Q1175 134 1146 203.5 Q1117 273 1117 354 Q1117 435 1146 504 Q1175 573 1227 623.5 Q1279 674 1349.5 703 Q1420 732 1503 732 Z M1503 547 Q1462 547 1427.5 533 Q1393 519 1368 493.5 Q1343 468 1328.5 432.5 Q1314 397 1314 354 Q1314 311 1328.5 275 Q1343 239 1368 213.5 Q1393 188 1427.5 174 Q1462 160 1503 160 Q1545 160 1580 174 Q1615 188 1640.5 213.5 Q1666 239 1680.5 275 Q1695 311 1695 354 Q1695 397 1680.5 432.5 Q1666 468 1640.5 493.5 Q1615 519 1580 533 Q1545 547 1503 547 Z M2354 732 Q2438 732 2509 703 Q2580 674 2632 623.5 Q2684 573 2713.5 504 Q2743 435 2743 354 Q2743 273 2713.5 203.5 Q2684 134 2632 83 Q2580 32 2509 3.5 Q2438 -25 2354 -25 Q2271 -25 2200.5 3.5 Q2130 32 2078 83 Q2026 134 1997 203.5 Q1968 273 1968 354 Q1968 435 1997 504 Q2026 573 2078 623.5 Q2130 674 2200.5 703 Q2271 732 2354 732 Z M2354 547 Q2313 547 2278.5 533 Q2244 519 2219 493.5 Q2194 468 2179.5 432.5 Q2165 397 2165 354 Q2165 311 2179.5 275 Q2194 239 2219 213.5 Q2244 188 2278.5 174 Q2313 160 2354 160 Q2396 160 2431 174 Q2466 188 2491.5 213.5 Q2517 239 2531.5 275 Q2546 311 2546 354 Q2546 397 2531.5 432.5 Q2517 468 2491.5 493.5 Q2466 519 2431 533 Q2396 547 2354 547 Z " />
<glyph glyph-name="guilsinglleft" unicode="&#x2039;" horiz-adv-x="637" d="M519 154 L294 154 L105 533 L294 912 L519 912 L330 533 L519 154 Z " />
<glyph glyph-name="guilsinglright" unicode="&#x203a;" horiz-adv-x="637" d="M118 912 L343 912 L532 533 L343 154 L118 154 L307 533 L118 912 Z " />
<glyph glyph-name="Euro" unicode="&#x20ac;" horiz-adv-x="1400" d="M1041 449 L487 449 Q534 320 628.5 248.5 Q723 177 856 177 Q911 177 958.5 190 Q1006 203 1046.5 225.5 Q1087 248 1121.5 279 Q1156 310 1186 347 L1324 201 Q1238 96 1123.5 36 Q1009 -24 856 -24 Q742 -24 645 9 Q548 42 471.5 103.5 Q395 165 340 252.5 Q285 340 256 449 L73 449 L73 622 L228 622 Q225 659 225 700 Q225 739 228 778 L73 778 L73 951 L256 951 Q285 1060 340 1147.5 Q395 1235 471.5 1296.5 Q548 1358 645 1391 Q742 1424 856 1424 Q1009 1424 1126 1365.5 Q1243 1307 1329 1206 L1184 1053 Q1155 1090 1120.5 1121 Q1086 1152 1045.5 1174.5 Q1005 1197 957.5 1210 Q910 1223 855 1223 Q721 1223 627 1151 Q533 1079 487 951 L1041 951 L1041 778 L450 778 Q447 740 447 700 Q447 659 450 622 L1041 622 L1041 449 Z " />
<glyph glyph-name="uni0307" unicode="&#x307;" horiz-adv-x="1" d="M-612 1437 Q-581 1437 -554 1425.5 Q-527 1414 -507 1394 Q-487 1374 -475.5 1347 Q-464 1320 -464 1289 Q-464 1258 -475.5 1231 Q-487 1204 -507 1184.5 Q-527 1165 -554 1154 Q-581 1143 -612 1143 Q-643 1143 -670 1154 Q-697 1165 -716.5 1184.5 Q-736 1204 -747 1231 Q-758 1258 -758 1289 Q-758 1320 -747 1347 Q-736 1374 -716.5 1394 Q-697 1414 -670 1425.5 Q-643 1437 -612 1437 Z " />
<glyph glyph-name="gravecomb" unicode="&#x300;" horiz-adv-x="1" d="M-930 1410 L-664 1410 L-473 1110 L-679 1110 L-930 1410 Z " />
<glyph glyph-name="acutecomb" unicode="&#x301;" horiz-adv-x="1" d="M-762 1110 L-571 1410 L-305 1410 L-556 1110 L-762 1110 Z " />
<glyph glyph-name="uni0302" unicode="&#x302;" horiz-adv-x="1" d="M-480 1100 L-611 1263 L-742 1100 L-965 1100 L-754 1400 L-468 1400 L-257 1100 L-480 1100 Z " />
<glyph glyph-name="tildecomb" unicode="&#x303;" horiz-adv-x="1" d="M-982 1264 Q-931 1321 -875 1348.5 Q-819 1376 -742 1376 Q-691 1376 -652 1365.5 Q-613 1355 -582.5 1342 Q-552 1329 -526.5 1318.5 Q-501 1308 -477 1308 Q-444 1308 -413.5 1324.5 Q-383 1341 -345 1373 L-237 1240 Q-288 1183 -344 1155.5 Q-400 1128 -477 1128 Q-527 1128 -565.5 1138.5 Q-604 1149 -634.5 1162 Q-665 1175 -691 1185.5 Q-717 1196 -742 1196 Q-775 1196 -805.5 1179.5 Q-836 1163 -874 1131 L-982 1264 Z " />
<glyph glyph-name="uni0308" unicode="&#x308;" horiz-adv-x="1" d="M-812 1399 Q-781 1399 -754 1387.5 Q-727 1376 -707 1356 Q-687 1336 -675.5 1309 Q-664 1282 -664 1251 Q-664 1220 -675.5 1193 Q-687 1166 -707 1146.5 Q-727 1127 -754 1116 Q-781 1105 -812 1105 Q-843 1105 -870 1116 Q-897 1127 -916.5 1146.5 Q-936 1166 -947 1193 Q-958 1220 -958 1251 Q-958 1282 -947 1309 Q-936 1336 -916.5 1356 Q-897 1376 -870 1387.5 Q-843 1399 -812 1399 Z M-412 1399 Q-381 1399 -354 1387.5 Q-327 1376 -307 1356 Q-287 1336 -275.5 1309 Q-264 1282 -264 1251 Q-264 1220 -275.5 1193 Q-287 1166 -307 1146.5 Q-327 1127 -354 1116 Q-381 1105 -412 1105 Q-443 1105 -470 1116 Q-497 1127 -516.5 1146.5 Q-536 1166 -547 1193 Q-558 1220 -558 1251 Q-558 1282 -547 1309 Q-536 1336 -516.5 1356 Q-497 1376 -470 1387.5 Q-443 1399 -412 1399 Z " />
<glyph glyph-name="uni030A" unicode="&#x30a;" horiz-adv-x="1" d="M-612 1083 Q-663 1083 -708 1102 Q-753 1121 -787 1154.5 Q-821 1188 -840.5 1232.5 Q-860 1277 -860 1328 Q-860 1378 -840.5 1422.5 Q-821 1467 -787 1500 Q-753 1533 -708 1552.5 Q-663 1572 -612 1572 Q-561 1572 -515.5 1552.5 Q-470 1533 -436 1500 Q-402 1467 -382.5 1422.5 Q-363 1378 -363 1328 Q-363 1277 -382.5 1232.5 Q-402 1188 -436 1154.5 Q-470 1121 -515.5 1102 Q-561 1083 -612 1083 Z M-612 1215 Q-590 1215 -570 1223.5 Q-550 1232 -535 1247.5 Q-520 1263 -511 1283.5 Q-502 1304 -502 1328 Q-502 1351 -511 1371.5 Q-520 1392 -535 1407 Q-550 1422 -570 1430.5 Q-590 1439 -612 1439 Q-634 1439 -654 1430.5 Q-674 1422 -689 1407 Q-704 1392 -712.5 1371.5 Q-721 1351 -721 1328 Q-721 1304 -712.5 1283.5 Q-704 1263 -689 1247.5 Q-674 1232 -654 1223.5 Q-634 1215 -612 1215 Z " />
<glyph glyph-name="uni0327" unicode="&#x327;" horiz-adv-x="1" d="M-552 -321 L-771 -321 L-660 7 L-451 7 L-552 -321 Z " />
<glyph glyph-name="uni030C" unicode="&#x30c;" horiz-adv-x="1" d="M-742 1400 L-611 1237 L-480 1400 L-257 1400 L-468 1100 L-754 1100 L-965 1400 L-742 1400 Z " />
</font>
</svg>
