<?xml version="1.0" standalone="no"?>
<!DOCTYPE svg PUBLIC "-//W3C//DTD SVG 1.1//EN" "http://www.w3.org/Graphics/SVG/1.1/DTD/svg11.dtd" >
<svg xmlns="http://www.w3.org/2000/svg" xmlns:xlink="http://www.w3.org/1999/xlink" version="1.1">
<metadata>
Created by FontForge 20170924 at Wed Sep 18 19:51:24 2013
 By www-data
2013 published by FontShop International GmbH
</metadata>
<defs>
<font id="MarkOffcPro-ExtraLight" horiz-adv-x="1200" >
  <font-face 
    font-family="Mark Offc Pro Extra Light"
    font-weight="300"
    font-stretch="normal"
    units-per-em="2000"
    panose-1="2 11 4 4 2 1 1 1 1 2"
    ascent="1580"
    descent="-420"
    x-height="933"
    cap-height="1400"
    bbox="-1335 -480 2596 2200"
    underline-thickness="64"
    underline-position="-260"
    unicode-range="U+0020-FEFF"
  />
<missing-glyph horiz-adv-x="1192" 
d="M190 1400h812v-1400h-812v1400zM938 64v1272h-684v-1272h684z" />
    <glyph glyph-name=".notdef" horiz-adv-x="1192" 
d="M190 1400h812v-1400h-812v1400zM938 64v1272h-684v-1272h684z" />
    <glyph glyph-name=".null" horiz-adv-x="0" 
 />
    <glyph glyph-name="nonmarkingreturn" horiz-adv-x="526" 
 />
    <glyph glyph-name="space" unicode=" " horiz-adv-x="526" 
 />
    <glyph glyph-name="exclam" unicode="!" horiz-adv-x="516" 
d="M293 423h-70v977h70v-977zM258 111q24 0 42 -17.5t18 -42.5q0 -24 -18 -42t-42 -18t-42 18t-18 42q0 25 18 42.5t42 17.5z" />
    <glyph glyph-name="quotedbl" unicode="&#x22;" horiz-adv-x="968" 
d="M375 1440v-456h-70v456h70zM661 1440v-456h-70v456h70z" />
    <glyph glyph-name="numbersign" unicode="#" horiz-adv-x="1446" 
d="M503 1016l82 384h65l-82 -384h446l82 384h65l-82 -384h236l-14 -63h-235l-107 -500h236l-14 -63h-235l-83 -390h-65l83 390h-446l-83 -390h-65l83 390h-239l14 63h238l107 500h-239l13 63h239zM448 453h446l107 500h-446z" />
    <glyph glyph-name="dollar" unicode="$" horiz-adv-x="1400" 
d="M737 1591v-193q72 -3 137.5 -15.5t123 -32.5t106 -45.5t87.5 -53.5l-37 -58q-36 25 -81 48.5t-98 42.5t-113 31t-125 15v-594l81 -9q94 -10 168.5 -37t126 -70t79 -102t27.5 -133q-1 -93 -38.5 -163.5t-102.5 -118t-153 -73t-188 -29.5v-195h-65v194q-69 2 -139 16.5
t-134 36.5t-119.5 50t-94.5 57l39 57q34 -26 84 -51.5t109 -46.5t124.5 -35t130.5 -16v605l-60 7q-101 11 -175.5 40.5t-123 74t-72 102t-23.5 125.5q0 87 35 155.5t96 116.5t144 74.5t179 29.5v193h65zM737 666v-597q87 4 162 24.5t130 59.5t86.5 96t31.5 133
q1 116 -89 187.5t-270 91.5zM291 1024q0 -52 18.5 -98t60.5 -82.5t110 -62t166 -35.5l26 -3v587q-83 -3 -152.5 -25t-120 -61t-79.5 -94.5t-29 -125.5z" />
    <glyph glyph-name="percent" unicode="%" horiz-adv-x="1878" 
d="M444 1411q73 0 136.5 -26t109.5 -72t72.5 -108.5t26.5 -135.5t-26.5 -135.5t-72.5 -108.5t-109.5 -72t-136.5 -26q-72 0 -133.5 26t-107.5 72t-72 108.5t-26 135.5t26 135.5t72 108.5t107.5 72t133.5 26zM444 1349q-58 0 -108 -21t-87 -58.5t-58 -89t-21 -111.5
q0 -61 21 -112t58 -88.5t87 -58.5t108 -21q60 0 111 21t88.5 58.5t58.5 88.5t21 112q0 60 -21 111.5t-58.5 89t-88.5 58.5t-111 21zM534 0h-73l883 1400h73zM1429 673q73 0 136.5 -26t109.5 -72t72.5 -108.5t26.5 -135.5t-26.5 -135.5t-72.5 -108.5t-109.5 -72t-136.5 -26
q-72 0 -134 26t-108 72t-72 108.5t-26 135.5t26 135.5t72 108.5t108 72t134 26zM1429 611q-58 0 -108 -21t-87 -58.5t-58 -88.5t-21 -112t21 -112t58 -88.5t87 -58.5t108 -21q60 0 111 21t88.5 58.5t58.5 88.5t21 112t-21 112t-58.5 88.5t-88.5 58.5t-111 21z" />
    <glyph glyph-name="ampersand" unicode="&#x26;" horiz-adv-x="1345" 
d="M1200 0l-269 265q-41 -56 -86 -106t-97.5 -88t-115.5 -60t-140 -22q-83 0 -150.5 23.5t-116.5 66t-75.5 102.5t-26.5 134q0 75 26.5 137t70 115t99 98.5t113.5 88.5q-57 56 -99.5 102t-70 89t-41 85.5t-13.5 92.5q0 58 23 110.5t63.5 92t97 62.5t122.5 23t122 -22
t96.5 -60t63.5 -89t23 -108q0 -62 -23.5 -114.5t-62.5 -98.5t-89.5 -87t-104.5 -81l385 -379l248 357l56 -35l-255 -370l328 -324h-101zM496 55q65 0 118.5 19.5t99.5 54t87 81.5t81 103l-402 395q-54 -41 -105 -83t-90.5 -89t-63 -101t-23.5 -118q0 -58 22 -106t61.5 -82.5
t94 -54t120.5 -19.5zM283 1119q0 -40 11.5 -74.5t36.5 -71.5t64.5 -79t95.5 -97q50 37 96 74.5t81 77.5t56 84.5t21 95.5q0 45 -17 84t-47.5 68.5t-73 46.5t-93.5 17t-93.5 -18t-73 -48.5t-47.5 -72t-17 -87.5z" />
    <glyph glyph-name="quotesingle" unicode="'" horiz-adv-x="682" 
d="M375 1440v-456h-70v456h70z" />
    <glyph glyph-name="parenleft" unicode="(" horiz-adv-x="776" 
d="M688 1351q-101 -35 -185 -109.5t-144.5 -178t-94 -230t-33.5 -265.5t33.5 -265.5t94 -230t144.5 -178t185 -108.5l-23 -65q-111 37 -204.5 117.5t-161 192.5t-105 249t-37.5 288t37.5 288.5t105 249.5t161 192t204.5 118z" />
    <glyph glyph-name="parenright" unicode=")" horiz-adv-x="776" 
d="M88 -214q101 34 185 109t144.5 178.5t94 230t33.5 265.5t-33.5 265.5t-94 230t-144.5 178t-185 108.5l23 65q111 -38 204 -118t160.5 -192t105.5 -249t38 -288q0 -152 -38 -289t-105.5 -249t-160.5 -192.5t-204 -117.5z" />
    <glyph glyph-name="asterisk" unicode="*" horiz-adv-x="828" 
d="M388 1166v274h55v-274l259 85l17 -53l-259 -84l161 -222l-45 -32l-161 221l-161 -221l-44 32l161 221l-261 85l17 53z" />
    <glyph glyph-name="plus" unicode="+" 
d="M564 112v380h-379v64h379v386h65v-386h386v-64h-386v-380h-65z" />
    <glyph glyph-name="comma" unicode="," horiz-adv-x="480" 
d="M309 218l-85 -456h-61l66 456h80z" />
    <glyph glyph-name="hyphen" unicode="-" horiz-adv-x="830" 
d="M677 492h-524v64h524v-64z" />
    <glyph glyph-name="period" unicode="." horiz-adv-x="516" 
d="M258 109q24 0 42 -18t18 -42t-18 -42t-42 -18t-42 18t-18 42t18 42t42 18z" />
    <glyph glyph-name="slash" unicode="/" horiz-adv-x="973" 
d="M96 -200h-77l849 1740h77z" />
    <glyph glyph-name="zero" unicode="0" 
d="M601 1411q108 0 200.5 -45t161 -134t107 -222t38.5 -309q0 -180 -38.5 -314t-107 -222.5t-161 -132t-200.5 -43.5t-201 43.5t-161.5 132t-107.5 222.5t-39 314t39 313t107.5 221.5t161.5 132t201 43.5zM601 1342q-93 0 -172.5 -39t-138 -118.5t-91.5 -200t-33 -283.5
q0 -164 33 -284.5t91.5 -200.5t138 -119t172.5 -39t172 39t137 119t91 200.5t33 284.5q0 160 -33 280t-91 200t-137 120.5t-172 40.5z" />
    <glyph glyph-name="one" unicode="1" 
d="M621 68v1244l-449 -161v74l520 185v-1342h407v-68h-917v68h439z" />
    <glyph glyph-name="two" unicode="2" 
d="M160 1182q24 40 59.5 81t84 74t113 53.5t147.5 20.5q103 0 182.5 -32.5t133 -88.5t81 -131t27.5 -160q0 -64 -16 -120.5t-42 -106t-60.5 -92.5t-70.5 -81l-508 -531h755v-68h-862v56l560 585q36 37 67 77t54 84.5t36 93t13 103.5q0 70 -22.5 132.5t-67 109.5t-110.5 74
t-152 27q-69 0 -123 -17t-96 -45t-74 -64.5t-56 -75.5z" />
    <glyph glyph-name="three" unicode="3" 
d="M553 1411q99 0 180.5 -27.5t140 -76t91 -115.5t32.5 -146q0 -66 -17 -120t-48.5 -96t-75.5 -72.5t-98 -49.5q59 -18 108.5 -49.5t85.5 -74t56 -96.5t20 -117q0 -97 -39 -169t-104 -119t-148.5 -70.5t-171.5 -23.5q-135 0 -238.5 43.5t-179.5 119.5l47 49
q70 -68 162.5 -106t206.5 -38q76 0 146.5 19t124.5 57.5t86.5 97.5t32.5 140q0 70 -30.5 126t-82.5 95t-122.5 60t-149.5 21h-204v70h204q75 0 140 19t112.5 57.5t75 95t27.5 131.5q0 65 -28 119.5t-77.5 94t-118.5 61.5t-151 22q-57 0 -107 -13t-93 -35.5t-79 -54
t-63 -67.5l-52 44q31 42 71.5 77.5t90.5 61.5t109 40.5t128 14.5z" />
    <glyph glyph-name="four" unicode="4" 
d="M860 391h271v-68h-271v-323h-72v323h-693v56l523 1020h81l-518 -1008h607v408h72v-408z" />
    <glyph glyph-name="five" unicode="5" 
d="M989 1332h-660l-21 -514h235q125 0 219 -30.5t156.5 -84t94 -127t31.5 -159.5q0 -99 -34.5 -178.5t-96.5 -135t-147 -85t-185 -29.5q-286 0 -457 211l49 46q76 -94 180 -141t228 -47q90 0 162 26t122.5 73t77.5 111.5t27 142.5q0 73 -27 135.5t-82 107.5t-139 70.5
t-199 25.5h-284l24 650h726v-68z" />
    <glyph glyph-name="six" unicode="6" 
d="M358 820q54 28 114.5 42.5t126.5 14.5q104 0 192.5 -34t152.5 -93.5t100 -140.5t36 -176t-36 -176.5t-100 -141t-152.5 -93t-192.5 -33.5q-105 0 -193 34t-152.5 93.5t-100.5 140.5t-36 176q0 68 19 129.5t56 122.5l434 715h88zM599 810q-89 0 -164 -28.5t-129 -78.5
t-84.5 -119.5t-30.5 -150.5t30.5 -150.5t85 -119.5t129 -78.5t163.5 -28.5q88 0 163 28.5t129 78.5t84.5 119.5t30.5 150.5t-30.5 150.5t-84.5 119.5t-129 78.5t-163 28.5z" />
    <glyph glyph-name="seven" unicode="7" 
d="M1074 1344l-668 -1344h-83l665 1332h-848v68h934v-56z" />
    <glyph glyph-name="eight" unicode="8" 
d="M600 1411q96 0 180.5 -24t148.5 -70.5t101 -114.5t37 -156q0 -67 -20 -121t-55.5 -96t-83.5 -72t-104 -48q63 -18 117.5 -48t94 -72.5t62.5 -97.5t23 -123q0 -93 -39.5 -163.5t-108 -118.5t-159.5 -72.5t-194 -24.5t-194.5 24.5t-159.5 72.5t-108 118.5t-40 163.5
q0 68 23 123t62.5 97.5t94 72.5t117.5 48q-56 18 -104.5 48t-83.5 72t-55 96t-20 121q0 88 37 156t101 114.5t149 70.5t181 24zM600 676q-88 0 -165.5 -20t-135.5 -59t-91.5 -96.5t-33.5 -132.5q0 -77 33.5 -135.5t91.5 -97.5t135.5 -59t165.5 -20q87 0 164.5 20t135.5 59
t91.5 97.5t33.5 135.5q0 75 -33.5 132.5t-91.5 96.5t-135 59t-165 20zM600 1343q-81 0 -152.5 -19t-125 -56.5t-84.5 -93.5t-31 -129q0 -76 31 -133t84.5 -95.5t125 -58t152.5 -19.5q80 0 151.5 19.5t125 58t84.5 95.5t31 133q0 73 -31 129t-84.5 93.5t-125 56.5t-151.5 19z
" />
    <glyph glyph-name="nine" unicode="9" 
d="M842 580q-54 -28 -114.5 -42.5t-126.5 -14.5q-105 0 -193 34t-152 93.5t-100 140.5t-36 176t36 176t100 140.5t152 93.5t193 34t193 -34t152.5 -93.5t100.5 -140.5t36 -176q0 -68 -19 -129.5t-56 -121.5l-435 -716h-87zM601 590q89 0 163.5 28.5t129 78.5t85 119.5
t30.5 150.5t-30.5 150t-84.5 119.5t-129 79t-164 28.5t-163.5 -28.5t-128.5 -79t-84.5 -119.5t-30.5 -150t30.5 -150t84.5 -119.5t128.5 -79t163.5 -28.5z" />
    <glyph glyph-name="colon" unicode=":" horiz-adv-x="516" 
d="M258 944q24 0 42 -18t18 -42t-18 -42t-42 -18t-42 18t-18 42t18 42t42 18zM258 111q24 0 42 -17.5t18 -42.5q0 -24 -18 -42t-42 -18t-42 18t-18 42q0 25 18 42.5t42 17.5z" />
    <glyph glyph-name="semicolon" unicode=";" horiz-adv-x="480" 
d="M243 944q24 0 41.5 -18t17.5 -42t-17.5 -42t-41.5 -18t-42 18t-18 42t18 42t42 18zM309 218l-85 -456h-61l66 456h80z" />
    <glyph glyph-name="less" unicode="&#x3c;" 
d="M975 127l-750 363v70l750 362v-74l-680 -323l680 -323v-75z" />
    <glyph glyph-name="equal" unicode="=" 
d="M1015 327h-830v64h830v-64zM1015 657h-830v64h830v-64z" />
    <glyph glyph-name="greater" unicode="&#x3e;" 
d="M225 922l750 -363v-70l-750 -362v74l680 323l-680 323v75z" />
    <glyph glyph-name="question" unicode="?" horiz-adv-x="829" 
d="M233 423v303h31q93 0 168 22t127.5 62.5t81 98t28.5 128.5q0 69 -29.5 125t-82 95.5t-125.5 61t-159 21.5q-27 0 -56 -1.5t-52 -4.5l-6 71q26 4 57.5 6t59.5 2q103 0 189 -26.5t148.5 -75.5t97.5 -118t35 -154q0 -83 -31 -150t-88.5 -116t-140 -78t-185.5 -35l-4 -237
h-64zM265 109q24 0 42 -18t18 -42t-18 -42t-42 -18t-42 18t-18 42t18 42t42 18z" />
    <glyph glyph-name="at" unicode="@" horiz-adv-x="1983" 
d="M1367 372q0 -56 10 -95.5t29 -64.5t44.5 -36.5t57.5 -11.5q50 0 92 26t72 73.5t47 114.5t17 149q0 162 -57.5 293.5t-158 224.5t-236.5 144t-292 51q-104 0 -200 -26t-178.5 -73.5t-150 -114.5t-116 -149t-74.5 -177.5t-26 -199.5q0 -106 26 -202.5t74.5 -179.5t116 -151
t150 -116t178.5 -74t200 -26q128 0 242 38.5t211 108.5l33 -46q-104 -76 -226.5 -117t-259.5 -41q-114 0 -218 28.5t-194 80.5t-163 125t-125 162.5t-80.5 193t-28.5 216.5q0 111 28.5 213.5t80.5 191t125 161t163 124.5t194 80t218 28q170 0 317.5 -56t256.5 -157.5
t171.5 -243.5t62.5 -314q0 -89 -21 -165.5t-59 -133.5t-93 -89.5t-122 -32.5q-83 0 -133.5 46.5t-62.5 132.5q-48 -81 -132.5 -130t-197.5 -49q-83 0 -155 30t-124.5 82.5t-82.5 125t-30 156.5t30 156.5t82.5 125t124.5 82.5t155 30q112 0 195.5 -49t131.5 -130v169h61v-512
zM979 836q-71 0 -131.5 -25.5t-104.5 -70.5t-68.5 -106.5t-24.5 -133.5t24.5 -133.5t68.5 -106.5t104.5 -70.5t131.5 -25.5t131.5 25.5t104.5 70.5t69 106.5t25 133.5t-25 133.5t-69 106.5t-104.5 70.5t-131.5 25.5z" />
    <glyph glyph-name="A" unicode="A" horiz-adv-x="1386" 
d="M1342 0h-80l-186 433h-768l-186 -433h-78l604 1400h90zM338 504h707l-353 820z" />
    <glyph glyph-name="B" unicode="B" horiz-adv-x="1397" 
d="M758 1400q108 0 196.5 -20t152 -63.5t98.5 -111.5t35 -164q0 -61 -17 -112t-48.5 -91t-75.5 -70t-99 -49q126 -38 196.5 -124t70.5 -219q0 -99 -35 -170t-99 -116.5t-154.5 -67.5t-201.5 -22h-559v1400h540zM292 681v-611h482q94 0 171 16.5t131.5 53t84 95t29.5 141.5
q0 84 -29.5 142t-84 94t-131.5 52.5t-171 16.5h-482zM292 1330v-578h464q90 0 165 15t128.5 49t83 89.5t29.5 135.5t-29.5 135t-83.5 89.5t-128.5 49.5t-164.5 15h-464z" />
    <glyph glyph-name="C" unicode="C" horiz-adv-x="1526" 
d="M841 1411q88 0 171 -20t155.5 -56.5t132 -89.5t100.5 -119l-62 -42q-38 59 -91 106.5t-117 80.5t-137.5 51t-151.5 18q-132 0 -247.5 -46t-201 -130t-134.5 -202t-49 -262t49 -262t134.5 -202t201 -130t247.5 -46q78 0 151.5 17.5t137.5 50.5t117 80.5t91 106.5l61 -44
q-43 -65 -102.5 -117.5t-131.5 -89t-154 -56t-170 -19.5q-150 0 -279.5 51.5t-225 145.5t-150.5 225t-55 289q0 106 25 199.5t70.5 172.5t110 142t143 106.5t170 67t191.5 23.5z" />
    <glyph glyph-name="D" unicode="D" horiz-adv-x="1609" 
d="M707 1400q180 0 323.5 -48.5t243 -139t152.5 -220t53 -292.5t-53 -292.5t-152.5 -220t-243 -139t-323.5 -48.5h-489v1400h489zM292 1329v-1258h415q167 0 296.5 43.5t218 125.5t134.5 198t46 262t-46 262.5t-134.5 198t-218 125t-296.5 43.5h-415z" />
    <glyph glyph-name="E" unicode="E" horiz-adv-x="1330" 
d="M1155 0h-937v1400h933v-70h-859v-590h837v-70h-837v-600h863v-70z" />
    <glyph glyph-name="F" unicode="F" horiz-adv-x="1279" 
d="M1121 670h-829v-670h-74v1400h930v-71h-856v-589h829v-70z" />
    <glyph glyph-name="G" unicode="G" horiz-adv-x="1635" 
d="M841 1411q82 0 159 -17t146 -48.5t129 -77t108 -102.5l-55 -52q-43 52 -97 94t-116 71.5t-131.5 45t-142.5 15.5q-132 0 -247.5 -46t-201 -130t-134.5 -202t-49 -262t49 -262t134.5 -202t200 -130t245.5 -46t237.5 42.5t183 120.5t119.5 188t47 245h-522v70h602v-23
q0 -156 -47 -287t-134 -226t-210.5 -148t-275.5 -53q-95 0 -184 22.5t-167.5 65t-144 104.5t-112.5 141t-73 174t-26 204q0 158 55 289t151 224.5t225.5 145.5t278.5 52z" />
    <glyph glyph-name="H" unicode="H" horiz-adv-x="1554" 
d="M292 740h968v660h75v-1400h-75v670h-968v-670h-74v1400h74v-660z" />
    <glyph glyph-name="I" unicode="I" horiz-adv-x="511" 
d="M292 0h-74v1400h74v-1400z" />
    <glyph glyph-name="J" unicode="J" horiz-adv-x="1152" 
d="M944 505q0 -125 -37 -221t-102 -161.5t-153.5 -99.5t-191.5 -34q-73 0 -134.5 15t-112.5 39.5t-91 55.5t-70 63l49 52q28 -30 64.5 -58t81.5 -49t98 -33.5t115 -12.5q89 0 164 29t129.5 86t85 141t30.5 194v889h75v-895z" />
    <glyph glyph-name="K" unicode="K" horiz-adv-x="1340" 
d="M498 669h-206v-669h-74v1400h74v-661h207l658 661h97l-696 -692l738 -708h-102z" />
    <glyph glyph-name="L" unicode="L" horiz-adv-x="1193" 
d="M1149 0h-931v1400h74v-1329h857v-71z" />
    <glyph glyph-name="M" unicode="M" horiz-adv-x="1847" 
d="M1628 0h-75v1309l-591 -1129h-78l-592 1126v-1306h-74v1400h109l596 -1133l596 1133h109v-1400z" />
    <glyph glyph-name="N" unicode="N" horiz-adv-x="1558" 
d="M1339 0h-67l-979 1271l-1 -1271h-74v1400h67l979 -1271v1271h75v-1400z" />
    <glyph glyph-name="O" unicode="O" horiz-adv-x="1681" 
d="M841 1411q100 0 191.5 -23.5t170 -67t143 -106.5t110 -142t70.5 -173t25 -199q0 -158 -55 -289t-150.5 -225t-225 -145.5t-279.5 -51.5t-279.5 51.5t-225 145.5t-150.5 225t-55 289q0 106 25 199.5t70.5 172.5t110 142t143 106.5t170 67t191.5 23.5zM841 1340
q-132 0 -247.5 -46t-201 -130t-134.5 -202t-49 -262t49 -262t134.5 -202t201 -130t247.5 -46q88 0 169 21t151.5 60t127.5 95.5t98 127.5t63.5 155.5t22.5 180.5t-22.5 180.5t-63.5 155.5t-98 127.5t-127.5 95.5t-151.5 60t-169 21z" />
    <glyph glyph-name="P" unicode="P" horiz-adv-x="1334" 
d="M292 579v-579h-74v1400h509q114 0 205 -27t155.5 -79.5t99 -129t34.5 -174.5t-34.5 -174.5t-99 -129t-155.5 -80t-205 -27.5h-435zM292 1329v-679h434q96 0 173.5 22t132 64.5t83.5 106t29 147.5q0 83 -29 146.5t-83.5 106t-132 64.5t-173.5 22h-434z" />
    <glyph glyph-name="Q" unicode="Q" horiz-adv-x="1681" 
d="M841 1411q100 0 191.5 -23.5t170 -67t143 -106.5t110 -142t70.5 -173t25 -199q0 -137 -40.5 -251.5t-114.5 -204.5l199 -244h-88l-159 191q-96 -97 -226 -149.5t-281 -52.5q-150 0 -279.5 51.5t-225 145.5t-150.5 225t-55 289q0 106 25 199.5t70.5 172.5t110 142
t143 106.5t170 67t191.5 23.5zM841 1340q-132 0 -247.5 -46t-201 -130t-134.5 -202t-49 -262t49 -262t134.5 -202t201 -130t247.5 -46q137 0 255 49t205 140l-368 448h89l325 -394q60 80 93 179.5t33 217.5q0 96 -22.5 180.5t-63.5 155.5t-98 127.5t-127.5 95.5t-151.5 60
t-169 21z" />
    <glyph glyph-name="R" unicode="R" horiz-adv-x="1327" 
d="M732 1400q114 0 203 -25.5t150 -74.5t93 -120t32 -162q0 -90 -33 -161t-94.5 -120.5t-150 -75.5t-199.5 -26h-94l563 -635h-93l-558 635h-259v-635h-74v1400h514zM292 1330v-627h442q192 0 295.5 81.5t103.5 233.5q0 75 -26.5 133t-77.5 98t-125.5 60.5t-169.5 20.5h-442
z" />
    <glyph glyph-name="S" unicode="S" horiz-adv-x="1340" 
d="M1128 1195q-39 29 -87.5 55t-105.5 46t-124 32t-143 12q-91 0 -168.5 -21t-134.5 -61t-89 -98t-32 -132q0 -56 20 -102.5t63.5 -82.5t113.5 -60.5t169 -34.5l179 -19q97 -11 175 -35.5t132.5 -66t83.5 -102t29 -142.5q0 -100 -43 -174t-117 -123t-173.5 -73t-212.5 -24
q-82 0 -159 14.5t-145.5 38t-126.5 54t-101 63.5l41 59q37 -28 89.5 -56.5t115.5 -51t135.5 -36.5t150.5 -14q98 0 183.5 19t149 58.5t100 99t36.5 140.5q0 64 -23.5 112.5t-70 82.5t-116.5 55t-162 31l-183 19q-209 22 -309.5 111.5t-100.5 235.5q0 93 39 165t106.5 121.5
t159 75t197.5 25.5q84 0 156.5 -12.5t134 -34t113 -50t93.5 -59.5z" />
    <glyph glyph-name="T" unicode="T" horiz-adv-x="1218" 
d="M1174 1329h-528v-1329h-74v1329h-528v71h1130v-71z" />
    <glyph glyph-name="U" unicode="U" horiz-adv-x="1500" 
d="M1303 542q0 -138 -43.5 -241.5t-118.5 -172.5t-176 -104t-215 -35q-115 0 -216 35t-176 104t-118.5 172.5t-43.5 241.5v858h75v-853q0 -122 37 -213.5t101.5 -152t152 -90.5t188.5 -30q100 0 187.5 30t152 90.5t101.5 152t37 213.5v853h75v-858z" />
    <glyph glyph-name="V" unicode="V" horiz-adv-x="1373" 
d="M732 0h-90l-598 1400h80l563 -1323l565 1323h77z" />
    <glyph glyph-name="W" unicode="W" horiz-adv-x="2217" 
d="M1655 0h-89l-457 1302l-457 -1302h-89l-493 1400h79l459 -1316l461 1316h82l461 -1316l459 1316h76z" />
    <glyph glyph-name="X" unicode="X" horiz-adv-x="1381" 
d="M738 718l563 -718h-90l-521 662l-521 -662h-89l563 718l-534 682h91l491 -625l493 625h88z" />
    <glyph glyph-name="Y" unicode="Y" horiz-adv-x="1232" 
d="M654 619v-619h-74v619l-567 781h90l514 -710l515 710h87z" />
    <glyph glyph-name="Z" unicode="Z" horiz-adv-x="1343" 
d="M1207 1344l-977 -1273h982v-71h-1081v58l976 1271h-955v71h1055v-56z" />
    <glyph glyph-name="bracketleft" unicode="[" horiz-adv-x="721" 
d="M633 -263h-415v1663h415v-65h-344v-1533h344v-65z" />
    <glyph glyph-name="backslash" unicode="\" horiz-adv-x="973" 
d="M28 1540h77l849 -1740h-77z" />
    <glyph glyph-name="bracketright" unicode="]" horiz-adv-x="721" 
d="M88 1400h415v-1663h-415v65h344v1533h-344v65z" />
    <glyph glyph-name="asciicircum" unicode="^" 
d="M210 665l355 735h70l355 -735h-75l-316 663l-315 -663h-74z" />
    <glyph glyph-name="underscore" unicode="_" horiz-adv-x="933" 
d="M938 -231h-943v64h943v-64z" />
    <glyph glyph-name="grave" unicode="`" horiz-adv-x="860" 
d="M520 1069l-251 300h89l233 -300h-71z" />
    <glyph glyph-name="a" unicode="a" horiz-adv-x="1243" 
d="M1053 0h-69v218q-29 -51 -69.5 -93.5t-91.5 -72.5t-110.5 -46.5t-126.5 -16.5q-101 0 -187 36t-150 99.5t-100 151t-36 190.5t36 190.5t100 151.5t150 100t187 36q67 0 126.5 -16.5t110.5 -46.5t91.5 -72.5t69.5 -94.5v219h69v-933zM586 878q-87 0 -161 -31.5t-127.5 -87
t-83.5 -131t-30 -162.5t30 -162t84 -130.5t127.5 -87t160.5 -31.5t160.5 31.5t127 86.5t84 130t30.5 163t-30.5 163.5t-84 130.5t-127 86.5t-160.5 31.5z" />
    <glyph glyph-name="b" unicode="b" horiz-adv-x="1243" 
d="M657 944q100 0 187 -36t150.5 -100t100 -151.5t36.5 -190.5t-36.5 -190.5t-100 -151t-150.5 -99.5t-187 -36q-67 0 -126.5 16.5t-110 46.5t-91 72t-69.5 93v-217h-70v1440h70v-725q29 51 69.5 93.5t91 72.5t110 46.5t126.5 16.5zM657 878q-87 0 -160.5 -31.5t-127 -86.5
t-84 -130.5t-30.5 -163.5t30.5 -163t84 -130t127 -86.5t160.5 -31.5t161 31.5t127.5 87t83.5 130.5t30 162t-30 162.5t-84 131t-127.5 87t-160.5 31.5z" />
    <glyph glyph-name="c" unicode="c" horiz-adv-x="1021" 
d="M585 944q103 0 190.5 -37.5t150.5 -105.5l-45 -47q-58 58 -133 91t-165 33q-85 0 -158 -31t-126.5 -86t-84 -130.5t-30.5 -164.5t30.5 -164t84 -130t126.5 -86t158 -31q90 0 166 33.5t133 90.5l44 -47q-63 -68 -150.5 -105.5t-190.5 -37.5q-102 0 -188.5 36.5t-149.5 100
t-98.5 151t-35.5 189.5t35.5 189.5t98.5 151.5t149.5 100.5t188.5 36.5z" />
    <glyph glyph-name="d" unicode="d" horiz-adv-x="1243" 
d="M586 944q67 0 126.5 -16.5t110.5 -46.5t91.5 -72.5t69.5 -94.5v726h69v-1440h-69v218q-29 -51 -69.5 -93.5t-91.5 -72.5t-110.5 -46.5t-126.5 -16.5q-101 0 -187 36t-150 99.5t-100 151t-36 190.5t36 190.5t100 151.5t150 100t187 36zM586 878q-87 0 -161 -31.5
t-127.5 -87t-83.5 -131t-30 -162.5t30 -162t84 -130.5t127.5 -87t160.5 -31.5t160.5 31.5t127 86.5t84 130t30.5 163t-30.5 163.5t-84 130.5t-127 86.5t-160.5 31.5z" />
    <glyph glyph-name="e" unicode="e" horiz-adv-x="1123" 
d="M574 944q91 0 170.5 -35t138 -97.5t92.5 -149t36 -189.5q0 -8 -0.5 -15.5t-0.5 -15.5h-824q4 -89 35.5 -160.5t84 -121.5t123.5 -77.5t153 -27.5q111 0 192 41t146 109l42 -48q-45 -50 -92.5 -82.5t-95.5 -51.5t-97.5 -26.5t-98.5 -7.5q-101 0 -186.5 35t-147.5 98.5
t-96.5 151t-34.5 192.5q0 104 35.5 191.5t98 151.5t146.5 99.5t181 35.5zM573 878q-79 0 -146.5 -28t-119 -77.5t-83 -117.5t-38.5 -149h751q-5 81 -34.5 149t-78.5 117.5t-113 77.5t-138 28z" />
    <glyph glyph-name="f" unicode="f" horiz-adv-x="890" 
d="M817 869h-441v-869h-69v869h-250v64h250v162q0 80 16.5 146t53 112.5t94.5 72t142 25.5q75 0 138 -20t110 -50l-26 -58q-41 26 -98 44t-120 18q-66 0 -112 -20t-74.5 -57.5t-41.5 -91t-13 -121.5v-162h441v-64z" />
    <glyph glyph-name="g" unicode="g" horiz-adv-x="1238" 
d="M585 944q66 0 124.5 -16t109 -45t91 -70t69.5 -91v211h69v-870q0 -120 -39.5 -208.5t-106 -147t-154 -87.5t-183.5 -29q-121 0 -224 39.5t-171 107.5l35 53q64 -62 156 -99t204 -37q81 0 156 24t132.5 74t91.5 126.5t34 180.5v150q-29 -50 -69.5 -90.5t-91 -69.5
t-109 -45t-124.5 -16q-100 0 -186.5 36t-150 99.5t-99.5 151t-36 190.5t36 190.5t99.5 151.5t150 100t186.5 36zM585 878q-87 0 -161 -31.5t-127 -87t-83 -131t-30 -162.5t30 -162t83.5 -130.5t127 -87t160.5 -31.5t160.5 31.5t127.5 86.5t84.5 130t30.5 163t-30.5 163.5
t-84.5 130.5t-127.5 86.5t-160.5 31.5z" />
    <glyph glyph-name="h" unicode="h" horiz-adv-x="1192" 
d="M260 755q25 42 60 77t79 59.5t96.5 38.5t112.5 14q94 0 169.5 -28t128 -79.5t80.5 -125t28 -164.5v-547h-69v547q0 74 -22 135t-65.5 104.5t-107.5 67.5t-148 24q-76 0 -139 -26t-108 -71.5t-70 -107.5t-25 -133v-540h-70v1440h70v-685z" />
    <glyph glyph-name="i" unicode="i" horiz-adv-x="450" 
d="M260 0h-70v933h70v-933zM225 1327q22 0 37 -15t15 -37t-15 -36.5t-37 -14.5t-36.5 14.5t-14.5 36.5t14.5 37t36.5 15z" />
    <glyph glyph-name="j" unicode="j" horiz-adv-x="451" 
d="M261 -206q0 -99 -44.5 -151t-131.5 -52q-36 0 -68.5 10t-55.5 24l19 60q19 -12 44.5 -20t54.5 -8q113 0 113 140v1136h69v-1139zM226 1327q22 0 37 -15t15 -37t-15 -36.5t-37 -14.5t-36.5 14.5t-14.5 36.5t14.5 37t36.5 15z" />
    <glyph glyph-name="k" unicode="k" horiz-adv-x="1023" 
d="M260 522h173l435 411h89l-470 -441l480 -492h-89l-446 458h-172v-458h-70v1440h70v-918z" />
    <glyph glyph-name="l" unicode="l" horiz-adv-x="450" 
d="M260 0h-70v1440h70v-1440z" />
    <glyph glyph-name="m" unicode="m" horiz-adv-x="1947" 
d="M1357 944q96 0 172.5 -28t129.5 -79.5t81.5 -125t28.5 -164.5v-547h-70v547q0 74 -22 135t-65.5 104.5t-107.5 67.5t-147 24q-76 0 -139 -26t-108.5 -71.5t-70.5 -107.5t-25 -133v-540h-69v547q0 74 -22 135t-65.5 104.5t-107.5 67.5t-148 24q-76 0 -139 -26t-108 -71.5
t-70 -107.5t-25 -133v-540h-70v933h69v-179q25 42 60 77t79 60t97 39t113 14q141 0 237.5 -60.5t138.5 -169.5q23 51 59.5 93.5t84 73t105.5 47t124 16.5z" />
    <glyph glyph-name="n" unicode="n" horiz-adv-x="1192" 
d="M608 944q94 0 169.5 -28t128 -79.5t80.5 -125t28 -164.5v-547h-69v547q0 74 -22 135t-65.5 104.5t-107.5 67.5t-148 24q-76 0 -139 -26t-108 -71.5t-70 -107.5t-25 -133v-540h-70v933h69v-179q25 42 60 77t79 60t97 39t113 14z" />
    <glyph glyph-name="o" unicode="o" horiz-adv-x="1178" 
d="M588 944q102 0 189.5 -36.5t151.5 -100.5t100.5 -151.5t36.5 -189.5t-36.5 -189.5t-100.5 -151t-151.5 -100t-189.5 -36.5q-101 0 -188 36.5t-151 100t-100 151t-36 189.5t36 189.5t100 151.5t151 100.5t188 36.5zM588 878q-86 0 -160 -31t-128 -86t-85 -130.5
t-31 -164.5t31 -164t85 -130t128 -86t160 -31q87 0 161 31t129 86t86 130t31 164t-31 164.5t-86 130.5t-129 86t-161 31z" />
    <glyph glyph-name="p" unicode="p" horiz-adv-x="1243" 
d="M657 944q100 0 187 -36t150.5 -100t100 -151.5t36.5 -190.5t-36.5 -190.5t-100 -151t-150.5 -99.5t-187 -36q-67 0 -126.5 16.5t-110 46.5t-91 72t-69.5 93v-617h-70v1333h70v-218q29 51 69.5 93.5t91 72.5t110 46.5t126.5 16.5zM657 878q-87 0 -160.5 -31.5t-127 -86.5
t-84 -130.5t-30.5 -163.5t30.5 -163t84 -130t127 -86.5t160.5 -31.5t161 31.5t127.5 87t83.5 130.5t30 162t-30 162.5t-84 131t-127.5 87t-160.5 31.5z" />
    <glyph glyph-name="q" unicode="q" horiz-adv-x="1243" 
d="M586 944q67 0 126.5 -16.5t110.5 -46.5t91.5 -72.5t69.5 -94.5v219h69v-1333h-69v618q-29 -51 -69.5 -93.5t-91.5 -72.5t-110.5 -46.5t-126.5 -16.5q-101 0 -187 36t-150 99.5t-100 151t-36 190.5t36 190.5t100 151.5t150 100t187 36zM586 878q-87 0 -161 -31.5
t-127.5 -87t-83.5 -131t-30 -162.5t30 -162t84 -130.5t127.5 -87t160.5 -31.5t160.5 31.5t127 86.5t84 130t30.5 163t-30.5 163.5t-84 130.5t-127 86.5t-160.5 31.5z" />
    <glyph glyph-name="r" unicode="r" horiz-adv-x="793" 
d="M556 944q49 0 95.5 -10t84.5 -30l-19 -64q-35 20 -78.5 29.5t-88.5 9.5q-68 0 -121.5 -27t-91.5 -73.5t-58 -109t-20 -133.5v-536h-69v933h69v-164q44 78 118 126.5t179 48.5z" />
    <glyph glyph-name="s" unicode="s" horiz-adv-x="961" 
d="M808 780q-25 18 -60 36t-77.5 32t-91 22.5t-100.5 8.5q-61 0 -113 -13t-90 -38t-59.5 -61t-21.5 -82q0 -35 13.5 -64.5t42.5 -51.5t74.5 -37t110.5 -22l131 -14q143 -15 221 -73.5t78 -165.5q0 -66 -29.5 -116t-81.5 -84t-124.5 -51t-157.5 -17q-116 0 -211 32t-167 86
l35 55q29 -23 63 -42.5t76 -34t92.5 -23t112.5 -8.5q69 0 127.5 12t101.5 36.5t67.5 62t24.5 88.5q0 154 -242 178l-132 13q-80 8 -136.5 29t-92.5 52t-52.5 70.5t-16.5 86.5q0 62 26.5 110.5t73.5 82t112.5 51t142.5 17.5q56 0 108.5 -8.5t99 -23t86 -34t69.5 -41.5z" />
    <glyph glyph-name="t" unicode="t" horiz-adv-x="903" 
d="M819 869h-463v-557q0 -131 63.5 -194t170.5 -63q68 0 125 21t99 58l35 -51q-48 -43 -114 -68.5t-150 -25.5q-140 0 -219.5 80t-79.5 242v558h-229v64h229v315h70v-315h463v-64z" />
    <glyph glyph-name="u" unicode="u" horiz-adv-x="1180" 
d="M1002 381q0 -93 -31.5 -166t-86.5 -123.5t-130.5 -76.5t-163.5 -26t-163.5 26t-130.5 76.5t-86 123.5t-31 166v552h69v-546q0 -78 25 -140t70 -104.5t108 -65t139 -22.5t139 22.5t108 65t70 104.5t25 140v546h70v-552z" />
    <glyph glyph-name="v" unicode="v" horiz-adv-x="1016" 
d="M547 -4h-78l-430 937h76l393 -864l395 864h74z" />
    <glyph glyph-name="w" unicode="w" horiz-adv-x="1749" 
d="M1257 70l361 863h73l-394 -933h-81l-342 861l-342 -861h-80l-393 933h74l360 -863l343 863h78z" />
    <glyph glyph-name="x" unicode="x" horiz-adv-x="986" 
d="M539 478l409 -478h-86l-372 426l-370 -426h-82l408 477l-392 456h86l354 -408l355 408h83z" />
    <glyph glyph-name="y" unicode="y" horiz-adv-x="996" 
d="M187 -402h-78l369 618l-451 717h79l411 -648l383 648h77z" />
    <glyph glyph-name="z" unicode="z" horiz-adv-x="1078" 
d="M937 881l-711 -817h719v-64h-812v51l714 818h-693v64h783v-52z" />
    <glyph glyph-name="braceleft" unicode="{" horiz-adv-x="820" 
d="M658 1335q-52 0 -95.5 -16t-73.5 -49.5t-45.5 -86.5t-10.5 -127l10 -168q4 -70 -8 -124t-38.5 -93.5t-66 -64.5t-88.5 -37q49 -12 88.5 -37t66 -64.5t38.5 -93.5t8 -124l-10 -168q-5 -74 10.5 -127t45.5 -86.5t73.5 -49.5t95.5 -16h74v-65h-74q-71 0 -128 21.5t-97 65
t-59 109.5t-13 155l11 168q4 74 -12 127t-48 87t-78.5 50t-102.5 16v64q56 0 102.5 16t78.5 50t48 87t12 127l-11 168q-6 89 13 155t59 109.5t97 65t128 21.5h74v-65h-74z" />
    <glyph glyph-name="bar" unicode="|" horiz-adv-x="682" 
d="M375 -265h-70v1665h70v-1665z" />
    <glyph glyph-name="braceright" unicode="}" horiz-adv-x="820" 
d="M162 -197q52 0 95.5 16t73.5 49.5t45 86.5t11 127l-10 168q-5 70 7.5 124t39 93.5t66 64.5t88.5 37q-49 12 -88.5 37t-66 64.5t-39 93.5t-7.5 124l10 168q4 74 -11 127t-45 86.5t-73.5 49.5t-95.5 16h-74v65h74q70 0 127.5 -21.5t97.5 -65t59 -109.5t13 -155l-11 -168
q-5 -74 11.5 -127t48.5 -87t78.5 -50t102.5 -16v-64q-56 0 -102.5 -16t-78.5 -50t-48.5 -87t-11.5 -127l11 -168q6 -89 -13 -155t-59 -109.5t-97.5 -65t-127.5 -21.5h-74v65h74z" />
    <glyph glyph-name="asciitilde" unicode="~" 
d="M1021 559q-49 -55 -105 -83.5t-137 -28.5q-44 0 -77 7.5t-60.5 18t-52 23.5t-50 23.5t-56 18t-69.5 7.5q-65 0 -110.5 -24t-88.5 -72l-39 45q48 55 104 83.5t138 28.5q44 0 77 -7.5t60.5 -18t51.5 -23.5t50 -23.5t56 -18t70 -7.5q65 0 110 24t88 72z" />
    <glyph glyph-name="uni00A0" unicode="&#xa0;" horiz-adv-x="526" 
 />
    <glyph glyph-name="exclamdown" unicode="&#xa1;" horiz-adv-x="516" 
d="M223 510h70v-977h-70v977zM258 822q-24 0 -42 17.5t-18 42.5q0 24 18 42t42 18t42 -18t18 -42q0 -25 -18 -42.5t-42 -17.5z" />
    <glyph glyph-name="cent" unicode="&#xa2;" horiz-adv-x="1400" 
d="M773 1400v-223q102 -1 190 -38.5t151 -104.5l-42 -45q-59 57 -134 89.5t-165 34.5v-826q90 1 166.5 34t134.5 90l40 -45q-63 -67 -151 -104.5t-190 -38.5v-223h-65v226q-93 10 -170 50t-133 103t-87 144.5t-31 176.5q0 94 31 176t87 144.5t133 102.5t170 50v227h65z
M356 700q0 -81 26.5 -151.5t73 -124.5t111 -88.5t141.5 -44.5v818q-77 -10 -141.5 -45t-111 -89t-73 -124t-26.5 -151z" />
    <glyph glyph-name="sterling" unicode="&#xa3;" horiz-adv-x="1400" 
d="M1202 0h-1004v68h195v600h-195v64h195v212q0 115 34 202.5t92.5 146.5t136.5 88.5t167 29.5q112 0 202.5 -46t152.5 -140l-53 -45q-52 81 -129 121.5t-173 40.5q-75 0 -140.5 -25t-114 -75t-76 -125.5t-27.5 -176.5v-208h566v-64h-566v-600h737v-68z" />
    <glyph glyph-name="currency" unicode="&#xa4;" horiz-adv-x="1400" 
d="M293 1151l143 -144q54 47 122 73t146 26q76 0 143.5 -26t121.5 -73l143 144l41 -43l-142 -142q46 -54 72.5 -121.5t26.5 -144.5q0 -78 -26.5 -146t-73.5 -122l143 -142l-41 -42l-143 143q-54 -47 -121.5 -72.5t-143.5 -25.5q-78 0 -146 26t-122 73l-143 -144l-41 42
l143 143q-47 54 -73 121.5t-26 145.5q0 77 26 144t72 121l-143 143zM704 351q72 0 135 27t110.5 74.5t74.5 111t27 136.5t-27 136.5t-74.5 110.5t-110.5 74t-135 27q-73 0 -136.5 -27t-111 -74t-74.5 -110.5t-27 -136.5t27 -136.5t74.5 -111t111 -74.5t136.5 -27z" />
    <glyph glyph-name="yen" unicode="&#xa5;" horiz-adv-x="1400" 
d="M1164 345h-426v-345h-72v345h-426v63h426v248h-426v63h402l-510 681h86l484 -645l482 645h85l-508 -681h403v-63h-426v-248h426v-63z" />
    <glyph glyph-name="brokenbar" unicode="&#xa6;" horiz-adv-x="682" 
d="M375 706h-70v694h70v-694zM375 -265h-70v694h70v-694z" />
    <glyph glyph-name="section" unicode="&#xa7;" horiz-adv-x="1312" 
d="M1078 1204q-35 28 -79.5 53.5t-98 45t-113.5 31t-125 11.5q-83 0 -153 -17.5t-121.5 -50.5t-80.5 -80.5t-29 -108.5q0 -101 87 -159.5t248 -73.5l160 -15q76 -7 145.5 -28t122 -57t83.5 -88t31 -120q0 -91 -47.5 -155.5t-128.5 -104.5q70 -36 113 -93t43 -138
q0 -85 -38.5 -148t-105.5 -104t-156 -61.5t-190 -20.5q-80 0 -151 14t-133 36.5t-113.5 52t-90.5 59.5l38 56q34 -27 80.5 -54t103 -49t123.5 -35.5t143 -13.5q88 0 164.5 15.5t133 48t89 82t32.5 117.5q0 53 -26 93t-71.5 68.5t-107.5 46t-133 24.5l-166 17
q-84 8 -153 30.5t-118 59.5t-75.5 87.5t-26.5 115.5q0 87 46.5 151.5t126.5 104.5q-72 38 -112.5 96t-40.5 139q0 77 35.5 138t97 103t144.5 64t178 22q72 0 137 -12.5t122.5 -33t105.5 -48t86 -57.5zM581 790q-42 4 -80.5 12t-72.5 19q-80 -32 -125 -89t-45 -135
q0 -101 86.5 -159t249.5 -74l161 -16q42 -5 81.5 -12.5t75.5 -20.5q80 32 126.5 88t46.5 139q0 52 -26.5 93t-73 70t-108.5 46.5t-134 23.5z" />
    <glyph glyph-name="dieresis" unicode="&#xa8;" horiz-adv-x="866" 
d="M226 1268q22 0 37 -14.5t15 -36.5t-15 -37t-37 -15t-36.5 15t-14.5 37t14.5 36.5t36.5 14.5zM640 1268q22 0 37 -14.5t15 -36.5t-15 -37t-37 -15t-36.5 15t-14.5 37t14.5 36.5t36.5 14.5z" />
    <glyph glyph-name="copyright" unicode="&#xa9;" horiz-adv-x="1892" 
d="M947 1490q109 0 209.5 -28t188 -79.5t159.5 -123.5t123.5 -159.5t80 -188t28.5 -208.5t-28.5 -208.5t-80 -188t-123.5 -159.5t-159.5 -123.5t-188.5 -79.5t-209 -28q-109 0 -210 28t-188.5 79.5t-160 123.5t-124 159.5t-79.5 187.5t-28 209q0 108 28 208.5t79.5 188
t124 159.5t160 123.5t188.5 79.5t210 28zM947 1428q-101 0 -193.5 -26t-173.5 -73t-147 -113t-113 -146.5t-73 -173.5t-26 -193t26 -193t73 -173.5t113 -146.5t147 -113t173.5 -73t193.5 -26q100 0 192.5 26t173 73t147 113t113.5 146.5t73 173.5t26 193t-26 193t-73 173.5
t-113.5 146.5t-147 113t-173 73t-192.5 26zM1251 918q-45 69 -118.5 107.5t-163.5 38.5q-74 0 -138 -26t-112 -73.5t-75.5 -114t-27.5 -147.5q0 -83 28 -149.5t76 -113t112 -72t137 -25.5q90 0 164 38.5t119 106.5l49 -39q-52 -78 -139 -123t-193 -45q-88 0 -164.5 31
t-133 86.5t-89 133t-32.5 171.5t32.5 171.5t89 133t133 86.5t164.5 31q52 0 101.5 -12t92.5 -34t78.5 -53.5t61.5 -71.5z" />
    <glyph glyph-name="ordfeminine" unicode="&#xaa;" horiz-adv-x="777" 
d="M371 1305q59 0 109 -14.5t86 -46t56 -81t20 -118.5v-390h-58v103q-43 -45 -107 -78t-150 -33q-54 0 -98 13.5t-74.5 38.5t-47 59t-16.5 75t17 75.5t50.5 59t84 38t116.5 13.5h224v19q0 58 -16 98.5t-44.5 66t-68.5 37t-89 11.5q-69 0 -120 -22.5t-88 -53.5l-29 43
q44 37 104 62t139 25zM332 699q81 0 146 34.5t106 83.5v154h-217q-112 0 -163.5 -38.5t-51.5 -97.5q0 -60 48.5 -98t131.5 -38z" />
    <glyph glyph-name="guillemotleft" unicode="&#xab;" horiz-adv-x="968" 
d="M783 167h-76l-195 357l195 357h76l-195 -357zM425 167h-76l-195 357l195 357h76l-195 -357z" />
    <glyph glyph-name="logicalnot" unicode="&#xac;" 
d="M950 172v320h-765v64h830v-384h-65z" />
    <glyph glyph-name="uni00AD" unicode="&#xad;" horiz-adv-x="830" 
d="M677 492h-524v64h524v-64z" />
    <glyph glyph-name="registered" unicode="&#xae;" horiz-adv-x="817" 
d="M411 1426q73 0 137.5 -28t112.5 -76t76 -112.5t28 -137.5q0 -72 -28 -136t-76 -112t-112.5 -75.5t-137.5 -27.5q-75 0 -140.5 27.5t-114 75.5t-76.5 112t-28 136q0 73 28 137.5t76.5 112.5t114 76t140.5 28zM411 765q63 0 119 24t97 66t65 98t24 119q0 65 -24 121.5
t-65 98.5t-96.5 66t-119.5 24q-65 0 -121.5 -24t-98.5 -66t-66.5 -98.5t-24.5 -121.5q0 -63 24.5 -119t66.5 -98t98.5 -66t121.5 -24zM432 1253q60 0 95.5 -27t35.5 -77q0 -45 -33 -73t-90 -30l124 -147h-49l-121 147h-66v-147h-41v354h145zM328 1218v-139h104q42 0 66 18
t24 52t-24 51.5t-66 17.5h-104z" />
    <glyph glyph-name="macron" unicode="&#xaf;" horiz-adv-x="860" 
d="M146 1245h569v-58h-569v58z" />
    <glyph glyph-name="degree" unicode="&#xb0;" horiz-adv-x="734" 
d="M368 784q-65 0 -122.5 24.5t-100.5 67t-68 100t-25 122.5t25 122t68 99.5t100.5 67t122.5 24.5t122 -24.5t100 -67t67.5 -99.5t24.5 -122t-24.5 -122.5t-67.5 -100t-100 -67t-122 -24.5zM368 842q52 0 98.5 20t81 54.5t54.5 81t20 100.5q0 53 -20 99.5t-54.5 81t-81 54.5
t-98.5 20q-53 0 -99.5 -20t-81 -54.5t-54.5 -81t-20 -99.5q0 -54 20 -100.5t54.5 -81t81 -54.5t99.5 -20z" />
    <glyph glyph-name="plusminus" unicode="&#xb1;" 
d="M564 305v353h-379v64h379v378h65v-378h386v-64h-386v-353h-65zM1015 105h-830v64h830v-64z" />
    <glyph glyph-name="twosuperior" unicode="&#xb2;" horiz-adv-x="628" 
d="M69 1281q14 22 34 44t47.5 39.5t63 28.5t81.5 11q55 0 98.5 -17t72.5 -47t44.5 -70t15.5 -86q0 -68 -30.5 -119.5t-74.5 -97.5l-251 -257h385v-55h-469v46l293 300q37 38 61.5 81t24.5 98q0 34 -11.5 65t-33.5 53.5t-54.5 36t-75.5 13.5q-35 0 -63 -8.5t-50 -23t-39 -33
t-30 -38.5z" />
    <glyph glyph-name="threesuperior" unicode="&#xb3;" horiz-adv-x="625" 
d="M275 1404q54 0 99 -14.5t77 -40t50 -61t18 -78.5q0 -72 -39 -117t-103 -63q70 -17 113.5 -63t43.5 -115q0 -52 -21.5 -90t-56.5 -63t-81 -37.5t-94 -12.5q-74 0 -130 23t-98 65l34 40q37 -35 84.5 -55t106.5 -20q38 0 73.5 9t62.5 28t43.5 48t16.5 69q0 34 -15.5 61.5
t-42 47t-61.5 29.5t-75 10h-106v53h106q38 0 70.5 9.5t56.5 28t37.5 46.5t13.5 65q0 32 -13.5 58.5t-38 46t-59 30t-75.5 10.5q-60 0 -105.5 -24.5t-74.5 -62.5l-37 38q35 45 90 73.5t130 28.5z" />
    <glyph glyph-name="acute" unicode="&#xb4;" horiz-adv-x="860" 
d="M269 1069l233 300h89l-251 -300h-71z" />
    <glyph glyph-name="mu" unicode="&#xb5;" horiz-adv-x="1193" 
d="M179 -400v1333h69v-547q0 -74 22 -135t65.5 -104.5t107.5 -67.5t148 -24q76 0 139 26t108 71.5t70 107.5t25 133v540h70v-933h-69v179q-25 -42 -60 -77t-79 -60t-97 -39t-113 -14q-115 0 -200.5 40t-136.5 115v-544h-69z" />
    <glyph glyph-name="paragraph" unicode="&#xb6;" horiz-adv-x="1048" 
d="M522 804h-9q-82 0 -148 20t-112 58t-70.5 93.5t-24.5 126.5t24.5 126.5t70.5 93.5t112 58t148 20h66v-1400h-57v804zM686 1400h57v-1400h-57v1400z" />
    <glyph glyph-name="periodcentered" unicode="&#xb7;" horiz-adv-x="793" 
d="M397 584q24 0 42 -18t18 -42t-18 -42t-42 -18t-42 18t-18 42t18 42t42 18z" />
    <glyph glyph-name="cedilla" unicode="&#xb8;" horiz-adv-x="954" 
d="M462 -325h-73l107 330l69 -2z" />
    <glyph glyph-name="onesuperior" unicode="&#xb9;" horiz-adv-x="531" 
d="M362 655h-59v667l-250 -105v58l309 129v-749z" />
    <glyph glyph-name="ordmasculine" unicode="&#xba;" horiz-adv-x="841" 
d="M420 1305q70 0 130.5 -25t104.5 -69t69 -104t25 -130q0 -71 -25 -131t-69 -104.5t-104.5 -69.5t-130.5 -25t-130 25t-104.5 69.5t-69.5 104.5t-25 131q0 70 25 130t69.5 104t104.5 69t130 25zM420 1251q-57 0 -106.5 -20.5t-85.5 -57.5t-56.5 -87t-20.5 -109t20.5 -109.5
t56.5 -87t85.5 -57t106.5 -20.5t106.5 20.5t86 57t57 87t20.5 109.5t-20.5 109t-57 87t-86 57.5t-106.5 20.5z" />
    <glyph glyph-name="guillemotright" unicode="&#xbb;" horiz-adv-x="968" 
d="M185 881h76l195 -357l-195 -357h-76l195 357zM543 881h76l195 -357l-195 -357h-76l195 357z" />
    <glyph glyph-name="onequarter" unicode="&#xbc;" horiz-adv-x="1527" 
d="M341 0h-70l883 1400h70zM1349 218h136v-54h-136v-164h-59v164h-366v43l271 536h64l-266 -525h297v216h59v-216zM362 655h-59v667l-250 -105v58l309 129v-749z" />
    <glyph glyph-name="onehalf" unicode="&#xbd;" horiz-adv-x="1575" 
d="M341 0h-70l883 1400h70zM1017 626q14 22 34 44t47.5 39.5t63 28.5t81.5 11q55 0 98.5 -17t72.5 -47t44.5 -70t15.5 -86q0 -68 -30.5 -119.5t-74.5 -97.5l-251 -257h385v-55h-469v46l293 300q37 38 61.5 81t24.5 98q0 34 -11.5 65t-33.5 53.5t-54.5 36t-75.5 13.5
q-35 0 -63 -8.5t-50 -23t-39 -33t-30 -38.5zM362 655h-59v667l-250 -105v58l309 129v-749z" />
    <glyph glyph-name="threequarters" unicode="&#xbe;" horiz-adv-x="1605" 
d="M419 0h-70l883 1400h70zM1427 218h136v-54h-136v-164h-59v164h-366v43l271 536h64l-266 -525h297v216h59v-216zM275 1404q54 0 99 -14.5t77 -40t50 -61t18 -78.5q0 -72 -39 -117t-103 -63q70 -17 113.5 -63t43.5 -115q0 -52 -21.5 -90t-56.5 -63t-81 -37.5t-94 -12.5
q-74 0 -130 23t-98 65l34 40q37 -35 84.5 -55t106.5 -20q38 0 73.5 9t62.5 28t43.5 48t16.5 69q0 34 -15.5 61.5t-42 47t-61.5 29.5t-75 10h-106v53h106q38 0 70.5 9.5t56.5 28t37.5 46.5t13.5 65q0 32 -13.5 58.5t-38 46t-59 30t-75.5 10.5q-60 0 -105.5 -24.5t-74.5 -62.5
l-37 38q35 45 90 73.5t130 28.5z" />
    <glyph glyph-name="questiondown" unicode="&#xbf;" horiz-adv-x="829" 
d="M596 510v-303h-31q-93 0 -168 -22t-127.5 -62.5t-81 -98t-28.5 -128.5q0 -69 29.5 -125t82 -95.5t125.5 -61t159 -21.5q27 0 56 1.5t52 4.5l6 -71q-26 -4 -57.5 -6t-59.5 -2q-103 0 -189 26.5t-148.5 75.5t-97.5 118t-35 154q0 82 30.5 149t88 116t140 78t185.5 35l5 238
h64zM564 824q-24 0 -42 18t-18 42t18 42t42 18t42 -18t18 -42t-18 -42t-42 -18z" />
    <glyph glyph-name="Agrave" unicode="&#xc0;" horiz-adv-x="1386" 
d="M1342 0h-80l-186 433h-768l-186 -433h-78l604 1400h90zM338 504h707l-353 820zM486 1785h88l234 -300h-71z" />
    <glyph glyph-name="Aacute" unicode="&#xc1;" horiz-adv-x="1386" 
d="M1342 0h-80l-186 433h-768l-186 -433h-78l604 1400h90zM338 504h707l-353 820zM574 1485l233 300h89l-251 -300h-71z" />
    <glyph glyph-name="Acircumflex" unicode="&#xc2;" horiz-adv-x="1386" 
d="M1342 0h-80l-186 433h-768l-186 -433h-78l604 1400h90zM338 504h707l-353 820zM925 1499l-232 224l-232 -224h-77l266 273h86l266 -273h-77z" />
    <glyph glyph-name="Atilde" unicode="&#xc3;" horiz-adv-x="1386" 
d="M1342 0h-80l-186 433h-768l-186 -433h-78l604 1400h90zM338 504h707l-353 820zM367 1611q38 54 82.5 81.5t109.5 27.5q50 0 82.5 -14.5t60 -32.5t55.5 -32.5t69 -14.5q48 0 82.5 22t66.5 66l43 -40q-38 -54 -82.5 -81.5t-109.5 -27.5q-50 0 -82.5 15t-59.5 32.5
t-55.5 32.5t-69.5 15q-48 0 -82.5 -22t-66.5 -67z" />
    <glyph glyph-name="Adieresis" unicode="&#xc4;" horiz-adv-x="1386" 
d="M1342 0h-80l-186 433h-768l-186 -433h-78l604 1400h90zM338 504h707l-353 820zM486 1684q22 0 37 -14.5t15 -36.5t-15 -37t-37 -15t-36.5 15t-14.5 37t14.5 36.5t36.5 14.5zM900 1684q22 0 37 -14.5t15 -36.5t-15 -37t-37 -15t-36.5 15t-14.5 37t14.5 36.5t36.5 14.5z
" />
    <glyph glyph-name="Aring" unicode="&#xc5;" horiz-adv-x="1386" 
d="M1342 0h-80l-186 433h-768l-186 -433h-78l604 1400h90zM338 504h707l-353 820zM693 1474q-41 0 -77.5 15.5t-63.5 42.5t-43 63t-16 77t16 77t43 63t63.5 43t77.5 16t77 -16t63 -43t43 -63t16 -77t-16 -77t-43 -63t-63 -42.5t-77 -15.5zM693 1528q30 0 56 11t45.5 30.5
t30.5 46t11 56.5t-11 56.5t-30.5 46t-45.5 30.5t-56 11t-56.5 -11t-46 -30.5t-30.5 -46t-11 -56.5t11 -56.5t30.5 -46t46 -30.5t56.5 -11z" />
    <glyph glyph-name="AE" unicode="&#xc6;" horiz-adv-x="2240" 
d="M2065 0h-937v422h-680l-323 -422h-90l1073 1400h953v-70h-859v-590h837v-70h-837v-600h863v-70zM1128 493v818l-626 -818h626z" />
    <glyph glyph-name="Ccedilla" unicode="&#xc7;" horiz-adv-x="1526" 
d="M841 1411q88 0 171 -20t155.5 -56.5t132 -89.5t100.5 -119l-62 -42q-38 59 -91 106.5t-117 80.5t-137.5 51t-151.5 18q-132 0 -247.5 -46t-201 -130t-134.5 -202t-49 -262t49 -262t134.5 -202t201 -130t247.5 -46q78 0 151.5 17.5t137.5 50.5t117 80.5t91 106.5l61 -44
q-43 -65 -102.5 -117.5t-131.5 -89t-154 -56t-170 -19.5q-150 0 -279.5 51.5t-225 145.5t-150.5 225t-55 289q0 106 25 199.5t70.5 172.5t110 142t143 106.5t170 67t191.5 23.5zM788 -325h-76l107 330l72 -2z" />
    <glyph glyph-name="Egrave" unicode="&#xc8;" horiz-adv-x="1330" 
d="M1155 0h-937v1400h933v-70h-859v-590h837v-70h-837v-600h863v-70zM470 1785h88l234 -300h-71z" />
    <glyph glyph-name="Eacute" unicode="&#xc9;" horiz-adv-x="1330" 
d="M1155 0h-937v1400h933v-70h-859v-590h837v-70h-837v-600h863v-70zM558 1485l233 300h89l-251 -300h-71z" />
    <glyph glyph-name="Ecircumflex" unicode="&#xca;" horiz-adv-x="1330" 
d="M1155 0h-937v1400h933v-70h-859v-590h837v-70h-837v-600h863v-70zM909 1499l-232 224l-232 -224h-77l266 273h86l266 -273h-77z" />
    <glyph glyph-name="Edieresis" unicode="&#xcb;" horiz-adv-x="1330" 
d="M1155 0h-937v1400h933v-70h-859v-590h837v-70h-837v-600h863v-70zM470 1684q22 0 37 -14.5t15 -36.5t-15 -37t-37 -15t-36.5 15t-14.5 37t14.5 36.5t36.5 14.5zM884 1684q22 0 37 -14.5t15 -36.5t-15 -37t-37 -15t-36.5 15t-14.5 37t14.5 36.5t36.5 14.5z" />
    <glyph glyph-name="Igrave" unicode="&#xcc;" horiz-adv-x="511" 
d="M292 0h-74v1400h74v-1400zM48 1785h88l234 -300h-71z" />
    <glyph glyph-name="Iacute" unicode="&#xcd;" horiz-adv-x="511" 
d="M292 0h-74v1400h74v-1400zM136 1485l233 300h89l-251 -300h-71z" />
    <glyph glyph-name="Icircumflex" unicode="&#xce;" horiz-adv-x="511" 
d="M292 0h-74v1400h74v-1400zM487 1499l-232 224l-232 -224h-77l266 273h86l266 -273h-77z" />
    <glyph glyph-name="Idieresis" unicode="&#xcf;" horiz-adv-x="511" 
d="M292 0h-74v1400h74v-1400zM48 1684q22 0 37 -14.5t15 -36.5t-15 -37t-37 -15t-36.5 15t-14.5 37t14.5 36.5t36.5 14.5zM462 1684q22 0 37 -14.5t15 -36.5t-15 -37t-37 -15t-36.5 15t-14.5 37t14.5 36.5t36.5 14.5z" />
    <glyph glyph-name="Eth" unicode="&#xd0;" horiz-adv-x="1810" 
d="M908 1400q180 0 323.5 -48.5t243 -139t152.5 -220t53 -292.5t-53 -292.5t-152.5 -220t-243 -139t-323.5 -48.5h-489v670h-288v70h288v660h489zM935 670h-442v-599h415q167 0 296.5 43.5t218 125.5t134.5 198t46 262t-46 262.5t-134.5 198t-218 125t-296.5 43.5h-415v-589
h442v-70z" />
    <glyph glyph-name="Ntilde" unicode="&#xd1;" horiz-adv-x="1558" 
d="M1339 0h-67l-979 1271l-1 -1271h-74v1400h67l979 -1271v1271h75v-1400zM452 1611q38 54 82.5 81.5t109.5 27.5q50 0 82.5 -14.5t60 -32.5t55.5 -32.5t69 -14.5q48 0 82.5 22t66.5 66l43 -40q-38 -54 -82.5 -81.5t-109.5 -27.5q-50 0 -82.5 15t-59.5 32.5t-55.5 32.5
t-69.5 15q-48 0 -82.5 -22t-66.5 -67z" />
    <glyph glyph-name="Ograve" unicode="&#xd2;" horiz-adv-x="1681" 
d="M841 1411q100 0 191.5 -23.5t170 -67t143 -106.5t110 -142t70.5 -173t25 -199q0 -158 -55 -289t-150.5 -225t-225 -145.5t-279.5 -51.5t-279.5 51.5t-225 145.5t-150.5 225t-55 289q0 106 25 199.5t70.5 172.5t110 142t143 106.5t170 67t191.5 23.5zM841 1340
q-132 0 -247.5 -46t-201 -130t-134.5 -202t-49 -262t49 -262t134.5 -202t201 -130t247.5 -46q88 0 169 21t151.5 60t127.5 95.5t98 127.5t63.5 155.5t22.5 180.5t-22.5 180.5t-63.5 155.5t-98 127.5t-127.5 95.5t-151.5 60t-169 21zM634 1785h88l234 -300h-71z" />
    <glyph glyph-name="Oacute" unicode="&#xd3;" horiz-adv-x="1681" 
d="M841 1411q100 0 191.5 -23.5t170 -67t143 -106.5t110 -142t70.5 -173t25 -199q0 -158 -55 -289t-150.5 -225t-225 -145.5t-279.5 -51.5t-279.5 51.5t-225 145.5t-150.5 225t-55 289q0 106 25 199.5t70.5 172.5t110 142t143 106.5t170 67t191.5 23.5zM841 1340
q-132 0 -247.5 -46t-201 -130t-134.5 -202t-49 -262t49 -262t134.5 -202t201 -130t247.5 -46q88 0 169 21t151.5 60t127.5 95.5t98 127.5t63.5 155.5t22.5 180.5t-22.5 180.5t-63.5 155.5t-98 127.5t-127.5 95.5t-151.5 60t-169 21zM722 1485l233 300h89l-251 -300h-71z" />
    <glyph glyph-name="Ocircumflex" unicode="&#xd4;" horiz-adv-x="1681" 
d="M841 1411q100 0 191.5 -23.5t170 -67t143 -106.5t110 -142t70.5 -173t25 -199q0 -158 -55 -289t-150.5 -225t-225 -145.5t-279.5 -51.5t-279.5 51.5t-225 145.5t-150.5 225t-55 289q0 106 25 199.5t70.5 172.5t110 142t143 106.5t170 67t191.5 23.5zM841 1340
q-132 0 -247.5 -46t-201 -130t-134.5 -202t-49 -262t49 -262t134.5 -202t201 -130t247.5 -46q88 0 169 21t151.5 60t127.5 95.5t98 127.5t63.5 155.5t22.5 180.5t-22.5 180.5t-63.5 155.5t-98 127.5t-127.5 95.5t-151.5 60t-169 21zM1073 1499l-232 224l-232 -224h-77
l266 273h86l266 -273h-77z" />
    <glyph glyph-name="Otilde" unicode="&#xd5;" horiz-adv-x="1681" 
d="M841 1411q100 0 191.5 -23.5t170 -67t143 -106.5t110 -142t70.5 -173t25 -199q0 -158 -55 -289t-150.5 -225t-225 -145.5t-279.5 -51.5t-279.5 51.5t-225 145.5t-150.5 225t-55 289q0 106 25 199.5t70.5 172.5t110 142t143 106.5t170 67t191.5 23.5zM841 1340
q-132 0 -247.5 -46t-201 -130t-134.5 -202t-49 -262t49 -262t134.5 -202t201 -130t247.5 -46q88 0 169 21t151.5 60t127.5 95.5t98 127.5t63.5 155.5t22.5 180.5t-22.5 180.5t-63.5 155.5t-98 127.5t-127.5 95.5t-151.5 60t-169 21zM515 1611q38 54 82.5 81.5t109.5 27.5
q50 0 82.5 -14.5t60 -32.5t55.5 -32.5t69 -14.5q48 0 82.5 22t66.5 66l43 -40q-38 -54 -82.5 -81.5t-109.5 -27.5q-50 0 -82.5 15t-59.5 32.5t-55.5 32.5t-69.5 15q-48 0 -82.5 -22t-66.5 -67z" />
    <glyph glyph-name="Odieresis" unicode="&#xd6;" horiz-adv-x="1681" 
d="M841 1411q100 0 191.5 -23.5t170 -67t143 -106.5t110 -142t70.5 -173t25 -199q0 -158 -55 -289t-150.5 -225t-225 -145.5t-279.5 -51.5t-279.5 51.5t-225 145.5t-150.5 225t-55 289q0 106 25 199.5t70.5 172.5t110 142t143 106.5t170 67t191.5 23.5zM841 1340
q-132 0 -247.5 -46t-201 -130t-134.5 -202t-49 -262t49 -262t134.5 -202t201 -130t247.5 -46q88 0 169 21t151.5 60t127.5 95.5t98 127.5t63.5 155.5t22.5 180.5t-22.5 180.5t-63.5 155.5t-98 127.5t-127.5 95.5t-151.5 60t-169 21zM634 1684q22 0 37 -14.5t15 -36.5
t-15 -37t-37 -15t-36.5 15t-14.5 37t14.5 36.5t36.5 14.5zM1048 1684q22 0 37 -14.5t15 -36.5t-15 -37t-37 -15t-36.5 15t-14.5 37t14.5 36.5t36.5 14.5z" />
    <glyph glyph-name="multiply" unicode="&#xd7;" 
d="M249 220l303 303l-303 304l46 46l303 -304l308 308l46 -45l-308 -308l308 -308l-46 -46l-309 307l-303 -302z" />
    <glyph glyph-name="Oslash" unicode="&#xd8;" horiz-adv-x="1681" 
d="M841 1411q142 0 265 -46.5t218 -131.5l177 177l50 -49l-177 -177q83 -93 130 -215t47 -269q0 -158 -55 -289t-150.5 -225t-225 -145.5t-279.5 -51.5q-143 0 -266 46.5t-218 131.5l-177 -177l-50 49l177 177q-83 93 -129.5 215t-46.5 269q0 106 25 199.5t70.5 172.5
t110 142t143 106.5t170 67t191.5 23.5zM1473 700q0 131 -40.5 239.5t-112.5 190.5l-910 -910q85 -77 194.5 -118.5t236.5 -41.5q88 0 169 21t151.5 60t127.5 95.5t98 127.5t63.5 155.5t22.5 180.5zM841 1340q-132 0 -247.5 -46t-201 -130t-134.5 -202t-49 -262
q0 -131 40 -239.5t112 -190.5l910 910q-85 77 -194.5 118.5t-235.5 41.5z" />
    <glyph glyph-name="Ugrave" unicode="&#xd9;" horiz-adv-x="1500" 
d="M1303 542q0 -138 -43.5 -241.5t-118.5 -172.5t-176 -104t-215 -35q-115 0 -216 35t-176 104t-118.5 172.5t-43.5 241.5v858h75v-853q0 -122 37 -213.5t101.5 -152t152 -90.5t188.5 -30q100 0 187.5 30t152 90.5t101.5 152t37 213.5v853h75v-858zM543 1785h88l234 -300
h-71z" />
    <glyph glyph-name="Uacute" unicode="&#xda;" horiz-adv-x="1500" 
d="M1303 542q0 -138 -43.5 -241.5t-118.5 -172.5t-176 -104t-215 -35q-115 0 -216 35t-176 104t-118.5 172.5t-43.5 241.5v858h75v-853q0 -122 37 -213.5t101.5 -152t152 -90.5t188.5 -30q100 0 187.5 30t152 90.5t101.5 152t37 213.5v853h75v-858zM631 1485l233 300h89
l-251 -300h-71z" />
    <glyph glyph-name="Ucircumflex" unicode="&#xdb;" horiz-adv-x="1500" 
d="M1303 542q0 -138 -43.5 -241.5t-118.5 -172.5t-176 -104t-215 -35q-115 0 -216 35t-176 104t-118.5 172.5t-43.5 241.5v858h75v-853q0 -122 37 -213.5t101.5 -152t152 -90.5t188.5 -30q100 0 187.5 30t152 90.5t101.5 152t37 213.5v853h75v-858zM982 1499l-232 224
l-232 -224h-77l266 273h86l266 -273h-77z" />
    <glyph glyph-name="Udieresis" unicode="&#xdc;" horiz-adv-x="1500" 
d="M1303 542q0 -138 -43.5 -241.5t-118.5 -172.5t-176 -104t-215 -35q-115 0 -216 35t-176 104t-118.5 172.5t-43.5 241.5v858h75v-853q0 -122 37 -213.5t101.5 -152t152 -90.5t188.5 -30q100 0 187.5 30t152 90.5t101.5 152t37 213.5v853h75v-858zM543 1684q22 0 37 -14.5
t15 -36.5t-15 -37t-37 -15t-36.5 15t-14.5 37t14.5 36.5t36.5 14.5zM957 1684q22 0 37 -14.5t15 -36.5t-15 -37t-37 -15t-36.5 15t-14.5 37t14.5 36.5t36.5 14.5z" />
    <glyph glyph-name="Yacute" unicode="&#xdd;" horiz-adv-x="1232" 
d="M654 619v-619h-74v619l-567 781h90l514 -710l515 710h87zM499 1485l233 300h89l-251 -300h-71z" />
    <glyph glyph-name="Thorn" unicode="&#xde;" horiz-adv-x="1334" 
d="M292 1125h435q114 0 205 -27t155.5 -79.5t99 -129t34.5 -174.5t-34.5 -174.5t-99 -129t-155.5 -79.5t-205 -27h-435v-305h-74v1400h74v-275zM292 1055v-680h434q97 0 174.5 22t131.5 64.5t83 106t29 147.5t-29 147.5t-83 106t-131.5 64.5t-174.5 22h-434z" />
    <glyph glyph-name="germandbls" unicode="&#xdf;" horiz-adv-x="1205" 
d="M180 1018q0 99 30.5 179t87.5 136.5t137.5 87t180.5 30.5q91 0 171 -26t139 -75t93 -119.5t34 -159.5q0 -65 -18 -119.5t-49.5 -96.5t-75.5 -72t-96 -45q61 -14 112.5 -46t88.5 -78t57.5 -105t20.5 -127q0 -93 -32 -166t-86.5 -123.5t-126.5 -77t-153 -26.5
q-86 0 -147 17t-110 43l20 61q45 -24 99.5 -40t128.5 -16q70 0 131 21.5t106.5 63.5t71.5 103t26 140q0 72 -26.5 131t-74.5 101t-114 64.5t-145 22.5h-91v64h70q69 0 131.5 19.5t109 58.5t74 96t27.5 132t-28.5 133.5t-78 98.5t-117 61t-144.5 21q-80 0 -147 -24.5
t-115 -72t-75 -116.5t-27 -158v-1014h-70v1018z" />
    <glyph glyph-name="agrave" unicode="&#xe0;" horiz-adv-x="1243" 
d="M1053 0h-69v218q-29 -51 -69.5 -93.5t-91.5 -72.5t-110.5 -46.5t-126.5 -16.5q-101 0 -187 36t-150 99.5t-100 151t-36 190.5t36 190.5t100 151.5t150 100t187 36q67 0 126.5 -16.5t110.5 -46.5t91.5 -72.5t69.5 -94.5v219h69v-933zM586 878q-87 0 -161 -31.5t-127.5 -87
t-83.5 -131t-30 -162.5t30 -162t84 -130.5t127.5 -87t160.5 -31.5t160.5 31.5t127 86.5t84 130t30.5 163t-30.5 163.5t-84 130.5t-127 86.5t-160.5 31.5zM370 1369h88l234 -300h-71z" />
    <glyph glyph-name="aacute" unicode="&#xe1;" horiz-adv-x="1243" 
d="M1053 0h-69v218q-29 -51 -69.5 -93.5t-91.5 -72.5t-110.5 -46.5t-126.5 -16.5q-101 0 -187 36t-150 99.5t-100 151t-36 190.5t36 190.5t100 151.5t150 100t187 36q67 0 126.5 -16.5t110.5 -46.5t91.5 -72.5t69.5 -94.5v219h69v-933zM586 878q-87 0 -161 -31.5t-127.5 -87
t-83.5 -131t-30 -162.5t30 -162t84 -130.5t127.5 -87t160.5 -31.5t160.5 31.5t127 86.5t84 130t30.5 163t-30.5 163.5t-84 130.5t-127 86.5t-160.5 31.5zM497 1069l233 300h89l-251 -300h-71z" />
    <glyph glyph-name="acircumflex" unicode="&#xe2;" horiz-adv-x="1243" 
d="M1053 0h-69v218q-29 -51 -69.5 -93.5t-91.5 -72.5t-110.5 -46.5t-126.5 -16.5q-101 0 -187 36t-150 99.5t-100 151t-36 190.5t36 190.5t100 151.5t150 100t187 36q67 0 126.5 -16.5t110.5 -46.5t91.5 -72.5t69.5 -94.5v219h69v-933zM586 878q-87 0 -161 -31.5t-127.5 -87
t-83.5 -131t-30 -162.5t30 -162t84 -130.5t127.5 -87t160.5 -31.5t160.5 31.5t127 86.5t84 130t30.5 163t-30.5 163.5t-84 130.5t-127 86.5t-160.5 31.5zM832 1083l-232 224l-232 -224h-77l266 273h86l266 -273h-77z" />
    <glyph glyph-name="atilde" unicode="&#xe3;" horiz-adv-x="1243" 
d="M1053 0h-69v218q-29 -51 -69.5 -93.5t-91.5 -72.5t-110.5 -46.5t-126.5 -16.5q-101 0 -187 36t-150 99.5t-100 151t-36 190.5t36 190.5t100 151.5t150 100t187 36q67 0 126.5 -16.5t110.5 -46.5t91.5 -72.5t69.5 -94.5v219h69v-933zM586 878q-87 0 -161 -31.5t-127.5 -87
t-83.5 -131t-30 -162.5t30 -162t84 -130.5t127.5 -87t160.5 -31.5t160.5 31.5t127 86.5t84 130t30.5 163t-30.5 163.5t-84 130.5t-127 86.5t-160.5 31.5zM289 1195q38 54 82.5 81.5t109.5 27.5q50 0 82.5 -14.5t60 -32.5t55.5 -32.5t69 -14.5q48 0 82.5 22t66.5 66l43 -40
q-38 -54 -82.5 -81.5t-109.5 -27.5q-50 0 -82.5 15t-59.5 32.5t-55.5 32.5t-69.5 15q-48 0 -82.5 -22t-66.5 -67z" />
    <glyph glyph-name="adieresis" unicode="&#xe4;" horiz-adv-x="1243" 
d="M1053 0h-69v218q-29 -51 -69.5 -93.5t-91.5 -72.5t-110.5 -46.5t-126.5 -16.5q-101 0 -187 36t-150 99.5t-100 151t-36 190.5t36 190.5t100 151.5t150 100t187 36q67 0 126.5 -16.5t110.5 -46.5t91.5 -72.5t69.5 -94.5v219h69v-933zM586 878q-87 0 -161 -31.5t-127.5 -87
t-83.5 -131t-30 -162.5t30 -162t84 -130.5t127.5 -87t160.5 -31.5t160.5 31.5t127 86.5t84 130t30.5 163t-30.5 163.5t-84 130.5t-127 86.5t-160.5 31.5zM393 1268q22 0 37 -14.5t15 -36.5t-15 -37t-37 -15t-36.5 15t-14.5 37t14.5 36.5t36.5 14.5zM807 1268q22 0 37 -14.5
t15 -36.5t-15 -37t-37 -15t-36.5 15t-14.5 37t14.5 36.5t36.5 14.5z" />
    <glyph glyph-name="aring" unicode="&#xe5;" horiz-adv-x="1243" 
d="M1053 0h-69v218q-29 -51 -69.5 -93.5t-91.5 -72.5t-110.5 -46.5t-126.5 -16.5q-101 0 -187 36t-150 99.5t-100 151t-36 190.5t36 190.5t100 151.5t150 100t187 36q67 0 126.5 -16.5t110.5 -46.5t91.5 -72.5t69.5 -94.5v219h69v-933zM586 878q-87 0 -161 -31.5t-127.5 -87
t-83.5 -131t-30 -162.5t30 -162t84 -130.5t127.5 -87t160.5 -31.5t160.5 31.5t127 86.5t84 130t30.5 163t-30.5 163.5t-84 130.5t-127 86.5t-160.5 31.5zM600 1058q-41 0 -77.5 15.5t-63.5 42.5t-43 63t-16 77t16 77t43 63t63.5 43t77.5 16t77 -16t63 -43t43 -63t16 -77
t-16 -77t-43 -63t-63 -42.5t-77 -15.5zM600 1112q30 0 56 11t45.5 30.5t30.5 46t11 56.5t-11 56.5t-30.5 46t-45.5 30.5t-56 11t-56.5 -11t-46 -30.5t-30.5 -46t-11 -56.5t11 -56.5t30.5 -46t46 -30.5t56.5 -11z" />
    <glyph glyph-name="ae" unicode="&#xe6;" horiz-adv-x="1843" 
d="M1294 944q91 0 170.5 -35t138 -97.5t92.5 -149t36 -189.5v-16q0 -7 -1 -15h-823q4 -89 35 -160.5t83.5 -121.5t122.5 -77.5t152 -27.5q111 0 194.5 42t145.5 108l42 -48q-45 -50 -92.5 -82.5t-96 -51.5t-98.5 -26.5t-99 -7.5q-132 0 -234 57t-162 159q-35 -48 -81 -88
t-101 -68.5t-117.5 -44t-129.5 -15.5q-83 0 -149.5 18.5t-113 52.5t-71 81.5t-24.5 106.5t24.5 107t72.5 81.5t119.5 51.5t166.5 18h340v51q0 87 -24 147.5t-67.5 99t-103.5 56t-133 17.5q-50 0 -93.5 -8.5t-81 -23t-69 -33.5t-58.5 -40l-37 52q66 54 150.5 87t193.5 33
q72 0 134 -15t111 -46.5t82.5 -81.5t48.5 -119q25 59 66.5 107t94 82.5t114.5 53.5t130 19zM1293 878q-79 0 -146.5 -28t-118.5 -77.5t-82.5 -117.5t-38.5 -149h750q-5 81 -34.5 149t-78 117.5t-113 77.5t-138.5 28zM471 55q59 0 116 14.5t109 42t96 67t78 88.5
q-32 78 -37 175h-326q-84 0 -144.5 -13.5t-99.5 -39t-57.5 -61.5t-18.5 -80t20 -79.5t56.5 -60.5t89 -39t118.5 -14z" />
    <glyph glyph-name="ccedilla" unicode="&#xe7;" horiz-adv-x="1021" 
d="M585 944q103 0 190.5 -37.5t150.5 -105.5l-45 -47q-58 58 -133 91t-165 33q-85 0 -158 -31t-126.5 -86t-84 -130.5t-30.5 -164.5t30.5 -164t84 -130t126.5 -86t158 -31q90 0 166 33.5t133 90.5l44 -47q-63 -68 -150.5 -105.5t-190.5 -37.5q-102 0 -188.5 36.5t-149.5 100
t-98.5 151t-35.5 189.5t35.5 189.5t98.5 151.5t149.5 100.5t188.5 36.5zM519 -325h-73l107 330l69 -2z" />
    <glyph glyph-name="egrave" unicode="&#xe8;" horiz-adv-x="1123" 
d="M574 944q91 0 170.5 -35t138 -97.5t92.5 -149t36 -189.5q0 -8 -0.5 -15.5t-0.5 -15.5h-824q4 -89 35.5 -160.5t84 -121.5t123.5 -77.5t153 -27.5q111 0 192 41t146 109l42 -48q-45 -50 -92.5 -82.5t-95.5 -51.5t-97.5 -26.5t-98.5 -7.5q-101 0 -186.5 35t-147.5 98.5
t-96.5 151t-34.5 192.5q0 104 35.5 191.5t98 151.5t146.5 99.5t181 35.5zM573 878q-79 0 -146.5 -28t-119 -77.5t-83 -117.5t-38.5 -149h751q-5 81 -34.5 149t-78.5 117.5t-113 77.5t-138 28zM344 1369h88l234 -300h-71z" />
    <glyph glyph-name="eacute" unicode="&#xe9;" horiz-adv-x="1123" 
d="M574 944q91 0 170.5 -35t138 -97.5t92.5 -149t36 -189.5q0 -8 -0.5 -15.5t-0.5 -15.5h-824q4 -89 35.5 -160.5t84 -121.5t123.5 -77.5t153 -27.5q111 0 192 41t146 109l42 -48q-45 -50 -92.5 -82.5t-95.5 -51.5t-97.5 -26.5t-98.5 -7.5q-101 0 -186.5 35t-147.5 98.5
t-96.5 151t-34.5 192.5q0 104 35.5 191.5t98 151.5t146.5 99.5t181 35.5zM573 878q-79 0 -146.5 -28t-119 -77.5t-83 -117.5t-38.5 -149h751q-5 81 -34.5 149t-78.5 117.5t-113 77.5t-138 28zM471 1069l233 300h89l-251 -300h-71z" />
    <glyph glyph-name="ecircumflex" unicode="&#xea;" horiz-adv-x="1123" 
d="M574 944q91 0 170.5 -35t138 -97.5t92.5 -149t36 -189.5q0 -8 -0.5 -15.5t-0.5 -15.5h-824q4 -89 35.5 -160.5t84 -121.5t123.5 -77.5t153 -27.5q111 0 192 41t146 109l42 -48q-45 -50 -92.5 -82.5t-95.5 -51.5t-97.5 -26.5t-98.5 -7.5q-101 0 -186.5 35t-147.5 98.5
t-96.5 151t-34.5 192.5q0 104 35.5 191.5t98 151.5t146.5 99.5t181 35.5zM573 878q-79 0 -146.5 -28t-119 -77.5t-83 -117.5t-38.5 -149h751q-5 81 -34.5 149t-78.5 117.5t-113 77.5t-138 28zM806 1083l-232 224l-232 -224h-77l266 273h86l266 -273h-77z" />
    <glyph glyph-name="edieresis" unicode="&#xeb;" horiz-adv-x="1123" 
d="M574 944q91 0 170.5 -35t138 -97.5t92.5 -149t36 -189.5q0 -8 -0.5 -15.5t-0.5 -15.5h-824q4 -89 35.5 -160.5t84 -121.5t123.5 -77.5t153 -27.5q111 0 192 41t146 109l42 -48q-45 -50 -92.5 -82.5t-95.5 -51.5t-97.5 -26.5t-98.5 -7.5q-101 0 -186.5 35t-147.5 98.5
t-96.5 151t-34.5 192.5q0 104 35.5 191.5t98 151.5t146.5 99.5t181 35.5zM573 878q-79 0 -146.5 -28t-119 -77.5t-83 -117.5t-38.5 -149h751q-5 81 -34.5 149t-78.5 117.5t-113 77.5t-138 28zM367 1268q22 0 37 -14.5t15 -36.5t-15 -37t-37 -15t-36.5 15t-14.5 37t14.5 36.5
t36.5 14.5zM781 1268q22 0 37 -14.5t15 -36.5t-15 -37t-37 -15t-36.5 15t-14.5 37t14.5 36.5t36.5 14.5z" />
    <glyph glyph-name="igrave" unicode="&#xec;" horiz-adv-x="450" 
d="M260 0h-70v933h70v-933zM-5 1369h88l234 -300h-71z" />
    <glyph glyph-name="iacute" unicode="&#xed;" horiz-adv-x="450" 
d="M260 0h-70v933h70v-933zM122 1069l233 300h89l-251 -300h-71z" />
    <glyph glyph-name="icircumflex" unicode="&#xee;" horiz-adv-x="450" 
d="M260 0h-70v933h70v-933zM457 1083l-232 224l-232 -224h-77l266 273h86l266 -273h-77z" />
    <glyph glyph-name="idieresis" unicode="&#xef;" horiz-adv-x="450" 
d="M260 0h-70v933h70v-933zM18 1268q22 0 37 -14.5t15 -36.5t-15 -37t-37 -15t-36.5 15t-14.5 37t14.5 36.5t36.5 14.5zM432 1268q22 0 37 -14.5t15 -36.5t-15 -37t-37 -15t-36.5 15t-14.5 37t14.5 36.5t36.5 14.5z" />
    <glyph glyph-name="eth" unicode="&#xf0;" horiz-adv-x="1178" 
d="M925 1367l-252 -143q78 -71 149 -156t125.5 -181.5t86.5 -202.5t32 -218q0 -102 -36.5 -189t-101 -151t-151.5 -100.5t-189 -36.5q-101 0 -188 36.5t-151 100.5t-100 151t-36 189t36 189.5t100 151.5t151 100.5t188 36.5q97 0 179.5 -33t145.5 -93q-51 101 -127 195
t-173 177l-269 -153l-31 51l250 142q-117 92 -257 160l31 57q78 -37 149.5 -82.5t137.5 -98.5l270 152zM588 878q-86 0 -160 -31t-128 -86t-85 -130.5t-31 -164.5t31 -164.5t85 -130t128 -85.5t160 -31q87 0 161 31t129 85.5t86 130t31 164.5t-31 164.5t-86 130.5t-129 86
t-161 31z" />
    <glyph glyph-name="ntilde" unicode="&#xf1;" horiz-adv-x="1192" 
d="M608 944q94 0 169.5 -28t128 -79.5t80.5 -125t28 -164.5v-547h-69v547q0 74 -22 135t-65.5 104.5t-107.5 67.5t-148 24q-76 0 -139 -26t-108 -71.5t-70 -107.5t-25 -133v-540h-70v933h69v-179q25 42 60 77t79 60t97 39t113 14zM299 1195q38 54 82.5 81.5t109.5 27.5
q50 0 82.5 -14.5t60 -32.5t55.5 -32.5t69 -14.5q48 0 82.5 22t66.5 66l43 -40q-38 -54 -82.5 -81.5t-109.5 -27.5q-50 0 -82.5 15t-59.5 32.5t-55.5 32.5t-69.5 15q-48 0 -82.5 -22t-66.5 -67z" />
    <glyph glyph-name="ograve" unicode="&#xf2;" horiz-adv-x="1178" 
d="M588 944q102 0 189.5 -36.5t151.5 -100.5t100.5 -151.5t36.5 -189.5t-36.5 -189.5t-100.5 -151t-151.5 -100t-189.5 -36.5q-101 0 -188 36.5t-151 100t-100 151t-36 189.5t36 189.5t100 151.5t151 100.5t188 36.5zM588 878q-86 0 -160 -31t-128 -86t-85 -130.5
t-31 -164.5t31 -164t85 -130t128 -86t160 -31q87 0 161 31t129 86t86 130t31 164t-31 164.5t-86 130.5t-129 86t-161 31zM359 1369h88l234 -300h-71z" />
    <glyph glyph-name="oacute" unicode="&#xf3;" horiz-adv-x="1178" 
d="M588 944q102 0 189.5 -36.5t151.5 -100.5t100.5 -151.5t36.5 -189.5t-36.5 -189.5t-100.5 -151t-151.5 -100t-189.5 -36.5q-101 0 -188 36.5t-151 100t-100 151t-36 189.5t36 189.5t100 151.5t151 100.5t188 36.5zM588 878q-86 0 -160 -31t-128 -86t-85 -130.5
t-31 -164.5t31 -164t85 -130t128 -86t160 -31q87 0 161 31t129 86t86 130t31 164t-31 164.5t-86 130.5t-129 86t-161 31zM486 1069l233 300h89l-251 -300h-71z" />
    <glyph glyph-name="ocircumflex" unicode="&#xf4;" horiz-adv-x="1178" 
d="M588 944q102 0 189.5 -36.5t151.5 -100.5t100.5 -151.5t36.5 -189.5t-36.5 -189.5t-100.5 -151t-151.5 -100t-189.5 -36.5q-101 0 -188 36.5t-151 100t-100 151t-36 189.5t36 189.5t100 151.5t151 100.5t188 36.5zM588 878q-86 0 -160 -31t-128 -86t-85 -130.5
t-31 -164.5t31 -164t85 -130t128 -86t160 -31q87 0 161 31t129 86t86 130t31 164t-31 164.5t-86 130.5t-129 86t-161 31zM821 1083l-232 224l-232 -224h-77l266 273h86l266 -273h-77z" />
    <glyph glyph-name="otilde" unicode="&#xf5;" horiz-adv-x="1178" 
d="M588 944q102 0 189.5 -36.5t151.5 -100.5t100.5 -151.5t36.5 -189.5t-36.5 -189.5t-100.5 -151t-151.5 -100t-189.5 -36.5q-101 0 -188 36.5t-151 100t-100 151t-36 189.5t36 189.5t100 151.5t151 100.5t188 36.5zM588 878q-86 0 -160 -31t-128 -86t-85 -130.5
t-31 -164.5t31 -164t85 -130t128 -86t160 -31q87 0 161 31t129 86t86 130t31 164t-31 164.5t-86 130.5t-129 86t-161 31zM278 1195q38 54 82.5 81.5t109.5 27.5q50 0 82.5 -14.5t60 -32.5t55.5 -32.5t69 -14.5q48 0 82.5 22t66.5 66l43 -40q-38 -54 -82.5 -81.5
t-109.5 -27.5q-50 0 -82.5 15t-59.5 32.5t-55.5 32.5t-69.5 15q-48 0 -82.5 -22t-66.5 -67z" />
    <glyph glyph-name="odieresis" unicode="&#xf6;" horiz-adv-x="1178" 
d="M588 944q102 0 189.5 -36.5t151.5 -100.5t100.5 -151.5t36.5 -189.5t-36.5 -189.5t-100.5 -151t-151.5 -100t-189.5 -36.5q-101 0 -188 36.5t-151 100t-100 151t-36 189.5t36 189.5t100 151.5t151 100.5t188 36.5zM588 878q-86 0 -160 -31t-128 -86t-85 -130.5
t-31 -164.5t31 -164t85 -130t128 -86t160 -31q87 0 161 31t129 86t86 130t31 164t-31 164.5t-86 130.5t-129 86t-161 31zM382 1268q22 0 37 -14.5t15 -36.5t-15 -37t-37 -15t-36.5 15t-14.5 37t14.5 36.5t36.5 14.5zM796 1268q22 0 37 -14.5t15 -36.5t-15 -37t-37 -15
t-36.5 15t-14.5 37t14.5 36.5t36.5 14.5z" />
    <glyph glyph-name="divide" unicode="&#xf7;" 
d="M1015 492h-830v64h830v-64zM600 874q20 0 35.5 -15t15.5 -36q0 -20 -15.5 -35.5t-35.5 -15.5t-35.5 15.5t-15.5 35.5q0 21 15.5 36t35.5 15zM600 275q20 0 35.5 -15t15.5 -35t-15.5 -35.5t-35.5 -15.5t-35.5 15.5t-15.5 35.5t15.5 35t35.5 15z" />
    <glyph glyph-name="oslash" unicode="&#xf8;" horiz-adv-x="1178" 
d="M588 944q94 0 175 -31t144 -86l123 123l44 -42l-124 -124q55 -63 85.5 -143.5t30.5 -174.5q0 -102 -36.5 -189.5t-100.5 -151t-151.5 -100t-189.5 -36.5q-94 0 -174 30.5t-143 85.5l-123 -123l-43 43l123 123q-54 63 -84.5 143.5t-30.5 174.5q0 102 36 189.5t100 151.5
t151 100.5t188 36.5zM588 878q-86 0 -160 -31t-128 -86t-85 -130.5t-31 -164.5q0 -79 24 -147t69 -122l582 582q-54 47 -123 73t-148 26zM995 466q0 79 -24.5 147t-69.5 122l-582 -582q54 -47 122 -72.5t147 -25.5q87 0 161 31t129 86t86 130t31 164z" />
    <glyph glyph-name="ugrave" unicode="&#xf9;" horiz-adv-x="1180" 
d="M1002 381q0 -93 -31.5 -166t-86.5 -123.5t-130.5 -76.5t-163.5 -26t-163.5 26t-130.5 76.5t-86 123.5t-31 166v552h69v-546q0 -78 25 -140t70 -104.5t108 -65t139 -22.5t139 22.5t108 65t70 104.5t25 140v546h70v-552zM360 1369h88l234 -300h-71z" />
    <glyph glyph-name="uacute" unicode="&#xfa;" horiz-adv-x="1180" 
d="M1002 381q0 -93 -31.5 -166t-86.5 -123.5t-130.5 -76.5t-163.5 -26t-163.5 26t-130.5 76.5t-86 123.5t-31 166v552h69v-546q0 -78 25 -140t70 -104.5t108 -65t139 -22.5t139 22.5t108 65t70 104.5t25 140v546h70v-552zM487 1069l233 300h89l-251 -300h-71z" />
    <glyph glyph-name="ucircumflex" unicode="&#xfb;" horiz-adv-x="1180" 
d="M1002 381q0 -93 -31.5 -166t-86.5 -123.5t-130.5 -76.5t-163.5 -26t-163.5 26t-130.5 76.5t-86 123.5t-31 166v552h69v-546q0 -78 25 -140t70 -104.5t108 -65t139 -22.5t139 22.5t108 65t70 104.5t25 140v546h70v-552zM822 1083l-232 224l-232 -224h-77l266 273h86
l266 -273h-77z" />
    <glyph glyph-name="udieresis" unicode="&#xfc;" horiz-adv-x="1180" 
d="M1002 381q0 -93 -31.5 -166t-86.5 -123.5t-130.5 -76.5t-163.5 -26t-163.5 26t-130.5 76.5t-86 123.5t-31 166v552h69v-546q0 -78 25 -140t70 -104.5t108 -65t139 -22.5t139 22.5t108 65t70 104.5t25 140v546h70v-552zM383 1268q22 0 37 -14.5t15 -36.5t-15 -37t-37 -15
t-36.5 15t-14.5 37t14.5 36.5t36.5 14.5zM797 1268q22 0 37 -14.5t15 -36.5t-15 -37t-37 -15t-36.5 15t-14.5 37t14.5 36.5t36.5 14.5z" />
    <glyph glyph-name="yacute" unicode="&#xfd;" horiz-adv-x="996" 
d="M187 -402h-78l369 618l-451 717h79l411 -648l383 648h77zM400 1069l233 300h89l-251 -300h-71z" />
    <glyph glyph-name="thorn" unicode="&#xfe;" horiz-adv-x="1243" 
d="M657 944q100 0 187 -36t150.5 -100t100 -151.5t36.5 -190.5t-36.5 -190.5t-100 -151t-150.5 -99.5t-187 -36q-67 0 -126.5 16.5t-110 46.5t-91 72t-69.5 93v-617h-70v1840h70v-725q29 51 69.5 93.5t91 72.5t110 46.5t126.5 16.5zM657 878q-86 0 -159.5 -31.5
t-127.5 -86.5t-84.5 -130.5t-30.5 -163.5t30.5 -163t84.5 -130t127.5 -86.5t159.5 -31.5q87 0 160.5 31.5t127.5 87t84 130.5t30 162t-30.5 162.5t-84 131t-127 87t-160.5 31.5z" />
    <glyph glyph-name="ydieresis" unicode="&#xff;" horiz-adv-x="996" 
d="M187 -402h-78l369 618l-451 717h79l411 -648l383 648h77zM296 1268q22 0 37 -14.5t15 -36.5t-15 -37t-37 -15t-36.5 15t-14.5 37t14.5 36.5t36.5 14.5zM710 1268q22 0 37 -14.5t15 -36.5t-15 -37t-37 -15t-36.5 15t-14.5 37t14.5 36.5t36.5 14.5z" />
    <glyph glyph-name="Amacron" unicode="&#x100;" horiz-adv-x="1386" 
d="M1342 0h-80l-186 433h-768l-186 -433h-78l604 1400h90zM338 504h707l-353 820zM409 1661h569v-58h-569v58z" />
    <glyph glyph-name="amacron" unicode="&#x101;" horiz-adv-x="1243" 
d="M1053 0h-69v218q-29 -51 -69.5 -93.5t-91.5 -72.5t-110.5 -46.5t-126.5 -16.5q-101 0 -187 36t-150 99.5t-100 151t-36 190.5t36 190.5t100 151.5t150 100t187 36q67 0 126.5 -16.5t110.5 -46.5t91.5 -72.5t69.5 -94.5v219h69v-933zM586 878q-87 0 -161 -31.5t-127.5 -87
t-83.5 -131t-30 -162.5t30 -162t84 -130.5t127.5 -87t160.5 -31.5t160.5 31.5t127 86.5t84 130t30.5 163t-30.5 163.5t-84 130.5t-127 86.5t-160.5 31.5zM316 1245h569v-58h-569v58z" />
    <glyph glyph-name="Abreve" unicode="&#x102;" horiz-adv-x="1386" 
d="M1342 0h-80l-186 433h-768l-186 -433h-78l604 1400h90zM338 504h707l-353 820zM445 1776q27 -106 91 -160t157 -54t157 54t91 160l57 -17q-32 -126 -111.5 -191.5t-193.5 -65.5t-193.5 65.5t-111.5 191.5z" />
    <glyph glyph-name="abreve" unicode="&#x103;" horiz-adv-x="1243" 
d="M1053 0h-69v218q-29 -51 -69.5 -93.5t-91.5 -72.5t-110.5 -46.5t-126.5 -16.5q-101 0 -187 36t-150 99.5t-100 151t-36 190.5t36 190.5t100 151.5t150 100t187 36q67 0 126.5 -16.5t110.5 -46.5t91.5 -72.5t69.5 -94.5v219h69v-933zM586 878q-87 0 -161 -31.5t-127.5 -87
t-83.5 -131t-30 -162.5t30 -162t84 -130.5t127.5 -87t160.5 -31.5t160.5 31.5t127 86.5t84 130t30.5 163t-30.5 163.5t-84 130.5t-127 86.5t-160.5 31.5zM352 1360q27 -106 91 -160t157 -54t157 54t91 160l57 -17q-32 -126 -111.5 -191.5t-193.5 -65.5t-193.5 65.5
t-111.5 191.5z" />
    <glyph glyph-name="Aogonek" unicode="&#x104;" horiz-adv-x="1386" 
d="M1342 0h-80l-186 433h-768l-186 -433h-78l604 1400h90zM338 504h707l-353 820zM1354 -326q-36 -42 -80 -62.5t-94 -20.5q-40 0 -73.5 11.5t-58 32.5t-38 51t-13.5 67q0 48 21.5 89t60.5 77t94.5 68.5t124.5 62.5l25 -50q-127 -57 -193.5 -113.5t-66.5 -126.5
q0 -51 34 -80t89 -29q38 0 70.5 17.5t59.5 49.5z" />
    <glyph glyph-name="aogonek" unicode="&#x105;" horiz-adv-x="1243" 
d="M1053 0h-69v218q-29 -51 -69.5 -93.5t-91.5 -72.5t-110.5 -46.5t-126.5 -16.5q-101 0 -187 36t-150 99.5t-100 151t-36 190.5t36 190.5t100 151.5t150 100t187 36q67 0 126.5 -16.5t110.5 -46.5t91.5 -72.5t69.5 -94.5v219h69v-933zM586 878q-87 0 -161 -31.5t-127.5 -87
t-83.5 -131t-30 -162.5t30 -162t84 -130.5t127.5 -87t160.5 -31.5t160.5 31.5t127 86.5t84 130t30.5 163t-30.5 163.5t-84 130.5t-127 86.5t-160.5 31.5zM1084 -326q-36 -42 -80 -62.5t-94 -20.5q-40 0 -73.5 11.5t-58 32.5t-38 51t-13.5 67q0 48 21.5 89t60.5 77t94.5 68.5
t124.5 62.5l25 -50q-127 -57 -193.5 -113.5t-66.5 -126.5q0 -51 34 -80t89 -29q38 0 70.5 17.5t59.5 49.5z" />
    <glyph glyph-name="Cacute" unicode="&#x106;" horiz-adv-x="1526" 
d="M841 1411q88 0 171 -20t155.5 -56.5t132 -89.5t100.5 -119l-62 -42q-38 59 -91 106.5t-117 80.5t-137.5 51t-151.5 18q-132 0 -247.5 -46t-201 -130t-134.5 -202t-49 -262t49 -262t134.5 -202t201 -130t247.5 -46q78 0 151.5 17.5t137.5 50.5t117 80.5t91 106.5l61 -44
q-43 -65 -102.5 -117.5t-131.5 -89t-154 -56t-170 -19.5q-150 0 -279.5 51.5t-225 145.5t-150.5 225t-55 289q0 106 25 199.5t70.5 172.5t110 142t143 106.5t170 67t191.5 23.5zM717 1485l233 300h89l-251 -300h-71z" />
    <glyph glyph-name="cacute" unicode="&#x107;" horiz-adv-x="1021" 
d="M585 944q103 0 190.5 -37.5t150.5 -105.5l-45 -47q-58 58 -133 91t-165 33q-85 0 -158 -31t-126.5 -86t-84 -130.5t-30.5 -164.5t30.5 -164t84 -130t126.5 -86t158 -31q90 0 166 33.5t133 90.5l44 -47q-63 -68 -150.5 -105.5t-190.5 -37.5q-102 0 -188.5 36.5t-149.5 100
t-98.5 151t-35.5 189.5t35.5 189.5t98.5 151.5t149.5 100.5t188.5 36.5zM478 1069l233 300h89l-251 -300h-71z" />
    <glyph glyph-name="Ccircumflex" unicode="&#x108;" horiz-adv-x="1526" 
d="M841 1411q88 0 171 -20t155.5 -56.5t132 -89.5t100.5 -119l-62 -42q-38 59 -91 106.5t-117 80.5t-137.5 51t-151.5 18q-132 0 -247.5 -46t-201 -130t-134.5 -202t-49 -262t49 -262t134.5 -202t201 -130t247.5 -46q78 0 151.5 17.5t137.5 50.5t117 80.5t91 106.5l61 -44
q-43 -65 -102.5 -117.5t-131.5 -89t-154 -56t-170 -19.5q-150 0 -279.5 51.5t-225 145.5t-150.5 225t-55 289q0 106 25 199.5t70.5 172.5t110 142t143 106.5t170 67t191.5 23.5zM1068 1499l-232 224l-232 -224h-77l266 273h86l266 -273h-77z" />
    <glyph glyph-name="ccircumflex" unicode="&#x109;" horiz-adv-x="1021" 
d="M585 944q103 0 190.5 -37.5t150.5 -105.5l-45 -47q-58 58 -133 91t-165 33q-85 0 -158 -31t-126.5 -86t-84 -130.5t-30.5 -164.5t30.5 -164t84 -130t126.5 -86t158 -31q90 0 166 33.5t133 90.5l44 -47q-63 -68 -150.5 -105.5t-190.5 -37.5q-102 0 -188.5 36.5t-149.5 100
t-98.5 151t-35.5 189.5t35.5 189.5t98.5 151.5t149.5 100.5t188.5 36.5zM813 1083l-232 224l-232 -224h-77l266 273h86l266 -273h-77z" />
    <glyph glyph-name="Cdotaccent" unicode="&#x10a;" horiz-adv-x="1526" 
d="M841 1411q88 0 171 -20t155.5 -56.5t132 -89.5t100.5 -119l-62 -42q-38 59 -91 106.5t-117 80.5t-137.5 51t-151.5 18q-132 0 -247.5 -46t-201 -130t-134.5 -202t-49 -262t49 -262t134.5 -202t201 -130t247.5 -46q78 0 151.5 17.5t137.5 50.5t117 80.5t91 106.5l61 -44
q-43 -65 -102.5 -117.5t-131.5 -89t-154 -56t-170 -19.5q-150 0 -279.5 51.5t-225 145.5t-150.5 225t-55 289q0 106 25 199.5t70.5 172.5t110 142t143 106.5t170 67t191.5 23.5zM830.229 1686.76q22.3271 0 37.5508 -15.2236t15.2236 -37.5508q0 -22.3281 -15.2236 -37.0439
t-37.5508 -14.7158q-22.3281 0 -37.0439 14.7158t-14.7158 37.0439q0 22.3271 14.7158 37.5508t37.0439 15.2236z" />
    <glyph glyph-name="cdotaccent" unicode="&#x10b;" horiz-adv-x="1021" 
d="M585 944q103 0 190.5 -37.5t150.5 -105.5l-45 -47q-58 58 -133 91t-165 33q-85 0 -158 -31t-126.5 -86t-84 -130.5t-30.5 -164.5t30.5 -164t84 -130t126.5 -86t158 -31q90 0 166 33.5t133 90.5l44 -47q-63 -68 -150.5 -105.5t-190.5 -37.5q-102 0 -188.5 36.5t-149.5 100
t-98.5 151t-35.5 189.5t35.5 189.5t98.5 151.5t149.5 100.5t188.5 36.5zM581 1327q22 0 37 -15t15 -37t-15 -36.5t-37 -14.5t-36.5 14.5t-14.5 36.5t14.5 37t36.5 15z" />
    <glyph glyph-name="Ccaron" unicode="&#x10c;" horiz-adv-x="1526" 
d="M841 1411q88 0 171 -20t155.5 -56.5t132 -89.5t100.5 -119l-62 -42q-38 59 -91 106.5t-117 80.5t-137.5 51t-151.5 18q-132 0 -247.5 -46t-201 -130t-134.5 -202t-49 -262t49 -262t134.5 -202t201 -130t247.5 -46q78 0 151.5 17.5t137.5 50.5t117 80.5t91 106.5l61 -44
q-43 -65 -102.5 -117.5t-131.5 -89t-154 -56t-170 -19.5q-150 0 -279.5 51.5t-225 145.5t-150.5 225t-55 289q0 106 25 199.5t70.5 172.5t110 142t143 106.5t170 67t191.5 23.5zM604 1768l232 -223l232 223h77l-266 -273h-86l-266 273h77z" />
    <glyph glyph-name="ccaron" unicode="&#x10d;" horiz-adv-x="1021" 
d="M585 944q103 0 190.5 -37.5t150.5 -105.5l-45 -47q-58 58 -133 91t-165 33q-85 0 -158 -31t-126.5 -86t-84 -130.5t-30.5 -164.5t30.5 -164t84 -130t126.5 -86t158 -31q90 0 166 33.5t133 90.5l44 -47q-63 -68 -150.5 -105.5t-190.5 -37.5q-102 0 -188.5 36.5t-149.5 100
t-98.5 151t-35.5 189.5t35.5 189.5t98.5 151.5t149.5 100.5t188.5 36.5zM349 1352l232 -223l232 223h77l-266 -273h-86l-266 273h77z" />
    <glyph glyph-name="Dcaron" unicode="&#x10e;" horiz-adv-x="1609" 
d="M707 1400q180 0 323.5 -48.5t243 -139t152.5 -220t53 -292.5t-53 -292.5t-152.5 -220t-243 -139t-323.5 -48.5h-489v1400h489zM292 1329v-1258h415q167 0 296.5 43.5t218 125.5t134.5 198t46 262t-46 262.5t-134.5 198t-218 125t-296.5 43.5h-415zM502 1768l232 -223
l232 223h77l-266 -273h-86l-266 273h77z" />
    <glyph glyph-name="dcaron" unicode="&#x10f;" horiz-adv-x="1265" 
d="M586 944q67 0 126.5 -16.5t110.5 -46.5t91.5 -72.5t69.5 -94.5v726h69v-1440h-69v218q-29 -51 -69.5 -93.5t-91.5 -72.5t-110.5 -46.5t-126.5 -16.5q-101 0 -187 36t-150 99.5t-100 151t-36 190.5t36 190.5t100 151.5t150 100t187 36zM586 878q-87 0 -161 -31.5
t-127.5 -87t-83.5 -131t-30 -162.5t30 -162t84 -130.5t127.5 -87t160.5 -31.5t160.5 31.5t127 86.5t84 130t30.5 163t-30.5 163.5t-84 130.5t-127 86.5t-160.5 31.5zM1184 1051l16 389h71l-27 -389h-60z" />
    <glyph glyph-name="Dcroat" unicode="&#x110;" horiz-adv-x="1810" 
d="M908 1400q180 0 323.5 -48.5t243 -139t152.5 -220t53 -292.5t-53 -292.5t-152.5 -220t-243 -139t-323.5 -48.5h-489v670h-288v70h288v660h489zM935 670h-442v-599h415q167 0 296.5 43.5t218 125.5t134.5 198t46 262t-46 262.5t-134.5 198t-218 125t-296.5 43.5h-415v-589
h442v-70z" />
    <glyph glyph-name="dcroat" unicode="&#x111;" horiz-adv-x="1243" 
d="M1233 1138h-180v-1138h-69v218q-29 -51 -69.5 -93.5t-91.5 -72.5t-110.5 -46.5t-126.5 -16.5q-101 0 -187 36t-150 99.5t-100 151t-36 190.5t36 190.5t100 151.5t150 100t187 36q67 0 126.5 -16.5t110.5 -46.5t91.5 -72.5t69.5 -94.5v424h-453v64h453v238h69v-238h180
v-64zM586 878q-87 0 -161 -31.5t-127.5 -87t-83.5 -131t-30 -162.5t30 -162t84 -130.5t127.5 -87t160.5 -31.5t160.5 31.5t127 86.5t84 130t30.5 163t-30.5 163.5t-84 130.5t-127 86.5t-160.5 31.5z" />
    <glyph glyph-name="Emacron" unicode="&#x112;" horiz-adv-x="1330" 
d="M1155 0h-937v1400h933v-70h-859v-590h837v-70h-837v-600h863v-70zM393 1661h569v-58h-569v58z" />
    <glyph glyph-name="emacron" unicode="&#x113;" horiz-adv-x="1123" 
d="M574 944q91 0 170.5 -35t138 -97.5t92.5 -149t36 -189.5q0 -8 -0.5 -15.5t-0.5 -15.5h-824q4 -89 35.5 -160.5t84 -121.5t123.5 -77.5t153 -27.5q111 0 192 41t146 109l42 -48q-45 -50 -92.5 -82.5t-95.5 -51.5t-97.5 -26.5t-98.5 -7.5q-101 0 -186.5 35t-147.5 98.5
t-96.5 151t-34.5 192.5q0 104 35.5 191.5t98 151.5t146.5 99.5t181 35.5zM573 878q-79 0 -146.5 -28t-119 -77.5t-83 -117.5t-38.5 -149h751q-5 81 -34.5 149t-78.5 117.5t-113 77.5t-138 28zM290 1245h569v-58h-569v58z" />
    <glyph glyph-name="Ebreve" unicode="&#x114;" horiz-adv-x="1330" 
d="M1155 0h-937v1400h933v-70h-859v-590h837v-70h-837v-600h863v-70zM429 1776q27 -106 91 -160t157 -54t157 54t91 160l57 -17q-32 -126 -111.5 -191.5t-193.5 -65.5t-193.5 65.5t-111.5 191.5z" />
    <glyph glyph-name="ebreve" unicode="&#x115;" horiz-adv-x="1123" 
d="M574 944q91 0 170.5 -35t138 -97.5t92.5 -149t36 -189.5q0 -8 -0.5 -15.5t-0.5 -15.5h-824q4 -89 35.5 -160.5t84 -121.5t123.5 -77.5t153 -27.5q111 0 192 41t146 109l42 -48q-45 -50 -92.5 -82.5t-95.5 -51.5t-97.5 -26.5t-98.5 -7.5q-101 0 -186.5 35t-147.5 98.5
t-96.5 151t-34.5 192.5q0 104 35.5 191.5t98 151.5t146.5 99.5t181 35.5zM573 878q-79 0 -146.5 -28t-119 -77.5t-83 -117.5t-38.5 -149h751q-5 81 -34.5 149t-78.5 117.5t-113 77.5t-138 28zM326 1360q27 -106 91 -160t157 -54t157 54t91 160l57 -17
q-32 -126 -111.5 -191.5t-193.5 -65.5t-193.5 65.5t-111.5 191.5z" />
    <glyph glyph-name="Edotaccent" unicode="&#x116;" horiz-adv-x="1330" 
d="M1155 0h-937v1400h933v-70h-859v-590h837v-70h-837v-600h863v-70zM671.229 1686.76q22.3271 0 37.5508 -15.2236t15.2236 -37.5508q0 -22.3281 -15.2236 -37.0439t-37.5508 -14.7158q-22.3281 0 -37.0439 14.7158t-14.7158 37.0439q0 22.3271 14.7158 37.5508
t37.0439 15.2236z" />
    <glyph glyph-name="edotaccent" unicode="&#x117;" horiz-adv-x="1123" 
d="M574 944q91 0 170.5 -35t138 -97.5t92.5 -149t36 -189.5q0 -8 -0.5 -15.5t-0.5 -15.5h-824q4 -89 35.5 -160.5t84 -121.5t123.5 -77.5t153 -27.5q111 0 192 41t146 109l42 -48q-45 -50 -92.5 -82.5t-95.5 -51.5t-97.5 -26.5t-98.5 -7.5q-101 0 -186.5 35t-147.5 98.5
t-96.5 151t-34.5 192.5q0 104 35.5 191.5t98 151.5t146.5 99.5t181 35.5zM573 878q-79 0 -146.5 -28t-119 -77.5t-83 -117.5t-38.5 -149h751q-5 81 -34.5 149t-78.5 117.5t-113 77.5t-138 28zM574 1327q22 0 37 -15t15 -37t-15 -36.5t-37 -14.5t-36.5 14.5t-14.5 36.5
t14.5 37t36.5 15z" />
    <glyph glyph-name="Eogonek" unicode="&#x118;" horiz-adv-x="1330" 
d="M1155 0h-937v1400h933v-70h-859v-590h837v-70h-837v-600h863v-70zM987 9q-86 -48 -135 -99.5t-49 -121.5q0 -30 11.5 -55.5t32.5 -43.5t50 -28t64 -10q97 0 166 71l39 -45q-42 -42 -95.5 -64t-113.5 -22q-49 0 -90 14t-70 39.5t-45.5 61t-16.5 77.5q0 47 16 85t45.5 70.5
t71 60.5t93.5 55z" />
    <glyph glyph-name="eogonek" unicode="&#x119;" horiz-adv-x="1123" 
d="M574 944q91 0 170.5 -35t138 -97.5t92.5 -149t36 -189.5q0 -8 -0.5 -15.5t-0.5 -15.5h-824q4 -89 35.5 -160.5t84 -121.5t123.5 -77.5t153 -27.5q111 0 192 41t146 109l42 -48q-45 -50 -92.5 -82.5t-95.5 -51.5t-97.5 -26.5t-98.5 -7.5q-101 0 -186.5 35t-147.5 98.5
t-96.5 151t-34.5 192.5q0 104 35.5 191.5t98 151.5t146.5 99.5t181 35.5zM573 878q-79 0 -146.5 -28t-119 -77.5t-83 -117.5t-38.5 -149h751q-5 81 -34.5 149t-78.5 117.5t-113 77.5t-138 28zM940 -323q-42 -42 -95.5 -64t-113.5 -22q-49 0 -90 14t-70 39.5t-45.5 61
t-16.5 77.5q0 54 22.5 96.5t61 78t89.5 66.5t109 61l33 -38q-53 -30 -98.5 -58t-78.5 -58.5t-51.5 -65.5t-18.5 -77q0 -30 11.5 -55.5t32.5 -43.5t50 -28t64 -10q97 0 166 71z" />
    <glyph glyph-name="Ecaron" unicode="&#x11a;" horiz-adv-x="1330" 
d="M1155 0h-937v1400h933v-70h-859v-590h837v-70h-837v-600h863v-70zM445 1768l232 -223l232 223h77l-266 -273h-86l-266 273h77z" />
    <glyph glyph-name="ecaron" unicode="&#x11b;" horiz-adv-x="1123" 
d="M574 944q91 0 170.5 -35t138 -97.5t92.5 -149t36 -189.5q0 -8 -0.5 -15.5t-0.5 -15.5h-824q4 -89 35.5 -160.5t84 -121.5t123.5 -77.5t153 -27.5q111 0 192 41t146 109l42 -48q-45 -50 -92.5 -82.5t-95.5 -51.5t-97.5 -26.5t-98.5 -7.5q-101 0 -186.5 35t-147.5 98.5
t-96.5 151t-34.5 192.5q0 104 35.5 191.5t98 151.5t146.5 99.5t181 35.5zM573 878q-79 0 -146.5 -28t-119 -77.5t-83 -117.5t-38.5 -149h751q-5 81 -34.5 149t-78.5 117.5t-113 77.5t-138 28zM342 1352l232 -223l232 223h77l-266 -273h-86l-266 273h77z" />
    <glyph glyph-name="Gcircumflex" unicode="&#x11c;" horiz-adv-x="1635" 
d="M841 1411q82 0 159 -17t146 -48.5t129 -77t108 -102.5l-55 -52q-43 52 -97 94t-116 71.5t-131.5 45t-142.5 15.5q-132 0 -247.5 -46t-201 -130t-134.5 -202t-49 -262t49 -262t134.5 -202t200 -130t245.5 -46t237.5 42.5t183 120.5t119.5 188t47 245h-522v70h602v-23
q0 -156 -47 -287t-134 -226t-210.5 -148t-275.5 -53q-95 0 -184 22.5t-167.5 65t-144 104.5t-112.5 141t-73 174t-26 204q0 158 55 289t151 224.5t225.5 145.5t278.5 52zM1056 1499l-232 224l-232 -224h-77l266 273h86l266 -273h-77z" />
    <glyph glyph-name="gcircumflex" unicode="&#x11d;" horiz-adv-x="1238" 
d="M585 944q66 0 124.5 -16t109 -45t91 -70t69.5 -91v211h69v-870q0 -120 -39.5 -208.5t-106 -147t-154 -87.5t-183.5 -29q-121 0 -224 39.5t-171 107.5l35 53q64 -62 156 -99t204 -37q81 0 156 24t132.5 74t91.5 126.5t34 180.5v150q-29 -50 -69.5 -90.5t-91 -69.5
t-109 -45t-124.5 -16q-100 0 -186.5 36t-150 99.5t-99.5 151t-36 190.5t36 190.5t99.5 151.5t150 100t186.5 36zM585 878q-87 0 -161 -31.5t-127 -87t-83 -131t-30 -162.5t30 -162t83.5 -130.5t127 -87t160.5 -31.5t160.5 31.5t127.5 86.5t84.5 130t30.5 163t-30.5 163.5
t-84.5 130.5t-127.5 86.5t-160.5 31.5zM828 1083l-232 224l-232 -224h-77l266 273h86l266 -273h-77z" />
    <glyph glyph-name="Gbreve" unicode="&#x11e;" horiz-adv-x="1635" 
d="M841 1411q82 0 159 -17t146 -48.5t129 -77t108 -102.5l-55 -52q-43 52 -97 94t-116 71.5t-131.5 45t-142.5 15.5q-132 0 -247.5 -46t-201 -130t-134.5 -202t-49 -262t49 -262t134.5 -202t200 -130t245.5 -46t237.5 42.5t183 120.5t119.5 188t47 245h-522v70h602v-23
q0 -156 -47 -287t-134 -226t-210.5 -148t-275.5 -53q-95 0 -184 22.5t-167.5 65t-144 104.5t-112.5 141t-73 174t-26 204q0 158 55 289t151 224.5t225.5 145.5t278.5 52zM576 1776q27 -106 91 -160t157 -54t157 54t91 160l57 -17q-32 -126 -111.5 -191.5t-193.5 -65.5
t-193.5 65.5t-111.5 191.5z" />
    <glyph glyph-name="gbreve" unicode="&#x11f;" horiz-adv-x="1238" 
d="M585 944q66 0 124.5 -16t109 -45t91 -70t69.5 -91v211h69v-870q0 -120 -39.5 -208.5t-106 -147t-154 -87.5t-183.5 -29q-121 0 -224 39.5t-171 107.5l35 53q64 -62 156 -99t204 -37q81 0 156 24t132.5 74t91.5 126.5t34 180.5v150q-29 -50 -69.5 -90.5t-91 -69.5
t-109 -45t-124.5 -16q-100 0 -186.5 36t-150 99.5t-99.5 151t-36 190.5t36 190.5t99.5 151.5t150 100t186.5 36zM585 878q-87 0 -161 -31.5t-127 -87t-83 -131t-30 -162.5t30 -162t83.5 -130.5t127 -87t160.5 -31.5t160.5 31.5t127.5 86.5t84.5 130t30.5 163t-30.5 163.5
t-84.5 130.5t-127.5 86.5t-160.5 31.5zM348 1360q27 -106 91 -160t157 -54t157 54t91 160l57 -17q-32 -126 -111.5 -191.5t-193.5 -65.5t-193.5 65.5t-111.5 191.5z" />
    <glyph glyph-name="Gdotaccent" unicode="&#x120;" horiz-adv-x="1635" 
d="M841 1411q82 0 159 -17t146 -48.5t129 -77t108 -102.5l-55 -52q-43 52 -97 94t-116 71.5t-131.5 45t-142.5 15.5q-132 0 -247.5 -46t-201 -130t-134.5 -202t-49 -262t49 -262t134.5 -202t200 -130t245.5 -46t237.5 42.5t183 120.5t119.5 188t47 245h-522v70h602v-23
q0 -156 -47 -287t-134 -226t-210.5 -148t-275.5 -53q-95 0 -184 22.5t-167.5 65t-144 104.5t-112.5 141t-73 174t-26 204q0 158 55 289t151 224.5t225.5 145.5t278.5 52zM818.229 1686.76q22.3271 0 37.5508 -15.2236t15.2236 -37.5508q0 -22.3281 -15.2236 -37.0439
t-37.5508 -14.7158q-22.3281 0 -37.0439 14.7158t-14.7158 37.0439q0 22.3271 14.7158 37.5508t37.0439 15.2236z" />
    <glyph glyph-name="gdotaccent" unicode="&#x121;" horiz-adv-x="1238" 
d="M585 944q66 0 124.5 -16t109 -45t91 -70t69.5 -91v211h69v-870q0 -120 -39.5 -208.5t-106 -147t-154 -87.5t-183.5 -29q-121 0 -224 39.5t-171 107.5l35 53q64 -62 156 -99t204 -37q81 0 156 24t132.5 74t91.5 126.5t34 180.5v150q-29 -50 -69.5 -90.5t-91 -69.5
t-109 -45t-124.5 -16q-100 0 -186.5 36t-150 99.5t-99.5 151t-36 190.5t36 190.5t99.5 151.5t150 100t186.5 36zM585 878q-87 0 -161 -31.5t-127 -87t-83 -131t-30 -162.5t30 -162t83.5 -130.5t127 -87t160.5 -31.5t160.5 31.5t127.5 86.5t84.5 130t30.5 163t-30.5 163.5
t-84.5 130.5t-127.5 86.5t-160.5 31.5zM596 1327q22 0 37 -15t15 -37t-15 -36.5t-37 -14.5t-36.5 14.5t-14.5 36.5t14.5 37t36.5 15z" />
    <glyph glyph-name="Gcommaaccent" unicode="&#x122;" horiz-adv-x="1635" 
d="M841 1411q82 0 159 -17t146 -48.5t129 -77t108 -102.5l-55 -52q-43 52 -97 94t-116 71.5t-131.5 45t-142.5 15.5q-132 0 -247.5 -46t-201 -130t-134.5 -202t-49 -262t49 -262t134.5 -202t200 -130t245.5 -46t237.5 42.5t183 120.5t119.5 188t47 245h-522v70h602v-23
q0 -156 -47 -287t-134 -226t-210.5 -148t-275.5 -53q-95 0 -184 22.5t-167.5 65t-144 104.5t-112.5 141t-73 174t-26 204q0 158 55 289t151 224.5t225.5 145.5t278.5 52zM880 -89l-61 -327h-62l48 327h75z" />
    <glyph glyph-name="gcommaaccent" unicode="&#x123;" horiz-adv-x="1238" 
d="M585 944q66 0 124.5 -16t109 -45t91 -70t69.5 -91v211h69v-870q0 -120 -39.5 -208.5t-106 -147t-154 -87.5t-183.5 -29q-121 0 -224 39.5t-171 107.5l35 53q64 -62 156 -99t204 -37q81 0 156 24t132.5 74t91.5 126.5t34 180.5v150q-29 -50 -69.5 -90.5t-91 -69.5
t-109 -45t-124.5 -16q-100 0 -186.5 36t-150 99.5t-99.5 151t-36 190.5t36 190.5t99.5 151.5t150 100t186.5 36zM585 878q-87 0 -161 -31.5t-127 -87t-83 -131t-30 -162.5t30 -162t83.5 -130.5t127 -87t160.5 -31.5t160.5 31.5t127.5 86.5t84.5 130t30.5 163t-30.5 163.5
t-84.5 130.5t-127.5 86.5t-160.5 31.5zM549 1069l61 328h62l-47 -328h-76z" />
    <glyph glyph-name="Hcircumflex" unicode="&#x124;" horiz-adv-x="1554" 
d="M292 740h968v660h75v-1400h-75v670h-968v-670h-74v1400h74v-660zM1008 1499l-232 224l-232 -224h-77l266 273h86l266 -273h-77z" />
    <glyph glyph-name="hcircumflex" unicode="&#x125;" horiz-adv-x="1192" 
d="M260 755q25 42 60 77t79 59.5t96.5 38.5t112.5 14q94 0 169.5 -28t128 -79.5t80.5 -125t28 -164.5v-547h-69v547q0 74 -22 135t-65.5 104.5t-107.5 67.5t-148 24q-76 0 -139 -26t-108 -71.5t-70 -107.5t-25 -133v-540h-70v1440h70v-685zM835 1550l-232 224l-232 -224h-77
l266 273h86l266 -273h-77z" />
    <glyph glyph-name="Hbar" unicode="&#x126;" horiz-adv-x="1624" 
d="M1558 1037h-189v-1037h-75v670h-968v-670h-74v1037h-187v64h187v299h74v-299h968v299h75v-299h189v-64zM1294 740v297h-968v-297h968z" />
    <glyph glyph-name="hbar" unicode="&#x127;" horiz-adv-x="1192" 
d="M702 1138h-442v-383q25 42 60 77t79 59.5t96.5 38.5t112.5 14q94 0 169.5 -28t128 -79.5t80.5 -125t28 -164.5v-547h-69v547q0 74 -22 135t-65.5 104.5t-107.5 67.5t-148 24q-76 0 -139 -26t-108 -71.5t-70 -107.5t-25 -133v-540h-70v1138h-190v64h190v238h70v-238h442
v-64z" />
    <glyph glyph-name="Itilde" unicode="&#x128;" horiz-adv-x="511" 
d="M292 0h-74v1400h74v-1400zM-71 1611q38 54 82.5 81.5t109.5 27.5q50 0 82.5 -14.5t60 -32.5t55.5 -32.5t69 -14.5q48 0 82.5 22t66.5 66l43 -40q-38 -54 -82.5 -81.5t-109.5 -27.5q-50 0 -82.5 15t-59.5 32.5t-55.5 32.5t-69.5 15q-48 0 -82.5 -22t-66.5 -67z" />
    <glyph glyph-name="itilde" unicode="&#x129;" horiz-adv-x="450" 
d="M260 0h-70v933h70v-933zM-86 1195q38 54 82.5 81.5t109.5 27.5q50 0 82.5 -14.5t60 -32.5t55.5 -32.5t69 -14.5q48 0 82.5 22t66.5 66l43 -40q-38 -54 -82.5 -81.5t-109.5 -27.5q-50 0 -82.5 15t-59.5 32.5t-55.5 32.5t-69.5 15q-48 0 -82.5 -22t-66.5 -67z" />
    <glyph glyph-name="Imacron" unicode="&#x12a;" horiz-adv-x="511" 
d="M292 0h-74v1400h74v-1400zM-29 1661h569v-58h-569v58z" />
    <glyph glyph-name="imacron" unicode="&#x12b;" horiz-adv-x="450" 
d="M260 0h-70v933h70v-933zM-59 1245h569v-58h-569v58z" />
    <glyph glyph-name="Ibreve" unicode="&#x12c;" horiz-adv-x="511" 
d="M292 0h-74v1400h74v-1400zM7 1776q27 -106 91 -160t157 -54t157 54t91 160l57 -17q-32 -126 -111.5 -191.5t-193.5 -65.5t-193.5 65.5t-111.5 191.5z" />
    <glyph glyph-name="ibreve" unicode="&#x12d;" horiz-adv-x="450" 
d="M260 0h-70v933h70v-933zM-23 1360q27 -106 91 -160t157 -54t157 54t91 160l57 -17q-32 -126 -111.5 -191.5t-193.5 -65.5t-193.5 65.5t-111.5 191.5z" />
    <glyph glyph-name="Iogonek" unicode="&#x12e;" horiz-adv-x="511" 
d="M292 0h-74v1400h74v-1400zM426 -326q-73 -83 -174 -83q-40 0 -73.5 12t-58 33.5t-38.5 52.5t-14 70q0 37 14.5 73t40 71t60 69t75.5 68l34 -40q-34 -31 -63 -61.5t-50 -60.5t-33 -59t-12 -56q0 -52 34.5 -82t88.5 -30q38 0 70.5 17.5t59.5 49.5z" />
    <glyph glyph-name="iogonek" unicode="&#x12f;" horiz-adv-x="450" 
d="M394 -326q-73 -83 -174 -83q-40 0 -73.5 12t-58 33.5t-38.5 52.5t-14 70q0 37 14.5 73t40 71t60 69t75.5 68l34 -40q-34 -31 -63 -61.5t-50 -60.5t-33 -59t-12 -56q0 -52 34.5 -82t88.5 -30q38 0 70.5 17.5t59.5 49.5zM260 0h-70v933h70v-933zM225 1327q22 0 37 -15
t15 -37t-15 -36.5t-37 -14.5t-36.5 14.5t-14.5 36.5t14.5 37t36.5 15z" />
    <glyph glyph-name="Idotaccent" unicode="&#x130;" horiz-adv-x="511" 
d="M292 0h-74v1400h74v-1400zM249.229 1686.76q22.3271 0 37.5508 -15.2236t15.2236 -37.5508q0 -22.3281 -15.2236 -37.0439t-37.5508 -14.7158q-22.3281 0 -37.0439 14.7158t-14.7158 37.0439q0 22.3271 14.7158 37.5508t37.0439 15.2236z" />
    <glyph glyph-name="dotlessi" unicode="&#x131;" horiz-adv-x="450" 
d="M260 0h-70v933h70v-933z" />
    <glyph glyph-name="IJ" unicode="&#x132;" horiz-adv-x="1663" 
d="M292 0h-74v1400h74v-1400zM1455 505q0 -125 -37 -221t-102 -161.5t-153.5 -99.5t-191.5 -34q-73 0 -134.5 15t-112.5 39.5t-91 55.5t-70 63l49 52q28 -30 64.5 -58t81.5 -49t98 -33.5t115 -12.5q89 0 164 29t129.5 86t85 141t30.5 194v889h75v-895z" />
    <glyph glyph-name="ij" unicode="&#x133;" horiz-adv-x="901" 
d="M711 -206q0 -99 -44.5 -151t-131.5 -52q-36 0 -68.5 10t-55.5 24l19 60q19 -12 44.5 -20t54.5 -8q113 0 113 140v1136h69v-1139zM676 1327q22 0 37 -15t15 -37t-15 -36.5t-37 -14.5t-36.5 14.5t-14.5 36.5t14.5 37t36.5 15zM260 0h-70v933h70v-933zM225 1327q22 0 37 -15
t15 -37t-15 -36.5t-37 -14.5t-36.5 14.5t-14.5 36.5t14.5 37t36.5 15z" />
    <glyph glyph-name="Jcircumflex" unicode="&#x134;" horiz-adv-x="1152" 
d="M944 505q0 -125 -37 -221t-102 -161.5t-153.5 -99.5t-191.5 -34q-73 0 -134.5 15t-112.5 39.5t-91 55.5t-70 63l49 52q28 -30 64.5 -58t81.5 -49t98 -33.5t115 -12.5q89 0 164 29t129.5 86t85 141t30.5 194v889h75v-895zM1139 1499l-232 224l-232 -224h-77l266 273h86
l266 -273h-77z" />
    <glyph glyph-name="jcircumflex" unicode="&#x135;" horiz-adv-x="451" 
d="M261 -206q0 -99 -44.5 -151t-131.5 -52q-36 0 -68.5 10t-55.5 24l19 60q19 -12 44.5 -20t54.5 -8q113 0 113 140v1136h69v-1139zM458 1083l-232 224l-232 -224h-77l266 273h86l266 -273h-77z" />
    <glyph glyph-name="Kcommaaccent" unicode="&#x136;" horiz-adv-x="1340" 
d="M498 669h-206v-669h-74v1400h74v-661h207l658 661h97l-696 -692l738 -708h-102zM729 -89l-61 -327h-62l48 327h75z" />
    <glyph glyph-name="kcommaaccent" unicode="&#x137;" horiz-adv-x="1023" 
d="M260 522h173l435 411h89l-470 -441l480 -492h-89l-446 458h-172v-458h-70v1440h70v-918zM604 -89l-61 -327h-62l48 327h75z" />
    <glyph glyph-name="kgreenlandic" unicode="&#x138;" horiz-adv-x="1001" 
d="M260 522h165l422 411h89l-457 -441l466 -492h-88l-433 458h-164v-458h-70v933h70v-411z" />
    <glyph glyph-name="Lacute" unicode="&#x139;" horiz-adv-x="1193" 
d="M1149 0h-931v1400h74v-1329h857v-71zM136 1485l233 300h89l-251 -300h-71z" />
    <glyph glyph-name="lacute" unicode="&#x13a;" horiz-adv-x="450" 
d="M260 0h-70v1440h70v-1440zM66 1547l233 300h89l-251 -300h-71z" />
    <glyph glyph-name="Lcommaaccent" unicode="&#x13b;" horiz-adv-x="1193" 
d="M1149 0h-931v1400h74v-1329h857v-71zM729 -89l-61 -327h-62l48 327h75z" />
    <glyph glyph-name="lcommaaccent" unicode="&#x13c;" horiz-adv-x="450" 
d="M260 0h-70v1440h70v-1440zM283 -89l-61 -327h-62l48 327h75z" />
    <glyph glyph-name="Lcaron" unicode="&#x13d;" horiz-adv-x="1193" 
d="M1149 0h-931v1400h74v-1329h857v-71zM587 1012l16 389h71l-27 -389h-60z" />
    <glyph glyph-name="lcaron" unicode="&#x13e;" horiz-adv-x="468" 
d="M260 0h-70v1440h70v-1440zM380 1051l16 389h71l-27 -389h-60z" />
    <glyph glyph-name="Ldot" unicode="&#x13f;" horiz-adv-x="1193" 
d="M1149 0h-931v1400h74v-1329h857v-71zM832.229 758.763q22.3271 0 37.5508 -15.2236t15.2236 -37.5508q0 -22.3281 -15.2236 -37.0439t-37.5508 -14.7158q-22.3281 0 -37.0439 14.7158t-14.7158 37.0439q0 22.3271 14.7158 37.5508t37.0439 15.2236z" />
    <glyph glyph-name="ldot" unicode="&#x140;" horiz-adv-x="511" 
d="M260 0h-70v1440h70v-1440zM476 783q22 0 37 -15t15 -37t-15 -36.5t-37 -14.5t-36.5 14.5t-14.5 36.5t14.5 37t36.5 15z" />
    <glyph glyph-name="Lslash" unicode="&#x141;" horiz-adv-x="1352" 
d="M1308 0h-931v563l-246 -139v81l246 139v756h74v-714l561 319v-81l-561 -319v-534h857v-71z" />
    <glyph glyph-name="lslash" unicode="&#x142;" horiz-adv-x="641" 
d="M356 820l228 173v-74l-228 -173v-746h-70v693l-229 -174v74l229 174v673h70v-620z" />
    <glyph glyph-name="Nacute" unicode="&#x143;" horiz-adv-x="1558" 
d="M1339 0h-67l-979 1271l-1 -1271h-74v1400h67l979 -1271v1271h75v-1400zM659 1485l233 300h89l-251 -300h-71z" />
    <glyph glyph-name="nacute" unicode="&#x144;" horiz-adv-x="1192" 
d="M608 944q94 0 169.5 -28t128 -79.5t80.5 -125t28 -164.5v-547h-69v547q0 74 -22 135t-65.5 104.5t-107.5 67.5t-148 24q-76 0 -139 -26t-108 -71.5t-70 -107.5t-25 -133v-540h-70v933h69v-179q25 42 60 77t79 60t97 39t113 14zM507 1069l233 300h89l-251 -300h-71z" />
    <glyph glyph-name="Ncommaaccent" unicode="&#x145;" horiz-adv-x="1558" 
d="M1339 0h-67l-979 1271l-1 -1271h-74v1400h67l979 -1271v1271h75v-1400zM837 -89l-61 -327h-62l48 327h75z" />
    <glyph glyph-name="ncommaaccent" unicode="&#x146;" horiz-adv-x="1192" 
d="M608 944q94 0 169.5 -28t128 -79.5t80.5 -125t28 -164.5v-547h-69v547q0 74 -22 135t-65.5 104.5t-107.5 67.5t-148 24q-76 0 -139 -26t-108 -71.5t-70 -107.5t-25 -133v-540h-70v933h69v-179q25 42 60 77t79 60t97 39t113 14zM657 -89l-61 -327h-62l48 327h75z" />
    <glyph glyph-name="Ncaron" unicode="&#x147;" horiz-adv-x="1558" 
d="M1339 0h-67l-979 1271l-1 -1271h-74v1400h67l979 -1271v1271h75v-1400zM546 1768l232 -223l232 223h77l-266 -273h-86l-266 273h77z" />
    <glyph glyph-name="ncaron" unicode="&#x148;" horiz-adv-x="1192" 
d="M608 944q94 0 169.5 -28t128 -79.5t80.5 -125t28 -164.5v-547h-69v547q0 74 -22 135t-65.5 104.5t-107.5 67.5t-148 24q-76 0 -139 -26t-108 -71.5t-70 -107.5t-25 -133v-540h-70v933h69v-179q25 42 60 77t79 60t97 39t113 14zM378 1352l232 -223l232 223h77l-266 -273
h-86l-266 273h77z" />
    <glyph glyph-name="napostrophe" unicode="&#x149;" horiz-adv-x="1476" 
d="M309 1440l-85 -456h-61l66 456h80zM892 944q94 0 169.5 -28t128 -79.5t80.5 -125t28 -164.5v-547h-69v547q0 74 -22 135t-65.5 104.5t-107.5 67.5t-148 24q-76 0 -139 -26t-108 -71.5t-70 -107.5t-25 -133v-540h-70v933h69v-179q25 42 60 77t79 60t97 39t113 14z" />
    <glyph glyph-name="Eng" unicode="&#x14a;" horiz-adv-x="1558" 
d="M1339 -42q0 -77 -17 -144t-55 -116.5t-98.5 -78t-146.5 -28.5q-76 0 -139.5 19t-109.5 47l28 65q40 -25 95.5 -42t117.5 -17q69 0 116.5 22.5t77 62t43 94t13.5 119.5v49l-971 1261l-1 -1271h-74v1400h67l979 -1271v1271h75v-1442z" />
    <glyph glyph-name="eng" unicode="&#x14b;" horiz-adv-x="1192" 
d="M608 944q94 0 169.5 -28t128 -79.5t80.5 -125t28 -164.5v-662q0 -99 -44 -151t-132 -52q-36 0 -68.5 10t-55.5 24l19 60q19 -12 44 -20t55 -8q113 0 113 140v659q0 74 -22 135t-65.5 104.5t-107.5 67.5t-148 24q-76 0 -139 -26t-108 -71.5t-70 -107.5t-25 -133v-540h-70
v933h69v-179q25 42 60 77t79 60t97 39t113 14z" />
    <glyph glyph-name="Omacron" unicode="&#x14c;" horiz-adv-x="1681" 
d="M841 1411q100 0 191.5 -23.5t170 -67t143 -106.5t110 -142t70.5 -173t25 -199q0 -158 -55 -289t-150.5 -225t-225 -145.5t-279.5 -51.5t-279.5 51.5t-225 145.5t-150.5 225t-55 289q0 106 25 199.5t70.5 172.5t110 142t143 106.5t170 67t191.5 23.5zM841 1340
q-132 0 -247.5 -46t-201 -130t-134.5 -202t-49 -262t49 -262t134.5 -202t201 -130t247.5 -46q88 0 169 21t151.5 60t127.5 95.5t98 127.5t63.5 155.5t22.5 180.5t-22.5 180.5t-63.5 155.5t-98 127.5t-127.5 95.5t-151.5 60t-169 21zM557 1661h569v-58h-569v58z" />
    <glyph glyph-name="omacron" unicode="&#x14d;" horiz-adv-x="1178" 
d="M588 944q102 0 189.5 -36.5t151.5 -100.5t100.5 -151.5t36.5 -189.5t-36.5 -189.5t-100.5 -151t-151.5 -100t-189.5 -36.5q-101 0 -188 36.5t-151 100t-100 151t-36 189.5t36 189.5t100 151.5t151 100.5t188 36.5zM588 878q-86 0 -160 -31t-128 -86t-85 -130.5
t-31 -164.5t31 -164t85 -130t128 -86t160 -31q87 0 161 31t129 86t86 130t31 164t-31 164.5t-86 130.5t-129 86t-161 31zM305 1245h569v-58h-569v58z" />
    <glyph glyph-name="Obreve" unicode="&#x14e;" horiz-adv-x="1681" 
d="M841 1411q100 0 191.5 -23.5t170 -67t143 -106.5t110 -142t70.5 -173t25 -199q0 -158 -55 -289t-150.5 -225t-225 -145.5t-279.5 -51.5t-279.5 51.5t-225 145.5t-150.5 225t-55 289q0 106 25 199.5t70.5 172.5t110 142t143 106.5t170 67t191.5 23.5zM841 1340
q-132 0 -247.5 -46t-201 -130t-134.5 -202t-49 -262t49 -262t134.5 -202t201 -130t247.5 -46q88 0 169 21t151.5 60t127.5 95.5t98 127.5t63.5 155.5t22.5 180.5t-22.5 180.5t-63.5 155.5t-98 127.5t-127.5 95.5t-151.5 60t-169 21zM593 1776q27 -106 91 -160t157 -54
t157 54t91 160l57 -17q-32 -126 -111.5 -191.5t-193.5 -65.5t-193.5 65.5t-111.5 191.5z" />
    <glyph glyph-name="obreve" unicode="&#x14f;" horiz-adv-x="1178" 
d="M588 944q102 0 189.5 -36.5t151.5 -100.5t100.5 -151.5t36.5 -189.5t-36.5 -189.5t-100.5 -151t-151.5 -100t-189.5 -36.5q-101 0 -188 36.5t-151 100t-100 151t-36 189.5t36 189.5t100 151.5t151 100.5t188 36.5zM588 878q-86 0 -160 -31t-128 -86t-85 -130.5
t-31 -164.5t31 -164t85 -130t128 -86t160 -31q87 0 161 31t129 86t86 130t31 164t-31 164.5t-86 130.5t-129 86t-161 31zM341 1360q27 -106 91 -160t157 -54t157 54t91 160l57 -17q-32 -126 -111.5 -191.5t-193.5 -65.5t-193.5 65.5t-111.5 191.5z" />
    <glyph glyph-name="Ohungarumlaut" unicode="&#x150;" horiz-adv-x="1681" 
d="M841 1411q100 0 191.5 -23.5t170 -67t143 -106.5t110 -142t70.5 -173t25 -199q0 -158 -55 -289t-150.5 -225t-225 -145.5t-279.5 -51.5t-279.5 51.5t-225 145.5t-150.5 225t-55 289q0 106 25 199.5t70.5 172.5t110 142t143 106.5t170 67t191.5 23.5zM841 1340
q-132 0 -247.5 -46t-201 -130t-134.5 -202t-49 -262t49 -262t134.5 -202t201 -130t247.5 -46q88 0 169 21t151.5 60t127.5 95.5t98 127.5t63.5 155.5t22.5 180.5t-22.5 180.5t-63.5 155.5t-98 127.5t-127.5 95.5t-151.5 60t-169 21zM943 1485l236 300h82l-246 -300h-72z
M602 1485l229 300h80l-237 -300h-72z" />
    <glyph glyph-name="ohungarumlaut" unicode="&#x151;" horiz-adv-x="1178" 
d="M588 944q102 0 189.5 -36.5t151.5 -100.5t100.5 -151.5t36.5 -189.5t-36.5 -189.5t-100.5 -151t-151.5 -100t-189.5 -36.5q-101 0 -188 36.5t-151 100t-100 151t-36 189.5t36 189.5t100 151.5t151 100.5t188 36.5zM588 878q-86 0 -160 -31t-128 -86t-85 -130.5
t-31 -164.5t31 -164t85 -130t128 -86t160 -31q87 0 161 31t129 86t86 130t31 164t-31 164.5t-86 130.5t-129 86t-161 31zM703 1069l236 300h82l-246 -300h-72zM362 1069l229 300h80l-237 -300h-72z" />
    <glyph glyph-name="OE" unicode="&#x152;" horiz-adv-x="2262" 
d="M2087 0h-1184q-180 0 -323.5 48t-243 138.5t-152.5 220.5t-53 293t53 293t152.5 220.5t243 138.5t323.5 48h1180v-70h-859v-590h837v-70h-837v-600h863v-70zM209 700q0 -146 46 -262.5t134.5 -198t217.5 -125t296 -43.5h247v1258h-247q-167 0 -296 -43.5t-217.5 -125.5
t-134.5 -198.5t-46 -261.5z" />
    <glyph glyph-name="oe" unicode="&#x153;" horiz-adv-x="2002" 
d="M1456 944q91 0 169.5 -35t137 -97.5t92 -149t35.5 -189.5v-16q0 -7 -1 -15h-823q4 -89 35 -160.5t83.5 -121.5t122.5 -77.5t152 -27.5q111 0 194.5 42t145.5 108l42 -48q-45 -50 -92 -82.5t-96 -51.5t-98.5 -26.5t-99.5 -7.5q-76 0 -142.5 20t-121 57t-96 89.5
t-66.5 117.5q-26 -64 -69.5 -116.5t-100 -89.5t-125.5 -57.5t-146 -20.5q-101 0 -188 36.5t-151 100t-100 151t-36 189.5t36 189.5t100 151.5t151 100.5t188 36.5q78 0 146.5 -20.5t125.5 -58.5t100.5 -91t69.5 -118q25 65 67.5 118.5t97.5 91t121 58t140 20.5zM588 878
q-86 0 -160 -31t-128 -86t-85 -130.5t-31 -164.5t31 -164t85 -130t128 -86t160 -31t160.5 31t129 86t86 130t31.5 164t-31.5 164.5t-86 130.5t-129 86t-160.5 31zM1452 878q-79 0 -146.5 -28t-118.5 -77.5t-82.5 -117.5t-38.5 -149h750q-5 81 -34.5 149t-78 117.5t-113 77.5
t-138.5 28z" />
    <glyph glyph-name="Racute" unicode="&#x154;" horiz-adv-x="1327" 
d="M732 1400q114 0 203 -25.5t150 -74.5t93 -120t32 -162q0 -90 -33 -161t-94.5 -120.5t-150 -75.5t-199.5 -26h-94l563 -635h-93l-558 635h-259v-635h-74v1400h514zM292 1330v-627h442q192 0 295.5 81.5t103.5 233.5q0 75 -26.5 133t-77.5 98t-125.5 60.5t-169.5 20.5h-442
zM538 1485l233 300h89l-251 -300h-71z" />
    <glyph glyph-name="racute" unicode="&#x155;" horiz-adv-x="793" 
d="M556 944q49 0 95.5 -10t84.5 -30l-19 -64q-35 20 -78.5 29.5t-88.5 9.5q-68 0 -121.5 -27t-91.5 -73.5t-58 -109t-20 -133.5v-536h-69v933h69v-164q44 78 118 126.5t179 48.5zM353 1069l233 300h89l-251 -300h-71z" />
    <glyph glyph-name="Rcommaaccent" unicode="&#x156;" horiz-adv-x="1327" 
d="M732 1400q114 0 203 -25.5t150 -74.5t93 -120t32 -162q0 -90 -33 -161t-94.5 -120.5t-150 -75.5t-199.5 -26h-94l563 -635h-93l-558 635h-259v-635h-74v1400h514zM292 1330v-627h442q192 0 295.5 81.5t103.5 233.5q0 75 -26.5 133t-77.5 98t-125.5 60.5t-169.5 20.5h-442
zM713 -89l-61 -327h-62l48 327h75z" />
    <glyph glyph-name="rcommaaccent" unicode="&#x157;" horiz-adv-x="793" 
d="M556 944q49 0 95.5 -10t84.5 -30l-19 -64q-35 20 -78.5 29.5t-88.5 9.5q-68 0 -121.5 -27t-91.5 -73.5t-58 -109t-20 -133.5v-536h-69v933h69v-164q44 78 118 126.5t179 48.5zM283 -89l-61 -327h-62l48 327h75z" />
    <glyph glyph-name="Rcaron" unicode="&#x158;" horiz-adv-x="1327" 
d="M732 1400q114 0 203 -25.5t150 -74.5t93 -120t32 -162q0 -90 -33 -161t-94.5 -120.5t-150 -75.5t-199.5 -26h-94l563 -635h-93l-558 635h-259v-635h-74v1400h514zM292 1330v-627h442q192 0 295.5 81.5t103.5 233.5q0 75 -26.5 133t-77.5 98t-125.5 60.5t-169.5 20.5h-442
zM425 1768l232 -223l232 223h77l-266 -273h-86l-266 273h77z" />
    <glyph glyph-name="rcaron" unicode="&#x159;" horiz-adv-x="793" 
d="M556 944q49 0 95.5 -10t84.5 -30l-19 -64q-35 20 -78.5 29.5t-88.5 9.5q-68 0 -121.5 -27t-91.5 -73.5t-58 -109t-20 -133.5v-536h-69v933h69v-164q44 78 118 126.5t179 48.5zM224 1352l232 -223l232 223h77l-266 -273h-86l-266 273h77z" />
    <glyph glyph-name="Sacute" unicode="&#x15a;" horiz-adv-x="1340" 
d="M1128 1195q-39 29 -87.5 55t-105.5 46t-124 32t-143 12q-91 0 -168.5 -21t-134.5 -61t-89 -98t-32 -132q0 -56 20 -102.5t63.5 -82.5t113.5 -60.5t169 -34.5l179 -19q97 -11 175 -35.5t132.5 -66t83.5 -102t29 -142.5q0 -100 -43 -174t-117 -123t-173.5 -73t-212.5 -24
q-82 0 -159 14.5t-145.5 38t-126.5 54t-101 63.5l41 59q37 -28 89.5 -56.5t115.5 -51t135.5 -36.5t150.5 -14q98 0 183.5 19t149 58.5t100 99t36.5 140.5q0 64 -23.5 112.5t-70 82.5t-116.5 55t-162 31l-183 19q-209 22 -309.5 111.5t-100.5 235.5q0 93 39 165t106.5 121.5
t159 75t197.5 25.5q84 0 156.5 -12.5t134 -34t113 -50t93.5 -59.5zM573 1485l233 300h89l-251 -300h-71z" />
    <glyph glyph-name="sacute" unicode="&#x15b;" horiz-adv-x="961" 
d="M808 780q-25 18 -60 36t-77.5 32t-91 22.5t-100.5 8.5q-61 0 -113 -13t-90 -38t-59.5 -61t-21.5 -82q0 -35 13.5 -64.5t42.5 -51.5t74.5 -37t110.5 -22l131 -14q143 -15 221 -73.5t78 -165.5q0 -66 -29.5 -116t-81.5 -84t-124.5 -51t-157.5 -17q-116 0 -211 32t-167 86
l35 55q29 -23 63 -42.5t76 -34t92.5 -23t112.5 -8.5q69 0 127.5 12t101.5 36.5t67.5 62t24.5 88.5q0 154 -242 178l-132 13q-80 8 -136.5 29t-92.5 52t-52.5 70.5t-16.5 86.5q0 62 26.5 110.5t73.5 82t112.5 51t142.5 17.5q56 0 108.5 -8.5t99 -23t86 -34t69.5 -41.5z
M388 1069l233 300h89l-251 -300h-71z" />
    <glyph glyph-name="Scircumflex" unicode="&#x15c;" horiz-adv-x="1340" 
d="M1128 1195q-39 29 -87.5 55t-105.5 46t-124 32t-143 12q-91 0 -168.5 -21t-134.5 -61t-89 -98t-32 -132q0 -56 20 -102.5t63.5 -82.5t113.5 -60.5t169 -34.5l179 -19q97 -11 175 -35.5t132.5 -66t83.5 -102t29 -142.5q0 -100 -43 -174t-117 -123t-173.5 -73t-212.5 -24
q-82 0 -159 14.5t-145.5 38t-126.5 54t-101 63.5l41 59q37 -28 89.5 -56.5t115.5 -51t135.5 -36.5t150.5 -14q98 0 183.5 19t149 58.5t100 99t36.5 140.5q0 64 -23.5 112.5t-70 82.5t-116.5 55t-162 31l-183 19q-209 22 -309.5 111.5t-100.5 235.5q0 93 39 165t106.5 121.5
t159 75t197.5 25.5q84 0 156.5 -12.5t134 -34t113 -50t93.5 -59.5zM924 1499l-232 224l-232 -224h-77l266 273h86l266 -273h-77z" />
    <glyph glyph-name="scircumflex" unicode="&#x15d;" horiz-adv-x="961" 
d="M808 780q-25 18 -60 36t-77.5 32t-91 22.5t-100.5 8.5q-61 0 -113 -13t-90 -38t-59.5 -61t-21.5 -82q0 -35 13.5 -64.5t42.5 -51.5t74.5 -37t110.5 -22l131 -14q143 -15 221 -73.5t78 -165.5q0 -66 -29.5 -116t-81.5 -84t-124.5 -51t-157.5 -17q-116 0 -211 32t-167 86
l35 55q29 -23 63 -42.5t76 -34t92.5 -23t112.5 -8.5q69 0 127.5 12t101.5 36.5t67.5 62t24.5 88.5q0 154 -242 178l-132 13q-80 8 -136.5 29t-92.5 52t-52.5 70.5t-16.5 86.5q0 62 26.5 110.5t73.5 82t112.5 51t142.5 17.5q56 0 108.5 -8.5t99 -23t86 -34t69.5 -41.5z
M723 1083l-232 224l-232 -224h-77l266 273h86l266 -273h-77z" />
    <glyph glyph-name="Scedilla" unicode="&#x15e;" horiz-adv-x="1340" 
d="M1128 1195q-39 29 -87.5 55t-105.5 46t-124 32t-143 12q-91 0 -168.5 -21t-134.5 -61t-89 -98t-32 -132q0 -56 20 -102.5t63.5 -82.5t113.5 -60.5t169 -34.5l179 -19q97 -11 175 -35.5t132.5 -66t83.5 -102t29 -142.5q0 -100 -43 -174t-117 -123t-173.5 -73t-212.5 -24
q-82 0 -159 14.5t-145.5 38t-126.5 54t-101 63.5l41 59q37 -28 89.5 -56.5t115.5 -51t135.5 -36.5t150.5 -14q98 0 183.5 19t149 58.5t100 99t36.5 140.5q0 64 -23.5 112.5t-70 82.5t-116.5 55t-162 31l-183 19q-209 22 -309.5 111.5t-100.5 235.5q0 93 39 165t106.5 121.5
t159 75t197.5 25.5q84 0 156.5 -12.5t134 -34t113 -50t93.5 -59.5zM635 -325h-76l107 330l72 -2z" />
    <glyph glyph-name="scedilla" unicode="&#x15f;" horiz-adv-x="961" 
d="M808 780q-25 18 -60 36t-77.5 32t-91 22.5t-100.5 8.5q-61 0 -113 -13t-90 -38t-59.5 -61t-21.5 -82q0 -35 13.5 -64.5t42.5 -51.5t74.5 -37t110.5 -22l131 -14q143 -15 221 -73.5t78 -165.5q0 -66 -29.5 -116t-81.5 -84t-124.5 -51t-157.5 -17q-116 0 -211 32t-167 86
l35 55q29 -23 63 -42.5t76 -34t92.5 -23t112.5 -8.5q69 0 127.5 12t101.5 36.5t67.5 62t24.5 88.5q0 154 -242 178l-132 13q-80 8 -136.5 29t-92.5 52t-52.5 70.5t-16.5 86.5q0 62 26.5 110.5t73.5 82t112.5 51t142.5 17.5q56 0 108.5 -8.5t99 -23t86 -34t69.5 -41.5z
M441 -325h-73l107 330l69 -2z" />
    <glyph glyph-name="Scaron" unicode="&#x160;" horiz-adv-x="1340" 
d="M1128 1195q-39 29 -87.5 55t-105.5 46t-124 32t-143 12q-91 0 -168.5 -21t-134.5 -61t-89 -98t-32 -132q0 -56 20 -102.5t63.5 -82.5t113.5 -60.5t169 -34.5l179 -19q97 -11 175 -35.5t132.5 -66t83.5 -102t29 -142.5q0 -100 -43 -174t-117 -123t-173.5 -73t-212.5 -24
q-82 0 -159 14.5t-145.5 38t-126.5 54t-101 63.5l41 59q37 -28 89.5 -56.5t115.5 -51t135.5 -36.5t150.5 -14q98 0 183.5 19t149 58.5t100 99t36.5 140.5q0 64 -23.5 112.5t-70 82.5t-116.5 55t-162 31l-183 19q-209 22 -309.5 111.5t-100.5 235.5q0 93 39 165t106.5 121.5
t159 75t197.5 25.5q84 0 156.5 -12.5t134 -34t113 -50t93.5 -59.5zM460 1768l232 -223l232 223h77l-266 -273h-86l-266 273h77z" />
    <glyph glyph-name="scaron" unicode="&#x161;" horiz-adv-x="961" 
d="M808 780q-25 18 -60 36t-77.5 32t-91 22.5t-100.5 8.5q-61 0 -113 -13t-90 -38t-59.5 -61t-21.5 -82q0 -35 13.5 -64.5t42.5 -51.5t74.5 -37t110.5 -22l131 -14q143 -15 221 -73.5t78 -165.5q0 -66 -29.5 -116t-81.5 -84t-124.5 -51t-157.5 -17q-116 0 -211 32t-167 86
l35 55q29 -23 63 -42.5t76 -34t92.5 -23t112.5 -8.5q69 0 127.5 12t101.5 36.5t67.5 62t24.5 88.5q0 154 -242 178l-132 13q-80 8 -136.5 29t-92.5 52t-52.5 70.5t-16.5 86.5q0 62 26.5 110.5t73.5 82t112.5 51t142.5 17.5q56 0 108.5 -8.5t99 -23t86 -34t69.5 -41.5z
M259 1352l232 -223l232 223h77l-266 -273h-86l-266 273h77z" />
    <glyph glyph-name="Tcommaaccent" unicode="&#x162;" horiz-adv-x="1218" 
d="M1174 1329h-528v-1329h-74v1329h-528v71h1130v-71zM542 -325h-76l107 330l72 -2z" />
    <glyph glyph-name="tcommaaccent" unicode="&#x163;" horiz-adv-x="903" 
d="M819 869h-463v-557q0 -131 63.5 -194t170.5 -63q68 0 125 21t99 58l35 -51q-48 -43 -114 -68.5t-150 -25.5q-140 0 -219.5 80t-79.5 242v558h-229v64h229v315h70v-315h463v-64zM513 -325h-73l107 330l69 -2z" />
    <glyph glyph-name="Tcaron" unicode="&#x164;" horiz-adv-x="1218" 
d="M1174 1329h-528v-1329h-74v1329h-528v71h1130v-71zM377 1768l232 -223l232 223h77l-266 -273h-86l-266 273h77z" />
    <glyph glyph-name="tcaron" unicode="&#x165;" horiz-adv-x="903" 
d="M819 869h-463v-557q0 -131 63.5 -194t170.5 -63q68 0 125 21t99 58l35 -51q-48 -43 -114 -68.5t-150 -25.5q-140 0 -219.5 80t-79.5 242v558h-229v64h229v315h70v-315h463v-64zM524 1051l16 389h71l-27 -389h-60z" />
    <glyph glyph-name="Tbar" unicode="&#x166;" horiz-adv-x="1218" 
d="M1011 670h-365v-670h-74v670h-365v70h365v589h-528v71h1130v-71h-528v-589h365v-70z" />
    <glyph glyph-name="tbar" unicode="&#x167;" horiz-adv-x="903" 
d="M819 869h-463v-305h347v-64h-347v-188q0 -131 63.5 -194t170.5 -63q68 0 125 21t99 58l35 -51q-48 -43 -114 -68.5t-150 -25.5q-140 0 -219.5 80t-79.5 242v189h-218v64h218v305h-229v64h229v315h70v-315h463v-64z" />
    <glyph glyph-name="Utilde" unicode="&#x168;" horiz-adv-x="1500" 
d="M1303 542q0 -138 -43.5 -241.5t-118.5 -172.5t-176 -104t-215 -35q-115 0 -216 35t-176 104t-118.5 172.5t-43.5 241.5v858h75v-853q0 -122 37 -213.5t101.5 -152t152 -90.5t188.5 -30q100 0 187.5 30t152 90.5t101.5 152t37 213.5v853h75v-858zM424 1611
q38 54 82.5 81.5t109.5 27.5q50 0 82.5 -14.5t60 -32.5t55.5 -32.5t69 -14.5q48 0 82.5 22t66.5 66l43 -40q-38 -54 -82.5 -81.5t-109.5 -27.5q-50 0 -82.5 15t-59.5 32.5t-55.5 32.5t-69.5 15q-48 0 -82.5 -22t-66.5 -67z" />
    <glyph glyph-name="utilde" unicode="&#x169;" horiz-adv-x="1180" 
d="M1002 381q0 -93 -31.5 -166t-86.5 -123.5t-130.5 -76.5t-163.5 -26t-163.5 26t-130.5 76.5t-86 123.5t-31 166v552h69v-546q0 -78 25 -140t70 -104.5t108 -65t139 -22.5t139 22.5t108 65t70 104.5t25 140v546h70v-552zM279 1195q38 54 82.5 81.5t109.5 27.5
q50 0 82.5 -14.5t60 -32.5t55.5 -32.5t69 -14.5q48 0 82.5 22t66.5 66l43 -40q-38 -54 -82.5 -81.5t-109.5 -27.5q-50 0 -82.5 15t-59.5 32.5t-55.5 32.5t-69.5 15q-48 0 -82.5 -22t-66.5 -67z" />
    <glyph glyph-name="Umacron" unicode="&#x16a;" horiz-adv-x="1500" 
d="M1303 542q0 -138 -43.5 -241.5t-118.5 -172.5t-176 -104t-215 -35q-115 0 -216 35t-176 104t-118.5 172.5t-43.5 241.5v858h75v-853q0 -122 37 -213.5t101.5 -152t152 -90.5t188.5 -30q100 0 187.5 30t152 90.5t101.5 152t37 213.5v853h75v-858zM466 1661h569v-58h-569
v58z" />
    <glyph glyph-name="umacron" unicode="&#x16b;" horiz-adv-x="1180" 
d="M1002 381q0 -93 -31.5 -166t-86.5 -123.5t-130.5 -76.5t-163.5 -26t-163.5 26t-130.5 76.5t-86 123.5t-31 166v552h69v-546q0 -78 25 -140t70 -104.5t108 -65t139 -22.5t139 22.5t108 65t70 104.5t25 140v546h70v-552zM306 1245h569v-58h-569v58z" />
    <glyph glyph-name="Ubreve" unicode="&#x16c;" horiz-adv-x="1500" 
d="M1303 542q0 -138 -43.5 -241.5t-118.5 -172.5t-176 -104t-215 -35q-115 0 -216 35t-176 104t-118.5 172.5t-43.5 241.5v858h75v-853q0 -122 37 -213.5t101.5 -152t152 -90.5t188.5 -30q100 0 187.5 30t152 90.5t101.5 152t37 213.5v853h75v-858zM502 1776
q27 -106 91 -160t157 -54t157 54t91 160l57 -17q-32 -126 -111.5 -191.5t-193.5 -65.5t-193.5 65.5t-111.5 191.5z" />
    <glyph glyph-name="ubreve" unicode="&#x16d;" horiz-adv-x="1180" 
d="M1002 381q0 -93 -31.5 -166t-86.5 -123.5t-130.5 -76.5t-163.5 -26t-163.5 26t-130.5 76.5t-86 123.5t-31 166v552h69v-546q0 -78 25 -140t70 -104.5t108 -65t139 -22.5t139 22.5t108 65t70 104.5t25 140v546h70v-552zM342 1360q27 -106 91 -160t157 -54t157 54t91 160
l57 -17q-32 -126 -111.5 -191.5t-193.5 -65.5t-193.5 65.5t-111.5 191.5z" />
    <glyph glyph-name="Uring" unicode="&#x16e;" horiz-adv-x="1500" 
d="M1303 542q0 -138 -43.5 -241.5t-118.5 -172.5t-176 -104t-215 -35q-115 0 -216 35t-176 104t-118.5 172.5t-43.5 241.5v858h75v-853q0 -122 37 -213.5t101.5 -152t152 -90.5t188.5 -30q100 0 187.5 30t152 90.5t101.5 152t37 213.5v853h75v-858zM750 1474
q-41 0 -77.5 15.5t-63.5 42.5t-43 63t-16 77t16 77t43 63t63.5 43t77.5 16t77 -16t63 -43t43 -63t16 -77t-16 -77t-43 -63t-63 -42.5t-77 -15.5zM750 1528q30 0 56 11t45.5 30.5t30.5 46t11 56.5t-11 56.5t-30.5 46t-45.5 30.5t-56 11t-56.5 -11t-46 -30.5t-30.5 -46
t-11 -56.5t11 -56.5t30.5 -46t46 -30.5t56.5 -11z" />
    <glyph glyph-name="uring" unicode="&#x16f;" horiz-adv-x="1180" 
d="M1002 381q0 -93 -31.5 -166t-86.5 -123.5t-130.5 -76.5t-163.5 -26t-163.5 26t-130.5 76.5t-86 123.5t-31 166v552h69v-546q0 -78 25 -140t70 -104.5t108 -65t139 -22.5t139 22.5t108 65t70 104.5t25 140v546h70v-552zM590 1058q-41 0 -77.5 15.5t-63.5 42.5t-43 63
t-16 77t16 77t43 63t63.5 43t77.5 16t77 -16t63 -43t43 -63t16 -77t-16 -77t-43 -63t-63 -42.5t-77 -15.5zM590 1112q30 0 56 11t45.5 30.5t30.5 46t11 56.5t-11 56.5t-30.5 46t-45.5 30.5t-56 11t-56.5 -11t-46 -30.5t-30.5 -46t-11 -56.5t11 -56.5t30.5 -46t46 -30.5
t56.5 -11z" />
    <glyph glyph-name="Uhungarumlaut" unicode="&#x170;" horiz-adv-x="1500" 
d="M1303 542q0 -138 -43.5 -241.5t-118.5 -172.5t-176 -104t-215 -35q-115 0 -216 35t-176 104t-118.5 172.5t-43.5 241.5v858h75v-853q0 -122 37 -213.5t101.5 -152t152 -90.5t188.5 -30q100 0 187.5 30t152 90.5t101.5 152t37 213.5v853h75v-858zM852 1485l236 300h82
l-246 -300h-72zM511 1485l229 300h80l-237 -300h-72z" />
    <glyph glyph-name="uhungarumlaut" unicode="&#x171;" horiz-adv-x="1180" 
d="M1002 381q0 -93 -31.5 -166t-86.5 -123.5t-130.5 -76.5t-163.5 -26t-163.5 26t-130.5 76.5t-86 123.5t-31 166v552h69v-546q0 -78 25 -140t70 -104.5t108 -65t139 -22.5t139 22.5t108 65t70 104.5t25 140v546h70v-552zM704 1069l236 300h82l-246 -300h-72zM363 1069
l229 300h80l-237 -300h-72z" />
    <glyph glyph-name="Uogonek" unicode="&#x172;" horiz-adv-x="1500" 
d="M1303 542q0 -138 -43.5 -241.5t-118.5 -172.5t-176 -104t-215 -35q-115 0 -216 35t-176 104t-118.5 172.5t-43.5 241.5v858h75v-853q0 -122 37 -213.5t101.5 -152t152 -90.5t188.5 -30q100 0 187.5 30t152 90.5t101.5 152t37 213.5v853h75v-858zM1150 -323
q-42 -42 -95.5 -64t-113.5 -22q-49 0 -90 14.5t-70 40.5t-45.5 61.5t-16.5 78.5q0 54 21.5 97t59.5 78.5t89.5 66.5t111.5 63l31 -38q-53 -30 -97.5 -58.5t-77.5 -59.5t-51.5 -65.5t-18.5 -77.5q0 -64 44 -102.5t115 -38.5q47 0 89 18t76 53z" />
    <glyph glyph-name="uogonek" unicode="&#x173;" horiz-adv-x="1180" 
d="M1002 381q0 -93 -31.5 -166t-86.5 -123.5t-130.5 -76.5t-163.5 -26t-163.5 26t-130.5 76.5t-86 123.5t-31 166v552h69v-546q0 -78 25 -140t70 -104.5t108 -65t139 -22.5t139 22.5t108 65t70 104.5t25 140v546h70v-552zM949 -323q-42 -42 -95.5 -64t-113.5 -22
q-49 0 -90 14.5t-70 40.5t-45.5 61.5t-16.5 78.5q0 54 21.5 97t59.5 78.5t89.5 66.5t111.5 63l31 -38q-53 -30 -97.5 -58.5t-77.5 -59.5t-51.5 -65.5t-18.5 -77.5q0 -64 44 -102.5t115 -38.5q47 0 89 18t76 53z" />
    <glyph glyph-name="Wcircumflex" unicode="&#x174;" horiz-adv-x="2217" 
d="M1655 0h-89l-457 1302l-457 -1302h-89l-493 1400h79l459 -1316l461 1316h82l461 -1316l459 1316h76zM1341 1499l-232 224l-232 -224h-77l266 273h86l266 -273h-77z" />
    <glyph glyph-name="wcircumflex" unicode="&#x175;" horiz-adv-x="1749" 
d="M1257 70l361 863h73l-394 -933h-81l-342 861l-342 -861h-80l-393 933h74l360 -863l343 863h78zM1107 1083l-232 224l-232 -224h-77l266 273h86l266 -273h-77z" />
    <glyph glyph-name="Ycircumflex" unicode="&#x176;" horiz-adv-x="1232" 
d="M654 619v-619h-74v619l-567 781h90l514 -710l515 710h87zM850 1499l-232 224l-232 -224h-77l266 273h86l266 -273h-77z" />
    <glyph glyph-name="ycircumflex" unicode="&#x177;" horiz-adv-x="996" 
d="M187 -402h-78l369 618l-451 717h79l411 -648l383 648h77zM735 1083l-232 224l-232 -224h-77l266 273h86l266 -273h-77z" />
    <glyph glyph-name="Ydieresis" unicode="&#x178;" horiz-adv-x="1232" 
d="M654 619v-619h-74v619l-567 781h90l514 -710l515 710h87zM411 1684q22 0 37 -14.5t15 -36.5t-15 -37t-37 -15t-36.5 15t-14.5 37t14.5 36.5t36.5 14.5zM825 1684q22 0 37 -14.5t15 -36.5t-15 -37t-37 -15t-36.5 15t-14.5 37t14.5 36.5t36.5 14.5z" />
    <glyph glyph-name="Zacute" unicode="&#x179;" horiz-adv-x="1343" 
d="M1207 1344l-977 -1273h982v-71h-1081v58l976 1271h-955v71h1055v-56zM560 1485l233 300h89l-251 -300h-71z" />
    <glyph glyph-name="zacute" unicode="&#x17a;" horiz-adv-x="1078" 
d="M937 881l-711 -817h719v-64h-812v51l714 818h-693v64h783v-52zM443 1069l233 300h89l-251 -300h-71z" />
    <glyph glyph-name="Zdotaccent" unicode="&#x17b;" horiz-adv-x="1343" 
d="M1207 1344l-977 -1273h982v-71h-1081v58l976 1271h-955v71h1055v-56zM673.229 1686.76q22.3271 0 37.5508 -15.2236t15.2236 -37.5508q0 -22.3281 -15.2236 -37.0439t-37.5508 -14.7158q-22.3281 0 -37.0439 14.7158t-14.7158 37.0439q0 22.3271 14.7158 37.5508
t37.0439 15.2236z" />
    <glyph glyph-name="zdotaccent" unicode="&#x17c;" horiz-adv-x="1078" 
d="M937 881l-711 -817h719v-64h-812v51l714 818h-693v64h783v-52zM546 1327q22 0 37 -15t15 -37t-15 -36.5t-37 -14.5t-36.5 14.5t-14.5 36.5t14.5 37t36.5 15z" />
    <glyph glyph-name="Zcaron" unicode="&#x17d;" horiz-adv-x="1343" 
d="M1207 1344l-977 -1273h982v-71h-1081v58l976 1271h-955v71h1055v-56zM447 1768l232 -223l232 223h77l-266 -273h-86l-266 273h77z" />
    <glyph glyph-name="zcaron" unicode="&#x17e;" horiz-adv-x="1078" 
d="M937 881l-711 -817h719v-64h-812v51l714 818h-693v64h783v-52zM314 1352l232 -223l232 223h77l-266 -273h-86l-266 273h77z" />
    <glyph glyph-name="longs" unicode="&#x17f;" horiz-adv-x="660" 
d="M487 1451q75 0 138 -20t110 -50l-26 -58q-41 26 -98 44t-120 18q-66 0 -111.5 -20t-74.5 -57.5t-42 -91t-13 -121.5v-1095h-70v1095q0 80 16.5 146t53 112.5t95 72t142.5 25.5z" />
    <glyph glyph-name="uni018F" unicode="&#x18f;" horiz-adv-x="1628" 
d="M796 1411q98 0 188 -23.5t168 -67.5t141.5 -107t109 -142t70.5 -172.5t25 -198.5q0 -158 -53.5 -288.5t-146 -224.5t-217 -146t-267.5 -52q-148 0 -273 51.5t-216 145t-142.5 223.5t-51.5 287v20q0 10 1 21h1289q-7 134 -58.5 245t-135.5 190.5t-194.5 123t-236.5 43.5
q-155 0 -282.5 -63t-219.5 -173l-53 51q51 59 112 106.5t131 81t148.5 51.5t163.5 18zM814 61q123 0 230.5 44t189.5 123.5t131.5 191.5t55.5 247h-1209q2 -135 48.5 -246.5t127 -191.5t189.5 -124t237 -44z" />
    <glyph glyph-name="florin" unicode="&#x192;" horiz-adv-x="1400" 
d="M1076 693h-340l-39 -398q-7 -68 -26.5 -124t-52.5 -96.5t-80 -63t-107 -22.5q-65 0 -119 19.5t-95 48.5l26 56q35 -26 82.5 -43t100.5 -17q45 0 80 17.5t60.5 49t41 76.5t20.5 99l39 398h-293v64h300l34 348q6 68 26 124t53.5 96.5t80 63t106.5 22.5q65 0 119 -19.5
t94 -48.5l-25 -56q-35 26 -83 43t-101 17q-45 0 -80 -17.5t-60.5 -49t-41 -76.5t-20.5 -99l-34 -348h334v-64z" />
    <glyph glyph-name="uni01B5" unicode="&#x1b5;" horiz-adv-x="1343" 
d="M1072 668h-384l-458 -597h982v-71h-1081v58l471 612h-330v69h381l454 590h-955v71h1055v-56l-466 -607h331v-69z" />
    <glyph glyph-name="uni01B6" unicode="&#x1b6;" horiz-adv-x="1078" 
d="M854 447h-295l-333 -383h719v-64h-812v51l348 398h-243v55h290l320 365h-694v64h784v-52l-330 -379h246v-55z" />
    <glyph glyph-name="uni01CD" unicode="&#x1cd;" horiz-adv-x="1386" 
d="M1342 0h-80l-186 433h-768l-186 -433h-78l604 1400h90zM338 504h707l-353 820zM461 1768l232 -223l232 223h77l-266 -273h-86l-266 273h77z" />
    <glyph glyph-name="uni01CE" unicode="&#x1ce;" horiz-adv-x="1243" 
d="M1053 0h-69v218q-29 -51 -69.5 -93.5t-91.5 -72.5t-110.5 -46.5t-126.5 -16.5q-101 0 -187 36t-150 99.5t-100 151t-36 190.5t36 190.5t100 151.5t150 100t187 36q67 0 126.5 -16.5t110.5 -46.5t91.5 -72.5t69.5 -94.5v219h69v-933zM586 878q-87 0 -161 -31.5t-127.5 -87
t-83.5 -131t-30 -162.5t30 -162t84 -130.5t127.5 -87t160.5 -31.5t160.5 31.5t127 86.5t84 130t30.5 163t-30.5 163.5t-84 130.5t-127 86.5t-160.5 31.5zM368 1352l232 -223l232 223h77l-266 -273h-86l-266 273h77z" />
    <glyph glyph-name="uni01CF" unicode="&#x1cf;" horiz-adv-x="511" 
d="M292 0h-74v1400h74v-1400zM23 1768l232 -223l232 223h77l-266 -273h-86l-266 273h77z" />
    <glyph glyph-name="uni01D0" unicode="&#x1d0;" horiz-adv-x="450" 
d="M260 0h-70v933h70v-933zM-7 1352l232 -223l232 223h77l-266 -273h-86l-266 273h77z" />
    <glyph glyph-name="uni01D1" unicode="&#x1d1;" horiz-adv-x="1681" 
d="M841 1411q100 0 191.5 -23.5t170 -67t143 -106.5t110 -142t70.5 -173t25 -199q0 -158 -55 -289t-150.5 -225t-225 -145.5t-279.5 -51.5t-279.5 51.5t-225 145.5t-150.5 225t-55 289q0 106 25 199.5t70.5 172.5t110 142t143 106.5t170 67t191.5 23.5zM841 1340
q-132 0 -247.5 -46t-201 -130t-134.5 -202t-49 -262t49 -262t134.5 -202t201 -130t247.5 -46q88 0 169 21t151.5 60t127.5 95.5t98 127.5t63.5 155.5t22.5 180.5t-22.5 180.5t-63.5 155.5t-98 127.5t-127.5 95.5t-151.5 60t-169 21zM609 1768l232 -223l232 223h77l-266 -273
h-86l-266 273h77z" />
    <glyph glyph-name="uni01D2" unicode="&#x1d2;" horiz-adv-x="1178" 
d="M588 944q102 0 189.5 -36.5t151.5 -100.5t100.5 -151.5t36.5 -189.5t-36.5 -189.5t-100.5 -151t-151.5 -100t-189.5 -36.5q-101 0 -188 36.5t-151 100t-100 151t-36 189.5t36 189.5t100 151.5t151 100.5t188 36.5zM588 878q-86 0 -160 -31t-128 -86t-85 -130.5
t-31 -164.5t31 -164t85 -130t128 -86t160 -31q87 0 161 31t129 86t86 130t31 164t-31 164.5t-86 130.5t-129 86t-161 31zM357 1352l232 -223l232 223h77l-266 -273h-86l-266 273h77z" />
    <glyph glyph-name="uni01D3" unicode="&#x1d3;" horiz-adv-x="1500" 
d="M1303 542q0 -138 -43.5 -241.5t-118.5 -172.5t-176 -104t-215 -35q-115 0 -216 35t-176 104t-118.5 172.5t-43.5 241.5v858h75v-853q0 -122 37 -213.5t101.5 -152t152 -90.5t188.5 -30q100 0 187.5 30t152 90.5t101.5 152t37 213.5v853h75v-858zM518 1768l232 -223
l232 223h77l-266 -273h-86l-266 273h77z" />
    <glyph glyph-name="uni01D4" unicode="&#x1d4;" horiz-adv-x="1180" 
d="M1002 381q0 -93 -31.5 -166t-86.5 -123.5t-130.5 -76.5t-163.5 -26t-163.5 26t-130.5 76.5t-86 123.5t-31 166v552h69v-546q0 -78 25 -140t70 -104.5t108 -65t139 -22.5t139 22.5t108 65t70 104.5t25 140v546h70v-552zM358 1352l232 -223l232 223h77l-266 -273h-86
l-266 273h77z" />
    <glyph glyph-name="uni01D5" unicode="&#x1d5;" horiz-adv-x="1500" 
d="M1303 542q0 -138 -43.5 -241.5t-118.5 -172.5t-176 -104t-215 -35q-115 0 -216 35t-176 104t-118.5 172.5t-43.5 241.5v858h75v-853q0 -122 37 -213.5t101.5 -152t152 -90.5t188.5 -30q100 0 187.5 30t152 90.5t101.5 152t37 213.5v853h75v-858zM466 1991h569v-58h-569
v58zM543 1684q22 0 37 -14.5t15 -36.5t-15 -37t-37 -15t-36.5 15t-14.5 37t14.5 36.5t36.5 14.5zM957 1684q22 0 37 -14.5t15 -36.5t-15 -37t-37 -15t-36.5 15t-14.5 37t14.5 36.5t36.5 14.5z" />
    <glyph glyph-name="uni01D6" unicode="&#x1d6;" horiz-adv-x="1180" 
d="M1002 381q0 -93 -31.5 -166t-86.5 -123.5t-130.5 -76.5t-163.5 -26t-163.5 26t-130.5 76.5t-86 123.5t-31 166v552h69v-546q0 -78 25 -140t70 -104.5t108 -65t139 -22.5t139 22.5t108 65t70 104.5t25 140v546h70v-552zM383 1268q22 0 37 -14.5t15 -36.5t-15 -37t-37 -15
t-36.5 15t-14.5 37t14.5 36.5t36.5 14.5zM797 1268q22 0 37 -14.5t15 -36.5t-15 -37t-37 -15t-36.5 15t-14.5 37t14.5 36.5t36.5 14.5zM306 1560h569v-58h-569v58z" />
    <glyph glyph-name="uni01D7" unicode="&#x1d7;" horiz-adv-x="1500" 
d="M1303 542q0 -138 -43.5 -241.5t-118.5 -172.5t-176 -104t-215 -35q-115 0 -216 35t-176 104t-118.5 172.5t-43.5 241.5v858h75v-853q0 -122 37 -213.5t101.5 -152t152 -90.5t188.5 -30q100 0 187.5 30t152 90.5t101.5 152t37 213.5v853h75v-858zM631 1900l233 300h89
l-251 -300h-71zM543 1684q22 0 37 -14.5t15 -36.5t-15 -37t-37 -15t-36.5 15t-14.5 37t14.5 36.5t36.5 14.5zM957 1684q22 0 37 -14.5t15 -36.5t-15 -37t-37 -15t-36.5 15t-14.5 37t14.5 36.5t36.5 14.5z" />
    <glyph glyph-name="uni01D8" unicode="&#x1d8;" horiz-adv-x="1180" 
d="M1002 381q0 -93 -31.5 -166t-86.5 -123.5t-130.5 -76.5t-163.5 -26t-163.5 26t-130.5 76.5t-86 123.5t-31 166v552h69v-546q0 -78 25 -140t70 -104.5t108 -65t139 -22.5t139 22.5t108 65t70 104.5t25 140v546h70v-552zM383 1268q22 0 37 -14.5t15 -36.5t-15 -37t-37 -15
t-36.5 15t-14.5 37t14.5 36.5t36.5 14.5zM797 1268q22 0 37 -14.5t15 -36.5t-15 -37t-37 -15t-36.5 15t-14.5 37t14.5 36.5t36.5 14.5zM471 1469l233 300h89l-251 -300h-71z" />
    <glyph glyph-name="uni01D9" unicode="&#x1d9;" horiz-adv-x="1500" 
d="M1303 542q0 -138 -43.5 -241.5t-118.5 -172.5t-176 -104t-215 -35q-115 0 -216 35t-176 104t-118.5 172.5t-43.5 241.5v858h75v-853q0 -122 37 -213.5t101.5 -152t152 -90.5t188.5 -30q100 0 187.5 30t152 90.5t101.5 152t37 213.5v853h75v-858zM518 2183l232 -223
l232 223h77l-266 -273h-86l-266 273h77zM543 1684q22 0 37 -14.5t15 -36.5t-15 -37t-37 -15t-36.5 15t-14.5 37t14.5 36.5t36.5 14.5zM957 1684q22 0 37 -14.5t15 -36.5t-15 -37t-37 -15t-36.5 15t-14.5 37t14.5 36.5t36.5 14.5z" />
    <glyph glyph-name="uni01DA" unicode="&#x1da;" horiz-adv-x="1180" 
d="M1002 381q0 -93 -31.5 -166t-86.5 -123.5t-130.5 -76.5t-163.5 -26t-163.5 26t-130.5 76.5t-86 123.5t-31 166v552h69v-546q0 -78 25 -140t70 -104.5t108 -65t139 -22.5t139 22.5t108 65t70 104.5t25 140v546h70v-552zM383 1268q22 0 37 -14.5t15 -36.5t-15 -37t-37 -15
t-36.5 15t-14.5 37t14.5 36.5t36.5 14.5zM797 1268q22 0 37 -14.5t15 -36.5t-15 -37t-37 -15t-36.5 15t-14.5 37t14.5 36.5t36.5 14.5zM358 1752l232 -223l232 223h77l-266 -273h-86l-266 273h77z" />
    <glyph glyph-name="uni01DB" unicode="&#x1db;" horiz-adv-x="1500" 
d="M1303 542q0 -138 -43.5 -241.5t-118.5 -172.5t-176 -104t-215 -35q-115 0 -216 35t-176 104t-118.5 172.5t-43.5 241.5v858h75v-853q0 -122 37 -213.5t101.5 -152t152 -90.5t188.5 -30q100 0 187.5 30t152 90.5t101.5 152t37 213.5v853h75v-858zM543 2200h88l234 -300
h-71zM543 1684q22 0 37 -14.5t15 -36.5t-15 -37t-37 -15t-36.5 15t-14.5 37t14.5 36.5t36.5 14.5zM957 1684q22 0 37 -14.5t15 -36.5t-15 -37t-37 -15t-36.5 15t-14.5 37t14.5 36.5t36.5 14.5z" />
    <glyph glyph-name="uni01DC" unicode="&#x1dc;" horiz-adv-x="1180" 
d="M1002 381q0 -93 -31.5 -166t-86.5 -123.5t-130.5 -76.5t-163.5 -26t-163.5 26t-130.5 76.5t-86 123.5t-31 166v552h69v-546q0 -78 25 -140t70 -104.5t108 -65t139 -22.5t139 22.5t108 65t70 104.5t25 140v546h70v-552zM383 1268q22 0 37 -14.5t15 -36.5t-15 -37t-37 -15
t-36.5 15t-14.5 37t14.5 36.5t36.5 14.5zM797 1268q22 0 37 -14.5t15 -36.5t-15 -37t-37 -15t-36.5 15t-14.5 37t14.5 36.5t36.5 14.5zM383 1769h88l234 -300h-71z" />
    <glyph glyph-name="uni01E2" unicode="&#x1e2;" horiz-adv-x="2240" 
d="M2065 0h-937v422h-680l-323 -422h-90l1073 1400h953v-70h-859v-590h837v-70h-837v-600h863v-70zM1128 493v818l-626 -818h626zM1218 1661h569v-58h-569v58z" />
    <glyph glyph-name="uni01E3" unicode="&#x1e3;" horiz-adv-x="1843" 
d="M1294 944q91 0 170.5 -35t138 -97.5t92.5 -149t36 -189.5v-16q0 -7 -1 -15h-823q4 -89 35 -160.5t83.5 -121.5t122.5 -77.5t152 -27.5q111 0 194.5 42t145.5 108l42 -48q-45 -50 -92.5 -82.5t-96 -51.5t-98.5 -26.5t-99 -7.5q-132 0 -234 57t-162 159q-35 -48 -81 -88
t-101 -68.5t-117.5 -44t-129.5 -15.5q-83 0 -149.5 18.5t-113 52.5t-71 81.5t-24.5 106.5t24.5 107t72.5 81.5t119.5 51.5t166.5 18h340v51q0 87 -24 147.5t-67.5 99t-103.5 56t-133 17.5q-50 0 -93.5 -8.5t-81 -23t-69 -33.5t-58.5 -40l-37 52q66 54 150.5 87t193.5 33
q72 0 134 -15t111 -46.5t82.5 -81.5t48.5 -119q25 59 66.5 107t94 82.5t114.5 53.5t130 19zM1293 878q-79 0 -146.5 -28t-118.5 -77.5t-82.5 -117.5t-38.5 -149h750q-5 81 -34.5 149t-78 117.5t-113 77.5t-138.5 28zM471 55q59 0 116 14.5t109 42t96 67t78 88.5
q-32 78 -37 175h-326q-84 0 -144.5 -13.5t-99.5 -39t-57.5 -61.5t-18.5 -80t20 -79.5t56.5 -60.5t89 -39t118.5 -14zM622 1245h569v-58h-569v58z" />
    <glyph glyph-name="Gcaron" unicode="&#x1e6;" horiz-adv-x="1635" 
d="M841 1411q82 0 159 -17t146 -48.5t129 -77t108 -102.5l-55 -52q-43 52 -97 94t-116 71.5t-131.5 45t-142.5 15.5q-132 0 -247.5 -46t-201 -130t-134.5 -202t-49 -262t49 -262t134.5 -202t200 -130t245.5 -46t237.5 42.5t183 120.5t119.5 188t47 245h-522v70h602v-23
q0 -156 -47 -287t-134 -226t-210.5 -148t-275.5 -53q-95 0 -184 22.5t-167.5 65t-144 104.5t-112.5 141t-73 174t-26 204q0 158 55 289t151 224.5t225.5 145.5t278.5 52zM592 1768l232 -223l232 223h77l-266 -273h-86l-266 273h77z" />
    <glyph glyph-name="gcaron" unicode="&#x1e7;" horiz-adv-x="1238" 
d="M585 944q66 0 124.5 -16t109 -45t91 -70t69.5 -91v211h69v-870q0 -120 -39.5 -208.5t-106 -147t-154 -87.5t-183.5 -29q-121 0 -224 39.5t-171 107.5l35 53q64 -62 156 -99t204 -37q81 0 156 24t132.5 74t91.5 126.5t34 180.5v150q-29 -50 -69.5 -90.5t-91 -69.5
t-109 -45t-124.5 -16q-100 0 -186.5 36t-150 99.5t-99.5 151t-36 190.5t36 190.5t99.5 151.5t150 100t186.5 36zM585 878q-87 0 -161 -31.5t-127 -87t-83 -131t-30 -162.5t30 -162t83.5 -130.5t127 -87t160.5 -31.5t160.5 31.5t127.5 86.5t84.5 130t30.5 163t-30.5 163.5
t-84.5 130.5t-127.5 86.5t-160.5 31.5zM364 1352l232 -223l232 223h77l-266 -273h-86l-266 273h77z" />
    <glyph glyph-name="Aringacute" unicode="&#x1fa;" horiz-adv-x="1386" 
d="M1342 0h-80l-186 433h-768l-186 -433h-78l604 1400h90zM338 504h707l-353 820zM573 1809l233 300h89l-251 -300h-71zM692 1363q-41 0 -77.5 15.5t-63.5 42.5t-43 63t-16 77t16 77t43 63t63.5 43t77.5 16t77 -16t63 -43t43 -63t16 -77t-16 -77t-43 -63t-63 -42.5
t-77 -15.5zM692 1417q30 0 56 11t45.5 30.5t30.5 46t11 56.5t-11 56.5t-30.5 46t-45.5 30.5t-56 11t-56.5 -11t-46 -30.5t-30.5 -46t-11 -56.5t11 -56.5t30.5 -46t46 -30.5t56.5 -11z" />
    <glyph glyph-name="aringacute" unicode="&#x1fb;" horiz-adv-x="1243" 
d="M1053 0h-69v218q-29 -51 -69.5 -93.5t-91.5 -72.5t-110.5 -46.5t-126.5 -16.5q-101 0 -187 36t-150 99.5t-100 151t-36 190.5t36 190.5t100 151.5t150 100t187 36q67 0 126.5 -16.5t110.5 -46.5t91.5 -72.5t69.5 -94.5v219h69v-933zM586 878q-87 0 -161 -31.5t-127.5 -87
t-83.5 -131t-30 -162.5t30 -162t84 -130.5t127.5 -87t160.5 -31.5t160.5 31.5t127 86.5t84 130t30.5 163t-30.5 163.5t-84 130.5t-127 86.5t-160.5 31.5zM570 1033q-41 0 -77.5 15.5t-63.5 42.5t-43 63t-16 77t16 77t43 63t63.5 43t77.5 16t77 -16t63 -43t43 -63t16 -77
t-16 -77t-43 -63t-63 -42.5t-77 -15.5zM570 1087q30 0 56 11t45.5 30.5t30.5 46t11 56.5t-11 56.5t-30.5 46t-45.5 30.5t-56 11t-56.5 -11t-46 -30.5t-30.5 -46t-11 -56.5t11 -56.5t30.5 -46t46 -30.5t56.5 -11zM451 1491l233 300h89l-251 -300h-71z" />
    <glyph glyph-name="AEacute" unicode="&#x1fc;" horiz-adv-x="2240" 
d="M2065 0h-937v422h-680l-323 -422h-90l1073 1400h953v-70h-859v-590h837v-70h-837v-600h863v-70zM1128 493v818l-626 -818h626zM1383 1485l233 300h89l-251 -300h-71z" />
    <glyph glyph-name="aeacute" unicode="&#x1fd;" horiz-adv-x="1843" 
d="M1294 944q91 0 170.5 -35t138 -97.5t92.5 -149t36 -189.5v-16q0 -7 -1 -15h-823q4 -89 35 -160.5t83.5 -121.5t122.5 -77.5t152 -27.5q111 0 194.5 42t145.5 108l42 -48q-45 -50 -92.5 -82.5t-96 -51.5t-98.5 -26.5t-99 -7.5q-132 0 -234 57t-162 159q-35 -48 -81 -88
t-101 -68.5t-117.5 -44t-129.5 -15.5q-83 0 -149.5 18.5t-113 52.5t-71 81.5t-24.5 106.5t24.5 107t72.5 81.5t119.5 51.5t166.5 18h340v51q0 87 -24 147.5t-67.5 99t-103.5 56t-133 17.5q-50 0 -93.5 -8.5t-81 -23t-69 -33.5t-58.5 -40l-37 52q66 54 150.5 87t193.5 33
q72 0 134 -15t111 -46.5t82.5 -81.5t48.5 -119q25 59 66.5 107t94 82.5t114.5 53.5t130 19zM1293 878q-79 0 -146.5 -28t-118.5 -77.5t-82.5 -117.5t-38.5 -149h750q-5 81 -34.5 149t-78 117.5t-113 77.5t-138.5 28zM471 55q59 0 116 14.5t109 42t96 67t78 88.5
q-32 78 -37 175h-326q-84 0 -144.5 -13.5t-99.5 -39t-57.5 -61.5t-18.5 -80t20 -79.5t56.5 -60.5t89 -39t118.5 -14zM803 1069l233 300h89l-251 -300h-71z" />
    <glyph glyph-name="Oslashacute" unicode="&#x1fe;" horiz-adv-x="1681" 
d="M841 1411q142 0 265 -46.5t218 -131.5l177 177l50 -49l-177 -177q83 -93 130 -215t47 -269q0 -158 -55 -289t-150.5 -225t-225 -145.5t-279.5 -51.5q-143 0 -266 46.5t-218 131.5l-177 -177l-50 49l177 177q-83 93 -129.5 215t-46.5 269q0 106 25 199.5t70.5 172.5
t110 142t143 106.5t170 67t191.5 23.5zM1473 700q0 131 -40.5 239.5t-112.5 190.5l-910 -910q85 -77 194.5 -118.5t236.5 -41.5q88 0 169 21t151.5 60t127.5 95.5t98 127.5t63.5 155.5t22.5 180.5zM841 1340q-132 0 -247.5 -46t-201 -130t-134.5 -202t-49 -262
q0 -131 40 -239.5t112 -190.5l910 910q-85 77 -194.5 118.5t-235.5 41.5zM722 1485l233 300h89l-251 -300h-71z" />
    <glyph glyph-name="oslashacute" unicode="&#x1ff;" horiz-adv-x="1178" 
d="M588 944q94 0 175 -31t144 -86l123 123l44 -42l-124 -124q55 -63 85.5 -143.5t30.5 -174.5q0 -102 -36.5 -189.5t-100.5 -151t-151.5 -100t-189.5 -36.5q-94 0 -174 30.5t-143 85.5l-123 -123l-43 43l123 123q-54 63 -84.5 143.5t-30.5 174.5q0 102 36 189.5t100 151.5
t151 100.5t188 36.5zM588 878q-86 0 -160 -31t-128 -86t-85 -130.5t-31 -164.5q0 -79 24 -147t69 -122l582 582q-54 47 -123 73t-148 26zM995 466q0 79 -24.5 147t-69.5 122l-582 -582q54 -47 122 -72.5t147 -25.5q87 0 161 31t129 86t86 130t31 164zM485 1069l233 300h89
l-251 -300h-71z" />
    <glyph glyph-name="Scommaaccent" unicode="&#x218;" horiz-adv-x="1340" 
d="M1128 1195q-39 29 -87.5 55t-105.5 46t-124 32t-143 12q-91 0 -168.5 -21t-134.5 -61t-89 -98t-32 -132q0 -56 20 -102.5t63.5 -82.5t113.5 -60.5t169 -34.5l179 -19q97 -11 175 -35.5t132.5 -66t83.5 -102t29 -142.5q0 -100 -43 -174t-117 -123t-173.5 -73t-212.5 -24
q-82 0 -159 14.5t-145.5 38t-126.5 54t-101 63.5l41 59q37 -28 89.5 -56.5t115.5 -51t135.5 -36.5t150.5 -14q98 0 183.5 19t149 58.5t100 99t36.5 140.5q0 64 -23.5 112.5t-70 82.5t-116.5 55t-162 31l-183 19q-209 22 -309.5 111.5t-100.5 235.5q0 93 39 165t106.5 121.5
t159 75t197.5 25.5q84 0 156.5 -12.5t134 -34t113 -50t93.5 -59.5zM763 -89l-61 -327h-62l48 327h75z" />
    <glyph glyph-name="scommaaccent" unicode="&#x219;" horiz-adv-x="961" 
d="M808 780q-25 18 -60 36t-77.5 32t-91 22.5t-100.5 8.5q-61 0 -113 -13t-90 -38t-59.5 -61t-21.5 -82q0 -35 13.5 -64.5t42.5 -51.5t74.5 -37t110.5 -22l131 -14q143 -15 221 -73.5t78 -165.5q0 -66 -29.5 -116t-81.5 -84t-124.5 -51t-157.5 -17q-116 0 -211 32t-167 86
l35 55q29 -23 63 -42.5t76 -34t92.5 -23t112.5 -8.5q69 0 127.5 12t101.5 36.5t67.5 62t24.5 88.5q0 154 -242 178l-132 13q-80 8 -136.5 29t-92.5 52t-52.5 70.5t-16.5 86.5q0 62 26.5 110.5t73.5 82t112.5 51t142.5 17.5q56 0 108.5 -8.5t99 -23t86 -34t69.5 -41.5z
M541 -89l-61 -327h-62l48 327h75z" />
    <glyph glyph-name="uni021A" unicode="&#x21a;" horiz-adv-x="1218" 
d="M1174 1329h-528v-1329h-74v1329h-528v71h1130v-71zM670 -89l-61 -327h-62l48 327h75z" />
    <glyph glyph-name="uni021B" unicode="&#x21b;" horiz-adv-x="903" 
d="M819 869h-463v-557q0 -131 63.5 -194t170.5 -63q68 0 125 21t99 58l35 -51q-48 -43 -114 -68.5t-150 -25.5q-140 0 -219.5 80t-79.5 242v558h-229v64h229v315h70v-315h463v-64zM613 -89l-61 -327h-62l48 327h75z" />
    <glyph glyph-name="uni0232" unicode="&#x232;" horiz-adv-x="1232" 
d="M654 619v-619h-74v619l-567 781h90l514 -710l515 710h87zM334 1661h569v-58h-569v58z" />
    <glyph glyph-name="uni0233" unicode="&#x233;" horiz-adv-x="996" 
d="M187 -402h-78l369 618l-451 717h79l411 -648l383 648h77zM219 1245h569v-58h-569v58z" />
    <glyph glyph-name="uni0237" unicode="&#x237;" horiz-adv-x="451" 
d="M261 -206q0 -99 -44.5 -151t-131.5 -52q-36 0 -68.5 10t-55.5 24l19 60q19 -12 44.5 -20t54.5 -8q113 0 113 140v1136h69v-1139z" />
    <glyph glyph-name="uni0259" unicode="&#x259;" horiz-adv-x="1123" 
d="M549 -11q-92 0 -171 35t-137.5 97.5t-92.5 149t-36 189.5v15q0 7 1 16h824q-4 88 -35.5 160t-84 122t-123.5 77.5t-153 27.5q-113 0 -195 -42t-147 -111l-38 51q45 50 92.5 82.5t95.5 51.5t97 26.5t99 7.5q101 0 186.5 -35t147.5 -98.5t96.5 -151t34.5 -192.5
q0 -104 -35.5 -191.5t-98 -151.5t-146.5 -99.5t-181 -35.5zM550 55q79 0 146.5 28t119 77.5t83 117.5t38.5 149h-751q5 -81 34.5 -149.5t78.5 -118t113 -77t138 -27.5z" />
    <glyph glyph-name="uni02BB" unicode="&#x2bb;" horiz-adv-x="480" 
d="M171 984l85 456h61l-66 -456h-80z" />
    <glyph glyph-name="afii57929" unicode="&#x2bc;" horiz-adv-x="480" 
d="M309 1440l-85 -456h-61l66 456h80z" />
    <glyph glyph-name="uni02BE" unicode="&#x2be;" horiz-adv-x="522" 
d="M154 879q51 0 96.5 19.5t79 54t53 80t19.5 98.5t-19.5 99t-53 80.5t-79 54t-96.5 19.5v64q65 0 122.5 -25t100.5 -67.5t68 -100.5t25 -124q0 -65 -25 -122.5t-68 -100.5t-100.5 -68t-122.5 -25v64z" />
    <glyph glyph-name="uni02BF" unicode="&#x2bf;" horiz-adv-x="522" 
d="M368 1384q-51 0 -96.5 -19.5t-79 -54t-53 -80.5t-19.5 -98q0 -53 19.5 -99t53 -80.5t79 -54t96.5 -19.5v-64q-65 0 -122.5 25t-100.5 67.5t-68 100.5t-25 124q0 65 25 122.5t68 100.5t100.5 68t122.5 25v-64z" />
    <glyph glyph-name="circumflex" unicode="&#x2c6;" horiz-adv-x="860" 
d="M662 1083l-232 223l-232 -223h-77l266 273h87l265 -273h-77z" />
    <glyph glyph-name="caron" unicode="&#x2c7;" horiz-adv-x="860" 
d="M198 1352l232 -223l232 223h77l-266 -273h-87l-265 273h77z" />
    <glyph glyph-name="breve" unicode="&#x2d8;" horiz-adv-x="860" 
d="M182 1360q27 -106 91 -160t157 -54t157 54t91 160l57 -17q-32 -125 -111.5 -191t-193.5 -66t-193.5 66t-111.5 191z" />
    <glyph glyph-name="dotaccent" unicode="&#x2d9;" horiz-adv-x="483" 
d="M241 1327q22 0 37 -15t15 -37t-15 -36.5t-37 -14.5t-36.5 14.5t-14.5 36.5t14.5 37t36.5 15z" />
    <glyph glyph-name="ring" unicode="&#x2da;" horiz-adv-x="860" 
d="M430 1058q-41 0 -77.5 15.5t-63.5 42.5t-43 63t-16 77t16 77t43 63t63.5 43t77.5 16t77.5 -16t63.5 -43t43 -63t16 -77t-16 -77t-43 -63t-63.5 -42.5t-77.5 -15.5zM430 1112q30 0 56 11t45.5 30.5t30.5 46t11 56.5t-11 56.5t-30.5 46t-45.5 30.5t-56 11t-56 -11
t-45.5 -30.5t-30.5 -46t-11 -56.5t11 -56.5t30.5 -46t45.5 -30.5t56 -11z" />
    <glyph glyph-name="ogonek" unicode="&#x2db;" horiz-adv-x="1062" 
d="M875 -323q-42 -42 -95.5 -64t-113.5 -22q-49 0 -89.5 14t-69.5 39t-45 60t-16 78q0 50 21.5 90t59 73.5t88.5 63t109 59.5l32 -41q-54 -27 -99 -53t-77 -54.5t-50 -60.5t-18 -71q0 -62 43.5 -99.5t114.5 -37.5q97 0 166 71z" />
    <glyph glyph-name="tilde" unicode="&#x2dc;" horiz-adv-x="860" 
d="M104 1195q38 54 82.5 81.5t109.5 27.5q50 0 82.5 -14.5t60 -32.5t55.5 -32.5t69 -14.5q48 0 82.5 22t66.5 66l43 -40q-38 -54 -82.5 -81.5t-109.5 -27.5q-50 0 -82.5 15t-59.5 32.5t-55.5 32.5t-69.5 15q-48 0 -82.5 -22t-66.5 -67z" />
    <glyph glyph-name="hungarumlaut" unicode="&#x2dd;" horiz-adv-x="860" 
d="M448 1069l233 300h89l-251 -300h-71zM91 1069l233 300h89l-251 -300h-71z" />
    <glyph glyph-name="gravecomb" unicode="&#x300;" horiz-adv-x="1" 
d="M-819 1369h88l234 -300h-71z" />
    <glyph glyph-name="acutecomb" unicode="&#x301;" horiz-adv-x="1" 
d="M-692 1069l233 300h89l-251 -300h-71z" />
    <glyph glyph-name="uni0302" unicode="&#x302;" horiz-adv-x="1" 
d="M-357 1083l-232 224l-232 -224h-77l266 273h86l266 -273h-77z" />
    <glyph glyph-name="tildecomb" unicode="&#x303;" horiz-adv-x="1" 
d="M-900 1195q38 54 82.5 81.5t109.5 27.5q50 0 82.5 -14.5t60 -32.5t55.5 -32.5t69 -14.5q48 0 82.5 22t66.5 66l43 -40q-38 -54 -82.5 -81.5t-109.5 -27.5q-50 0 -82.5 15t-59.5 32.5t-55.5 32.5t-69.5 15q-48 0 -82.5 -22t-66.5 -67z" />
    <glyph glyph-name="uni0304" unicode="&#x304;" horiz-adv-x="1" 
d="M-873 1245h569v-58h-569v58z" />
    <glyph glyph-name="uni0306" unicode="&#x306;" horiz-adv-x="1" 
d="M-837 1360q27 -106 91 -160t157 -54t157 54t91 160l57 -17q-32 -126 -111.5 -191.5t-193.5 -65.5t-193.5 65.5t-111.5 191.5z" />
    <glyph glyph-name="uni0307" unicode="&#x307;" horiz-adv-x="1" 
d="M-589 1327q22 0 37 -15t15 -37t-15 -36.5t-37 -14.5t-36.5 14.5t-14.5 36.5t14.5 37t36.5 15z" />
    <glyph glyph-name="uni0308" unicode="&#x308;" horiz-adv-x="1" 
d="M-796 1268q22 0 37 -14.5t15 -36.5t-15 -37t-37 -15t-36.5 15t-14.5 37t14.5 36.5t36.5 14.5zM-382 1268q22 0 37 -14.5t15 -36.5t-15 -37t-37 -15t-36.5 15t-14.5 37t14.5 36.5t36.5 14.5z" />
    <glyph glyph-name="uni030A" unicode="&#x30a;" horiz-adv-x="1" 
d="M-589 1058q-41 0 -77.5 15.5t-63.5 42.5t-43 63t-16 77t16 77t43 63t63.5 43t77.5 16t77 -16t63 -43t43 -63t16 -77t-16 -77t-43 -63t-63 -42.5t-77 -15.5zM-589 1112q30 0 56 11t45.5 30.5t30.5 46t11 56.5t-11 56.5t-30.5 46t-45.5 30.5t-56 11t-56.5 -11t-46 -30.5
t-30.5 -46t-11 -56.5t11 -56.5t30.5 -46t46 -30.5t56.5 -11z" />
    <glyph glyph-name="uni030B" unicode="&#x30b;" horiz-adv-x="1" 
d="M-475 1069l236 300h82l-246 -300h-72zM-816 1069l229 300h80l-237 -300h-72z" />
    <glyph glyph-name="uni030C" unicode="&#x30c;" horiz-adv-x="1" 
d="M-821 1352l232 -223l232 223h77l-266 -273h-86l-266 273h77z" />
    <glyph glyph-name="uni0312" unicode="&#x312;" horiz-adv-x="1" 
d="M-636 1069l61 328h62l-47 -328h-76z" />
    <glyph glyph-name="dotbelowcomb" unicode="&#x323;" horiz-adv-x="1" 
d="M-588 -205q22 0 37 -15t15 -37t-15 -36.5t-37 -14.5t-36.5 14.5t-14.5 36.5t14.5 37t36.5 15z" />
    <glyph glyph-name="uni0326" unicode="&#x326;" horiz-adv-x="1" 
d="M-530 -89l-61 -327h-62l48 327h75z" />
    <glyph glyph-name="uni0327" unicode="&#x327;" horiz-adv-x="1" 
d="M-603 -325h-73l107 330l69 -2z" />
    <glyph glyph-name="uni0328" unicode="&#x328;" horiz-adv-x="1" 
d="M-372 -323q-42 -42 -95.5 -64t-113.5 -22q-49 0 -90 14.5t-70 40.5t-45.5 61.5t-16.5 78.5q0 54 21.5 97t59.5 78.5t89.5 66.5t111.5 63l31 -38q-53 -30 -97.5 -58.5t-77.5 -59.5t-51.5 -65.5t-18.5 -77.5q0 -64 44 -102.5t115 -38.5q47 0 89 18t76 53z" />
    <glyph glyph-name="uni032E" unicode="&#x32e;" horiz-adv-x="1" 
d="M-836 -124q27 -106 91 -160t157 -54t157 54t91 160l57 -17q-32 -126 -111.5 -191.5t-193.5 -65.5t-193.5 65.5t-111.5 191.5z" />
    <glyph glyph-name="uni0331" unicode="&#x331;" horiz-adv-x="1" 
d="M-872 -231h569v-58h-569v58z" />
    <glyph glyph-name="uni0335" unicode="&#x335;" horiz-adv-x="1" 
d="M-238 492h-702v64h702v-64z" />
    <glyph glyph-name="uni0336" unicode="&#x336;" horiz-adv-x="1" 
d="M158 492h-1493v64h1493v-64z" />
    <glyph glyph-name="uni0394" unicode="&#x394;" horiz-adv-x="1429" 
d="M1341 58v-58h-1254v58l583 1346h88zM171 71h1085l-542 1253z" />
    <glyph glyph-name="uni03A9" unicode="&#x3a9;" horiz-adv-x="1717" 
d="M526 71q-84 39 -153.5 99.5t-119.5 139.5t-77.5 174.5t-27.5 204.5q0 160 55 293t151 228.5t225.5 148t278.5 52.5q150 0 279.5 -52.5t225 -148t150.5 -228.5t55 -293q0 -109 -27.5 -204.5t-77.5 -174.5t-119.5 -139.5t-153.5 -99.5h439v-71h-570v60q94 30 173.5 87.5
t136.5 137.5t89 181.5t32 219.5q0 147 -49 267.5t-134.5 206.5t-201 133t-247.5 47t-247.5 -47t-201 -133t-134.5 -206.5t-49 -267.5q0 -118 32 -219.5t89.5 -181.5t136.5 -137.5t174 -87.5v-60h-571v71h439z" />
    <glyph glyph-name="uni03BC" unicode="&#x3bc;" horiz-adv-x="1193" 
d="M179 -400v1333h69v-547q0 -74 22 -135t65.5 -104.5t107.5 -67.5t148 -24q76 0 139 26t108 71.5t70 107.5t25 133v540h70v-933h-69v179q-25 -42 -60 -77t-79 -60t-97 -39t-113 -14q-115 0 -200.5 40t-136.5 115v-544h-69z" />
    <glyph glyph-name="pi" unicode="&#x3c0;" horiz-adv-x="1192" 
d="M1014 0h-70v869h-684v-869h-70v933h824v-933z" />
    <glyph glyph-name="uni1E0C" unicode="&#x1e0c;" horiz-adv-x="1609" 
d="M707 1400q180 0 323.5 -48.5t243 -139t152.5 -220t53 -292.5t-53 -292.5t-152.5 -220t-243 -139t-323.5 -48.5h-489v1400h489zM292 1329v-1258h415q167 0 296.5 43.5t218 125.5t134.5 198t46 262t-46 262.5t-134.5 198t-218 125t-296.5 43.5h-415zM752 -204q22 0 37 -15
t15 -37t-15 -36.5t-37 -14.5t-36.5 14.5t-14.5 36.5t14.5 37t36.5 15z" />
    <glyph glyph-name="uni1E0D" unicode="&#x1e0d;" horiz-adv-x="1243" 
d="M586 944q67 0 126.5 -16.5t110.5 -46.5t91.5 -72.5t69.5 -94.5v726h69v-1440h-69v218q-29 -51 -69.5 -93.5t-91.5 -72.5t-110.5 -46.5t-126.5 -16.5q-101 0 -187 36t-150 99.5t-100 151t-36 190.5t36 190.5t100 151.5t150 100t187 36zM586 878q-87 0 -161 -31.5
t-127.5 -87t-83.5 -131t-30 -162.5t30 -162t84 -130.5t127.5 -87t160.5 -31.5t160.5 31.5t127 86.5t84 130t30.5 163t-30.5 163.5t-84 130.5t-127 86.5t-160.5 31.5zM604 -204q22 0 37 -15t15 -37t-15 -36.5t-37 -14.5t-36.5 14.5t-14.5 36.5t14.5 37t36.5 15z" />
    <glyph glyph-name="uni1E0E" unicode="&#x1e0e;" horiz-adv-x="1609" 
d="M707 1400q180 0 323.5 -48.5t243 -139t152.5 -220t53 -292.5t-53 -292.5t-152.5 -220t-243 -139t-323.5 -48.5h-489v1400h489zM292 1329v-1258h415q167 0 296.5 43.5t218 125.5t134.5 198t46 262t-46 262.5t-134.5 198t-218 125t-296.5 43.5h-415zM468 -231h569v-58h-569
v58z" />
    <glyph glyph-name="uni1E0F" unicode="&#x1e0f;" horiz-adv-x="1243" 
d="M586 944q67 0 126.5 -16.5t110.5 -46.5t91.5 -72.5t69.5 -94.5v726h69v-1440h-69v218q-29 -51 -69.5 -93.5t-91.5 -72.5t-110.5 -46.5t-126.5 -16.5q-101 0 -187 36t-150 99.5t-100 151t-36 190.5t36 190.5t100 151.5t150 100t187 36zM586 878q-87 0 -161 -31.5
t-127.5 -87t-83.5 -131t-30 -162.5t30 -162t84 -130.5t127.5 -87t160.5 -31.5t160.5 31.5t127 86.5t84 130t30.5 163t-30.5 163.5t-84 130.5t-127 86.5t-160.5 31.5zM319 -231h569v-58h-569v58z" />
    <glyph glyph-name="uni1E24" unicode="&#x1e24;" horiz-adv-x="1554" 
d="M292 740h968v660h75v-1400h-75v670h-968v-670h-74v1400h74v-660zM776 -204q22 0 37 -15t15 -37t-15 -36.5t-37 -14.5t-36.5 14.5t-14.5 36.5t14.5 37t36.5 15z" />
    <glyph glyph-name="uni1E25" unicode="&#x1e25;" horiz-adv-x="1192" 
d="M260 755q25 42 60 77t79 59.5t96.5 38.5t112.5 14q94 0 169.5 -28t128 -79.5t80.5 -125t28 -164.5v-547h-69v547q0 74 -22 135t-65.5 104.5t-107.5 67.5t-148 24q-76 0 -139 -26t-108 -71.5t-70 -107.5t-25 -133v-540h-70v1440h70v-685zM603 -204q22 0 37 -15t15 -37
t-15 -36.5t-37 -14.5t-36.5 14.5t-14.5 36.5t14.5 37t36.5 15z" />
    <glyph glyph-name="uni1E28" unicode="&#x1e28;" horiz-adv-x="1554" 
d="M292 740h968v660h75v-1400h-75v670h-968v-670h-74v1400h74v-660zM188 -325h-76l107 330l72 -2z" />
    <glyph glyph-name="uni1E29" unicode="&#x1e29;" horiz-adv-x="1192" 
d="M260 755q25 42 60 77t79 59.5t96.5 38.5t112.5 14q94 0 169.5 -28t128 -79.5t80.5 -125t28 -164.5v-547h-69v547q0 74 -22 135t-65.5 104.5t-107.5 67.5t-148 24q-76 0 -139 -26t-108 -71.5t-70 -107.5t-25 -133v-540h-70v1440h70v-685zM156 -325h-73l107 330l69 -2z" />
    <glyph glyph-name="uni1E2A" unicode="&#x1e2a;" horiz-adv-x="1554" 
d="M292 740h968v660h75v-1400h-75v670h-968v-670h-74v1400h74v-660zM528 -124q27 -106 91 -160t157 -54t157 54t91 160l57 -17q-32 -126 -111.5 -191.5t-193.5 -65.5t-193.5 65.5t-111.5 191.5z" />
    <glyph glyph-name="uni1E2B" unicode="&#x1e2b;" horiz-adv-x="1192" 
d="M260 755q25 42 60 77t79 59.5t96.5 38.5t112.5 14q94 0 169.5 -28t128 -79.5t80.5 -125t28 -164.5v-547h-69v547q0 74 -22 135t-65.5 104.5t-107.5 67.5t-148 24q-76 0 -139 -26t-108 -71.5t-70 -107.5t-25 -133v-540h-70v1440h70v-685zM354 -124q27 -106 91 -160
t157 -54t157 54t91 160l57 -17q-32 -126 -111.5 -191.5t-193.5 -65.5t-193.5 65.5t-111.5 191.5z" />
    <glyph glyph-name="uni1E32" unicode="&#x1e32;" horiz-adv-x="1340" 
d="M498 669h-206v-669h-74v1400h74v-661h207l658 661h97l-696 -692l738 -708h-102zM668 -204q22 0 37 -15t15 -37t-15 -36.5t-37 -14.5t-36.5 14.5t-14.5 36.5t14.5 37t36.5 15z" />
    <glyph glyph-name="uni1E33" unicode="&#x1e33;" horiz-adv-x="1023" 
d="M260 522h173l435 411h89l-470 -441l480 -492h-89l-446 458h-172v-458h-70v1440h70v-918zM547 -204q22 0 37 -15t15 -37t-15 -36.5t-37 -14.5t-36.5 14.5t-14.5 36.5t14.5 37t36.5 15z" />
    <glyph glyph-name="uni1E36" unicode="&#x1e36;" horiz-adv-x="1193" 
d="M1149 0h-931v1400h74v-1329h857v-71zM668 -204q22 0 37 -15t15 -37t-15 -36.5t-37 -14.5t-36.5 14.5t-14.5 36.5t14.5 37t36.5 15z" />
    <glyph glyph-name="uni1E37" unicode="&#x1e37;" horiz-adv-x="450" 
d="M260 0h-70v1440h70v-1440zM226 -204q22 0 37 -15t15 -37t-15 -36.5t-37 -14.5t-36.5 14.5t-14.5 36.5t14.5 37t36.5 15z" />
    <glyph glyph-name="uni1E38" unicode="&#x1e38;" horiz-adv-x="1193" 
d="M1149 0h-931v1400h74v-1329h857v-71zM668 -204q22 0 37 -15t15 -37t-15 -36.5t-37 -14.5t-36.5 14.5t-14.5 36.5t14.5 37t36.5 15zM-29 1661h569v-58h-569v58z" />
    <glyph glyph-name="uni1E39" unicode="&#x1e39;" horiz-adv-x="450" 
d="M260 0h-70v1440h70v-1440zM-82 1671h569v-58h-569v58zM226 -204q22 0 37 -15t15 -37t-15 -36.5t-37 -14.5t-36.5 14.5t-14.5 36.5t14.5 37t36.5 15z" />
    <glyph glyph-name="uni1E3A" unicode="&#x1e3a;" horiz-adv-x="1193" 
d="M1149 0h-931v1400h74v-1329h857v-71zM384 -231h569v-58h-569v58z" />
    <glyph glyph-name="uni1E3B" unicode="&#x1e3b;" horiz-adv-x="450" 
d="M260 0h-70v1440h70v-1440zM-59 -231h569v-58h-569v58z" />
    <glyph glyph-name="uni1E40" unicode="&#x1e40;" horiz-adv-x="1847" 
d="M1628 0h-75v1309l-591 -1129h-78l-592 1126v-1306h-74v1400h109l596 -1133l596 1133h109v-1400zM917.229 1686.76q22.3271 0 37.5508 -15.2236t15.2236 -37.5508q0 -22.3281 -15.2236 -37.0439t-37.5508 -14.7158q-22.3281 0 -37.0439 14.7158t-14.7158 37.0439
q0 22.3271 14.7158 37.5508t37.0439 15.2236z" />
    <glyph glyph-name="uni1E41" unicode="&#x1e41;" horiz-adv-x="1947" 
d="M1357 944q96 0 172.5 -28t129.5 -79.5t81.5 -125t28.5 -164.5v-547h-70v547q0 74 -22 135t-65.5 104.5t-107.5 67.5t-147 24q-76 0 -139 -26t-108.5 -71.5t-70.5 -107.5t-25 -133v-540h-69v547q0 74 -22 135t-65.5 104.5t-107.5 67.5t-148 24q-76 0 -139 -26t-108 -71.5
t-70 -107.5t-25 -133v-540h-70v933h69v-179q25 42 60 77t79 60t97 39t113 14q141 0 237.5 -60.5t138.5 -169.5q23 51 59.5 93.5t84 73t105.5 47t124 16.5zM979 1352q22 0 37 -15t15 -37t-15 -36.5t-37 -14.5t-36.5 14.5t-14.5 36.5t14.5 37t36.5 15z" />
    <glyph glyph-name="uni1E42" unicode="&#x1e42;" horiz-adv-x="1847" 
d="M1628 0h-75v1309l-591 -1129h-78l-592 1126v-1306h-74v1400h109l596 -1133l596 1133h109v-1400zM923 -204q22 0 37 -15t15 -37t-15 -36.5t-37 -14.5t-36.5 14.5t-14.5 36.5t14.5 37t36.5 15z" />
    <glyph glyph-name="uni1E43" unicode="&#x1e43;" horiz-adv-x="1947" 
d="M1357 944q96 0 172.5 -28t129.5 -79.5t81.5 -125t28.5 -164.5v-547h-70v547q0 74 -22 135t-65.5 104.5t-107.5 67.5t-147 24q-76 0 -139 -26t-108.5 -71.5t-70.5 -107.5t-25 -133v-540h-69v547q0 74 -22 135t-65.5 104.5t-107.5 67.5t-148 24q-76 0 -139 -26t-108 -71.5
t-70 -107.5t-25 -133v-540h-70v933h69v-179q25 42 60 77t79 60t97 39t113 14q141 0 237.5 -60.5t138.5 -169.5q23 51 59.5 93.5t84 73t105.5 47t124 16.5zM980 -204q22 0 37 -15t15 -37t-15 -36.5t-37 -14.5t-36.5 14.5t-14.5 36.5t14.5 37t36.5 15z" />
    <glyph glyph-name="uni1E44" unicode="&#x1e44;" horiz-adv-x="1558" 
d="M1339 0h-67l-979 1271l-1 -1271h-74v1400h67l979 -1271v1271h75v-1400zM772.229 1686.76q22.3271 0 37.5508 -15.2236t15.2236 -37.5508q0 -22.3281 -15.2236 -37.0439t-37.5508 -14.7158q-22.3281 0 -37.0439 14.7158t-14.7158 37.0439q0 22.3271 14.7158 37.5508
t37.0439 15.2236z" />
    <glyph glyph-name="uni1E45" unicode="&#x1e45;" horiz-adv-x="1192" 
d="M608 944q94 0 169.5 -28t128 -79.5t80.5 -125t28 -164.5v-547h-69v547q0 74 -22 135t-65.5 104.5t-107.5 67.5t-148 24q-76 0 -139 -26t-108 -71.5t-70 -107.5t-25 -133v-540h-70v933h69v-179q25 42 60 77t79 60t97 39t113 14zM610 1327q22 0 37 -15t15 -37t-15 -36.5
t-37 -14.5t-36.5 14.5t-14.5 36.5t14.5 37t36.5 15z" />
    <glyph glyph-name="uni1E46" unicode="&#x1e46;" horiz-adv-x="1558" 
d="M1339 0h-67l-979 1271l-1 -1271h-74v1400h67l979 -1271v1271h75v-1400zM776 -204q22 0 37 -15t15 -37t-15 -36.5t-37 -14.5t-36.5 14.5t-14.5 36.5t14.5 37t36.5 15z" />
    <glyph glyph-name="uni1E47" unicode="&#x1e47;" horiz-adv-x="1192" 
d="M608 944q94 0 169.5 -28t128 -79.5t80.5 -125t28 -164.5v-547h-69v547q0 74 -22 135t-65.5 104.5t-107.5 67.5t-148 24q-76 0 -139 -26t-108 -71.5t-70 -107.5t-25 -133v-540h-70v933h69v-179q25 42 60 77t79 60t97 39t113 14zM600 -204q22 0 37 -15t15 -37t-15 -36.5
t-37 -14.5t-36.5 14.5t-14.5 36.5t14.5 37t36.5 15z" />
    <glyph glyph-name="uni1E48" unicode="&#x1e48;" horiz-adv-x="1558" 
d="M1339 0h-67l-979 1271l-1 -1271h-74v1400h67l979 -1271v1271h75v-1400zM492 -231h569v-58h-569v58z" />
    <glyph glyph-name="uni1E49" unicode="&#x1e49;" horiz-adv-x="1192" 
d="M608 944q94 0 169.5 -28t128 -79.5t80.5 -125t28 -164.5v-547h-69v547q0 74 -22 135t-65.5 104.5t-107.5 67.5t-148 24q-76 0 -139 -26t-108 -71.5t-70 -107.5t-25 -133v-540h-70v933h69v-179q25 42 60 77t79 60t97 39t113 14zM315 -231h569v-58h-569v58z" />
    <glyph glyph-name="uni1E58" unicode="&#x1e58;" horiz-adv-x="1327" 
d="M732 1400q114 0 203 -25.5t150 -74.5t93 -120t32 -162q0 -90 -33 -161t-94.5 -120.5t-150 -75.5t-199.5 -26h-94l563 -635h-93l-558 635h-259v-635h-74v1400h514zM292 1330v-627h442q192 0 295.5 81.5t103.5 233.5q0 75 -26.5 133t-77.5 98t-125.5 60.5t-169.5 20.5h-442
zM651.229 1686.76q22.3271 0 37.5508 -15.2236t15.2236 -37.5508q0 -22.3281 -15.2236 -37.0439t-37.5508 -14.7158q-22.3281 0 -37.0439 14.7158t-14.7158 37.0439q0 22.3271 14.7158 37.5508t37.0439 15.2236z" />
    <glyph glyph-name="uni1E59" unicode="&#x1e59;" horiz-adv-x="793" 
d="M556 944q49 0 95.5 -10t84.5 -30l-19 -64q-35 20 -78.5 29.5t-88.5 9.5q-68 0 -121.5 -27t-91.5 -73.5t-58 -109t-20 -133.5v-536h-69v933h69v-164q44 78 118 126.5t179 48.5zM456 1327q22 0 37 -15t15 -37t-15 -36.5t-37 -14.5t-36.5 14.5t-14.5 36.5t14.5 37t36.5 15z
" />
    <glyph glyph-name="uni1E5A" unicode="&#x1e5a;" horiz-adv-x="1327" 
d="M732 1400q114 0 203 -25.5t150 -74.5t93 -120t32 -162q0 -90 -33 -161t-94.5 -120.5t-150 -75.5t-199.5 -26h-94l563 -635h-93l-558 635h-259v-635h-74v1400h514zM292 1330v-627h442q192 0 295.5 81.5t103.5 233.5q0 75 -26.5 133t-77.5 98t-125.5 60.5t-169.5 20.5h-442
zM652 -204q22 0 37 -15t15 -37t-15 -36.5t-37 -14.5t-36.5 14.5t-14.5 36.5t14.5 37t36.5 15z" />
    <glyph glyph-name="uni1E5B" unicode="&#x1e5b;" horiz-adv-x="793" 
d="M556 944q49 0 95.5 -10t84.5 -30l-19 -64q-35 20 -78.5 29.5t-88.5 9.5q-68 0 -121.5 -27t-91.5 -73.5t-58 -109t-20 -133.5v-536h-69v933h69v-164q44 78 118 126.5t179 48.5zM226 -204q22 0 37 -15t15 -37t-15 -36.5t-37 -14.5t-36.5 14.5t-14.5 36.5t14.5 37t36.5 15z
" />
    <glyph glyph-name="uni1E5C" unicode="&#x1e5c;" horiz-adv-x="1327" 
d="M732 1400q114 0 203 -25.5t150 -74.5t93 -120t32 -162q0 -90 -33 -161t-94.5 -120.5t-150 -75.5t-199.5 -26h-94l563 -635h-93l-558 635h-259v-635h-74v1400h514zM292 1330v-627h442q192 0 295.5 81.5t103.5 233.5q0 75 -26.5 133t-77.5 98t-125.5 60.5t-169.5 20.5h-442
zM652 -204q22 0 37 -15t15 -37t-15 -36.5t-37 -14.5t-36.5 14.5t-14.5 36.5t14.5 37t36.5 15zM373 1661h569v-58h-569v58z" />
    <glyph glyph-name="uni1E5D" unicode="&#x1e5d;" horiz-adv-x="793" 
d="M556 944q49 0 95.5 -10t84.5 -30l-19 -64q-35 20 -78.5 29.5t-88.5 9.5q-68 0 -121.5 -27t-91.5 -73.5t-58 -109t-20 -133.5v-536h-69v933h69v-164q44 78 118 126.5t179 48.5zM172 1245h569v-58h-569v58zM226 -204q22 0 37 -15t15 -37t-15 -36.5t-37 -14.5t-36.5 14.5
t-14.5 36.5t14.5 37t36.5 15z" />
    <glyph glyph-name="uni1E5E" unicode="&#x1e5e;" horiz-adv-x="1327" 
d="M732 1400q114 0 203 -25.5t150 -74.5t93 -120t32 -162q0 -90 -33 -161t-94.5 -120.5t-150 -75.5t-199.5 -26h-94l563 -635h-93l-558 635h-259v-635h-74v1400h514zM292 1330v-627h442q192 0 295.5 81.5t103.5 233.5q0 75 -26.5 133t-77.5 98t-125.5 60.5t-169.5 20.5h-442
zM368 -231h569v-58h-569v58z" />
    <glyph glyph-name="uni1E5F" unicode="&#x1e5f;" horiz-adv-x="793" 
d="M556 944q49 0 95.5 -10t84.5 -30l-19 -64q-35 20 -78.5 29.5t-88.5 9.5q-68 0 -121.5 -27t-91.5 -73.5t-58 -109t-20 -133.5v-536h-69v933h69v-164q44 78 118 126.5t179 48.5zM-59 -231h569v-58h-569v58z" />
    <glyph glyph-name="uni1E62" unicode="&#x1e62;" horiz-adv-x="1340" 
d="M1128 1195q-39 29 -87.5 55t-105.5 46t-124 32t-143 12q-91 0 -168.5 -21t-134.5 -61t-89 -98t-32 -132q0 -56 20 -102.5t63.5 -82.5t113.5 -60.5t169 -34.5l179 -19q97 -11 175 -35.5t132.5 -66t83.5 -102t29 -142.5q0 -100 -43 -174t-117 -123t-173.5 -73t-212.5 -24
q-82 0 -159 14.5t-145.5 38t-126.5 54t-101 63.5l41 59q37 -28 89.5 -56.5t115.5 -51t135.5 -36.5t150.5 -14q98 0 183.5 19t149 58.5t100 99t36.5 140.5q0 64 -23.5 112.5t-70 82.5t-116.5 55t-162 31l-183 19q-209 22 -309.5 111.5t-100.5 235.5q0 93 39 165t106.5 121.5
t159 75t197.5 25.5q84 0 156.5 -12.5t134 -34t113 -50t93.5 -59.5zM702 -204q22 0 37 -15t15 -37t-15 -36.5t-37 -14.5t-36.5 14.5t-14.5 36.5t14.5 37t36.5 15z" />
    <glyph glyph-name="uni1E63" unicode="&#x1e63;" horiz-adv-x="961" 
d="M808 780q-25 18 -60 36t-77.5 32t-91 22.5t-100.5 8.5q-61 0 -113 -13t-90 -38t-59.5 -61t-21.5 -82q0 -35 13.5 -64.5t42.5 -51.5t74.5 -37t110.5 -22l131 -14q143 -15 221 -73.5t78 -165.5q0 -66 -29.5 -116t-81.5 -84t-124.5 -51t-157.5 -17q-116 0 -211 32t-167 86
l35 55q29 -23 63 -42.5t76 -34t92.5 -23t112.5 -8.5q69 0 127.5 12t101.5 36.5t67.5 62t24.5 88.5q0 154 -242 178l-132 13q-80 8 -136.5 29t-92.5 52t-52.5 70.5t-16.5 86.5q0 62 26.5 110.5t73.5 82t112.5 51t142.5 17.5q56 0 108.5 -8.5t99 -23t86 -34t69.5 -41.5z
M484 -204q22 0 37 -15t15 -37t-15 -36.5t-37 -14.5t-36.5 14.5t-14.5 36.5t14.5 37t36.5 15z" />
    <glyph glyph-name="uni1E6C" unicode="&#x1e6c;" horiz-adv-x="1218" 
d="M1174 1329h-528v-1329h-74v1329h-528v71h1130v-71zM609 -204q22 0 37 -15t15 -37t-15 -36.5t-37 -14.5t-36.5 14.5t-14.5 36.5t14.5 37t36.5 15z" />
    <glyph glyph-name="uni1E6D" unicode="&#x1e6d;" horiz-adv-x="903" 
d="M819 869h-463v-557q0 -131 63.5 -194t170.5 -63q68 0 125 21t99 58l35 -51q-48 -43 -114 -68.5t-150 -25.5q-140 0 -219.5 80t-79.5 242v558h-229v64h229v315h70v-315h463v-64zM556 -204q22 0 37 -15t15 -37t-15 -36.5t-37 -14.5t-36.5 14.5t-14.5 36.5t14.5 37t36.5 15z
" />
    <glyph glyph-name="uni1E6E" unicode="&#x1e6e;" horiz-adv-x="1218" 
d="M1174 1329h-528v-1329h-74v1329h-528v71h1130v-71zM325 -231h569v-58h-569v58z" />
    <glyph glyph-name="uni1E6F" unicode="&#x1e6f;" horiz-adv-x="903" 
d="M819 869h-463v-557q0 -131 63.5 -194t170.5 -63q68 0 125 21t99 58l35 -51q-48 -43 -114 -68.5t-150 -25.5q-140 0 -219.5 80t-79.5 242v558h-229v64h229v315h70v-315h463v-64zM271 -231h569v-58h-569v58z" />
    <glyph glyph-name="Wgrave" unicode="&#x1e80;" horiz-adv-x="2217" 
d="M1655 0h-89l-457 1302l-457 -1302h-89l-493 1400h79l459 -1316l461 1316h82l461 -1316l459 1316h76zM902 1785h88l234 -300h-71z" />
    <glyph glyph-name="wgrave" unicode="&#x1e81;" horiz-adv-x="1749" 
d="M1257 70l361 863h73l-394 -933h-81l-342 861l-342 -861h-80l-393 933h74l360 -863l343 863h78zM645 1369h88l234 -300h-71z" />
    <glyph glyph-name="Wacute" unicode="&#x1e82;" horiz-adv-x="2217" 
d="M1655 0h-89l-457 1302l-457 -1302h-89l-493 1400h79l459 -1316l461 1316h82l461 -1316l459 1316h76zM990 1485l233 300h89l-251 -300h-71z" />
    <glyph glyph-name="wacute" unicode="&#x1e83;" horiz-adv-x="1749" 
d="M1257 70l361 863h73l-394 -933h-81l-342 861l-342 -861h-80l-393 933h74l360 -863l343 863h78zM772 1069l233 300h89l-251 -300h-71z" />
    <glyph glyph-name="Wdieresis" unicode="&#x1e84;" horiz-adv-x="2217" 
d="M1655 0h-89l-457 1302l-457 -1302h-89l-493 1400h79l459 -1316l461 1316h82l461 -1316l459 1316h76zM902 1684q22 0 37 -14.5t15 -36.5t-15 -37t-37 -15t-36.5 15t-14.5 37t14.5 36.5t36.5 14.5zM1316 1684q22 0 37 -14.5t15 -36.5t-15 -37t-37 -15t-36.5 15t-14.5 37
t14.5 36.5t36.5 14.5z" />
    <glyph glyph-name="wdieresis" unicode="&#x1e85;" horiz-adv-x="1749" 
d="M1257 70l361 863h73l-394 -933h-81l-342 861l-342 -861h-80l-393 933h74l360 -863l343 863h78zM668 1268q22 0 37 -14.5t15 -36.5t-15 -37t-37 -15t-36.5 15t-14.5 37t14.5 36.5t36.5 14.5zM1082 1268q22 0 37 -14.5t15 -36.5t-15 -37t-37 -15t-36.5 15t-14.5 37
t14.5 36.5t36.5 14.5z" />
    <glyph glyph-name="uni1E88" unicode="&#x1e88;" horiz-adv-x="2217" 
d="M1655 0h-89l-457 1302l-457 -1302h-89l-493 1400h79l459 -1316l461 1316h82l461 -1316l459 1316h76zM1110 -204q22 0 37 -15t15 -37t-15 -36.5t-37 -14.5t-36.5 14.5t-14.5 36.5t14.5 37t36.5 15z" />
    <glyph glyph-name="uni1E89" unicode="&#x1e89;" horiz-adv-x="1749" 
d="M1257 70l361 863h73l-394 -933h-81l-342 861l-342 -861h-80l-393 933h74l360 -863l343 863h78zM875 -204q22 0 37 -15t15 -37t-15 -36.5t-37 -14.5t-36.5 14.5t-14.5 36.5t14.5 37t36.5 15z" />
    <glyph glyph-name="uni1E92" unicode="&#x1e92;" horiz-adv-x="1343" 
d="M1207 1344l-977 -1273h982v-71h-1081v58l976 1271h-955v71h1055v-56zM672 -204q22 0 37 -15t15 -37t-15 -36.5t-37 -14.5t-36.5 14.5t-14.5 36.5t14.5 37t36.5 15z" />
    <glyph glyph-name="uni1E93" unicode="&#x1e93;" horiz-adv-x="1078" 
d="M937 881l-711 -817h719v-64h-812v51l714 818h-693v64h783v-52zM541 -204q22 0 37 -15t15 -37t-15 -36.5t-37 -14.5t-36.5 14.5t-14.5 36.5t14.5 37t36.5 15z" />
    <glyph glyph-name="uni1E94" unicode="&#x1e94;" horiz-adv-x="1343" 
d="M1207 1344l-977 -1273h982v-71h-1081v58l976 1271h-955v71h1055v-56zM388 -231h569v-58h-569v58z" />
    <glyph glyph-name="uni1E95" unicode="&#x1e95;" horiz-adv-x="1078" 
d="M937 881l-711 -817h719v-64h-812v51l714 818h-693v64h783v-52zM256 -231h569v-58h-569v58z" />
    <glyph glyph-name="uni1E96" unicode="&#x1e96;" horiz-adv-x="1192" 
d="M260 755q25 42 60 77t79 59.5t96.5 38.5t112.5 14q94 0 169.5 -28t128 -79.5t80.5 -125t28 -164.5v-547h-69v547q0 74 -22 135t-65.5 104.5t-107.5 67.5t-148 24q-76 0 -139 -26t-108 -71.5t-70 -107.5t-25 -133v-540h-70v1440h70v-685zM318 -231h569v-58h-569v58z" />
    <glyph glyph-name="uni1E9E" unicode="&#x1e9e;" horiz-adv-x="1464" 
d="M764 726l407 437q-29 36 -67 68t-89.5 56t-119.5 38t-156 14q-103 0 -189 -27t-147.5 -79.5t-96 -129.5t-34.5 -177v-926h-75v930q0 111 38.5 200t109.5 151.5t171 96t224 33.5q108 0 191 -18.5t146.5 -50.5t111 -75.5t83.5 -93.5l-407 -437q100 -6 186 -34.5t149 -77.5
t98.5 -116t35.5 -149q0 -86 -38.5 -154.5t-104.5 -116.5t-154.5 -73.5t-188.5 -25.5q-56 0 -102.5 5t-85.5 13.5t-72 19.5t-62 24l20 70q52 -24 122.5 -42t169.5 -18q90 0 167 20.5t132.5 59t87 93.5t31.5 125q0 71 -32.5 128.5t-91.5 98t-141 62.5t-182 22h-45v56z" />
    <glyph glyph-name="Ygrave" unicode="&#x1ef2;" horiz-adv-x="1232" 
d="M654 619v-619h-74v619l-567 781h90l514 -710l515 710h87zM411 1785h88l234 -300h-71z" />
    <glyph glyph-name="ygrave" unicode="&#x1ef3;" horiz-adv-x="996" 
d="M187 -402h-78l369 618l-451 717h79l411 -648l383 648h77zM273 1369h88l234 -300h-71z" />
    <glyph glyph-name="uni1EF4" unicode="&#x1ef4;" horiz-adv-x="1232" 
d="M654 619v-619h-74v619l-567 781h90l514 -710l515 710h87zM617 -204q22 0 37 -15t15 -37t-15 -36.5t-37 -14.5t-36.5 14.5t-14.5 36.5t14.5 37t36.5 15z" />
    <glyph glyph-name="uni1EF5" unicode="&#x1ef5;" horiz-adv-x="996" 
d="M187 -402h-78l369 618l-451 717h79l411 -648l383 648h77zM698 -204q22 0 37 -15t15 -37t-15 -36.5t-37 -14.5t-36.5 14.5t-14.5 36.5t14.5 37t36.5 15z" />
    <glyph glyph-name="uni2007" unicode="&#x2007;" 
 />
    <glyph glyph-name="uni2008" unicode="&#x2008;" horiz-adv-x="516" 
 />
    <glyph glyph-name="uni2009" unicode="&#x2009;" horiz-adv-x="175" 
 />
    <glyph glyph-name="uni200B" unicode="&#x200b;" horiz-adv-x="0" 
 />
    <glyph glyph-name="uniFEFF" unicode="&#xfeff;" horiz-adv-x="0" 
 />
    <glyph glyph-name="uni2010" unicode="&#x2010;" horiz-adv-x="830" 
d="M677 492h-524v64h524v-64z" />
    <glyph glyph-name="uni2011" unicode="&#x2011;" horiz-adv-x="830" 
d="M677 492h-524v64h524v-64z" />
    <glyph glyph-name="figuredash" unicode="&#x2012;" 
d="M1076 492h-950v64h950v-64z" />
    <glyph glyph-name="endash" unicode="&#x2013;" horiz-adv-x="1212" 
d="M1081 492h-950v64h950v-64z" />
    <glyph glyph-name="emdash" unicode="&#x2014;" horiz-adv-x="1631" 
d="M1566 492h-1500v64h1500v-64z" />
    <glyph glyph-name="quoteleft" unicode="&#x2018;" horiz-adv-x="480" 
d="M171 984l85 456h61l-66 -456h-80z" />
    <glyph glyph-name="quoteright" unicode="&#x2019;" horiz-adv-x="480" 
d="M309 1440l-85 -456h-61l66 456h80z" />
    <glyph glyph-name="quotesinglbase" unicode="&#x201a;" horiz-adv-x="480" 
d="M309 218l-85 -456h-61l66 456h80z" />
    <glyph glyph-name="quotedblleft" unicode="&#x201c;" horiz-adv-x="788" 
d="M171 984l85 456h61l-66 -456h-80zM479 984l85 456h61l-66 -456h-80z" />
    <glyph glyph-name="quotedblright" unicode="&#x201d;" horiz-adv-x="787" 
d="M616 1440l-85 -456h-61l66 456h80zM309 1440l-85 -456h-61l66 456h80z" />
    <glyph glyph-name="quotedblbase" unicode="&#x201e;" horiz-adv-x="787" 
d="M616 218l-85 -456h-61l66 456h80zM309 218l-85 -456h-61l66 456h80z" />
    <glyph glyph-name="dagger" unicode="&#x2020;" horiz-adv-x="678" 
d="M310 734v448h-200v58h200v200h59v-200h200v-58h-200v-448h-59z" />
    <glyph glyph-name="daggerdbl" unicode="&#x2021;" horiz-adv-x="678" 
d="M369 1252h200v-58h-200v-214h200v-57h-200v-189h-59v189h-200v57h200v214h-200v58h200v188h59v-188z" />
    <glyph glyph-name="bullet" unicode="&#x2022;" horiz-adv-x="885" 
d="M443 670q30 0 56.5 -11.5t46.5 -31t31.5 -46t11.5 -57.5q0 -30 -11.5 -56.5t-31.5 -46.5t-46.5 -31.5t-56.5 -11.5q-31 0 -57.5 11.5t-46 31.5t-31 46.5t-11.5 56.5q0 31 11.5 57.5t31 46t46 31t57.5 11.5z" />
    <glyph glyph-name="uni2023" unicode="&#x2023;" horiz-adv-x="962" 
d="M303 261v526l453 -263z" />
    <glyph glyph-name="ellipsis" unicode="&#x2026;" horiz-adv-x="1307" 
d="M258 111q24 0 42 -17.5t18 -42.5q0 -24 -18 -42t-42 -18t-42 18t-18 42q0 25 18 42.5t42 17.5zM654 111q24 0 41.5 -17.5t17.5 -42.5q0 -24 -17.5 -42t-41.5 -18t-42 18t-18 42q0 25 18 42.5t42 17.5zM1049 111q24 0 42 -17.5t18 -42.5q0 -24 -18 -42t-42 -18t-42 18
t-18 42q0 25 18 42.5t42 17.5z" />
    <glyph glyph-name="perthousand" unicode="&#x2030;" horiz-adv-x="2700" 
d="M444 1411q73 0 136.5 -26t109.5 -72t72.5 -108.5t26.5 -135.5t-26.5 -135.5t-72.5 -108.5t-109.5 -72t-136.5 -26q-72 0 -133.5 26t-107.5 72t-72 108.5t-26 135.5t26 135.5t72 108.5t107.5 72t133.5 26zM444 1349q-58 0 -108 -21t-87 -58.5t-58 -89t-21 -111.5
q0 -61 21 -112t58 -88.5t87 -58.5t108 -21q60 0 111 21t88.5 58.5t58.5 88.5t21 112q0 60 -21 111.5t-58.5 89t-88.5 58.5t-111 21zM534 0h-73l883 1400h73zM1429 673q73 0 136.5 -26.5t109.5 -72.5t72.5 -108.5t26.5 -134.5q0 -73 -26.5 -135.5t-72.5 -108.5t-109.5 -72
t-136.5 -26q-72 0 -134 26t-108 72t-72 108.5t-26 135.5t26 135.5t72 108.5t108 72t134 26zM1429 611q-58 0 -108 -21t-87 -58.5t-58 -88.5t-21 -112t21 -112t58 -88.5t87 -58.5t108 -21q60 0 111 21t88.5 58.5t58.5 88.5t21 112t-21 112t-58.5 88.5t-88.5 58.5t-111 21z
M2251 673q73 0 136.5 -26t109.5 -72t72.5 -108.5t26.5 -135.5t-26.5 -135.5t-72.5 -108.5t-109.5 -72t-136.5 -26q-72 0 -134 26t-107.5 72t-72 108.5t-26.5 135.5t26.5 135.5t72 108.5t107.5 72t134 26zM2251 611q-58 0 -108 -21t-87 -58.5t-58 -88.5t-21 -112t21 -112
t58 -88.5t87 -58.5t108 -21q60 0 111 21t88.5 58.5t58.5 88.5t21 112t-21 112t-58.5 88.5t-88.5 58.5t-111 21z" />
    <glyph glyph-name="minute" unicode="&#x2032;" horiz-adv-x="527" 
d="M356 1400l-126 -596h-67l127 596h66z" />
    <glyph glyph-name="second" unicode="&#x2033;" horiz-adv-x="804" 
d="M633 1400l-126 -596h-67l127 596h66zM356 1400l-126 -596h-67l127 596h66z" />
    <glyph glyph-name="uni2034" unicode="&#x2034;" horiz-adv-x="1027" 
d="M606 1400l-126 -596h-67l127 596h66zM856 1400l-126 -596h-67l127 596h66zM356 1400l-126 -596h-67l127 596h66z" />
    <glyph glyph-name="guilsinglleft" unicode="&#x2039;" horiz-adv-x="610" 
d="M425 167h-76l-195 357l195 357h76l-195 -357z" />
    <glyph glyph-name="guilsinglright" unicode="&#x203a;" horiz-adv-x="610" 
d="M185 881h76l195 -357l-195 -357h-76l195 357z" />
    <glyph glyph-name="fraction" unicode="&#x2044;" horiz-adv-x="401" 
d="M-206 0h-70l883 1400h70z" />
    <glyph glyph-name="uni2070" unicode="&#x2070;" horiz-adv-x="821" 
d="M410 1404q63 0 118.5 -25.5t97 -74.5t65.5 -119t24 -158q0 -89 -24 -159t-65.5 -119t-97 -74.5t-118.5 -25.5t-118.5 25.5t-96.5 74.5t-65 119t-24 159q0 88 24 158t65 119t96.5 74.5t118.5 25.5zM410 1348q-50 0 -94.5 -21.5t-77.5 -62.5t-52.5 -101t-19.5 -136
q0 -77 19.5 -136.5t52.5 -101t77.5 -63t94.5 -21.5q51 0 95.5 21.5t77.5 63t52 101t19 136.5q0 76 -19 136t-52 101t-77.5 62.5t-95.5 21.5z" />
    <glyph glyph-name="uni2071" unicode="&#x2071;" horiz-adv-x="344" 
d="M201 655h-58v643h58v-643zM172 1560q17 0 29 -12t12 -30q0 -17 -12 -29t-29 -12t-29 12t-12 29q0 18 12 30t29 12z" />
    <glyph glyph-name="uni2074" unicode="&#x2074;" horiz-adv-x="645" 
d="M467 873h136v-54h-136v-164h-59v164h-366v43l271 536h64l-266 -525h297v216h59v-216z" />
    <glyph glyph-name="uni2075" unicode="&#x2075;" horiz-adv-x="664" 
d="M539 1344h-345l-10 -249h114q67 0 118 -16t85 -44.5t51.5 -68t17.5 -86.5q0 -53 -19 -96t-52.5 -73t-80 -46.5t-101.5 -16.5q-78 0 -140 28t-108 81l36 39q39 -45 93.5 -69t117.5 -24q90 0 142 47.5t52 125.5q0 36 -13.5 66.5t-41 52.5t-69.5 34.5t-99 12.5h-157l13 356
h396v-54z" />
    <glyph glyph-name="uni2076" unicode="&#x2076;" horiz-adv-x="657" 
d="M214 1095q25 14 55.5 22t65.5 8q56 0 103 -18t80.5 -50t52.5 -75.5t19 -93.5q0 -51 -19.5 -95t-55 -76t-83.5 -50t-105 -18t-105 18t-83 50t-55 75.5t-20 94.5q0 38 12 73t33 70l226 368h70zM327 1074q-44 0 -81 -14t-63.5 -39t-42 -59.5t-15.5 -74.5t15 -74t42 -59
t64 -39t81 -14t81 14t64 39t42 59t15 74t-15 74.5t-42 59.5t-64 39t-81 14z" />
    <glyph glyph-name="uni2077" unicode="&#x2077;" horiz-adv-x="622" 
d="M570 1352l-346 -697h-69l346 688h-437v55h506v-46z" />
    <glyph glyph-name="uni2078" unicode="&#x2078;" horiz-adv-x="726" 
d="M363 1404q52 0 98.5 -12.5t81 -37.5t54.5 -61t20 -83q0 -36 -11.5 -65t-32 -51t-48 -38t-58.5 -25q35 -9 66 -24.5t53.5 -38t35.5 -52.5t13 -67q0 -49 -21.5 -86.5t-58.5 -63t-86.5 -38.5t-105.5 -13t-106 13t-87 38.5t-58.5 63t-21.5 86.5q0 37 13 67t35.5 52.5t53.5 38
t66 24.5q-32 9 -59 25t-47 38t-31.5 51t-11.5 65q0 47 20 83t54.5 61t81 37.5t98.5 12.5zM363 1007q-44 0 -82 -10t-66.5 -29t-45 -47.5t-16.5 -65.5q0 -39 16.5 -68t45 -48.5t66.5 -29.5t82 -10q43 0 81.5 10t67 29.5t45 48.5t16.5 68q0 37 -16.5 65.5t-45 47.5t-67 29
t-81.5 10zM363 1353q-39 0 -74 -9.5t-61.5 -28t-41.5 -46.5t-15 -64q0 -37 15 -65t41.5 -46.5t61.5 -28t74 -9.5t74 9.5t61.5 28t41.5 46.5t15 65q0 36 -15 64t-41.5 46.5t-61.5 28t-74 9.5z" />
    <glyph glyph-name="uni2079" unicode="&#x2079;" horiz-adv-x="657" 
d="M445 958q-25 -14 -55.5 -22t-65.5 -8q-56 0 -103 18t-81 50t-52.5 75.5t-18.5 94.5t19.5 95t55 75.5t83.5 49.5t105 18t105 -18t83 -49.5t55 -75t20 -94.5q0 -38 -11.5 -73.5t-32.5 -69.5l-227 -369h-70zM332 979q44 0 81 14t63.5 39t42 59t15.5 75q0 40 -15 74t-42 59
t-64 39t-81 14t-81 -14t-64 -38.5t-42 -59t-15 -74.5q0 -41 15 -75t42 -59t64 -39t81 -14z" />
    <glyph glyph-name="uni207F" unicode="&#x207f;" horiz-adv-x="848" 
d="M438 1305q63 0 114 -19t87 -54t55 -85t19 -112v-380h-58v375q0 49 -15 90t-43.5 70t-71 45t-97.5 16q-49 0 -90.5 -17t-72 -47t-47.5 -71.5t-17 -90.5v-370h-58v643h57v-127q33 60 93.5 97t144.5 37z" />
    <glyph glyph-name="uni2080" unicode="&#x2080;" horiz-adv-x="821" 
d="M410 397q63 0 118.5 -25.5t97 -74.5t65.5 -119t24 -158q0 -89 -24 -159t-65.5 -119t-97 -74.5t-118.5 -25.5t-118.5 25.5t-96.5 74.5t-65 119t-24 159q0 88 24 158t65 119t96.5 74.5t118.5 25.5zM410 341q-50 0 -94.5 -21.5t-77.5 -62.5t-52.5 -101t-19.5 -136
q0 -77 19.5 -136.5t52.5 -101t77.5 -63t94.5 -21.5q51 0 95.5 21.5t77.5 63t52 101t19 136.5q0 76 -19 136t-52 101t-77.5 62.5t-95.5 21.5z" />
    <glyph glyph-name="uni2081" unicode="&#x2081;" horiz-adv-x="531" 
d="M362 -352h-59v667l-250 -105v58l309 129v-749z" />
    <glyph glyph-name="uni2082" unicode="&#x2082;" horiz-adv-x="628" 
d="M69 274q14 22 34 44t47.5 39.5t63 28.5t81.5 11q55 0 98.5 -17t72.5 -47t44.5 -70t15.5 -86q0 -68 -30.5 -119.5t-74.5 -97.5l-251 -257h385v-55h-469v46l293 300q37 38 61.5 81t24.5 98q0 34 -11.5 65t-33.5 53.5t-54.5 36t-75.5 13.5q-35 0 -63 -8.5t-50 -23t-39 -33
t-30 -38.5z" />
    <glyph glyph-name="uni2083" unicode="&#x2083;" horiz-adv-x="625" 
d="M275 397q54 0 99 -14.5t77 -40t50 -61t18 -78.5q0 -72 -39 -117t-103 -63q70 -17 113.5 -63t43.5 -115q0 -52 -21.5 -90t-56.5 -63t-81 -37.5t-94 -12.5q-74 0 -130 23t-98 65l34 40q37 -35 84.5 -55t106.5 -20q38 0 73.5 9t62.5 28t43.5 48t16.5 69q0 34 -15.5 61.5
t-42 47t-61.5 29.5t-75 10h-106v53h106q38 0 70.5 9.5t56.5 28t37.5 46.5t13.5 65q0 32 -13.5 58.5t-38 46t-59 30t-75.5 10.5q-60 0 -105.5 -24.5t-74.5 -62.5l-37 38q35 45 90 73.5t130 28.5z" />
    <glyph glyph-name="uni2084" unicode="&#x2084;" horiz-adv-x="645" 
d="M467 -134h136v-54h-136v-164h-59v164h-366v43l271 536h64l-266 -525h297v216h59v-216z" />
    <glyph glyph-name="uni2085" unicode="&#x2085;" horiz-adv-x="664" 
d="M539 337h-345l-10 -249h114q67 0 118 -16t85 -44.5t51.5 -68t17.5 -86.5q0 -53 -19 -96t-52.5 -73t-80 -46.5t-101.5 -16.5q-78 0 -140 28t-108 81l36 39q39 -45 93.5 -69t117.5 -24q90 0 142 47.5t52 125.5q0 36 -13.5 66.5t-41 52.5t-69.5 34.5t-99 12.5h-157l13 356
h396v-54z" />
    <glyph glyph-name="uni2086" unicode="&#x2086;" horiz-adv-x="657" 
d="M214 88q25 14 55.5 22t65.5 8q56 0 103 -18t80.5 -50t52.5 -75.5t19 -93.5q0 -51 -19.5 -95t-55 -76t-83.5 -50t-105 -18t-105 18t-83 50t-55 75.5t-20 94.5q0 38 12 73t33 70l226 368h70zM327 67q-44 0 -81 -14t-63.5 -39t-42 -59.5t-15.5 -74.5t15 -74t42 -59t64 -39
t81 -14t81 14t64 39t42 59t15 74t-15 74.5t-42 59.5t-64 39t-81 14z" />
    <glyph glyph-name="uni2087" unicode="&#x2087;" horiz-adv-x="622" 
d="M570 345l-346 -697h-69l346 688h-437v55h506v-46z" />
    <glyph glyph-name="uni2088" unicode="&#x2088;" horiz-adv-x="726" 
d="M363 397q52 0 98.5 -12.5t81 -37.5t54.5 -61t20 -83q0 -36 -11.5 -65t-32 -51t-48 -38t-58.5 -25q35 -9 66 -24.5t53.5 -38t35.5 -52.5t13 -67q0 -49 -21.5 -86.5t-58.5 -63t-86.5 -38.5t-105.5 -13t-106 13t-87 38.5t-58.5 63t-21.5 86.5q0 37 13 67t35.5 52.5t53.5 38
t66 24.5q-32 9 -59 25t-47 38t-31.5 51t-11.5 65q0 47 20 83t54.5 61t81 37.5t98.5 12.5zM363 0q-44 0 -82 -10t-66.5 -29t-45 -47.5t-16.5 -65.5q0 -39 16.5 -68t45 -48.5t66.5 -29.5t82 -10q43 0 81.5 10t67 29.5t45 48.5t16.5 68q0 37 -16.5 65.5t-45 47.5t-67 29
t-81.5 10zM363 346q-39 0 -74 -9.5t-61.5 -28t-41.5 -46.5t-15 -64q0 -37 15 -65t41.5 -46.5t61.5 -28t74 -9.5t74 9.5t61.5 28t41.5 46.5t15 65q0 36 -15 64t-41.5 46.5t-61.5 28t-74 9.5z" />
    <glyph glyph-name="uni2089" unicode="&#x2089;" horiz-adv-x="657" 
d="M445 -49q-25 -14 -55.5 -22t-65.5 -8q-56 0 -103 18t-81 50t-52.5 75.5t-18.5 94.5t19.5 95t55 75.5t83.5 49.5t105 18t105 -18t83 -49.5t55 -75t20 -94.5q0 -38 -11.5 -73.5t-32.5 -69.5l-227 -369h-70zM332 -28q44 0 81 14t63.5 39t42 59t15.5 75q0 40 -15 74t-42 59
t-64 39t-81 14t-81 -14t-64 -38.5t-42 -59t-15 -74.5q0 -41 15 -75t42 -59t64 -39t81 -14z" />
    <glyph glyph-name="Euro" unicode="&#x20ac;" horiz-adv-x="1400" 
d="M1048 513h-724q20 -105 63 -190t107.5 -144t149.5 -91t190 -32q76 0 141.5 17.5t120.5 49.5t98 77.5t74 101.5l48 -47q-71 -123 -193.5 -194.5t-288.5 -71.5q-120 0 -218.5 37t-172.5 105t-123 165t-70 217h-169v63h160q-6 60 -6 124t6 124h-160v63h169q21 120 70 217
t123 165t172.5 105t218.5 37q83 0 155.5 -18.5t133.5 -53t110 -83t84 -109.5l-49 -49q-31 56 -74.5 101.5t-98 77.5t-120.5 49.5t-142 17.5q-105 0 -190 -32t-149.5 -91t-107 -144t-62.5 -190h724v-63h-733q-4 -30 -5.5 -61t-1.5 -63t1.5 -63.5t5.5 -60.5h733v-63z" />
    <glyph glyph-name="uni20BA" unicode="&#x20ba;" horiz-adv-x="1400" 
d="M988 704l-566 -275v-363h290q82 0 152.5 17.5t131 55.5t114 98.5t101.5 146.5l61 -34q-53 -96 -112.5 -163t-128.5 -109.5t-149.5 -62t-175.5 -19.5h-356v398l-207 -100v66l207 100v247l-207 -100v66l207 100v627h72v-592l566 275v-66l-566 -275v-247l566 275v-66z" />
    <glyph glyph-name="uni2100" unicode="&#x2100;" horiz-adv-x="1789" 
d="M448 1411q59 0 109 -14.5t86 -46t56 -81t20 -118.5v-390h-58v103q-43 -45 -107 -78t-150 -33q-54 0 -98 13.5t-74.5 38.5t-47 59t-16.5 75t17 75.5t50.5 59t84 38t116.5 13.5h224v19q0 58 -16 98.5t-44.5 66t-68.5 37t-89 11.5q-69 0 -120 -22.5t-88 -53.5l-29 43
q44 37 104 62t139 25zM409 805q81 0 146 34.5t106 83.5v154h-217q-112 0 -163.5 -38.5t-51.5 -97.5q0 -60 48.5 -98t131.5 -38zM545 0h-70l883 1400h70zM1383 648q73 0 134 -27t105 -76l-41 -36q-39 40 -89 62.5t-110 22.5q-57 0 -105.5 -20.5t-84 -57.5t-56 -87t-20.5 -109
q0 -60 20.5 -110t56 -86.5t84 -57t105.5 -20.5q60 0 110.5 22.5t88.5 61.5l41 -37q-44 -48 -105 -75.5t-134 -27.5q-71 0 -131 25t-103.5 69.5t-68 104.5t-24.5 131q0 70 24.5 130.5t68 104t103.5 68.5t131 25z" />
    <glyph glyph-name="uni2101" unicode="&#x2101;" horiz-adv-x="1789" 
d="M447 1411q59 0 109 -14.5t86 -46t56 -81t20 -118.5v-390h-58v103q-43 -45 -107 -78t-150 -33q-54 0 -98 13.5t-74.5 38.5t-47 59t-16.5 75t17 75.5t50.5 59t84 38t116.5 13.5h224v19q0 58 -16 98.5t-44.5 66t-68.5 37t-89 11.5q-69 0 -120 -22.5t-88 -53.5l-29 43
q44 37 104 62t139 25zM408 805q81 0 146 34.5t106 83.5v154h-217q-112 0 -163.5 -38.5t-51.5 -97.5q0 -60 48.5 -98t131.5 -38zM544 0h-70l883 1400h70zM1582 529q-37 25 -97 46t-131 21q-41 0 -75 -8.5t-59 -25t-39 -40.5t-14 -54q0 -47 39 -78t126 -39l82 -8
q99 -10 154 -50.5t55 -115.5q0 -46 -20.5 -81t-56.5 -58.5t-86 -35.5t-109 -12q-83 0 -149 21.5t-114 57.5l26 46q42 -31 97.5 -52.5t139.5 -21.5q46 0 84.5 8t67 24t44.5 41t16 59q0 102 -164 118l-83 8q-112 11 -160.5 55.5t-48.5 110.5q0 43 18 77t51 57t78 35.5t99 12.5
q78 0 142.5 -21t109.5 -51z" />
    <glyph glyph-name="afii61248" unicode="&#x2105;" horiz-adv-x="1789" 
d="M463 1411q73 0 134 -27t105 -76l-41 -36q-39 40 -89 62.5t-110 22.5q-57 0 -105.5 -20.5t-84 -57.5t-56 -87t-20.5 -109q0 -60 20.5 -110t56 -86.5t84 -57t105.5 -20.5q60 0 110.5 22.5t88.5 61.5l41 -37q-44 -48 -105 -75.5t-134 -27.5q-71 0 -131 25t-103.5 69.5
t-68 104.5t-24.5 131q0 70 24.5 130.5t68 104t103.5 68.5t131 25zM485 0h-70l883 1400h70zM1324 648q70 0 130.5 -25t104.5 -69t69 -104t25 -130q0 -71 -25 -131t-69 -104.5t-104.5 -69.5t-130.5 -25t-130 25t-104.5 69.5t-69.5 104.5t-25 131q0 70 25 130t69.5 104
t104.5 69t130 25zM1324 594q-57 0 -106.5 -20.5t-85.5 -57.5t-56.5 -87t-20.5 -109t20.5 -109.5t56.5 -87t85.5 -57t106.5 -20.5t106.5 20.5t86 57t57 87t20.5 109.5t-20.5 109t-57 87t-86 57.5t-106.5 20.5z" />
    <glyph glyph-name="uni2106" unicode="&#x2106;" horiz-adv-x="1789" 
d="M462 1411q73 0 134 -27t105 -76l-41 -36q-39 40 -89 62.5t-110 22.5q-57 0 -105.5 -20.5t-84 -57.5t-56 -87t-20.5 -109q0 -60 20.5 -110t56 -86.5t84 -57t105.5 -20.5q60 0 110.5 22.5t88.5 61.5l41 -37q-44 -48 -105 -75.5t-134 -27.5q-71 0 -131 25t-103.5 69.5
t-68 104.5t-24.5 131q0 70 24.5 130.5t68 104t103.5 68.5t131 25zM484 0h-70l883 1400h70zM1654 262q0 -65 -21.5 -115.5t-60 -85.5t-90.5 -53t-113 -18q-62 0 -114 18t-90 53t-59.5 85.5t-21.5 115.5v379h58v-375q0 -52 16.5 -92.5t46.5 -69t71.5 -43.5t92.5 -15t92.5 15
t71.5 43.5t46.5 69t16.5 92.5v375h58v-379z" />
    <glyph glyph-name="afii61289" unicode="&#x2113;" horiz-adv-x="1091" 
d="M174 455q45 20 88 42t85 46l1 558q0 77 19 141.5t53.5 111t83.5 72t109 25.5q58 0 105.5 -20.5t82 -58t53.5 -89t19 -114.5q0 -101 -34.5 -193.5t-96 -175.5t-145 -156t-180.5 -134v-199q0 -131 58.5 -194t158.5 -63q66 0 119 22t92 60l30 -55q-45 -42 -106.5 -67
t-139.5 -25q-132 0 -207 80t-75 241v158q-36 -20 -72.5 -38.5t-74.5 -35.5zM417 587q85 57 156 122.5t122 139t79 154t28 166.5q0 49 -13 89.5t-38 68.5t-60 43.5t-78 15.5q-44 0 -80 -20t-62 -57t-40 -90t-14 -118v-514z" />
    <glyph glyph-name="afii61352" unicode="&#x2116;" horiz-adv-x="2390" 
d="M2288 507h-632v63h632v-63zM1972 1409q70 0 129.5 -25t103 -68.5t68.5 -103t25 -129.5q0 -69 -25 -128.5t-68.5 -103t-103 -68t-129.5 -24.5q-69 0 -128.5 24.5t-103 68t-68.5 103t-25 128.5q0 70 25 129.5t68.5 103t103 68.5t128.5 25zM1971 1354q-56 0 -104.5 -20.5
t-84 -56.5t-56 -85.5t-20.5 -108.5t20.5 -108.5t56 -85.5t84 -56t104.5 -20q57 0 106 20t85 56t56.5 85.5t20.5 108.5t-20.5 108.5t-56.5 85.5t-85 56.5t-106 20.5zM1339 0h-67l-979 1271l-1 -1271h-74v1400h67l979 -1271v1271h75v-1400z" />
    <glyph glyph-name="uni2117" unicode="&#x2117;" horiz-adv-x="1892" 
d="M947 1490q109 0 209.5 -28t188 -79.5t159.5 -123.5t123.5 -159.5t80 -188t28.5 -208.5t-28.5 -208.5t-80 -188t-123.5 -159.5t-159.5 -123.5t-188.5 -79.5t-209 -28q-109 0 -210 28t-188.5 79.5t-160 123.5t-124 159.5t-79.5 187.5t-28 209q0 108 28 208.5t79.5 188
t124 159.5t160 123.5t188.5 79.5t210 28zM947 1428q-101 0 -193.5 -26t-173.5 -73t-147 -113t-113 -146.5t-73 -173.5t-26 -193t26 -193t73 -173.5t113 -146.5t147 -113t173.5 -73t193.5 -26q100 0 192.5 26t173 73t147 113t113.5 146.5t73 173.5t26 193t-26 193t-73 173.5
t-113.5 146.5t-147 113t-173 73t-192.5 26zM1009 1117q71 0 128.5 -16.5t97.5 -48.5t61.5 -78.5t21.5 -106.5q0 -59 -21.5 -105t-61.5 -77.5t-97 -48.5t-128 -17h-254v-334h-63v832h316zM756 1059v-383h252q57 0 102.5 12.5t77.5 36.5t49 59.5t17 82.5q0 94 -66 143t-180 49
h-252z" />
    <glyph glyph-name="uni2120" unicode="&#x2120;" horiz-adv-x="1304" 
d="M515 1307q-32 19 -76 34.5t-104 15.5q-67 0 -111 -25t-44 -72q0 -38 33.5 -60.5t107.5 -29.5l63 -5q81 -8 127 -39.5t46 -91.5q0 -40 -18 -69t-49 -47.5t-72.5 -27.5t-87.5 -9q-67 0 -124.5 18t-95.5 42l26 42q31 -20 81 -37t113 -17q36 0 67 6t54.5 18t36.5 30.5
t13 44.5q0 43 -35.5 63t-107.5 26l-65 6q-87 8 -128.5 42t-41.5 90q0 35 16 62.5t44.5 47t66.5 30t83 10.5q69 0 118.5 -16.5t86.5 -38.5zM1165 887v440l-193 -380h-51l-194 380v-440h-51v513h71l199 -392l199 392h71v-513h-51z" />
    <glyph glyph-name="trademark" unicode="&#x2122;" horiz-adv-x="1243" 
d="M1103 888v440l-192 -379h-52l-193 379v-440h-52v513h71l200 -391l199 391h71v-513h-52zM275 888v464h-187v48h425v-48h-186v-464h-52z" />
    <glyph glyph-name="Omega" unicode="&#x2126;" horiz-adv-x="1717" 
d="M526 71q-84 39 -153.5 99.5t-119.5 139.5t-77.5 174.5t-27.5 204.5q0 160 55 293t151 228.5t225.5 148t278.5 52.5q150 0 279.5 -52.5t225 -148t150.5 -228.5t55 -293q0 -109 -27.5 -204.5t-77.5 -174.5t-119.5 -139.5t-153.5 -99.5h439v-71h-570v60q94 30 173.5 87.5
t136.5 137.5t89 181.5t32 219.5q0 147 -49 267.5t-134.5 206.5t-201 133t-247.5 47t-247.5 -47t-201 -133t-134.5 -206.5t-49 -267.5q0 -118 32 -219.5t89.5 -181.5t136.5 -137.5t174 -87.5v-60h-571v71h439z" />
    <glyph glyph-name="estimated" unicode="&#x212e;" horiz-adv-x="2000" 
d="M420 320q0 -68 19.5 -120.5t72.5 -96.5q100 -81 224 -124.5t264 -43.5q100 0 192.5 22.5t174.5 65t150 104t119 139.5l25 -18q-53 -81 -124.5 -145t-156 -108t-181 -67.5t-199.5 -23.5q-163 0 -306.5 57.5t-251 162t-170 251t-62.5 325.5t62.5 325.5t170 251t251 162
t306.5 57.5t306.5 -57.5t251 -162t170 -251t62.5 -325.5v-15h-1370v-365zM1584 715v361q0 68 -19.5 120.5t-71.5 96.5q-100 83 -225.5 127.5t-267.5 44.5q-140 0 -264 -43.5t-224 -124.5q-53 -44 -72.5 -96.5t-19.5 -120.5v-365h1164z" />
    <glyph glyph-name="uni214D" unicode="&#x214d;" horiz-adv-x="1789" 
d="M770 671h-63l-87 210h-384l-86 -210h-62l306 729h69zM1650 607q-39 28 -98 50.5t-140 22.5q-44 0 -82 -10t-65.5 -28.5t-43.5 -46t-16 -62.5q0 -56 44.5 -90t144.5 -45l87 -9q106 -12 163 -55.5t57 -127.5q0 -55 -23.5 -95t-63 -66t-92.5 -38.5t-112 -12.5
q-90 0 -163.5 26t-120.5 59l29 48q20 -14 46.5 -28t59 -25t70.5 -18.5t80 -7.5q48 0 89.5 9t72 27.5t48.5 47t18 67.5q0 63 -47.5 93.5t-141.5 41.5l-88 9q-116 13 -167.5 60.5t-51.5 124.5q0 48 20 86.5t56 65t85 40.5t106 14q91 0 155.5 -23t110.5 -55zM259 935h339
l-170 410zM555 0h-70l883 1400h70z" />
    <glyph glyph-name="uni2150" unicode="&#x2150;" horiz-adv-x="1593" 
d="M341 0h-70l883 1400h70zM1541 697l-346 -697h-69l346 688h-437v55h506v-46zM362 655h-59v667l-250 -105v58l309 129v-749z" />
    <glyph glyph-name="uni2151" unicode="&#x2151;" horiz-adv-x="1605" 
d="M341 0h-70l883 1400h70zM1393 303q-25 -14 -55.5 -22t-65.5 -8q-56 0 -103 18t-81 50t-52.5 75.5t-18.5 94.5t19.5 95t55 75.5t83.5 49.5t105 18t105 -18t83 -49.5t55 -75t20 -94.5q0 -38 -11.5 -73.5t-32.5 -69.5l-227 -369h-70zM1280 324q44 0 81 14t63.5 39t42 59
t15.5 75q0 40 -15 74t-42 59t-64 39t-81 14t-81 -14t-64 -38.5t-42 -59t-15 -74.5q0 -41 15 -75t42 -59t64 -39t81 -14zM362 655h-59v667l-250 -105v58l309 129v-749z" />
    <glyph glyph-name="uni2152" unicode="&#x2152;" horiz-adv-x="2319" 
d="M341 0h-70l883 1400h70zM1330 0h-59v667l-250 -105v58l309 129v-749zM1908 749q63 0 118.5 -25.5t97 -74.5t65.5 -119t24 -158q0 -89 -24 -159t-65.5 -119t-97 -74.5t-118.5 -25.5t-118.5 25.5t-96.5 74.5t-65 119t-24 159q0 88 24 158t65 119t96.5 74.5t118.5 25.5z
M1908 693q-50 0 -94.5 -21.5t-77.5 -62.5t-52.5 -101t-19.5 -136q0 -77 19.5 -136.5t52.5 -101t77.5 -63t94.5 -21.5q51 0 95.5 21.5t77.5 63t52 101t19 136.5q0 76 -19 136t-52 101t-77.5 62.5t-95.5 21.5zM362 655h-59v667l-250 -105v58l309 129v-749z" />
    <glyph glyph-name="onethird" unicode="&#x2153;" horiz-adv-x="1572" 
d="M341 0h-70l883 1400h70zM1223 749q54 0 99 -14.5t77 -40t50 -61t18 -78.5q0 -72 -39 -117t-103 -63q70 -17 113.5 -63t43.5 -115q0 -52 -21.5 -90t-56.5 -63t-81 -37.5t-94 -12.5q-74 0 -130 23t-98 65l34 40q37 -35 84.5 -55t106.5 -20q38 0 73.5 9t62.5 28t43.5 48
t16.5 69q0 34 -15.5 61.5t-42 47t-61.5 29.5t-75 10h-106v53h106q38 0 70.5 9.5t56.5 28t37.5 46.5t13.5 65q0 32 -13.5 58.5t-38 46t-59 30t-75.5 10.5q-60 0 -105.5 -24.5t-74.5 -62.5l-37 38q35 45 90 73.5t130 28.5zM362 655h-59v667l-250 -105v58l309 129v-749z" />
    <glyph glyph-name="twothirds" unicode="&#x2154;" horiz-adv-x="1683" 
d="M452 0h-70l883 1400h70zM1334 749q54 0 99 -14.5t77 -40t50 -61t18 -78.5q0 -72 -39 -117t-103 -63q70 -17 113.5 -63t43.5 -115q0 -52 -21.5 -90t-56.5 -63t-81 -37.5t-94 -12.5q-74 0 -130 23t-98 65l34 40q37 -35 84.5 -55t106.5 -20q38 0 73.5 9t62.5 28t43.5 48
t16.5 69q0 34 -15.5 61.5t-42 47t-61.5 29.5t-75 10h-106v53h106q38 0 70.5 9.5t56.5 28t37.5 46.5t13.5 65q0 32 -13.5 58.5t-38 46t-59 30t-75.5 10.5q-60 0 -105.5 -24.5t-74.5 -62.5l-37 38q35 45 90 73.5t130 28.5zM69 1281q14 22 34 44t47.5 39.5t63 28.5t81.5 11
q55 0 98.5 -17t72.5 -47t44.5 -70t15.5 -86q0 -68 -30.5 -119.5t-74.5 -97.5l-251 -257h385v-55h-469v46l293 300q37 38 61.5 81t24.5 98q0 34 -11.5 65t-33.5 53.5t-54.5 36t-75.5 13.5q-35 0 -63 -8.5t-50 -23t-39 -33t-30 -38.5z" />
    <glyph glyph-name="uni2155" unicode="&#x2155;" horiz-adv-x="1612" 
d="M341 0h-70l883 1400h70zM1487 689h-345l-10 -249h114q67 0 118 -16t85 -44.5t51.5 -68t17.5 -86.5q0 -53 -19 -96t-52.5 -73t-80 -46.5t-101.5 -16.5q-78 0 -140 28t-108 81l36 39q39 -45 93.5 -69t117.5 -24q90 0 142 47.5t52 125.5q0 36 -13.5 66.5t-41 52.5
t-69.5 34.5t-99 12.5h-157l13 356h396v-54zM362 655h-59v667l-250 -105v58l309 129v-749z" />
    <glyph glyph-name="uni2156" unicode="&#x2156;" horiz-adv-x="1723" 
d="M452 0h-70l883 1400h70zM1598 689h-345l-10 -249h114q67 0 118 -16t85 -44.5t51.5 -68t17.5 -86.5q0 -53 -19 -96t-52.5 -73t-80 -46.5t-101.5 -16.5q-78 0 -140 28t-108 81l36 39q39 -45 93.5 -69t117.5 -24q90 0 142 47.5t52 125.5q0 36 -13.5 66.5t-41 52.5
t-69.5 34.5t-99 12.5h-157l13 356h396v-54zM69 1281q14 22 34 44t47.5 39.5t63 28.5t81.5 11q55 0 98.5 -17t72.5 -47t44.5 -70t15.5 -86q0 -68 -30.5 -119.5t-74.5 -97.5l-251 -257h385v-55h-469v46l293 300q37 38 61.5 81t24.5 98q0 34 -11.5 65t-33.5 53.5t-54.5 36
t-75.5 13.5q-35 0 -63 -8.5t-50 -23t-39 -33t-30 -38.5z" />
    <glyph glyph-name="uni2157" unicode="&#x2157;" horiz-adv-x="1690" 
d="M419 0h-70l883 1400h70zM1565 689h-345l-10 -249h114q67 0 118 -16t85 -44.5t51.5 -68t17.5 -86.5q0 -53 -19 -96t-52.5 -73t-80 -46.5t-101.5 -16.5q-78 0 -140 28t-108 81l36 39q39 -45 93.5 -69t117.5 -24q90 0 142 47.5t52 125.5q0 36 -13.5 66.5t-41 52.5
t-69.5 34.5t-99 12.5h-157l13 356h396v-54zM275 1404q54 0 99 -14.5t77 -40t50 -61t18 -78.5q0 -72 -39 -117t-103 -63q70 -17 113.5 -63t43.5 -115q0 -52 -21.5 -90t-56.5 -63t-81 -37.5t-94 -12.5q-74 0 -130 23t-98 65l34 40q37 -35 84.5 -55t106.5 -20q38 0 73.5 9
t62.5 28t43.5 48t16.5 69q0 34 -15.5 61.5t-42 47t-61.5 29.5t-75 10h-106v53h106q38 0 70.5 9.5t56.5 28t37.5 46.5t13.5 65q0 32 -13.5 58.5t-38 46t-59 30t-75.5 10.5q-60 0 -105.5 -24.5t-74.5 -62.5l-37 38q35 45 90 73.5t130 28.5z" />
    <glyph glyph-name="uni2158" unicode="&#x2158;" horiz-adv-x="1710" 
d="M439 0h-70l883 1400h70zM1585 689h-345l-10 -249h114q67 0 118 -16t85 -44.5t51.5 -68t17.5 -86.5q0 -53 -19 -96t-52.5 -73t-80 -46.5t-101.5 -16.5q-78 0 -140 28t-108 81l36 39q39 -45 93.5 -69t117.5 -24q90 0 142 47.5t52 125.5q0 36 -13.5 66.5t-41 52.5
t-69.5 34.5t-99 12.5h-157l13 356h396v-54zM467 873h136v-54h-136v-164h-59v164h-366v43l271 536h64l-266 -525h297v216h59v-216z" />
    <glyph glyph-name="uni2159" unicode="&#x2159;" horiz-adv-x="1529" 
d="M341 0h-70l883 1400h70zM1086 440q25 14 55.5 22t65.5 8q56 0 103 -18t80.5 -50t52.5 -75.5t19 -93.5q0 -51 -19.5 -95t-55 -76t-83.5 -50t-105 -18t-105 18t-83 50t-55 75.5t-20 94.5q0 38 12 73t33 70l226 368h70zM1199 419q-44 0 -81 -14t-63.5 -39t-42 -59.5
t-15.5 -74.5t15 -74t42 -59t64 -39t81 -14t81 14t64 39t42 59t15 74t-15 74.5t-42 59.5t-64 39t-81 14zM362 655h-59v667l-250 -105v58l309 129v-749z" />
    <glyph glyph-name="uni215A" unicode="&#x215a;" horiz-adv-x="1643" 
d="M455 0h-70l883 1400h70zM1200 440q25 14 55.5 22t65.5 8q56 0 103 -18t80.5 -50t52.5 -75.5t19 -93.5q0 -51 -19.5 -95t-55 -76t-83.5 -50t-105 -18t-105 18t-83 50t-55 75.5t-20 94.5q0 38 12 73t33 70l226 368h70zM1313 419q-44 0 -81 -14t-63.5 -39t-42 -59.5
t-15.5 -74.5t15 -74t42 -59t64 -39t81 -14t81 14t64 39t42 59t15 74t-15 74.5t-42 59.5t-64 39t-81 14zM539 1344h-345l-10 -249h114q67 0 118 -16t85 -44.5t51.5 -68t17.5 -86.5q0 -53 -19 -96t-52.5 -73t-80 -46.5t-101.5 -16.5q-78 0 -140 28t-108 81l36 39
q39 -45 93.5 -69t117.5 -24q90 0 142 47.5t52 125.5q0 36 -13.5 66.5t-41 52.5t-69.5 34.5t-99 12.5h-157l13 356h396v-54z" />
    <glyph glyph-name="oneeighth" unicode="&#x215b;" horiz-adv-x="1650" 
d="M341 0h-70l883 1400h70zM1288 749q52 0 98.5 -12.5t81 -37.5t54.5 -61t20 -83q0 -36 -11.5 -65t-32 -51t-48 -38t-58.5 -25q35 -9 66 -24.5t53.5 -38t35.5 -52.5t13 -67q0 -49 -21.5 -86.5t-58.5 -63t-86.5 -38.5t-105.5 -13t-106 13t-87 38.5t-58.5 63t-21.5 86.5
q0 37 13 67t35.5 52.5t53.5 38t66 24.5q-32 9 -59 25t-47 38t-31.5 51t-11.5 65q0 47 20 83t54.5 61t81 37.5t98.5 12.5zM1288 352q-44 0 -82 -10t-66.5 -29t-45 -47.5t-16.5 -65.5q0 -39 16.5 -68t45 -48.5t66.5 -29.5t82 -10q43 0 81.5 10t67 29.5t45 48.5t16.5 68
q0 37 -16.5 65.5t-45 47.5t-67 29t-81.5 10zM1288 698q-39 0 -74 -9.5t-61.5 -28t-41.5 -46.5t-15 -64q0 -37 15 -65t41.5 -46.5t61.5 -28t74 -9.5t74 9.5t61.5 28t41.5 46.5t15 65q0 36 -15 64t-41.5 46.5t-61.5 28t-74 9.5zM362 655h-59v667l-250 -105v58l309 129v-749z
" />
    <glyph glyph-name="threeeighths" unicode="&#x215c;" horiz-adv-x="1728" 
d="M419 0h-70l883 1400h70zM1366 749q52 0 98.5 -12.5t81 -37.5t54.5 -61t20 -83q0 -36 -11.5 -65t-32 -51t-48 -38t-58.5 -25q35 -9 66 -24.5t53.5 -38t35.5 -52.5t13 -67q0 -49 -21.5 -86.5t-58.5 -63t-86.5 -38.5t-105.5 -13t-106 13t-87 38.5t-58.5 63t-21.5 86.5
q0 37 13 67t35.5 52.5t53.5 38t66 24.5q-32 9 -59 25t-47 38t-31.5 51t-11.5 65q0 47 20 83t54.5 61t81 37.5t98.5 12.5zM1366 352q-44 0 -82 -10t-66.5 -29t-45 -47.5t-16.5 -65.5q0 -39 16.5 -68t45 -48.5t66.5 -29.5t82 -10q43 0 81.5 10t67 29.5t45 48.5t16.5 68
q0 37 -16.5 65.5t-45 47.5t-67 29t-81.5 10zM1366 698q-39 0 -74 -9.5t-61.5 -28t-41.5 -46.5t-15 -64q0 -37 15 -65t41.5 -46.5t61.5 -28t74 -9.5t74 9.5t61.5 28t41.5 46.5t15 65q0 36 -15 64t-41.5 46.5t-61.5 28t-74 9.5zM275 1404q54 0 99 -14.5t77 -40t50 -61
t18 -78.5q0 -72 -39 -117t-103 -63q70 -17 113.5 -63t43.5 -115q0 -52 -21.5 -90t-56.5 -63t-81 -37.5t-94 -12.5q-74 0 -130 23t-98 65l34 40q37 -35 84.5 -55t106.5 -20q38 0 73.5 9t62.5 28t43.5 48t16.5 69q0 34 -15.5 61.5t-42 47t-61.5 29.5t-75 10h-106v53h106
q38 0 70.5 9.5t56.5 28t37.5 46.5t13.5 65q0 32 -13.5 58.5t-38 46t-59 30t-75.5 10.5q-60 0 -105.5 -24.5t-74.5 -62.5l-37 38q35 45 90 73.5t130 28.5z" />
    <glyph glyph-name="fiveeighths" unicode="&#x215d;" horiz-adv-x="1765" 
d="M455 0h-70l883 1400h70zM1402 749q52 0 98.5 -12.5t81 -37.5t54.5 -61t20 -83q0 -36 -11.5 -65t-32 -51t-48 -38t-58.5 -25q35 -9 66 -24.5t53.5 -38t35.5 -52.5t13 -67q0 -49 -21.5 -86.5t-58.5 -63t-86.5 -38.5t-105.5 -13t-106 13t-87 38.5t-58.5 63t-21.5 86.5
q0 37 13 67t35.5 52.5t53.5 38t66 24.5q-32 9 -59 25t-47 38t-31.5 51t-11.5 65q0 47 20 83t54.5 61t81 37.5t98.5 12.5zM1402 352q-44 0 -82 -10t-66.5 -29t-45 -47.5t-16.5 -65.5q0 -39 16.5 -68t45 -48.5t66.5 -29.5t82 -10q43 0 81.5 10t67 29.5t45 48.5t16.5 68
q0 37 -16.5 65.5t-45 47.5t-67 29t-81.5 10zM1402 698q-39 0 -74 -9.5t-61.5 -28t-41.5 -46.5t-15 -64q0 -37 15 -65t41.5 -46.5t61.5 -28t74 -9.5t74 9.5t61.5 28t41.5 46.5t15 65q0 36 -15 64t-41.5 46.5t-61.5 28t-74 9.5zM539 1344h-345l-10 -249h114q67 0 118 -16
t85 -44.5t51.5 -68t17.5 -86.5q0 -53 -19 -96t-52.5 -73t-80 -46.5t-101.5 -16.5q-78 0 -140 28t-108 81l36 39q39 -45 93.5 -69t117.5 -24q90 0 142 47.5t52 125.5q0 36 -13.5 66.5t-41 52.5t-69.5 34.5t-99 12.5h-157l13 356h396v-54z" />
    <glyph glyph-name="seveneighths" unicode="&#x215e;" horiz-adv-x="1609" 
d="M299 0h-70l883 1400h70zM1246 749q52 0 98.5 -12.5t81 -37.5t54.5 -61t20 -83q0 -36 -11.5 -65t-32 -51t-48 -38t-58.5 -25q35 -9 66 -24.5t53.5 -38t35.5 -52.5t13 -67q0 -49 -21.5 -86.5t-58.5 -63t-86.5 -38.5t-105.5 -13t-106 13t-87 38.5t-58.5 63t-21.5 86.5
q0 37 13 67t35.5 52.5t53.5 38t66 24.5q-32 9 -59 25t-47 38t-31.5 51t-11.5 65q0 47 20 83t54.5 61t81 37.5t98.5 12.5zM1246 352q-44 0 -82 -10t-66.5 -29t-45 -47.5t-16.5 -65.5q0 -39 16.5 -68t45 -48.5t66.5 -29.5t82 -10q43 0 81.5 10t67 29.5t45 48.5t16.5 68
q0 37 -16.5 65.5t-45 47.5t-67 29t-81.5 10zM1246 698q-39 0 -74 -9.5t-61.5 -28t-41.5 -46.5t-15 -64q0 -37 15 -65t41.5 -46.5t61.5 -28t74 -9.5t74 9.5t61.5 28t41.5 46.5t15 65q0 36 -15 64t-41.5 46.5t-61.5 28t-74 9.5zM570 1352l-346 -697h-69l346 688h-437v55h506
v-46z" />
    <glyph glyph-name="uni215F" unicode="&#x215f;" horiz-adv-x="948" 
d="M341 0h-70l883 1400h70zM362 655h-59v667l-250 -105v58l309 129v-749z" />
    <glyph glyph-name="uni2189" unicode="&#x2189;" horiz-adv-x="1800" 
d="M569 0h-70l883 1400h70zM1450 749q54 0 99 -14.5t77 -40t50 -61t18 -78.5q0 -72 -39 -117t-103 -63q70 -17 113.5 -63t43.5 -115q0 -52 -21.5 -90t-56.5 -63t-81 -37.5t-94 -12.5q-74 0 -130 23t-98 65l34 40q37 -35 84.5 -55t106.5 -20q38 0 73.5 9t62.5 28t43.5 48
t16.5 69q0 34 -15.5 61.5t-42 47t-61.5 29.5t-75 10h-106v53h106q38 0 70.5 9.5t56.5 28t37.5 46.5t13.5 65q0 32 -13.5 58.5t-38 46t-59 30t-75.5 10.5q-60 0 -105.5 -24.5t-74.5 -62.5l-37 38q35 45 90 73.5t130 28.5zM410 1404q63 0 118.5 -25.5t97 -74.5t65.5 -119
t24 -158q0 -89 -24 -159t-65.5 -119t-97 -74.5t-118.5 -25.5t-118.5 25.5t-96.5 74.5t-65 119t-24 159q0 88 24 158t65 119t96.5 74.5t118.5 25.5zM410 1348q-50 0 -94.5 -21.5t-77.5 -62.5t-52.5 -101t-19.5 -136q0 -77 19.5 -136.5t52.5 -101t77.5 -63t94.5 -21.5
q51 0 95.5 21.5t77.5 63t52 101t19 136.5q0 76 -19 136t-52 101t-77.5 62.5t-95.5 21.5z" />
    <glyph glyph-name="arrowleft" unicode="&#x2190;" horiz-adv-x="2000" 
d="M427 606q-19 0 -50 2q23 -18 45 -40t41 -40l443 -442l-46 -45l-596 597l596 596l46 -45l-443 -442q-19 -18 -41 -39.5t-45 -40.5q31 2 50 2h1310v-63h-1310z" />
    <glyph glyph-name="arrowup" unicode="&#x2191;" horiz-adv-x="2000" 
d="M969 1277q0 19 2 49q-18 -23 -39.5 -45t-39.5 -40l-443 -443l-45 46l597 596l596 -596l-45 -46l-442 443q-18 18 -39.5 40t-40.5 45q2 -30 2.5 -49t0.5 -39v-1271h-64v1310z" />
    <glyph glyph-name="arrowright" unicode="&#x2192;" horiz-adv-x="2000" 
d="M1535 669q20 0 39 -0.5t49 -2.5q-23 19 -45 40.5t-40 39.5l-443 442l46 46l596 -597l-596 -597l-46 46l443 442q18 18 40 39.5t45 39.5q-30 -2 -49 -2h-1310v64h1271z" />
    <glyph glyph-name="arrowdown" unicode="&#x2193;" horiz-adv-x="2000" 
d="M1032 165q0 -20 -0.5 -39t-2.5 -49q19 23 40.5 45t39.5 40l442 443l46 -46l-597 -596l-597 596l46 46l442 -443q18 -18 39.5 -40t40.5 -45q-2 30 -2.5 49t-0.5 39v1271h64v-1271z" />
    <glyph glyph-name="uni2196" unicode="&#x2196;" horiz-adv-x="2000" 
d="M588 997q-14 14 -27 27.5t-33 36.5q2 -29 3 -60t1 -57v-625h-64v843l844 1v-65h-626q-26 0 -57 1t-60 4q23 -21 36.5 -34t27.5 -27l899 -899l-45 -45z" />
    <glyph glyph-name="uni2197" unicode="&#x2197;" horiz-adv-x="2000" 
d="M1383 1065q14 14 37 34q-29 -3 -60 -4t-57 -1h-625v64h843l1 -844h-65v626q0 26 0.5 57t4.5 60q-21 -23 -34 -36.5t-27 -27.5l-899 -899l-45 45z" />
    <glyph glyph-name="uni2198" unicode="&#x2198;" horiz-adv-x="2000" 
d="M1428 254q14 -13 34 -36q-3 29 -4 60t-1 57v625h65l-1 -843l-844 -1v64h626q26 0 57 -0.5t60 -3.5q-23 20 -36.5 33t-27.5 27l-899 900l45 45z" />
    <glyph glyph-name="uni2199" unicode="&#x2199;" horiz-adv-x="2000" 
d="M606 204q-13 -13 -36 -33q29 3 60 3.5t57 0.5h625v-64l-843 1v843h64v-625q0 -26 -0.5 -57t-3.5 -60q20 23 33 36l27 27l899 900l45 -45z" />
    <glyph glyph-name="partialdiff" unicode="&#x2202;" horiz-adv-x="1168" 
d="M307 1447q88 -43 176.5 -103t169.5 -133t151 -158.5t121.5 -180t81 -197t29.5 -209.5q0 -102 -36.5 -189t-101 -151t-151.5 -100.5t-189 -36.5q-101 0 -188 36.5t-151 100.5t-100 151t-36 189t36 189.5t100 151.5t151 100.5t188 36.5q97 0 179.5 -33t145.5 -93
q-43 85 -105 167t-139.5 155.5t-169 137t-193.5 112.5zM558 878q-86 0 -160 -31t-128 -86t-85 -130.5t-31 -164.5t31 -164.5t85 -130t128 -85.5t160 -31q87 0 161 31t129 85.5t86 130t31 164.5t-31 164.5t-86 130.5t-129 86t-161 31z" />
    <glyph glyph-name="Delta" unicode="&#x2206;" horiz-adv-x="1429" 
d="M1341 58v-58h-1254v58l583 1346h88zM171 71h1085l-542 1253z" />
    <glyph glyph-name="product" unicode="&#x220f;" horiz-adv-x="1440" 
d="M1221 -265h-75v1594h-854v-1594h-74v1665h1003v-1665z" />
    <glyph glyph-name="summation" unicode="&#x2211;" horiz-adv-x="1321" 
d="M1188 1329h-946l621 -728v-42l-624 -753h951v-71h-1059v58l653 785l-652 764v58h1056v-71z" />
    <glyph glyph-name="minus" unicode="&#x2212;" 
d="M1015 492h-830v64h830v-64z" />
    <glyph glyph-name="uni2219" unicode="&#x2219;" 
d="M600 670q30 0 56.5 -11.5t46.5 -31t31.5 -46t11.5 -57.5q0 -30 -11.5 -56.5t-31.5 -46.5t-46.5 -31.5t-56.5 -11.5q-31 0 -57.5 11.5t-46 31.5t-31 46.5t-11.5 56.5q0 31 11.5 57.5t31 46t46 31t57.5 11.5z" />
    <glyph glyph-name="radical" unicode="&#x221a;" horiz-adv-x="1201" 
d="M553 -265h-91l-423 1000h82l386 -912l574 1617h76z" />
    <glyph glyph-name="infinity" unicode="&#x221e;" horiz-adv-x="1566" 
d="M58 520q0 79 25.5 142.5t69 108t101.5 68t122 23.5q56 0 105 -21t97 -60t97.5 -93.5t106.5 -120.5q57 66 107 120.5t98 93.5t97.5 60t105.5 21q64 0 122 -23.5t101.5 -68t69 -108t25.5 -142.5t-25.5 -142.5t-69 -107.5t-101.5 -68t-122 -24q-56 0 -105.5 21t-97.5 60
t-98 93.5t-107 120.5q-57 -66 -106.5 -120.5t-97.5 -93.5t-97 -60t-105 -21q-64 0 -122 24t-101.5 68t-69 107.5t-25.5 142.5zM1441 520q0 66 -20 117.5t-54 87.5t-80 54.5t-97 18.5q-45 0 -86 -18.5t-83.5 -53.5t-89.5 -87t-105 -119q58 -67 105 -119t89.5 -87t83.5 -53.5
t86 -18.5q51 0 97 18.5t80 54.5t54 87.5t20 117.5zM125 520q0 -66 20 -117.5t54 -87.5t79.5 -54.5t97.5 -18.5q45 0 85.5 18t83 53.5t89.5 87t105 118.5v1q-58 67 -105 119t-89.5 87t-83 53.5t-85.5 18.5q-52 0 -97.5 -18.5t-79.5 -54.5t-54 -87.5t-20 -117.5z" />
    <glyph glyph-name="integral" unicode="&#x222b;" horiz-adv-x="696" 
d="M655 1336q-41 9 -82 9q-60 0 -102 -18t-68.5 -52.5t-38 -84.5t-11.5 -114v-1017q0 -75 -15.5 -136.5t-49 -106t-88 -68.5t-132.5 -24q-56 0 -105 12l18 63q40 -9 82 -9q61 0 103 18t68 52.5t37.5 84.5t11.5 114v1017q0 75 15.5 136.5t49.5 106t88 68.5t132 24
q57 0 105 -12z" />
    <glyph glyph-name="congruent" unicode="&#x2245;" 
d="M1015 327h-830v64h830v-64zM1015 657h-830v64h830v-64zM1021 1050q-49 -55 -105 -83.5t-137 -28.5q-44 0 -77 7.5t-60.5 18t-52 23.5t-50 23.5t-56 18t-69.5 7.5q-65 0 -110.5 -24t-88.5 -72l-39 45q48 55 104 83.5t138 28.5q44 0 77 -7.5t60.5 -18t51.5 -23.5t50 -23.5
t56 -18t70 -7.5q65 0 110 24t88 72z" />
    <glyph glyph-name="approxequal" unicode="&#x2248;" 
d="M1021 723q-49 -55 -105 -83.5t-137 -28.5q-44 0 -77 7.5t-60.5 18t-52 23.5t-50 23.5t-56 18t-69.5 7.5q-65 0 -110.5 -24t-88.5 -72l-39 45q48 55 104 83.5t138 28.5q44 0 77 -7.5t60.5 -18t51.5 -23.5t50 -23.5t56 -18t70 -7.5q65 0 110 24t88 72zM1021 397
q-49 -55 -105 -83.5t-137 -28.5q-44 0 -77 7.5t-60.5 18t-52 23.5t-50 23.5t-56 18t-69.5 7.5q-65 0 -110.5 -24t-88.5 -72l-39 45q48 55 104 83.5t138 28.5q44 0 77 -7.5t60.5 -18t51.5 -23.5t50 -23.5t56 -18t70 -7.5q65 0 110 24t88 72z" />
    <glyph glyph-name="uni2259" unicode="&#x2259;" 
d="M1015 327h-830v64h830v-64zM1015 657h-830v64h830v-64zM832 908l-232 224l-232 -224h-77l266 273h86l266 -273h-77z" />
    <glyph glyph-name="notequal" unicode="&#x2260;" 
d="M1015 327h-477l-132 -271h-68l132 271h-285v64h316l129 266h-445v64h476l133 271h68l-132 -271h285v-64h-316l-130 -266h446v-64z" />
    <glyph glyph-name="lessequal" unicode="&#x2264;" 
d="M975 1003l-678 -309l678 -308v-74l-750 347v71l750 347v-74zM225 169h750v-64h-750v64z" />
    <glyph glyph-name="greaterequal" unicode="&#x2265;" 
d="M225 1077l750 -347v-71l-750 -347v74l678 308l-678 309v74zM975 105h-750v64h750v-64z" />
    <glyph glyph-name="dotmath" unicode="&#x22c5;" 
d="M600 584q24 0 42 -18t18 -42t-18 -42t-42 -18t-42 18t-18 42t18 42t42 18z" />
    <glyph glyph-name="uni2300" unicode="&#x2205;" horiz-adv-x="1394" 
d="M1175 953l-136 -136q53 -60 82.5 -136t29.5 -161q0 -94 -36 -176.5t-97.5 -144t-144 -97.5t-176.5 -36q-86 0 -162 29.5t-136 81.5l-136 -136l-45 46l135 135q-52 60 -81.5 136t-29.5 162q0 93 36 176t97.5 145t144.5 98t177 36q85 0 161 -30t136 -83l137 137zM306 520
q0 -74 25 -139t70 -116l551 551q-52 45 -117 70t-138 25q-81 0 -152 -30.5t-124.5 -84t-84 -124.5t-30.5 -152zM697 130q81 0 152 30.5t124 83.5t83.5 124t30.5 152q0 73 -25 138t-69 116l-551 -551q52 -44 117 -68.5t138 -24.5z" />
    <glyph glyph-name="uni2300" unicode="&#x2300;" horiz-adv-x="1394" 
d="M1175 953l-136 -136q53 -60 82.5 -136t29.5 -161q0 -94 -36 -176.5t-97.5 -144t-144 -97.5t-176.5 -36q-86 0 -162 29.5t-136 81.5l-136 -136l-45 46l135 135q-52 60 -81.5 136t-29.5 162q0 93 36 176t97.5 145t144.5 98t177 36q85 0 161 -30t136 -83l137 137zM306 520
q0 -74 25 -139t70 -116l551 551q-52 45 -117 70t-138 25q-81 0 -152 -30.5t-124.5 -84t-84 -124.5t-30.5 -152zM697 130q81 0 152 30.5t124 83.5t83.5 124t30.5 152q0 73 -25 138t-69 116l-551 -551q52 -44 117 -68.5t138 -24.5z" />
    <glyph glyph-name="uni2460" unicode="&#x2460;" horiz-adv-x="2050" 
d="M1025 1567q120 0 231 -31t207.5 -87.5t175.5 -135.5t135.5 -175t87.5 -207t31 -230t-31 -230t-87.5 -207.5t-135.5 -176t-175.5 -136t-207.5 -87.5t-231 -31t-231 31t-207.5 87.5t-175.5 136t-135.5 176t-87.5 207t-31 230.5q0 119 31 230t87.5 207t135.5 175
t175.5 135.5t207.5 87.5t231 31zM1025 1501q-110 0 -212.5 -28.5t-191.5 -80.5t-162 -125t-125 -162t-80.5 -191t-28.5 -213t28.5 -213.5t80.5 -191.5t125 -162t162 -125.5t191 -81t213 -28.5t213 28.5t191 81t162 125.5t125.5 162t81 191.5t28.5 213.5t-28.5 213t-81 191
t-125.5 162t-162 125t-191.5 80.5t-212.5 28.5zM1116 298h-63v752l-302 -128v63l365 152v-839z" />
    <glyph glyph-name="uni2461" unicode="&#x2461;" horiz-adv-x="2050" 
d="M1025 1567q120 0 231 -31t207.5 -87.5t175.5 -135.5t135.5 -175t87.5 -207t31 -230t-31 -230t-87.5 -207.5t-135.5 -176t-175.5 -136t-207.5 -87.5t-231 -31t-231 31t-207.5 87.5t-175.5 136t-135.5 176t-87.5 207t-31 230.5q0 119 31 230t87.5 207t135.5 175
t175.5 135.5t207.5 87.5t231 31zM1025 1501q-110 0 -212.5 -28.5t-191.5 -80.5t-162 -125t-125 -162t-80.5 -191t-28.5 -213t28.5 -213.5t80.5 -191.5t125 -162t162 -125.5t191 -81t213 -28.5t213 28.5t191 81t162 125.5t125.5 162t81 191.5t28.5 213.5t-28.5 213t-81 191
t-125.5 162t-162 125t-191.5 80.5t-212.5 28.5zM763 999q16 25 38.5 50t53 44.5t70.5 32t90 12.5q63 0 111.5 -19.5t82 -53t50.5 -78.5t17 -97q0 -38 -9.5 -71.5t-26 -63.5t-38.5 -56.5t-46 -50.5l-286 -291h438v-59h-528v49l333 337q42 42 70 91t28 111q0 39 -13 74
t-38.5 61t-63 41t-86.5 15q-39 0 -70.5 -9.5t-56.5 -25.5t-44 -37t-34 -44z" />
    <glyph glyph-name="uni2462" unicode="&#x2462;" horiz-adv-x="2050" 
d="M1025 1567q120 0 231 -31t207.5 -87.5t175.5 -135.5t135.5 -175t87.5 -207t31 -230t-31 -230t-87.5 -207.5t-135.5 -176t-175.5 -136t-207.5 -87.5t-231 -31t-231 31t-207.5 87.5t-175.5 136t-135.5 176t-87.5 207t-31 230.5q0 119 31 230t87.5 207t135.5 175
t175.5 135.5t207.5 87.5t231 31zM1025 1501q-110 0 -212.5 -28.5t-191.5 -80.5t-162 -125t-125 -162t-80.5 -191t-28.5 -213t28.5 -213.5t80.5 -191.5t125 -162t162 -125.5t191 -81t213 -28.5t213 28.5t191 81t162 125.5t125.5 162t81 191.5t28.5 213.5t-28.5 213t-81 191
t-125.5 162t-162 125t-191.5 80.5t-212.5 28.5zM1006 1138q64 0 117 -16.5t90.5 -45.5t58.5 -69t21 -87q0 -81 -45.5 -131.5t-119.5 -70.5q40 -10 73.5 -28t58 -43.5t38 -58t13.5 -70.5q0 -58 -25 -101t-66.5 -71t-95 -42t-111.5 -14q-79 0 -146 27t-113 72l37 41
q42 -39 98.5 -61.5t120.5 -22.5q46 0 89 10.5t76 32.5t52.5 55t19.5 77q0 39 -18 71t-49 54t-72.5 34t-88.5 12h-126v55h126q45 0 83 10.5t66.5 32t44.5 53t16 73.5q0 36 -16.5 66.5t-46.5 52t-71.5 34t-91.5 12.5q-67 0 -120.5 -28.5t-86.5 -68.5l-40 40q40 48 104 81
t146 33z" />
    <glyph glyph-name="uni2463" unicode="&#x2463;" horiz-adv-x="2050" 
d="M1025 1567q120 0 231 -31t207.5 -87.5t175.5 -135.5t135.5 -175t87.5 -207t31 -230t-31 -230t-87.5 -207.5t-135.5 -176t-175.5 -136t-207.5 -87.5t-231 -31t-231 31t-207.5 87.5t-175.5 136t-135.5 176t-87.5 207t-31 230.5q0 119 31 230t87.5 207t135.5 175
t175.5 135.5t207.5 87.5t231 31zM1025 1501q-110 0 -212.5 -28.5t-191.5 -80.5t-162 -125t-125 -162t-80.5 -191t-28.5 -213t28.5 -213.5t80.5 -191.5t125 -162t162 -125.5t191 -81t213 -28.5t213 28.5t191 81t162 125.5t125.5 162t81 191.5t28.5 213.5t-28.5 213t-81 191
t-125.5 162t-162 125t-191.5 80.5t-212.5 28.5zM1170 541h155v-58h-155v-185h-63v185h-415v45l306 602h69l-300 -589h340v241h63v-241z" />
    <glyph glyph-name="uni2464" unicode="&#x2464;" horiz-adv-x="2050" 
d="M1025 1567q120 0 231 -31t207.5 -87.5t175.5 -135.5t135.5 -175t87.5 -207t31 -230t-31 -230t-87.5 -207.5t-135.5 -176t-175.5 -136t-207.5 -87.5t-231 -31t-231 31t-207.5 87.5t-175.5 136t-135.5 176t-87.5 207t-31 230.5q0 119 31 230t87.5 207t135.5 175
t175.5 135.5t207.5 87.5t231 31zM1025 1501q-110 0 -212.5 -28.5t-191.5 -80.5t-162 -125t-125 -162t-80.5 -191t-28.5 -213t28.5 -213.5t80.5 -191.5t125 -162t162 -125.5t191 -81t213 -28.5t213 28.5t191 81t162 125.5t125.5 162t81 191.5t28.5 213.5t-28.5 213t-81 191
t-125.5 162t-162 125t-191.5 80.5t-212.5 28.5zM1277 1072h-389l-13 -283h126q155 0 233.5 -65.5t78.5 -183.5q0 -57 -21 -103t-59 -78.5t-90.5 -50.5t-115.5 -18q-88 0 -157.5 31t-120.5 90l35 45q44 -51 106 -79.5t137 -28.5q51 0 92 13.5t69.5 38.5t44 59.5t15.5 76.5
q0 94 -63.5 145.5t-199.5 51.5h-166l13 397h445v-58z" />
    <glyph glyph-name="uni2465" unicode="&#x2465;" horiz-adv-x="2050" 
d="M1025 1567q120 0 231 -31t207.5 -87.5t175.5 -135.5t135.5 -175t87.5 -207t31 -230t-31 -230t-87.5 -207.5t-135.5 -176t-175.5 -136t-207.5 -87.5t-231 -31t-231 31t-207.5 87.5t-175.5 136t-135.5 176t-87.5 207t-31 230.5q0 119 31 230t87.5 207t135.5 175
t175.5 135.5t207.5 87.5t231 31zM1025 1501q-110 0 -212.5 -28.5t-191.5 -80.5t-162 -125t-125 -162t-80.5 -191t-28.5 -213t28.5 -213.5t80.5 -191.5t125 -162t162 -125.5t191 -81t213 -28.5t213 28.5t191 81t162 125.5t125.5 162t81 191.5t28.5 213.5t-28.5 213t-81 191
t-125.5 162t-162 125t-191.5 80.5t-212.5 28.5zM891 788q30 17 65.5 26t75.5 9q63 0 115.5 -20t90.5 -55.5t59 -84t21 -105.5t-22 -106t-61 -85t-93 -56.5t-118 -20.5t-118 20.5t-93.5 56t-62 84.5t-22.5 106q0 42 12.5 81t35.5 76l257 416h74zM1024 769q-50 0 -92.5 -16
t-73 -44t-48 -67t-17.5 -84t17 -84t48 -67t73.5 -44t92.5 -16t92 16t73 44t48 67t17 84t-17 83.5t-48 67t-73 44.5t-92 16z" />
    <glyph glyph-name="uni2466" unicode="&#x2466;" horiz-adv-x="2050" 
d="M1025 1567q120 0 231 -31t207.5 -87.5t175.5 -135.5t135.5 -175t87.5 -207t31 -230t-31 -230t-87.5 -207.5t-135.5 -176t-175.5 -136t-207.5 -87.5t-231 -31t-231 31t-207.5 87.5t-175.5 136t-135.5 176t-87.5 207t-31 230.5q0 119 31 230t87.5 207t135.5 175
t175.5 135.5t207.5 87.5t231 31zM1025 1501q-110 0 -212.5 -28.5t-191.5 -80.5t-162 -125t-125 -162t-80.5 -191t-28.5 -213t28.5 -213.5t80.5 -191.5t125 -162t162 -125.5t191 -81t213 -28.5t213 28.5t191 81t162 125.5t125.5 162t81 191.5t28.5 213.5t-28.5 213t-81 191
t-125.5 162t-162 125t-191.5 80.5t-212.5 28.5zM1340 1081l-393 -783h-74l393 774h-497v58h571v-49z" />
    </font>
</defs>
</svg>
