<?xml version="1.0" encoding="UTF-8"?>
<svg xmlns="http://www.w3.org/2000/svg" xmlns:xlink="http://www.w3.org/1999/xlink" version="1.2" >
<font id="MarkWebPro-Light W01 Regular">
<font-face  font-family="MarkWebPro-Light W01 " units-per-em="2000" ascent="2202" descent="-478" font-style="normal" font-weight="350" font-stretch="normal" cap-height="1400" x-height="941" underline-position="-200" underline-thickness="100" />
<missing-glyph  horiz-adv-x="1198" d="M182 1400 L1016 1400 L1016 0 L182 0 L182 1400 Z M913 103 L913 1297 L285 1297 L285 103 L913 103 Z " />
<glyph glyph-name="uni0000" d="" />
<glyph glyph-name="space" unicode="&#x20;" horiz-adv-x="530" d="" />
<glyph glyph-name="exclam" unicode="&#x21;" horiz-adv-x="520" d="M311 435 L208 435 L190 1400 L329 1400 L311 435 Z M260 178 Q279 178 296.5 170.5 Q314 163 327 150 Q340 137 348 119.5 Q356 102 356 83 Q356 63 348 45.5 Q340 28 327 15 Q314 2 296.5 -6 Q279 -14 260 -14 Q241 -14 223.5 -6 Q206 2 193 15 Q180 28 172 45.5 Q164 63 164 83 Q164 102 172 119.5 Q180 137 193 150 Q206 163 223.5 170.5 Q241 178 260 178 Z " />
<glyph glyph-name="quotedbl" unicode="&#x22;" horiz-adv-x="1013" d="M407 1440 L407 956 L293 956 L293 1440 L407 1440 Z M719 1440 L719 956 L605 956 L605 1440 L719 1440 Z " />
<glyph glyph-name="numbersign" unicode="&#x23;" horiz-adv-x="1456" d="M495 1025 L575 1400 L682 1400 L602 1025 L992 1025 L1072 1400 L1179 1400 L1099 1025 L1330 1025 L1308 923 L1077 923 L984 483 L1214 483 L1193 382 L962 382 L881 0 L774 0 L855 382 L465 382 L384 0 L277 0 L358 382 L125 382 L147 483 L380 483 L473 923 L240 923 L261 1025 L495 1025 Z M487 483 L877 483 L970 923 L580 923 L487 483 Z " />
<glyph glyph-name="dollar" unicode="&#x24;" horiz-adv-x="1400" d="M762 1585 L762 1394 Q900 1386 1011.5 1345 Q1123 1304 1205 1247 L1145 1151 Q1073 1201 975 1237.5 Q877 1274 762 1282 L762 754 L816 748 Q907 737 983 710.5 Q1059 684 1114 641 Q1169 598 1199 537.5 Q1229 477 1228 398 Q1227 306 1190.5 236 Q1154 166 1091 117 Q1028 68 943.5 40.5 Q859 13 762 6 L762 -190 L657 -190 L657 5 Q589 8 521 22.5 Q453 37 390 58.5 Q327 80 271.5 108.5 Q216 137 175 169 L238 263 Q271 237 318 212.5 Q365 188 420 168 Q475 148 535.5 134 Q596 120 657 116 L656 652 L611 657 Q516 667 441.5 695.5 Q367 724 315.5 768.5 Q264 813 237 873.5 Q210 934 211 1009 Q212 1095 246 1163.5 Q280 1232 340 1281 Q400 1330 481 1358.5 Q562 1387 656 1393 L656 1585 L762 1585 Z M762 640 L762 117 Q837 123 900.5 143 Q964 163 1010 197 Q1056 231 1082.5 279.5 Q1109 328 1109 392 Q1110 496 1022 558 Q934 620 764 640 L762 640 Z M330 1012 Q330 964 348 923.5 Q366 883 405.5 851.5 Q445 820 507 798 Q569 776 656 766 L656 1282 Q584 1276 524.5 1255.5 Q465 1235 422 1200.5 Q379 1166 354.5 1118.5 Q330 1071 330 1012 Z " />
<glyph glyph-name="percent" unicode="&#x25;" horiz-adv-x="1912" d="M456 1415 Q532 1415 597.5 1388 Q663 1361 711 1314 Q759 1267 786.5 1202 Q814 1137 814 1062 Q814 986 786.5 921.5 Q759 857 711 809.5 Q663 762 597.5 735 Q532 708 456 708 Q381 708 316 735 Q251 762 203 809.5 Q155 857 128 921.5 Q101 986 101 1062 Q101 1137 128 1202 Q155 1267 203 1314 Q251 1361 316 1388 Q381 1415 456 1415 Z M456 1315 Q403 1315 357.5 1296 Q312 1277 279 1243.5 Q246 1210 227 1163.5 Q208 1117 208 1062 Q208 1007 227 960.5 Q246 914 279 880.5 Q312 847 357.5 828 Q403 809 456 809 Q510 809 556 828 Q602 847 635.5 880.5 Q669 914 688 960.5 Q707 1007 707 1062 Q707 1117 688 1163.5 Q669 1210 635.5 1243.5 Q602 1277 556 1296 Q510 1315 456 1315 Z M575 0 L455 0 L1338 1400 L1458 1400 L575 0 Z M1453 692 Q1529 692 1595 665 Q1661 638 1709 590.5 Q1757 543 1784.5 478 Q1812 413 1812 338 Q1812 262 1784.5 197.5 Q1757 133 1709 85.5 Q1661 38 1595 11.5 Q1529 -15 1453 -15 Q1378 -15 1313 11.5 Q1248 38 1200.5 85.5 Q1153 133 1126 197.5 Q1099 262 1099 338 Q1099 413 1126 478 Q1153 543 1200.5 590.5 Q1248 638 1313 665 Q1378 692 1453 692 Z M1453 591 Q1400 591 1355 572 Q1310 553 1277 519.5 Q1244 486 1225 439.5 Q1206 393 1206 338 Q1206 283 1225 236.5 Q1244 190 1277 156.5 Q1310 123 1355 104 Q1400 85 1453 85 Q1507 85 1553 104 Q1599 123 1633 156.5 Q1667 190 1686 236.5 Q1705 283 1705 338 Q1705 393 1686 439.5 Q1667 486 1633 519.5 Q1599 553 1553 572 Q1507 591 1453 591 Z " />
<glyph glyph-name="ampersand" unicode="&#x26;" horiz-adv-x="1379" d="M1174 0 L936 232 Q897 181 852.5 136 Q808 91 755 57.5 Q702 24 639.5 4.5 Q577 -15 502 -15 Q414 -15 343 8.5 Q272 32 221.5 76.5 Q171 121 143.5 183.5 Q116 246 116 324 Q116 395 140.5 455 Q165 515 205.5 566 Q246 617 298 662 Q350 707 406 748 Q352 801 311.5 846 Q271 891 245 933.5 Q219 976 206 1019 Q193 1062 193 1113 Q193 1175 217.5 1230 Q242 1285 286 1326 Q330 1367 390.5 1391 Q451 1415 524 1415 Q596 1415 657 1392.5 Q718 1370 761.5 1330.5 Q805 1291 829.5 1237.5 Q854 1184 854 1121 Q854 1060 831 1008 Q808 956 769.5 910 Q731 864 681.5 823 Q632 782 579 743 L925 405 L1155 744 L1247 686 L1005 327 L1339 0 L1174 0 Z M508 92 Q566 92 614 107.5 Q662 123 703.5 151.5 Q745 180 782.5 220 Q820 260 857 309 L483 673 Q434 636 389.5 598 Q345 560 311.5 518 Q278 476 258 428.5 Q238 381 238 327 Q238 275 258 231.5 Q278 188 313.5 157 Q349 126 398.5 109 Q448 92 508 92 Z M315 1106 Q315 1071 325 1040 Q335 1009 357 976.5 Q379 944 415 905.5 Q451 867 502 817 Q549 851 591 885.5 Q633 920 665 956.5 Q697 993 715.5 1032.5 Q734 1072 734 1116 Q734 1157 719 1192 Q704 1227 676.5 1253 Q649 1279 610 1293.5 Q571 1308 524 1308 Q477 1308 439 1292.5 Q401 1277 373 1250 Q345 1223 330 1186 Q315 1149 315 1106 Z " />
<glyph glyph-name="quotesingle" unicode="&#x27;" horiz-adv-x="701" d="M407 1440 L407 956 L293 956 L293 1440 L407 1440 Z " />
<glyph glyph-name="parenleft" unicode="&#x28;" horiz-adv-x="799" d="M715 1319 Q615 1281 533.5 1207.5 Q452 1134 394 1035 Q336 936 304 817 Q272 698 272 568 Q272 439 304 319.5 Q336 200 394 101.5 Q452 3 533.5 -70.5 Q615 -144 715 -182 L676 -287 Q560 -245 463.5 -162.5 Q367 -80 297.5 32 Q228 144 189.5 280.5 Q151 417 151 568 Q151 719 189.5 855.5 Q228 992 297.5 1104.5 Q367 1217 463.5 1299.5 Q560 1382 676 1424 L715 1319 Z " />
<glyph glyph-name="parenright" unicode="&#x29;" horiz-adv-x="799" d="M84 -181 Q184 -143 265.5 -69.5 Q347 4 405 103 Q463 202 495 321 Q527 440 527 570 Q527 699 495 818.5 Q463 938 405 1036.5 Q347 1135 265.5 1208.5 Q184 1282 84 1320 L123 1425 Q239 1383 335.5 1300.5 Q432 1218 501.5 1106 Q571 994 609.5 857.5 Q648 721 648 570 Q648 419 609.5 282.5 Q571 146 501.5 33.5 Q432 -79 335.5 -161.5 Q239 -244 123 -286 L84 -181 Z " />
<glyph glyph-name="asterisk" unicode="&#x2a;" horiz-adv-x="866" d="M390 1168 L390 1440 L478 1440 L478 1169 L734 1253 L761 1169 L504 1085 L664 866 L593 815 L433 1033 L274 815 L203 866 L362 1085 L105 1169 L132 1253 L390 1168 Z " />
<glyph glyph-name="plus" unicode="&#x2b;" horiz-adv-x="1200" d="M545 103 L545 475 L174 475 L174 578 L545 578 L545 955 L650 955 L650 578 L1026 578 L1026 475 L650 475 L650 103 L545 103 Z " />
<glyph glyph-name="comma" unicode="&#x2c;" horiz-adv-x="488" d="M338 234 L242 -249 L143 -249 L205 234 L338 234 Z " />
<glyph glyph-name="hyphen" unicode="&#x2d;" horiz-adv-x="835" d="M689 475 L147 475 L147 578 L689 578 L689 475 Z " />
<glyph glyph-name="period" unicode="&#x2e;" horiz-adv-x="520" d="M260 177 Q279 177 296.5 169.5 Q314 162 327 148.5 Q340 135 348 117.5 Q356 100 356 81 Q356 62 348 44.5 Q340 27 327 14 Q314 1 296.5 -7 Q279 -15 260 -15 Q241 -15 223.5 -7 Q206 1 193 14 Q180 27 172 44.5 Q164 62 164 81 Q164 100 172 117.5 Q180 135 193 148.5 Q206 162 223.5 169.5 Q241 177 260 177 Z " />
<glyph glyph-name="slash" unicode="&#x2f;" horiz-adv-x="984" d="M129 -200 L4 -200 L853 1540 L978 1540 L129 -200 Z " />
<glyph glyph-name="zero" unicode="0" horiz-adv-x="1200" d="M602 1415 Q709 1415 803 1371 Q897 1327 966.5 1238 Q1036 1149 1076 1014.5 Q1116 880 1116 700 Q1116 514 1076 379 Q1036 244 966.5 156.5 Q897 69 803 27 Q709 -15 602 -15 Q494 -15 399.5 27 Q305 69 234.5 156.5 Q164 244 123.5 379 Q83 514 83 700 Q83 886 123.5 1021 Q164 1156 234.5 1243.5 Q305 1331 399.5 1373 Q494 1415 602 1415 Z M602 1302 Q519 1302 446.5 1267.5 Q374 1233 320.5 1160 Q267 1087 236 973 Q205 859 205 700 Q205 541 236 427 Q267 313 320.5 240 Q374 167 446.5 132.5 Q519 98 602 98 Q684 98 755.5 132.5 Q827 167 880.5 240 Q934 313 964.5 427 Q995 541 995 700 Q995 853 964.5 966 Q934 1079 880.5 1154 Q827 1229 755.5 1265.5 Q684 1302 602 1302 Z " />
<glyph glyph-name="one" unicode="1" horiz-adv-x="1200" d="M602 112 L602 1253 L176 1101 L176 1221 L719 1414 L719 112 L1104 112 L1104 0 L189 0 L189 112 L602 112 Z " />
<glyph glyph-name="two" unicode="2" horiz-adv-x="1200" d="M147 1184 Q172 1222 208 1263 Q244 1304 294 1337.5 Q344 1371 411 1393 Q478 1415 564 1415 Q669 1415 751 1382 Q833 1349 888.5 1292 Q944 1235 973 1157.5 Q1002 1080 1002 991 Q1002 926 985.5 870 Q969 814 942.5 765 Q916 716 882 673.5 Q848 631 813 594 L355 112 L1053 112 L1053 0 L181 0 L181 92 L723 662 Q757 697 785.5 734.5 Q814 772 835 812.5 Q856 853 867.5 897.5 Q879 942 879 991 Q879 1056 858.5 1113 Q838 1170 797.5 1212 Q757 1254 697.5 1278.5 Q638 1303 561 1303 Q497 1303 447 1287.5 Q397 1272 357.5 1246 Q318 1220 287.5 1186 Q257 1152 232 1115 L147 1184 Z " />
<glyph glyph-name="three" unicode="3" horiz-adv-x="1200" d="M555 1415 Q657 1415 740.5 1387.5 Q824 1360 884 1310.5 Q944 1261 977 1192 Q1010 1123 1010 1041 Q1010 976 993 923 Q976 870 944.5 828 Q913 786 869 756 Q825 726 771 707 Q830 688 879.5 657 Q929 626 965 584 Q1001 542 1021 488.5 Q1041 435 1041 372 Q1041 274 1001 201 Q961 128 895 80 Q829 32 744 8.5 Q659 -15 568 -15 Q426 -15 316 31.5 Q206 78 130 160 L205 239 Q273 171 364.5 133 Q456 95 565 95 Q635 95 699 112 Q763 129 811.5 164 Q860 199 889 252 Q918 305 918 377 Q918 442 889.5 493.5 Q861 545 812.5 580.5 Q764 616 698.5 634.5 Q633 653 559 653 L366 653 L366 761 L559 761 Q628 761 688 778.5 Q748 796 792 830.5 Q836 865 861.5 916.5 Q887 968 887 1036 Q887 1096 861.5 1146 Q836 1196 790.5 1231 Q745 1266 683 1285.5 Q621 1305 548 1305 Q494 1305 446 1292 Q398 1279 357.5 1257 Q317 1235 283.5 1205 Q250 1175 225 1141 L139 1213 Q170 1256 211.5 1293 Q253 1330 305 1357 Q357 1384 419.5 1399.5 Q482 1415 555 1415 Z " />
<glyph glyph-name="four" unicode="4" horiz-adv-x="1200" d="M877 418 L1130 418 L1130 307 L877 307 L877 0 L760 0 L760 307 L88 307 L88 398 L611 1399 L744 1399 L229 418 L760 418 L760 817 L877 817 L877 418 Z " />
<glyph glyph-name="five" unicode="5" horiz-adv-x="1200" d="M993 1289 L357 1289 L340 831 L559 831 Q683 831 776 799 Q869 767 930.5 712 Q992 657 1022.5 582.5 Q1053 508 1053 423 Q1053 319 1016.5 237.5 Q980 156 916.5 100 Q853 44 767 14.5 Q681 -15 582 -15 Q290 -15 115 199 L194 276 Q266 188 366.5 142.5 Q467 97 581 97 Q664 97 729 121 Q794 145 839 187.5 Q884 230 907.5 288 Q931 346 931 413 Q931 478 908 534 Q885 590 836 631 Q787 672 709.5 695.5 Q632 719 524 719 L229 719 L249 1400 L993 1400 L993 1289 Z " />
<glyph glyph-name="six" unicode="6" horiz-adv-x="1200" d="M417 847 Q461 866 509 876 Q557 886 608 886 Q711 886 799 852 Q887 818 951 757.5 Q1015 697 1051 614.5 Q1087 532 1087 435 Q1087 339 1050 256.5 Q1013 174 948 113.5 Q883 53 793.5 19 Q704 -15 598 -15 Q492 -15 402.5 19 Q313 53 247.5 113.5 Q182 174 145 256.5 Q108 339 108 435 Q108 511 131.5 579.5 Q155 648 199 719 L623 1400 L767 1400 L417 847 Z M598 777 Q518 777 450.5 751.5 Q383 726 333.5 680.5 Q284 635 256.5 572 Q229 509 229 435 Q229 361 256.5 298.5 Q284 236 333.5 190.5 Q383 145 450.5 119.5 Q518 94 598 94 Q677 94 744.5 119.5 Q812 145 861.5 190.5 Q911 236 938.5 298.5 Q966 361 966 435 Q966 509 938.5 572 Q911 635 861.5 680.5 Q812 726 744.5 751.5 Q677 777 598 777 Z " />
<glyph glyph-name="seven" unicode="7" horiz-adv-x="1200" d="M1077 1308 L429 0 L292 0 L936 1289 L134 1289 L134 1400 L1077 1400 L1077 1308 Z " />
<glyph glyph-name="eight" unicode="8" horiz-adv-x="1200" d="M599 1415 Q697 1415 784 1390 Q871 1365 936 1317.5 Q1001 1270 1039 1200.5 Q1077 1131 1077 1041 Q1077 976 1059 924 Q1041 872 1009 831 Q977 790 933.5 759.5 Q890 729 840 709 Q897 689 946.5 658.5 Q996 628 1032.5 586 Q1069 544 1090 490 Q1111 436 1111 369 Q1111 276 1070.5 204.5 Q1030 133 960.5 84.5 Q891 36 797.5 10.5 Q704 -15 599 -15 Q494 -15 401 10.5 Q308 36 238.5 84.5 Q169 133 128.5 204.5 Q88 276 88 369 Q88 436 109 490 Q130 544 166 586 Q202 628 251.5 658.5 Q301 689 358 709 Q307 729 264 759.5 Q221 790 189 831 Q157 872 139 924 Q121 976 121 1041 Q121 1131 159 1200.5 Q197 1270 262 1317.5 Q327 1365 414 1390 Q501 1415 599 1415 Z M599 655 Q519 655 448.5 637 Q378 619 325.5 583.5 Q273 548 242.5 496 Q212 444 212 376 Q212 306 242.5 253.5 Q273 201 326 165.5 Q379 130 449 112 Q519 94 599 94 Q678 94 748.5 112 Q819 130 872 165.5 Q925 201 955.5 253.5 Q986 306 986 376 Q986 444 955.5 496 Q925 548 872.5 583.5 Q820 619 749.5 637 Q679 655 599 655 Z M599 1305 Q526 1305 462 1287.5 Q398 1270 350 1236 Q302 1202 274 1151.5 Q246 1101 246 1035 Q246 966 274 914.5 Q302 863 350 828 Q398 793 462 775.5 Q526 758 599 758 Q672 758 736.5 775.5 Q801 793 849 828 Q897 863 925 914.5 Q953 966 953 1035 Q953 1101 925 1151.5 Q897 1202 849 1236 Q801 1270 736.5 1287.5 Q672 1305 599 1305 Z " />
<glyph glyph-name="nine" unicode="9" horiz-adv-x="1200" d="M781 553 Q738 534 690 524 Q642 514 590 514 Q486 514 398.5 548 Q311 582 247.5 642.5 Q184 703 148 785.5 Q112 868 112 965 Q112 1061 148.5 1143.5 Q185 1226 250.5 1286.5 Q316 1347 405.5 1381 Q495 1415 601 1415 Q707 1415 796.5 1381 Q886 1347 951.5 1286.5 Q1017 1226 1054 1143.5 Q1091 1061 1091 965 Q1091 889 1067.5 820.5 Q1044 752 1000 681 L576 0 L432 0 L781 553 Z M601 623 Q681 623 748.5 648.5 Q816 674 865 719.5 Q914 765 942 828 Q970 891 970 965 Q970 1039 942.5 1101.5 Q915 1164 865.5 1209.5 Q816 1255 748.5 1280.5 Q681 1306 601 1306 Q521 1306 453.5 1280.5 Q386 1255 337 1209.5 Q288 1164 260.5 1101.5 Q233 1039 233 965 Q233 891 260.5 828 Q288 765 337 719.5 Q386 674 453.5 648.5 Q521 623 601 623 Z " />
<glyph glyph-name="colon" unicode="&#x3a;" horiz-adv-x="520" d="M260 956 Q279 956 296.5 948.5 Q314 941 327 927.5 Q340 914 348 896.5 Q356 879 356 860 Q356 841 348 823.5 Q340 806 327 793 Q314 780 296.5 772 Q279 764 260 764 Q241 764 223.5 772 Q206 780 193 793 Q180 806 172 823.5 Q164 841 164 860 Q164 879 172 896.5 Q180 914 193 927.5 Q206 941 223.5 948.5 Q241 956 260 956 Z M260 178 Q279 178 296.5 170.5 Q314 163 327 150 Q340 137 348 119.5 Q356 102 356 83 Q356 63 348 45.5 Q340 28 327 15 Q314 2 296.5 -6 Q279 -14 260 -14 Q241 -14 223.5 -6 Q206 2 193 15 Q180 28 172 45.5 Q164 63 164 83 Q164 102 172 119.5 Q180 137 193 150 Q206 163 223.5 170.5 Q241 178 260 178 Z " />
<glyph glyph-name="semicolon" unicode="&#x3b;" horiz-adv-x="488" d="M251 956 Q270 956 287.5 948.5 Q305 941 318 927.5 Q331 914 338.5 896.5 Q346 879 346 860 Q346 841 338.5 823.5 Q331 806 318 793 Q305 780 287.5 772 Q270 764 251 764 Q232 764 214.5 772 Q197 780 184 793 Q171 806 163 823.5 Q155 841 155 860 Q155 879 163 896.5 Q171 914 184 927.5 Q197 941 214.5 948.5 Q232 956 251 956 Z M338 234 L242 -249 L143 -249 L205 234 L338 234 Z " />
<glyph glyph-name="less" unicode="&#x3c;" horiz-adv-x="1200" d="M986 103 L216 471 L216 584 L986 952 L986 830 L330 528 L986 225 L986 103 Z " />
<glyph glyph-name="equal" unicode="&#x3d;" horiz-adv-x="1200" d="M1026 299 L174 299 L174 403 L1026 403 L1026 299 Z M1026 651 L174 651 L174 754 L1026 754 L1026 651 Z " />
<glyph glyph-name="greater" unicode="&#x3e;" horiz-adv-x="1200" d="M215 952 L985 584 L985 471 L215 103 L215 225 L871 527 L215 830 L215 952 Z " />
<glyph glyph-name="question" unicode="&#x3f;" horiz-adv-x="848" d="M220 435 L220 745 L269 745 Q358 745 429 764.5 Q500 784 549.5 820.5 Q599 857 625.5 909.5 Q652 962 652 1028 Q652 1091 625 1141 Q598 1191 548.5 1226.5 Q499 1262 430 1281 Q361 1300 277 1300 Q245 1300 212 1297.5 Q179 1295 153 1293 L143 1409 Q172 1414 210.5 1416.5 Q249 1419 283 1419 Q395 1419 486 1391.5 Q577 1364 642 1313.5 Q707 1263 742.5 1191.5 Q778 1120 778 1032 Q778 948 748 879 Q718 810 660.5 759.5 Q603 709 520 677.5 Q437 646 331 637 L324 435 L220 435 Z M272 177 Q291 177 308.5 169.5 Q326 162 339 148.5 Q352 135 360 117.5 Q368 100 368 81 Q368 62 360 44.5 Q352 27 339 14 Q326 1 308.5 -7 Q291 -15 272 -15 Q253 -15 235.5 -7 Q218 1 205 14 Q192 27 184 44.5 Q176 62 176 81 Q176 100 184 117.5 Q192 135 205 148.5 Q218 162 235.5 169.5 Q253 177 272 177 Z " />
<glyph glyph-name="at" unicode="&#x40;" horiz-adv-x="1979" d="M1367 399 Q1367 289 1400.5 240 Q1434 191 1495 191 Q1540 191 1577.5 213.5 Q1615 236 1642 279.5 Q1669 323 1684.5 386 Q1700 449 1700 530 Q1700 683 1645.5 808 Q1591 933 1495.5 1022.5 Q1400 1112 1270.5 1161 Q1141 1210 990 1210 Q839 1210 709.5 1156 Q580 1102 484.5 1007 Q389 912 334.5 782 Q280 652 280 500 Q280 397 304.5 304 Q329 211 374.5 131 Q420 51 484 -13.5 Q548 -78 627 -123.5 Q706 -169 797.5 -193.5 Q889 -218 990 -218 Q1115 -218 1225.5 -181.5 Q1336 -145 1431 -77 L1485 -151 Q1378 -229 1253 -269.5 Q1128 -310 990 -310 Q874 -310 768.5 -281.5 Q663 -253 572.5 -201.5 Q482 -150 409 -76.5 Q336 -3 284 87 Q232 177 204 281.5 Q176 386 176 500 Q176 613 204 716.5 Q232 820 284 909 Q336 998 409 1070.5 Q482 1143 572.5 1194.5 Q663 1246 768.5 1274 Q874 1302 990 1302 Q1106 1302 1211.5 1276 Q1317 1250 1407.5 1202 Q1498 1154 1571 1085.5 Q1644 1017 1696 931 Q1748 845 1776 744 Q1804 643 1804 530 Q1804 439 1782.5 360.5 Q1761 282 1720.5 224 Q1680 166 1621.5 133 Q1563 100 1490 100 Q1398 100 1345 146.5 Q1292 193 1276 270 Q1230 195 1151.5 149 Q1073 103 964 103 Q883 103 813 133 Q743 163 691 216 Q639 269 609.5 341.5 Q580 414 580 500 Q580 585 609.5 658 Q639 731 691 784 Q743 837 813 867 Q883 897 964 897 Q1070 897 1146.5 851.5 Q1223 806 1269 733 L1269 884 L1367 884 L1367 399 Z M977 804 Q912 804 857.5 780.5 Q803 757 764 716.5 Q725 676 703 620 Q681 564 681 500 Q681 435 703 379.5 Q725 324 764 283.5 Q803 243 857.5 219.5 Q912 196 977 196 Q1041 196 1095.5 219 Q1150 242 1189.5 282.5 Q1229 323 1251 379 Q1273 435 1273 500 Q1273 565 1251 621 Q1229 677 1189.5 717.5 Q1150 758 1095.5 781 Q1041 804 977 804 Z " />
<glyph glyph-name="A" unicode="A" horiz-adv-x="1406" d="M1366 0 L1235 0 L1065 409 L337 409 L167 0 L40 0 L628 1400 L778 1400 L1366 0 Z M386 525 L1016 525 L701 1281 L386 525 Z " />
<glyph glyph-name="B" unicode="B" horiz-adv-x="1399" d="M750 1400 Q859 1400 950 1380 Q1041 1360 1106.5 1316 Q1172 1272 1208.5 1203 Q1245 1134 1245 1037 Q1245 974 1227.5 922 Q1210 870 1178.5 830.5 Q1147 791 1102.5 763.5 Q1058 736 1004 721 Q1064 706 1113.5 677 Q1163 648 1199 606 Q1235 564 1254.5 508 Q1274 452 1274 382 Q1274 282 1238.5 209.5 Q1203 137 1137.5 90.5 Q1072 44 979.5 22 Q887 0 773 0 L209 0 L209 1400 L750 1400 Z M331 656 L331 115 L768 115 Q853 115 923 129 Q993 143 1042.5 174.5 Q1092 206 1119 258 Q1146 310 1146 386 Q1146 462 1119 514 Q1092 566 1042.5 597.5 Q993 629 923 642.5 Q853 656 768 656 L331 656 Z M331 1285 L331 770 L747 770 Q827 770 895 782.5 Q963 795 1012.5 824.5 Q1062 854 1090 903.5 Q1118 953 1118 1028 Q1118 1102 1090 1151.5 Q1062 1201 1012.5 1230.5 Q963 1260 894.5 1272.5 Q826 1285 746 1285 L331 1285 Z " />
<glyph glyph-name="C" unicode="C" horiz-adv-x="1528" d="M843 1416 Q933 1416 1017 1396 Q1101 1376 1174.5 1338.5 Q1248 1301 1307.5 1248 Q1367 1195 1409 1128 L1307 1060 Q1271 1115 1221.5 1159 Q1172 1203 1112.5 1234 Q1053 1265 984.5 1281.5 Q916 1298 843 1298 Q718 1298 610.5 1255 Q503 1212 423.5 1133 Q344 1054 298.5 944 Q253 834 253 700 Q253 566 298.5 456 Q344 346 423.5 267 Q503 188 610.5 145 Q718 102 843 102 Q916 102 984 118 Q1052 134 1111.5 165 Q1171 196 1220.5 240 Q1270 284 1306 340 L1406 267 Q1362 201 1302.5 149 Q1243 97 1170.5 60 Q1098 23 1015 3.5 Q932 -16 843 -16 Q690 -16 558.5 37 Q427 90 331 184.5 Q235 279 180.5 410.5 Q126 542 126 700 Q126 857 180.5 989 Q235 1121 331 1215.5 Q427 1310 558.5 1363 Q690 1416 843 1416 Z " />
<glyph glyph-name="D" unicode="D" horiz-adv-x="1602" d="M720 1400 Q895 1400 1035 1351 Q1175 1302 1273 1211 Q1371 1120 1424 990.5 Q1477 861 1477 700 Q1477 539 1424 409.5 Q1371 280 1273 189 Q1175 98 1035 49 Q895 0 720 0 L209 0 L209 1400 L720 1400 Z M331 1284 L331 116 L720 116 Q873 116 990 157.5 Q1107 199 1187 275 Q1267 351 1308 459 Q1349 567 1349 700 Q1349 833 1308 941 Q1267 1049 1187 1125.5 Q1107 1202 990 1243 Q873 1284 720 1284 L331 1284 Z " />
<glyph glyph-name="E" unicode="E" horiz-adv-x="1341" d="M1173 0 L209 0 L209 1400 L1166 1400 L1166 1285 L331 1285 L331 762 L1142 762 L1142 648 L331 648 L331 115 L1173 115 L1173 0 Z " />
<glyph glyph-name="F" unicode="F" horiz-adv-x="1287" d="M1128 647 L331 647 L331 0 L209 0 L209 1400 L1161 1400 L1161 1284 L331 1284 L331 763 L1128 763 L1128 647 Z " />
<glyph glyph-name="G" unicode="G" horiz-adv-x="1637" d="M843 1416 Q1009 1416 1148.5 1352.5 Q1288 1289 1385 1177 L1295 1090 Q1214 1187 1098 1242.5 Q982 1298 843 1298 Q718 1298 610.5 1255 Q503 1212 423.5 1133 Q344 1054 298.5 944 Q253 834 253 700 Q253 566 298.5 456 Q344 346 423 267 Q502 188 608.5 145 Q715 102 837 102 Q957 102 1054 138.5 Q1151 175 1220.5 243 Q1290 311 1330.5 407.5 Q1371 504 1378 624 L904 624 L904 738 L1510 738 Q1512 728 1512 720 L1512 705 Q1512 551 1465 419 Q1418 287 1330 190.5 Q1242 94 1117.5 39.5 Q993 -15 837 -15 Q697 -15 568.5 34 Q440 83 341.5 175.5 Q243 268 184.5 400.5 Q126 533 126 700 Q126 858 181 989.5 Q236 1121 332 1216 Q428 1311 559 1363.5 Q690 1416 843 1416 Z " />
<glyph glyph-name="H" unicode="H" horiz-adv-x="1565" d="M331 763 L1233 763 L1233 1400 L1355 1400 L1355 0 L1233 0 L1233 647 L331 647 L331 0 L209 0 L209 1400 L331 1400 L331 763 Z " />
<glyph glyph-name="I" unicode="I" horiz-adv-x="541" d="M331 0 L209 0 L209 1400 L331 1400 L331 0 Z " />
<glyph glyph-name="J" unicode="J" horiz-adv-x="1151" d="M952 502 Q952 377 915 280.5 Q878 184 813 118.5 Q748 53 659 19 Q570 -15 467 -15 Q388 -15 323 1.5 Q258 18 206.5 44.5 Q155 71 115 104 Q75 137 45 171 L127 255 Q153 224 187.5 196.5 Q222 169 264 148 Q306 127 356.5 114.5 Q407 102 466 102 Q546 102 613 128.5 Q680 155 728 206.5 Q776 258 803 335 Q830 412 830 513 L830 1400 L952 1400 L952 502 Z " />
<glyph glyph-name="K" unicode="K" horiz-adv-x="1367" d="M516 646 L331 646 L331 0 L209 0 L209 1400 L331 1400 L331 762 L518 762 L1133 1400 L1291 1400 L616 711 L1333 0 L1167 0 L516 646 Z " />
<glyph glyph-name="L" unicode="L" horiz-adv-x="1204" d="M1162 0 L209 0 L209 1400 L331 1400 L331 116 L1162 116 L1162 0 Z " />
<glyph glyph-name="M" unicode="M" horiz-adv-x="1860" d="M1650 0 L1528 0 L1528 1261 L994 166 L865 166 L331 1255 L331 0 L209 0 L209 1400 L393 1400 L930 309 L1466 1400 L1650 1400 L1650 0 Z " />
<glyph glyph-name="N" unicode="N" horiz-adv-x="1569" d="M1359 0 L1249 0 L332 1190 L331 0 L209 0 L209 1400 L319 1400 L1237 210 L1237 1400 L1359 1400 L1359 0 Z " />
<glyph glyph-name="O" unicode="O" horiz-adv-x="1685" d="M843 1416 Q996 1416 1127.5 1363 Q1259 1310 1355 1215.5 Q1451 1121 1505.5 989 Q1560 857 1560 700 Q1560 542 1505.5 410.5 Q1451 279 1355 184.5 Q1259 90 1127.5 37 Q996 -16 843 -16 Q690 -16 558.5 37 Q427 90 331 184.5 Q235 279 180.5 410.5 Q126 542 126 700 Q126 857 180.5 989 Q235 1121 331 1215.5 Q427 1310 558.5 1363 Q690 1416 843 1416 Z M843 1298 Q718 1298 610.5 1255 Q503 1212 423.5 1133 Q344 1054 298.5 944 Q253 834 253 700 Q253 566 298.5 456 Q344 346 423.5 267 Q503 188 610.5 145 Q718 102 843 102 Q967 102 1074.5 145 Q1182 188 1261.5 267 Q1341 346 1386.5 456 Q1432 566 1432 700 Q1432 834 1386.5 944 Q1341 1054 1261.5 1133 Q1182 1212 1074.5 1255 Q967 1298 843 1298 Z " />
<glyph glyph-name="P" unicode="P" horiz-adv-x="1331" d="M331 570 L331 0 L209 0 L209 1400 L729 1400 Q845 1400 937 1372 Q1029 1344 1092.5 1290.5 Q1156 1237 1190 1160 Q1224 1083 1224 985 Q1224 887 1190 809.5 Q1156 732 1092.5 679 Q1029 626 937 598 Q845 570 729 570 L331 570 Z M331 1285 L331 686 L726 686 Q814 686 883 705 Q952 724 999.5 761.5 Q1047 799 1072 855 Q1097 911 1097 985 Q1097 1059 1072 1115.5 Q1047 1172 999.5 1209.5 Q952 1247 883 1266 Q814 1285 726 1285 L331 1285 Z " />
<glyph glyph-name="Q" unicode="Q" horiz-adv-x="1685" d="M843 1416 Q996 1416 1127.5 1363 Q1259 1310 1355 1215.5 Q1451 1121 1505.5 989 Q1560 857 1560 700 Q1560 564 1519.5 448 Q1479 332 1404 241 L1596 0 L1452 0 L1324 157 Q1230 74 1107 29 Q984 -16 843 -16 Q690 -16 558.5 37 Q427 90 331 184.5 Q235 279 180.5 410.5 Q126 542 126 700 Q126 857 180.5 989 Q235 1121 331 1215.5 Q427 1310 558.5 1363 Q690 1416 843 1416 Z M843 1298 Q718 1298 610.5 1255 Q503 1212 423.5 1133 Q344 1054 298.5 944 Q253 834 253 700 Q253 566 298.5 456 Q344 346 423.5 267 Q503 188 610.5 145 Q718 102 843 102 Q962 102 1065.5 141.5 Q1169 181 1247 253 L903 684 L1049 684 L1324 342 Q1375 414 1403.5 504 Q1432 594 1432 700 Q1432 834 1386.5 944 Q1341 1054 1261.5 1133 Q1182 1212 1074.5 1255 Q967 1298 843 1298 Z " />
<glyph glyph-name="R" unicode="R" horiz-adv-x="1341" d="M743 1400 Q859 1400 949 1374 Q1039 1348 1100.5 1298.5 Q1162 1249 1194 1176.5 Q1226 1104 1226 1011 Q1226 921 1192.5 848.5 Q1159 776 1096.5 725.5 Q1034 675 945 648 Q856 621 744 621 L689 621 L1219 0 L1067 0 L545 621 L331 621 L331 0 L209 0 L209 1400 L743 1400 Z M331 1285 L331 732 L742 732 Q917 732 1008.5 803.5 Q1100 875 1100 1011 Q1100 1146 1008 1215.5 Q916 1285 742 1285 L331 1285 Z " />
<glyph glyph-name="S" unicode="S" horiz-adv-x="1343" d="M1120 1162 Q1038 1220 929 1259.5 Q820 1299 682 1299 Q598 1299 526.5 1280 Q455 1261 403 1225 Q351 1189 321.5 1137.5 Q292 1086 292 1020 Q292 916 373.5 852.5 Q455 789 634 769 L787 752 Q880 741 959 716.5 Q1038 692 1095.5 649.5 Q1153 607 1185 543.5 Q1217 480 1217 393 Q1217 291 1173.5 214.5 Q1130 138 1055 87 Q980 36 880 10.5 Q780 -15 667 -15 Q588 -15 511 -1.5 Q434 12 363.5 35.5 Q293 59 232 91 Q171 123 125 160 L192 257 Q229 228 280 200 Q331 172 392.5 150 Q454 128 523.5 114.5 Q593 101 666 101 Q755 101 832.5 118.5 Q910 136 967 171 Q1024 206 1057 259 Q1090 312 1090 383 Q1090 497 1000 556 Q910 615 735 635 L576 653 Q480 664 404 691 Q328 718 274.5 762.5 Q221 807 193 869 Q165 931 165 1012 Q165 1109 205.5 1184 Q246 1259 316 1310.5 Q386 1362 480.5 1388.5 Q575 1415 683 1415 Q764 1415 835.5 1403 Q907 1391 969 1370 Q1031 1349 1084.5 1321 Q1138 1293 1183 1261 L1120 1162 Z " />
<glyph glyph-name="T" unicode="T" horiz-adv-x="1215" d="M1173 1284 L668 1284 L668 0 L546 0 L546 1284 L42 1284 L42 1400 L1173 1400 L1173 1284 Z " />
<glyph glyph-name="U" unicode="U" horiz-adv-x="1510" d="M1321 545 Q1321 405 1276.5 300 Q1232 195 1155 125 Q1078 55 975 20 Q872 -15 754 -15 Q636 -15 533 20 Q430 55 353.5 125 Q277 195 232.5 300 Q188 405 188 545 L188 1400 L310 1400 L310 554 Q310 438 344 353 Q378 268 437.5 212.5 Q497 157 578 129.5 Q659 102 754 102 Q849 102 930 129.5 Q1011 157 1070.5 212.5 Q1130 268 1164 353 Q1198 438 1198 554 L1198 1400 L1321 1400 L1321 545 Z " />
<glyph glyph-name="V" unicode="V" horiz-adv-x="1385" d="M768 0 L617 0 L40 1400 L170 1400 L694 121 L1219 1400 L1345 1400 L768 0 Z " />
<glyph glyph-name="W" unicode="W" horiz-adv-x="2208" d="M1672 0 L1523 0 L1104 1241 L685 0 L536 0 L64 1400 L193 1400 L612 135 L1037 1400 L1174 1400 L1598 137 L2018 1400 L2144 1400 L1672 0 Z " />
<glyph glyph-name="X" unicode="X" horiz-adv-x="1373" d="M762 716 L1304 0 L1156 0 L686 624 L213 0 L69 0 L610 716 L95 1400 L243 1400 L688 809 L1134 1400 L1279 1400 L762 716 Z " />
<glyph glyph-name="Y" unicode="Y" horiz-adv-x="1263" d="M693 600 L693 0 L571 0 L571 602 L12 1400 L158 1400 L633 715 L1108 1400 L1251 1400 L693 600 Z " />
<glyph glyph-name="Z" unicode="Z" horiz-adv-x="1327" d="M1197 1306 L287 116 L1201 116 L1201 0 L125 0 L125 95 L1034 1284 L140 1284 L140 1400 L1197 1400 L1197 1306 Z " />
<glyph glyph-name="bracketleft" unicode="&#x5b;" horiz-adv-x="738" d="M654 -263 L209 -263 L209 1400 L654 1400 L654 1294 L326 1294 L326 -157 L654 -157 L654 -263 Z " />
<glyph glyph-name="backslash" unicode="&#x5c;" horiz-adv-x="984" d="M6 1540 L131 1540 L980 -200 L855 -200 L6 1540 Z " />
<glyph glyph-name="bracketright" unicode="&#x5d;" horiz-adv-x="738" d="M84 1400 L529 1400 L529 -263 L84 -263 L84 -157 L412 -157 L412 1294 L84 1294 L84 1400 Z " />
<glyph glyph-name="asciicircum" unicode="&#x5e;" horiz-adv-x="1200" d="M188 656 L544 1400 L656 1400 L1012 656 L888 656 L598 1282 L309 656 L188 656 Z " />
<glyph glyph-name="underscore" unicode="&#x5f;" horiz-adv-x="935" d="M940 -253 L-5 -253 L-5 -150 L940 -150 L940 -253 Z " />
<glyph glyph-name="grave" unicode="&#x60;" horiz-adv-x="904" d="M521 1082 L270 1382 L414 1382 L634 1082 L521 1082 Z " />
<glyph glyph-name="a" unicode="a" horiz-adv-x="1244" d="M1063 0 L950 0 L950 181 Q893 92 799.5 38.5 Q706 -15 577 -15 Q478 -15 392 21.5 Q306 58 243 122.5 Q180 187 143.5 276 Q107 365 107 470 Q107 575 143.5 664 Q180 753 243 818 Q306 883 392 919.5 Q478 956 577 956 Q706 956 799.5 902 Q893 848 950 760 L950 941 L1063 941 L1063 0 Z M590 849 Q509 849 441.5 819.5 Q374 790 325.5 739 Q277 688 250 619 Q223 550 223 470 Q223 390 250 321 Q277 252 326 201 Q375 150 442.5 121 Q510 92 590 92 Q670 92 737 120.5 Q804 149 853 200 Q902 251 929 320 Q956 389 956 470 Q956 551 929 620.5 Q902 690 853 740.5 Q804 791 737 820 Q670 849 590 849 Z " />
<glyph glyph-name="b" unicode="b" horiz-adv-x="1245" d="M667 956 Q766 956 852 919.5 Q938 883 1001.5 818 Q1065 753 1101.5 664 Q1138 575 1138 470 Q1138 365 1101.5 276 Q1065 187 1001.5 122.5 Q938 58 852 21.5 Q766 -15 667 -15 Q539 -15 446 38 Q353 91 296 179 L296 0 L182 0 L182 1440 L296 1440 L296 762 Q352 849 445.5 902.5 Q539 956 667 956 Z M654 849 Q574 849 507 820 Q440 791 391.5 740.5 Q343 690 315.5 620.5 Q288 551 288 470 Q288 389 315.5 320 Q343 251 391.5 200 Q440 149 507 120.5 Q574 92 654 92 Q735 92 802.5 121 Q870 150 918.5 201 Q967 252 994 321 Q1021 390 1021 470 Q1021 550 994 619 Q967 688 918 739 Q869 790 802 819.5 Q735 849 654 849 Z " />
<glyph glyph-name="c" unicode="c" horiz-adv-x="1023" d="M589 956 Q694 956 783.5 918.5 Q873 881 936 810 L862 733 Q807 788 738.5 818.5 Q670 849 586 849 Q509 849 442.5 820.5 Q376 792 327 741.5 Q278 691 250.5 621.5 Q223 552 223 470 Q223 388 250.5 318.5 Q278 249 327 199 Q376 149 442.5 120.5 Q509 92 586 92 Q670 92 740.5 124 Q811 156 865 209 L936 131 Q872 60 783 22.5 Q694 -15 589 -15 Q483 -15 394.5 22 Q306 59 242 124 Q178 189 142.5 277.5 Q107 366 107 470 Q107 574 142.5 663 Q178 752 242 817 Q306 882 394.5 919 Q483 956 589 956 Z " />
<glyph glyph-name="d" unicode="d" horiz-adv-x="1244" d="M577 956 Q706 956 799.5 902 Q893 848 950 760 L950 1440 L1063 1440 L1063 0 L950 0 L950 181 Q893 92 799.5 38.5 Q706 -15 577 -15 Q478 -15 392 21.5 Q306 58 243 122.5 Q180 187 143.5 276 Q107 365 107 470 Q107 575 143.5 664 Q180 753 243 818 Q306 883 392 919.5 Q478 956 577 956 Z M590 849 Q509 849 441.5 819.5 Q374 790 325.5 739 Q277 688 250 619 Q223 550 223 470 Q223 390 250 321 Q277 252 326 201 Q375 150 442.5 121 Q510 92 590 92 Q670 92 737 120.5 Q804 149 853 200 Q902 251 929 320 Q956 389 956 470 Q956 551 929 620.5 Q902 690 853 740.5 Q804 791 737 820 Q670 849 590 849 Z " />
<glyph glyph-name="e" unicode="e" horiz-adv-x="1121" d="M573 956 Q667 956 747.5 920.5 Q828 885 886.5 821.5 Q945 758 979 669.5 Q1013 581 1014 476 Q1014 463 1013.5 451.5 Q1013 440 1012 429 L223 429 Q229 347 259.5 283 Q290 219 339 174.5 Q388 130 451.5 107 Q515 84 587 84 Q686 84 764 120 Q842 156 905 218 L966 140 Q921 95 874.5 65 Q828 35 779.5 17 Q731 -1 681 -8 Q631 -15 580 -15 Q477 -15 390 20.5 Q303 56 240 120 Q177 184 142 273 Q107 362 107 470 Q107 576 142.5 665.5 Q178 755 240.5 819.5 Q303 884 388.5 920 Q474 956 573 956 Z M571 855 Q499 855 439.5 830.5 Q380 806 335 762.5 Q290 719 261.5 659 Q233 599 225 527 L898 527 Q892 600 865 660.5 Q838 721 794.5 764 Q751 807 694 831 Q637 855 571 855 Z " />
<glyph glyph-name="f" unicode="f" horiz-adv-x="875" d="M805 837 L400 837 L400 0 L286 0 L286 837 L55 837 L55 941 L286 941 L286 1103 Q286 1181 303 1245.5 Q320 1310 357.5 1356.5 Q395 1403 454 1429 Q513 1455 597 1455 Q675 1455 738.5 1435 Q802 1415 851 1385 L810 1290 Q770 1314 716.5 1331 Q663 1348 604 1348 Q549 1348 510.5 1331.5 Q472 1315 447.5 1283.5 Q423 1252 411.5 1206.5 Q400 1161 400 1103 L400 941 L805 941 L805 837 Z " />
<glyph glyph-name="g" unicode="g" horiz-adv-x="1236" d="M574 956 Q701 956 793.5 901.5 Q886 847 941 757 L941 941 L1055 941 L1055 64 Q1055 -53 1017 -142 Q979 -231 912 -291 Q845 -351 755 -381.5 Q665 -412 561 -412 Q503 -412 447 -402.5 Q391 -393 340 -375.5 Q289 -358 244.5 -333 Q200 -308 165 -276 L223 -193 Q290 -246 375.5 -277 Q461 -308 561 -308 Q640 -308 709.5 -285.5 Q779 -263 830.5 -217 Q882 -171 911.5 -102 Q941 -33 941 59 L941 193 Q886 103 793.5 49 Q701 -5 574 -5 Q475 -5 389.5 30.5 Q304 66 241 129.5 Q178 193 142.5 281.5 Q107 370 107 476 Q107 581 142.5 669.5 Q178 758 241 821.5 Q304 885 389.5 920.5 Q475 956 574 956 Z M586 849 Q506 849 439 820 Q372 791 324 740.5 Q276 690 249.5 622 Q223 554 223 476 Q223 397 249.5 329 Q276 261 324 210.5 Q372 160 439 131 Q506 102 586 102 Q665 102 732 130.5 Q799 159 847.5 209 Q896 259 923 327.5 Q950 396 950 476 Q950 555 923 623.5 Q896 692 847.5 742 Q799 792 732 820.5 Q665 849 586 849 Z " />
<glyph glyph-name="h" unicode="h" horiz-adv-x="1198" d="M296 778 Q324 824 361.5 858 Q399 892 443 913.5 Q487 935 535 945.5 Q583 956 631 956 Q719 956 792 929.5 Q865 903 917.5 854 Q970 805 998.5 734.5 Q1027 664 1027 577 L1027 0 L913 0 L913 542 Q913 613 893 670 Q873 727 834 766.5 Q795 806 739 827 Q683 848 611 848 Q545 848 487.5 825.5 Q430 803 387.5 761.5 Q345 720 320.5 662.5 Q296 605 296 536 L296 0 L182 0 L182 1440 L296 1440 L296 778 Z " />
<glyph glyph-name="i" unicode="i" horiz-adv-x="477" d="M296 0 L182 0 L182 941 L296 941 L296 0 Z M239 1362 Q274 1362 297.5 1338 Q321 1314 321 1279 Q321 1244 297.5 1221 Q274 1198 239 1198 Q204 1198 181 1221 Q158 1244 158 1279 Q158 1314 181 1338 Q204 1362 239 1362 Z " />
<glyph glyph-name="j" unicode="j" horiz-adv-x="480" d="M299 -178 Q299 -293 243.5 -352.5 Q188 -412 89 -412 Q53 -412 18 -402.5 Q-17 -393 -41 -379 L-13 -281 Q6 -292 30 -298.5 Q54 -305 80 -305 Q131 -305 158 -273 Q185 -241 185 -173 L185 941 L299 941 L299 -178 Z M241 1362 Q276 1362 299.5 1338 Q323 1314 323 1279 Q323 1244 299.5 1221 Q276 1198 241 1198 Q206 1198 183 1221 Q160 1244 160 1279 Q160 1314 183 1338 Q206 1362 241 1362 Z " />
<glyph glyph-name="k" unicode="k" horiz-adv-x="1042" d="M296 544 L449 544 L845 941 L989 941 L541 497 L997 0 L852 0 L449 441 L296 441 L296 0 L182 0 L182 1440 L296 1440 L296 544 Z " />
<glyph glyph-name="l" unicode="l" horiz-adv-x="477" d="M296 0 L182 0 L182 1440 L296 1440 L296 0 Z " />
<glyph glyph-name="m" unicode="m" horiz-adv-x="1930" d="M1362 956 Q1450 956 1523.5 929.5 Q1597 903 1649 854 Q1701 805 1730 734.5 Q1759 664 1759 577 L1759 0 L1645 0 L1645 542 Q1645 613 1624.5 670 Q1604 727 1565.5 766.5 Q1527 806 1470.5 827 Q1414 848 1342 848 Q1276 848 1218.5 825.5 Q1161 803 1118.5 761.5 Q1076 720 1051.5 662.5 Q1027 605 1027 536 L1027 0 L913 0 L913 542 Q913 613 893 670 Q873 727 834 766.5 Q795 806 739 827 Q683 848 611 848 Q545 848 487.5 825.5 Q430 803 387.5 761.5 Q345 720 320.5 662.5 Q296 605 296 536 L296 0 L182 0 L182 941 L295 941 L295 776 Q323 823 360.5 857 Q398 891 442 913 Q486 935 534 945.5 Q582 956 631 956 Q697 956 754.5 941 Q812 926 859 898 Q906 870 941 829.5 Q976 789 997 737 Q1023 795 1063 836.5 Q1103 878 1151 904.5 Q1199 931 1253 943.5 Q1307 956 1362 956 Z " />
<glyph glyph-name="n" unicode="n" horiz-adv-x="1198" d="M631 956 Q719 956 792 929.5 Q865 903 917.5 854 Q970 805 998.5 734.5 Q1027 664 1027 577 L1027 0 L913 0 L913 542 Q913 613 893 670 Q873 727 834 766.5 Q795 806 739 827 Q683 848 611 848 Q545 848 487.5 825.5 Q430 803 387.5 761.5 Q345 720 320.5 662.5 Q296 605 296 536 L296 0 L182 0 L182 941 L295 941 L295 776 Q323 823 360.5 857 Q398 891 442 913 Q486 935 534 945.5 Q582 956 631 956 Z " />
<glyph glyph-name="o" unicode="o" horiz-adv-x="1192" d="M595 956 Q700 956 789.5 919 Q879 882 944.5 817 Q1010 752 1047.5 663 Q1085 574 1085 470 Q1085 366 1047.5 277.5 Q1010 189 944.5 124 Q879 59 789.5 22 Q700 -15 595 -15 Q490 -15 401 22 Q312 59 246.5 124 Q181 189 144 277.5 Q107 366 107 470 Q107 574 144 663 Q181 752 246.5 817 Q312 882 401 919 Q490 956 595 956 Z M595 849 Q516 849 448 820.5 Q380 792 330 741.5 Q280 691 251.5 621.5 Q223 552 223 470 Q223 388 251.5 318.5 Q280 249 330 199 Q380 149 448 120.5 Q516 92 595 92 Q674 92 742.5 120.5 Q811 149 861 199 Q911 249 939.5 318.5 Q968 388 968 470 Q968 552 939.5 621.5 Q911 691 861 741.5 Q811 792 742.5 820.5 Q674 849 595 849 Z " />
<glyph glyph-name="p" unicode="p" horiz-adv-x="1245" d="M667 956 Q766 956 852 919.5 Q938 883 1001.5 818 Q1065 753 1101.5 664 Q1138 575 1138 470 Q1138 365 1101.5 276 Q1065 187 1001.5 122.5 Q938 58 852 21.5 Q766 -15 667 -15 Q539 -15 446 38 Q353 91 296 179 L296 -400 L182 -400 L182 941 L296 941 L296 762 Q352 849 445.5 902.5 Q539 956 667 956 Z M654 849 Q574 849 507 820 Q440 791 391.5 740.5 Q343 690 315.5 620.5 Q288 551 288 470 Q288 389 315.5 320 Q343 251 391.5 200 Q440 149 507 120.5 Q574 92 654 92 Q735 92 802.5 121 Q870 150 918.5 201 Q967 252 994 321 Q1021 390 1021 470 Q1021 550 994 619 Q967 688 918 739 Q869 790 802 819.5 Q735 849 654 849 Z " />
<glyph glyph-name="q" unicode="q" horiz-adv-x="1244" d="M577 956 Q706 956 799.5 902 Q893 848 950 760 L950 941 L1063 941 L1063 -400 L950 -400 L950 181 Q893 92 799.5 38.5 Q706 -15 577 -15 Q478 -15 392 21.5 Q306 58 243 122.5 Q180 187 143.5 276 Q107 365 107 470 Q107 575 143.5 664 Q180 753 243 818 Q306 883 392 919.5 Q478 956 577 956 Z M590 849 Q509 849 441.5 819.5 Q374 790 325.5 739 Q277 688 250 619 Q223 550 223 470 Q223 390 250 321 Q277 252 326 201 Q375 150 442.5 121 Q510 92 590 92 Q670 92 737 120.5 Q804 149 853 200 Q902 251 929 320 Q956 389 956 470 Q956 551 929 620.5 Q902 690 853 740.5 Q804 791 737 820 Q670 849 590 849 Z " />
<glyph glyph-name="r" unicode="r" horiz-adv-x="814" d="M584 957 Q635 957 678.5 948.5 Q722 940 760 921 L731 810 Q696 829 651.5 838.5 Q607 848 564 848 Q505 848 455.5 825 Q406 802 370.5 760.5 Q335 719 315 660.5 Q295 602 295 531 L295 0 L182 0 L182 941 L294 941 L294 781 Q340 864 415 910.5 Q490 957 584 957 Z " />
<glyph glyph-name="s" unicode="s" horiz-adv-x="974" d="M809 762 Q785 779 750.5 795.5 Q716 812 675 825.5 Q634 839 586.5 847.5 Q539 856 490 856 Q435 856 389 844.5 Q343 833 310 811 Q277 789 258.5 757.5 Q240 726 240 686 Q240 620 292.5 583.5 Q345 547 454 534 L574 520 Q722 503 802.5 441 Q883 379 883 267 Q883 200 853.5 147.5 Q824 95 771 59 Q718 23 643.5 4 Q569 -15 478 -15 Q375 -15 274 13.5 Q173 42 91 105 L144 190 Q171 169 204 149.5 Q237 130 278 115.5 Q319 101 368.5 92.5 Q418 84 479 84 Q543 84 595.5 95 Q648 106 686 128 Q724 150 745 183 Q766 216 766 260 Q766 392 549 416 L428 429 Q348 438 290.5 459.5 Q233 481 195.5 513 Q158 545 140.5 587.5 Q123 630 123 680 Q123 745 149.5 796 Q176 847 224.5 882.5 Q273 918 340.5 937 Q408 956 489 956 Q601 956 697.5 926 Q794 896 858 850 L809 762 Z " />
<glyph glyph-name="t" unicode="t" horiz-adv-x="904" d="M819 837 L385 837 L385 324 Q385 264 400 220.5 Q415 177 442.5 148.5 Q470 120 508.5 106 Q547 92 594 92 Q655 92 708.5 111.5 Q762 131 804 164 L858 79 Q807 37 738.5 11 Q670 -15 585 -15 Q438 -15 354.5 68 Q271 151 271 322 L271 837 L55 837 L55 941 L271 941 L271 1248 L385 1248 L385 941 L819 941 L819 837 Z " />
<glyph glyph-name="u" unicode="u" horiz-adv-x="1186" d="M1015 389 Q1015 289 981.5 213.5 Q948 138 890.5 87 Q833 36 756.5 10.5 Q680 -15 593 -15 Q506 -15 429 10.5 Q352 36 295 87 Q238 138 204.5 213.5 Q171 289 171 389 L171 941 L285 941 L285 399 Q285 323 307.5 265.5 Q330 208 371 169.5 Q412 131 468.5 111.5 Q525 92 593 92 Q660 92 717 111.5 Q774 131 814.5 169.5 Q855 208 878 265.5 Q901 323 901 399 L901 941 L1015 941 L1015 389 Z " />
<glyph glyph-name="v" unicode="v" horiz-adv-x="1030" d="M581 -2 L450 -2 L34 941 L158 941 L516 113 L876 941 L996 941 L581 -2 Z " />
<glyph glyph-name="w" unicode="w" horiz-adv-x="1725" d="M1237 116 L1556 941 L1674 941 L1305 0 L1171 0 L861 822 L553 0 L420 0 L51 941 L172 941 L490 117 L799 941 L927 941 L1237 116 Z " />
<glyph glyph-name="x" unicode="x" horiz-adv-x="1006" d="M578 482 L970 0 L830 0 L499 398 L170 0 L36 0 L428 481 L49 941 L189 941 L505 559 L822 941 L957 941 L578 482 Z " />
<glyph glyph-name="y" unicode="y" horiz-adv-x="1028" d="M232 -403 L106 -403 L466 210 L24 941 L152 941 L531 322 L886 941 L1011 941 L232 -403 Z " />
<glyph glyph-name="z" unicode="z" horiz-adv-x="1066" d="M931 857 L279 103 L939 103 L939 0 L127 0 L127 83 L784 837 L147 837 L147 941 L931 941 L931 857 Z " />
<glyph glyph-name="braceleft" unicode="&#x7b;" horiz-adv-x="839" d="M689 1294 Q638 1294 595.5 1279 Q553 1264 523.5 1232.5 Q494 1201 479.5 1153 Q465 1105 468 1039 L476 890 Q483 758 428.5 678 Q374 598 273 569 Q374 540 428.5 460 Q483 380 476 248 L468 99 Q465 33 479.5 -15 Q494 -63 523.5 -94.5 Q553 -126 595.5 -141 Q638 -156 689 -156 L755 -156 L755 -262 L689 -262 Q606 -262 541 -238 Q476 -214 432 -167 Q388 -120 367 -50.5 Q346 19 351 111 L359 261 Q362 327 346.5 375 Q331 423 300.5 454.5 Q270 486 225.5 501 Q181 516 126 516 L126 622 Q181 622 225.5 637 Q270 652 300.5 683.5 Q331 715 346.5 763 Q362 811 359 877 L351 1027 Q346 1118 367.5 1188 Q389 1258 433 1305 Q477 1352 541.5 1376 Q606 1400 689 1400 L755 1400 L755 1294 L689 1294 Z " />
<glyph glyph-name="bar" unicode="&#x7c;" horiz-adv-x="701" d="M407 -265 L293 -265 L293 1400 L407 1400 L407 -265 Z " />
<glyph glyph-name="braceright" unicode="&#x7d;" horiz-adv-x="839" d="M150 -156 Q201 -156 243.5 -141 Q286 -126 315.5 -94.5 Q345 -63 359.5 -15 Q374 33 371 99 L363 248 Q355 380 410 460 Q465 540 566 569 Q465 598 410 678 Q355 758 363 890 L371 1039 Q374 1105 359.5 1153 Q345 1201 315.5 1232.5 Q286 1264 243.5 1279 Q201 1294 150 1294 L84 1294 L84 1400 L150 1400 Q232 1400 297.5 1376 Q363 1352 407 1305 Q451 1258 472 1188 Q493 1118 488 1027 L480 877 Q477 811 492.5 763 Q508 715 538.5 683.5 Q569 652 613.5 637 Q658 622 713 622 L713 516 Q658 516 613.5 501 Q569 486 538.5 454.5 Q508 423 492.5 375 Q477 327 480 261 L488 111 Q493 19 471.5 -50.5 Q450 -120 406 -167 Q362 -214 297 -238 Q232 -262 150 -262 L84 -262 L84 -156 L150 -156 Z " />
<glyph glyph-name="asciitilde" unicode="&#x7e;" horiz-adv-x="1200" d="M1036 548 Q984 490 924.5 461.5 Q865 433 782 433 Q737 433 702.5 439.5 Q668 446 639 456.5 Q610 467 585 478.5 Q560 490 534 500.5 Q508 511 477.5 517.5 Q447 524 409 524 Q353 524 310.5 501.5 Q268 479 225 435 L162 507 Q214 565 273.5 593.5 Q333 622 416 622 Q462 622 496.5 615.5 Q531 609 559.5 598.5 Q588 588 613 576.5 Q638 565 664.5 554.5 Q691 544 720.5 537.5 Q750 531 789 531 Q817 531 841 536.5 Q865 542 887 553.5 Q909 565 930 581.5 Q951 598 973 620 L1036 548 Z " />
<glyph glyph-name="uni00A0" unicode="&#xa0;" horiz-adv-x="530" d="" />
<glyph glyph-name="exclamdown" unicode="&#xa1;" horiz-adv-x="520" d="M209 506 L312 506 L330 -459 L191 -459 L209 506 Z M260 763 Q241 763 223.5 770.5 Q206 778 193 791 Q180 804 172 821.5 Q164 839 164 858 Q164 877 172 895 Q180 913 193 926 Q206 939 223.5 947 Q241 955 260 955 Q279 955 296.5 947 Q314 939 327 926 Q340 913 348 895 Q356 877 356 858 Q356 839 348 821.5 Q340 804 327 791 Q314 778 296.5 770.5 Q279 763 260 763 Z " />
<glyph glyph-name="cent" unicode="&#xa2;" horiz-adv-x="1400" d="M798 1400 L798 1184 Q896 1179 980.5 1142 Q1065 1105 1127 1039 L1059 965 Q1005 1016 940.5 1046 Q876 1076 798 1081 L798 319 Q876 324 943.5 355 Q1011 386 1063 436 L1127 361 Q1064 295 980 257.5 Q896 220 798 215 L798 0 L692 0 L692 220 Q599 233 522 274.5 Q445 316 390 379.5 Q335 443 305 524.5 Q275 606 275 700 Q275 793 305 875 Q335 957 390 1020 Q445 1083 522 1124.5 Q599 1166 692 1179 L692 1400 L798 1400 Z M387 700 Q387 627 409.5 564 Q432 501 472.5 452.5 Q513 404 569 371 Q625 338 692 325 L692 1075 Q625 1062 569 1029 Q513 996 472.5 947.5 Q432 899 409.5 836 Q387 773 387 700 Z " />
<glyph glyph-name="sterling" unicode="&#xa3;" horiz-adv-x="1400" d="M1210 0 L190 0 L190 112 L377 112 L377 648 L190 648 L190 752 L377 752 L377 923 Q377 1045 412.5 1137.5 Q448 1230 509.5 1291.5 Q571 1353 653.5 1384 Q736 1415 829 1415 Q941 1415 1033.5 1372 Q1126 1329 1191 1242 L1104 1167 Q1055 1235 985 1269 Q915 1303 829 1303 Q758 1303 697 1279.5 Q636 1256 591 1208 Q546 1160 520 1086.5 Q494 1013 494 914 L494 752 L1039 752 L1039 648 L494 648 L494 112 L1210 112 L1210 0 Z " />
<glyph glyph-name="currency" unicode="&#xa4;" horiz-adv-x="1400" d="M292 1176 L437 1031 Q491 1075 558.5 1099.5 Q626 1124 702 1124 Q777 1124 844.5 1100 Q912 1076 966 1032 L1110 1176 L1177 1108 L1034 964 Q1078 910 1102.5 842.5 Q1127 775 1127 700 Q1127 624 1102.5 556.5 Q1078 489 1034 434 L1178 291 L1110 223 L966 367 Q912 323 844.5 299 Q777 275 702 275 Q626 275 558.5 299.5 Q491 324 436 368 L293 223 L226 291 L369 434 Q325 489 301 556.5 Q277 624 277 700 Q277 775 301 842.5 Q325 910 369 964 L226 1108 L292 1176 Z M702 369 Q771 369 831 394.5 Q891 420 936 465 Q981 510 1006.5 570.5 Q1032 631 1032 700 Q1032 769 1006.5 829 Q981 889 936 934 Q891 979 831 1004.5 Q771 1030 702 1030 Q633 1030 573 1004.5 Q513 979 468 934 Q423 889 397.5 829 Q372 769 372 700 Q372 631 397.5 570.5 Q423 510 468 465 Q513 420 573 394.5 Q633 369 702 369 Z " />
<glyph glyph-name="yen" unicode="&#xa5;" horiz-adv-x="1400" d="M1172 338 L763 338 L763 0 L645 0 L645 338 L235 338 L235 433 L645 433 L645 653 L235 653 L235 748 L593 748 L118 1400 L258 1400 L704 784 L1145 1400 L1283 1400 L814 748 L1172 748 L1172 653 L763 653 L763 433 L1172 433 L1172 338 Z " />
<glyph glyph-name="brokenbar" unicode="&#xa6;" horiz-adv-x="701" d="M407 706 L293 706 L293 1400 L407 1400 L407 706 Z M407 -265 L293 -265 L293 429 L407 429 L407 -265 Z " />
<glyph glyph-name="section" unicode="&#xa7;" horiz-adv-x="1310" d="M1066 1179 Q1030 1205 986 1228.5 Q942 1252 892 1269.5 Q842 1287 786.5 1297.5 Q731 1308 671 1308 Q594 1308 529.5 1292.5 Q465 1277 418 1247.5 Q371 1218 344 1176 Q317 1134 317 1080 Q317 988 399.5 937.5 Q482 887 635 872 L770 859 Q847 851 917.5 830 Q988 809 1041.5 771.5 Q1095 734 1127 680.5 Q1159 627 1159 555 Q1159 467 1114 403 Q1069 339 993 297 Q1059 260 1099 202.5 Q1139 145 1139 64 Q1139 -25 1099.5 -90.5 Q1060 -156 992 -199 Q924 -242 834 -263.5 Q744 -285 643 -285 Q568 -285 497 -272.5 Q426 -260 363 -238 Q300 -216 246 -187.5 Q192 -159 150 -126 L210 -34 Q244 -61 290 -87 Q336 -113 390.5 -133.5 Q445 -154 508.5 -166.5 Q572 -179 643 -179 Q723 -179 792 -164.5 Q861 -150 912.5 -121 Q964 -92 993.5 -48 Q1023 -4 1023 55 Q1023 101 999 136.5 Q975 172 932 197 Q889 222 829.5 237.5 Q770 253 700 261 L557 276 Q476 285 407 307.5 Q338 330 287.5 367.5 Q237 405 209 458.5 Q181 512 181 582 Q181 666 224.5 730 Q268 794 343 836 Q277 874 239 932.5 Q201 991 201 1073 Q201 1154 237.5 1217.5 Q274 1281 337.5 1325 Q401 1369 486.5 1392 Q572 1415 670 1415 Q741 1415 805 1404 Q869 1393 926 1373.5 Q983 1354 1031.5 1328 Q1080 1302 1121 1272 L1066 1179 Z M578 767 Q508 775 450 792 Q378 763 337.5 711 Q297 659 297 588 Q297 497 379 447.5 Q461 398 614 382 L751 367 Q824 359 886 340 Q958 369 1000.5 420 Q1043 471 1043 546 Q1043 592 1019 628 Q995 664 952 689.5 Q909 715 850 730.5 Q791 746 721 753 L578 767 Z " />
<glyph glyph-name="dieresis" unicode="&#xa8;" horiz-adv-x="914" d="M252 1310 Q287 1310 310.5 1286 Q334 1262 334 1227 Q334 1192 310.5 1169 Q287 1146 252 1146 Q217 1146 194 1169 Q171 1192 171 1227 Q171 1262 194 1286 Q217 1310 252 1310 Z M661 1310 Q696 1310 720 1286 Q744 1262 744 1227 Q744 1192 720 1169 Q696 1146 661 1146 Q626 1146 603 1169 Q580 1192 580 1227 Q580 1262 603 1286 Q626 1310 661 1310 Z " />
<glyph glyph-name="copyright" unicode="&#xa9;" horiz-adv-x="1898" d="M949 1500 Q1059 1500 1161 1471.5 Q1263 1443 1352 1391.5 Q1441 1340 1514 1267.5 Q1587 1195 1639 1106.5 Q1691 1018 1719.5 916.5 Q1748 815 1748 706 Q1748 596 1719.5 494.5 Q1691 393 1639 304.5 Q1587 216 1514 143.5 Q1441 71 1352 19 Q1263 -33 1161 -61.5 Q1059 -90 949 -90 Q839 -90 737 -61.5 Q635 -33 546 19 Q457 71 384.5 143.5 Q312 216 260 304.5 Q208 393 179.5 494.5 Q151 596 151 706 Q151 816 179.5 917 Q208 1018 260 1106.5 Q312 1195 384.5 1267.5 Q457 1340 546 1391.5 Q635 1443 737 1471.5 Q839 1500 949 1500 Z M949 1400 Q853 1400 764.5 1375.5 Q676 1351 598.5 1305.5 Q521 1260 458 1197 Q395 1134 349.5 1056.5 Q304 979 279.5 890.5 Q255 802 255 706 Q255 610 279.5 521 Q304 432 349.5 354.5 Q395 277 458 214 Q521 151 598.5 105.5 Q676 60 764.5 35.5 Q853 11 949 11 Q1045 11 1134 35.5 Q1223 60 1300 105.5 Q1377 151 1440.5 214 Q1504 277 1549 354.5 Q1594 432 1619 521 Q1644 610 1644 706 Q1644 850 1589.5 976.5 Q1535 1103 1440.5 1197 Q1346 1291 1219.5 1345.5 Q1093 1400 949 1400 Z M1225 899 Q1184 962 1117.5 997 Q1051 1032 970 1032 Q904 1032 847 1008 Q790 984 747.5 941 Q705 898 680.5 838 Q656 778 656 706 Q656 630 681 569.5 Q706 509 749 467 Q792 425 849 402.5 Q906 380 971 380 Q1052 380 1118.5 415 Q1185 450 1227 512 L1307 449 Q1253 370 1166 325 Q1079 280 971 280 Q881 280 804 311.5 Q727 343 670.5 399 Q614 455 581.5 533.5 Q549 612 549 706 Q549 800 581.5 878 Q614 956 670.5 1012.5 Q727 1069 804 1100.5 Q881 1132 971 1132 Q1078 1132 1167.5 1085 Q1257 1038 1310 957 L1225 899 Z " />
<glyph glyph-name="ordfeminine" unicode="&#xaa;" horiz-adv-x="781" d="M372 1298 Q436 1298 488 1282 Q540 1266 577.5 1232.5 Q615 1199 635.5 1148 Q656 1097 656 1027 L656 634 L563 634 L563 734 Q521 688 459.5 655.5 Q398 623 316 623 Q263 623 220 637.5 Q177 652 147 678 Q117 704 100.5 740 Q84 776 84 820 Q84 907 153.5 958.5 Q223 1010 355 1010 L561 1010 L561 1018 Q561 1121 507.5 1167.5 Q454 1214 362 1214 Q295 1214 244.5 1191.5 Q194 1169 158 1139 L120 1212 Q168 1250 231 1274 Q294 1298 372 1298 Z M337 701 Q408 701 465.5 733 Q523 765 562 811 L562 943 L369 943 Q320 943 284.5 933.5 Q249 924 226.5 907.5 Q204 891 193.5 869 Q183 847 183 822 Q183 797 193.5 775 Q204 753 223.5 736.5 Q243 720 272 710.5 Q301 701 337 701 Z " />
<glyph glyph-name="guillemotleft" unicode="&#xab;" horiz-adv-x="998" d="M834 163 L711 163 L518 527 L711 891 L834 891 L640 527 L834 163 Z M455 163 L332 163 L139 527 L332 891 L455 891 L261 527 L455 163 Z " />
<glyph glyph-name="logicalnot" unicode="&#xac;" horiz-adv-x="1200" d="M1026 158 L920 158 L920 475 L174 475 L174 578 L1026 578 L1026 158 Z " />
<glyph glyph-name="uni00AD" unicode="&#xad;" horiz-adv-x="835" d="M689 475 L147 475 L147 578 L689 578 L689 475 Z " />
<glyph glyph-name="registered" unicode="&#xae;" horiz-adv-x="880" d="M442 1431 Q522 1431 593 1401 Q664 1371 716.5 1318.5 Q769 1266 799.5 1196 Q830 1126 830 1047 Q830 968 799.5 898.5 Q769 829 716.5 777 Q664 725 593 695 Q522 665 442 665 Q360 665 288.5 695 Q217 725 164 777 Q111 829 80.5 898.5 Q50 968 50 1047 Q50 1126 80.5 1196 Q111 1266 164 1318.5 Q217 1371 288.5 1401 Q360 1431 442 1431 Z M442 734 Q506 734 563 758.5 Q620 783 662 825.5 Q704 868 728.5 925 Q753 982 753 1047 Q753 1113 728.5 1170 Q704 1227 662 1269.5 Q620 1312 563.5 1336.5 Q507 1361 442 1361 Q376 1361 318.5 1336.5 Q261 1312 218.5 1269.5 Q176 1227 151.5 1170 Q127 1113 127 1047 Q127 982 151.5 925 Q176 868 218.5 825.5 Q261 783 318.5 758.5 Q376 734 442 734 Z M465 1234 Q532 1234 569.5 1203.5 Q607 1173 607 1120 Q607 1074 575 1044.5 Q543 1015 486 1010 L609 866 L534 866 L416 1010 L366 1010 L366 866 L303 866 L303 1234 L465 1234 Z M366 1179 L366 1061 L464 1061 Q500 1061 521.5 1076 Q543 1091 543 1120 Q543 1149 521.5 1164 Q500 1179 464 1179 L366 1179 Z " />
<glyph glyph-name="macron" unicode="&#xaf;" horiz-adv-x="904" d="M160 1273 L745 1273 L745 1180 L160 1180 L160 1273 Z " />
<glyph glyph-name="degree" unicode="&#xb0;" horiz-adv-x="768" d="M384 753 Q315 753 254 779 Q193 805 148 850 Q103 895 76.5 955.5 Q50 1016 50 1085 Q50 1153 76.5 1213 Q103 1273 148 1318 Q193 1363 254 1389 Q315 1415 384 1415 Q453 1415 514 1389 Q575 1363 620 1318 Q665 1273 691.5 1213 Q718 1153 718 1085 Q718 1016 691.5 955.5 Q665 895 620 850 Q575 805 514 779 Q453 753 384 753 Z M384 846 Q432 846 475 864.5 Q518 883 550.5 915.5 Q583 948 601.5 991.5 Q620 1035 620 1085 Q620 1134 601.5 1177 Q583 1220 550.5 1252.5 Q518 1285 475 1303.5 Q432 1322 384 1322 Q335 1322 292 1303.5 Q249 1285 217 1252.5 Q185 1220 166.5 1177 Q148 1134 148 1085 Q148 1035 166.5 991.5 Q185 948 217 915.5 Q249 883 292 864.5 Q335 846 384 846 Z " />
<glyph glyph-name="plusminus" unicode="&#xb1;" horiz-adv-x="1200" d="M545 298 L545 623 L174 623 L174 727 L545 727 L545 1088 L650 1088 L650 727 L1026 727 L1026 623 L650 623 L650 298 L545 298 Z M1026 72 L174 72 L174 176 L1026 176 L1026 72 Z " />
<glyph glyph-name="twosuperior" unicode="&#xb2;" horiz-adv-x="657" d="M66 1279 Q81 1301 103 1324 Q125 1347 155 1365.5 Q185 1384 223.5 1396 Q262 1408 312 1408 Q371 1408 417 1390.5 Q463 1373 494.5 1341.5 Q526 1310 542.5 1267 Q559 1224 559 1174 Q559 1105 528.5 1051.5 Q498 998 449 949 L225 722 L586 722 L586 634 L90 634 L90 708 L382 1003 Q417 1038 439.5 1078 Q462 1118 462 1167 Q462 1198 451.5 1225.5 Q441 1253 420.5 1273.5 Q400 1294 370.5 1305.5 Q341 1317 304 1317 Q271 1317 245 1309 Q219 1301 197.5 1287.5 Q176 1274 159 1256.5 Q142 1239 128 1220 L66 1279 Z " />
<glyph glyph-name="threesuperior" unicode="&#xb3;" horiz-adv-x="658" d="M293 1408 Q351 1408 399 1393 Q447 1378 481.5 1350.5 Q516 1323 535 1285 Q554 1247 554 1201 Q554 1132 517.5 1086.5 Q481 1041 421 1020 Q489 1000 529.5 953 Q570 906 570 839 Q570 785 547 744.5 Q524 704 486.5 677.5 Q449 651 400 638 Q351 625 299 625 Q219 625 157 651 Q95 677 51 723 L106 786 Q142 751 190 731 Q238 711 295 711 Q330 711 362 719 Q394 727 418.5 744 Q443 761 457.5 786.5 Q472 812 472 847 Q472 878 457.5 902.5 Q443 927 418.5 943.5 Q394 960 361 969 Q328 978 291 978 L188 978 L188 1062 L291 1062 Q326 1062 356 1070.5 Q386 1079 408.5 1095.5 Q431 1112 443.5 1137 Q456 1162 456 1194 Q456 1223 443.5 1246.5 Q431 1270 409 1287 Q387 1304 356.5 1313 Q326 1322 289 1322 Q229 1322 185 1297.5 Q141 1273 112 1238 L54 1298 Q92 1345 151 1376.5 Q210 1408 293 1408 Z " />
<glyph glyph-name="acute" unicode="&#xb4;" horiz-adv-x="904" d="M270 1082 L490 1382 L634 1382 L383 1082 L270 1082 Z " />
<glyph glyph-name="mu" unicode="&#xb5;" horiz-adv-x="1197" d="M171 -400 L171 941 L285 941 L285 399 Q285 328 305 271 Q325 214 364 174.5 Q403 135 459 114 Q515 93 587 93 Q653 93 710.5 115.5 Q768 138 810.5 179.5 Q853 221 877.5 278.5 Q902 336 902 405 L902 941 L1016 941 L1016 0 L903 0 L903 165 Q875 118 837.5 84 Q800 50 756 28 Q712 6 664 -4.5 Q616 -15 567 -15 Q479 -15 407.5 11.5 Q336 38 284 92 L284 -400 L171 -400 Z " />
<glyph glyph-name="paragraph" unicode="&#xb6;" horiz-adv-x="1117" d="M537 749 L535 749 Q444 749 372.5 771 Q301 793 251.5 835 Q202 877 176 937 Q150 997 150 1074 Q150 1151 176 1211.5 Q202 1272 251.5 1314 Q301 1356 372.5 1378 Q444 1400 535 1400 L628 1400 L628 0 L537 0 L537 749 Z M733 1400 L824 1400 L824 0 L733 0 L733 1400 Z " />
<glyph glyph-name="periodcentered" unicode="&#xb7;" horiz-adv-x="749" d="M375 623 Q394 623 411.5 615.5 Q429 608 442 594.5 Q455 581 462.5 563.5 Q470 546 470 527 Q470 508 462.5 490.5 Q455 473 442 460 Q429 447 411.5 439 Q394 431 375 431 Q356 431 338.5 439 Q321 447 308 460 Q295 473 287 490.5 Q279 508 279 527 Q279 546 287 563.5 Q295 581 308 594.5 Q321 608 338.5 615.5 Q356 623 375 623 Z " />
<glyph glyph-name="cedilla" unicode="&#xb8;" horiz-adv-x="973" d="M495 -323 L376 -323 L484 6 L598 5 L495 -323 Z " />
<glyph glyph-name="onesuperior" unicode="&#xb9;" horiz-adv-x="541" d="M378 634 L283 634 L283 1275 L51 1180 L51 1274 L378 1407 L378 634 Z " />
<glyph glyph-name="ordmasculine" unicode="&#xba;" horiz-adv-x="849" d="M424 1298 Q497 1298 559.5 1272.5 Q622 1247 667.5 1202 Q713 1157 739 1095 Q765 1033 765 961 Q765 889 739 827 Q713 765 667.5 719.5 Q622 674 559.5 648.5 Q497 623 424 623 Q351 623 289 648.5 Q227 674 181.5 719.5 Q136 765 110 827 Q84 889 84 961 Q84 1033 110 1095 Q136 1157 181.5 1202 Q227 1247 289 1272.5 Q351 1298 424 1298 Z M424 1210 Q372 1210 327.5 1191 Q283 1172 250.5 1139 Q218 1106 199.5 1060.5 Q181 1015 181 961 Q181 907 199.5 861.5 Q218 816 250.5 782.5 Q283 749 327.5 730.5 Q372 712 424 712 Q476 712 521 730.5 Q566 749 599 782.5 Q632 816 650.5 861.5 Q669 907 669 961 Q669 1015 650.5 1060.5 Q632 1106 599 1139 Q566 1172 521 1191 Q476 1210 424 1210 Z " />
<glyph glyph-name="guillemotright" unicode="&#xbb;" horiz-adv-x="998" d="M164 891 L287 891 L480 527 L287 163 L164 163 L358 527 L164 891 Z M543 891 L666 891 L859 527 L666 163 L543 163 L737 527 L543 891 Z " />
<glyph glyph-name="onequarter" unicode="&#xbc;" horiz-adv-x="1582" d="M388 0 L273 0 L1156 1400 L1271 1400 L388 0 Z M1413 244 L1541 244 L1541 157 L1413 157 L1413 0 L1318 0 L1318 157 L953 157 L953 226 L1227 764 L1331 764 L1065 244 L1318 244 L1318 461 L1413 461 L1413 244 Z M378 634 L283 634 L283 1275 L51 1180 L51 1274 L378 1407 L378 634 Z " />
<glyph glyph-name="onehalf" unicode="&#xbd;" horiz-adv-x="1640" d="M388 0 L273 0 L1156 1400 L1271 1400 L388 0 Z M1049 645 Q1064 667 1086 690 Q1108 713 1138 731.5 Q1168 750 1206.5 762 Q1245 774 1295 774 Q1354 774 1400 756.5 Q1446 739 1477.5 707.5 Q1509 676 1525.5 633 Q1542 590 1542 540 Q1542 471 1511.5 417.5 Q1481 364 1432 315 L1208 88 L1569 88 L1569 0 L1073 0 L1073 74 L1365 369 Q1400 404 1422.5 444 Q1445 484 1445 533 Q1445 564 1434.5 591.5 Q1424 619 1403.5 639.5 Q1383 660 1353.5 671.5 Q1324 683 1287 683 Q1254 683 1228 675 Q1202 667 1180.5 653.5 Q1159 640 1142 622.5 Q1125 605 1111 586 L1049 645 Z M378 634 L283 634 L283 1275 L51 1180 L51 1274 L378 1407 L378 634 Z " />
<glyph glyph-name="threequarters" unicode="&#xbe;" horiz-adv-x="1677" d="M484 0 L369 0 L1252 1400 L1367 1400 L484 0 Z M1508 244 L1636 244 L1636 157 L1508 157 L1508 0 L1413 0 L1413 157 L1048 157 L1048 226 L1322 764 L1426 764 L1160 244 L1413 244 L1413 461 L1508 461 L1508 244 Z M293 1408 Q351 1408 399 1393 Q447 1378 481.5 1350.5 Q516 1323 535 1285 Q554 1247 554 1201 Q554 1132 517.5 1086.5 Q481 1041 421 1020 Q489 1000 529.5 953 Q570 906 570 839 Q570 785 547 744.5 Q524 704 486.5 677.5 Q449 651 400 638 Q351 625 299 625 Q219 625 157 651 Q95 677 51 723 L106 786 Q142 751 190 731 Q238 711 295 711 Q330 711 362 719 Q394 727 418.5 744 Q443 761 457.5 786.5 Q472 812 472 847 Q472 878 457.5 902.5 Q443 927 418.5 943.5 Q394 960 361 969 Q328 978 291 978 L188 978 L188 1062 L291 1062 Q326 1062 356 1070.5 Q386 1079 408.5 1095.5 Q431 1112 443.5 1137 Q456 1162 456 1194 Q456 1223 443.5 1246.5 Q431 1270 409 1287 Q387 1304 356.5 1313 Q326 1322 289 1322 Q229 1322 185 1297.5 Q141 1273 112 1238 L54 1298 Q92 1345 151 1376.5 Q210 1408 293 1408 Z " />
<glyph glyph-name="questiondown" unicode="&#xbf;" horiz-adv-x="848" d="M628 506 L628 196 L579 196 Q490 196 419 176.5 Q348 157 298.5 120.5 Q249 84 222.5 31.5 Q196 -21 196 -87 Q196 -150 223 -200 Q250 -250 299.5 -285.5 Q349 -321 418 -340 Q487 -359 571 -359 Q603 -359 636 -356.5 Q669 -354 695 -352 L705 -468 Q676 -473 637.5 -475.5 Q599 -478 565 -478 Q453 -478 362 -450.5 Q271 -423 206 -372.5 Q141 -322 105.5 -250.5 Q70 -179 70 -91 Q70 -7 100 61.5 Q130 130 187 181 Q244 232 327 263 Q410 294 516 303 L524 506 L628 506 Z M576 764 Q557 764 539.5 771.5 Q522 779 509 792.5 Q496 806 488 823 Q480 840 480 860 Q480 879 488 896.5 Q496 914 509 927 Q522 940 539.5 948 Q557 956 576 956 Q595 956 612.5 948 Q630 940 643 927 Q656 914 664 896.5 Q672 879 672 860 Q672 840 664 823 Q656 806 643 792.5 Q630 779 612.5 771.5 Q595 764 576 764 Z " />
<glyph glyph-name="Agrave" unicode="&#xc0;" horiz-adv-x="1406" d="M1366 0 L1235 0 L1065 409 L337 409 L167 0 L40 0 L628 1400 L778 1400 L1366 0 Z M386 525 L1016 525 L701 1281 L386 525 Z M462 1797 L606 1797 L826 1497 L713 1497 L462 1797 Z " />
<glyph glyph-name="Aacute" unicode="&#xc1;" horiz-adv-x="1406" d="M1366 0 L1235 0 L1065 409 L337 409 L167 0 L40 0 L628 1400 L778 1400 L1366 0 Z M386 525 L1016 525 L701 1281 L386 525 Z M572 1497 L792 1797 L936 1797 L685 1497 L572 1497 Z " />
<glyph glyph-name="Acircumflex" unicode="&#xc2;" horiz-adv-x="1406" d="M1366 0 L1235 0 L1065 409 L337 409 L167 0 L40 0 L628 1400 L778 1400 L1366 0 Z M386 525 L1016 525 L701 1281 L386 525 Z M903 1503 L703 1708 L503 1503 L380 1503 L628 1785 L778 1785 L1026 1503 L903 1503 Z " />
<glyph glyph-name="Atilde" unicode="&#xc3;" horiz-adv-x="1406" d="M1366 0 L1235 0 L1065 409 L337 409 L167 0 L40 0 L628 1400 L778 1400 L1366 0 Z M386 525 L1016 525 L701 1281 L386 525 Z M363 1632 Q405 1687 452.5 1714.5 Q500 1742 569 1742 Q620 1742 654.5 1728.5 Q689 1715 717.5 1699 Q746 1683 773 1669.5 Q800 1656 836 1656 Q878 1656 910 1675.5 Q942 1695 974 1733 L1043 1668 Q1001 1613 952.5 1585 Q904 1557 836 1557 Q786 1557 751.5 1570.5 Q717 1584 688.5 1600.5 Q660 1617 632.5 1630.5 Q605 1644 569 1644 Q527 1644 495 1624.5 Q463 1605 431 1567 L363 1632 Z " />
<glyph glyph-name="Adieresis" unicode="&#xc4;" horiz-adv-x="1406" d="M1366 0 L1235 0 L1065 409 L337 409 L167 0 L40 0 L628 1400 L778 1400 L1366 0 Z M386 525 L1016 525 L701 1281 L386 525 Z M498 1725 Q533 1725 556.5 1701 Q580 1677 580 1642 Q580 1607 556.5 1584 Q533 1561 498 1561 Q463 1561 440 1584 Q417 1607 417 1642 Q417 1677 440 1701 Q463 1725 498 1725 Z M907 1725 Q942 1725 966 1701 Q990 1677 990 1642 Q990 1607 966 1584 Q942 1561 907 1561 Q872 1561 849 1584 Q826 1607 826 1642 Q826 1677 849 1701 Q872 1725 907 1725 Z " />
<glyph glyph-name="Aring" unicode="&#xc5;" horiz-adv-x="1406" d="M1366 0 L1235 0 L1065 409 L337 409 L167 0 L40 0 L628 1400 L778 1400 L1366 0 Z M386 525 L1016 525 L701 1281 L386 525 Z M703 1481 Q659 1481 619.5 1497.5 Q580 1514 551 1543 Q522 1572 505 1611 Q488 1650 488 1694 Q488 1738 505 1776.5 Q522 1815 551 1844 Q580 1873 619.5 1890 Q659 1907 703 1907 Q747 1907 786 1890 Q825 1873 854.5 1844 Q884 1815 901 1776.5 Q918 1738 918 1694 Q918 1650 901 1611 Q884 1572 854.5 1543 Q825 1514 786 1497.5 Q747 1481 703 1481 Z M703 1554 Q731 1554 756.5 1565 Q782 1576 800.5 1595 Q819 1614 830 1639.5 Q841 1665 841 1694 Q841 1723 830 1748.5 Q819 1774 800.5 1792.5 Q782 1811 756.5 1822 Q731 1833 703 1833 Q674 1833 649 1822 Q624 1811 605.5 1792.5 Q587 1774 576 1748.5 Q565 1723 565 1694 Q565 1665 576 1639.5 Q587 1614 605.5 1595 Q624 1576 649 1565 Q674 1554 703 1554 Z " />
<glyph glyph-name="AE" unicode="&#xc6;" horiz-adv-x="2265" d="M2097 0 L1133 0 L1133 390 L475 390 L179 0 L32 0 L1099 1400 L2090 1400 L2090 1285 L1255 1285 L1255 762 L2066 762 L2066 648 L1255 648 L1255 115 L2097 115 L2097 0 Z M1133 506 L1133 1254 L564 506 L1133 506 Z " />
<glyph glyph-name="Ccedilla" unicode="&#xc7;" horiz-adv-x="1528" d="M843 1416 Q933 1416 1017 1396 Q1101 1376 1174.5 1338.5 Q1248 1301 1307.5 1248 Q1367 1195 1409 1128 L1307 1060 Q1271 1115 1221.5 1159 Q1172 1203 1112.5 1234 Q1053 1265 984.5 1281.5 Q916 1298 843 1298 Q718 1298 610.5 1255 Q503 1212 423.5 1133 Q344 1054 298.5 944 Q253 834 253 700 Q253 566 298.5 456 Q344 346 423.5 267 Q503 188 610.5 145 Q718 102 843 102 Q916 102 984 118 Q1052 134 1111.5 165 Q1171 196 1220.5 240 Q1270 284 1306 340 L1406 267 Q1362 201 1302.5 149 Q1243 97 1170.5 60 Q1098 23 1015 3.5 Q932 -16 843 -16 Q690 -16 558.5 37 Q427 90 331 184.5 Q235 279 180.5 410.5 Q126 542 126 700 Q126 857 180.5 989 Q235 1121 331 1215.5 Q427 1310 558.5 1363 Q690 1416 843 1416 Z M810 -323 L686 -323 L795 6 L913 5 L810 -323 Z " />
<glyph glyph-name="Egrave" unicode="&#xc8;" horiz-adv-x="1341" d="M1173 0 L209 0 L209 1400 L1166 1400 L1166 1285 L331 1285 L331 762 L1142 762 L1142 648 L331 648 L331 115 L1173 115 L1173 0 Z M440 1797 L584 1797 L804 1497 L691 1497 L440 1797 Z " />
<glyph glyph-name="Eacute" unicode="&#xc9;" horiz-adv-x="1341" d="M1173 0 L209 0 L209 1400 L1166 1400 L1166 1285 L331 1285 L331 762 L1142 762 L1142 648 L331 648 L331 115 L1173 115 L1173 0 Z M550 1497 L770 1797 L914 1797 L663 1497 L550 1497 Z " />
<glyph glyph-name="Ecircumflex" unicode="&#xca;" horiz-adv-x="1341" d="M1173 0 L209 0 L209 1400 L1166 1400 L1166 1285 L331 1285 L331 762 L1142 762 L1142 648 L331 648 L331 115 L1173 115 L1173 0 Z M881 1503 L681 1708 L481 1503 L358 1503 L606 1785 L756 1785 L1004 1503 L881 1503 Z " />
<glyph glyph-name="Edieresis" unicode="&#xcb;" horiz-adv-x="1341" d="M1173 0 L209 0 L209 1400 L1166 1400 L1166 1285 L331 1285 L331 762 L1142 762 L1142 648 L331 648 L331 115 L1173 115 L1173 0 Z M476 1725 Q511 1725 534.5 1701 Q558 1677 558 1642 Q558 1607 534.5 1584 Q511 1561 476 1561 Q441 1561 418 1584 Q395 1607 395 1642 Q395 1677 418 1701 Q441 1725 476 1725 Z M885 1725 Q920 1725 944 1701 Q968 1677 968 1642 Q968 1607 944 1584 Q920 1561 885 1561 Q850 1561 827 1584 Q804 1607 804 1642 Q804 1677 827 1701 Q850 1725 885 1725 Z " />
<glyph glyph-name="Igrave" unicode="&#xcc;" horiz-adv-x="541" d="M331 0 L209 0 L209 1400 L331 1400 L331 0 Z M29 1797 L173 1797 L393 1497 L280 1497 L29 1797 Z " />
<glyph glyph-name="Iacute" unicode="&#xcd;" horiz-adv-x="541" d="M331 0 L209 0 L209 1400 L331 1400 L331 0 Z M139 1497 L359 1797 L503 1797 L252 1497 L139 1497 Z " />
<glyph glyph-name="Icircumflex" unicode="&#xce;" horiz-adv-x="541" d="M331 0 L209 0 L209 1400 L331 1400 L331 0 Z M470 1503 L270 1708 L70 1503 L-53 1503 L195 1785 L345 1785 L593 1503 L470 1503 Z " />
<glyph glyph-name="Idieresis" unicode="&#xcf;" horiz-adv-x="541" d="M331 0 L209 0 L209 1400 L331 1400 L331 0 Z M65 1725 Q100 1725 123.5 1701 Q147 1677 147 1642 Q147 1607 123.5 1584 Q100 1561 65 1561 Q30 1561 7 1584 Q-16 1607 -16 1642 Q-16 1677 7 1701 Q30 1725 65 1725 Z M474 1725 Q509 1725 533 1701 Q557 1677 557 1642 Q557 1607 533 1584 Q509 1561 474 1561 Q439 1561 416 1584 Q393 1607 393 1642 Q393 1677 416 1701 Q439 1725 474 1725 Z " />
<glyph glyph-name="Eth" unicode="&#xd0;" horiz-adv-x="1775" d="M893 1400 Q1068 1400 1208 1351 Q1348 1302 1446 1211 Q1544 1120 1597 990.5 Q1650 861 1650 700 Q1650 539 1597 409.5 Q1544 280 1446 189 Q1348 98 1208 49 Q1068 0 893 0 L382 0 L382 647 L125 647 L125 763 L382 763 L382 1400 L893 1400 Z M924 647 L504 647 L504 116 L893 116 Q1046 116 1163 157.5 Q1280 199 1360 275 Q1440 351 1481 459 Q1522 567 1522 700 Q1522 833 1481 941 Q1440 1049 1360 1125.5 Q1280 1202 1163 1243 Q1046 1284 893 1284 L504 1284 L504 763 L924 763 L924 647 Z " />
<glyph glyph-name="Ntilde" unicode="&#xd1;" horiz-adv-x="1569" d="M1359 0 L1249 0 L332 1190 L331 0 L209 0 L209 1400 L319 1400 L1237 210 L1237 1400 L1359 1400 L1359 0 Z M444 1632 Q486 1687 533.5 1714.5 Q581 1742 650 1742 Q701 1742 735.5 1728.5 Q770 1715 798.5 1699 Q827 1683 854 1669.5 Q881 1656 917 1656 Q959 1656 991 1675.5 Q1023 1695 1055 1733 L1124 1668 Q1082 1613 1033.5 1585 Q985 1557 917 1557 Q867 1557 832.5 1570.5 Q798 1584 769.5 1600.5 Q741 1617 713.5 1630.5 Q686 1644 650 1644 Q608 1644 576 1624.5 Q544 1605 512 1567 L444 1632 Z " />
<glyph glyph-name="Ograve" unicode="&#xd2;" horiz-adv-x="1685" d="M843 1416 Q996 1416 1127.5 1363 Q1259 1310 1355 1215.5 Q1451 1121 1505.5 989 Q1560 857 1560 700 Q1560 542 1505.5 410.5 Q1451 279 1355 184.5 Q1259 90 1127.5 37 Q996 -16 843 -16 Q690 -16 558.5 37 Q427 90 331 184.5 Q235 279 180.5 410.5 Q126 542 126 700 Q126 857 180.5 989 Q235 1121 331 1215.5 Q427 1310 558.5 1363 Q690 1416 843 1416 Z M843 1298 Q718 1298 610.5 1255 Q503 1212 423.5 1133 Q344 1054 298.5 944 Q253 834 253 700 Q253 566 298.5 456 Q344 346 423.5 267 Q503 188 610.5 145 Q718 102 843 102 Q967 102 1074.5 145 Q1182 188 1261.5 267 Q1341 346 1386.5 456 Q1432 566 1432 700 Q1432 834 1386.5 944 Q1341 1054 1261.5 1133 Q1182 1212 1074.5 1255 Q967 1298 843 1298 Z M602 1797 L746 1797 L966 1497 L853 1497 L602 1797 Z " />
<glyph glyph-name="Oacute" unicode="&#xd3;" horiz-adv-x="1685" d="M843 1416 Q996 1416 1127.5 1363 Q1259 1310 1355 1215.5 Q1451 1121 1505.5 989 Q1560 857 1560 700 Q1560 542 1505.5 410.5 Q1451 279 1355 184.5 Q1259 90 1127.5 37 Q996 -16 843 -16 Q690 -16 558.5 37 Q427 90 331 184.5 Q235 279 180.5 410.5 Q126 542 126 700 Q126 857 180.5 989 Q235 1121 331 1215.5 Q427 1310 558.5 1363 Q690 1416 843 1416 Z M843 1298 Q718 1298 610.5 1255 Q503 1212 423.5 1133 Q344 1054 298.5 944 Q253 834 253 700 Q253 566 298.5 456 Q344 346 423.5 267 Q503 188 610.5 145 Q718 102 843 102 Q967 102 1074.5 145 Q1182 188 1261.5 267 Q1341 346 1386.5 456 Q1432 566 1432 700 Q1432 834 1386.5 944 Q1341 1054 1261.5 1133 Q1182 1212 1074.5 1255 Q967 1298 843 1298 Z M712 1497 L932 1797 L1076 1797 L825 1497 L712 1497 Z " />
<glyph glyph-name="Ocircumflex" unicode="&#xd4;" horiz-adv-x="1685" d="M843 1416 Q996 1416 1127.5 1363 Q1259 1310 1355 1215.5 Q1451 1121 1505.5 989 Q1560 857 1560 700 Q1560 542 1505.5 410.5 Q1451 279 1355 184.5 Q1259 90 1127.5 37 Q996 -16 843 -16 Q690 -16 558.5 37 Q427 90 331 184.5 Q235 279 180.5 410.5 Q126 542 126 700 Q126 857 180.5 989 Q235 1121 331 1215.5 Q427 1310 558.5 1363 Q690 1416 843 1416 Z M843 1298 Q718 1298 610.5 1255 Q503 1212 423.5 1133 Q344 1054 298.5 944 Q253 834 253 700 Q253 566 298.5 456 Q344 346 423.5 267 Q503 188 610.5 145 Q718 102 843 102 Q967 102 1074.5 145 Q1182 188 1261.5 267 Q1341 346 1386.5 456 Q1432 566 1432 700 Q1432 834 1386.5 944 Q1341 1054 1261.5 1133 Q1182 1212 1074.5 1255 Q967 1298 843 1298 Z M1043 1503 L843 1708 L643 1503 L520 1503 L768 1785 L918 1785 L1166 1503 L1043 1503 Z " />
<glyph glyph-name="Otilde" unicode="&#xd5;" horiz-adv-x="1685" d="M843 1416 Q996 1416 1127.5 1363 Q1259 1310 1355 1215.5 Q1451 1121 1505.5 989 Q1560 857 1560 700 Q1560 542 1505.5 410.5 Q1451 279 1355 184.5 Q1259 90 1127.5 37 Q996 -16 843 -16 Q690 -16 558.5 37 Q427 90 331 184.5 Q235 279 180.5 410.5 Q126 542 126 700 Q126 857 180.5 989 Q235 1121 331 1215.5 Q427 1310 558.5 1363 Q690 1416 843 1416 Z M843 1298 Q718 1298 610.5 1255 Q503 1212 423.5 1133 Q344 1054 298.5 944 Q253 834 253 700 Q253 566 298.5 456 Q344 346 423.5 267 Q503 188 610.5 145 Q718 102 843 102 Q967 102 1074.5 145 Q1182 188 1261.5 267 Q1341 346 1386.5 456 Q1432 566 1432 700 Q1432 834 1386.5 944 Q1341 1054 1261.5 1133 Q1182 1212 1074.5 1255 Q967 1298 843 1298 Z M503 1632 Q545 1687 592.5 1714.5 Q640 1742 709 1742 Q760 1742 794.5 1728.5 Q829 1715 857.5 1699 Q886 1683 913 1669.5 Q940 1656 976 1656 Q1018 1656 1050 1675.5 Q1082 1695 1114 1733 L1183 1668 Q1141 1613 1092.5 1585 Q1044 1557 976 1557 Q926 1557 891.5 1570.5 Q857 1584 828.5 1600.5 Q800 1617 772.5 1630.5 Q745 1644 709 1644 Q667 1644 635 1624.5 Q603 1605 571 1567 L503 1632 Z " />
<glyph glyph-name="Odieresis" unicode="&#xd6;" horiz-adv-x="1685" d="M843 1416 Q996 1416 1127.5 1363 Q1259 1310 1355 1215.5 Q1451 1121 1505.5 989 Q1560 857 1560 700 Q1560 542 1505.5 410.5 Q1451 279 1355 184.5 Q1259 90 1127.5 37 Q996 -16 843 -16 Q690 -16 558.5 37 Q427 90 331 184.5 Q235 279 180.5 410.5 Q126 542 126 700 Q126 857 180.5 989 Q235 1121 331 1215.5 Q427 1310 558.5 1363 Q690 1416 843 1416 Z M843 1298 Q718 1298 610.5 1255 Q503 1212 423.5 1133 Q344 1054 298.5 944 Q253 834 253 700 Q253 566 298.5 456 Q344 346 423.5 267 Q503 188 610.5 145 Q718 102 843 102 Q967 102 1074.5 145 Q1182 188 1261.5 267 Q1341 346 1386.5 456 Q1432 566 1432 700 Q1432 834 1386.5 944 Q1341 1054 1261.5 1133 Q1182 1212 1074.5 1255 Q967 1298 843 1298 Z M638 1725 Q673 1725 696.5 1701 Q720 1677 720 1642 Q720 1607 696.5 1584 Q673 1561 638 1561 Q603 1561 580 1584 Q557 1607 557 1642 Q557 1677 580 1701 Q603 1725 638 1725 Z M1047 1725 Q1082 1725 1106 1701 Q1130 1677 1130 1642 Q1130 1607 1106 1584 Q1082 1561 1047 1561 Q1012 1561 989 1584 Q966 1607 966 1642 Q966 1677 989 1701 Q1012 1725 1047 1725 Z " />
<glyph glyph-name="multiply" unicode="&#xd7;" horiz-adv-x="1200" d="M227 229 L523 525 L226 824 L302 899 L599 601 L900 902 L973 828 L673 527 L974 226 L899 151 L597 452 L301 155 L227 229 Z " />
<glyph glyph-name="Oslash" unicode="&#xd8;" horiz-adv-x="1685" d="M843 1416 Q982 1416 1101 1373 Q1220 1330 1314 1252 L1477 1415 L1558 1334 L1395 1171 Q1473 1079 1516.5 960 Q1560 841 1560 700 Q1560 542 1505.5 410.5 Q1451 279 1355 184.5 Q1259 90 1127.5 37 Q996 -16 843 -16 Q704 -16 584.5 27 Q465 70 371 148 L209 -14 L128 66 L290 228 Q212 321 169 440 Q126 559 126 700 Q126 857 180.5 989 Q235 1121 331 1215.5 Q427 1310 558.5 1363 Q690 1416 843 1416 Z M843 1298 Q718 1298 610.5 1255 Q503 1212 423.5 1133 Q344 1054 298.5 944 Q253 834 253 700 Q253 585 286 488.5 Q319 392 379 317 L1226 1164 Q1149 1228 1052 1263 Q955 1298 843 1298 Z M1432 700 Q1432 814 1399 910.5 Q1366 1007 1306 1082 L458 235 Q536 171 633.5 136.5 Q731 102 843 102 Q967 102 1074.5 145 Q1182 188 1261.5 267 Q1341 346 1386.5 456 Q1432 566 1432 700 Z " />
<glyph glyph-name="Ugrave" unicode="&#xd9;" horiz-adv-x="1510" d="M1321 545 Q1321 405 1276.5 300 Q1232 195 1155 125 Q1078 55 975 20 Q872 -15 754 -15 Q636 -15 533 20 Q430 55 353.5 125 Q277 195 232.5 300 Q188 405 188 545 L188 1400 L310 1400 L310 554 Q310 438 344 353 Q378 268 437.5 212.5 Q497 157 578 129.5 Q659 102 754 102 Q849 102 930 129.5 Q1011 157 1070.5 212.5 Q1130 268 1164 353 Q1198 438 1198 554 L1198 1400 L1321 1400 L1321 545 Z M513 1797 L657 1797 L877 1497 L764 1497 L513 1797 Z " />
<glyph glyph-name="Uacute" unicode="&#xda;" horiz-adv-x="1510" d="M1321 545 Q1321 405 1276.5 300 Q1232 195 1155 125 Q1078 55 975 20 Q872 -15 754 -15 Q636 -15 533 20 Q430 55 353.5 125 Q277 195 232.5 300 Q188 405 188 545 L188 1400 L310 1400 L310 554 Q310 438 344 353 Q378 268 437.5 212.5 Q497 157 578 129.5 Q659 102 754 102 Q849 102 930 129.5 Q1011 157 1070.5 212.5 Q1130 268 1164 353 Q1198 438 1198 554 L1198 1400 L1321 1400 L1321 545 Z M623 1497 L843 1797 L987 1797 L736 1497 L623 1497 Z " />
<glyph glyph-name="Ucircumflex" unicode="&#xdb;" horiz-adv-x="1510" d="M1321 545 Q1321 405 1276.5 300 Q1232 195 1155 125 Q1078 55 975 20 Q872 -15 754 -15 Q636 -15 533 20 Q430 55 353.5 125 Q277 195 232.5 300 Q188 405 188 545 L188 1400 L310 1400 L310 554 Q310 438 344 353 Q378 268 437.5 212.5 Q497 157 578 129.5 Q659 102 754 102 Q849 102 930 129.5 Q1011 157 1070.5 212.5 Q1130 268 1164 353 Q1198 438 1198 554 L1198 1400 L1321 1400 L1321 545 Z M954 1503 L754 1708 L554 1503 L431 1503 L679 1785 L829 1785 L1077 1503 L954 1503 Z " />
<glyph glyph-name="Udieresis" unicode="&#xdc;" horiz-adv-x="1510" d="M1321 545 Q1321 405 1276.5 300 Q1232 195 1155 125 Q1078 55 975 20 Q872 -15 754 -15 Q636 -15 533 20 Q430 55 353.5 125 Q277 195 232.5 300 Q188 405 188 545 L188 1400 L310 1400 L310 554 Q310 438 344 353 Q378 268 437.5 212.5 Q497 157 578 129.5 Q659 102 754 102 Q849 102 930 129.5 Q1011 157 1070.5 212.5 Q1130 268 1164 353 Q1198 438 1198 554 L1198 1400 L1321 1400 L1321 545 Z M549 1725 Q584 1725 607.5 1701 Q631 1677 631 1642 Q631 1607 607.5 1584 Q584 1561 549 1561 Q514 1561 491 1584 Q468 1607 468 1642 Q468 1677 491 1701 Q514 1725 549 1725 Z M958 1725 Q993 1725 1017 1701 Q1041 1677 1041 1642 Q1041 1607 1017 1584 Q993 1561 958 1561 Q923 1561 900 1584 Q877 1607 877 1642 Q877 1677 900 1701 Q923 1725 958 1725 Z " />
<glyph glyph-name="Yacute" unicode="&#xdd;" horiz-adv-x="1263" d="M693 600 L693 0 L571 0 L571 602 L12 1400 L158 1400 L633 715 L1108 1400 L1251 1400 L693 600 Z M502 1497 L722 1797 L866 1797 L615 1497 L502 1497 Z " />
<glyph glyph-name="Thorn" unicode="&#xde;" horiz-adv-x="1331" d="M331 1130 L729 1130 Q845 1130 937 1102 Q1029 1074 1092.5 1020.5 Q1156 967 1190 890 Q1224 813 1224 715 Q1224 617 1190 539.5 Q1156 462 1092.5 409 Q1029 356 937 328 Q845 300 729 300 L331 300 L331 0 L209 0 L209 1400 L331 1400 L331 1130 Z M331 1015 L331 416 L726 416 Q814 416 883 435 Q952 454 999.5 491.5 Q1047 529 1072 585 Q1097 641 1097 715 Q1097 789 1072 845.5 Q1047 902 999.5 939.5 Q952 977 883 996 Q814 1015 726 1015 L331 1015 Z " />
<glyph glyph-name="germandbls" unicode="&#xdf;" horiz-adv-x="1216" d="M173 1020 Q173 1114 202.5 1194 Q232 1274 289 1332 Q346 1390 429.5 1422.5 Q513 1455 622 1455 Q715 1455 796.5 1428 Q878 1401 938.5 1352 Q999 1303 1034 1233 Q1069 1163 1069 1078 Q1069 1010 1051 954.5 Q1033 899 1001.5 856.5 Q970 814 927 783.5 Q884 753 835 737 Q892 722 942 690.5 Q992 659 1029 613 Q1066 567 1087.5 509.5 Q1109 452 1109 385 Q1109 291 1076.5 216.5 Q1044 142 988 90.5 Q932 39 857.5 12 Q783 -15 699 -15 Q617 -15 559.5 -1.5 Q502 12 454 34 L482 137 Q523 116 571.5 103.5 Q620 91 682 91 Q749 91 806.5 110.5 Q864 130 905 167.5 Q946 205 969.5 260.5 Q993 316 993 389 Q993 459 967.5 513 Q942 567 895.5 603.5 Q849 640 785 659 Q721 678 643 678 L572 678 L572 781 L620 781 Q686 781 746.5 796 Q807 811 852.5 844.5 Q898 878 925.5 931.5 Q953 985 953 1061 Q953 1131 927 1185 Q901 1239 855.5 1275 Q810 1311 749.5 1329.5 Q689 1348 620 1348 Q545 1348 483.5 1325 Q422 1302 378.5 1258.5 Q335 1215 311 1153 Q287 1091 287 1012 L287 0 L173 0 L173 1020 Z " />
<glyph glyph-name="agrave" unicode="&#xe0;" horiz-adv-x="1244" d="M1063 0 L950 0 L950 181 Q893 92 799.5 38.5 Q706 -15 577 -15 Q478 -15 392 21.5 Q306 58 243 122.5 Q180 187 143.5 276 Q107 365 107 470 Q107 575 143.5 664 Q180 753 243 818 Q306 883 392 919.5 Q478 956 577 956 Q706 956 799.5 902 Q893 848 950 760 L950 941 L1063 941 L1063 0 Z M590 849 Q509 849 441.5 819.5 Q374 790 325.5 739 Q277 688 250 619 Q223 550 223 470 Q223 390 250 321 Q277 252 326 201 Q375 150 442.5 121 Q510 92 590 92 Q670 92 737 120.5 Q804 149 853 200 Q902 251 929 320 Q956 389 956 470 Q956 551 929 620.5 Q902 690 853 740.5 Q804 791 737 820 Q670 849 590 849 Z M348 1382 L492 1382 L712 1082 L599 1082 L348 1382 Z " />
<glyph glyph-name="aacute" unicode="&#xe1;" horiz-adv-x="1244" d="M1063 0 L950 0 L950 181 Q893 92 799.5 38.5 Q706 -15 577 -15 Q478 -15 392 21.5 Q306 58 243 122.5 Q180 187 143.5 276 Q107 365 107 470 Q107 575 143.5 664 Q180 753 243 818 Q306 883 392 919.5 Q478 956 577 956 Q706 956 799.5 902 Q893 848 950 760 L950 941 L1063 941 L1063 0 Z M590 849 Q509 849 441.5 819.5 Q374 790 325.5 739 Q277 688 250 619 Q223 550 223 470 Q223 390 250 321 Q277 252 326 201 Q375 150 442.5 121 Q510 92 590 92 Q670 92 737 120.5 Q804 149 853 200 Q902 251 929 320 Q956 389 956 470 Q956 551 929 620.5 Q902 690 853 740.5 Q804 791 737 820 Q670 849 590 849 Z M488 1082 L708 1382 L852 1382 L601 1082 L488 1082 Z " />
<glyph glyph-name="acircumflex" unicode="&#xe2;" horiz-adv-x="1244" d="M1063 0 L950 0 L950 181 Q893 92 799.5 38.5 Q706 -15 577 -15 Q478 -15 392 21.5 Q306 58 243 122.5 Q180 187 143.5 276 Q107 365 107 470 Q107 575 143.5 664 Q180 753 243 818 Q306 883 392 919.5 Q478 956 577 956 Q706 956 799.5 902 Q893 848 950 760 L950 941 L1063 941 L1063 0 Z M590 849 Q509 849 441.5 819.5 Q374 790 325.5 739 Q277 688 250 619 Q223 550 223 470 Q223 390 250 321 Q277 252 326 201 Q375 150 442.5 121 Q510 92 590 92 Q670 92 737 120.5 Q804 149 853 200 Q902 251 929 320 Q956 389 956 470 Q956 551 929 620.5 Q902 690 853 740.5 Q804 791 737 820 Q670 849 590 849 Z M806 1088 L606 1293 L406 1088 L283 1088 L531 1370 L681 1370 L929 1088 L806 1088 Z " />
<glyph glyph-name="atilde" unicode="&#xe3;" horiz-adv-x="1244" d="M1063 0 L950 0 L950 181 Q893 92 799.5 38.5 Q706 -15 577 -15 Q478 -15 392 21.5 Q306 58 243 122.5 Q180 187 143.5 276 Q107 365 107 470 Q107 575 143.5 664 Q180 753 243 818 Q306 883 392 919.5 Q478 956 577 956 Q706 956 799.5 902 Q893 848 950 760 L950 941 L1063 941 L1063 0 Z M590 849 Q509 849 441.5 819.5 Q374 790 325.5 739 Q277 688 250 619 Q223 550 223 470 Q223 390 250 321 Q277 252 326 201 Q375 150 442.5 121 Q510 92 590 92 Q670 92 737 120.5 Q804 149 853 200 Q902 251 929 320 Q956 389 956 470 Q956 551 929 620.5 Q902 690 853 740.5 Q804 791 737 820 Q670 849 590 849 Z M277 1217 Q319 1272 366.5 1299.5 Q414 1327 483 1327 Q534 1327 568.5 1313.5 Q603 1300 631.5 1284 Q660 1268 687 1254.5 Q714 1241 750 1241 Q792 1241 824 1260.5 Q856 1280 888 1318 L957 1253 Q915 1198 866.5 1170 Q818 1142 750 1142 Q700 1142 665.5 1155.5 Q631 1169 602.5 1185.5 Q574 1202 546.5 1215.5 Q519 1229 483 1229 Q441 1229 409 1209.5 Q377 1190 345 1152 L277 1217 Z " />
<glyph glyph-name="adieresis" unicode="&#xe4;" horiz-adv-x="1244" d="M1063 0 L950 0 L950 181 Q893 92 799.5 38.5 Q706 -15 577 -15 Q478 -15 392 21.5 Q306 58 243 122.5 Q180 187 143.5 276 Q107 365 107 470 Q107 575 143.5 664 Q180 753 243 818 Q306 883 392 919.5 Q478 956 577 956 Q706 956 799.5 902 Q893 848 950 760 L950 941 L1063 941 L1063 0 Z M590 849 Q509 849 441.5 819.5 Q374 790 325.5 739 Q277 688 250 619 Q223 550 223 470 Q223 390 250 321 Q277 252 326 201 Q375 150 442.5 121 Q510 92 590 92 Q670 92 737 120.5 Q804 149 853 200 Q902 251 929 320 Q956 389 956 470 Q956 551 929 620.5 Q902 690 853 740.5 Q804 791 737 820 Q670 849 590 849 Z M401 1310 Q436 1310 459.5 1286 Q483 1262 483 1227 Q483 1192 459.5 1169 Q436 1146 401 1146 Q366 1146 343 1169 Q320 1192 320 1227 Q320 1262 343 1286 Q366 1310 401 1310 Z M810 1310 Q845 1310 869 1286 Q893 1262 893 1227 Q893 1192 869 1169 Q845 1146 810 1146 Q775 1146 752 1169 Q729 1192 729 1227 Q729 1262 752 1286 Q775 1310 810 1310 Z " />
<glyph glyph-name="aring" unicode="&#xe5;" horiz-adv-x="1244" d="M1063 0 L950 0 L950 181 Q893 92 799.5 38.5 Q706 -15 577 -15 Q478 -15 392 21.5 Q306 58 243 122.5 Q180 187 143.5 276 Q107 365 107 470 Q107 575 143.5 664 Q180 753 243 818 Q306 883 392 919.5 Q478 956 577 956 Q706 956 799.5 902 Q893 848 950 760 L950 941 L1063 941 L1063 0 Z M590 849 Q509 849 441.5 819.5 Q374 790 325.5 739 Q277 688 250 619 Q223 550 223 470 Q223 390 250 321 Q277 252 326 201 Q375 150 442.5 121 Q510 92 590 92 Q670 92 737 120.5 Q804 149 853 200 Q902 251 929 320 Q956 389 956 470 Q956 551 929 620.5 Q902 690 853 740.5 Q804 791 737 820 Q670 849 590 849 Z M606 1066 Q562 1066 522.5 1082.5 Q483 1099 454 1128 Q425 1157 408 1196 Q391 1235 391 1279 Q391 1323 408 1361.5 Q425 1400 454 1429 Q483 1458 522.5 1475 Q562 1492 606 1492 Q650 1492 689 1475 Q728 1458 757.5 1429 Q787 1400 804 1361.5 Q821 1323 821 1279 Q821 1235 804 1196 Q787 1157 757.5 1128 Q728 1099 689 1082.5 Q650 1066 606 1066 Z M606 1139 Q634 1139 659.5 1150 Q685 1161 703.5 1180 Q722 1199 733 1224.5 Q744 1250 744 1279 Q744 1308 733 1333.5 Q722 1359 703.5 1377.5 Q685 1396 659.5 1407 Q634 1418 606 1418 Q577 1418 552 1407 Q527 1396 508.5 1377.5 Q490 1359 479 1333.5 Q468 1308 468 1279 Q468 1250 479 1224.5 Q490 1199 508.5 1180 Q527 1161 552 1150 Q577 1139 606 1139 Z " />
<glyph glyph-name="ae" unicode="&#xe6;" horiz-adv-x="1819" d="M1272 956 Q1366 956 1446 920.5 Q1526 885 1585 821 Q1644 757 1677.5 669 Q1711 581 1712 475 Q1712 463 1711.5 451.5 Q1711 440 1710 429 L922 429 Q928 347 958.5 283 Q989 219 1037.5 174.5 Q1086 130 1149.5 107 Q1213 84 1285 84 Q1385 84 1463.5 120.5 Q1542 157 1603 217 L1664 140 Q1620 95 1573 65 Q1526 35 1477.5 17 Q1429 -1 1379.5 -8 Q1330 -15 1279 -15 Q1150 -15 1048.5 38 Q947 91 885 185 Q852 143 809 106.5 Q766 70 713.5 43 Q661 16 600 0.5 Q539 -15 470 -15 Q386 -15 319 5 Q252 25 204.5 61 Q157 97 132 147 Q107 197 107 258 Q107 318 132 367.5 Q157 417 206 452.5 Q255 488 328 507.5 Q401 527 497 527 L806 527 L806 556 Q806 634 785 690 Q764 746 725 782.5 Q686 819 630 836 Q574 853 505 853 Q412 853 340.5 823 Q269 793 217 753 L163 838 Q237 895 325.5 925.5 Q414 956 519 956 Q586 956 644 943 Q702 930 749.5 902.5 Q797 875 831 831 Q865 787 884 725 Q911 777 951.5 820 Q992 863 1042.5 893 Q1093 923 1151 939.5 Q1209 956 1272 956 Z M487 85 Q538 85 588.5 98 Q639 111 685 135 Q731 159 771 193.5 Q811 228 841 271 Q812 346 806 432 L509 432 Q434 432 380.5 419 Q327 406 293.5 382.5 Q260 359 244.5 327 Q229 295 229 258 Q229 221 246 189.5 Q263 158 296 134.5 Q329 111 377 98 Q425 85 487 85 Z M1270 854 Q1199 854 1139 830 Q1079 806 1034 762.5 Q989 719 961 659 Q933 599 924 527 L1596 527 Q1590 600 1563 660 Q1536 720 1493 763 Q1450 806 1393 830 Q1336 854 1270 854 Z " />
<glyph glyph-name="ccedilla" unicode="&#xe7;" horiz-adv-x="1023" d="M589 956 Q694 956 783.5 918.5 Q873 881 936 810 L862 733 Q807 788 738.5 818.5 Q670 849 586 849 Q509 849 442.5 820.5 Q376 792 327 741.5 Q278 691 250.5 621.5 Q223 552 223 470 Q223 388 250.5 318.5 Q278 249 327 199 Q376 149 442.5 120.5 Q509 92 586 92 Q670 92 740.5 124 Q811 156 865 209 L936 131 Q872 60 783 22.5 Q694 -15 589 -15 Q483 -15 394.5 22 Q306 59 242 124 Q178 189 142.5 277.5 Q107 366 107 470 Q107 574 142.5 663 Q178 752 242 817 Q306 882 394.5 919 Q483 956 589 956 Z M541 -323 L422 -323 L530 6 L644 5 L541 -323 Z " />
<glyph glyph-name="egrave" unicode="&#xe8;" horiz-adv-x="1121" d="M573 956 Q667 956 747.5 920.5 Q828 885 886.5 821.5 Q945 758 979 669.5 Q1013 581 1014 476 Q1014 463 1013.5 451.5 Q1013 440 1012 429 L223 429 Q229 347 259.5 283 Q290 219 339 174.5 Q388 130 451.5 107 Q515 84 587 84 Q686 84 764 120 Q842 156 905 218 L966 140 Q921 95 874.5 65 Q828 35 779.5 17 Q731 -1 681 -8 Q631 -15 580 -15 Q477 -15 390 20.5 Q303 56 240 120 Q177 184 142 273 Q107 362 107 470 Q107 576 142.5 665.5 Q178 755 240.5 819.5 Q303 884 388.5 920 Q474 956 573 956 Z M571 855 Q499 855 439.5 830.5 Q380 806 335 762.5 Q290 719 261.5 659 Q233 599 225 527 L898 527 Q892 600 865 660.5 Q838 721 794.5 764 Q751 807 694 831 Q637 855 571 855 Z M313 1382 L457 1382 L677 1082 L564 1082 L313 1382 Z " />
<glyph glyph-name="eacute" unicode="&#xe9;" horiz-adv-x="1121" d="M573 956 Q667 956 747.5 920.5 Q828 885 886.5 821.5 Q945 758 979 669.5 Q1013 581 1014 476 Q1014 463 1013.5 451.5 Q1013 440 1012 429 L223 429 Q229 347 259.5 283 Q290 219 339 174.5 Q388 130 451.5 107 Q515 84 587 84 Q686 84 764 120 Q842 156 905 218 L966 140 Q921 95 874.5 65 Q828 35 779.5 17 Q731 -1 681 -8 Q631 -15 580 -15 Q477 -15 390 20.5 Q303 56 240 120 Q177 184 142 273 Q107 362 107 470 Q107 576 142.5 665.5 Q178 755 240.5 819.5 Q303 884 388.5 920 Q474 956 573 956 Z M571 855 Q499 855 439.5 830.5 Q380 806 335 762.5 Q290 719 261.5 659 Q233 599 225 527 L898 527 Q892 600 865 660.5 Q838 721 794.5 764 Q751 807 694 831 Q637 855 571 855 Z M453 1082 L673 1382 L817 1382 L566 1082 L453 1082 Z " />
<glyph glyph-name="ecircumflex" unicode="&#xea;" horiz-adv-x="1121" d="M573 956 Q667 956 747.5 920.5 Q828 885 886.5 821.5 Q945 758 979 669.5 Q1013 581 1014 476 Q1014 463 1013.5 451.5 Q1013 440 1012 429 L223 429 Q229 347 259.5 283 Q290 219 339 174.5 Q388 130 451.5 107 Q515 84 587 84 Q686 84 764 120 Q842 156 905 218 L966 140 Q921 95 874.5 65 Q828 35 779.5 17 Q731 -1 681 -8 Q631 -15 580 -15 Q477 -15 390 20.5 Q303 56 240 120 Q177 184 142 273 Q107 362 107 470 Q107 576 142.5 665.5 Q178 755 240.5 819.5 Q303 884 388.5 920 Q474 956 573 956 Z M571 855 Q499 855 439.5 830.5 Q380 806 335 762.5 Q290 719 261.5 659 Q233 599 225 527 L898 527 Q892 600 865 660.5 Q838 721 794.5 764 Q751 807 694 831 Q637 855 571 855 Z M771 1088 L571 1293 L371 1088 L248 1088 L496 1370 L646 1370 L894 1088 L771 1088 Z " />
<glyph glyph-name="edieresis" unicode="&#xeb;" horiz-adv-x="1121" d="M573 956 Q667 956 747.5 920.5 Q828 885 886.5 821.5 Q945 758 979 669.5 Q1013 581 1014 476 Q1014 463 1013.5 451.5 Q1013 440 1012 429 L223 429 Q229 347 259.5 283 Q290 219 339 174.5 Q388 130 451.5 107 Q515 84 587 84 Q686 84 764 120 Q842 156 905 218 L966 140 Q921 95 874.5 65 Q828 35 779.5 17 Q731 -1 681 -8 Q631 -15 580 -15 Q477 -15 390 20.5 Q303 56 240 120 Q177 184 142 273 Q107 362 107 470 Q107 576 142.5 665.5 Q178 755 240.5 819.5 Q303 884 388.5 920 Q474 956 573 956 Z M571 855 Q499 855 439.5 830.5 Q380 806 335 762.5 Q290 719 261.5 659 Q233 599 225 527 L898 527 Q892 600 865 660.5 Q838 721 794.5 764 Q751 807 694 831 Q637 855 571 855 Z M366 1310 Q401 1310 424.5 1286 Q448 1262 448 1227 Q448 1192 424.5 1169 Q401 1146 366 1146 Q331 1146 308 1169 Q285 1192 285 1227 Q285 1262 308 1286 Q331 1310 366 1310 Z M775 1310 Q810 1310 834 1286 Q858 1262 858 1227 Q858 1192 834 1169 Q810 1146 775 1146 Q740 1146 717 1169 Q694 1192 694 1227 Q694 1262 717 1286 Q740 1310 775 1310 Z " />
<glyph glyph-name="igrave" unicode="&#xec;" horiz-adv-x="477" d="M296 0 L182 0 L182 941 L296 941 L296 0 Z M-19 1382 L125 1382 L345 1082 L232 1082 L-19 1382 Z " />
<glyph glyph-name="iacute" unicode="&#xed;" horiz-adv-x="477" d="M296 0 L182 0 L182 941 L296 941 L296 0 Z M121 1082 L341 1382 L485 1382 L234 1082 L121 1082 Z " />
<glyph glyph-name="icircumflex" unicode="&#xee;" horiz-adv-x="477" d="M296 0 L182 0 L182 941 L296 941 L296 0 Z M439 1088 L239 1293 L39 1088 L-84 1088 L164 1370 L314 1370 L562 1088 L439 1088 Z " />
<glyph glyph-name="idieresis" unicode="&#xef;" horiz-adv-x="477" d="M296 0 L182 0 L182 941 L296 941 L296 0 Z M34 1310 Q69 1310 92.5 1286 Q116 1262 116 1227 Q116 1192 92.5 1169 Q69 1146 34 1146 Q-1 1146 -24 1169 Q-47 1192 -47 1227 Q-47 1262 -24 1286 Q-1 1310 34 1310 Z M443 1310 Q478 1310 502 1286 Q526 1262 526 1227 Q526 1192 502 1169 Q478 1146 443 1146 Q408 1146 385 1169 Q362 1192 362 1227 Q362 1262 385 1286 Q408 1310 443 1310 Z " />
<glyph glyph-name="eth" unicode="&#xf0;" horiz-adv-x="1189" d="M926 1356 L704 1227 Q782 1158 851 1073.5 Q920 989 971 893 Q1022 797 1052 692 Q1082 587 1082 477 Q1082 372 1044.5 282 Q1007 192 942 126 Q877 60 787.5 22.5 Q698 -15 595 -15 Q491 -15 401.5 21.5 Q312 58 246.5 122 Q181 186 144 273.5 Q107 361 107 463 Q107 566 143 653.5 Q179 741 242 805.5 Q305 870 390 906.5 Q475 943 574 943 Q677 943 763 903.5 Q849 864 908 792 Q863 893 788 989 Q713 1085 607 1170 L348 1020 L306 1089 L536 1224 Q482 1261 423.5 1294.5 Q365 1328 300 1357 L351 1449 Q431 1414 502 1372 Q573 1330 636 1282 L883 1425 L926 1356 Z M595 836 Q516 836 448 808 Q380 780 330 730.5 Q280 681 251.5 612.5 Q223 544 223 463 Q223 382 251.5 314 Q280 246 330 196.5 Q380 147 448 119.5 Q516 92 595 92 Q674 92 742.5 119.5 Q811 147 861 196.5 Q911 246 939.5 314 Q968 382 968 463 Q968 544 939.5 612.5 Q911 681 861 730.5 Q811 780 742.5 808 Q674 836 595 836 Z " />
<glyph glyph-name="ntilde" unicode="&#xf1;" horiz-adv-x="1198" d="M631 956 Q719 956 792 929.5 Q865 903 917.5 854 Q970 805 998.5 734.5 Q1027 664 1027 577 L1027 0 L913 0 L913 542 Q913 613 893 670 Q873 727 834 766.5 Q795 806 739 827 Q683 848 611 848 Q545 848 487.5 825.5 Q430 803 387.5 761.5 Q345 720 320.5 662.5 Q296 605 296 536 L296 0 L182 0 L182 941 L295 941 L295 776 Q323 823 360.5 857 Q398 891 442 913 Q486 935 534 945.5 Q582 956 631 956 Z M285 1217 Q327 1272 374.5 1299.5 Q422 1327 491 1327 Q542 1327 576.5 1313.5 Q611 1300 639.5 1284 Q668 1268 695 1254.5 Q722 1241 758 1241 Q800 1241 832 1260.5 Q864 1280 896 1318 L965 1253 Q923 1198 874.5 1170 Q826 1142 758 1142 Q708 1142 673.5 1155.5 Q639 1169 610.5 1185.5 Q582 1202 554.5 1215.5 Q527 1229 491 1229 Q449 1229 417 1209.5 Q385 1190 353 1152 L285 1217 Z " />
<glyph glyph-name="ograve" unicode="&#xf2;" horiz-adv-x="1192" d="M595 956 Q700 956 789.5 919 Q879 882 944.5 817 Q1010 752 1047.5 663 Q1085 574 1085 470 Q1085 366 1047.5 277.5 Q1010 189 944.5 124 Q879 59 789.5 22 Q700 -15 595 -15 Q490 -15 401 22 Q312 59 246.5 124 Q181 189 144 277.5 Q107 366 107 470 Q107 574 144 663 Q181 752 246.5 817 Q312 882 401 919 Q490 956 595 956 Z M595 849 Q516 849 448 820.5 Q380 792 330 741.5 Q280 691 251.5 621.5 Q223 552 223 470 Q223 388 251.5 318.5 Q280 249 330 199 Q380 149 448 120.5 Q516 92 595 92 Q674 92 742.5 120.5 Q811 149 861 199 Q911 249 939.5 318.5 Q968 388 968 470 Q968 552 939.5 621.5 Q911 691 861 741.5 Q811 792 742.5 820.5 Q674 849 595 849 Z M338 1382 L482 1382 L702 1082 L589 1082 L338 1382 Z " />
<glyph glyph-name="oacute" unicode="&#xf3;" horiz-adv-x="1192" d="M595 956 Q700 956 789.5 919 Q879 882 944.5 817 Q1010 752 1047.5 663 Q1085 574 1085 470 Q1085 366 1047.5 277.5 Q1010 189 944.5 124 Q879 59 789.5 22 Q700 -15 595 -15 Q490 -15 401 22 Q312 59 246.5 124 Q181 189 144 277.5 Q107 366 107 470 Q107 574 144 663 Q181 752 246.5 817 Q312 882 401 919 Q490 956 595 956 Z M595 849 Q516 849 448 820.5 Q380 792 330 741.5 Q280 691 251.5 621.5 Q223 552 223 470 Q223 388 251.5 318.5 Q280 249 330 199 Q380 149 448 120.5 Q516 92 595 92 Q674 92 742.5 120.5 Q811 149 861 199 Q911 249 939.5 318.5 Q968 388 968 470 Q968 552 939.5 621.5 Q911 691 861 741.5 Q811 792 742.5 820.5 Q674 849 595 849 Z M478 1082 L698 1382 L842 1382 L591 1082 L478 1082 Z " />
<glyph glyph-name="ocircumflex" unicode="&#xf4;" horiz-adv-x="1192" d="M595 956 Q700 956 789.5 919 Q879 882 944.5 817 Q1010 752 1047.5 663 Q1085 574 1085 470 Q1085 366 1047.5 277.5 Q1010 189 944.5 124 Q879 59 789.5 22 Q700 -15 595 -15 Q490 -15 401 22 Q312 59 246.5 124 Q181 189 144 277.5 Q107 366 107 470 Q107 574 144 663 Q181 752 246.5 817 Q312 882 401 919 Q490 956 595 956 Z M595 849 Q516 849 448 820.5 Q380 792 330 741.5 Q280 691 251.5 621.5 Q223 552 223 470 Q223 388 251.5 318.5 Q280 249 330 199 Q380 149 448 120.5 Q516 92 595 92 Q674 92 742.5 120.5 Q811 149 861 199 Q911 249 939.5 318.5 Q968 388 968 470 Q968 552 939.5 621.5 Q911 691 861 741.5 Q811 792 742.5 820.5 Q674 849 595 849 Z M796 1088 L596 1293 L396 1088 L273 1088 L521 1370 L671 1370 L919 1088 L796 1088 Z " />
<glyph glyph-name="otilde" unicode="&#xf5;" horiz-adv-x="1192" d="M595 956 Q700 956 789.5 919 Q879 882 944.5 817 Q1010 752 1047.5 663 Q1085 574 1085 470 Q1085 366 1047.5 277.5 Q1010 189 944.5 124 Q879 59 789.5 22 Q700 -15 595 -15 Q490 -15 401 22 Q312 59 246.5 124 Q181 189 144 277.5 Q107 366 107 470 Q107 574 144 663 Q181 752 246.5 817 Q312 882 401 919 Q490 956 595 956 Z M595 849 Q516 849 448 820.5 Q380 792 330 741.5 Q280 691 251.5 621.5 Q223 552 223 470 Q223 388 251.5 318.5 Q280 249 330 199 Q380 149 448 120.5 Q516 92 595 92 Q674 92 742.5 120.5 Q811 149 861 199 Q911 249 939.5 318.5 Q968 388 968 470 Q968 552 939.5 621.5 Q911 691 861 741.5 Q811 792 742.5 820.5 Q674 849 595 849 Z M267 1217 Q309 1272 356.5 1299.5 Q404 1327 473 1327 Q524 1327 558.5 1313.5 Q593 1300 621.5 1284 Q650 1268 677 1254.5 Q704 1241 740 1241 Q782 1241 814 1260.5 Q846 1280 878 1318 L947 1253 Q905 1198 856.5 1170 Q808 1142 740 1142 Q690 1142 655.5 1155.5 Q621 1169 592.5 1185.5 Q564 1202 536.5 1215.5 Q509 1229 473 1229 Q431 1229 399 1209.5 Q367 1190 335 1152 L267 1217 Z " />
<glyph glyph-name="odieresis" unicode="&#xf6;" horiz-adv-x="1192" d="M595 956 Q700 956 789.5 919 Q879 882 944.5 817 Q1010 752 1047.5 663 Q1085 574 1085 470 Q1085 366 1047.5 277.5 Q1010 189 944.5 124 Q879 59 789.5 22 Q700 -15 595 -15 Q490 -15 401 22 Q312 59 246.5 124 Q181 189 144 277.5 Q107 366 107 470 Q107 574 144 663 Q181 752 246.5 817 Q312 882 401 919 Q490 956 595 956 Z M595 849 Q516 849 448 820.5 Q380 792 330 741.5 Q280 691 251.5 621.5 Q223 552 223 470 Q223 388 251.5 318.5 Q280 249 330 199 Q380 149 448 120.5 Q516 92 595 92 Q674 92 742.5 120.5 Q811 149 861 199 Q911 249 939.5 318.5 Q968 388 968 470 Q968 552 939.5 621.5 Q911 691 861 741.5 Q811 792 742.5 820.5 Q674 849 595 849 Z M391 1310 Q426 1310 449.5 1286 Q473 1262 473 1227 Q473 1192 449.5 1169 Q426 1146 391 1146 Q356 1146 333 1169 Q310 1192 310 1227 Q310 1262 333 1286 Q356 1310 391 1310 Z M800 1310 Q835 1310 859 1286 Q883 1262 883 1227 Q883 1192 859 1169 Q835 1146 800 1146 Q765 1146 742 1169 Q719 1192 719 1227 Q719 1262 742 1286 Q765 1310 800 1310 Z " />
<glyph glyph-name="divide" unicode="&#xf7;" horiz-adv-x="1200" d="M1026 475 L174 475 L174 578 L1026 578 L1026 475 Z M601 918 Q617 918 631.5 911.5 Q646 905 657 894 Q668 883 674.5 868.5 Q681 854 681 838 Q681 822 674.5 807.5 Q668 793 657 781.5 Q646 770 631.5 763.5 Q617 757 601 757 Q585 757 570.5 763.5 Q556 770 544.5 781.5 Q533 793 526.5 807.5 Q520 822 520 838 Q520 854 526.5 868.5 Q533 883 544.5 894 Q556 905 570.5 911.5 Q585 918 601 918 Z M601 296 Q617 296 631.5 289.5 Q646 283 657 272.5 Q668 262 674.5 247 Q681 232 681 216 Q681 200 674.5 185.5 Q668 171 657 160 Q646 149 631.5 142.5 Q617 136 601 136 Q585 136 570.5 142.5 Q556 149 544.5 160 Q533 171 526.5 185.5 Q520 200 520 216 Q520 232 526.5 247 Q533 262 544.5 272.5 Q556 283 570.5 289.5 Q585 296 601 296 Z " />
<glyph glyph-name="oslash" unicode="&#xf8;" horiz-adv-x="1192" d="M595 956 Q686 956 765 928 Q844 900 907 850 L1023 966 L1093 898 L976 781 Q1027 718 1056 639.5 Q1085 561 1085 470 Q1085 366 1047.5 277.5 Q1010 189 944.5 124 Q879 59 789.5 22 Q700 -15 595 -15 Q504 -15 425.5 12 Q347 39 284 89 L169 -26 L99 42 L215 158 Q164 221 135.5 300 Q107 379 107 470 Q107 574 144 663 Q181 752 246.5 817 Q312 882 401 919 Q490 956 595 956 Z M595 849 Q516 849 448 820.5 Q380 792 330 741.5 Q280 691 251.5 621.5 Q223 552 223 470 Q223 402 242 344 Q261 286 296 239 L828 771 Q780 808 721 828.5 Q662 849 595 849 Z M968 470 Q968 537 949 595 Q930 653 896 701 L364 169 Q412 132 470 112 Q528 92 595 92 Q674 92 742.5 120.5 Q811 149 861 199 Q911 249 939.5 318.5 Q968 388 968 470 Z " />
<glyph glyph-name="ugrave" unicode="&#xf9;" horiz-adv-x="1186" d="M1015 389 Q1015 289 981.5 213.5 Q948 138 890.5 87 Q833 36 756.5 10.5 Q680 -15 593 -15 Q506 -15 429 10.5 Q352 36 295 87 Q238 138 204.5 213.5 Q171 289 171 389 L171 941 L285 941 L285 399 Q285 323 307.5 265.5 Q330 208 371 169.5 Q412 131 468.5 111.5 Q525 92 593 92 Q660 92 717 111.5 Q774 131 814.5 169.5 Q855 208 878 265.5 Q901 323 901 399 L901 941 L1015 941 L1015 389 Z M335 1382 L479 1382 L699 1082 L586 1082 L335 1382 Z " />
<glyph glyph-name="uacute" unicode="&#xfa;" horiz-adv-x="1186" d="M1015 389 Q1015 289 981.5 213.5 Q948 138 890.5 87 Q833 36 756.5 10.5 Q680 -15 593 -15 Q506 -15 429 10.5 Q352 36 295 87 Q238 138 204.5 213.5 Q171 289 171 389 L171 941 L285 941 L285 399 Q285 323 307.5 265.5 Q330 208 371 169.5 Q412 131 468.5 111.5 Q525 92 593 92 Q660 92 717 111.5 Q774 131 814.5 169.5 Q855 208 878 265.5 Q901 323 901 399 L901 941 L1015 941 L1015 389 Z M475 1082 L695 1382 L839 1382 L588 1082 L475 1082 Z " />
<glyph glyph-name="ucircumflex" unicode="&#xfb;" horiz-adv-x="1186" d="M1015 389 Q1015 289 981.5 213.5 Q948 138 890.5 87 Q833 36 756.5 10.5 Q680 -15 593 -15 Q506 -15 429 10.5 Q352 36 295 87 Q238 138 204.5 213.5 Q171 289 171 389 L171 941 L285 941 L285 399 Q285 323 307.5 265.5 Q330 208 371 169.5 Q412 131 468.5 111.5 Q525 92 593 92 Q660 92 717 111.5 Q774 131 814.5 169.5 Q855 208 878 265.5 Q901 323 901 399 L901 941 L1015 941 L1015 389 Z M793 1088 L593 1293 L393 1088 L270 1088 L518 1370 L668 1370 L916 1088 L793 1088 Z " />
<glyph glyph-name="udieresis" unicode="&#xfc;" horiz-adv-x="1186" d="M1015 389 Q1015 289 981.5 213.5 Q948 138 890.5 87 Q833 36 756.5 10.5 Q680 -15 593 -15 Q506 -15 429 10.5 Q352 36 295 87 Q238 138 204.5 213.5 Q171 289 171 389 L171 941 L285 941 L285 399 Q285 323 307.5 265.5 Q330 208 371 169.5 Q412 131 468.5 111.5 Q525 92 593 92 Q660 92 717 111.5 Q774 131 814.5 169.5 Q855 208 878 265.5 Q901 323 901 399 L901 941 L1015 941 L1015 389 Z M388 1310 Q423 1310 446.5 1286 Q470 1262 470 1227 Q470 1192 446.5 1169 Q423 1146 388 1146 Q353 1146 330 1169 Q307 1192 307 1227 Q307 1262 330 1286 Q353 1310 388 1310 Z M797 1310 Q832 1310 856 1286 Q880 1262 880 1227 Q880 1192 856 1169 Q832 1146 797 1146 Q762 1146 739 1169 Q716 1192 716 1227 Q716 1262 739 1286 Q762 1310 797 1310 Z " />
<glyph glyph-name="yacute" unicode="&#xfd;" horiz-adv-x="1028" d="M232 -403 L106 -403 L466 210 L24 941 L152 941 L531 322 L886 941 L1011 941 L232 -403 Z M401 1082 L621 1382 L765 1382 L514 1082 L401 1082 Z " />
<glyph glyph-name="thorn" unicode="&#xfe;" horiz-adv-x="1245" d="M667 956 Q766 956 852 919.5 Q938 883 1001.5 818 Q1065 753 1101.5 664 Q1138 575 1138 470 Q1138 365 1101.5 276 Q1065 187 1001.5 122.5 Q938 58 852 21.5 Q766 -15 667 -15 Q539 -15 446 38 Q353 91 296 179 L296 -400 L182 -400 L182 1440 L296 1440 L296 762 Q352 849 445.5 902.5 Q539 956 667 956 Z M654 849 Q574 849 507 820 Q440 791 391.5 740.5 Q343 690 315.5 620.5 Q288 551 288 470 Q288 389 315.5 320 Q343 251 391.5 200 Q440 149 507 120.5 Q574 92 654 92 Q735 92 802.5 121 Q870 150 918.5 201 Q967 252 994 321 Q1021 390 1021 470 Q1021 550 993.5 619 Q966 688 917.5 739 Q869 790 801.5 819.5 Q734 849 654 849 Z " />
<glyph glyph-name="ydieresis" unicode="&#xff;" horiz-adv-x="1028" d="M232 -403 L106 -403 L466 210 L24 941 L152 941 L531 322 L886 941 L1011 941 L232 -403 Z M314 1310 Q349 1310 372.5 1286 Q396 1262 396 1227 Q396 1192 372.5 1169 Q349 1146 314 1146 Q279 1146 256 1169 Q233 1192 233 1227 Q233 1262 256 1286 Q279 1310 314 1310 Z M723 1310 Q758 1310 782 1286 Q806 1262 806 1227 Q806 1192 782 1169 Q758 1146 723 1146 Q688 1146 665 1169 Q642 1192 642 1227 Q642 1262 665 1286 Q688 1310 723 1310 Z " />
<glyph glyph-name="dotlessi" unicode="&#x131;" horiz-adv-x="477" d="M296 0 L182 0 L182 941 L296 941 L296 0 Z " />
<glyph glyph-name="trademark" unicode="&#x2122;" horiz-adv-x="1348" d="M1181 848 L1181 1289 L1004 909 L919 909 L741 1289 L741 848 L658 848 L658 1401 L775 1401 L962 1003 L1148 1401 L1264 1401 L1264 848 L1181 848 Z M276 848 L276 1324 L84 1324 L84 1400 L550 1400 L550 1324 L358 1324 L358 848 L276 848 Z " />
<glyph glyph-name="OE" unicode="&#x152;" horiz-adv-x="2260" d="M2092 0 L883 0 Q708 0 568 49 Q428 98 329.5 188.5 Q231 279 178.5 408.5 Q126 538 126 700 Q126 862 178.5 991.5 Q231 1121 329.5 1211.5 Q428 1302 568 1351 Q708 1400 883 1400 L2085 1400 L2085 1285 L1250 1285 L1250 762 L2061 762 L2061 648 L1250 648 L1250 115 L2092 115 L2092 0 Z M253 700 Q253 566 294 458.5 Q335 351 415 274.5 Q495 198 612.5 157 Q730 116 883 116 L1128 116 L1128 1284 L883 1284 Q730 1284 612.5 1242.5 Q495 1201 415 1125 Q335 1049 294 941 Q253 833 253 700 Z " />
<glyph glyph-name="oe" unicode="&#x153;" horiz-adv-x="1982" d="M1434 956 Q1528 956 1608 920.5 Q1688 885 1747 821.5 Q1806 758 1839.5 669.5 Q1873 581 1875 476 Q1875 450 1872 429 L1084 429 Q1090 347 1120.5 283 Q1151 219 1200 174.5 Q1249 130 1312.5 107 Q1376 84 1448 84 Q1547 84 1625.5 120.5 Q1704 157 1766 217 L1827 140 Q1782 95 1735.5 65 Q1689 35 1640.5 17 Q1592 -1 1542 -8 Q1492 -15 1441 -15 Q1368 -15 1303.5 3 Q1239 21 1185.5 54 Q1132 87 1090 135 Q1048 183 1021 243 Q992 184 948.5 136.5 Q905 89 850 55.5 Q795 22 730.5 3.5 Q666 -15 595 -15 Q490 -15 401 22 Q312 59 246.5 124 Q181 189 144 277.5 Q107 366 107 470 Q107 574 144 663 Q181 752 246.5 817 Q312 882 401 919 Q490 956 595 956 Q667 956 731.5 937.5 Q796 919 850.5 884.5 Q905 850 948.5 801.5 Q992 753 1021 694 Q1049 754 1091 802.5 Q1133 851 1186 885 Q1239 919 1302 937.5 Q1365 956 1434 956 Z M595 849 Q516 849 448 820.5 Q380 792 330 741.5 Q280 691 251.5 621.5 Q223 552 223 470 Q223 388 251.5 318.5 Q280 249 330 199 Q380 149 448 120.5 Q516 92 595 92 Q674 92 742 120.5 Q810 149 860.5 199 Q911 249 939.5 318.5 Q968 388 968 470 Q968 552 939.5 621.5 Q911 691 860.5 741.5 Q810 792 742 820.5 Q674 849 595 849 Z M1432 855 Q1360 855 1300.5 830.5 Q1241 806 1196 762.5 Q1151 719 1122.5 659 Q1094 599 1086 527 L1758 527 Q1752 600 1725 660.5 Q1698 721 1655 764 Q1612 807 1555 831 Q1498 855 1432 855 Z " />
<glyph glyph-name="Scaron" unicode="&#x160;" horiz-adv-x="1343" d="M1120 1162 Q1038 1220 929 1259.5 Q820 1299 682 1299 Q598 1299 526.5 1280 Q455 1261 403 1225 Q351 1189 321.5 1137.5 Q292 1086 292 1020 Q292 916 373.5 852.5 Q455 789 634 769 L787 752 Q880 741 959 716.5 Q1038 692 1095.5 649.5 Q1153 607 1185 543.5 Q1217 480 1217 393 Q1217 291 1173.5 214.5 Q1130 138 1055 87 Q980 36 880 10.5 Q780 -15 667 -15 Q588 -15 511 -1.5 Q434 12 363.5 35.5 Q293 59 232 91 Q171 123 125 160 L192 257 Q229 228 280 200 Q331 172 392.5 150 Q454 128 523.5 114.5 Q593 101 666 101 Q755 101 832.5 118.5 Q910 136 967 171 Q1024 206 1057 259 Q1090 312 1090 383 Q1090 497 1000 556 Q910 615 735 635 L576 653 Q480 664 404 691 Q328 718 274.5 762.5 Q221 807 193 869 Q165 931 165 1012 Q165 1109 205.5 1184 Q246 1259 316 1310.5 Q386 1362 480.5 1388.5 Q575 1415 683 1415 Q764 1415 835.5 1403 Q907 1391 969 1370 Q1031 1349 1084.5 1321 Q1138 1293 1183 1261 L1120 1162 Z M503 1782 L703 1578 L903 1782 L1026 1782 L778 1501 L628 1501 L380 1782 L503 1782 Z " />
<glyph glyph-name="scaron" unicode="&#x161;" horiz-adv-x="974" d="M809 762 Q785 779 750.5 795.5 Q716 812 675 825.5 Q634 839 586.5 847.5 Q539 856 490 856 Q435 856 389 844.5 Q343 833 310 811 Q277 789 258.5 757.5 Q240 726 240 686 Q240 620 292.5 583.5 Q345 547 454 534 L574 520 Q722 503 802.5 441 Q883 379 883 267 Q883 200 853.5 147.5 Q824 95 771 59 Q718 23 643.5 4 Q569 -15 478 -15 Q375 -15 274 13.5 Q173 42 91 105 L144 190 Q171 169 204 149.5 Q237 130 278 115.5 Q319 101 368.5 92.5 Q418 84 479 84 Q543 84 595.5 95 Q648 106 686 128 Q724 150 745 183 Q766 216 766 260 Q766 392 549 416 L428 429 Q348 438 290.5 459.5 Q233 481 195.5 513 Q158 545 140.5 587.5 Q123 630 123 680 Q123 745 149.5 796 Q176 847 224.5 882.5 Q273 918 340.5 937 Q408 956 489 956 Q601 956 697.5 926 Q794 896 858 850 L809 762 Z M303 1367 L503 1163 L703 1367 L826 1367 L578 1086 L428 1086 L180 1367 L303 1367 Z " />
<glyph glyph-name="Ydieresis" unicode="&#x178;" horiz-adv-x="1263" d="M693 600 L693 0 L571 0 L571 602 L12 1400 L158 1400 L633 715 L1108 1400 L1251 1400 L693 600 Z M428 1725 Q463 1725 486.5 1701 Q510 1677 510 1642 Q510 1607 486.5 1584 Q463 1561 428 1561 Q393 1561 370 1584 Q347 1607 347 1642 Q347 1677 370 1701 Q393 1725 428 1725 Z M837 1725 Q872 1725 896 1701 Q920 1677 920 1642 Q920 1607 896 1584 Q872 1561 837 1561 Q802 1561 779 1584 Q756 1607 756 1642 Q756 1677 779 1701 Q802 1725 837 1725 Z " />
<glyph glyph-name="Zcaron" unicode="&#x17d;" horiz-adv-x="1327" d="M1197 1306 L287 116 L1201 116 L1201 0 L125 0 L125 95 L1034 1284 L140 1284 L140 1400 L1197 1400 L1197 1306 Z M468 1782 L668 1578 L868 1782 L991 1782 L743 1501 L593 1501 L345 1782 L468 1782 Z " />
<glyph glyph-name="zcaron" unicode="&#x17e;" horiz-adv-x="1066" d="M931 857 L279 103 L939 103 L939 0 L127 0 L127 83 L784 837 L147 837 L147 941 L931 941 L931 857 Z M339 1367 L539 1163 L739 1367 L862 1367 L614 1086 L464 1086 L216 1367 L339 1367 Z " />
<glyph glyph-name="florin" unicode="&#x192;" horiz-adv-x="1400" d="M1078 673 L754 673 L718 303 Q711 232 691 173.5 Q671 115 637 73 Q603 31 553.5 8 Q504 -15 438 -15 Q369 -15 312.5 4 Q256 23 213 51 L253 143 Q287 120 333.5 104 Q380 88 430 88 Q471 88 502 103 Q533 118 554.5 146 Q576 174 589 214 Q602 254 607 303 L644 673 L368 673 L368 777 L654 777 L686 1097 Q693 1168 713 1226.5 Q733 1285 767 1327 Q801 1369 850.5 1392 Q900 1415 966 1415 Q1035 1415 1091 1396 Q1147 1377 1190 1349 L1150 1257 Q1116 1280 1069.5 1296 Q1023 1312 973 1312 Q932 1312 901 1297 Q870 1282 848.5 1254 Q827 1226 814 1186 Q801 1146 796 1097 L764 777 L1078 777 L1078 673 Z " />
<glyph glyph-name="uni0237" unicode="&#x237;" horiz-adv-x="480" d="M299 -178 Q299 -293 243.5 -352.5 Q188 -412 89 -412 Q53 -412 18 -402.5 Q-17 -393 -41 -379 L-13 -281 Q6 -292 30 -298.5 Q54 -305 80 -305 Q131 -305 158 -273 Q185 -241 185 -173 L185 941 L299 941 L299 -178 Z " />
<glyph glyph-name="circumflex" unicode="&#x2c6;" horiz-adv-x="904" d="M652 1089 L452 1293 L252 1089 L129 1089 L377 1370 L527 1370 L775 1089 L652 1089 Z " />
<glyph glyph-name="tilde" unicode="&#x2dc;" horiz-adv-x="904" d="M113 1217 Q155 1272 202.5 1299.5 Q250 1327 319 1327 Q370 1327 404.5 1313.5 Q439 1300 467.5 1284 Q496 1268 523 1254.5 Q550 1241 586 1241 Q628 1241 660 1260.5 Q692 1280 724 1318 L793 1253 Q751 1198 702.5 1170 Q654 1142 586 1142 Q536 1142 501.5 1155.5 Q467 1169 438.5 1185.5 Q410 1202 382.5 1215.5 Q355 1229 319 1229 Q277 1229 245 1209.5 Q213 1190 181 1152 L113 1217 Z " />
<glyph glyph-name="endash" unicode="&#x2013;" horiz-adv-x="1201" d="M1076 475 L126 475 L126 578 L1076 578 L1076 475 Z " />
<glyph glyph-name="emdash" unicode="&#x2014;" horiz-adv-x="1626" d="M1563 475 L63 475 L63 578 L1563 578 L1563 475 Z " />
<glyph glyph-name="quoteleft" unicode="&#x2018;" horiz-adv-x="488" d="M150 957 L246 1440 L345 1440 L283 957 L150 957 Z " />
<glyph glyph-name="quoteright" unicode="&#x2019;" horiz-adv-x="488" d="M338 1440 L242 957 L143 957 L205 1440 L338 1440 Z " />
<glyph glyph-name="quotesinglbase" unicode="&#x201a;" horiz-adv-x="488" d="M338 234 L242 -249 L143 -249 L205 234 L338 234 Z " />
<glyph glyph-name="quotedblleft" unicode="&#x201c;" horiz-adv-x="821" d="M150 957 L246 1440 L345 1440 L283 957 L150 957 Z M483 957 L579 1440 L678 1440 L616 957 L483 957 Z " />
<glyph glyph-name="quotedblright" unicode="&#x201d;" horiz-adv-x="821" d="M671 1440 L575 957 L476 957 L538 1440 L671 1440 Z M338 1440 L242 957 L143 957 L205 1440 L338 1440 Z " />
<glyph glyph-name="quotedblbase" unicode="&#x201e;" horiz-adv-x="821" d="M671 234 L575 -249 L476 -249 L538 234 L671 234 Z M338 234 L242 -249 L143 -249 L205 234 L338 234 Z " />
<glyph glyph-name="dagger" unicode="&#x2020;" horiz-adv-x="713" d="M309 701 L309 1143 L105 1143 L105 1236 L309 1236 L309 1440 L404 1440 L404 1236 L608 1236 L608 1143 L404 1143 L404 701 L309 701 Z " />
<glyph glyph-name="daggerdbl" unicode="&#x2021;" horiz-adv-x="713" d="M404 1256 L608 1256 L608 1164 L404 1164 L404 977 L608 977 L608 884 L404 884 L404 701 L309 701 L309 884 L105 884 L105 977 L309 977 L309 1164 L105 1164 L105 1256 L309 1256 L309 1440 L404 1440 L404 1256 Z " />
<glyph glyph-name="bullet" unicode="&#x2022;" horiz-adv-x="874" d="M437 718 Q476 718 510.5 703 Q545 688 571.5 662 Q598 636 613 601.5 Q628 567 628 527 Q628 488 613 453 Q598 418 571.5 392 Q545 366 510.5 351 Q476 336 437 336 Q397 336 362 351 Q327 366 301.5 392 Q276 418 261 453 Q246 488 246 527 Q246 567 261 601.5 Q276 636 301.5 662 Q327 688 362 703 Q397 718 437 718 Z " />
<glyph glyph-name="ellipsis" unicode="&#x2026;" horiz-adv-x="1409" d="M260 178 Q279 178 296.5 170.5 Q314 163 327.5 150 Q341 137 348.5 119.5 Q356 102 356 83 Q356 63 348.5 45.5 Q341 28 327.5 15 Q314 2 296.5 -6 Q279 -14 260 -14 Q241 -14 223.5 -6 Q206 2 193 15 Q180 28 172 45.5 Q164 63 164 83 Q164 102 172 119.5 Q180 137 193 150 Q206 163 223.5 170.5 Q241 178 260 178 Z M705 178 Q724 178 741.5 170.5 Q759 163 772 150 Q785 137 792.5 119.5 Q800 102 800 83 Q800 63 792.5 45.5 Q785 28 772 15 Q759 2 741.5 -6 Q724 -14 705 -14 Q685 -14 668 -6 Q651 2 637.5 15 Q624 28 616.5 45.5 Q609 63 609 83 Q609 102 616.5 119.5 Q624 137 637.5 150 Q651 163 668 170.5 Q685 178 705 178 Z M1149 178 Q1168 178 1185.5 170.5 Q1203 163 1216 150 Q1229 137 1237 119.5 Q1245 102 1245 83 Q1245 63 1237 45.5 Q1229 28 1216 15 Q1203 2 1185.5 -6 Q1168 -14 1149 -14 Q1130 -14 1112.5 -6 Q1095 2 1082 15 Q1069 28 1061 45.5 Q1053 63 1053 83 Q1053 102 1061 119.5 Q1069 137 1082 150 Q1095 163 1112.5 170.5 Q1130 178 1149 178 Z " />
<glyph glyph-name="perthousand" unicode="&#x2030;" horiz-adv-x="2743" d="M456 1415 Q532 1415 597.5 1388 Q663 1361 711 1314 Q759 1267 786.5 1202 Q814 1137 814 1062 Q814 986 786.5 921.5 Q759 857 711 809.5 Q663 762 597.5 735 Q532 708 456 708 Q381 708 316 735 Q251 762 203 809.5 Q155 857 128 921.5 Q101 986 101 1062 Q101 1137 128 1202 Q155 1267 203 1314 Q251 1361 316 1388 Q381 1415 456 1415 Z M456 1315 Q403 1315 357.5 1296 Q312 1277 279 1243.5 Q246 1210 227 1163.5 Q208 1117 208 1062 Q208 1007 227 960.5 Q246 914 279 880.5 Q312 847 357.5 828 Q403 809 456 809 Q510 809 556 828 Q602 847 635.5 880.5 Q669 914 688 960.5 Q707 1007 707 1062 Q707 1117 688 1163.5 Q669 1210 635.5 1243.5 Q602 1277 556 1296 Q510 1315 456 1315 Z M575 0 L455 0 L1338 1400 L1458 1400 L575 0 Z M1453 692 Q1529 692 1595 664.5 Q1661 637 1709 589.5 Q1757 542 1784.5 477.5 Q1812 413 1812 338 Q1812 262 1784.5 197.5 Q1757 133 1709 85.5 Q1661 38 1595 11.5 Q1529 -15 1453 -15 Q1378 -15 1313 11.5 Q1248 38 1200.5 85.5 Q1153 133 1126 197.5 Q1099 262 1099 338 Q1099 413 1126 478 Q1153 543 1200.5 590.5 Q1248 638 1313 665 Q1378 692 1453 692 Z M1453 591 Q1400 591 1355 572 Q1310 553 1277 519.5 Q1244 486 1225 439.5 Q1206 393 1206 338 Q1206 283 1225 236.5 Q1244 190 1277 156.5 Q1310 123 1355 104 Q1400 85 1453 85 Q1507 85 1553 104 Q1599 123 1633 156.5 Q1667 190 1686 236.5 Q1705 283 1705 338 Q1705 393 1686 439.5 Q1667 486 1633 519.5 Q1599 553 1553 572 Q1507 591 1453 591 Z M2285 692 Q2361 692 2426.5 665 Q2492 638 2540 590.5 Q2588 543 2615.5 478 Q2643 413 2643 338 Q2643 262 2615.5 197.5 Q2588 133 2540 85.5 Q2492 38 2426.5 11.5 Q2361 -15 2285 -15 Q2210 -15 2145 11.5 Q2080 38 2032 85.5 Q1984 133 1957 197.5 Q1930 262 1930 338 Q1930 413 1957 478 Q1984 543 2032 590.5 Q2080 638 2145 665 Q2210 692 2285 692 Z M2285 591 Q2232 591 2186.5 572 Q2141 553 2108 519.5 Q2075 486 2056 439.5 Q2037 393 2037 338 Q2037 283 2056 236.5 Q2075 190 2108 156.5 Q2141 123 2186.5 104 Q2232 85 2285 85 Q2339 85 2385 104 Q2431 123 2464.5 156.5 Q2498 190 2517 236.5 Q2536 283 2536 338 Q2536 393 2517 439.5 Q2498 486 2464.5 519.5 Q2431 553 2385 572 Q2339 591 2285 591 Z " />
<glyph glyph-name="guilsinglleft" unicode="&#x2039;" horiz-adv-x="619" d="M455 163 L332 163 L139 527 L332 891 L455 891 L261 527 L455 163 Z " />
<glyph glyph-name="guilsinglright" unicode="&#x203a;" horiz-adv-x="619" d="M164 891 L287 891 L480 527 L287 163 L164 163 L358 527 L164 891 Z " />
<glyph glyph-name="Euro" unicode="&#x20ac;" horiz-adv-x="1400" d="M1046 495 L373 495 Q394 402 435 327.5 Q476 253 535.5 201.5 Q595 150 671.5 122 Q748 94 841 94 Q910 94 970 110 Q1030 126 1080.5 155 Q1131 184 1171.5 225 Q1212 266 1243 316 L1318 238 Q1243 120 1123.5 52.5 Q1004 -15 841 -15 Q722 -15 624 21 Q526 57 451 123 Q376 189 325.5 283.5 Q275 378 251 495 L79 495 L79 590 L237 590 Q235 616 233.5 643.5 Q232 671 232 700 Q232 729 233.5 756 Q235 783 237 810 L79 810 L79 905 L251 905 Q275 1022 325.5 1116.5 Q376 1211 451 1277 Q526 1343 624 1379 Q722 1415 841 1415 Q1003 1415 1124.5 1348 Q1246 1281 1321 1166 L1241 1084 Q1211 1134 1170.5 1175 Q1130 1216 1080 1245 Q1030 1274 970 1290 Q910 1306 840 1306 Q747 1306 670.5 1278 Q594 1250 534.5 1198.5 Q475 1147 434.5 1072.5 Q394 998 373 905 L1046 905 L1046 810 L358 810 Q352 757 352 700 Q352 642 358 590 L1046 590 L1046 495 Z " />
<glyph glyph-name="uni0307" unicode="&#x307;" horiz-adv-x="1" d="M-596 1362 Q-561 1362 -537.5 1338 Q-514 1314 -514 1279 Q-514 1244 -537.5 1221 Q-561 1198 -596 1198 Q-631 1198 -654 1221 Q-677 1244 -677 1279 Q-677 1314 -654 1338 Q-631 1362 -596 1362 Z " />
<glyph glyph-name="gravecomb" unicode="&#x300;" horiz-adv-x="1" d="M-854 1382 L-710 1382 L-490 1082 L-603 1082 L-854 1382 Z " />
<glyph glyph-name="acutecomb" unicode="&#x301;" horiz-adv-x="1" d="M-714 1082 L-494 1382 L-350 1382 L-601 1082 L-714 1082 Z " />
<glyph glyph-name="uni0302" unicode="&#x302;" horiz-adv-x="1" d="M-396 1088 L-596 1293 L-796 1088 L-919 1088 L-671 1370 L-521 1370 L-273 1088 L-396 1088 Z " />
<glyph glyph-name="tildecomb" unicode="&#x303;" horiz-adv-x="1" d="M-925 1217 Q-883 1272 -835.5 1299.5 Q-788 1327 -719 1327 Q-668 1327 -633.5 1313.5 Q-599 1300 -570.5 1284 Q-542 1268 -515 1254.5 Q-488 1241 -452 1241 Q-410 1241 -378 1260.5 Q-346 1280 -314 1318 L-245 1253 Q-287 1198 -335.5 1170 Q-384 1142 -452 1142 Q-502 1142 -536.5 1155.5 Q-571 1169 -599.5 1185.5 Q-628 1202 -655.5 1215.5 Q-683 1229 -719 1229 Q-761 1229 -793 1209.5 Q-825 1190 -857 1152 L-925 1217 Z " />
<glyph glyph-name="uni0308" unicode="&#x308;" horiz-adv-x="1" d="M-801 1310 Q-766 1310 -742.5 1286 Q-719 1262 -719 1227 Q-719 1192 -742.5 1169 Q-766 1146 -801 1146 Q-836 1146 -859 1169 Q-882 1192 -882 1227 Q-882 1262 -859 1286 Q-836 1310 -801 1310 Z M-392 1310 Q-357 1310 -333 1286 Q-309 1262 -309 1227 Q-309 1192 -333 1169 Q-357 1146 -392 1146 Q-427 1146 -450 1169 Q-473 1192 -473 1227 Q-473 1262 -450 1286 Q-427 1310 -392 1310 Z " />
<glyph glyph-name="uni030A" unicode="&#x30a;" horiz-adv-x="1" d="M-596 1066 Q-640 1066 -679.5 1082.5 Q-719 1099 -748 1128 Q-777 1157 -794 1196 Q-811 1235 -811 1279 Q-811 1323 -794 1361.5 Q-777 1400 -748 1429 Q-719 1458 -679.5 1475 Q-640 1492 -596 1492 Q-552 1492 -513 1475 Q-474 1458 -444.5 1429 Q-415 1400 -398 1361.5 Q-381 1323 -381 1279 Q-381 1235 -398 1196 Q-415 1157 -444.5 1128 Q-474 1099 -513 1082.5 Q-552 1066 -596 1066 Z M-596 1139 Q-568 1139 -542.5 1150 Q-517 1161 -498.5 1180 Q-480 1199 -469 1224.5 Q-458 1250 -458 1279 Q-458 1308 -469 1333.5 Q-480 1359 -498.5 1377.5 Q-517 1396 -542.5 1407 Q-568 1418 -596 1418 Q-625 1418 -650 1407 Q-675 1396 -693.5 1377.5 Q-712 1359 -723 1333.5 Q-734 1308 -734 1279 Q-734 1250 -723 1224.5 Q-712 1199 -693.5 1180 Q-675 1161 -650 1150 Q-625 1139 -596 1139 Z " />
<glyph glyph-name="uni0327" unicode="&#x327;" horiz-adv-x="1" d="M-587 -323 L-706 -323 L-598 6 L-484 5 L-587 -323 Z " />
<glyph glyph-name="uni030C" unicode="&#x30c;" horiz-adv-x="1" d="M-796 1367 L-596 1163 L-396 1367 L-273 1367 L-521 1086 L-671 1086 L-919 1367 L-796 1367 Z " />
</font>
</svg>
