<?xml version="1.0" encoding="UTF-8"?>
<svg xmlns="http://www.w3.org/2000/svg" xmlns:xlink="http://www.w3.org/1999/xlink" version="1.2" >
<font id="MarkWebPro-Heavy W01 Regular">
<font-face  font-family="MarkWebPro- W01 Regular" units-per-em="2000" ascent="2242" descent="-492" font-style="normal" font-weight="800" font-stretch="normal" cap-height="1400" x-height="981" underline-position="-200" underline-thickness="100" />
<missing-glyph  horiz-adv-x="1153" d="M110 1400 L1043 1400 L1043 0 L110 0 L110 1400 Z M807 236 L807 1164 L346 1164 L346 236 L807 236 Z " />
<glyph glyph-name="uni0000" d="" />
<glyph glyph-name="space" unicode="&#x20;" horiz-adv-x="449" d="" />
<glyph glyph-name="exclam" unicode="&#x21;" horiz-adv-x="580" d="M437 501 L144 501 L106 1400 L475 1400 L437 501 Z M291 387 Q332 387 369.5 370.5 Q407 354 435 326 Q463 298 479.5 260.5 Q496 223 496 182 Q496 140 479.5 102 Q463 64 435 35.5 Q407 7 369.5 -9.5 Q332 -26 291 -26 Q249 -26 211.5 -9.5 Q174 7 145.5 35.5 Q117 64 100.5 102 Q84 140 84 182 Q84 223 100.5 260.5 Q117 298 145.5 326 Q174 354 211.5 370.5 Q249 387 291 387 Z " />
<glyph glyph-name="quotedbl" unicode="&#x22;" horiz-adv-x="1133" d="M491 1440 L491 790 L178 790 L178 1440 L491 1440 Z M955 1440 L955 790 L642 790 L642 1440 L955 1440 Z " />
<glyph glyph-name="numbersign" unicode="&#x23;" horiz-adv-x="1461" d="M425 1096 L490 1400 L774 1400 L709 1096 L918 1096 L983 1400 L1268 1400 L1203 1096 L1385 1096 L1329 834 L1147 834 L1092 573 L1273 573 L1218 311 L1036 311 L970 0 L685 0 L751 311 L542 311 L476 0 L192 0 L258 311 L76 311 L131 573 L314 573 L369 834 L187 834 L243 1096 L425 1096 Z M598 573 L807 573 L862 834 L653 834 L598 573 Z " />
<glyph glyph-name="dollar" unicode="&#x24;" horiz-adv-x="1400" d="M1118 986 Q1082 1007 1038.5 1027.5 Q995 1048 946 1063.5 Q897 1079 842.5 1089 Q788 1099 730 1099 Q679 1099 636 1092 Q593 1085 562.5 1070 Q532 1055 514.5 1033 Q497 1011 496 981 Q495 948 516.5 927 Q538 906 576 892 Q614 878 666 868 Q718 858 779 848 L845 837 Q942 821 1021.5 790.5 Q1101 760 1157 714.5 Q1213 669 1243.5 607.5 Q1274 546 1274 467 Q1274 372 1241.5 297 Q1209 222 1152 167.5 Q1095 113 1016.5 78 Q938 43 845 29 L845 -164 L594 -164 L594 24 Q455 36 330.5 76.5 Q206 117 112 186 L269 438 Q364 375 474.5 337 Q585 299 711 299 Q760 299 801.5 306.5 Q843 314 874 329 Q905 344 922.5 367 Q940 390 941 422 Q942 453 924 473.5 Q906 494 871 508.5 Q836 523 784 533.5 Q732 544 665 555 L595 566 Q491 582 410.5 613.5 Q330 645 274.5 693 Q219 741 190.5 807.5 Q162 874 164 961 Q166 1045 198 1115 Q230 1185 286.5 1238 Q343 1291 421 1325.5 Q499 1360 594 1374 L594 1557 L845 1557 L845 1374 Q908 1367 963 1355 Q1018 1343 1068 1326 Q1118 1309 1165 1287 Q1212 1265 1259 1240 L1118 986 Z " />
<glyph glyph-name="percent" unicode="&#x25;" horiz-adv-x="1974" d="M448 1426 Q533 1426 605 1397 Q677 1368 729.5 1316 Q782 1264 812 1193.5 Q842 1123 842 1040 Q842 957 812 886 Q782 815 729.5 763.5 Q677 712 605 683 Q533 654 448 654 Q364 654 292 683 Q220 712 167.5 763.5 Q115 815 85 886 Q55 957 55 1040 Q55 1123 85 1193.5 Q115 1264 167.5 1316 Q220 1368 292 1397 Q364 1426 448 1426 Z M448 1192 Q416 1192 389.5 1180.5 Q363 1169 344 1148.5 Q325 1128 314 1100.5 Q303 1073 303 1040 Q303 1007 314 979 Q325 951 344 930.5 Q363 910 389.5 898.5 Q416 887 448 887 Q480 887 506.5 898.5 Q533 910 552.5 930.5 Q572 951 583 979 Q594 1007 594 1040 Q594 1073 583 1100.5 Q572 1128 552.5 1148.5 Q533 1169 506.5 1180.5 Q480 1192 448 1192 Z M638 0 L333 0 L1329 1400 L1633 1400 L638 0 Z M1525 746 Q1610 746 1682 717 Q1754 688 1806.5 636.5 Q1859 585 1889 514 Q1919 443 1919 360 Q1919 277 1889 206 Q1859 135 1806.5 83.5 Q1754 32 1682 3 Q1610 -26 1525 -26 Q1441 -26 1369 3 Q1297 32 1244.5 83.5 Q1192 135 1162 206 Q1132 277 1132 360 Q1132 442 1162 512.5 Q1192 583 1244.5 635 Q1297 687 1369 716.5 Q1441 746 1525 746 Z M1525 513 Q1493 513 1466.5 501.5 Q1440 490 1420.5 469.5 Q1401 449 1390 421 Q1379 393 1379 360 Q1379 327 1390 299.5 Q1401 272 1420.5 251.5 Q1440 231 1466.5 219.5 Q1493 208 1525 208 Q1557 208 1583.5 219.5 Q1610 231 1629.5 251.5 Q1649 272 1660 299.5 Q1671 327 1671 360 Q1671 393 1660 421 Q1649 449 1629.5 469.5 Q1610 490 1583.5 501.5 Q1557 513 1525 513 Z " />
<glyph glyph-name="ampersand" unicode="&#x26;" horiz-adv-x="1492" d="M1061 0 L933 123 Q894 91 850 64 Q806 37 756 17 Q706 -3 649.5 -14.5 Q593 -26 529 -26 Q420 -26 335 1 Q250 28 191.5 77.5 Q133 127 102 196.5 Q71 266 71 350 Q71 410 90 463 Q109 516 141 563 Q173 610 215.5 651 Q258 692 306 729 Q266 771 236 809.5 Q206 848 186 887.5 Q166 927 156 968.5 Q146 1010 146 1058 Q146 1139 177 1206.5 Q208 1274 265 1323 Q322 1372 402.5 1399 Q483 1426 581 1426 Q678 1426 758 1399.5 Q838 1373 895 1325 Q952 1277 983 1209.5 Q1014 1142 1014 1060 Q1014 1006 992.5 958 Q971 910 935 867 Q899 824 852 784.5 Q805 745 754 709 L931 536 L1140 799 L1366 634 L1133 338 L1480 0 L1061 0 Z M560 252 Q608 252 650 269 Q692 286 733 317 L507 535 Q461 497 433.5 459.5 Q406 422 406 381 Q406 321 447 286.5 Q488 252 560 252 Z M459 1047 Q459 1031 463.5 1016.5 Q468 1002 479.5 985.5 Q491 969 510.5 948 Q530 927 559 899 Q622 941 663 979 Q704 1017 704 1055 Q704 1098 671 1125.5 Q638 1153 581 1153 Q523 1153 491 1125.5 Q459 1098 459 1047 Z " />
<glyph glyph-name="quotesingle" unicode="&#x27;" horiz-adv-x="669" d="M491 1440 L491 790 L178 790 L178 1440 L491 1440 Z " />
<glyph glyph-name="parenleft" unicode="&#x28;" horiz-adv-x="838" d="M787 1183 Q690 1137 619 1072.5 Q548 1008 501.5 929 Q455 850 432.5 759 Q410 668 410 568 Q410 468 432.5 377 Q455 286 501.5 207 Q548 128 619 63.5 Q690 -1 787 -47 L694 -320 Q559 -272 447 -187 Q335 -102 254 13 Q173 128 128 268.5 Q83 409 83 568 Q83 727 128 867.5 Q173 1008 254 1123 Q335 1238 447 1323 Q559 1408 694 1456 L787 1183 Z " />
<glyph glyph-name="parenright" unicode="&#x29;" horiz-adv-x="838" d="M51 -46 Q148 0 219 64.5 Q290 129 336.5 208 Q383 287 405.5 378 Q428 469 428 569 Q428 669 405.5 760 Q383 851 336.5 930 Q290 1009 219 1073.5 Q148 1138 51 1184 L144 1457 Q279 1409 391 1324 Q503 1239 584 1124 Q665 1009 710 868.5 Q755 728 755 569 Q755 410 710 269.5 Q665 129 584 14 Q503 -101 391 -186 Q279 -271 144 -319 L51 -46 Z " />
<glyph glyph-name="asterisk" unicode="&#x2a;" horiz-adv-x="949" d="M360 1204 L352 1440 L597 1440 L588 1204 L809 1285 L885 1053 L658 988 L804 803 L606 660 L474 855 L344 660 L145 803 L290 988 L64 1053 L140 1285 L360 1204 Z " />
<glyph glyph-name="plus" unicode="&#x2b;" horiz-adv-x="1200" d="M469 60 L469 403 L129 403 L129 660 L469 660 L469 1003 L731 1003 L731 660 L1071 660 L1071 403 L731 403 L731 60 L469 60 Z " />
<glyph glyph-name="comma" unicode="&#x2c;" horiz-adv-x="565" d="M489 363 L329 -287 L68 -287 L147 363 L489 363 Z " />
<glyph glyph-name="hyphen" unicode="&#x2d;" horiz-adv-x="779" d="M690 398 L89 398 L89 665 L690 665 L690 398 Z " />
<glyph glyph-name="period" unicode="&#x2e;" horiz-adv-x="580" d="M291 402 Q334 402 372.5 385 Q411 368 440 339 Q469 310 486.5 271.5 Q504 233 504 190 Q504 146 486.5 107 Q469 68 440 38.5 Q411 9 372.5 -8.5 Q334 -26 291 -26 Q248 -26 209 -8.5 Q170 9 140.5 38.5 Q111 68 93.5 107 Q76 146 76 190 Q76 233 93.5 271.5 Q111 310 140.5 339 Q170 368 209 385 Q248 402 291 402 Z " />
<glyph glyph-name="slash" unicode="&#x2f;" horiz-adv-x="1067" d="M273 -200 L-51 -200 L798 1540 L1122 1540 L273 -200 Z " />
<glyph glyph-name="zero" unicode="0" horiz-adv-x="1200" d="M605 1425 Q721 1425 822 1381.5 Q923 1338 997.5 1249 Q1072 1160 1115 1023 Q1158 886 1158 700 Q1158 511 1115 374 Q1072 237 997.5 148.5 Q923 60 822 17.5 Q721 -25 605 -25 Q487 -25 384 17.5 Q281 60 205 148.5 Q129 237 85 374 Q41 511 41 700 Q41 890 85 1027 Q129 1164 205 1252.5 Q281 1341 384 1383 Q487 1425 605 1425 Z M605 1115 Q558 1115 516.5 1093 Q475 1071 443.5 1021.5 Q412 972 394 893 Q376 814 376 700 Q376 586 394 507 Q412 428 443.5 378.5 Q475 329 516.5 307 Q558 285 605 285 Q650 285 689.5 307 Q729 329 759 378.5 Q789 428 806.5 507 Q824 586 824 700 Q824 811 806.5 889.5 Q789 968 759 1018 Q729 1068 689.5 1091.5 Q650 1115 605 1115 Z " />
<glyph glyph-name="one" unicode="1" horiz-adv-x="1200" d="M496 307 L496 991 L176 879 L176 1196 L820 1422 L820 307 L1115 307 L1115 0 L189 0 L189 307 L496 307 Z " />
<glyph glyph-name="two" unicode="2" horiz-adv-x="1200" d="M74 1179 Q107 1219 153 1262.5 Q199 1306 261.5 1342 Q324 1378 404 1401.5 Q484 1425 585 1425 Q696 1425 785.5 1392.5 Q875 1360 938.5 1301 Q1002 1242 1036.5 1158.5 Q1071 1075 1071 973 Q1071 910 1058.5 857.5 Q1046 805 1020.5 756 Q995 707 955 658 Q915 609 861 555 L607 301 L1102 301 L1102 0 L146 0 L146 254 L631 729 Q682 779 708 831 Q734 883 734 940 Q734 979 720.5 1011.5 Q707 1044 682.5 1067 Q658 1090 624.5 1102.5 Q591 1115 551 1115 Q503 1115 463 1102 Q423 1089 388.5 1067.5 Q354 1046 324 1018 Q294 990 266 959 L74 1179 Z " />
<glyph glyph-name="three" unicode="3" horiz-adv-x="1200" d="M555 1425 Q669 1425 764 1396 Q859 1367 927.5 1314.5 Q996 1262 1034 1187 Q1072 1112 1072 1021 Q1072 911 1019 831 Q966 751 869 705 Q979 660 1040 579.5 Q1101 499 1101 388 Q1101 283 1056 205.5 Q1011 128 936 76.5 Q861 25 764 0 Q667 -25 563 -25 Q402 -25 275.5 28 Q149 81 66 180 L251 391 Q310 330 386 297.5 Q462 265 547 265 Q592 265 631.5 274 Q671 283 700.5 301.5 Q730 320 747 348.5 Q764 377 764 415 Q764 452 744.5 479.5 Q725 507 692 526 Q659 545 615 554.5 Q571 564 521 564 L363 564 L363 849 L523 849 Q568 849 607.5 858.5 Q647 868 676 886 Q705 904 721.5 931 Q738 958 738 994 Q738 1028 723 1054.5 Q708 1081 682 1099 Q656 1117 620 1126 Q584 1135 541 1135 Q492 1135 450 1124 Q408 1113 373 1095 Q338 1077 309 1053 Q280 1029 258 1002 L72 1213 Q111 1259 159.5 1297.5 Q208 1336 267.5 1364.5 Q327 1393 398.5 1409 Q470 1425 555 1425 Z " />
<glyph glyph-name="four" unicode="4" horiz-adv-x="1200" d="M984 540 L1160 540 L1160 239 L984 239 L984 0 L660 0 L660 239 L43 239 L43 466 L500 1399 L856 1399 L430 540 L660 540 L660 684 L768 908 L984 908 L984 540 Z " />
<glyph glyph-name="five" unicode="5" horiz-adv-x="1200" d="M1023 1102 L475 1102 L469 882 L607 882 Q728 882 821.5 851 Q915 820 978.5 764.5 Q1042 709 1074.5 631 Q1107 553 1107 460 Q1107 347 1067 257 Q1027 167 955.5 104 Q884 41 786.5 7.5 Q689 -26 575 -26 Q494 -26 421 -11.5 Q348 3 284 29 Q220 55 165.5 90.5 Q111 126 69 169 L230 407 Q256 382 294 357.5 Q332 333 377 313.5 Q422 294 472 282 Q522 270 573 270 Q671 270 721 316 Q771 362 771 438 Q771 471 758.5 500 Q746 529 717 550 Q688 571 641 583.5 Q594 596 524 596 L178 596 L196 1400 L1023 1400 L1023 1102 Z " />
<glyph glyph-name="six" unicode="6" horiz-adv-x="1200" d="M616 928 Q622 929 627 929 L639 929 Q756 929 849 892.5 Q942 856 1006.5 793 Q1071 730 1105.5 645 Q1140 560 1140 463 Q1140 357 1098.5 267.5 Q1057 178 983.5 113 Q910 48 810.5 11.5 Q711 -25 594 -25 Q478 -25 378.5 11 Q279 47 206 110.5 Q133 174 91.5 262 Q50 350 50 454 Q50 554 86.5 649 Q123 744 190 844 L562 1400 L952 1400 L616 928 Z M594 655 Q550 655 512.5 640.5 Q475 626 448 600 Q421 574 405.5 538 Q390 502 390 460 Q390 417 405.5 381 Q421 345 448 319 Q475 293 512.5 278.5 Q550 264 594 264 Q639 264 676.5 278.5 Q714 293 741.5 319 Q769 345 784.5 381 Q800 417 800 460 Q800 502 784.5 538 Q769 574 741.5 600 Q714 626 676.5 640.5 Q639 655 594 655 Z " />
<glyph glyph-name="seven" unicode="7" horiz-adv-x="1200" d="M1110 1146 L558 0 L172 0 L724 1099 L97 1099 L97 1400 L1110 1400 L1110 1146 Z " />
<glyph glyph-name="eight" unicode="8" horiz-adv-x="1200" d="M600 1425 Q709 1425 804.5 1397.5 Q900 1370 971.5 1318 Q1043 1266 1084.5 1191 Q1126 1116 1126 1021 Q1126 961 1110 912.5 Q1094 864 1065.5 825.5 Q1037 787 998.5 757.5 Q960 728 915 707 Q966 686 1011 656.5 Q1056 627 1089.5 587.5 Q1123 548 1142 496.5 Q1161 445 1161 381 Q1161 285 1116.5 210 Q1072 135 996 82.5 Q920 30 817.5 2.5 Q715 -25 600 -25 Q484 -25 382 2.5 Q280 30 204 82.5 Q128 135 83.5 210 Q39 285 39 381 Q39 445 58 496.5 Q77 548 110 587.5 Q143 627 188 656.5 Q233 686 284 707 Q239 728 200.5 757.5 Q162 787 134 825.5 Q106 864 90 912.5 Q74 961 74 1021 Q74 1116 115.5 1191 Q157 1266 228.5 1318 Q300 1370 395.5 1397.5 Q491 1425 600 1425 Z M600 582 Q558 582 520 571 Q482 560 453.5 539 Q425 518 408.5 487.5 Q392 457 392 417 Q392 378 408.5 348 Q425 318 453.5 297.5 Q482 277 520 267 Q558 257 600 257 Q642 257 679.5 267 Q717 277 745.5 297.5 Q774 318 790.5 348 Q807 378 807 417 Q807 457 790.5 487.5 Q774 518 745.5 539 Q717 560 679.5 571 Q642 582 600 582 Z M600 1138 Q562 1138 529.5 1128.5 Q497 1119 472.5 1100 Q448 1081 434 1053.5 Q420 1026 420 990 Q420 953 434 925 Q448 897 472.5 877.5 Q497 858 529.5 848 Q562 838 600 838 Q637 838 669.5 848 Q702 858 726.5 877.5 Q751 897 765 925 Q779 953 779 990 Q779 1026 765 1053.5 Q751 1081 726.5 1100 Q702 1119 669.5 1128.5 Q637 1138 600 1138 Z " />
<glyph glyph-name="nine" unicode="9" horiz-adv-x="1200" d="M584 471 L562 471 Q445 471 352 507.5 Q259 544 194.5 607 Q130 670 95.5 755 Q61 840 61 937 Q61 1043 102.5 1132.5 Q144 1222 217 1287 Q290 1352 389.5 1388.5 Q489 1425 606 1425 Q722 1425 821.5 1389 Q921 1353 994.5 1289.5 Q1068 1226 1109.5 1138 Q1151 1050 1151 946 Q1151 846 1114 751 Q1077 656 1010 556 L638 0 L249 0 L584 471 Z M606 745 Q650 745 687.5 759.5 Q725 774 752 800 Q779 826 794.5 862 Q810 898 810 940 Q810 983 794.5 1019 Q779 1055 752 1081 Q725 1107 687.5 1121.5 Q650 1136 606 1136 Q562 1136 524.5 1121.5 Q487 1107 459.5 1081 Q432 1055 416.5 1019 Q401 983 401 940 Q401 898 416.5 862 Q432 826 459.5 800 Q487 774 524.5 759.5 Q562 745 606 745 Z " />
<glyph glyph-name="colon" unicode="&#x3a;" horiz-adv-x="580" d="M291 1008 Q334 1008 372.5 990.5 Q411 973 440 944 Q469 915 486.5 876.5 Q504 838 504 795 Q504 751 486.5 712 Q469 673 440 644 Q411 615 372.5 597.5 Q334 580 291 580 Q248 580 209 597.5 Q170 615 140.5 644 Q111 673 93.5 712 Q76 751 76 795 Q76 838 93.5 876.5 Q111 915 140.5 944 Q170 973 209 990.5 Q248 1008 291 1008 Z M291 402 Q334 402 372.5 385 Q411 368 440 339 Q469 310 486.5 271.5 Q504 233 504 190 Q504 146 486.5 107 Q469 68 440 38.5 Q411 9 372.5 -8.5 Q334 -26 291 -26 Q248 -26 209 -8.5 Q170 9 140.5 38.5 Q111 68 93.5 107 Q76 146 76 190 Q76 233 93.5 271.5 Q111 310 140.5 339 Q170 368 209 385 Q248 402 291 402 Z " />
<glyph glyph-name="semicolon" unicode="&#x3b;" horiz-adv-x="565" d="M300 1008 Q343 1008 381.5 990.5 Q420 973 449 944 Q478 915 495.5 876.5 Q513 838 513 795 Q513 751 495.5 712 Q478 673 449 644 Q420 615 381.5 597.5 Q343 580 300 580 Q257 580 218 597.5 Q179 615 149.5 644 Q120 673 102.5 712 Q85 751 85 795 Q85 838 102.5 876.5 Q120 915 149.5 944 Q179 973 218 990.5 Q257 1008 300 1008 Z M489 363 L329 -287 L68 -287 L147 363 L489 363 Z " />
<glyph glyph-name="less" unicode="&#x3c;" horiz-adv-x="1200" d="M1012 9 L189 390 L189 674 L1012 1054 L1012 757 L470 532 L1012 306 L1012 9 Z " />
<glyph glyph-name="equal" unicode="&#x3d;" horiz-adv-x="1200" d="M1071 178 L129 178 L129 436 L1071 436 L1071 178 Z M1071 627 L129 627 L129 885 L1071 885 L1071 627 Z " />
<glyph glyph-name="greater" unicode="&#x3e;" horiz-adv-x="1200" d="M189 1054 L1012 673 L1012 389 L189 9 L189 306 L731 531 L189 757 L189 1054 Z " />
<glyph glyph-name="question" unicode="&#x3f;" horiz-adv-x="891" d="M152 494 L152 852 L254 852 Q513 852 513 983 Q513 1109 256 1111 Q218 1111 180 1109 Q142 1107 111 1103 L93 1415 Q138 1421 193.5 1424.5 Q249 1428 309 1428 Q439 1428 541 1399 Q643 1370 713.5 1316.5 Q784 1263 821 1186.5 Q858 1110 858 1015 Q858 848 753.5 741.5 Q649 635 452 597 L445 494 L152 494 Z M298 388 Q339 388 376.5 371.5 Q414 355 442 327 Q470 299 486.5 261.5 Q503 224 503 183 Q503 141 486.5 103 Q470 65 442 36.5 Q414 8 376.5 -9 Q339 -26 298 -26 Q256 -26 218.5 -9.5 Q181 7 152.5 35.5 Q124 64 107.5 102 Q91 140 91 182 Q91 224 107.5 261 Q124 298 152.5 326.5 Q181 355 218.5 371.5 Q256 388 298 388 Z " />
<glyph glyph-name="at" unicode="&#x40;" horiz-adv-x="1895" d="M1320 433 Q1320 372 1339 341 Q1358 310 1402 310 Q1465 310 1503 366.5 Q1541 423 1541 547 Q1541 666 1497.5 767.5 Q1454 869 1376 942.5 Q1298 1016 1190 1057.5 Q1082 1099 952 1099 Q822 1099 713.5 1055.5 Q605 1012 527 933 Q449 854 405.5 743.5 Q362 633 362 500 Q362 366 404.5 256 Q447 146 523 66.5 Q599 -13 704.5 -56.5 Q810 -100 937 -100 Q1034 -100 1119.5 -78 Q1205 -56 1280 1 L1423 -188 Q1369 -228 1309.5 -255.5 Q1250 -283 1187.5 -300.5 Q1125 -318 1062 -325.5 Q999 -333 937 -333 Q752 -333 598 -270.5 Q444 -208 332.5 -96.5 Q221 15 159 167.5 Q97 320 97 500 Q97 620 125.5 728 Q154 836 207.5 928.5 Q261 1021 337 1095.5 Q413 1170 508 1222.5 Q603 1275 715 1303.5 Q827 1332 952 1332 Q1077 1332 1188.5 1304.5 Q1300 1277 1394 1227 Q1488 1177 1563 1106 Q1638 1035 1690.5 948 Q1743 861 1771 759.5 Q1799 658 1799 548 Q1799 446 1770 360.5 Q1741 275 1688 213.5 Q1635 152 1559 117.5 Q1483 83 1390 83 Q1334 83 1290.5 93.5 Q1247 104 1213 122.5 Q1179 141 1155 165.5 Q1131 190 1115 218 Q1080 169 1024 137 Q968 105 884 105 Q805 105 741 136 Q677 167 632 220 Q587 273 562.5 345 Q538 417 538 500 Q538 582 563 653.5 Q588 725 633 778.5 Q678 832 740 863 Q802 894 876 894 Q948 894 997.5 867 Q1047 840 1079 797 L1079 873 L1320 873 L1320 433 Z M938 660 Q907 660 881 648 Q855 636 836 614.5 Q817 593 806.5 563.5 Q796 534 796 499 Q796 464 806.5 435 Q817 406 836 384 Q855 362 881 350 Q907 338 938 338 Q969 338 994.5 350 Q1020 362 1038.5 383.5 Q1057 405 1067.5 434.5 Q1078 464 1078 499 Q1078 534 1067.5 563.5 Q1057 593 1038.5 614.5 Q1020 636 994.5 648 Q969 660 938 660 Z " />
<glyph glyph-name="A" unicode="A" horiz-adv-x="1497" d="M1485 0 L1129 0 L1023 294 L467 294 L361 0 L12 0 L549 1400 L948 1400 L1485 0 Z M575 596 L915 596 L745 1068 L575 596 Z " />
<glyph glyph-name="B" unicode="B" horiz-adv-x="1365" d="M729 1400 Q996 1400 1131.5 1299 Q1267 1198 1267 1004 Q1267 952 1252.5 906.5 Q1238 861 1212.5 823 Q1187 785 1151.5 756 Q1116 727 1074 708 Q1120 691 1160.5 661.5 Q1201 632 1231 592 Q1261 552 1278.5 503.5 Q1296 455 1296 401 Q1296 208 1163 104 Q1030 0 764 0 L127 0 L127 1400 L729 1400 Z M461 564 L461 280 L747 280 Q844 280 897.5 312 Q951 344 951 423 Q951 500 897.5 532 Q844 564 747 564 L461 564 Z M461 1119 L461 843 L721 843 Q766 843 802.5 850 Q839 857 865 873.5 Q891 890 905 916.5 Q919 943 919 982 Q919 1020 905 1046.5 Q891 1073 865 1089 Q839 1105 802.5 1112 Q766 1119 721 1119 L461 1119 Z " />
<glyph glyph-name="C" unicode="C" horiz-adv-x="1488" d="M806 1426 Q906 1426 999 1403 Q1092 1380 1172.5 1337 Q1253 1294 1318 1231 Q1383 1168 1428 1089 L1135 921 Q1080 1011 995.5 1058.5 Q911 1106 802 1106 Q719 1106 648.5 1076.5 Q578 1047 526.5 993 Q475 939 446 864.5 Q417 790 417 700 Q417 602 448 526.5 Q479 451 532 399.5 Q585 348 655 321 Q725 294 803 294 Q910 294 995.5 341 Q1081 388 1141 478 L1415 284 Q1367 212 1303.5 155 Q1240 98 1163 57.5 Q1086 17 996 -4.5 Q906 -26 806 -26 Q644 -26 508.5 28 Q373 82 275.5 178 Q178 274 123.5 407.5 Q69 541 69 700 Q69 859 123.5 992.5 Q178 1126 275.5 1222 Q373 1318 508.5 1372 Q644 1426 806 1426 Z " />
<glyph glyph-name="D" unicode="D" horiz-adv-x="1522" d="M726 1400 Q890 1400 1024 1350 Q1158 1300 1253.5 1208.5 Q1349 1117 1401 987.5 Q1453 858 1453 700 Q1453 542 1401 412.5 Q1349 283 1253.5 191.5 Q1158 100 1024 50 Q890 0 726 0 L127 0 L127 1400 L726 1400 Z M461 1091 L461 309 L719 309 Q816 309 888.5 338.5 Q961 368 1009 420 Q1057 472 1080.5 543.5 Q1104 615 1104 700 Q1104 786 1080.5 858 Q1057 930 1009 981.5 Q961 1033 888.5 1062 Q816 1091 719 1091 L461 1091 Z " />
<glyph glyph-name="E" unicode="E" horiz-adv-x="1300" d="M1199 0 L127 0 L127 1400 L1195 1400 L1195 1099 L461 1099 L461 857 L1152 857 L1152 557 L461 557 L461 301 L1199 301 L1199 0 Z " />
<glyph glyph-name="F" unicode="F" horiz-adv-x="1261" d="M1137 535 L461 535 L461 0 L127 0 L127 1400 L1185 1400 L1185 1099 L461 1099 L461 837 L1137 837 L1137 535 Z " />
<glyph glyph-name="G" unicode="G" horiz-adv-x="1560" d="M814 1426 Q982 1426 1112.5 1372.5 Q1243 1319 1335 1223 L1097 989 Q1044 1046 970 1079 Q896 1112 798 1112 Q714 1112 643.5 1082 Q573 1052 521.5 997.5 Q470 943 441.5 867 Q413 791 413 700 Q413 599 444 521 Q475 443 528 389.5 Q581 336 651 308 Q721 280 799 280 Q949 280 1036.5 344 Q1124 408 1153 533 L812 533 L812 791 L1484 791 Q1488 763 1489.5 737.5 Q1491 712 1491 686 Q1491 518 1435.5 386 Q1380 254 1286 162.5 Q1192 71 1069 23 Q946 -25 811 -25 Q655 -25 519.5 27 Q384 79 284 174 Q184 269 126.5 402.5 Q69 536 69 700 Q69 859 124 992.5 Q179 1126 278 1222.5 Q377 1319 513.5 1372.5 Q650 1426 814 1426 Z " />
<glyph glyph-name="H" unicode="H" horiz-adv-x="1511" d="M461 861 L1050 861 L1050 1400 L1384 1400 L1384 0 L1050 0 L1050 552 L461 552 L461 0 L127 0 L127 1400 L461 1400 L461 861 Z " />
<glyph glyph-name="I" unicode="I" horiz-adv-x="588" d="M461 0 L127 0 L127 1400 L461 1400 L461 0 Z " />
<glyph glyph-name="J" unicode="J" horiz-adv-x="1108" d="M988 526 Q988 388 950.5 284.5 Q913 181 844.5 112 Q776 43 681 8.5 Q586 -26 471 -26 Q389 -26 320.5 -11 Q252 4 196.5 28.5 Q141 53 98 84 Q55 115 25 148 L199 401 Q219 380 244 361 Q269 342 300 327 Q331 312 367 303.5 Q403 295 446 295 Q495 295 533.5 309.5 Q572 324 599 355.5 Q626 387 640 436.5 Q654 486 654 555 L654 1400 L988 1400 L988 526 Z " />
<glyph glyph-name="K" unicode="K" horiz-adv-x="1423" d="M579 554 L461 554 L461 0 L127 0 L127 1400 L461 1400 L461 855 L582 855 L984 1400 L1395 1400 L852 717 L1440 0 L1020 0 L579 554 Z " />
<glyph glyph-name="L" unicode="L" horiz-adv-x="1190" d="M1165 0 L127 0 L127 1400 L461 1400 L461 310 L1165 310 L1165 0 Z " />
<glyph glyph-name="M" unicode="M" horiz-adv-x="1837" d="M1710 0 L1376 0 L1376 958 L1096 132 L741 132 L461 955 L461 0 L127 0 L127 1400 L600 1400 L919 511 L1236 1400 L1710 1400 L1710 0 Z " />
<glyph glyph-name="N" unicode="N" horiz-adv-x="1547" d="M1420 0 L1099 0 L461 854 L461 0 L127 0 L127 1400 L447 1400 L1085 546 L1085 1400 L1420 1400 L1420 0 Z " />
<glyph glyph-name="O" unicode="O" horiz-adv-x="1614" d="M807 1426 Q969 1426 1104.5 1371.5 Q1240 1317 1338 1220 Q1436 1123 1490.5 990 Q1545 857 1545 700 Q1545 543 1490.5 410 Q1436 277 1338 180 Q1240 83 1104.5 28.5 Q969 -26 807 -26 Q645 -26 509.5 28.5 Q374 83 276 180 Q178 277 123.5 410 Q69 543 69 700 Q69 857 123.5 990 Q178 1123 276 1220 Q374 1317 509.5 1371.5 Q645 1426 807 1426 Z M807 1106 Q721 1106 649.5 1076.5 Q578 1047 526.5 993 Q475 939 446 864.5 Q417 790 417 700 Q417 610 446 535.5 Q475 461 526.5 407 Q578 353 649.5 323.5 Q721 294 807 294 Q892 294 964 323.5 Q1036 353 1087.5 407 Q1139 461 1168 535.5 Q1197 610 1197 700 Q1197 790 1168 864.5 Q1139 939 1087.5 993 Q1036 1047 964 1076.5 Q892 1106 807 1106 Z " />
<glyph glyph-name="P" unicode="P" horiz-adv-x="1317" d="M461 473 L461 0 L127 0 L127 1400 L727 1400 Q857 1400 955.5 1366.5 Q1054 1333 1121 1272 Q1188 1211 1222 1124.5 Q1256 1038 1256 933 Q1256 829 1222 744.5 Q1188 660 1121.5 599.5 Q1055 539 957 506 Q859 473 730 473 L461 473 Z M461 1097 L461 771 L722 771 Q813 771 864.5 812 Q916 853 916 933 Q916 1014 864.5 1055.5 Q813 1097 722 1097 L461 1097 Z " />
<glyph glyph-name="Q" unicode="Q" horiz-adv-x="1636" d="M807 1426 Q969 1426 1104.5 1371.5 Q1240 1317 1338 1220 Q1436 1123 1490.5 990 Q1545 857 1545 700 Q1545 582 1512.5 483 Q1480 384 1421 300 L1642 0 L1249 0 L1187 82 Q1106 31 1012 2.5 Q918 -26 807 -26 Q645 -26 509.5 28.5 Q374 83 276 180 Q178 277 123.5 410 Q69 543 69 700 Q69 857 123.5 990 Q178 1123 276 1220 Q374 1317 509.5 1371.5 Q645 1426 807 1426 Z M807 1106 Q721 1106 649.5 1076.5 Q578 1047 526.5 993 Q475 939 446 864.5 Q417 790 417 700 Q417 610 446 535.5 Q475 461 526.5 407 Q578 353 649.5 323.5 Q721 294 807 294 Q858 294 904.5 305 Q951 316 992 336 L771 632 L1135 632 L1180 571 Q1197 633 1197 700 Q1197 790 1168 864.5 Q1139 939 1087.5 993 Q1036 1047 964 1076.5 Q892 1106 807 1106 Z " />
<glyph glyph-name="R" unicode="R" horiz-adv-x="1347" d="M736 1400 Q866 1400 965 1369 Q1064 1338 1131 1279.5 Q1198 1221 1232 1138 Q1266 1055 1266 952 Q1266 869 1240 799 Q1214 729 1164.5 675 Q1115 621 1042 585 Q969 549 875 534 L1277 0 L879 0 L510 524 L461 524 L461 0 L127 0 L127 1400 L736 1400 Z M461 1097 L461 805 L732 805 Q823 805 874.5 841 Q926 877 926 952 Q926 989 912.5 1016.5 Q899 1044 873.5 1062 Q848 1080 812 1088.5 Q776 1097 732 1097 L461 1097 Z " />
<glyph glyph-name="S" unicode="S" horiz-adv-x="1355" d="M1111 1003 Q1073 1025 1029 1046.5 Q985 1068 934.5 1084.5 Q884 1101 827.5 1111 Q771 1121 710 1121 Q662 1121 622 1113 Q582 1105 552.5 1089 Q523 1073 506.5 1049.5 Q490 1026 490 995 Q490 962 513 940.5 Q536 919 575.5 904 Q615 889 667.5 879 Q720 869 778 859 L836 849 Q938 831 1020 798 Q1102 765 1159.5 715.5 Q1217 666 1248 599 Q1279 532 1279 446 Q1279 363 1256.5 295.5 Q1234 228 1193.5 175.5 Q1153 123 1098 85 Q1043 47 977.5 22.5 Q912 -2 839.5 -14 Q767 -26 692 -26 Q605 -26 519.5 -14.5 Q434 -3 355 19.5 Q276 42 205 75 Q134 108 76 152 L243 424 Q283 397 331 370.5 Q379 344 435 323 Q491 302 556 289.5 Q621 277 695 277 Q742 277 782.5 285 Q823 293 853 309.5 Q883 326 900 350 Q917 374 917 407 Q917 438 899.5 459.5 Q882 481 847 496 Q812 511 760.5 521.5 Q709 532 640 543 L570 554 Q462 571 379 604.5 Q296 638 240.5 690 Q185 742 157 814 Q129 886 131 981 Q133 1083 175.5 1165 Q218 1247 292.5 1305 Q367 1363 469.5 1394 Q572 1425 695 1425 Q766 1425 833.5 1418.5 Q901 1412 969 1395 Q1037 1378 1108.5 1349.5 Q1180 1321 1260 1277 L1111 1003 Z " />
<glyph glyph-name="T" unicode="T" horiz-adv-x="1213" d="M1188 1090 L774 1090 L774 0 L440 0 L440 1090 L25 1090 L25 1400 L1188 1400 L1188 1090 Z " />
<glyph glyph-name="U" unicode="U" horiz-adv-x="1453" d="M1339 565 Q1339 421 1297 311 Q1255 201 1175.5 126 Q1096 51 982.5 12.5 Q869 -26 726 -26 Q583 -26 469.5 12.5 Q356 51 277 126 Q198 201 156 311 Q114 421 114 565 L114 1400 L449 1400 L449 578 Q449 506 469 453 Q489 400 525 364.5 Q561 329 612 312 Q663 295 726 295 Q789 295 840.5 312 Q892 329 928 364.5 Q964 400 984 453 Q1004 506 1004 578 L1004 1400 L1339 1400 L1339 565 Z " />
<glyph glyph-name="V" unicode="V" horiz-adv-x="1457" d="M928 0 L530 0 L12 1400 L367 1400 L731 344 L1097 1400 L1445 1400 L928 0 Z " />
<glyph glyph-name="W" unicode="W" horiz-adv-x="2178" d="M1751 0 L1353 0 L1089 903 L825 0 L427 0 L19 1400 L364 1400 L631 397 L911 1400 L1272 1400 L1552 395 L1819 1400 L2159 1400 L1751 0 Z " />
<glyph glyph-name="X" unicode="X" horiz-adv-x="1356" d="M881 707 L1339 0 L956 0 L676 455 L396 0 L17 0 L475 707 L23 1400 L406 1400 L680 954 L954 1400 L1334 1400 L881 707 Z " />
<glyph glyph-name="Y" unicode="Y" horiz-adv-x="1398" d="M871 539 L871 0 L536 0 L536 537 L4 1400 L391 1400 L705 841 L1018 1400 L1394 1400 L871 539 Z " />
<glyph glyph-name="Z" unicode="Z" horiz-adv-x="1284" d="M1208 1138 L520 301 L1208 301 L1208 0 L76 0 L76 262 L763 1099 L77 1099 L77 1400 L1208 1400 L1208 1138 Z " />
<glyph glyph-name="bracketleft" unicode="&#x5b;" horiz-adv-x="756" d="M705 -263 L127 -263 L127 1400 L705 1400 L705 1120 L443 1120 L443 17 L705 17 L705 -263 Z " />
<glyph glyph-name="backslash" unicode="&#x5c;" horiz-adv-x="1067" d="M-55 1540 L269 1540 L1118 -200 L794 -200 L-55 1540 Z " />
<glyph glyph-name="bracketright" unicode="&#x5d;" horiz-adv-x="756" d="M51 1400 L629 1400 L629 -263 L51 -263 L51 17 L313 17 L313 1120 L51 1120 L51 1400 Z " />
<glyph glyph-name="asciicircum" unicode="&#x5e;" horiz-adv-x="1200" d="M101 635 L458 1400 L742 1400 L1099 635 L792 635 L596 1102 L401 635 L101 635 Z " />
<glyph glyph-name="underscore" unicode="&#x5f;" horiz-adv-x="940" d="M945 -328 L-5 -328 L-5 -92 L945 -92 L945 -328 Z " />
<glyph glyph-name="grave" unicode="&#x60;" horiz-adv-x="1000" d="M493 1105 L215 1437 L574 1437 L786 1105 L493 1105 Z " />
<glyph glyph-name="a" unicode="a" horiz-adv-x="1208" d="M1099 0 L796 0 L796 106 Q751 48 682.5 11 Q614 -26 514 -26 Q416 -26 332.5 14 Q249 54 188 124 Q127 194 92.5 288.5 Q58 383 58 492 Q58 600 92.5 694 Q127 788 188 858 Q249 928 332.5 968 Q416 1008 515 1008 Q614 1008 683 970.5 Q752 933 796 875 L796 981 L1099 981 L1099 0 Z M589 716 Q542 716 503.5 699 Q465 682 437.5 651.5 Q410 621 395 580 Q380 539 380 491 Q380 443 395 402 Q410 361 437.5 330.5 Q465 300 503.5 283 Q542 266 589 266 Q635 266 673.5 283 Q712 300 740 330 Q768 360 783.5 401 Q799 442 799 491 Q799 540 783.5 581 Q768 622 740 652 Q712 682 673.5 699 Q635 716 589 716 Z " />
<glyph glyph-name="b" unicode="b" horiz-adv-x="1208" d="M693 1008 Q791 1008 875 968 Q959 928 1020 858 Q1081 788 1115.5 694 Q1150 600 1150 492 Q1150 383 1115.5 288.5 Q1081 194 1020 124 Q959 54 875 14 Q791 -26 693 -26 Q593 -26 525 10.5 Q457 47 412 105 L412 0 L110 0 L110 1440 L422 1440 L422 887 Q467 941 532.5 974.5 Q598 1008 693 1008 Z M618 716 Q572 716 533.5 699 Q495 682 467.5 652 Q440 622 424.5 581 Q409 540 409 491 Q409 442 424.5 401 Q440 360 467.5 330 Q495 300 533.5 283 Q572 266 618 266 Q665 266 704 283 Q743 300 770.5 330.5 Q798 361 813 402 Q828 443 828 491 Q828 539 813 580 Q798 621 770.5 651.5 Q743 682 704 699 Q665 716 618 716 Z " />
<glyph glyph-name="c" unicode="c" horiz-adv-x="1038" d="M587 1008 Q724 1008 829.5 951 Q935 894 1006 793 L761 622 Q724 670 680.5 693 Q637 716 580 716 Q539 716 502.5 700.5 Q466 685 438 656 Q410 627 394 585.5 Q378 544 378 491 Q378 438 394 396 Q410 354 437 325 Q464 296 500.5 281 Q537 266 578 266 Q688 266 763 361 L1007 187 Q936 87 830 30.5 Q724 -26 587 -26 Q470 -26 372.5 12.5 Q275 51 205 120 Q135 189 96.5 283.5 Q58 378 58 491 Q58 603 96.5 698 Q135 793 205 862 Q275 931 372.5 969.5 Q470 1008 587 1008 Z " />
<glyph glyph-name="d" unicode="d" horiz-adv-x="1207" d="M515 1008 Q609 1008 675 974.5 Q741 941 786 887 L786 1440 L1098 1440 L1098 0 L796 0 L796 106 Q751 48 682.5 11 Q614 -26 514 -26 Q416 -26 332.5 14 Q249 54 188 124 Q127 194 92.5 288.5 Q58 383 58 492 Q58 600 92.5 694 Q127 788 188 858 Q249 928 332.5 968 Q416 1008 515 1008 Z M589 716 Q542 716 503.5 699 Q465 682 437.5 651.5 Q410 621 395 580 Q380 539 380 491 Q380 443 395 402 Q410 361 437.5 330.5 Q465 300 503.5 283 Q542 266 589 266 Q635 266 673.5 283 Q712 300 740 330 Q768 360 783.5 401 Q799 442 799 491 Q799 540 783.5 581 Q768 622 740 652 Q712 682 673.5 699 Q635 716 589 716 Z " />
<glyph glyph-name="e" unicode="e" horiz-adv-x="1110" d="M561 1008 Q670 1008 760.5 970.5 Q851 933 915.5 864.5 Q980 796 1016 701 Q1052 606 1052 491 Q1052 467 1050.5 438.5 Q1049 410 1046 394 L381 394 Q401 313 455.5 275 Q510 237 591 237 Q646 237 702 259 Q758 281 805 323 L1007 135 Q930 58 821 16 Q712 -26 575 -26 Q459 -26 364 11 Q269 48 201 115 Q133 182 95.5 276 Q58 370 58 485 Q58 601 94.5 697 Q131 793 197.5 862 Q264 931 356.5 969.5 Q449 1008 561 1008 Z M562 742 Q489 742 444.5 703.5 Q400 665 382 592 L739 592 Q720 666 675.5 704 Q631 742 562 742 Z " />
<glyph glyph-name="f" unicode="f" horiz-adv-x="855" d="M790 704 L515 704 L515 0 L202 0 L202 704 L33 704 L33 981 L202 981 L202 1057 Q202 1156 228 1232.5 Q254 1309 303 1360.5 Q352 1412 421 1439 Q490 1466 576 1466 Q633 1466 681 1458 Q729 1450 769.5 1436 Q810 1422 844 1403 Q878 1384 907 1362 L771 1131 Q736 1149 699.5 1161.5 Q663 1174 618 1174 Q566 1174 540.5 1144 Q515 1114 515 1050 L515 981 L790 981 L790 704 Z " />
<glyph glyph-name="g" unicode="g" horiz-adv-x="1199" d="M513 1008 Q610 1008 676.5 972 Q743 936 787 879 L787 981 L1090 981 L1090 94 Q1090 -27 1052 -122.5 Q1014 -218 944.5 -284 Q875 -350 776.5 -385 Q678 -420 558 -420 Q496 -420 435 -412 Q374 -404 316.5 -388.5 Q259 -373 206.5 -349.5 Q154 -326 110 -295 L221 -46 Q293 -97 370.5 -121.5 Q448 -146 536 -146 Q584 -146 628.5 -132.5 Q673 -119 707.5 -91.5 Q742 -64 762.5 -21.5 Q783 21 783 80 L783 141 Q739 85 673.5 51 Q608 17 513 17 Q414 17 331 55 Q248 93 187 160 Q126 227 92 317.5 Q58 408 58 512 Q58 616 92 706.5 Q126 797 187 864 Q248 931 331 969.5 Q414 1008 513 1008 Z M587 722 Q541 722 503 706 Q465 690 438 662 Q411 634 396 595.5 Q381 557 381 512 Q381 467 396 429 Q411 391 438 362.5 Q465 334 503 318 Q541 302 587 302 Q631 302 668 318 Q705 334 731.5 362 Q758 390 772.5 428.5 Q787 467 787 512 Q787 557 772.5 595.5 Q758 634 731.5 662 Q705 690 668 706 Q631 722 587 722 Z " />
<glyph glyph-name="h" unicode="h" horiz-adv-x="1153" d="M423 878 Q470 945 540 976.5 Q610 1008 702 1008 Q775 1008 839 983 Q903 958 949.5 911 Q996 864 1023 796.5 Q1050 729 1050 644 L1050 0 L737 0 L737 533 Q737 621 696 667.5 Q655 714 582 714 Q549 714 520.5 703 Q492 692 470 669 Q448 646 435.5 611 Q423 576 423 528 L423 0 L110 0 L110 1441 L423 1441 L423 878 Z " />
<glyph glyph-name="i" unicode="i" horiz-adv-x="532" d="M423 0 L110 0 L110 981 L423 981 L423 0 Z M265 1471 Q304 1471 338.5 1456.5 Q373 1442 398 1416.5 Q423 1391 437.5 1357 Q452 1323 452 1283 Q452 1244 437.5 1210 Q423 1176 398 1151 Q373 1126 338.5 1111.5 Q304 1097 265 1097 Q225 1097 191 1111.5 Q157 1126 132 1151 Q107 1176 92.5 1210 Q78 1244 78 1283 Q78 1323 92.5 1357 Q107 1391 132 1416.5 Q157 1442 191 1456.5 Q225 1471 265 1471 Z " />
<glyph glyph-name="j" unicode="j" horiz-adv-x="533" d="M424 -65 Q424 -151 401 -217.5 Q378 -284 336 -330 Q294 -376 235 -400 Q176 -424 103 -424 Q86 -424 65.5 -422 Q45 -420 24.5 -417 Q4 -414 -15 -409.5 Q-34 -405 -47 -400 L-17 -123 Q-3 -128 12.5 -130.5 Q28 -133 46 -133 Q75 -133 93.5 -113.5 Q112 -94 112 -45 L112 981 L424 981 L424 -65 Z M266 1471 Q305 1471 339.5 1456.5 Q374 1442 399 1416.5 Q424 1391 438.5 1357 Q453 1323 453 1283 Q453 1244 438.5 1210 Q424 1176 399 1151 Q374 1126 339.5 1111.5 Q305 1097 266 1097 Q226 1097 192 1111.5 Q158 1126 133 1151 Q108 1176 93.5 1210 Q79 1244 79 1283 Q79 1323 93.5 1357 Q108 1391 133 1416.5 Q158 1442 192 1456.5 Q226 1471 266 1471 Z " />
<glyph glyph-name="k" unicode="k" horiz-adv-x="1105" d="M423 656 L498 656 L730 981 L1109 981 L746 518 L1110 0 L732 0 L490 379 L423 379 L423 0 L110 0 L110 1440 L423 1440 L423 656 Z " />
<glyph glyph-name="l" unicode="l" horiz-adv-x="532" d="M423 0 L110 0 L110 1440 L423 1440 L423 0 Z " />
<glyph glyph-name="m" unicode="m" horiz-adv-x="1781" d="M1312 1008 Q1396 1008 1463.5 983 Q1531 958 1579 911 Q1627 864 1652.5 796.5 Q1678 729 1678 644 L1678 0 L1365 0 L1365 533 Q1365 621 1324 667.5 Q1283 714 1209 714 Q1177 714 1148 703 Q1119 692 1097 669 Q1075 646 1062.5 611 Q1050 576 1050 528 L1050 0 L737 0 L737 533 Q737 621 696 667.5 Q655 714 582 714 Q549 714 520.5 703 Q492 692 470 669 Q448 646 435.5 611 Q423 576 423 528 L423 0 L110 0 L110 981 L410 981 L410 858 Q457 936 530 972 Q603 1008 702 1008 Q799 1008 877.5 965.5 Q956 923 1001 844 Q1051 929 1130.5 968.5 Q1210 1008 1312 1008 Z " />
<glyph glyph-name="n" unicode="n" horiz-adv-x="1153" d="M702 1008 Q775 1008 839 983 Q903 958 949.5 911 Q996 864 1023 796.5 Q1050 729 1050 644 L1050 0 L737 0 L737 533 Q737 621 696 667.5 Q655 714 582 714 Q549 714 520.5 703 Q492 692 470 669 Q448 646 435.5 611 Q423 576 423 528 L423 0 L110 0 L110 981 L410 981 L410 858 Q457 936 530 972 Q603 1008 702 1008 Z " />
<glyph glyph-name="o" unicode="o" horiz-adv-x="1181" d="M590 1008 Q705 1008 802.5 969 Q900 930 971.5 861 Q1043 792 1083 697 Q1123 602 1123 491 Q1123 380 1083 285 Q1043 190 971.5 121 Q900 52 802.5 13 Q705 -26 590 -26 Q475 -26 377.5 13 Q280 52 209 121 Q138 190 98 285 Q58 380 58 491 Q58 602 98 697 Q138 792 209 861 Q280 930 377.5 969 Q475 1008 590 1008 Z M590 716 Q544 716 505.5 699.5 Q467 683 438.5 653 Q410 623 394 581.5 Q378 540 378 491 Q378 441 394 400 Q410 359 438.5 329 Q467 299 505.5 282.5 Q544 266 590 266 Q636 266 675 282.5 Q714 299 742.5 329 Q771 359 787 400 Q803 441 803 491 Q803 540 787 581.5 Q771 623 742.5 653 Q714 683 675 699.5 Q636 716 590 716 Z " />
<glyph glyph-name="p" unicode="p" horiz-adv-x="1208" d="M693 1008 Q791 1008 875 968 Q959 928 1020 858 Q1081 788 1115.5 694 Q1150 600 1150 492 Q1150 383 1115.5 288.5 Q1081 194 1020 124 Q959 54 875 14 Q791 -26 693 -26 Q598 -26 532.5 7 Q467 40 422 93 L422 -400 L110 -400 L110 981 L412 981 L412 875 Q457 933 525 970.5 Q593 1008 693 1008 Z M618 716 Q572 716 533.5 699 Q495 682 467.5 652 Q440 622 424.5 581 Q409 540 409 491 Q409 442 424.5 401 Q440 360 467.5 330 Q495 300 533.5 283 Q572 266 618 266 Q665 266 704 283 Q743 300 770.5 330.5 Q798 361 813 402 Q828 443 828 491 Q828 539 813 580 Q798 621 770.5 651.5 Q743 682 704 699 Q665 716 618 716 Z " />
<glyph glyph-name="q" unicode="q" horiz-adv-x="1207" d="M515 1008 Q614 1008 683 970.5 Q752 933 796 875 L796 981 L1098 981 L1098 -400 L786 -400 L786 93 Q741 40 675 7 Q609 -26 514 -26 Q416 -26 332.5 14 Q249 54 188 124 Q127 194 92.5 288.5 Q58 383 58 492 Q58 600 92.5 694 Q127 788 188 858 Q249 928 332.5 968 Q416 1008 515 1008 Z M589 716 Q542 716 503.5 699 Q465 682 437.5 651.5 Q410 621 395 580 Q380 539 380 491 Q380 443 395 402 Q410 361 437.5 330.5 Q465 300 503.5 283 Q542 266 589 266 Q635 266 673.5 283 Q712 300 740 330 Q768 360 783.5 401 Q799 442 799 491 Q799 540 783.5 581 Q768 622 740 652 Q712 682 673.5 699 Q635 716 589 716 Z " />
<glyph glyph-name="r" unicode="r" horiz-adv-x="821" d="M678 1008 Q713 1008 741.5 1003 Q770 998 788 993 L759 681 Q727 692 685.5 699.5 Q644 707 602 707 Q518 707 470.5 664.5 Q423 622 423 530 L423 0 L110 0 L110 981 L410 981 L410 868 Q453 940 520 974 Q587 1008 678 1008 Z " />
<glyph glyph-name="s" unicode="s" horiz-adv-x="1017" d="M848 679 Q812 694 771 708 Q730 722 688 732 Q646 742 604 748.5 Q562 755 525 755 Q463 755 437 738.5 Q411 722 411 695 Q411 679 422 669 Q433 659 454 651.5 Q475 644 504 639 Q533 634 569 628 L641 617 Q799 593 880.5 518.5 Q962 444 962 319 Q962 238 931.5 174.5 Q901 111 842.5 66.5 Q784 22 699.5 -1.5 Q615 -25 508 -25 Q445 -25 382 -19 Q319 -13 260.5 -0.5 Q202 12 149.5 31.5 Q97 51 55 78 L164 320 Q238 276 322.5 252 Q407 228 510 228 Q583 228 615 244 Q647 260 647 292 Q647 320 611 334.5 Q575 349 492 362 L435 370 Q257 396 173 471 Q89 546 89 679 Q89 757 117.5 818 Q146 879 200.5 921 Q255 963 334 985 Q413 1007 513 1007 Q573 1007 623.5 1002.5 Q674 998 723 988 Q772 978 823.5 962 Q875 946 935 923 L848 679 Z " />
<glyph glyph-name="t" unicode="t" horiz-adv-x="959" d="M864 704 L529 704 L529 417 Q529 375 539.5 346 Q550 317 569 299 Q588 281 613 273.5 Q638 266 668 266 Q712 266 756.5 285.5 Q801 305 838 327 L946 83 Q911 59 875 39 Q839 19 797 4.5 Q755 -10 706 -18 Q657 -26 598 -26 Q499 -26 427 2.5 Q355 31 308 83.5 Q261 136 238.5 210.5 Q216 285 216 377 L216 704 L33 704 L33 981 L216 981 L216 1267 L529 1267 L529 981 L864 981 L864 704 Z " />
<glyph glyph-name="u" unicode="u" horiz-adv-x="1153" d="M1050 420 Q1050 305 1013 221 Q976 137 911.5 82 Q847 27 761 0.5 Q675 -26 577 -26 Q479 -26 392.5 0.5 Q306 27 241.5 82 Q177 137 140 221 Q103 305 103 421 L103 981 L416 981 L416 448 Q416 401 428 367 Q440 333 461.5 310.5 Q483 288 512.5 277 Q542 266 577 266 Q612 266 641.5 277 Q671 288 692.5 310.5 Q714 333 726 367 Q738 401 738 448 L738 981 L1050 981 L1050 420 Z " />
<glyph glyph-name="v" unicode="v" horiz-adv-x="1138" d="M750 0 L393 0 L13 981 L354 981 L573 341 L794 981 L1125 981 L750 0 Z " />
<glyph glyph-name="w" unicode="w" horiz-adv-x="1793" d="M1253 355 L1444 981 L1773 981 L1435 0 L1086 0 L895 587 L706 0 L359 0 L20 981 L353 981 L542 358 L740 981 L1053 981 L1253 355 Z " />
<glyph glyph-name="x" unicode="x" horiz-adv-x="1148" d="M780 495 L1126 0 L762 0 L569 282 L382 0 L22 0 L371 495 L33 981 L399 981 L581 702 L761 981 L1121 981 L780 495 Z " />
<glyph glyph-name="y" unicode="y" horiz-adv-x="1159" d="M428 -402 L86 -402 L422 216 L9 981 L368 981 L591 540 L810 981 L1152 981 L428 -402 Z " />
<glyph glyph-name="z" unicode="z" horiz-adv-x="1039" d="M952 750 L519 277 L962 277 L962 0 L77 0 L77 224 L520 704 L94 704 L94 981 L952 981 L952 750 Z " />
<glyph glyph-name="braceleft" unicode="&#x7b;" horiz-adv-x="881" d="M748 1129 Q676 1129 635 1087.5 Q594 1046 598 967 L601 887 Q604 830 595.5 781 Q587 732 562.5 691.5 Q538 651 495.5 620 Q453 589 387 569 Q453 548 495.5 517 Q538 486 562.5 445.5 Q587 405 595.5 356 Q604 307 601 250 L598 170 Q594 91 635 50 Q676 9 748 9 L830 9 L830 -263 L705 -263 Q597 -263 516 -232 Q435 -201 381.5 -143 Q328 -85 303.5 -3 Q279 79 283 180 L287 267 Q291 349 235 392.5 Q179 436 76 436 L76 701 Q179 701 235 744.5 Q291 788 287 870 L283 957 Q279 1059 303.5 1140.5 Q328 1222 381.5 1280 Q435 1338 516 1369 Q597 1400 705 1400 L830 1400 L830 1129 L748 1129 Z " />
<glyph glyph-name="bar" unicode="&#x7c;" horiz-adv-x="669" d="M491 -265 L178 -265 L178 1400 L491 1400 L491 -265 Z " />
<glyph glyph-name="braceright" unicode="&#x7d;" horiz-adv-x="881" d="M133 8 Q205 8 246 49.5 Q287 91 283 170 L280 250 Q277 307 285.5 356 Q294 405 318.5 445.5 Q343 486 385.5 517 Q428 548 494 568 Q428 589 385.5 620 Q343 651 318.5 691.5 Q294 732 285.5 781 Q277 830 280 887 L283 967 Q287 1046 246 1087 Q205 1128 133 1128 L51 1128 L51 1400 L176 1400 Q284 1400 365 1368.5 Q446 1337 499.5 1279.5 Q553 1222 577.5 1140 Q602 1058 598 957 L594 870 Q590 788 646 744.5 Q702 701 805 701 L805 436 Q702 436 646 392.5 Q590 349 594 267 L598 180 Q602 78 577.5 -3.5 Q553 -85 499.5 -143 Q446 -201 365 -232 Q284 -263 176 -263 L51 -263 L51 8 L133 8 Z " />
<glyph glyph-name="asciitilde" unicode="&#x7e;" horiz-adv-x="1200" d="M1098 522 Q1041 443 958 400.5 Q875 358 784 358 Q717 358 664.5 374 Q612 390 568 408.5 Q524 427 486 443 Q448 459 409 459 Q367 459 326.5 433.5 Q286 408 241 360 L103 546 Q160 625 242.5 667.5 Q325 710 416 710 Q483 710 535.5 694.5 Q588 679 632 660 Q676 641 714.5 625.5 Q753 610 791 610 Q833 610 874 635 Q915 660 960 709 L1098 522 Z " />
<glyph glyph-name="uni00A0" unicode="&#xa0;" horiz-adv-x="449" d="" />
<glyph glyph-name="exclamdown" unicode="&#xa1;" horiz-adv-x="580" d="M143 481 L436 481 L474 -418 L105 -418 L143 481 Z M289 595 Q248 595 210.5 611.5 Q173 628 145 656 Q117 684 100.5 721.5 Q84 759 84 800 Q84 842 100.5 879.5 Q117 917 145 945.5 Q173 974 210.5 991 Q248 1008 289 1008 Q331 1008 368.5 991 Q406 974 434.5 945.5 Q463 917 479.5 879.5 Q496 842 496 800 Q496 759 479.5 721.5 Q463 684 434.5 656 Q406 628 368.5 611.5 Q331 595 289 595 Z " />
<glyph glyph-name="cent" unicode="&#xa2;" horiz-adv-x="1400" d="M221 700 Q221 794 249 876.5 Q277 959 329 1024 Q381 1089 454.5 1134.5 Q528 1180 618 1200 L618 1400 L869 1400 L869 1205 Q967 1186 1045 1135 Q1123 1084 1180 1006 L945 837 Q905 885 859 909 Q813 933 752 933 Q707 933 667 917 Q627 901 597 871 Q567 841 549.5 797.5 Q532 754 532 700 Q532 646 549 602.5 Q566 559 596 529 Q626 499 665.5 483 Q705 467 750 467 Q810 467 859.5 492 Q909 517 948 564 L1180 393 Q1123 315 1045 264.5 Q967 214 869 195 L869 0 L618 0 L618 200 Q528 220 454.5 265 Q381 310 329 375 Q277 440 249 522.5 Q221 605 221 700 Z " />
<glyph glyph-name="sterling" unicode="&#xa3;" horiz-adv-x="1400" d="M1219 0 L144 0 L144 301 L298 301 L298 576 L144 576 L144 824 L298 824 L298 870 Q298 1010 342.5 1114.5 Q387 1219 462.5 1288 Q538 1357 639 1391 Q740 1425 853 1425 Q971 1425 1074.5 1388.5 Q1178 1352 1253 1277 L1038 1047 Q965 1115 853 1115 Q805 1115 763 1101 Q721 1087 689.5 1056.5 Q658 1026 640 978.5 Q622 931 622 864 L622 824 L1088 824 L1088 576 L622 576 L622 301 L1219 301 L1219 0 Z " />
<glyph glyph-name="currency" unicode="&#xa4;" horiz-adv-x="1400" d="M284 1288 L444 1128 Q501 1162 565.5 1180.5 Q630 1199 701 1199 Q771 1199 835.5 1180.5 Q900 1162 957 1129 L1116 1288 L1289 1116 L1130 957 Q1164 900 1182.5 835.5 Q1201 771 1201 700 Q1201 629 1182.5 564.5 Q1164 500 1130 443 L1290 284 L1117 112 L957 270 Q900 236 835.5 218 Q771 200 701 200 Q630 200 565.5 218.5 Q501 237 444 271 L285 112 L113 284 L272 444 Q238 501 220 565 Q202 629 202 700 Q202 770 220.5 834.5 Q239 899 272 955 L112 1116 L284 1288 Z M701 444 Q755 444 801.5 464 Q848 484 882.5 518.5 Q917 553 937 599.5 Q957 646 957 700 Q957 753 937 799.5 Q917 846 882.5 880.5 Q848 915 801.5 935 Q755 955 701 955 Q647 955 600.5 935 Q554 915 519.5 880.5 Q485 846 465.5 799.5 Q446 753 446 700 Q446 646 465.5 599.5 Q485 553 519.5 518.5 Q554 484 600.5 464 Q647 444 701 444 Z " />
<glyph glyph-name="yen" unicode="&#xa5;" horiz-adv-x="1400" d="M1223 257 L869 257 L869 0 L545 0 L545 257 L190 257 L190 455 L545 455 L545 567 L190 567 L190 765 L461 765 L35 1400 L409 1400 L707 930 L1001 1400 L1365 1400 L947 765 L1223 765 L1223 567 L869 567 L869 455 L1223 455 L1223 257 Z " />
<glyph glyph-name="brokenbar" unicode="&#xa6;" horiz-adv-x="669" d="M491 706 L178 706 L178 1400 L491 1400 L491 706 Z M491 -265 L178 -265 L178 429 L491 429 L491 -265 Z " />
<glyph glyph-name="section" unicode="&#xa7;" horiz-adv-x="1299" d="M1047 1044 Q1014 1062 975 1080 Q936 1098 890.5 1112 Q845 1126 793.5 1135 Q742 1144 686 1144 Q645 1144 609.5 1138 Q574 1132 548 1119.5 Q522 1107 507.5 1088.5 Q493 1070 493 1046 Q493 1018 514.5 999 Q536 980 572.5 967.5 Q609 955 657 946 Q705 937 758 928 L810 920 Q904 904 978 875 Q1052 846 1103 804.5 Q1154 763 1181 709 Q1208 655 1208 589 Q1208 497 1172 430 Q1136 363 1075 318 Q1127 275 1154 218 Q1181 161 1181 89 Q1181 -25 1135.5 -106 Q1090 -187 1015 -238.5 Q940 -290 844 -314 Q748 -338 647 -338 Q487 -338 342 -300.5 Q197 -263 91 -188 L243 67 Q279 44 322 21.5 Q365 -1 415.5 -18.5 Q466 -36 524.5 -47 Q583 -58 652 -58 Q693 -58 728.5 -52 Q764 -46 790 -33 Q816 -20 830.5 -1 Q845 18 845 45 Q845 71 829 87.5 Q813 104 782 115.5 Q751 127 704.5 136 Q658 145 597 156 L536 167 Q444 183 369.5 211 Q295 239 242.5 281 Q190 323 161.5 381 Q133 439 133 517 Q133 595 168 659 Q203 723 269 770 Q214 814 186.5 874.5 Q159 935 159 1016 Q159 1108 196.5 1183.5 Q234 1259 302.5 1312.5 Q371 1366 465.5 1395.5 Q560 1425 674 1425 Q735 1425 794 1420 Q853 1415 914.5 1401 Q976 1387 1042 1363 Q1108 1339 1182 1300 L1047 1044 Z M552 661 Q513 647 490 621.5 Q467 596 467 559 Q467 531 484.5 513.5 Q502 496 533.5 484 Q565 472 609.5 463.5 Q654 455 707 446 Q724 443 751.5 438.5 Q779 434 802 430 Q835 445 853.5 469.5 Q872 494 872 531 Q872 560 856 578.5 Q840 597 808.5 610 Q777 623 730.5 632 Q684 641 623 650 L552 661 Z " />
<glyph glyph-name="dieresis" unicode="&#xa8;" horiz-adv-x="1121" d="M325 1449 Q365 1449 399 1434.5 Q433 1420 458.5 1395 Q484 1370 498.5 1335.5 Q513 1301 513 1262 Q513 1222 498.5 1188 Q484 1154 458.5 1129 Q433 1104 399 1089.5 Q365 1075 325 1075 Q286 1075 252 1089.5 Q218 1104 193 1129 Q168 1154 153.5 1188 Q139 1222 139 1262 Q139 1301 153.5 1335.5 Q168 1370 193 1395 Q218 1420 252 1434.5 Q286 1449 325 1449 Z M789 1449 Q828 1449 862.5 1434.5 Q897 1420 922 1395 Q947 1370 961.5 1335.5 Q976 1301 976 1262 Q976 1222 961.5 1188 Q947 1154 922 1129 Q897 1104 862.5 1089.5 Q828 1075 789 1075 Q749 1075 715 1089.5 Q681 1104 656 1129 Q631 1154 616.5 1188 Q602 1222 602 1262 Q602 1301 616.5 1335.5 Q631 1370 656 1395 Q681 1420 715 1434.5 Q749 1449 789 1449 Z " />
<glyph glyph-name="copyright" unicode="&#xa9;" horiz-adv-x="1818" d="M909 1515 Q1023 1515 1128.5 1486 Q1234 1457 1326 1405 Q1418 1353 1493.5 1279.5 Q1569 1206 1622.5 1116.5 Q1676 1027 1705.5 924.5 Q1735 822 1735 711 Q1735 600 1705.5 497 Q1676 394 1622.5 304.5 Q1569 215 1493.5 141.5 Q1418 68 1326 15.5 Q1234 -37 1128.5 -66 Q1023 -95 909 -95 Q795 -95 689.5 -66 Q584 -37 492 15.5 Q400 68 324.5 141.5 Q249 215 195.5 304.5 Q142 394 112.5 497 Q83 600 83 711 Q83 822 112.5 924.5 Q142 1027 195.5 1116.5 Q249 1206 324.5 1279.5 Q400 1353 492 1405 Q584 1457 689.5 1486 Q795 1515 909 1515 Z M909 1258 Q794 1258 692.5 1215 Q591 1172 515.5 1098 Q440 1024 396.5 924.5 Q353 825 353 711 Q353 597 396.5 497 Q440 397 515.5 322.5 Q591 248 692.5 205 Q794 162 909 162 Q1024 162 1125 205 Q1226 248 1301.5 322.5 Q1377 397 1420.5 497 Q1464 597 1464 711 Q1464 825 1420.5 924.5 Q1377 1024 1301.5 1098 Q1226 1172 1125 1215 Q1024 1258 909 1258 Z M1071 783 Q1046 834 1008 858 Q970 882 916 882 Q883 882 855 869.5 Q827 857 807 834.5 Q787 812 775.5 780.5 Q764 749 764 710 Q764 663 777.5 630.5 Q791 598 813 578 Q835 558 862 549 Q889 540 916 540 Q967 540 1007.5 564 Q1048 588 1078 639 L1284 506 Q1229 415 1137 362 Q1045 309 920 309 Q829 309 753 338.5 Q677 368 622.5 421 Q568 474 538 547.5 Q508 621 508 710 Q508 800 538 874 Q568 948 622.5 1001 Q677 1054 753 1083 Q829 1112 920 1112 Q981 1112 1038.5 1097 Q1096 1082 1144.5 1053.5 Q1193 1025 1231.5 984 Q1270 943 1294 890 L1071 783 Z " />
<glyph glyph-name="ordfeminine" unicode="&#xaa;" horiz-adv-x="797" d="M379 1293 Q453 1293 514.5 1274.5 Q576 1256 620.5 1218 Q665 1180 690 1120.5 Q715 1061 715 980 L715 568 L509 568 L509 633 Q475 599 425 574.5 Q375 550 303 550 Q245 550 199 566 Q153 582 120.5 611 Q88 640 70.5 681.5 Q53 723 53 774 Q53 877 131.5 935 Q210 993 354 993 L497 993 Q491 1047 457 1075.5 Q423 1104 357 1104 Q296 1104 248.5 1085 Q201 1066 166 1041 L83 1203 Q132 1240 206 1266.5 Q280 1293 379 1293 Z M359 716 Q404 716 441 735.5 Q478 755 504 784 L504 857 L385 857 Q326 857 300 836 Q274 815 274 786 Q274 757 295 736.5 Q316 716 359 716 Z " />
<glyph glyph-name="guillemotleft" unicode="&#xab;" horiz-adv-x="1112" d="M1043 130 L740 130 L543 532 L740 933 L1043 933 L846 532 L1043 130 Z M570 130 L267 130 L70 532 L267 933 L570 933 L373 532 L570 130 Z " />
<glyph glyph-name="logicalnot" unicode="&#xac;" horiz-adv-x="1200" d="M1071 660 L1071 88 L808 88 L808 403 L129 403 L129 660 L1071 660 Z " />
<glyph glyph-name="uni00AD" unicode="&#xad;" horiz-adv-x="779" d="M690 398 L89 398 L89 665 L690 665 L690 398 Z " />
<glyph glyph-name="registered" unicode="&#xae;" horiz-adv-x="999" d="M500 1445 Q599 1445 685 1409 Q771 1373 834.5 1310.5 Q898 1248 934.5 1164.5 Q971 1081 971 986 Q971 923 954.5 864.5 Q938 806 907.5 755 Q877 704 834 662 Q791 620 738.5 590 Q686 560 625.5 543.5 Q565 527 500 527 Q400 527 313.5 563.5 Q227 600 163.5 662 Q100 724 64 807.5 Q28 891 28 986 Q28 1081 64 1164.5 Q100 1248 163.5 1310.5 Q227 1373 313.5 1409 Q400 1445 500 1445 Z M500 668 Q564 668 621.5 693.5 Q679 719 722 762.5 Q765 806 790 863.5 Q815 921 815 986 Q815 1051 790 1109 Q765 1167 722 1210 Q679 1253 621.5 1278 Q564 1303 500 1303 Q434 1303 376 1278 Q318 1253 275 1210 Q232 1167 207 1109 Q182 1051 182 986 Q182 921 207 863.5 Q232 806 275 762.5 Q318 719 376 693.5 Q434 668 500 668 Z M522 1194 Q609 1194 653 1155 Q697 1116 697 1052 Q697 1004 666.5 970 Q636 936 578 925 L702 778 L559 778 L450 921 L441 921 L441 778 L320 778 L320 1194 L522 1194 Z M441 1088 L441 1020 L520 1020 Q544 1020 558.5 1027.5 Q573 1035 573 1052 Q573 1070 558.5 1079 Q544 1088 520 1088 L441 1088 Z " />
<glyph glyph-name="macron" unicode="&#xaf;" horiz-adv-x="1110" d="M203 1386 L907 1386 L907 1136 L203 1136 L203 1386 Z " />
<glyph glyph-name="degree" unicode="&#xb0;" horiz-adv-x="875" d="M438 616 Q353 616 278 647.5 Q203 679 147.5 734 Q92 789 60 862 Q28 935 28 1018 Q28 1102 60 1176.5 Q92 1251 147.5 1306.5 Q203 1362 278 1394 Q353 1426 438 1426 Q523 1426 597.5 1394 Q672 1362 727.5 1306.5 Q783 1251 815 1176.5 Q847 1102 847 1018 Q847 935 815 862 Q783 789 727.5 734 Q672 679 597.5 647.5 Q523 616 438 616 Z M438 857 Q470 857 499 869.5 Q528 882 549.5 904 Q571 926 584 955.5 Q597 985 597 1018 Q597 1051 584 1080 Q571 1109 549.5 1131 Q528 1153 499 1165.5 Q470 1178 438 1178 Q405 1178 376 1165.5 Q347 1153 325 1131 Q303 1109 290.5 1080 Q278 1051 278 1018 Q278 985 290.5 955.5 Q303 926 325 904 Q347 882 376 869.5 Q405 857 438 857 Z " />
<glyph glyph-name="plusminus" unicode="&#xb1;" horiz-adv-x="1200" d="M469 352 L469 604 L129 604 L129 862 L469 862 L469 1181 L731 1181 L731 862 L1071 862 L1071 604 L731 604 L731 352 L469 352 Z M1071 0 L129 0 L129 258 L1071 258 L1071 0 Z " />
<glyph glyph-name="twosuperior" unicode="&#xb2;" horiz-adv-x="730" d="M44 1265 Q66 1290 96 1317 Q126 1344 166 1365.5 Q206 1387 256 1401 Q306 1415 368 1415 Q435 1415 490.5 1396 Q546 1377 585 1342 Q624 1307 645.5 1257 Q667 1207 667 1145 Q667 1109 660 1077 Q653 1045 637 1013.5 Q621 982 594 950.5 Q567 919 527 883 L404 773 L685 773 L685 568 L92 568 L92 742 L380 1007 Q438 1060 438 1117 Q438 1156 409.5 1179.5 Q381 1203 341 1203 Q314 1203 290.5 1195.5 Q267 1188 246 1175 Q225 1162 206.5 1146 Q188 1130 170 1112 L44 1265 Z " />
<glyph glyph-name="threesuperior" unicode="&#xb3;" horiz-adv-x="731" d="M335 1415 Q405 1415 464.5 1398 Q524 1381 566.5 1349.5 Q609 1318 633 1273.5 Q657 1229 657 1174 Q657 1109 626 1062 Q595 1015 537 987 Q603 961 638.5 913 Q674 865 674 800 Q674 737 646 690.5 Q618 644 571 613.5 Q524 583 463.5 568 Q403 553 339 553 Q241 553 163.5 584.5 Q86 616 34 676 L156 818 Q191 783 234 764.5 Q277 746 327 746 Q375 746 409 764.5 Q443 783 443 821 Q443 840 432.5 854 Q422 868 404 877.5 Q386 887 362 892 Q338 897 311 897 L218 897 L218 1079 L314 1079 Q363 1079 396 1098.5 Q429 1118 429 1153 Q429 1188 401.5 1204.5 Q374 1221 326 1221 Q267 1221 224.5 1199 Q182 1177 153 1146 L36 1291 Q62 1318 92.5 1340.5 Q123 1363 159.5 1379.5 Q196 1396 239.5 1405.5 Q283 1415 335 1415 Z " />
<glyph glyph-name="acute" unicode="&#xb4;" horiz-adv-x="1000" d="M215 1105 L427 1437 L786 1437 L508 1105 L215 1105 Z " />
<glyph glyph-name="mu" unicode="&#xb5;" horiz-adv-x="1152" d="M103 -400 L103 981 L416 981 L416 448 Q416 360 457 313.5 Q498 267 571 267 Q604 267 632.5 278 Q661 289 683 312 Q705 335 717.5 370 Q730 405 730 453 L730 981 L1043 981 L1043 0 L743 0 L743 123 Q696 45 623 9 Q550 -27 451 -27 Q426 -27 404 -24 L404 -400 L103 -400 Z " />
<glyph glyph-name="paragraph" unicode="&#xb6;" horiz-adv-x="1309" d="M547 559 Q434 561 347.5 592.5 Q261 624 202.5 679.5 Q144 735 114.5 812 Q85 889 85 983 Q85 1075 115 1151 Q145 1227 203.5 1281.5 Q262 1336 348 1366.5 Q434 1397 547 1399 L547 1400 L786 1400 L786 0 L547 0 L547 559 Z M892 1400 L1131 1400 L1131 0 L892 0 L892 1400 Z " />
<glyph glyph-name="periodcentered" unicode="&#xb7;" horiz-adv-x="686" d="M344 745 Q387 745 425.5 727.5 Q464 710 493.5 681 Q523 652 540 613.5 Q557 575 557 532 Q557 488 540 449 Q523 410 493.5 380.5 Q464 351 425.5 333.5 Q387 316 344 316 Q301 316 262 333.5 Q223 351 193.5 380.5 Q164 410 146.5 449 Q129 488 129 532 Q129 575 146.5 613.5 Q164 652 193.5 681 Q223 710 262 727.5 Q301 745 344 745 Z " />
<glyph glyph-name="cedilla" unicode="&#xb8;" horiz-adv-x="723" d="M454 -321 L167 -321 L278 7 L557 7 L454 -321 Z " />
<glyph glyph-name="onesuperior" unicode="&#xb9;" horiz-adv-x="541" d="M435 568 L213 568 L213 1112 L34 1050 L34 1265 L435 1413 L435 568 Z " />
<glyph glyph-name="ordmasculine" unicode="&#xba;" horiz-adv-x="871" d="M435 1293 Q517 1293 587.5 1265 Q658 1237 709 1187 Q760 1137 789 1069 Q818 1001 818 921 Q818 841 789 773 Q760 705 709 655.5 Q658 606 587.5 578 Q517 550 435 550 Q352 550 282 578 Q212 606 161 655.5 Q110 705 81.5 773 Q53 841 53 921 Q53 1001 81.5 1069 Q110 1137 161 1187 Q212 1237 282 1265 Q352 1293 435 1293 Z M435 1091 Q400 1091 370.5 1078.5 Q341 1066 319 1043.5 Q297 1021 285 989.5 Q273 958 273 921 Q273 883 285 852 Q297 821 319 798.5 Q341 776 370.5 763.5 Q400 751 435 751 Q470 751 500 763.5 Q530 776 551.5 798.5 Q573 821 585.5 852 Q598 883 598 921 Q598 958 585.5 989.5 Q573 1021 551.5 1043.5 Q530 1066 500 1078.5 Q470 1091 435 1091 Z " />
<glyph glyph-name="guillemotright" unicode="&#xbb;" horiz-adv-x="1112" d="M69 933 L372 933 L569 531 L372 130 L69 130 L266 531 L69 933 Z M542 933 L845 933 L1042 531 L845 130 L542 130 L739 531 L542 933 Z " />
<glyph glyph-name="onequarter" unicode="&#xbc;" horiz-adv-x="1717" d="M504 0 L231 0 L1114 1400 L1387 1400 L504 0 Z M1593 330 L1690 330 L1690 133 L1593 133 L1593 0 L1371 0 L1371 133 L1001 133 L1001 285 L1261 831 L1502 831 L1261 330 L1371 330 L1371 416 L1437 554 L1593 554 L1593 330 Z M435 568 L213 568 L213 1112 L34 1050 L34 1265 L435 1413 L435 568 Z " />
<glyph glyph-name="onehalf" unicode="&#xbd;" horiz-adv-x="1784" d="M504 0 L231 0 L1114 1400 L1387 1400 L504 0 Z M1098 697 Q1120 722 1150 749 Q1180 776 1220 797.5 Q1260 819 1310 833 Q1360 847 1422 847 Q1489 847 1544.5 828 Q1600 809 1639 774 Q1678 739 1699.5 689 Q1721 639 1721 577 Q1721 541 1714 509 Q1707 477 1691 445.5 Q1675 414 1648 382.5 Q1621 351 1581 315 L1458 205 L1739 205 L1739 0 L1146 0 L1146 174 L1434 439 Q1492 492 1492 549 Q1492 588 1463.5 611.5 Q1435 635 1395 635 Q1368 635 1344.5 627.5 Q1321 620 1300 607 Q1279 594 1260.5 578 Q1242 562 1224 544 L1098 697 Z M435 568 L213 568 L213 1112 L34 1050 L34 1265 L435 1413 L435 568 Z " />
<glyph glyph-name="threequarters" unicode="&#xbe;" horiz-adv-x="1883" d="M671 0 L398 0 L1281 1400 L1554 1400 L671 0 Z M1760 330 L1857 330 L1857 133 L1760 133 L1760 0 L1538 0 L1538 133 L1168 133 L1168 285 L1428 831 L1669 831 L1428 330 L1538 330 L1538 416 L1604 554 L1760 554 L1760 330 Z M335 1415 Q405 1415 464.5 1398 Q524 1381 566.5 1349.5 Q609 1318 633 1273.5 Q657 1229 657 1174 Q657 1109 626 1062 Q595 1015 537 987 Q603 961 638.5 913 Q674 865 674 800 Q674 737 646 690.5 Q618 644 571 613.5 Q524 583 463.5 568 Q403 553 339 553 Q241 553 163.5 584.5 Q86 616 34 676 L156 818 Q191 783 234 764.5 Q277 746 327 746 Q375 746 409 764.5 Q443 783 443 821 Q443 840 432.5 854 Q422 868 404 877.5 Q386 887 362 892 Q338 897 311 897 L218 897 L218 1079 L314 1079 Q363 1079 396 1098.5 Q429 1118 429 1153 Q429 1188 401.5 1204.5 Q374 1221 326 1221 Q267 1221 224.5 1199 Q182 1177 153 1146 L36 1291 Q62 1318 92.5 1340.5 Q123 1363 159.5 1379.5 Q196 1396 239.5 1405.5 Q283 1415 335 1415 Z " />
<glyph glyph-name="questiondown" unicode="&#xbf;" horiz-adv-x="891" d="M739 488 L739 130 L637 130 Q378 130 378 -1 Q378 -127 635 -129 Q673 -129 711 -127 Q749 -125 780 -121 L798 -433 Q753 -439 697.5 -442.5 Q642 -446 582 -446 Q452 -446 350 -417 Q248 -388 177.5 -334.5 Q107 -281 70 -204.5 Q33 -128 33 -33 Q33 134 137.5 240 Q242 346 438 384 L446 488 L739 488 Z M593 594 Q552 594 514.5 610.5 Q477 627 449 655 Q421 683 404.5 720.5 Q388 758 388 799 Q388 841 404.5 879 Q421 917 449 945.5 Q477 974 514.5 991 Q552 1008 593 1008 Q635 1008 672.5 991 Q710 974 738.5 945.5 Q767 917 783.5 879.5 Q800 842 800 800 Q800 758 783.5 721 Q767 684 738.5 655.5 Q710 627 672.5 610.5 Q635 594 593 594 Z " />
<glyph glyph-name="Agrave" unicode="&#xc0;" horiz-adv-x="1497" d="M1485 0 L1129 0 L1023 294 L467 294 L361 0 L12 0 L549 1400 L948 1400 L1485 0 Z M575 596 L915 596 L745 1068 L575 596 Z M374 1841 L733 1841 L945 1509 L652 1509 L374 1841 Z " />
<glyph glyph-name="Aacute" unicode="&#xc1;" horiz-adv-x="1497" d="M1485 0 L1129 0 L1023 294 L467 294 L361 0 L12 0 L549 1400 L948 1400 L1485 0 Z M575 596 L915 596 L745 1068 L575 596 Z M540 1509 L752 1841 L1111 1841 L833 1509 L540 1509 Z " />
<glyph glyph-name="Acircumflex" unicode="&#xc2;" horiz-adv-x="1497" d="M1485 0 L1129 0 L1023 294 L467 294 L361 0 L12 0 L549 1400 L948 1400 L1485 0 Z M575 596 L915 596 L745 1068 L575 596 Z M863 1499 L750 1643 L636 1499 L352 1499 L577 1831 L921 1831 L1147 1499 L863 1499 Z " />
<glyph glyph-name="Atilde" unicode="&#xc3;" horiz-adv-x="1497" d="M1485 0 L1129 0 L1023 294 L467 294 L361 0 L12 0 L549 1400 L948 1400 L1485 0 Z M575 596 L915 596 L745 1068 L575 596 Z M335 1679 Q394 1763 466.5 1797 Q539 1831 622 1831 Q675 1831 713.5 1819.5 Q752 1808 781 1794.5 Q810 1781 832.5 1770 Q855 1759 876 1759 Q902 1759 930.5 1776.5 Q959 1794 991 1828 L1162 1662 Q1103 1578 1030.5 1544 Q958 1510 875 1510 Q822 1510 784 1521 Q746 1532 716.5 1545.5 Q687 1559 664.5 1570.5 Q642 1582 621 1582 Q595 1582 566.5 1564.5 Q538 1547 506 1514 L335 1679 Z " />
<glyph glyph-name="Adieresis" unicode="&#xc4;" horiz-adv-x="1497" d="M1485 0 L1129 0 L1023 294 L467 294 L361 0 L12 0 L549 1400 L948 1400 L1485 0 Z M575 596 L915 596 L745 1068 L575 596 Z M517 1853 Q557 1853 591 1838.5 Q625 1824 650.5 1799 Q676 1774 690.5 1739.5 Q705 1705 705 1666 Q705 1626 690.5 1592 Q676 1558 650.5 1533 Q625 1508 591 1493.5 Q557 1479 517 1479 Q478 1479 444 1493.5 Q410 1508 385 1533 Q360 1558 345.5 1592 Q331 1626 331 1666 Q331 1705 345.5 1739.5 Q360 1774 385 1799 Q410 1824 444 1838.5 Q478 1853 517 1853 Z M981 1853 Q1020 1853 1054.5 1838.5 Q1089 1824 1114 1799 Q1139 1774 1153.5 1739.5 Q1168 1705 1168 1666 Q1168 1626 1153.5 1592 Q1139 1558 1114 1533 Q1089 1508 1054.5 1493.5 Q1020 1479 981 1479 Q941 1479 907 1493.5 Q873 1508 848 1533 Q823 1558 808.5 1592 Q794 1626 794 1666 Q794 1705 808.5 1739.5 Q823 1774 848 1799 Q873 1824 907 1838.5 Q941 1853 981 1853 Z " />
<glyph glyph-name="Aring" unicode="&#xc5;" horiz-adv-x="1497" d="M1485 0 L1129 0 L1023 294 L467 294 L361 0 L12 0 L549 1400 L948 1400 L1485 0 Z M575 596 L915 596 L745 1068 L575 596 Z M748 1472 Q691 1472 641 1493.5 Q591 1515 553.5 1551.5 Q516 1588 494.5 1637.5 Q473 1687 473 1744 Q473 1800 494.5 1849.5 Q516 1899 553.5 1935.5 Q591 1972 641 1993.5 Q691 2015 748 2015 Q805 2015 855.5 1993.5 Q906 1972 943.5 1935.5 Q981 1899 1003 1849.5 Q1025 1800 1025 1744 Q1025 1687 1003 1637.5 Q981 1588 943.5 1551.5 Q906 1515 855.5 1493.5 Q805 1472 748 1472 Z M748 1639 Q769 1639 787.5 1647 Q806 1655 820.5 1669 Q835 1683 843 1702 Q851 1721 851 1744 Q851 1766 843 1785 Q835 1804 820.5 1818 Q806 1832 787.5 1840.5 Q769 1849 748 1849 Q728 1849 709.5 1840.5 Q691 1832 677 1818 Q663 1804 654.5 1785 Q646 1766 646 1744 Q646 1721 654.5 1702 Q663 1683 677 1669 Q691 1655 709.5 1647 Q728 1639 748 1639 Z " />
<glyph glyph-name="AE" unicode="&#xc6;" horiz-adv-x="2288" d="M2187 0 L1115 0 L1115 265 L583 265 L405 0 L10 0 L978 1400 L2183 1400 L2183 1099 L1449 1099 L1449 857 L2140 857 L2140 557 L1449 557 L1449 301 L2187 301 L2187 0 Z M1115 567 L1115 1055 L786 567 L1115 567 Z " />
<glyph glyph-name="Ccedilla" unicode="&#xc7;" horiz-adv-x="1488" d="M806 1426 Q906 1426 999 1403 Q1092 1380 1172.5 1337 Q1253 1294 1318 1231 Q1383 1168 1428 1089 L1135 921 Q1080 1011 995.5 1058.5 Q911 1106 802 1106 Q719 1106 648.5 1076.5 Q578 1047 526.5 993 Q475 939 446 864.5 Q417 790 417 700 Q417 602 448 526.5 Q479 451 532 399.5 Q585 348 655 321 Q725 294 803 294 Q910 294 995.5 341 Q1081 388 1141 478 L1415 284 Q1367 212 1303.5 155 Q1240 98 1163 57.5 Q1086 17 996 -4.5 Q906 -26 806 -26 Q644 -26 508.5 28 Q373 82 275.5 178 Q178 274 123.5 407.5 Q69 541 69 700 Q69 859 123.5 992.5 Q178 1126 275.5 1222 Q373 1318 508.5 1372 Q644 1426 806 1426 Z M849 -321 L542 -321 L654 7 L952 7 L849 -321 Z " />
<glyph glyph-name="Egrave" unicode="&#xc8;" horiz-adv-x="1300" d="M1199 0 L127 0 L127 1400 L1195 1400 L1195 1099 L461 1099 L461 857 L1152 857 L1152 557 L461 557 L461 301 L1199 301 L1199 0 Z M285 1841 L644 1841 L856 1509 L563 1509 L285 1841 Z " />
<glyph glyph-name="Eacute" unicode="&#xc9;" horiz-adv-x="1300" d="M1199 0 L127 0 L127 1400 L1195 1400 L1195 1099 L461 1099 L461 857 L1152 857 L1152 557 L461 557 L461 301 L1199 301 L1199 0 Z M451 1509 L663 1841 L1022 1841 L744 1509 L451 1509 Z " />
<glyph glyph-name="Ecircumflex" unicode="&#xca;" horiz-adv-x="1300" d="M1199 0 L127 0 L127 1400 L1195 1400 L1195 1099 L461 1099 L461 857 L1152 857 L1152 557 L461 557 L461 301 L1199 301 L1199 0 Z M774 1499 L661 1643 L547 1499 L263 1499 L488 1831 L832 1831 L1058 1499 L774 1499 Z " />
<glyph glyph-name="Edieresis" unicode="&#xcb;" horiz-adv-x="1300" d="M1199 0 L127 0 L127 1400 L1195 1400 L1195 1099 L461 1099 L461 857 L1152 857 L1152 557 L461 557 L461 301 L1199 301 L1199 0 Z M428 1853 Q468 1853 502 1838.5 Q536 1824 561.5 1799 Q587 1774 601.5 1739.5 Q616 1705 616 1666 Q616 1626 601.5 1592 Q587 1558 561.5 1533 Q536 1508 502 1493.5 Q468 1479 428 1479 Q389 1479 355 1493.5 Q321 1508 296 1533 Q271 1558 256.5 1592 Q242 1626 242 1666 Q242 1705 256.5 1739.5 Q271 1774 296 1799 Q321 1824 355 1838.5 Q389 1853 428 1853 Z M892 1853 Q931 1853 965.5 1838.5 Q1000 1824 1025 1799 Q1050 1774 1064.5 1739.5 Q1079 1705 1079 1666 Q1079 1626 1064.5 1592 Q1050 1558 1025 1533 Q1000 1508 965.5 1493.5 Q931 1479 892 1479 Q852 1479 818 1493.5 Q784 1508 759 1533 Q734 1558 719.5 1592 Q705 1626 705 1666 Q705 1705 719.5 1739.5 Q734 1774 759 1799 Q784 1824 818 1838.5 Q852 1853 892 1853 Z " />
<glyph glyph-name="Igrave" unicode="&#xcc;" horiz-adv-x="588" d="M461 0 L127 0 L127 1400 L461 1400 L461 0 Z M-81 1841 L278 1841 L490 1509 L197 1509 L-81 1841 Z " />
<glyph glyph-name="Iacute" unicode="&#xcd;" horiz-adv-x="588" d="M461 0 L127 0 L127 1400 L461 1400 L461 0 Z M85 1509 L297 1841 L656 1841 L378 1509 L85 1509 Z " />
<glyph glyph-name="Icircumflex" unicode="&#xce;" horiz-adv-x="588" d="M461 0 L127 0 L127 1400 L461 1400 L461 0 Z M408 1499 L295 1643 L181 1499 L-103 1499 L122 1831 L466 1831 L692 1499 L408 1499 Z " />
<glyph glyph-name="Idieresis" unicode="&#xcf;" horiz-adv-x="588" d="M461 0 L127 0 L127 1400 L461 1400 L461 0 Z M62 1853 Q102 1853 136 1838.5 Q170 1824 195.5 1799 Q221 1774 235.5 1739.5 Q250 1705 250 1666 Q250 1626 235.5 1592 Q221 1558 195.5 1533 Q170 1508 136 1493.5 Q102 1479 62 1479 Q23 1479 -11 1493.5 Q-45 1508 -70 1533 Q-95 1558 -109.5 1592 Q-124 1626 -124 1666 Q-124 1705 -109.5 1739.5 Q-95 1774 -70 1799 Q-45 1824 -11 1838.5 Q23 1853 62 1853 Z M526 1853 Q565 1853 599.5 1838.5 Q634 1824 659 1799 Q684 1774 698.5 1739.5 Q713 1705 713 1666 Q713 1626 698.5 1592 Q684 1558 659 1533 Q634 1508 599.5 1493.5 Q565 1479 526 1479 Q486 1479 452 1493.5 Q418 1508 393 1533 Q368 1558 353.5 1592 Q339 1626 339 1666 Q339 1705 353.5 1739.5 Q368 1774 393 1799 Q418 1824 452 1838.5 Q486 1853 526 1853 Z " />
<glyph glyph-name="Eth" unicode="&#xd0;" horiz-adv-x="1621" d="M825 1400 Q989 1400 1123 1350 Q1257 1300 1352.5 1208.5 Q1448 1117 1500 987.5 Q1552 858 1552 700 Q1552 542 1500 412.5 Q1448 283 1352.5 191.5 Q1257 100 1123 50 Q989 0 825 0 L226 0 L226 563 L76 563 L76 851 L226 851 L226 1400 L825 1400 Z M880 563 L560 563 L560 309 L818 309 Q915 309 987.5 338.5 Q1060 368 1108 420 Q1156 472 1179.5 543.5 Q1203 615 1203 700 Q1203 786 1179.5 858 Q1156 930 1108 981.5 Q1060 1033 987.5 1062 Q915 1091 818 1091 L560 1091 L560 851 L880 851 L880 563 Z " />
<glyph glyph-name="Ntilde" unicode="&#xd1;" horiz-adv-x="1547" d="M1420 0 L1099 0 L461 854 L461 0 L127 0 L127 1400 L447 1400 L1085 546 L1085 1400 L1420 1400 L1420 0 Z M371 1679 Q430 1763 502.5 1797 Q575 1831 658 1831 Q711 1831 749.5 1819.5 Q788 1808 817 1794.5 Q846 1781 868.5 1770 Q891 1759 912 1759 Q938 1759 966.5 1776.5 Q995 1794 1027 1828 L1198 1662 Q1139 1578 1066.5 1544 Q994 1510 911 1510 Q858 1510 820 1521 Q782 1532 752.5 1545.5 Q723 1559 700.5 1570.5 Q678 1582 657 1582 Q631 1582 602.5 1564.5 Q574 1547 542 1514 L371 1679 Z " />
<glyph glyph-name="Ograve" unicode="&#xd2;" horiz-adv-x="1614" d="M807 1426 Q969 1426 1104.5 1371.5 Q1240 1317 1338 1220 Q1436 1123 1490.5 990 Q1545 857 1545 700 Q1545 543 1490.5 410 Q1436 277 1338 180 Q1240 83 1104.5 28.5 Q969 -26 807 -26 Q645 -26 509.5 28.5 Q374 83 276 180 Q178 277 123.5 410 Q69 543 69 700 Q69 857 123.5 990 Q178 1123 276 1220 Q374 1317 509.5 1371.5 Q645 1426 807 1426 Z M807 1106 Q721 1106 649.5 1076.5 Q578 1047 526.5 993 Q475 939 446 864.5 Q417 790 417 700 Q417 610 446 535.5 Q475 461 526.5 407 Q578 353 649.5 323.5 Q721 294 807 294 Q892 294 964 323.5 Q1036 353 1087.5 407 Q1139 461 1168 535.5 Q1197 610 1197 700 Q1197 790 1168 864.5 Q1139 939 1087.5 993 Q1036 1047 964 1076.5 Q892 1106 807 1106 Z M432 1841 L791 1841 L1003 1509 L710 1509 L432 1841 Z " />
<glyph glyph-name="Oacute" unicode="&#xd3;" horiz-adv-x="1614" d="M807 1426 Q969 1426 1104.5 1371.5 Q1240 1317 1338 1220 Q1436 1123 1490.5 990 Q1545 857 1545 700 Q1545 543 1490.5 410 Q1436 277 1338 180 Q1240 83 1104.5 28.5 Q969 -26 807 -26 Q645 -26 509.5 28.5 Q374 83 276 180 Q178 277 123.5 410 Q69 543 69 700 Q69 857 123.5 990 Q178 1123 276 1220 Q374 1317 509.5 1371.5 Q645 1426 807 1426 Z M807 1106 Q721 1106 649.5 1076.5 Q578 1047 526.5 993 Q475 939 446 864.5 Q417 790 417 700 Q417 610 446 535.5 Q475 461 526.5 407 Q578 353 649.5 323.5 Q721 294 807 294 Q892 294 964 323.5 Q1036 353 1087.5 407 Q1139 461 1168 535.5 Q1197 610 1197 700 Q1197 790 1168 864.5 Q1139 939 1087.5 993 Q1036 1047 964 1076.5 Q892 1106 807 1106 Z M598 1509 L810 1841 L1169 1841 L891 1509 L598 1509 Z " />
<glyph glyph-name="Ocircumflex" unicode="&#xd4;" horiz-adv-x="1614" d="M807 1426 Q969 1426 1104.5 1371.5 Q1240 1317 1338 1220 Q1436 1123 1490.5 990 Q1545 857 1545 700 Q1545 543 1490.5 410 Q1436 277 1338 180 Q1240 83 1104.5 28.5 Q969 -26 807 -26 Q645 -26 509.5 28.5 Q374 83 276 180 Q178 277 123.5 410 Q69 543 69 700 Q69 857 123.5 990 Q178 1123 276 1220 Q374 1317 509.5 1371.5 Q645 1426 807 1426 Z M807 1106 Q721 1106 649.5 1076.5 Q578 1047 526.5 993 Q475 939 446 864.5 Q417 790 417 700 Q417 610 446 535.5 Q475 461 526.5 407 Q578 353 649.5 323.5 Q721 294 807 294 Q892 294 964 323.5 Q1036 353 1087.5 407 Q1139 461 1168 535.5 Q1197 610 1197 700 Q1197 790 1168 864.5 Q1139 939 1087.5 993 Q1036 1047 964 1076.5 Q892 1106 807 1106 Z M921 1499 L808 1643 L694 1499 L410 1499 L635 1831 L979 1831 L1205 1499 L921 1499 Z " />
<glyph glyph-name="Otilde" unicode="&#xd5;" horiz-adv-x="1614" d="M807 1426 Q969 1426 1104.5 1371.5 Q1240 1317 1338 1220 Q1436 1123 1490.5 990 Q1545 857 1545 700 Q1545 543 1490.5 410 Q1436 277 1338 180 Q1240 83 1104.5 28.5 Q969 -26 807 -26 Q645 -26 509.5 28.5 Q374 83 276 180 Q178 277 123.5 410 Q69 543 69 700 Q69 857 123.5 990 Q178 1123 276 1220 Q374 1317 509.5 1371.5 Q645 1426 807 1426 Z M807 1106 Q721 1106 649.5 1076.5 Q578 1047 526.5 993 Q475 939 446 864.5 Q417 790 417 700 Q417 610 446 535.5 Q475 461 526.5 407 Q578 353 649.5 323.5 Q721 294 807 294 Q892 294 964 323.5 Q1036 353 1087.5 407 Q1139 461 1168 535.5 Q1197 610 1197 700 Q1197 790 1168 864.5 Q1139 939 1087.5 993 Q1036 1047 964 1076.5 Q892 1106 807 1106 Z M393 1679 Q452 1763 524.5 1797 Q597 1831 680 1831 Q733 1831 771.5 1819.5 Q810 1808 839 1794.5 Q868 1781 890.5 1770 Q913 1759 934 1759 Q960 1759 988.5 1776.5 Q1017 1794 1049 1828 L1220 1662 Q1161 1578 1088.5 1544 Q1016 1510 933 1510 Q880 1510 842 1521 Q804 1532 774.5 1545.5 Q745 1559 722.5 1570.5 Q700 1582 679 1582 Q653 1582 624.5 1564.5 Q596 1547 564 1514 L393 1679 Z " />
<glyph glyph-name="Odieresis" unicode="&#xd6;" horiz-adv-x="1614" d="M807 1426 Q969 1426 1104.5 1371.5 Q1240 1317 1338 1220 Q1436 1123 1490.5 990 Q1545 857 1545 700 Q1545 543 1490.5 410 Q1436 277 1338 180 Q1240 83 1104.5 28.5 Q969 -26 807 -26 Q645 -26 509.5 28.5 Q374 83 276 180 Q178 277 123.5 410 Q69 543 69 700 Q69 857 123.5 990 Q178 1123 276 1220 Q374 1317 509.5 1371.5 Q645 1426 807 1426 Z M807 1106 Q721 1106 649.5 1076.5 Q578 1047 526.5 993 Q475 939 446 864.5 Q417 790 417 700 Q417 610 446 535.5 Q475 461 526.5 407 Q578 353 649.5 323.5 Q721 294 807 294 Q892 294 964 323.5 Q1036 353 1087.5 407 Q1139 461 1168 535.5 Q1197 610 1197 700 Q1197 790 1168 864.5 Q1139 939 1087.5 993 Q1036 1047 964 1076.5 Q892 1106 807 1106 Z M575 1853 Q615 1853 649 1838.5 Q683 1824 708.5 1799 Q734 1774 748.5 1739.5 Q763 1705 763 1666 Q763 1626 748.5 1592 Q734 1558 708.5 1533 Q683 1508 649 1493.5 Q615 1479 575 1479 Q536 1479 502 1493.5 Q468 1508 443 1533 Q418 1558 403.5 1592 Q389 1626 389 1666 Q389 1705 403.5 1739.5 Q418 1774 443 1799 Q468 1824 502 1838.5 Q536 1853 575 1853 Z M1039 1853 Q1078 1853 1112.5 1838.5 Q1147 1824 1172 1799 Q1197 1774 1211.5 1739.5 Q1226 1705 1226 1666 Q1226 1626 1211.5 1592 Q1197 1558 1172 1533 Q1147 1508 1112.5 1493.5 Q1078 1479 1039 1479 Q999 1479 965 1493.5 Q931 1508 906 1533 Q881 1558 866.5 1592 Q852 1626 852 1666 Q852 1705 866.5 1739.5 Q881 1774 906 1799 Q931 1824 965 1838.5 Q999 1853 1039 1853 Z " />
<glyph glyph-name="multiply" unicode="&#xd7;" horiz-adv-x="1200" d="M145 260 L414 529 L143 802 L330 989 L602 717 L872 987 L1055 804 L785 534 L1057 262 L870 74 L597 346 L328 76 L145 260 Z " />
<glyph glyph-name="Oslash" unicode="&#xd8;" horiz-adv-x="1628" d="M807 1426 Q929 1426 1036 1394.5 Q1143 1363 1231 1306 L1351 1426 L1540 1237 L1421 1119 Q1481 1031 1513 925.5 Q1545 820 1545 700 Q1545 543 1490.5 410 Q1436 277 1338 180 Q1240 83 1104.5 28.5 Q969 -26 807 -26 Q687 -26 583 3.5 Q479 33 391 89 L276 -26 L88 162 L198 272 Q136 361 102.5 468.5 Q69 576 69 700 Q69 857 123.5 990 Q178 1123 276 1220 Q374 1317 509.5 1371.5 Q645 1426 807 1426 Z M807 1106 Q721 1106 649.5 1076.5 Q578 1047 526.5 993 Q475 939 446 864.5 Q417 790 417 700 Q417 651 425.5 607 Q434 563 450 524 L990 1064 Q949 1084 903.5 1095 Q858 1106 807 1106 Z M1197 700 Q1197 745 1189 786 Q1181 827 1167 865 L633 331 Q712 294 807 294 Q892 294 964 323.5 Q1036 353 1087.5 407 Q1139 461 1168 535.5 Q1197 610 1197 700 Z " />
<glyph glyph-name="Ugrave" unicode="&#xd9;" horiz-adv-x="1453" d="M1339 565 Q1339 421 1297 311 Q1255 201 1175.5 126 Q1096 51 982.5 12.5 Q869 -26 726 -26 Q583 -26 469.5 12.5 Q356 51 277 126 Q198 201 156 311 Q114 421 114 565 L114 1400 L449 1400 L449 578 Q449 506 469 453 Q489 400 525 364.5 Q561 329 612 312 Q663 295 726 295 Q789 295 840.5 312 Q892 329 928 364.5 Q964 400 984 453 Q1004 506 1004 578 L1004 1400 L1339 1400 L1339 565 Z M351 1841 L710 1841 L922 1509 L629 1509 L351 1841 Z " />
<glyph glyph-name="Uacute" unicode="&#xda;" horiz-adv-x="1453" d="M1339 565 Q1339 421 1297 311 Q1255 201 1175.5 126 Q1096 51 982.5 12.5 Q869 -26 726 -26 Q583 -26 469.5 12.5 Q356 51 277 126 Q198 201 156 311 Q114 421 114 565 L114 1400 L449 1400 L449 578 Q449 506 469 453 Q489 400 525 364.5 Q561 329 612 312 Q663 295 726 295 Q789 295 840.5 312 Q892 329 928 364.5 Q964 400 984 453 Q1004 506 1004 578 L1004 1400 L1339 1400 L1339 565 Z M517 1509 L729 1841 L1088 1841 L810 1509 L517 1509 Z " />
<glyph glyph-name="Ucircumflex" unicode="&#xdb;" horiz-adv-x="1453" d="M1339 565 Q1339 421 1297 311 Q1255 201 1175.5 126 Q1096 51 982.5 12.5 Q869 -26 726 -26 Q583 -26 469.5 12.5 Q356 51 277 126 Q198 201 156 311 Q114 421 114 565 L114 1400 L449 1400 L449 578 Q449 506 469 453 Q489 400 525 364.5 Q561 329 612 312 Q663 295 726 295 Q789 295 840.5 312 Q892 329 928 364.5 Q964 400 984 453 Q1004 506 1004 578 L1004 1400 L1339 1400 L1339 565 Z M840 1499 L727 1643 L613 1499 L329 1499 L554 1831 L898 1831 L1124 1499 L840 1499 Z " />
<glyph glyph-name="Udieresis" unicode="&#xdc;" horiz-adv-x="1453" d="M1339 565 Q1339 421 1297 311 Q1255 201 1175.5 126 Q1096 51 982.5 12.5 Q869 -26 726 -26 Q583 -26 469.5 12.5 Q356 51 277 126 Q198 201 156 311 Q114 421 114 565 L114 1400 L449 1400 L449 578 Q449 506 469 453 Q489 400 525 364.5 Q561 329 612 312 Q663 295 726 295 Q789 295 840.5 312 Q892 329 928 364.5 Q964 400 984 453 Q1004 506 1004 578 L1004 1400 L1339 1400 L1339 565 Z M494 1853 Q534 1853 568 1838.5 Q602 1824 627.5 1799 Q653 1774 667.5 1739.5 Q682 1705 682 1666 Q682 1626 667.5 1592 Q653 1558 627.5 1533 Q602 1508 568 1493.5 Q534 1479 494 1479 Q455 1479 421 1493.5 Q387 1508 362 1533 Q337 1558 322.5 1592 Q308 1626 308 1666 Q308 1705 322.5 1739.5 Q337 1774 362 1799 Q387 1824 421 1838.5 Q455 1853 494 1853 Z M958 1853 Q997 1853 1031.5 1838.5 Q1066 1824 1091 1799 Q1116 1774 1130.5 1739.5 Q1145 1705 1145 1666 Q1145 1626 1130.5 1592 Q1116 1558 1091 1533 Q1066 1508 1031.5 1493.5 Q997 1479 958 1479 Q918 1479 884 1493.5 Q850 1508 825 1533 Q800 1558 785.5 1592 Q771 1626 771 1666 Q771 1705 785.5 1739.5 Q800 1774 825 1799 Q850 1824 884 1838.5 Q918 1853 958 1853 Z " />
<glyph glyph-name="Yacute" unicode="&#xdd;" horiz-adv-x="1398" d="M871 539 L871 0 L536 0 L536 537 L4 1400 L391 1400 L705 841 L1018 1400 L1394 1400 L871 539 Z M496 1509 L708 1841 L1067 1841 L789 1509 L496 1509 Z " />
<glyph glyph-name="Thorn" unicode="&#xde;" horiz-adv-x="1317" d="M461 1180 L727 1180 Q857 1180 955.5 1146.5 Q1054 1113 1121 1052 Q1188 991 1222 905 Q1256 819 1256 714 Q1256 610 1222 525.5 Q1188 441 1121.5 380 Q1055 319 957 286 Q859 253 730 253 L461 253 L461 0 L127 0 L127 1400 L461 1400 L461 1180 Z M461 877 L461 551 L722 551 Q813 551 864.5 592 Q916 633 916 714 Q916 794 864.5 835.5 Q813 877 722 877 L461 877 Z " />
<glyph glyph-name="germandbls" unicode="&#xdf;" horiz-adv-x="1228" d="M104 986 Q104 1075 129.5 1161 Q155 1247 215 1315 Q275 1383 374 1424.5 Q473 1466 619 1466 Q743 1466 838.5 1431.5 Q934 1397 998.5 1339 Q1063 1281 1096.5 1205 Q1130 1129 1130 1045 Q1130 983 1115.5 930.5 Q1101 878 1075.5 837 Q1050 796 1014.5 765.5 Q979 735 937 717 Q986 701 1028.5 670 Q1071 639 1102.5 596.5 Q1134 554 1152 502.5 Q1170 451 1170 395 Q1170 300 1137.5 222.5 Q1105 145 1044 89.5 Q983 34 896 4 Q809 -26 700 -26 Q643 -26 595 -20.5 Q547 -15 507 -2 L535 257 Q588 238 652 238 Q743 238 796.5 282.5 Q850 327 850 408 Q850 499 789 540 Q728 581 621 581 L576 581 L576 842 L595 842 Q643 842 682.5 851 Q722 860 750.5 880.5 Q779 901 795 933 Q811 965 811 1012 Q811 1050 796.5 1081.5 Q782 1113 755.5 1135 Q729 1157 692.5 1169 Q656 1181 612 1181 Q564 1181 527.5 1166 Q491 1151 466.5 1124 Q442 1097 429.5 1059 Q417 1021 417 976 L417 0 L104 0 L104 986 Z " />
<glyph glyph-name="agrave" unicode="&#xe0;" horiz-adv-x="1208" d="M1099 0 L796 0 L796 106 Q751 48 682.5 11 Q614 -26 514 -26 Q416 -26 332.5 14 Q249 54 188 124 Q127 194 92.5 288.5 Q58 383 58 492 Q58 600 92.5 694 Q127 788 188 858 Q249 928 332.5 968 Q416 1008 515 1008 Q614 1008 683 970.5 Q752 933 796 875 L796 981 L1099 981 L1099 0 Z M589 716 Q542 716 503.5 699 Q465 682 437.5 651.5 Q410 621 395 580 Q380 539 380 491 Q380 443 395 402 Q410 361 437.5 330.5 Q465 300 503.5 283 Q542 266 589 266 Q635 266 673.5 283 Q712 300 740 330 Q768 360 783.5 401 Q799 442 799 491 Q799 540 783.5 581 Q768 622 740 652 Q712 682 673.5 699 Q635 716 589 716 Z M245 1437 L604 1437 L816 1105 L523 1105 L245 1437 Z " />
<glyph glyph-name="aacute" unicode="&#xe1;" horiz-adv-x="1208" d="M1099 0 L796 0 L796 106 Q751 48 682.5 11 Q614 -26 514 -26 Q416 -26 332.5 14 Q249 54 188 124 Q127 194 92.5 288.5 Q58 383 58 492 Q58 600 92.5 694 Q127 788 188 858 Q249 928 332.5 968 Q416 1008 515 1008 Q614 1008 683 970.5 Q752 933 796 875 L796 981 L1099 981 L1099 0 Z M589 716 Q542 716 503.5 699 Q465 682 437.5 651.5 Q410 621 395 580 Q380 539 380 491 Q380 443 395 402 Q410 361 437.5 330.5 Q465 300 503.5 283 Q542 266 589 266 Q635 266 673.5 283 Q712 300 740 330 Q768 360 783.5 401 Q799 442 799 491 Q799 540 783.5 581 Q768 622 740 652 Q712 682 673.5 699 Q635 716 589 716 Z M416 1105 L628 1437 L987 1437 L709 1105 L416 1105 Z " />
<glyph glyph-name="acircumflex" unicode="&#xe2;" horiz-adv-x="1208" d="M1099 0 L796 0 L796 106 Q751 48 682.5 11 Q614 -26 514 -26 Q416 -26 332.5 14 Q249 54 188 124 Q127 194 92.5 288.5 Q58 383 58 492 Q58 600 92.5 694 Q127 788 188 858 Q249 928 332.5 968 Q416 1008 515 1008 Q614 1008 683 970.5 Q752 933 796 875 L796 981 L1099 981 L1099 0 Z M589 716 Q542 716 503.5 699 Q465 682 437.5 651.5 Q410 621 395 580 Q380 539 380 491 Q380 443 395 402 Q410 361 437.5 330.5 Q465 300 503.5 283 Q542 266 589 266 Q635 266 673.5 283 Q712 300 740 330 Q768 360 783.5 401 Q799 442 799 491 Q799 540 783.5 581 Q768 622 740 652 Q712 682 673.5 699 Q635 716 589 716 Z M726 1095 L613 1239 L499 1095 L215 1095 L440 1427 L784 1427 L1010 1095 L726 1095 Z " />
<glyph glyph-name="atilde" unicode="&#xe3;" horiz-adv-x="1208" d="M1099 0 L796 0 L796 106 Q751 48 682.5 11 Q614 -26 514 -26 Q416 -26 332.5 14 Q249 54 188 124 Q127 194 92.5 288.5 Q58 383 58 492 Q58 600 92.5 694 Q127 788 188 858 Q249 928 332.5 968 Q416 1008 515 1008 Q614 1008 683 970.5 Q752 933 796 875 L796 981 L1099 981 L1099 0 Z M589 716 Q542 716 503.5 699 Q465 682 437.5 651.5 Q410 621 395 580 Q380 539 380 491 Q380 443 395 402 Q410 361 437.5 330.5 Q465 300 503.5 283 Q542 266 589 266 Q635 266 673.5 283 Q712 300 740 330 Q768 360 783.5 401 Q799 442 799 491 Q799 540 783.5 581 Q768 622 740 652 Q712 682 673.5 699 Q635 716 589 716 Z M194 1275 Q253 1359 325.5 1393 Q398 1427 481 1427 Q534 1427 572.5 1415.5 Q611 1404 640 1390.5 Q669 1377 691.5 1366 Q714 1355 735 1355 Q761 1355 789.5 1372.5 Q818 1390 850 1424 L1021 1258 Q962 1174 889.5 1140 Q817 1106 734 1106 Q681 1106 643 1117 Q605 1128 575.5 1141.5 Q546 1155 523.5 1166.5 Q501 1178 480 1178 Q454 1178 425.5 1160.5 Q397 1143 365 1110 L194 1275 Z " />
<glyph glyph-name="adieresis" unicode="&#xe4;" horiz-adv-x="1208" d="M1099 0 L796 0 L796 106 Q751 48 682.5 11 Q614 -26 514 -26 Q416 -26 332.5 14 Q249 54 188 124 Q127 194 92.5 288.5 Q58 383 58 492 Q58 600 92.5 694 Q127 788 188 858 Q249 928 332.5 968 Q416 1008 515 1008 Q614 1008 683 970.5 Q752 933 796 875 L796 981 L1099 981 L1099 0 Z M589 716 Q542 716 503.5 699 Q465 682 437.5 651.5 Q410 621 395 580 Q380 539 380 491 Q380 443 395 402 Q410 361 437.5 330.5 Q465 300 503.5 283 Q542 266 589 266 Q635 266 673.5 283 Q712 300 740 330 Q768 360 783.5 401 Q799 442 799 491 Q799 540 783.5 581 Q768 622 740 652 Q712 682 673.5 699 Q635 716 589 716 Z M378 1449 Q418 1449 452 1434.5 Q486 1420 511.5 1395 Q537 1370 551.5 1335.5 Q566 1301 566 1262 Q566 1222 551.5 1188 Q537 1154 511.5 1129 Q486 1104 452 1089.5 Q418 1075 378 1075 Q339 1075 305 1089.5 Q271 1104 246 1129 Q221 1154 206.5 1188 Q192 1222 192 1262 Q192 1301 206.5 1335.5 Q221 1370 246 1395 Q271 1420 305 1434.5 Q339 1449 378 1449 Z M842 1449 Q881 1449 915.5 1434.5 Q950 1420 975 1395 Q1000 1370 1014.5 1335.5 Q1029 1301 1029 1262 Q1029 1222 1014.5 1188 Q1000 1154 975 1129 Q950 1104 915.5 1089.5 Q881 1075 842 1075 Q802 1075 768 1089.5 Q734 1104 709 1129 Q684 1154 669.5 1188 Q655 1222 655 1262 Q655 1301 669.5 1335.5 Q684 1370 709 1395 Q734 1420 768 1434.5 Q802 1449 842 1449 Z " />
<glyph glyph-name="aring" unicode="&#xe5;" horiz-adv-x="1208" d="M1099 0 L796 0 L796 106 Q751 48 682.5 11 Q614 -26 514 -26 Q416 -26 332.5 14 Q249 54 188 124 Q127 194 92.5 288.5 Q58 383 58 492 Q58 600 92.5 694 Q127 788 188 858 Q249 928 332.5 968 Q416 1008 515 1008 Q614 1008 683 970.5 Q752 933 796 875 L796 981 L1099 981 L1099 0 Z M589 716 Q542 716 503.5 699 Q465 682 437.5 651.5 Q410 621 395 580 Q380 539 380 491 Q380 443 395 402 Q410 361 437.5 330.5 Q465 300 503.5 283 Q542 266 589 266 Q635 266 673.5 283 Q712 300 740 330 Q768 360 783.5 401 Q799 442 799 491 Q799 540 783.5 581 Q768 622 740 652 Q712 682 673.5 699 Q635 716 589 716 Z M612 1068 Q555 1068 505 1089.5 Q455 1111 417.5 1147.5 Q380 1184 358.5 1233.5 Q337 1283 337 1340 Q337 1396 358.5 1445.5 Q380 1495 417.5 1531.5 Q455 1568 505 1589.5 Q555 1611 612 1611 Q669 1611 719.5 1589.5 Q770 1568 807.5 1531.5 Q845 1495 867 1445.5 Q889 1396 889 1340 Q889 1283 867 1233.5 Q845 1184 807.5 1147.5 Q770 1111 719.5 1089.5 Q669 1068 612 1068 Z M612 1235 Q633 1235 651.5 1243 Q670 1251 684.5 1265 Q699 1279 707 1298 Q715 1317 715 1340 Q715 1362 707 1381 Q699 1400 684.5 1414 Q670 1428 651.5 1436.5 Q633 1445 612 1445 Q592 1445 573.5 1436.5 Q555 1428 541 1414 Q527 1400 518.5 1381 Q510 1362 510 1340 Q510 1317 518.5 1298 Q527 1279 541 1265 Q555 1251 573.5 1243 Q592 1235 612 1235 Z " />
<glyph glyph-name="ae" unicode="&#xe6;" horiz-adv-x="1732" d="M1198 1008 Q1306 1008 1393.5 970.5 Q1481 933 1543 865 Q1605 797 1639.5 701.5 Q1674 606 1674 491 Q1674 467 1672 438.5 Q1670 410 1668 394 L1002 394 Q1022 313 1076.5 275 Q1131 237 1212 237 Q1268 237 1324 259 Q1380 281 1426 323 L1629 135 Q1551 58 1439 16 Q1327 -26 1188 -26 Q1071 -26 976 9 Q881 44 813 113 Q786 89 752.5 64 Q719 39 675 19 Q631 -1 575 -13.5 Q519 -26 448 -26 Q357 -26 285 -4.5 Q213 17 162.5 57.5 Q112 98 85 155.5 Q58 213 58 285 Q58 356 86.5 412.5 Q115 469 170 508 Q225 547 305 567.5 Q385 588 488 588 L678 588 Q670 660 624.5 697.5 Q579 735 491 735 Q456 735 419 728 Q382 721 346.5 710 Q311 699 278.5 684 Q246 669 221 654 L117 898 Q150 920 195.5 940 Q241 960 295.5 975 Q350 990 411.5 999 Q473 1008 536 1008 Q597 1008 647 998 Q697 988 737 971 Q777 954 807.5 930.5 Q838 907 860 880 Q920 946 1005.5 977 Q1091 1008 1198 1008 Z M503 213 Q568 213 619 238.5 Q670 264 705 301 Q691 347 685 394 L534 394 Q453 394 415 368.5 Q377 343 377 304 Q377 265 408.5 239 Q440 213 503 213 Z M1183 742 Q1115 742 1066.5 706 Q1018 670 1001 585 L1363 585 Q1345 663 1299 702.5 Q1253 742 1183 742 Z " />
<glyph glyph-name="ccedilla" unicode="&#xe7;" horiz-adv-x="1038" d="M587 1008 Q724 1008 829.5 951 Q935 894 1006 793 L761 622 Q724 670 680.5 693 Q637 716 580 716 Q539 716 502.5 700.5 Q466 685 438 656 Q410 627 394 585.5 Q378 544 378 491 Q378 438 394 396 Q410 354 437 325 Q464 296 500.5 281 Q537 266 578 266 Q688 266 763 361 L1007 187 Q936 87 830 30.5 Q724 -26 587 -26 Q470 -26 372.5 12.5 Q275 51 205 120 Q135 189 96.5 283.5 Q58 378 58 491 Q58 603 96.5 698 Q135 793 205 862 Q275 931 372.5 969.5 Q470 1008 587 1008 Z M613 -321 L326 -321 L437 7 L716 7 L613 -321 Z " />
<glyph glyph-name="egrave" unicode="&#xe8;" horiz-adv-x="1110" d="M561 1008 Q670 1008 760.5 970.5 Q851 933 915.5 864.5 Q980 796 1016 701 Q1052 606 1052 491 Q1052 467 1050.5 438.5 Q1049 410 1046 394 L381 394 Q401 313 455.5 275 Q510 237 591 237 Q646 237 702 259 Q758 281 805 323 L1007 135 Q930 58 821 16 Q712 -26 575 -26 Q459 -26 364 11 Q269 48 201 115 Q133 182 95.5 276 Q58 370 58 485 Q58 601 94.5 697 Q131 793 197.5 862 Q264 931 356.5 969.5 Q449 1008 561 1008 Z M562 742 Q489 742 444.5 703.5 Q400 665 382 592 L739 592 Q720 666 675.5 704 Q631 742 562 742 Z M192 1437 L551 1437 L763 1105 L470 1105 L192 1437 Z " />
<glyph glyph-name="eacute" unicode="&#xe9;" horiz-adv-x="1110" d="M561 1008 Q670 1008 760.5 970.5 Q851 933 915.5 864.5 Q980 796 1016 701 Q1052 606 1052 491 Q1052 467 1050.5 438.5 Q1049 410 1046 394 L381 394 Q401 313 455.5 275 Q510 237 591 237 Q646 237 702 259 Q758 281 805 323 L1007 135 Q930 58 821 16 Q712 -26 575 -26 Q459 -26 364 11 Q269 48 201 115 Q133 182 95.5 276 Q58 370 58 485 Q58 601 94.5 697 Q131 793 197.5 862 Q264 931 356.5 969.5 Q449 1008 561 1008 Z M562 742 Q489 742 444.5 703.5 Q400 665 382 592 L739 592 Q720 666 675.5 704 Q631 742 562 742 Z M363 1105 L575 1437 L934 1437 L656 1105 L363 1105 Z " />
<glyph glyph-name="ecircumflex" unicode="&#xea;" horiz-adv-x="1110" d="M561 1008 Q670 1008 760.5 970.5 Q851 933 915.5 864.5 Q980 796 1016 701 Q1052 606 1052 491 Q1052 467 1050.5 438.5 Q1049 410 1046 394 L381 394 Q401 313 455.5 275 Q510 237 591 237 Q646 237 702 259 Q758 281 805 323 L1007 135 Q930 58 821 16 Q712 -26 575 -26 Q459 -26 364 11 Q269 48 201 115 Q133 182 95.5 276 Q58 370 58 485 Q58 601 94.5 697 Q131 793 197.5 862 Q264 931 356.5 969.5 Q449 1008 561 1008 Z M562 742 Q489 742 444.5 703.5 Q400 665 382 592 L739 592 Q720 666 675.5 704 Q631 742 562 742 Z M673 1095 L560 1239 L446 1095 L162 1095 L387 1427 L731 1427 L957 1095 L673 1095 Z " />
<glyph glyph-name="edieresis" unicode="&#xeb;" horiz-adv-x="1110" d="M561 1008 Q670 1008 760.5 970.5 Q851 933 915.5 864.5 Q980 796 1016 701 Q1052 606 1052 491 Q1052 467 1050.5 438.5 Q1049 410 1046 394 L381 394 Q401 313 455.5 275 Q510 237 591 237 Q646 237 702 259 Q758 281 805 323 L1007 135 Q930 58 821 16 Q712 -26 575 -26 Q459 -26 364 11 Q269 48 201 115 Q133 182 95.5 276 Q58 370 58 485 Q58 601 94.5 697 Q131 793 197.5 862 Q264 931 356.5 969.5 Q449 1008 561 1008 Z M562 742 Q489 742 444.5 703.5 Q400 665 382 592 L739 592 Q720 666 675.5 704 Q631 742 562 742 Z M325 1449 Q365 1449 399 1434.5 Q433 1420 458.5 1395 Q484 1370 498.5 1335.5 Q513 1301 513 1262 Q513 1222 498.5 1188 Q484 1154 458.5 1129 Q433 1104 399 1089.5 Q365 1075 325 1075 Q286 1075 252 1089.5 Q218 1104 193 1129 Q168 1154 153.5 1188 Q139 1222 139 1262 Q139 1301 153.5 1335.5 Q168 1370 193 1395 Q218 1420 252 1434.5 Q286 1449 325 1449 Z M789 1449 Q828 1449 862.5 1434.5 Q897 1420 922 1395 Q947 1370 961.5 1335.5 Q976 1301 976 1262 Q976 1222 961.5 1188 Q947 1154 922 1129 Q897 1104 862.5 1089.5 Q828 1075 789 1075 Q749 1075 715 1089.5 Q681 1104 656 1129 Q631 1154 616.5 1188 Q602 1222 602 1262 Q602 1301 616.5 1335.5 Q631 1370 656 1395 Q681 1420 715 1434.5 Q749 1449 789 1449 Z " />
<glyph glyph-name="igrave" unicode="&#xec;" horiz-adv-x="532" d="M423 0 L110 0 L110 981 L423 981 L423 0 Z M-103 1437 L256 1437 L468 1105 L175 1105 L-103 1437 Z " />
<glyph glyph-name="iacute" unicode="&#xed;" horiz-adv-x="532" d="M423 0 L110 0 L110 981 L423 981 L423 0 Z M68 1105 L280 1437 L639 1437 L361 1105 L68 1105 Z " />
<glyph glyph-name="icircumflex" unicode="&#xee;" horiz-adv-x="532" d="M423 0 L110 0 L110 981 L423 981 L423 0 Z M378 1095 L265 1239 L151 1095 L-133 1095 L92 1427 L436 1427 L662 1095 L378 1095 Z " />
<glyph glyph-name="idieresis" unicode="&#xef;" horiz-adv-x="532" d="M423 0 L110 0 L110 981 L423 981 L423 0 Z M30 1449 Q70 1449 104 1434.5 Q138 1420 163.5 1395 Q189 1370 203.5 1335.5 Q218 1301 218 1262 Q218 1222 203.5 1188 Q189 1154 163.5 1129 Q138 1104 104 1089.5 Q70 1075 30 1075 Q-9 1075 -43 1089.5 Q-77 1104 -102 1129 Q-127 1154 -141.5 1188 Q-156 1222 -156 1262 Q-156 1301 -141.5 1335.5 Q-127 1370 -102 1395 Q-77 1420 -43 1434.5 Q-9 1449 30 1449 Z M494 1449 Q533 1449 567.5 1434.5 Q602 1420 627 1395 Q652 1370 666.5 1335.5 Q681 1301 681 1262 Q681 1222 666.5 1188 Q652 1154 627 1129 Q602 1104 567.5 1089.5 Q533 1075 494 1075 Q454 1075 420 1089.5 Q386 1104 361 1129 Q336 1154 321.5 1188 Q307 1222 307 1262 Q307 1301 321.5 1335.5 Q336 1370 361 1395 Q386 1420 420 1434.5 Q454 1449 494 1449 Z " />
<glyph glyph-name="eth" unicode="&#xf0;" horiz-adv-x="1173" d="M940 1296 L805 1212 Q878 1143 935.5 1060.5 Q993 978 1033 887.5 Q1073 797 1094 700 Q1115 603 1115 505 Q1115 391 1076.5 293.5 Q1038 196 968 125 Q898 54 800 14 Q702 -26 583 -26 Q470 -26 374 10.5 Q278 47 208 111.5 Q138 176 98 263.5 Q58 351 58 454 Q58 557 93.5 644 Q129 731 190.5 794 Q252 857 335 892.5 Q418 928 514 928 Q581 928 636.5 910.5 Q692 893 737 860 Q705 920 660.5 971 Q616 1022 560 1067 L349 936 L252 1088 L396 1177 Q361 1197 324 1216 Q287 1235 249 1255 L433 1458 Q555 1405 658 1334 L843 1448 L940 1296 Z M590 664 Q544 664 505.5 648.5 Q467 633 438.5 605.5 Q410 578 394 539 Q378 500 378 454 Q378 408 394 369.5 Q410 331 438.5 303.5 Q467 276 505.5 260.5 Q544 245 590 245 Q636 245 675 260.5 Q714 276 742.5 303.5 Q771 331 787 369.5 Q803 408 803 454 Q803 500 787 539 Q771 578 742.5 605.5 Q714 633 675 648.5 Q636 664 590 664 Z " />
<glyph glyph-name="ntilde" unicode="&#xf1;" horiz-adv-x="1153" d="M702 1008 Q775 1008 839 983 Q903 958 949.5 911 Q996 864 1023 796.5 Q1050 729 1050 644 L1050 0 L737 0 L737 533 Q737 621 696 667.5 Q655 714 582 714 Q549 714 520.5 703 Q492 692 470 669 Q448 646 435.5 611 Q423 576 423 528 L423 0 L110 0 L110 981 L410 981 L410 858 Q457 936 530 972 Q603 1008 702 1008 Z M170 1275 Q229 1359 301.5 1393 Q374 1427 457 1427 Q510 1427 548.5 1415.5 Q587 1404 616 1390.5 Q645 1377 667.5 1366 Q690 1355 711 1355 Q737 1355 765.5 1372.5 Q794 1390 826 1424 L997 1258 Q938 1174 865.5 1140 Q793 1106 710 1106 Q657 1106 619 1117 Q581 1128 551.5 1141.5 Q522 1155 499.5 1166.5 Q477 1178 456 1178 Q430 1178 401.5 1160.5 Q373 1143 341 1110 L170 1275 Z " />
<glyph glyph-name="ograve" unicode="&#xf2;" horiz-adv-x="1181" d="M590 1008 Q705 1008 802.5 969 Q900 930 971.5 861 Q1043 792 1083 697 Q1123 602 1123 491 Q1123 380 1083 285 Q1043 190 971.5 121 Q900 52 802.5 13 Q705 -26 590 -26 Q475 -26 377.5 13 Q280 52 209 121 Q138 190 98 285 Q58 380 58 491 Q58 602 98 697 Q138 792 209 861 Q280 930 377.5 969 Q475 1008 590 1008 Z M590 716 Q544 716 505.5 699.5 Q467 683 438.5 653 Q410 623 394 581.5 Q378 540 378 491 Q378 441 394 400 Q410 359 438.5 329 Q467 299 505.5 282.5 Q544 266 590 266 Q636 266 675 282.5 Q714 299 742.5 329 Q771 359 787 400 Q803 441 803 491 Q803 540 787 581.5 Q771 623 742.5 653 Q714 683 675 699.5 Q636 716 590 716 Z M222 1437 L581 1437 L793 1105 L500 1105 L222 1437 Z " />
<glyph glyph-name="oacute" unicode="&#xf3;" horiz-adv-x="1181" d="M590 1008 Q705 1008 802.5 969 Q900 930 971.5 861 Q1043 792 1083 697 Q1123 602 1123 491 Q1123 380 1083 285 Q1043 190 971.5 121 Q900 52 802.5 13 Q705 -26 590 -26 Q475 -26 377.5 13 Q280 52 209 121 Q138 190 98 285 Q58 380 58 491 Q58 602 98 697 Q138 792 209 861 Q280 930 377.5 969 Q475 1008 590 1008 Z M590 716 Q544 716 505.5 699.5 Q467 683 438.5 653 Q410 623 394 581.5 Q378 540 378 491 Q378 441 394 400 Q410 359 438.5 329 Q467 299 505.5 282.5 Q544 266 590 266 Q636 266 675 282.5 Q714 299 742.5 329 Q771 359 787 400 Q803 441 803 491 Q803 540 787 581.5 Q771 623 742.5 653 Q714 683 675 699.5 Q636 716 590 716 Z M393 1105 L605 1437 L964 1437 L686 1105 L393 1105 Z " />
<glyph glyph-name="ocircumflex" unicode="&#xf4;" horiz-adv-x="1181" d="M590 1008 Q705 1008 802.5 969 Q900 930 971.5 861 Q1043 792 1083 697 Q1123 602 1123 491 Q1123 380 1083 285 Q1043 190 971.5 121 Q900 52 802.5 13 Q705 -26 590 -26 Q475 -26 377.5 13 Q280 52 209 121 Q138 190 98 285 Q58 380 58 491 Q58 602 98 697 Q138 792 209 861 Q280 930 377.5 969 Q475 1008 590 1008 Z M590 716 Q544 716 505.5 699.5 Q467 683 438.5 653 Q410 623 394 581.5 Q378 540 378 491 Q378 441 394 400 Q410 359 438.5 329 Q467 299 505.5 282.5 Q544 266 590 266 Q636 266 675 282.5 Q714 299 742.5 329 Q771 359 787 400 Q803 441 803 491 Q803 540 787 581.5 Q771 623 742.5 653 Q714 683 675 699.5 Q636 716 590 716 Z M703 1095 L590 1239 L476 1095 L192 1095 L417 1427 L761 1427 L987 1095 L703 1095 Z " />
<glyph glyph-name="otilde" unicode="&#xf5;" horiz-adv-x="1181" d="M590 1008 Q705 1008 802.5 969 Q900 930 971.5 861 Q1043 792 1083 697 Q1123 602 1123 491 Q1123 380 1083 285 Q1043 190 971.5 121 Q900 52 802.5 13 Q705 -26 590 -26 Q475 -26 377.5 13 Q280 52 209 121 Q138 190 98 285 Q58 380 58 491 Q58 602 98 697 Q138 792 209 861 Q280 930 377.5 969 Q475 1008 590 1008 Z M590 716 Q544 716 505.5 699.5 Q467 683 438.5 653 Q410 623 394 581.5 Q378 540 378 491 Q378 441 394 400 Q410 359 438.5 329 Q467 299 505.5 282.5 Q544 266 590 266 Q636 266 675 282.5 Q714 299 742.5 329 Q771 359 787 400 Q803 441 803 491 Q803 540 787 581.5 Q771 623 742.5 653 Q714 683 675 699.5 Q636 716 590 716 Z M171 1275 Q230 1359 302.5 1393 Q375 1427 458 1427 Q511 1427 549.5 1415.5 Q588 1404 617 1390.5 Q646 1377 668.5 1366 Q691 1355 712 1355 Q738 1355 766.5 1372.5 Q795 1390 827 1424 L998 1258 Q939 1174 866.5 1140 Q794 1106 711 1106 Q658 1106 620 1117 Q582 1128 552.5 1141.5 Q523 1155 500.5 1166.5 Q478 1178 457 1178 Q431 1178 402.5 1160.5 Q374 1143 342 1110 L171 1275 Z " />
<glyph glyph-name="odieresis" unicode="&#xf6;" horiz-adv-x="1181" d="M590 1008 Q705 1008 802.5 969 Q900 930 971.5 861 Q1043 792 1083 697 Q1123 602 1123 491 Q1123 380 1083 285 Q1043 190 971.5 121 Q900 52 802.5 13 Q705 -26 590 -26 Q475 -26 377.5 13 Q280 52 209 121 Q138 190 98 285 Q58 380 58 491 Q58 602 98 697 Q138 792 209 861 Q280 930 377.5 969 Q475 1008 590 1008 Z M590 716 Q544 716 505.5 699.5 Q467 683 438.5 653 Q410 623 394 581.5 Q378 540 378 491 Q378 441 394 400 Q410 359 438.5 329 Q467 299 505.5 282.5 Q544 266 590 266 Q636 266 675 282.5 Q714 299 742.5 329 Q771 359 787 400 Q803 441 803 491 Q803 540 787 581.5 Q771 623 742.5 653 Q714 683 675 699.5 Q636 716 590 716 Z M355 1449 Q395 1449 429 1434.5 Q463 1420 488.5 1395 Q514 1370 528.5 1335.5 Q543 1301 543 1262 Q543 1222 528.5 1188 Q514 1154 488.5 1129 Q463 1104 429 1089.5 Q395 1075 355 1075 Q316 1075 282 1089.5 Q248 1104 223 1129 Q198 1154 183.5 1188 Q169 1222 169 1262 Q169 1301 183.5 1335.5 Q198 1370 223 1395 Q248 1420 282 1434.5 Q316 1449 355 1449 Z M819 1449 Q858 1449 892.5 1434.5 Q927 1420 952 1395 Q977 1370 991.5 1335.5 Q1006 1301 1006 1262 Q1006 1222 991.5 1188 Q977 1154 952 1129 Q927 1104 892.5 1089.5 Q858 1075 819 1075 Q779 1075 745 1089.5 Q711 1104 686 1129 Q661 1154 646.5 1188 Q632 1222 632 1262 Q632 1301 646.5 1335.5 Q661 1370 686 1395 Q711 1420 745 1434.5 Q779 1449 819 1449 Z " />
<glyph glyph-name="divide" unicode="&#xf7;" horiz-adv-x="1200" d="M1071 424 L129 424 L129 681 L1071 681 L1071 424 Z M602 1105 Q639 1105 671.5 1090.5 Q704 1076 729 1051 Q754 1026 768.5 993 Q783 960 783 923 Q783 886 768.5 852.5 Q754 819 729 794 Q704 769 671.5 754 Q639 739 602 739 Q564 739 531 754 Q498 769 472.5 794 Q447 819 432.5 852.5 Q418 886 418 923 Q418 960 432.5 993 Q447 1026 472.5 1051 Q498 1076 531 1090.5 Q564 1105 602 1105 Z M602 366 Q639 366 671.5 351.5 Q704 337 729 312 Q754 287 768.5 254.5 Q783 222 783 185 Q783 147 768.5 113.5 Q754 80 729 55 Q704 30 671.5 15 Q639 0 602 0 Q564 0 531 15 Q498 30 472.5 55 Q447 80 432.5 113.5 Q418 147 418 185 Q418 222 432.5 254.5 Q447 287 472.5 312 Q498 337 531 351.5 Q564 366 602 366 Z " />
<glyph glyph-name="oslash" unicode="&#xf8;" horiz-adv-x="1181" d="M591 1008 Q669 1008 738 990 Q807 972 867 938 L966 1038 L1140 867 L1044 771 Q1082 711 1102.5 640.5 Q1123 570 1123 491 Q1123 380 1083 285 Q1043 190 972 121 Q901 52 803.5 13 Q706 -26 591 -26 Q513 -26 444.5 -8 Q376 10 316 42 L218 -56 L43 114 L138 209 Q100 269 79 340 Q58 411 58 491 Q58 602 98 697 Q138 792 209.5 861 Q281 930 378.5 969 Q476 1008 591 1008 Z M591 729 Q543 729 501.5 711.5 Q460 694 430 662.5 Q400 631 383 587 Q366 543 366 491 Q366 457 374 422 L668 715 Q631 729 591 729 Z M816 491 Q816 524 808 558 L515 265 Q549 253 591 253 Q639 253 680 270.5 Q721 288 751.5 319.5 Q782 351 799 395 Q816 439 816 491 Z " />
<glyph glyph-name="ugrave" unicode="&#xf9;" horiz-adv-x="1153" d="M1050 420 Q1050 305 1013 221 Q976 137 911.5 82 Q847 27 761 0.5 Q675 -26 577 -26 Q479 -26 392.5 0.5 Q306 27 241.5 82 Q177 137 140 221 Q103 305 103 421 L103 981 L416 981 L416 448 Q416 401 428 367 Q440 333 461.5 310.5 Q483 288 512.5 277 Q542 266 577 266 Q612 266 641.5 277 Q671 288 692.5 310.5 Q714 333 726 367 Q738 401 738 448 L738 981 L1050 981 L1050 420 Z M209 1437 L568 1437 L780 1105 L487 1105 L209 1437 Z " />
<glyph glyph-name="uacute" unicode="&#xfa;" horiz-adv-x="1153" d="M1050 420 Q1050 305 1013 221 Q976 137 911.5 82 Q847 27 761 0.5 Q675 -26 577 -26 Q479 -26 392.5 0.5 Q306 27 241.5 82 Q177 137 140 221 Q103 305 103 421 L103 981 L416 981 L416 448 Q416 401 428 367 Q440 333 461.5 310.5 Q483 288 512.5 277 Q542 266 577 266 Q612 266 641.5 277 Q671 288 692.5 310.5 Q714 333 726 367 Q738 401 738 448 L738 981 L1050 981 L1050 420 Z M380 1105 L592 1437 L951 1437 L673 1105 L380 1105 Z " />
<glyph glyph-name="ucircumflex" unicode="&#xfb;" horiz-adv-x="1153" d="M1050 420 Q1050 305 1013 221 Q976 137 911.5 82 Q847 27 761 0.5 Q675 -26 577 -26 Q479 -26 392.5 0.5 Q306 27 241.5 82 Q177 137 140 221 Q103 305 103 421 L103 981 L416 981 L416 448 Q416 401 428 367 Q440 333 461.5 310.5 Q483 288 512.5 277 Q542 266 577 266 Q612 266 641.5 277 Q671 288 692.5 310.5 Q714 333 726 367 Q738 401 738 448 L738 981 L1050 981 L1050 420 Z M690 1095 L577 1239 L463 1095 L179 1095 L404 1427 L748 1427 L974 1095 L690 1095 Z " />
<glyph glyph-name="udieresis" unicode="&#xfc;" horiz-adv-x="1153" d="M1050 420 Q1050 305 1013 221 Q976 137 911.5 82 Q847 27 761 0.5 Q675 -26 577 -26 Q479 -26 392.5 0.5 Q306 27 241.5 82 Q177 137 140 221 Q103 305 103 421 L103 981 L416 981 L416 448 Q416 401 428 367 Q440 333 461.5 310.5 Q483 288 512.5 277 Q542 266 577 266 Q612 266 641.5 277 Q671 288 692.5 310.5 Q714 333 726 367 Q738 401 738 448 L738 981 L1050 981 L1050 420 Z M342 1449 Q382 1449 416 1434.5 Q450 1420 475.5 1395 Q501 1370 515.5 1335.5 Q530 1301 530 1262 Q530 1222 515.5 1188 Q501 1154 475.5 1129 Q450 1104 416 1089.5 Q382 1075 342 1075 Q303 1075 269 1089.5 Q235 1104 210 1129 Q185 1154 170.5 1188 Q156 1222 156 1262 Q156 1301 170.5 1335.5 Q185 1370 210 1395 Q235 1420 269 1434.5 Q303 1449 342 1449 Z M806 1449 Q845 1449 879.5 1434.5 Q914 1420 939 1395 Q964 1370 978.5 1335.5 Q993 1301 993 1262 Q993 1222 978.5 1188 Q964 1154 939 1129 Q914 1104 879.5 1089.5 Q845 1075 806 1075 Q766 1075 732 1089.5 Q698 1104 673 1129 Q648 1154 633.5 1188 Q619 1222 619 1262 Q619 1301 633.5 1335.5 Q648 1370 673 1395 Q698 1420 732 1434.5 Q766 1449 806 1449 Z " />
<glyph glyph-name="yacute" unicode="&#xfd;" horiz-adv-x="1159" d="M428 -402 L86 -402 L422 216 L9 981 L368 981 L591 540 L810 981 L1152 981 L428 -402 Z M392 1105 L604 1437 L963 1437 L685 1105 L392 1105 Z " />
<glyph glyph-name="thorn" unicode="&#xfe;" horiz-adv-x="1208" d="M693 1008 Q791 1008 875 968 Q959 928 1020 858 Q1081 788 1115.5 694 Q1150 600 1150 492 Q1150 383 1115.5 288.5 Q1081 194 1020 124 Q959 54 875 14 Q791 -26 693 -26 Q599 -26 533.5 6.5 Q468 39 423 91 L423 -400 L110 -400 L110 1440 L423 1440 L423 888 Q468 942 533.5 975 Q599 1008 693 1008 Z M618 716 Q572 716 533.5 699 Q495 682 467.5 652 Q440 622 424.5 581 Q409 540 409 491 Q409 442 424.5 401 Q440 360 467.5 330 Q495 300 533.5 283 Q572 266 618 266 Q665 266 704 283 Q743 300 770.5 330.5 Q798 361 813 402 Q828 443 828 491 Q828 539 813 580 Q798 621 770.5 651.5 Q743 682 704 699 Q665 716 618 716 Z " />
<glyph glyph-name="ydieresis" unicode="&#xff;" horiz-adv-x="1159" d="M428 -402 L86 -402 L422 216 L9 981 L368 981 L591 540 L810 981 L1152 981 L428 -402 Z M354 1449 Q394 1449 428 1434.5 Q462 1420 487.5 1395 Q513 1370 527.5 1335.5 Q542 1301 542 1262 Q542 1222 527.5 1188 Q513 1154 487.5 1129 Q462 1104 428 1089.5 Q394 1075 354 1075 Q315 1075 281 1089.5 Q247 1104 222 1129 Q197 1154 182.5 1188 Q168 1222 168 1262 Q168 1301 182.5 1335.5 Q197 1370 222 1395 Q247 1420 281 1434.5 Q315 1449 354 1449 Z M818 1449 Q857 1449 891.5 1434.5 Q926 1420 951 1395 Q976 1370 990.5 1335.5 Q1005 1301 1005 1262 Q1005 1222 990.5 1188 Q976 1154 951 1129 Q926 1104 891.5 1089.5 Q857 1075 818 1075 Q778 1075 744 1089.5 Q710 1104 685 1129 Q660 1154 645.5 1188 Q631 1222 631 1262 Q631 1301 645.5 1335.5 Q660 1370 685 1395 Q710 1420 744 1434.5 Q778 1449 818 1449 Z " />
<glyph glyph-name="dotlessi" unicode="&#x131;" horiz-adv-x="532" d="M423 0 L110 0 L110 981 L423 981 L423 0 Z " />
<glyph glyph-name="trademark" unicode="&#x2122;" horiz-adv-x="1661" d="M1403 746 L1403 1139 L1285 804 L1087 804 L965 1142 L965 746 L761 746 L761 1400 L1044 1400 L1186 1035 L1326 1400 L1610 1400 L1610 746 L1403 746 Z M256 746 L256 1213 L51 1213 L51 1400 L666 1400 L666 1213 L461 1213 L461 746 L256 746 Z " />
<glyph glyph-name="OE" unicode="&#x152;" horiz-adv-x="2183" d="M2082 0 L795 0 Q631 0 497 50 Q363 100 268 191.5 Q173 283 121 412.5 Q69 542 69 700 Q69 858 121 987.5 Q173 1117 268 1208.5 Q363 1300 497 1350 Q631 1400 795 1400 L2078 1400 L2078 1099 L1344 1099 L1344 857 L2035 857 L2035 557 L1344 557 L1344 301 L2082 301 L2082 0 Z M417 700 Q417 614 440.5 542 Q464 470 512 418.5 Q560 367 632.5 338 Q705 309 802 309 L1010 309 L1010 1091 L802 1091 Q705 1091 632.5 1061.5 Q560 1032 512 980 Q464 928 440.5 856.5 Q417 785 417 700 Z " />
<glyph glyph-name="oe" unicode="&#x153;" horiz-adv-x="1856" d="M1307 1008 Q1416 1008 1506 970.5 Q1596 933 1661 865 Q1726 797 1762 701.5 Q1798 606 1798 491 Q1798 467 1796 438.5 Q1794 410 1792 394 L1126 394 Q1146 313 1200.5 275 Q1255 237 1336 237 Q1392 237 1448 259 Q1504 281 1550 323 L1752 135 Q1674 58 1562.5 16 Q1451 -26 1312 -26 Q1200 -26 1109 13 Q1018 52 954 124 Q886 53 793 13.5 Q700 -26 590 -26 Q475 -26 377.5 13 Q280 52 209 121 Q138 190 98 285 Q58 380 58 491 Q58 602 98 697 Q138 792 209 861 Q280 930 377.5 969 Q475 1008 590 1008 Q701 1008 794 968 Q887 928 955 857 Q1018 929 1108 968.5 Q1198 1008 1307 1008 Z M590 716 Q544 716 505.5 699.5 Q467 683 438.5 653 Q410 623 394 581.5 Q378 540 378 491 Q378 441 394 400 Q410 359 438.5 329 Q467 299 505.5 282.5 Q544 266 590 266 Q636 266 675 282.5 Q714 299 742.5 329 Q771 359 787 400 Q803 441 803 491 Q803 540 787 581.5 Q771 623 742.5 653 Q714 683 675 699.5 Q636 716 590 716 Z M1307 742 Q1235 742 1190 703.5 Q1145 665 1127 592 L1485 592 Q1465 666 1420.5 704 Q1376 742 1307 742 Z " />
<glyph glyph-name="Scaron" unicode="&#x160;" horiz-adv-x="1355" d="M1111 1003 Q1073 1025 1029 1046.5 Q985 1068 934.5 1084.5 Q884 1101 827.5 1111 Q771 1121 710 1121 Q662 1121 622 1113 Q582 1105 552.5 1089 Q523 1073 506.5 1049.5 Q490 1026 490 995 Q490 962 513 940.5 Q536 919 575.5 904 Q615 889 667.5 879 Q720 869 778 859 L836 849 Q938 831 1020 798 Q1102 765 1159.5 715.5 Q1217 666 1248 599 Q1279 532 1279 446 Q1279 363 1256.5 295.5 Q1234 228 1193.5 175.5 Q1153 123 1098 85 Q1043 47 977.5 22.5 Q912 -2 839.5 -14 Q767 -26 692 -26 Q605 -26 519.5 -14.5 Q434 -3 355 19.5 Q276 42 205 75 Q134 108 76 152 L243 424 Q283 397 331 370.5 Q379 344 435 323 Q491 302 556 289.5 Q621 277 695 277 Q742 277 782.5 285 Q823 293 853 309.5 Q883 326 900 350 Q917 374 917 407 Q917 438 899.5 459.5 Q882 481 847 496 Q812 511 760.5 521.5 Q709 532 640 543 L570 554 Q462 571 379 604.5 Q296 638 240.5 690 Q185 742 157 814 Q129 886 131 981 Q133 1083 175.5 1165 Q218 1247 292.5 1305 Q367 1363 469.5 1394 Q572 1425 695 1425 Q766 1425 833.5 1418.5 Q901 1412 969 1395 Q1037 1378 1108.5 1349.5 Q1180 1321 1260 1277 L1111 1003 Z M603 1831 L717 1687 L830 1831 L1114 1831 L888 1499 L544 1499 L319 1831 L603 1831 Z " />
<glyph glyph-name="scaron" unicode="&#x161;" horiz-adv-x="1017" d="M848 679 Q812 694 771 708 Q730 722 688 732 Q646 742 604 748.5 Q562 755 525 755 Q463 755 437 738.5 Q411 722 411 695 Q411 679 422 669 Q433 659 454 651.5 Q475 644 504 639 Q533 634 569 628 L641 617 Q799 593 880.5 518.5 Q962 444 962 319 Q962 238 931.5 174.5 Q901 111 842.5 66.5 Q784 22 699.5 -1.5 Q615 -25 508 -25 Q445 -25 382 -19 Q319 -13 260.5 -0.5 Q202 12 149.5 31.5 Q97 51 55 78 L164 320 Q238 276 322.5 252 Q407 228 510 228 Q583 228 615 244 Q647 260 647 292 Q647 320 611 334.5 Q575 349 492 362 L435 370 Q257 396 173 471 Q89 546 89 679 Q89 757 117.5 818 Q146 879 200.5 921 Q255 963 334 985 Q413 1007 513 1007 Q573 1007 623.5 1002.5 Q674 998 723 988 Q772 978 823.5 962 Q875 946 935 923 L848 679 Z M417 1427 L531 1283 L644 1427 L928 1427 L702 1095 L358 1095 L133 1427 L417 1427 Z " />
<glyph glyph-name="Ydieresis" unicode="&#x178;" horiz-adv-x="1398" d="M871 539 L871 0 L536 0 L536 537 L4 1400 L391 1400 L705 841 L1018 1400 L1394 1400 L871 539 Z M473 1853 Q513 1853 547 1838.5 Q581 1824 606.5 1799 Q632 1774 646.5 1739.5 Q661 1705 661 1666 Q661 1626 646.5 1592 Q632 1558 606.5 1533 Q581 1508 547 1493.5 Q513 1479 473 1479 Q434 1479 400 1493.5 Q366 1508 341 1533 Q316 1558 301.5 1592 Q287 1626 287 1666 Q287 1705 301.5 1739.5 Q316 1774 341 1799 Q366 1824 400 1838.5 Q434 1853 473 1853 Z M937 1853 Q976 1853 1010.5 1838.5 Q1045 1824 1070 1799 Q1095 1774 1109.5 1739.5 Q1124 1705 1124 1666 Q1124 1626 1109.5 1592 Q1095 1558 1070 1533 Q1045 1508 1010.5 1493.5 Q976 1479 937 1479 Q897 1479 863 1493.5 Q829 1508 804 1533 Q779 1558 764.5 1592 Q750 1626 750 1666 Q750 1705 764.5 1739.5 Q779 1774 804 1799 Q829 1824 863 1838.5 Q897 1853 937 1853 Z " />
<glyph glyph-name="Zcaron" unicode="&#x17d;" horiz-adv-x="1284" d="M1208 1138 L520 301 L1208 301 L1208 0 L76 0 L76 262 L763 1099 L77 1099 L77 1400 L1208 1400 L1208 1138 Z M529 1831 L643 1687 L756 1831 L1040 1831 L814 1499 L470 1499 L245 1831 L529 1831 Z " />
<glyph glyph-name="zcaron" unicode="&#x17e;" horiz-adv-x="1039" d="M952 750 L519 277 L962 277 L962 0 L77 0 L77 224 L520 704 L94 704 L94 981 L952 981 L952 750 Z M410 1427 L524 1283 L637 1427 L921 1427 L695 1095 L351 1095 L126 1427 L410 1427 Z " />
<glyph glyph-name="florin" unicode="&#x192;" horiz-adv-x="1400" d="M1093 600 L843 600 L820 356 Q802 167 713 71 Q624 -25 456 -25 Q351 -25 278.5 1 Q206 27 152 64 L283 290 Q313 276 345 266.5 Q377 257 416 257 Q468 257 489 288 Q510 319 516 384 L536 600 L318 600 L318 850 L560 850 L579 1051 Q596 1235 686.5 1330 Q777 1425 944 1425 Q1049 1425 1121.5 1399 Q1194 1373 1248 1336 L1117 1110 Q1087 1124 1055 1133.5 Q1023 1143 984 1143 Q932 1143 911.5 1112 Q891 1081 884 1016 L868 850 L1093 850 L1093 600 Z " />
<glyph glyph-name="uni0237" unicode="&#x237;" horiz-adv-x="533" d="M424 -65 Q424 -151 401 -217.5 Q378 -284 336 -330 Q294 -376 235 -400 Q176 -424 103 -424 Q86 -424 65.5 -422 Q45 -420 24.5 -417 Q4 -414 -15 -409.5 Q-34 -405 -47 -400 L-17 -123 Q-3 -128 12.5 -130.5 Q28 -133 46 -133 Q75 -133 93.5 -113.5 Q112 -94 112 -45 L112 981 L424 981 L424 -65 Z " />
<glyph glyph-name="circumflex" unicode="&#x2c6;" horiz-adv-x="1141" d="M687 1096 L573 1240 L459 1096 L176 1096 L401 1428 L745 1428 L970 1096 L687 1096 Z " />
<glyph glyph-name="tilde" unicode="&#x2dc;" horiz-adv-x="1141" d="M157 1275 Q216 1359 288.5 1393 Q361 1427 444 1427 Q497 1427 535.5 1415.5 Q574 1404 603 1390.5 Q632 1377 654.5 1366 Q677 1355 698 1355 Q724 1355 752.5 1372.5 Q781 1390 813 1424 L984 1258 Q925 1174 852.5 1140 Q780 1106 697 1106 Q644 1106 606 1117 Q568 1128 538.5 1141.5 Q509 1155 486.5 1166.5 Q464 1178 443 1178 Q417 1178 388.5 1160.5 Q360 1143 328 1110 L157 1275 Z " />
<glyph glyph-name="endash" unicode="&#x2013;" horiz-adv-x="1137" d="M1061 403 L76 403 L76 660 L1061 660 L1061 403 Z " />
<glyph glyph-name="emdash" unicode="&#x2014;" horiz-adv-x="1576" d="M1538 403 L38 403 L38 660 L1538 660 L1538 403 Z " />
<glyph glyph-name="quoteleft" unicode="&#x2018;" horiz-adv-x="565" d="M76 790 L236 1440 L497 1440 L418 790 L76 790 Z " />
<glyph glyph-name="quoteright" unicode="&#x2019;" horiz-adv-x="565" d="M489 1440 L329 790 L68 790 L147 1440 L489 1440 Z " />
<glyph glyph-name="quotesinglbase" unicode="&#x201a;" horiz-adv-x="565" d="M489 363 L329 -287 L68 -287 L147 363 L489 363 Z " />
<glyph glyph-name="quotedblleft" unicode="&#x201c;" horiz-adv-x="1043" d="M76 790 L236 1440 L497 1440 L418 790 L76 790 Z M554 790 L714 1440 L975 1440 L896 790 L554 790 Z " />
<glyph glyph-name="quotedblright" unicode="&#x201d;" horiz-adv-x="1043" d="M967 1440 L807 790 L546 790 L625 1440 L967 1440 Z M489 1440 L329 790 L68 790 L147 1440 L489 1440 Z " />
<glyph glyph-name="quotedblbase" unicode="&#x201e;" horiz-adv-x="1043" d="M967 363 L807 -287 L546 -287 L625 363 L967 363 Z M489 363 L329 -287 L68 -287 L147 363 L489 363 Z " />
<glyph glyph-name="dagger" unicode="&#x2020;" horiz-adv-x="801" d="M283 576 L283 990 L64 990 L64 1219 L283 1219 L283 1440 L519 1440 L519 1219 L737 1219 L737 990 L519 990 L519 576 L283 576 Z " />
<glyph glyph-name="daggerdbl" unicode="&#x2021;" horiz-adv-x="801" d="M519 1282 L737 1282 L737 1067 L519 1067 L519 935 L737 935 L737 720 L519 720 L519 562 L283 562 L283 720 L64 720 L64 935 L283 935 L283 1067 L64 1067 L64 1282 L283 1282 L283 1440 L519 1440 L519 1282 Z " />
<glyph glyph-name="bullet" unicode="&#x2022;" horiz-adv-x="922" d="M460 877 Q532 877 595 850 Q658 823 705.5 776 Q753 729 780.5 666 Q808 603 808 531 Q808 459 780.5 396 Q753 333 705.5 285.5 Q658 238 595 211 Q532 184 460 184 Q388 184 325 211 Q262 238 215 285.5 Q168 333 141 396 Q114 459 114 531 Q114 603 141 666 Q168 729 215 776 Q262 823 325 850 Q388 877 460 877 Z " />
<glyph glyph-name="ellipsis" unicode="&#x2026;" horiz-adv-x="1694" d="M291 402 Q334 402 372.5 385 Q411 368 440 339 Q469 310 486 271.5 Q503 233 503 190 Q503 146 486 107 Q469 68 440 38.5 Q411 9 372.5 -8.5 Q334 -26 291 -26 Q247 -26 208 -8.5 Q169 9 140 38.5 Q111 68 93.5 107 Q76 146 76 190 Q76 233 93.5 271.5 Q111 310 140 339 Q169 368 208 385 Q247 402 291 402 Z M848 402 Q891 402 929.5 385 Q968 368 997 339 Q1026 310 1043.5 271.5 Q1061 233 1061 190 Q1061 146 1043.5 107 Q1026 68 997 38.5 Q968 9 929.5 -8.5 Q891 -26 848 -26 Q804 -26 765 -8.5 Q726 9 697 38.5 Q668 68 650.5 107 Q633 146 633 190 Q633 233 650.5 271.5 Q668 310 697 339 Q726 368 765 385 Q804 402 848 402 Z M1405 402 Q1448 402 1486.5 385 Q1525 368 1554 339 Q1583 310 1600.5 271.5 Q1618 233 1618 190 Q1618 146 1600.5 107 Q1583 68 1554 38.5 Q1525 9 1486.5 -8.5 Q1448 -26 1405 -26 Q1361 -26 1322 -8.5 Q1283 9 1254 38.5 Q1225 68 1207.5 107 Q1190 146 1190 190 Q1190 233 1207.5 271.5 Q1225 310 1254 339 Q1283 368 1322 385 Q1361 402 1405 402 Z " />
<glyph glyph-name="perthousand" unicode="&#x2030;" horiz-adv-x="2834" d="M448 1426 Q533 1426 605 1397 Q677 1368 729.5 1316 Q782 1264 812 1193.5 Q842 1123 842 1040 Q842 957 812 886 Q782 815 729.5 763.5 Q677 712 605 683 Q533 654 448 654 Q364 654 292 683 Q220 712 167.5 763.5 Q115 815 85 886 Q55 957 55 1040 Q55 1123 85 1193.5 Q115 1264 167.5 1316 Q220 1368 292 1397 Q364 1426 448 1426 Z M448 1192 Q416 1192 389.5 1180.5 Q363 1169 344 1148.5 Q325 1128 314 1100.5 Q303 1073 303 1040 Q303 1007 314 979 Q325 951 344 930.5 Q363 910 389.5 898.5 Q416 887 448 887 Q480 887 506.5 898.5 Q533 910 552.5 930.5 Q572 951 583 979 Q594 1007 594 1040 Q594 1073 583 1100.5 Q572 1128 552.5 1148.5 Q533 1169 506.5 1180.5 Q480 1192 448 1192 Z M638 0 L333 0 L1329 1400 L1633 1400 L638 0 Z M1525 746 Q1610 746 1682 716.5 Q1754 687 1806.5 635.5 Q1859 584 1889 513 Q1919 442 1919 360 Q1919 277 1889 206 Q1859 135 1806.5 83.5 Q1754 32 1682 3 Q1610 -26 1525 -26 Q1441 -26 1369 3 Q1297 32 1244.5 83.5 Q1192 135 1162 206 Q1132 277 1132 360 Q1132 442 1162 512.5 Q1192 583 1244.5 635 Q1297 687 1369 716.5 Q1441 746 1525 746 Z M1525 513 Q1493 513 1466.5 501.5 Q1440 490 1420.5 469.5 Q1401 449 1390 421 Q1379 393 1379 360 Q1379 327 1390 299.5 Q1401 272 1420.5 251.5 Q1440 231 1466.5 219.5 Q1493 208 1525 208 Q1557 208 1583.5 219.5 Q1610 231 1629.5 251.5 Q1649 272 1660 299.5 Q1671 327 1671 360 Q1671 393 1660 421 Q1649 449 1629.5 469.5 Q1610 490 1583.5 501.5 Q1557 513 1525 513 Z M2385 746 Q2470 746 2542 717 Q2614 688 2666.5 636.5 Q2719 585 2749 514 Q2779 443 2779 360 Q2779 277 2749 206 Q2719 135 2666.5 83.5 Q2614 32 2542 3 Q2470 -26 2385 -26 Q2301 -26 2229 3 Q2157 32 2104.5 83.5 Q2052 135 2022 206 Q1992 277 1992 360 Q1992 442 2022 512.5 Q2052 583 2104.5 635 Q2157 687 2229 716.5 Q2301 746 2385 746 Z M2385 513 Q2353 513 2326.5 501.5 Q2300 490 2281 469.5 Q2262 449 2251 421 Q2240 393 2240 360 Q2240 327 2251 299.5 Q2262 272 2281 251.5 Q2300 231 2326.5 219.5 Q2353 208 2385 208 Q2417 208 2443.5 219.5 Q2470 231 2489.5 251.5 Q2509 272 2520 299.5 Q2531 327 2531 360 Q2531 393 2520 421 Q2509 449 2489.5 469.5 Q2470 490 2443.5 501.5 Q2417 513 2385 513 Z " />
<glyph glyph-name="guilsinglleft" unicode="&#x2039;" horiz-adv-x="639" d="M570 130 L267 130 L70 532 L267 933 L570 933 L373 532 L570 130 Z " />
<glyph glyph-name="guilsinglright" unicode="&#x203a;" horiz-adv-x="639" d="M69 933 L372 933 L569 531 L372 130 L69 130 L266 531 L69 933 Z " />
<glyph glyph-name="Euro" unicode="&#x20ac;" horiz-adv-x="1400" d="M1045 446 L590 446 Q638 358 715 311.5 Q792 265 886 265 Q974 265 1042.5 296 Q1111 327 1163 377 L1322 134 Q1237 59 1130 17 Q1023 -25 890 -25 Q770 -25 666 7 Q562 39 479 99.5 Q396 160 336 247.5 Q276 335 244 446 L77 446 L77 644 L211 644 Q210 658 210 672 L210 728 Q210 742 211 756 L77 756 L77 954 L244 954 Q276 1065 336 1152.5 Q396 1240 479 1300.5 Q562 1361 666 1393 Q770 1425 890 1425 Q1018 1425 1127 1384.5 Q1236 1344 1325 1265 L1161 1021 Q1108 1073 1040 1104 Q972 1135 885 1135 Q787 1135 711 1087 Q635 1039 589 954 L1045 954 L1045 756 L533 756 Q531 742 531 728 L531 700 Q531 686 531.5 672 Q532 658 533 644 L1045 644 L1045 446 Z " />
<glyph glyph-name="uni0307" unicode="&#x307;" horiz-adv-x="1" d="M-591 1471 Q-552 1471 -517.5 1456.5 Q-483 1442 -458 1416.5 Q-433 1391 -418.5 1357 Q-404 1323 -404 1283 Q-404 1244 -418.5 1210 Q-433 1176 -458 1151 Q-483 1126 -517.5 1111.5 Q-552 1097 -591 1097 Q-631 1097 -665 1111.5 Q-699 1126 -724 1151 Q-749 1176 -763.5 1210 Q-778 1244 -778 1283 Q-778 1323 -763.5 1357 Q-749 1391 -724 1416.5 Q-699 1442 -665 1456.5 Q-631 1471 -591 1471 Z " />
<glyph glyph-name="gravecomb" unicode="&#x300;" horiz-adv-x="1" d="M-959 1437 L-600 1437 L-388 1105 L-681 1105 L-959 1437 Z " />
<glyph glyph-name="acutecomb" unicode="&#x301;" horiz-adv-x="1" d="M-788 1105 L-576 1437 L-217 1437 L-495 1105 L-788 1105 Z " />
<glyph glyph-name="uni0302" unicode="&#x302;" horiz-adv-x="1" d="M-478 1095 L-591 1239 L-705 1095 L-989 1095 L-764 1427 L-420 1427 L-194 1095 L-478 1095 Z " />
<glyph glyph-name="tildecomb" unicode="&#x303;" horiz-adv-x="1" d="M-1010 1275 Q-951 1359 -878.5 1393 Q-806 1427 -723 1427 Q-670 1427 -631.5 1415.5 Q-593 1404 -564 1390.5 Q-535 1377 -512.5 1366 Q-490 1355 -469 1355 Q-443 1355 -414.5 1372.5 Q-386 1390 -354 1424 L-183 1258 Q-242 1174 -314.5 1140 Q-387 1106 -470 1106 Q-523 1106 -561 1117 Q-599 1128 -628.5 1141.5 Q-658 1155 -680.5 1166.5 Q-703 1178 -724 1178 Q-750 1178 -778.5 1160.5 Q-807 1143 -839 1110 L-1010 1275 Z " />
<glyph glyph-name="uni0308" unicode="&#x308;" horiz-adv-x="1" d="M-826 1449 Q-786 1449 -752 1434.5 Q-718 1420 -692.5 1395 Q-667 1370 -652.5 1335.5 Q-638 1301 -638 1262 Q-638 1222 -652.5 1188 Q-667 1154 -692.5 1129 Q-718 1104 -752 1089.5 Q-786 1075 -826 1075 Q-865 1075 -899 1089.5 Q-933 1104 -958 1129 Q-983 1154 -997.5 1188 Q-1012 1222 -1012 1262 Q-1012 1301 -997.5 1335.5 Q-983 1370 -958 1395 Q-933 1420 -899 1434.5 Q-865 1449 -826 1449 Z M-362 1449 Q-323 1449 -288.5 1434.5 Q-254 1420 -229 1395 Q-204 1370 -189.5 1335.5 Q-175 1301 -175 1262 Q-175 1222 -189.5 1188 Q-204 1154 -229 1129 Q-254 1104 -288.5 1089.5 Q-323 1075 -362 1075 Q-402 1075 -436 1089.5 Q-470 1104 -495 1129 Q-520 1154 -534.5 1188 Q-549 1222 -549 1262 Q-549 1301 -534.5 1335.5 Q-520 1370 -495 1395 Q-470 1420 -436 1434.5 Q-402 1449 -362 1449 Z " />
<glyph glyph-name="uni030A" unicode="&#x30a;" horiz-adv-x="1" d="M-592 1068 Q-649 1068 -699 1089.5 Q-749 1111 -786.5 1147.5 Q-824 1184 -845.5 1233.5 Q-867 1283 -867 1340 Q-867 1396 -845.5 1445.5 Q-824 1495 -786.5 1531.5 Q-749 1568 -699 1589.5 Q-649 1611 -592 1611 Q-535 1611 -484.5 1589.5 Q-434 1568 -396.5 1531.5 Q-359 1495 -337 1445.5 Q-315 1396 -315 1340 Q-315 1283 -337 1233.5 Q-359 1184 -396.5 1147.5 Q-434 1111 -484.5 1089.5 Q-535 1068 -592 1068 Z M-592 1235 Q-571 1235 -552.5 1243 Q-534 1251 -519.5 1265 Q-505 1279 -497 1298 Q-489 1317 -489 1340 Q-489 1362 -497 1381 Q-505 1400 -519.5 1414 Q-534 1428 -552.5 1436.5 Q-571 1445 -592 1445 Q-612 1445 -630.5 1436.5 Q-649 1428 -663 1414 Q-677 1400 -685.5 1381 Q-694 1362 -694 1340 Q-694 1317 -685.5 1298 Q-677 1279 -663 1265 Q-649 1251 -630.5 1243 Q-612 1235 -592 1235 Z " />
<glyph glyph-name="uni0327" unicode="&#x327;" horiz-adv-x="1" d="M-498 -321 L-785 -321 L-674 7 L-395 7 L-498 -321 Z " />
<glyph glyph-name="uni030C" unicode="&#x30c;" horiz-adv-x="1" d="M-704 1427 L-590 1283 L-477 1427 L-193 1427 L-419 1095 L-763 1095 L-988 1427 L-704 1427 Z " />
</font>
</svg>
